/* XPM */
static char * s4_giroro_xpm[] = {
"100 100 31 1",
" 	c None",
".	c #FAF900",
"+	c #EEC710",
"@	c #D7692F",
"#	c #C82843",
"$	c #BF0151",
"%	c #C0074E",
"&	c #F7EF03",
"*	c #E6A51B",
"=	c #D04939",
"-	c #C20E4C",
";	c #D76A2E",
">	c #E6A61B",
",	c #CF453A",
"'	c #DA762A",
")	c #D25435",
"!	c #E08C23",
"~	c #E29520",
"{	c #F0D10D",
"]	c #C62246",
"^	c #CD3E3C",
"/	c #E6A71A",
"(	c #F3DD08",
"_	c #D55F32",
":	c #E3991F",
"<	c #C92C42",
"[	c #D15036",
"}	c #C20D4C",
"|	c #C41949",
"1	c #BF0250",
"2	c #BF044F",
"                                                                                                    ",
"                                                                                                    ",
"                                                                                                    ",
"                                                                                                    ",
"                                                                                                    ",
"                                                                                                    ",
"                                                                                                    ",
"                                                                                                    ",
"                                                                                                    ",
"                                                                                                    ",
"                                                                                                    ",
"                                                                                                    ",
"                                                                                                    ",
"                                                                                                    ",
"                                                                                                    ",
"                                                                                                    ",
"                                                                                                    ",
"                                                                                                    ",
"                                           ..............                                           ",
"                                      ........................                                      ",
"                                   ..............................                                   ",
"                                ....................................                                ",
"                              ........................................                              ",
"                            ............................................                            ",
"                          ................................................                          ",
"                         ..................................................                         ",
"                       ......................................................                       ",
"                      ........................................................                      ",
"                     ..........................................................                     ",
"                    ............................................................                    ",
"                   ..............................................................                   ",
"                   ...............+@#$%#@+...............&*=$-=*&................                   ",
"                  ...............;$$$$$$$$;.............>$$$$$$$$>................                  ",
"                 ...............,$$$$$$$$$$,...........'$$$$$$$$$$'................                 ",
"                 ..............)$$$$$$$$$$$$).........!$$$$$$$$$$$$!...............                 ",
"                ..............~$$$$$$$$$$$$$$~.......{$$$$$$$$$$$$$${...............                ",
"                ..............]$$$$$$$$$$$$$$].......^$$$$$$$$$$$$$$^...............                ",
"                ............./$$$$$$$$$$$$$$$$/.....($$$$$$$$$$$$$$$$(..............                ",
"               .............._$$$$$$$$$$$$$$$$_.....:$$$$$$$$$$$$$$$$:...............               ",
"               ..............<$$$$$$$$$$$$$$$$<.....[$$$$$$$$$$$$$$$$[...............               ",
"               ..............}$$$$$$$$$$$$$$$$}.....|$$$$$$$$$$$$$$$$|...............               ",
"               ..............1$$$$$$$$$$$$$$$$1.....2$$$$$$$$$$$$$$$$2...............               ",
"               ..............}$$$$$$$$$$$$$$$$}.....|$$$$$$$$$$$$$$$$|...............               ",
"               ..............<$$$$$$$$$$$$$$$$<.....[$$$$$$$$$$$$$$$$[...............               ",
"               .............._$$$$$$$$$$$$$$$$_.....:$$$$$$$$$$$$$$$$:...............               ",
"               ............../$$$$$$$$$$$$$$$$/.....($$$$$$$$$$$$$$$$(...............               ",
"               ...............]$$$$$$$$$$$$$$].......^$$$$$$$$$$$$$$^................               ",
"                ..............~$$$$$$$$$$$$$$~.......{$$$$$$$$$$$$$${...............                ",
"                ...............)$$$$$$$$$$$$).........!$$$$$$$$$$$$!................                ",
"                ................,$$$$$$$$$$,...........'$$$$$$$$$$'.................                ",
"                 ................;$$$$$$$$;.............>$$$$$$$$>.................                 ",
"                 .................+@#$%#@+...............&*=$-=*&..................                 ",
"                  ................................................................                  ",
"                   ..............................................................                   ",
"                   ..............................................................                   ",
"                    ............................................................                    ",
"                     ..........................................................                     ",
"                      ........................................................                      ",
"                       ......................................................                       ",
"                         ..................................................                         ",
"                          ................................................                          ",
"                            ............................................                            ",
"                              ........................................                              ",
"                                ....................................                                ",
"                                 .................................                                  ",
"                                ..................................                                  ",
"                                ..................................                                  ",
"                                ................    ...............                                 ",
"                               .................    ...............                                 ",
"                               .................    ...............                                 ",
"                               ................     ................                                ",
"                               ................     ................                                ",
"                               ................     ................                                ",
"                               ................     ................                                ",
"                               ...............       ...............                                ",
"                               ...............       ...............                                ",
"                               ..............         ..............                                ",
"                               ..............         ..............                                ",
"                               .............           .............                                ",
"                                ...........            ............                                 ",
"                                ...........             ...........                                 ",
"                                 .........               ..........                                 ",
"                                  ......                  ........                                  ",
"                                    ..                     ......                                   ",
"                                                                                                    ",
"                                                                                                    ",
"                                                                                                    ",
"                                                                                                    ",
"                                                                                                    ",
"                                                                                                    ",
"                                                                                                    ",
"                                                                                                    ",
"                                                                                                    ",
"                                                                                                    ",
"                                                                                                    ",
"                                                                                                    ",
"                                                                                                    ",
"                                                                                                    ",
"                                                                                                    ",
"                                                                                                    "};
