/* XPM */
static char * s4_tamama_xpm[] = {
"100 100 3 1",
" 	c None",
".	c #FAF900",
"+	c #00C800",
"                                                                                                    ",
"                                                                                                    ",
"                                                                                                    ",
"                                                                                                    ",
"                                                                                                    ",
"                                                                                                    ",
"                                                                                                    ",
"                                                                                                    ",
"                                                                                                    ",
"                                                                              .                     ",
"                 +                                                           ..                     ",
"                 ++                                                        ....                     ",
"                 ++++                                                     .....                     ",
"                 +++++                                                  .......                     ",
"                 +++++++                                               ........                     ",
"                 ++++++++                                             .........                     ",
"                 +++++++++                                          ...........                     ",
"                 +++++++++++                                       ............                     ",
"                 ++++++++++++                                     .............                     ",
"                 +++++++++++++                                  ...............                     ",
"                 +++++++++++++++                               ................                     ",
"                 ++++++++++++++++                            ..................                     ",
"                 ++++++++++++++++++                         ...................                     ",
"                 +++++++++++++++++++                       ....................                     ",
"                 ++++++++++++++++++++                    ......................                     ",
"                 ++++++++++++++++++++++                 .......................                     ",
"                 +++++++++++++++++++++++              .........................                     ",
"                 ++++++++++++++++++++++++            ..........................                     ",
"                 ++++++++++++++++++++++++++         ...........................                     ",
"                 +++++++++++++++++++++++++++      .............................                     ",
"                 +++++++++++++++++++++++++++++   ..............................                     ",
"                 ++++++++++++++++++++++++++++++ ...............................                     ",
"                 +++++++++++++++++++++++++++++++...............................                     ",
"                 +++++++++++++++++++++++++++++++...............................                     ",
"                 +++++++++++++++++++++++++++++++...............................                     ",
"                 +++++++++++++++++++++++++++++++...............................                     ",
"                 +++++++++++++++++++++++++++++++...............................                     ",
"                 +++++++++++++++++++++++++++++++...............................                     ",
"                 +++++++++++++++++++++++++++++++...............................                     ",
"                 +++++++++++++++++++++++++++++++...............................                     ",
"                 +++++++++++++++++++++++++++++++...............................                     ",
"                 +++++++++++++++++++++++++++++++...............................                     ",
"                 +++++++++++++++++++++++++++++++...............................                     ",
"                 +++++++++++++++++++++++++++++++...............................                     ",
"                 +++++++++++++++++++++++++++++++...............................                     ",
"                 +++++++++++++++++++++++++++++++...............................                     ",
"                 +++++++++++++++++++++++++++++++...............................                     ",
"                 +++++++++++++++++++++++++++++++...............................                     ",
"                 +++++++++++++++++++++++++++++++...............................                     ",
"                 +++++++++++++++++++++++++++++++...............................                     ",
"                 +++++++++++++++++++++++++++++++...............................                     ",
"                 +++++++++++++++++++++++++++++++...............................                     ",
"                 +++++++++++++++++++++++++++++++...............................                     ",
"                 +++++++++++++++++++++++++++++++...............................                     ",
"                 +++++++++++++++++++++++++++++++...............................                     ",
"                 +++++++++++++++++++++++++++++++...............................                     ",
"                 +++++++++++++++++++++++++++++++...............................                     ",
"                 +++++++++++++++++++++++++++++++...............................                     ",
"                 +++++++++++++++++++++++++++++++...............................                     ",
"                 +++++++++++++++++++++++++++++++...............................                     ",
"                 +++++++++++++++++++++++++++++++...............................                     ",
"                 +++++++++++++++++++++++++++++++...............................                     ",
"                 +++++++++++++++++++++++++++++++...............................                     ",
"                 +++++++++++++++++++++++++++++++...............................                     ",
"                 +++++++++++++++++++++++++++++++...............................                     ",
"                 +++++++++++++++++++++++++++++++...............................                     ",
"                 +++++++++++++++++++++++++++++++...............................                     ",
"                 +++++++++++++++++++++++++++++++...............................                     ",
"                  ++++++++++++++++++++++++++++++...............................                     ",
"                   +++++++++++++++++++++++++++++..............................                      ",
"                    ++++++++++++++++++++++++++++.............................                       ",
"                      ++++++++++++++++++++++++++............................                        ",
"                       +++++++++++++++++++++++++..........................                          ",
"                         +++++++++++++++++++++++.........................                           ",
"                          ++++++++++++++++++++++........................                            ",
"                           +++++++++++++++++++++......................                              ",
"                             +++++++++++++++++++.....................                               ",
"                              ++++++++++++++++++...................                                 ",
"                               +++++++++++++++++..................                                  ",
"                                 +++++++++++++++.................                                   ",
"                                  ++++++++++++++...............                                     ",
"                                    ++++++++++++..............                                      ",
"                                     +++++++++++............                                        ",
"                                      ++++++++++...........                                         ",
"                                        ++++++++..........                                          ",
"                                         +++++++........                                            ",
"                                          ++++++.......                                             ",
"                                            ++++......                                              ",
"                                             +++....                                                ",
"                                               +...                                                 ",
"                                                .                                                   ",
"                                                                                                    ",
"                                                                                                    ",
"                                                                                                    ",
"                                                                                                    ",
"                                                                                                    ",
"                                                                                                    ",
"                                                                                                    ",
"                                                                                                    ",
"                                                                                                    "};
