/* XPM */
static char * ball_red_xpm[] = {
"66 66 111 2",
"@_ c #EFCD0E",
"@( c #EAB715",
"@/ c #ECC211",
"@^ c #E8AE18",
"@] c #EEC80F",
"@{ c #F7F002",
"@~ c #C20F4C",
"@! c #CD3D3C",
"@) c #E2971F",
"@' c #F1D50B",
"@, c #D45A33",
"@> c #C51B48",
"@; c #C62246",
"@- c #D76A2E",
"@= c #F4E406",
"@* c #EBBA14",
"@& c #C62245",
"@% c #D9732B",
"@$ c #F6EB04",
"@# c #EFCB0E",
"@@ c #C51C47",
"@+ c #CB353F",
"+Z c #F2DA09",
"+Y c #F5E805",
"+X c #E39C1E",
"+W c #F3DF08",
"+V c #CF4739",
"+U c #DD8325",
"+T c #C0054F",
"+S c #C41948",
"+R c #F7EE03",
"+Q c #E19420",
"+P c #EAB814",
"+O c #F6E905",
"+N c #D14E37",
"+M c #ECC012",
"+L c #D04938",
"+K c #F0D30C",
"+J c #C51B47",
"+I c #DA762A",
"+H c #C31449",
"+G c #CC383E",
"+F c #EEC90F",
"+E c #D35734",
"+D c #F0D00D",
"+C c #C31649",
"+B c #D86E2C",
"+A c #F8F401",
"+z c #C2104B",
"+y c #CB333F",
"+x c #CD403B",
"+w c #E7AB18",
"+v c #F9F501",
"+u c #CB383E",
"+t c #D45C32",
"+s c #F9F500",
"+r c #DB7929",
"+q c #BF044F",
"+p c #C2114B",
"+o c #DE8625",
"+n c #BE0150",
"+m c #C0074E",
"+l c #E7AA19",
"+k c #F0D20C",
"+j c #C61F47",
"+i c #BF054F",
"+h c #DA772A",
"+g c #EFCE0D",
"+f c #BF0150",
"+e c #CE413B",
"+d c #E6A51A",
"+c c #C41749",
"+b c #D45B33",
"+a c #F4E307",
"+0 c #E9B316",
"+9 c #C3134A",
"+8 c #BE0151",
"+7 c #BF0151",
"+6 c #C82744",
"+5 c #EDC710",
"+4 c #F8F202",
"+3 c #E8AF18",
"+2 c #C72644",
"+1 c #C20E4C",
"+| c #C0064F",
"+} c #C41649",
"+[ c #D56131",
"+< c #F4E107",
"+: c #F9F700",
"+_ c #C92D42",
"+( c #C10A4D",
"+/ c #BF0250",
"+^ c #C10C4D",
"+] c #CC393E",
"+{ c #EBBE13",
"+~ c #F6EA04",
"+! c #E8AE17",
"+) c #DF8A23",
"+' c #F1D30B",
"+, c #F9F600",
"+> c #F4E207",
"+; c #E39D1D",
"+- c #DB7A28",
"+= c #DC7B28",
"+* c #E6A71A",
"+& c #F6E904",
"+% c #FAF800",
"+$ c #F9F800",
"+# c #F9F900",
"+@ c #FAF900",
"++ c None",
"++++++++++++++++++++++++++++++++++++++++++++++++++++++++++++++++++++++++++++++++++++++++++++++++++++++++++++++++++++++++++++++++++++",
"++++++++++++++++++++++++++++++++++++++++++++++++++++++++++++++++++++++++++++++++++++++++++++++++++++++++++++++++++++++++++++++++++++",
"++++++++++++++++++++++++++++++++++++++++++++++++++++++++++++++++++++++++++++++++++++++++++++++++++++++++++++++++++++++++++++++++++++",
"++++++++++++++++++++++++++++++++++++++++++++++++++++++++++++++++++++++++++++++++++++++++++++++++++++++++++++++++++++++++++++++++++++",
"++++++++++++++++++++++++++++++++++++++++++++++++++++++++++++++++++++++++++++++++++++++++++++++++++++++++++++++++++++++++++++++++++++",
"++++++++++++++++++++++++++++++++++++++++++++++++++++++++++++++++++++++++++++++++++++++++++++++++++++++++++++++++++++++++++++++++++++",
"++++++++++++++++++++++++++++++++++++++++++++++++++++++++++++++++++++++++++++++++++++++++++++++++++++++++++++++++++++++++++++++++++++",
"++++++++++++++++++++++++++++++++++++++++++++++++++++++++++++++++++++++++++++++++++++++++++++++++++++++++++++++++++++++++++++++++++++",
"++++++++++++++++++++++++++++++++++++++++++++++++++++++++++++++++++++++++++++++++++++++++++++++++++++++++++++++++++++++++++++++++++++",
"++++++++++++++++++++++++++++++++++++++++++++++++++++++++++++++++++++++++++++++++++++++++++++++++++++++++++++++++++++++++++++++++++++",
"++++++++++++++++++++++++++++++++++++++++++++++++++++++++++++++++++++++++++++++++++++++++++++++++++++++++++++++++++++++++++++++++++++",
"+++++++++++++++++++++++++++++++++++++++++++++++++++++++++@+@+@+@+@+@+@+@+@+@++++++++++++++++++++++++++++++++++++++++++++++++++++++++",
"+++++++++++++++++++++++++++++++++++++++++++++++++++#+$+@+@+%+$+%+%+@+@+@+%+@+$+$+#++++++++++++++++++++++++++++++++++++++++++++++++++",
"+++++++++++++++++++++++++++++++++++++++++++@+@+@+@+@+$+$+$+$+@+@+%+%+%+@+%+%+$+@+#+%+@+@+@++++++++++++++++++++++++++++++++++++++++++",
"+++++++++++++++++++++++++++++++++++++++@+@+%+%+%+@+%+@+@+@+@+%+@+@+@+@+@+@+@+@+@+%+$+@+$+%+@+@++++++++++++++++++++++++++++++++++++++",
"+++++++++++++++++++++++++++++++++++%+%+@+@+%+@+$+%+@+%+%+@+%+%+@+%+@+@+%+@+@+@+@+@+%+%+@+%+%+@+$+%++++++++++++++++++++++++++++++++++",
"+++++++++++++++++++++++++++++++++@+@+@+$+@+$+$+$+@+@+$+@+@+@+@+@+@+@+@+@+@+@+@+$+%+@+@+$+$+@+@+@+@+@++++++++++++++++++++++++++++++++",
"+++++++++++++++++++++++++++++%+@+$+@+@+$+@+@+%+@+@+@+@+#+@+%+%+@+@+@+@+$+@+@+$+@+@+@+@+$+$+@+%+@+@+$+@+%++++++++++++++++++++++++++++",
"+++++++++++++++++++++++++++@+@+%+@+@+%+%+@+%+%+%+@+%+%+%+@+@+%+%+@+@+@+$+@+@+$+$+$+@+@+$+%+@+@+%+%+@+@+@+@++++++++++++++++++++++++++",
"+++++++++++++++++++++++++#+$+%+%+@+$+%+%+@+%+@+@+@+@+%+%+$+$+@+@+%+@+%+@+@+$+$+%+@+%+%+@+@+@+%+%+%+@+$+%+@+#++++++++++++++++++++++++",
"+++++++++++++++++++++++++@+@+@+@+@+@+@+@+@+@+&+*+=+-+;+>+@+@+@+@+@+@+@+@+%+,+'+)+-+!+~+@+%+@+@+@+@+@+@+@+@+@++++++++++++++++++++++++",
"+++++++++++++++++++++++@+@+@+@+%+@+@+$+#+@+{+]+^+/+/+(+_+*+:+%+@+@+%+$+%+<+[+}+|+/+1+2+3+4+@+@+@+%+@+@+$+#+@+#++++++++++++++++++++++",
"+++++++++++++++++++++++@+@+%+$+%+@+%+$+@+5+6+7+7+7+7+7+8+9+0+$+$+$+$+%+a+b+8+7+7+8+7+8+c+d+@+%+$+%+@+%+$+@+@+#++++++++++++++++++++++",
"+++++++++++++++++++++@+@+%+%+%+%+$+%+%+<+e+f+7+7+f+7+7+7+8+_+g+%+%+$+:+h+i+7+7+8+7+7+7+7+j+k+%+%+%+$+%+%+@+@+%+@++++++++++++++++++++",
"+++++++++++++++++++++$+@+@+@+@+@+@+@+@+l+m+n+7+f+7+7+n+7+7+i+o+$+@+@+&+p+7+7+7+8+7+7+7+7+q+r+s+@+@+@+@+@+@+@+$+$++++++++++++++++++++",
"+++++++++++++++++++$+$+$+@+@+%+@+%+$+$+t+7+7+7+7+7+7+7+7+7+7+u+v+@+$+w+7+7+7+7+7+f+7+7+7+8+x+a+%+@+%+$+$+@+@+%+@+$++++++++++++++++++",
"+++++++++++++++++++@+$+@+@+$+$+$+@+@+$+y+7+7+7+8+n+7+7+7+n+n+z+A+@+$+B+7+7+7+n+7+7+8+8+7+7+C+D+$+$+@+@+$+$+@+@+$+@++++++++++++++++++",
"+++++++++++++++++++@+$+%+@+@+@+@+@+@+@+2+7+7+8+7+7+f+8+n+7+7+q+A+@+$+E+7+n+7+n+7+f+n+7+8+8+i+F+@+@+@+@+@+%+@+%+%+@++++++++++++++++++",
"+++++++++++++++++++#+%+$+@+@+@+$+@+%+@+G+7+7+f+7+7+7+n+7+7+7+H+A+@+%+I+8+7+7+7+7+7+7+7+8+8+J+K+@+$+@+%+@+@+@+@+%+#++++++++++++++++++",
"+++++++++++++++++++@+@+@+@+$+@+@+@+@+@+B+7+7+7+7+7+7+7+7+7+7+L+,+@+@+M+7+8+7+7+7+7+n+f+7+7+N+O+@+@+@+@+@+@+@+@+@+@++++++++++++++++++",
"+++++++++++++++++++@+$+%+@+%+$+@+@+%+%+P+(+7+8+7+8+7+7+7+7+m+Q+$+@+@+R+S+7+n+8+7+7+7+7+8+T+U+,+$+@+@+%+%+%+@+@+$+@++++++++++++++++++",
"+++++++++++++++++++@+%+%+@+@+@+@+@+%+@+~+[+q+n+8+7+7+7+7+7+V+W+@+@+%+$+X+1+7+n+7+7+7+n+7+G+Y+@+@+@+@+%+@+@+@+@+%+@++++++++++++++++++",
"+++++++++++++++++++++$+%+%+%+@+@+@+@+@+%+Z@++n+7+7+7+7+7@@@#+@+@+%+%+@@$@%+7+7+n+7+7+7@&@*+%+%+@+@+@+@+@+%+@+@+$++++++++++++++++++++",
"+++++++++++++++++++++++@+%+%+@+@+@+@+@+@+%@=@-@;+|+T@>@,@'+@+@+%+%+%+$+@+,@)@!@~+T+2+E+Z+@+%+%+@+@+@+@+@+@+%+@++++++++++++++++++++++",
"+++++++++++++++++++++++%+@+@+@+@+$+@+@+@+@+@@{@]@^@^@/@$+@+@+#+@+@+%+@+@+%+:+>@(@^@_@{+$+%+%+@+@+@+$+@+@+@+@+%++++++++++++++++++++++",
"+++++++++++++++++++++++++@+@+%+%+@+@+%+@+@+@+$+@+@+@+#+%+@+@+$+%+@+@+@+%+@+@+$+%+@+@+%+%+@+@+@+%+%+@+@+%+@+@++++++++++++++++++++++++",
"+++++++++++++++++++++++++@+@+#+%+$+@+@+%+#+@+%+%+$+#+%+%+#+#+%+$+$+%+#+@+$+#+@+%+$+$+@+%+%+$+@+#+%+$+@+@+$+@++++++++++++++++++++++++",
"+++++++++++++++++++++++++++%+@+@+@+@+@+$+@+@+$+@+@+%+@+%+@+@+@+@+@+@+@+@+$+@+#+@+@+%+%+@+%+@+@+@+@+@+@+@+%++++++++++++++++++++++++++",
"+++++++++++++++++++++++++++++%+#+@+@+@+%+@+@+$+%+@+@+%+@+#+@+#+%+@+@+@+@+@+@+@+$+%+@+%+$+@+@+$+@+@+@+$+%++++++++++++++++++++++++++++",
"+++++++++++++++++++++++++++++++++@+@+@+%+@+@+$+%+$+@+%+@+@+%+$+%+$+@+@+%+@+@+@+%+$+@+$+@+@+@+@+$+@+@++++++++++++++++++++++++++++++++",
"+++++++++++++++++++++++++++++++++++@+#+@+%+@+%+@+$+@+$+%+@+@+@+@+@+@+@+@+@+@+@+%+%+$+%+%+%+@+@+#+@++++++++++++++++++++++++++++++++++",
"+++++++++++++++++++++++++++++++++++++++@+@+@+@+%+@+@+$+@+@+@+@+@+@+@+%+@+@+%+@+@+%+@+%+%+@+@+@++++++++++++++++++++++++++++++++++++++",
"+++++++++++++++++++++++++++++++++++++++++++@+$+$+@+$+$+$+@+$+#+$+%+%+$+$+$+@+@+$+$+@+$+@+@++++++++++++++++++++++++++++++++++++++++++",
"+++++++++++++++++++++++++++++++++++++++++++@+@+@+%+$+%+%+$+@+$+%+@+@+@+%+$+@+%+%+%+%+@+@++++++++++++++++++++++++++++++++++++++++++++",
"+++++++++++++++++++++++++++++++++++++++++@+@+%+$+@+$+@+%+$+$+%+@+$+$+@+%+$+@+#+@+@+@+$+@+#++++++++++++++++++++++++++++++++++++++++++",
"+++++++++++++++++++++++++++++++++++++++++@+@+@+%+@+@+@+@+@+%+$+@+++++#+@+%+@+@+@+@+@+%+$+@++++++++++++++++++++++++++++++++++++++++++",
"+++++++++++++++++++++++++++++++++++++++++%+@+@+$+%+@+$+$+$+$+@+%+++++$+@+%+%+$+@+%+%+@+$+%++++++++++++++++++++++++++++++++++++++++++",
"+++++++++++++++++++++++++++++++++++++++++@+%+%+%+@+%+@+@+@+@+%+@+++++#+@+@+@+@+@+%+$+@+$+@++++++++++++++++++++++++++++++++++++++++++",
"+++++++++++++++++++++++++++++++++++++++++%+%+@+$+%+@+%+%+@+%+@+%+++++$+%+@+@+@+@+@+%+%+@+@++++++++++++++++++++++++++++++++++++++++++",
"+++++++++++++++++++++++++++++++++++++++++@+$+$+$+@+@+$+@+@+@+@+++++++@+@+@+@+@+$+%+@+@+$+#++++++++++++++++++++++++++++++++++++++++++",
"+++++++++++++++++++++++++++++++++++++++++%+@+%+@+@+@+@+#+@+%+%+++++++@+@+@+@+$+@+@+@+@+$+$++++++++++++++++++++++++++++++++++++++++++",
"+++++++++++++++++++++++++++++++++++++++++@+%+%+%+@+%+%+%+@+%+++++++++++%+@+@+$+$+$+@+@+$+#++++++++++++++++++++++++++++++++++++++++++",
"+++++++++++++++++++++++++++++++++++++++++@+@+@+@+@+@+%+%+#+@+++++++++++++@+$+$+%+@+%+%+@+@++++++++++++++++++++++++++++++++++++++++++",
"+++++++++++++++++++++++++++++++++++++++++++@+@+@+@+@+@+@+@+++++++++++++++@+@+@+@+@+@+@+@+@++++++++++++++++++++++++++++++++++++++++++",
"+++++++++++++++++++++++++++++++++++++++++++@+@+@+$+@+%+%+++++++++++++++++++@+$+@+@+%+@+@+@++++++++++++++++++++++++++++++++++++++++++",
"+++++++++++++++++++++++++++++++++++++++++++++++@+$+@+++++++++++++++++++++++++@+%+@+$+@++++++++++++++++++++++++++++++++++++++++++++++",
"++++++++++++++++++++++++++++++++++++++++++++++++++++++++++++++++++++++++++++++++++++++++++++++++++++++++++++++++++++++++++++++++++++",
"++++++++++++++++++++++++++++++++++++++++++++++++++++++++++++++++++++++++++++++++++++++++++++++++++++++++++++++++++++++++++++++++++++",
"++++++++++++++++++++++++++++++++++++++++++++++++++++++++++++++++++++++++++++++++++++++++++++++++++++++++++++++++++++++++++++++++++++",
"++++++++++++++++++++++++++++++++++++++++++++++++++++++++++++++++++++++++++++++++++++++++++++++++++++++++++++++++++++++++++++++++++++",
"++++++++++++++++++++++++++++++++++++++++++++++++++++++++++++++++++++++++++++++++++++++++++++++++++++++++++++++++++++++++++++++++++++",
"++++++++++++++++++++++++++++++++++++++++++++++++++++++++++++++++++++++++++++++++++++++++++++++++++++++++++++++++++++++++++++++++++++",
"++++++++++++++++++++++++++++++++++++++++++++++++++++++++++++++++++++++++++++++++++++++++++++++++++++++++++++++++++++++++++++++++++++",
"++++++++++++++++++++++++++++++++++++++++++++++++++++++++++++++++++++++++++++++++++++++++++++++++++++++++++++++++++++++++++++++++++++",
"++++++++++++++++++++++++++++++++++++++++++++++++++++++++++++++++++++++++++++++++++++++++++++++++++++++++++++++++++++++++++++++++++++",
"++++++++++++++++++++++++++++++++++++++++++++++++++++++++++++++++++++++++++++++++++++++++++++++++++++++++++++++++++++++++++++++++++++"};
