/* XPM */
static char * ball_red_xpm[] = {
"50 50 37 1",
"0 c #BF044F",
"9 c #CD3C3D",
"8 c #E5A31B",
"7 c #C10C4C",
"6 c #C10A4D",
"5 c #D04C38",
"4 c #F1D50B",
"3 c #DC7F27",
"2 c #C3124B",
"1 c #F0CF0D",
"| c #ECC012",
"} c #C92E42",
"[ c #D55E32",
"< c #EBBE13",
": c #C41A48",
"_ c #DF8A23",
"( c #C0074E",
"/ c #CC3A3D",
"^ c #E49F1D",
"] c #DE8525",
"{ c #C0094E",
"~ c #F5E406",
"! c #C72345",
") c #F7EF03",
"' c #DB7829",
", c #C82A43",
"> c #F2D80A",
"; c #BF0151",
"- c #D76A2E",
"= c #DD8027",
"* c #EAB815",
"& c #F9F600",
"% c #DF8824",
"$ c #DE8625",
"# c #EEC80F",
"@ c #FAF900",
"+ c None",
"++++++++++++++++++++++++++++++++++++++++++++++++++",
"++++++++++++++++++++++++++++++++++++++++++++++++++",
"++++++++++++++++++++++++++++++++++++++++++++++++++",
"++++++++++++++++++++++++++++++++++++++++++++++++++",
"++++++++++++++++++++++++++++++++++++++++++++++++++",
"++++++++++++++++++++++++++++++++++++++++++++++++++",
"++++++++++++++++++++++++++++++++++++++++++++++++++",
"++++++++++++++++++++++++++++++++++++++++++++++++++",
"++++++++++++++++++++++++++++++++++++++++++++++++++",
"+++++++++++++++++++@@@@@@@@@@@@+++++++++++++++++++",
"++++++++++++++++@@@@@@@@@@@@@@@@@@++++++++++++++++",
"++++++++++++++@@@@@@@@@@@@@@@@@@@@@@++++++++++++++",
"++++++++++++@@@@@@@@@@@@@@@@@@@@@@@@@@++++++++++++",
"+++++++++++@@@@@@@@@@@@@@@@@@@@@@@@@@@@+++++++++++",
"++++++++++@@@@@@@@@@@@@@@@@@@@@@@@@@@@@@++++++++++",
"+++++++++@@@@@@@@#$%#@@@@@@@&*=*&@@@@@@@@+++++++++",
"++++++++@@@@@@@@-;;;;-@@@@@>,;;;,>@@@@@@@@++++++++",
"++++++++@@@@@@@';;;;;;'@@@)!;;;;;!)@@@@@@@++++++++",
"++++++++@@@@@@~{;;;;;;{~@@];;;;;;;]@@@@@@@++++++++",
"+++++++@@@@@@@^;;;;;;;;^@@/;;;;;;;/@@@@@@@@+++++++",
"+++++++@@@@@@@=;;;;;;;;=@@(;;;;;;;(@@@@@@@@+++++++",
"+++++++@@@@@@@_;;;;;;;;_@@:;;;;;;;:@@@@@@@@+++++++",
"+++++++@@@@@@@<;;;;;;;;<@@[;;;;;;;[@@@@@@@@+++++++",
"+++++++@@@@@@@@};;;;;;}@@@|;;;;;;;|@@@@@@@@+++++++",
"++++++++@@@@@@@12;;;;21@@@@3;;;;;3@@@@@@@@++++++++",
"++++++++@@@@@@@@456754@@@@@@89098@@@@@@@@@++++++++",
"+++++++++@@@@@@@@@@@@@@@@@@@@@@@@@@@@@@@@+++++++++",
"+++++++++@@@@@@@@@@@@@@@@@@@@@@@@@@@@@@@@+++++++++",
"++++++++++@@@@@@@@@@@@@@@@@@@@@@@@@@@@@@++++++++++",
"+++++++++++@@@@@@@@@@@@@@@@@@@@@@@@@@@@+++++++++++",
"+++++++++++++@@@@@@@@@@@@@@@@@@@@@@@@+++++++++++++",
"+++++++++++++++@@@@@@@@@@@@@@@@@@@@+++++++++++++++",
"++++++++++++++++@@@@@@@@@@@@@@@@@+++++++++++++++++",
"++++++++++++++++@@@@@@@@@@@@@@@@@@++++++++++++++++",
"+++++++++++++++@@@@@@@@@++@@@@@@@@++++++++++++++++",
"+++++++++++++++@@@@@@@@@++@@@@@@@@++++++++++++++++",
"+++++++++++++++@@@@@@@@@++@@@@@@@@++++++++++++++++",
"+++++++++++++++@@@@@@@@+++@@@@@@@@++++++++++++++++",
"+++++++++++++++@@@@@@@@++++@@@@@@@++++++++++++++++",
"+++++++++++++++@@@@@@@+++++@@@@@@@++++++++++++++++",
"++++++++++++++++@@@@@@++++++@@@@@@++++++++++++++++",
"+++++++++++++++++@@@+++++++++@@@@+++++++++++++++++",
"++++++++++++++++++++++++++++++++++++++++++++++++++",
"++++++++++++++++++++++++++++++++++++++++++++++++++",
"++++++++++++++++++++++++++++++++++++++++++++++++++",
"++++++++++++++++++++++++++++++++++++++++++++++++++",
"++++++++++++++++++++++++++++++++++++++++++++++++++",
"++++++++++++++++++++++++++++++++++++++++++++++++++",
"++++++++++++++++++++++++++++++++++++++++++++++++++",
"++++++++++++++++++++++++++++++++++++++++++++++++++"};
