/* XPM */
static char * ball_red_xpm[] = {
"50 50 2 1",
"@ c #FA0035",
"+ c None",
"++++++++++++++++++++++++++++++++++++++++++++++++++",
"++++++++++++++++++++++++++++++++++++++++++++++++++",
"++++++++++++++++++++++++++++++++++++++++++++++++++",
"++++++++++++++++++++++++@@++++++++++++++++++++++++",
"+++++++++++++++++++++++@@@@+++++++++++++++++++++++",
"+++++++++++++++++++++++@@@@+++++++++++++++++++++++",
"++++++++++++++++++++++@@@@@+++++++++++++++++++++++",
"++++++++++++++++++++++@@@@@@++++++++++++++++++++++",
"+++++++++++++++++++++@@@@@@@++++++++++++++++++++++",
"++++++++++++++++++++@@@@@@@@++++++++++++++++++++++",
"++++++++++++++++++++@@@@@@@@@+++++++++++++++++++++",
"+++++++++++++++++++@@@@@@@@@@+++++++++++++++++++++",
"+++++++++++++++++++@@@@@@@@@@+++++++++++++++++++++",
"++++++++++++++++++@@@@@@@@@@@+++++++++++++++++++++",
"++++++++++++++++++@@@@@@@@@@@@+++++++++++++@@+++++",
"+++++@@@@@@@@++++@@@@@@@@@@@@@++++++@@@@@@@@@+++++",
"+++++@@@@@@@@@@@@@@@@@@@@@@@@@@@@@@@@@@@@@@@++++++",
"++++++@@@@@@@@@@@@@@@@@@@@@@@@@@@@@@@@@@@@@@++++++",
"++++++@@@@@@@@@@@@@@@@@@@@@@@@@@@@@@@@@@@@@+++++++",
"+++++++@@@@@@@@@@@@@@@@@@@@@@@@@@@@@@@@@@@@+++++++",
"++++++++@@@@@@@@@@@@@@@@@@@@@@@@@@@@@@@@@@++++++++",
"+++++++++@@@@@@@@@@@@@@@@@@@@@@@@@@@@@@@@+++++++++",
"+++++++++@@@@@@@@@@@@@@@@@@@@@@@@@@@@@@@@+++++++++",
"++++++++++@@@@@@@@@@@@@@@@@@@@@@@@@@@@@@++++++++++",
"+++++++++++@@@@@@@@@@@@@@@@@@@@@@@@@@@@@++++++++++",
"+++++++++++@@@@@@@@@@@@@@@@@@@@@@@@@@@@+++++++++++",
"++++++++++++@@@@@@@@@@@@@@@@@@@@@@@@@@@+++++++++++",
"++++++++++++@@@@@@@@@@@@@@@@@@@@@@@@@@++++++++++++",
"++++++++++++@@@@@@@@@@@@@@@@@@@@@@@@@@++++++++++++",
"+++++++++++@@@@@@@@@@@@@@@@@@@@@@@@@@@@+++++++++++",
"+++++++++++@@@@@@@@@@@@@@@@@@@@@@@@@@@@+++++++++++",
"++++++++++@@@@@@@@@@@@@@@@@@@@@@@@@@@@@@++++++++++",
"++++++++++@@@@@@@@@@@@@@@@@@@@@@@@@@@@@@++++++++++",
"+++++++++@@@@@@@@@@@@@@@@@@@@@@@@@@@@@@@@+++++++++",
"+++++++++@@@@@@@@@@@@@@@@@@@@@@@@@@@@@@@@+++++++++",
"++++++++@@@@@@@@@@@@@@@@@@@@@@@@@@@@@@@@@@++++++++",
"++++++++@@@@@@@@@@@@@@@@++@@@@@@@@@@@@@@@@++++++++",
"+++++++@@@@@@@@@@@@@@@++++++@@@@@@@@@@@@@@@+++++++",
"+++++++@@@@@@@@@@@@+++++++++++@@@@@@@@@@@@@+++++++",
"++++++@@@@@@@@@@@+++++++++++++++@@@@@@@@@@@@++++++",
"++++++@@@@@@@@@+++++++++++++++++++@@@@@@@@@@++++++",
"+++++@@@@@@@@+++++++++++++++++++++++@@@@@@@@++++++",
"+++++@@@@@@++++++++++++++++++++++++++@@@@@@@@+++++",
"+++++@@@@++++++++++++++++++++++++++++++@@@@@@+++++",
"+++++++++++++++++++++++++++++++++++++++++@@@@+++++",
"++++++++++++++++++++++++++++++++++++++++++++++++++",
"++++++++++++++++++++++++++++++++++++++++++++++++++",
"++++++++++++++++++++++++++++++++++++++++++++++++++",
"++++++++++++++++++++++++++++++++++++++++++++++++++",
"++++++++++++++++++++++++++++++++++++++++++++++++++"};
