/* XPM */
static char * ball_red_xpm[] = {
"44 44 5 1",
"% c #FA0034",
"$ c #F90035",
"# c #F90034",
"@ c #FA0035",
"+ c None",
"++++++++++++++++++++++++++++++++++++++++++++",
"++++++++++++++++++++++++++++++++++++++++++++",
"++++++++++++++++++++++++++++++++++++++++++++",
"++++++++++++++++++++@@@@++++++++++++++++++++",
"++++++++++++++++++++@##$++++++++++++++++++++",
"+++++++++++++++++++@@@%@++++++++++++++++++++",
"+++++++++++++++++++@@$@@@+++++++++++++++++++",
"++++++++++++++++++%@@@@@@+++++++++++++++++++",
"++++++++++++++++++$%@##@%+++++++++++++++++++",
"+++++++++++++++++@@@##@#%@++++++++++++++++++",
"+++++++++++++++++$@%#@$@#@++++++++++++++++++",
"++++++++++++++++@@@#%%%@#@++++++++++++++++++",
"+++++++++++++++@@$$@@@$@#@+++++++++++@@@++++",
"++++@@@$%##@+++@@@$$@#####%+++++@@@@%%@@++++",
"++++@%@@%%@@@@@@%@@%%@@@#@@%@@@@@@@#@$@@++++",
"+++++#@@$######@@@@$######@@@@$######@%+++++",
"+++++@@%@@@%@@@@@#%@@@%@@@@@#%@@@%@@@@++++++",
"++++++@$#@$@@@@@@$$#@$@@@@@@$$#@$@@@@$++++++",
"+++++++@@@@@@@@#@@@@@@@@@@#@@@@@@@@@@+++++++",
"+++++++@#@##@#@$@#@%@##@#@$@#@%@##@#@+++++++",
"++++++++@##@#@@@%@@@##@#@@@%@@@##@#%++++++++",
"+++++++++@@$@#@@@$@%#@$@#@@@$@%#@$@+++++++++",
"++++++++++@%@#%##@@#%%%@#%##@@#%%%@+++++++++",
"++++++++++@$@#@@@$$@@@$@#@@@$$@@@@++++++++++",
"+++++++++++#####@@$$@######@@$$@#@++++++++++",
"++++++++++@@@#@$%@@%%@@@#@$%@@%%@@++++++++++",
"+++++++++@$####@@@@$######@@@@$###@+++++++++",
"+++++++++@@%@@@@@#%@@@%@@@@@#%@@@%#+++++++++",
"++++++++@@$@@@@@@$$#@$@@@@@@$$#@$@@@++++++++",
"+++++++@#@@@@@@#@@@@@@@@@@#@@@@@@@@%++++++++",
"+++++++@%@##@#@$@#@%@##@#@$@#@%@##@%%+++++++",
"+++++++@@##@#@@@%@@@#@@#@@@%@@@##@#@#+++++++",
"++++++@@%#@$@#@@@$@@$+@@%@@@$@%#@$@#@+++++++",
"++++++@@#%%%@#%%$@+++++++@##@@#%%%@#%#++++++",
"+++++@@$@@@$@#@#+++++++++++%$$@@@$@#@%@+++++",
"+++++@@$$@##%$$++++++++++++++@@@######@+++++",
"++++@%@@%@@@@+++++++++++++++++$@@@@#@$@@++++",
"++++%@@@@@+++++++++++++++++++++++####@@#++++",
"++++@@@@++++++++++++++++++++++++++@@@@@@++++",
"++++++++++++++++++++++++++++++++++++%#@#++++",
"++++++++++++++++++++++++++++++++++++++++++++",
"++++++++++++++++++++++++++++++++++++++++++++",
"++++++++++++++++++++++++++++++++++++++++++++",
"++++++++++++++++++++++++++++++++++++++++++++"};
