/* XPM */
static char * s4_ball_gray_xpm[] = {
"100 100 73 1",
" 	c None",
".	c #D5D5D5",
"+	c #D4D4D4",
"@	c #D3D3D3",
"#	c #D0D0D0",
"$	c #D2D2D2",
"%	c #CECECE",
"&	c #CACACA",
"*	c #CCCCCC",
"=	c #D1D1D1",
"-	c #CFCFCF",
";	c #C6C6C6",
">	c #C4C4C4",
",	c #C8C8C8",
"'	c #CDCDCD",
")	c #C0C0C0",
"!	c #BFBFBF",
"~	c #C2C2C2",
"{	c #C9C9C9",
"]	c #CBCBCB",
"^	c #BABABA",
"/	c #B9B9B9",
"(	c #BCBCBC",
"_	c #C7C7C7",
":	c #B3B3B3",
"<	c #B6B6B6",
"[	c #C5C5C5",
"}	c #AFAFAF",
"|	c #B0B0B0",
"1	c #B4B4B4",
"2	c #B8B8B8",
"3	c #BBBBBB",
"4	c #C3C3C3",
"5	c #AAAAAA",
"6	c #AEAEAE",
"7	c #B2B2B2",
"8	c #B5B5B5",
"9	c #A8A8A8",
"0	c #ACACAC",
"a	c #B7B7B7",
"b	c #A5A5A5",
"c	c #A6A6A6",
"d	c #A9A9A9",
"e	c #ADADAD",
"f	c #A3A3A3",
"g	c #A7A7A7",
"h	c #ABABAB",
"i	c #BEBEBE",
"j	c #A1A1A1",
"k	c #9F9F9F",
"l	c #A2A2A2",
"m	c #A4A4A4",
"n	c #9E9E9E",
"o	c #9C9C9C",
"p	c #9B9B9B",
"q	c #D6D6D6",
"r	c #D7D7D7",
"s	c #D9D9D9",
"t	c #DBDBDB",
"u	c #DCDCDC",
"v	c #D8D8D8",
"w	c #E3E3E3",
"x	c #E8E8E8",
"y	c #EBEBEB",
"z	c #E6E6E6",
"A	c #F0F0F0",
"B	c #F6F6F6",
"C	c #F8F8F8",
"D	c #F9F9F9",
"E	c #FDFDFD",
"F	c #FEFEFE",
"G	c #F1F1F1",
"H	c #FFFFFF",
"                                                                                                    ",
"                                                                                                    ",
"                                        ..+++...............                                        ",
"                                    .+@@@++++...................                                    ",
"                                 .@###$$@++++......................                                 ",
"                               $%&*%#=$@@+++.........................                               ",
"                             -;>,&'-#=$@@+++...........................                             ",
"                           ')!~;{]'##=$@++++.............................                           ",
"                          ^/()>_&*%#=$@@++++...............................                         ",
"                        ^:<^!~[,]'-#=$@@+++..................................                       ",
"                       }|123)4;{*%##$$@++++...................................                      ",
"                     15678^(~>_&'-#=$@@+++.....................................                     ",
"                    590|:a^!~;{]'-#=$@++++.......................................                   ",
"                   bcde|12()4_&*%#=$@@++++........................................                  ",
"                  fbgh6:<^i~[,]'-#=$@@+++..........................................                 ",
"                 jfb90|:a3)~;{*%##$$@++++...........................................                ",
"                klmcde|1/()>_&'%#=$@@++++............................................               ",
"               nklbg56:<^i~[,]'-#=$@++++..............................................              ",
"              okjfb9h}:a^!~;{*%##$@@++++...............................................             ",
"             onkjfb90|123)4_&'%#=$@@+++.................................................            ",
"            oonkjmcde|8/()>,&'-#=$@++++.................................................            ",
"            oonklmg567<^i~[,]'##$$@++++..................................................           ",
"           ooonklbgh}:<^!~;{*%##$@@+++....................................................          ",
"          poookkfb9h}:a3)4;&*%#=$@@+++.................................qqq.................         ",
"          poookjfb90|123)>_&'-#=$@++++...............................rstutsr...............         ",
"         ppoonkjfb90|12()>_&'-#=$@++++..............................vuwxyxwuv...............        ",
"        pppoonkjfbde|1/()>,]'-#=$@+++..............................ruzABCBAzur..............        ",
"        pppoonkjmcde|8/(~[,]'-#$@@+++..............................swADEFEDGws...............       ",
"       ppppoonkjmcde78^i~[,]'##$@@+++.............................qtxBEFFFEBxtq..............       ",
"       ppppoonklmc5e78^i~[{]%##$@@+++.............................quyCFFHFFCyuq...............      ",
"      pppppoonklmc5e78^i~[{*%##$@@+++.............................qtxBEFFFEBxtq...............      ",
"      pppppoonklmc567<^i~[{*%#=$@@+++..............................swADEFEDGws.................     ",
"      pppppoonklmc567<^i~[{*%#=$@@+++..............................ruzGBCBGzur.................     ",
"     ppppppoonklmc5678^i~[{*%##$@@+++...............................vuwxyxwuv...................    ",
"     ppppppoonklmc5e78^i~[{]%##$@@+++................................rstutsr....................    ",
"    pppppppoonkjmcde78^i~[,]'##$@@+++..................................qqq......................    ",
"    pppppppoonkjmcde|8/(~[,]'-#$@@+++............................................................   ",
"    pppppppoonkjfbde|1/()>,]'-#=$@+++............................................................   ",
"    pppppppoonkjfb90|12()>_&'-#=$@++++...........................................................   ",
"   ppppppppoookjfb90|123)>_&'-#=$@++++...........................................................   ",
"   ppppppppoookkfb9h}:a3)4;&*%#=$@@+++............................................................  ",
"   ppppppppooonklbgh}:<^!~;{*%#=$@@+++............................................................  ",
"   pppppppppoonklmg567<^i~[,]'##$$@++++...........................................................  ",
"   pppppppppoonkjmcde|8/()>,&'-#=$@++++...........................................................  ",
"   pppppppppoonkjfbd0|123)4_&'%#=$@@+++...........................................................  ",
"  ppppppppppoookjfb9h}:a^!~;{*%##$@@++++..........................................................  ",
"  ppppppppppooonklbg56:<^i~[,]'-#=$@++++..........................................................  ",
"  pppppppppppoonklmcde|1/()>_&'%#=$@@++++.........................................................  ",
"  pppppppppppoonkjfb90|:a3!~;{*%##=$@++++.........................................................  ",
"  pppppppppppoookkfbgh6:<^i~>,&'-#=$@@++++........................................................  ",
"  ppppppppppppoonklmcde|123)4;&*%##=$@++++........................................................  ",
"  ppppppppppppoonkjfb90|:a^!~[,]'-#=$@@++++.......................................................  ",
"  ppppppppppppoookklbg5678/()>_&*%##=$@++++.......................................................  ",
"  pppppppppppppoonklmbd0|:a^!~[,]'-#=$@@++++......................................................  ",
"  pppppppppppppoonkjfbgh678/()>;&*%##=$@@++++.....................................................  ",
"   ppppppppppppooonklmcd0|:a^!~[,&'%##$$@@++++....................................................  ",
"   pppppppppppppoonkjfbgh678/()4;{]'-#=$@@+++++...................................................  ",
"   pppppppppppppooonklmcd0|:a^i~>_&*%##=$@@+++++..................................................  ",
"   ppppppppppppppoonkjfbgh67123)~[,&'%##=$@@+++++.................................................  ",
"   ppppppppppppppooonklmcd0|:<^()4;{]'-##=$@@+++++................................................  ",
"   pppppppppppppppoonkjfbg5e|1a^!~>_&*'-#==$@@+++++............................................++   ",
"    ppppppppppppppooonklmb9h67823!~[_&*'-##=$@@++++++......................................++++++   ",
"    pppppppppppppppoonkklmcd0|:</()~[,&*'-##=$@@@++++++..................................+++++++.   ",
"    pppppppppppppppooonkjfbg5e|:<^()4[,&*'-##=$$@@+++++++.............................++++++++++.   ",
"    ppppppppppppppppooonklmb9h6|1a^i)4[,&*'-##=$$@@@+++++++........................+++++++++@@@+    ",
"     ppppppppppppppppoonkklmc9h671a^i)4[,&*'%##==$$@@@++++++++..................+++++++++@@@@@$+    ",
"     ppppppppppppppppooonkjfbcd0}712^i)4[_&]'%-##==$$@@@++++++++++++++++++++++++++++++@@@@@$$$$.    ",
"      ppppppppppppppppooonkjfbgd0}:82^i)~[_{&*'-###=$$$@@@@++++++++++++++++++++++++@@@@@$$$===$     ",
"      pppppppppppppppppoookklfbg50}:1a^()~>;,&]'%-###==$$@@@@@@++++++++++++++++@@@@@@$$$===###+     ",
"      pppppppppppppppppooonkklmbg50}71a^(!~4[_{&*'%-###==$$$@@@@@@@@@@@@@@@@@@@@@@$$$===###--#      ",
"       pppppppppppppppppooonkklmbg50}71</3!)~>;,&]*'%-####==$$$$$$$@@@@@@@@$$$$$$$===###--%''@      ",
"       ppppppppppppppppppooonkklmbgd06|:<2^()~4[;,&]*'%--####====$$$$$$$$$$$$====####--%''*]'       ",
"        ppppppppppppppppppooonkklmbgdh6|:8a^3!)~>[_,&&*''%%--#####################--%''*]&&,$       ",
"        pppppppppppppppppppooonkklfbc9he|71<2^(!)~>[;,{&]*'''%%----########----%%'''*]&&,_;&        ",
"         pppppppppppppppppppooonkklfbc9506|:1a/^(!)~4>;_,{&]]**'''''%%%%%%'''''**]]&{,_;[>4$        ",
"          pppppppppppppppppppooonkkjfmbgdhe|7:8a/^(!)~~>[;_,,{&&&]]]]****]]]]&&&{,,_;[>4~)&         ",
"          ppppppppppppppppppppooonkkjlmbc9506|7:8a/^3i!)~~4>[;;__,,,{{{{{{,,,__;;[>>~~))!)+         ",
"           ppppppppppppppppppppoooonkklfmbgd506|7:8a2^^(i!))~~4>>>[[[[;;[[[[>>>4~~))!i(3^-          ",
"            ppppppppppppppppppppoooonkkjlmbcgdh06|7:1<a/^^3(i!)))~~~~~~~~~~~~)))!i(3^^/2>           ",
"            pppppppppppppppppppppoooonnkkjfmbcgdh06||::1<a2/^^33((iiii!!iiii((33^^/2a<8^            ",
"             ppppppppppppppppppppppoooonkkjlfmbcgd50e6||::18<<a22/^^^^^^^^^^/22a<<81:::             ",
"              ppppppppppppppppppppppoooonnkkjlfmbbg9dh0e6}||7::1118888<<8888111::7|||6              ",
"               pppppppppppppppppppppppoooonnkkjlfmbbcg9d5h0e6}|||||77777777|||||}6e0h               ",
"                pppppppppppppppppppppppooooonnkkjjlfmbbcg9dd5hh00eeee6666eeee00hh5dd                ",
"                 ppppppppppppppppppppppppooooonnkkkjlffmbbbcgg99ddd55555555ddd99ggc                 ",
"                  pppppppppppppppppppppppppooooonnkkkkjllffmmbbbbbccccccccccbbbbbm                  ",
"                   ppppppppppppppppppppppppppoooooonnkkkkjjlllffffmmmmmmmmmmfffff                   ",
"                    pppppppppppppppppppppppppppooooooonnnkkkkkkjjjjjlllllljjjjjf                    ",
"                      ppppppppppppppppppppppppppppoooooooonnnnkkkkkkkkkkkkkkkk                      ",
"                       pppppppppppppppppppppppppppppoooooooooooonnnnnnnnnnnnn                       ",
"                         pppppppppppppppppppppppppppppppooooooooooooooooooo                         ",
"                          pppppppppppppppppppppppppppppppppppooooooooooooo                          ",
"                            pppppppppppppppppppppppppppppppppppppppppppo                            ",
"                              pppppppppppppppppppppppppppppppppppppppp                              ",
"                                 pppppppppppppppppppppppppppppppppp                                 ",
"                                   pppppppppppppppppppppppppppppp                                   ",
"                                       pppppppppppppppppppppp                                       ",
"                                             pppppppppp                                             ",
"                                                                                                    ",
"                                                                                                    "};
