/* XPM */
static char * ball_red_xpm[] = {
"66 66 242 2",
"#A c #A75012",
"#z c #AF5313",
"#y c #B15313",
"#x c #B05313",
"#w c #B35512",
"#v c #CF6216",
"#u c #CC6016",
"#t c #CE6016",
"#s c #C65D14",
"#r c #DA6617",
"#q c #A64D12",
"#p c #D66616",
"#o c #D66617",
"#n c #E16917",
"#m c #CF6115",
"#l c #DF6A17",
"#k c #E06918",
"#j c #B15413",
"#i c #DE6817",
"#h c #C75E15",
"#g c #A95011",
"#f c #C25C14",
"#e c #E36A18",
"#d c #D86616",
"#c c #DB6717",
"#b c #B65513",
"#a c #CA5E15",
"#0 c #B85613",
"#9 c #B35412",
"#8 c #B55613",
"#7 c #D96716",
"#6 c #D46516",
"#5 c #D06116",
"#4 c #C05A14",
"#3 c #AC5112",
"#2 c #AA4F12",
"#1 c #BB5914",
"#| c #AA5112",
"#} c #DD6918",
"#[ c #B75713",
"#< c #B35413",
"#: c #AB5012",
"#_ c #BA5813",
"#( c #B45513",
"#/ c #AC5211",
"#^ c #AD5111",
"#] c #AA4F11",
"#{ c #D06216",
"#~ c #BC5914",
"#! c #A74D11",
"#) c #A64E11",
"#' c #E57222",
"#, c #E46C1A",
"#> c #E8833D",
"#; c #EC965B",
"#- c #EC9960",
"#= c #E98946",
"#* c #E6772B",
"#& c #A74F11",
"#% c #A64D11",
"#$ c #E57020",
"## c #E98845",
"#@ c #F1B68D",
"#+ c #F7D8C2",
"@Z c #F8DDCA",
"@Y c #F3C3A1",
"@X c #EB9458",
"@W c #E67527",
"@V c #BE5914",
"@U c #A74D12",
"@T c #E67629",
"@S c #EFA775",
"@R c #F9E4D6",
"@Q c #FDF9F7",
"@P c #FDFBF9",
"@O c #FBEEE4",
"@N c #F2BC97",
"@M c #E87F38",
"@L c #AB5111",
"@K c #E77A30",
"@J c #F1B58B",
"@I c #FCF0E7",
"@H c #FEFDFC",
"@G c #FEFEFE",
"@F c #FDF6F2",
"@E c #F5CCAF",
"@D c #E98642",
"@C c #E56E1D",
"@B c #CC5F15",
"@A c #B25413",
"@z c #A74E11",
"@y c #E6772A",
"@x c #EFA877",
"@w c #FAE5D7",
"@v c #FDFAF7",
"@u c #FDFBFA",
"@t c #FBEEE5",
"@s c #F3BD99",
"@r c #E88039",
"@q c #E46D1B",
"@p c #E46B17",
"@o c #D26316",
"@n c #C55C15",
"@m c #AE5112",
"@l c #E57121",
"@k c #F2BA94",
"@j c #F8DCC8",
"@i c #F9E0D0",
"@h c #F4C7A7",
"@g c #EC975C",
"@f c #E67528",
"@e c #C45C15",
"@d c #BD5A14",
"@c c #E67426",
"@b c #E88540",
"@a c #EC985F",
"@0 c #ED9C65",
"@9 c #E98A48",
"@8 c #E6782C",
"@7 c #E56D1C",
"@6 c #E36A17",
"@5 c #D66516",
"@4 c #CA5F15",
"@3 c #C35C15",
"@2 c #BC5814",
"@1 c #B15412",
"@| c #AA5012",
"@} c #A85011",
"@[ c #A64E12",
"@< c #E56C1A",
"@: c #E56F1E",
"@_ c #E57223",
"@( c #E57325",
"@/ c #E5701F",
"@^ c #E56D1B",
"@] c #DA6716",
"@{ c #B15312",
"@~ c #AA5011",
"@! c #A74F12",
"@) c #A74E12",
"@' c #D96617",
"@, c #C85E15",
"@> c #B55512",
"@; c #AC5111",
"@- c #A84F11",
"@= c #A85012",
"@* c #E46A18",
"@& c #CD6016",
"@% c #C65D15",
"@$ c #B95813",
"@# c #B45512",
"@@ c #AF5212",
"@+ c #AC5012",
"+Z c #A95012",
"+Y c #A84F12",
"+X c #C55D14",
"+W c #BE5A14",
"+V c #B85713",
"+U c #AE5212",
"+T c #AB5011",
"+S c #A94F12",
"+R c #BD5913",
"+Q c #B65613",
"+P c #B25412",
"+O c #AD5212",
"+N c #AB5112",
"+M c #A94F11",
"+L c #D86617",
"+K c #CE6015",
"+J c #C85D15",
"+I c #C15B14",
"+H c #AD5112",
"+G c #AC5212",
"+F c #D16316",
"+E c #C55D15",
"+D c #BF5A14",
"+C c #B95713",
"+B c #B35513",
"+A c #B05312",
"+z c #AE5111",
"+y c #DF6918",
"+x c #DC6817",
"+w c #D96717",
"+v c #D56516",
"+u c #CF6116",
"+t c #C35C14",
"+s c #B75613",
"+r c #B55513",
"+q c #B25513",
"+p c #E46A17",
"+o c #E26A17",
"+n c #D76616",
"+m c #D36316",
"+l c #CD6015",
"+k c #C75D15",
"+j c #C05B14",
"+i c #BB5813",
"+h c #BC5913",
"+g c #BD5914",
"+f c #E16A17",
"+e c #DA6717",
"+d c #D66517",
"+c c #D16216",
"+b c #CB5F15",
"+a c #C45D14",
"+0 c #C25B14",
"+9 c #BF5B14",
"+8 c #DF6917",
"+7 c #D86717",
"+6 c #CE6116",
"+5 c #CC6015",
"+4 c #C45C14",
"+3 c #C95E15",
"+2 c #E06A18",
"+1 c #DE6918",
"+| c #DA6817",
"+} c #D76617",
"+[ c #D36416",
"+< c #D66417",
"+: c #D46416",
"+_ c #DC6918",
"+( c #E06A17",
"+/ c #DE6917",
"+^ c #DD6817",
"+] c #E06917",
"+{ c #DB6817",
"+~ c #E26B17",
"+! c #E26B18",
"+) c #E26A18",
"+' c #E16A18",
"+, c #E36C18",
"+> c #E56C18",
"+; c #E56B18",
"+- c #E46B19",
"+= c #E56B19",
"+* c #E46C19",
"+& c #E36B18",
"+% c #E46C18",
"+$ c #E36B17",
"+# c #E46B18",
"+@ c #E56C19",
"++ c None",
"++++++++++++++++++++++++++++++++++++++++++++++++++++++++++++++++++++++++++++++++++++++++++++++++++++++++++++++++++++++++++++++++++++",
"+++++++++++++++++++++++++++++++++++++++++++++++@+#+$+%+#+&+#+*+=+-+-+=+*+*+=+;+*+;+*+@++++++++++++++++++++++++++++++++++++++++++++++",
"+++++++++++++++++++++++++++++++++++++++++++>+,+'+)+!+~+$+#+#+=+#+@+@+@+#+@+@+#+%+@+@+@+@+>++++++++++++++++++++++++++++++++++++++++++",
"+++++++++++++++++++++++++++++++++++++++{+]+^+^+/+(+)+~+&+#+#+#+#+@+@+@+@+@+@+@+-+@+#+@+-+-+=+@++++++++++++++++++++++++++++++++++++++",
"+++++++++++++++++++++++++++++++++++_+:+<+[+}+|+1+2+)+&+&+#+#+@+@+=+@+@+@+@+@+@+@+=+@+@+@+@+@+@+=+@++++++++++++++++++++++++++++++++++",
"+++++++++++++++++++++++++++++++3+4+3+5+6+:+7+{+8+'+!+$+#+#+#+#+;+@+@+=+@+@+@+@+-+@+-+#+=+@+*+#+@+>+*+;++++++++++++++++++++++++++++++",
"+++++++++++++++++++++++++++++++9+0+a+b+c+d+e+^+2+f+&+&+#+#+*+*+-+#+@+@+%+@+@+@+#+-+@+-+@+@+@+=+#+@+#+@+@++++++++++++++++++++++++++++",
"+++++++++++++++++++++++++++g+h+i+j+k+l+m+n+{+/+2+o+&+p+#+#+@+@+@+@+@+@+@+@+@+@+=+#+#+#+=+#+@+@+;+#+@+@+>+@+*++++++++++++++++++++++++",
"+++++++++++++++++++++++++q+r+s+g+t+3+u+v+w+x+y+'+!+&+p+#+@+@+=+@+@+*+-+@+-+*+@+@+@+@+*+=+@+@+@+#+@+@+*+@+-+=+@++++++++++++++++++++++",
"+++++++++++++++++++++++z+A+B+C+D+E+b+F+n+e+/+(+o+&+$+p+#+@+#+#+#+=+@+#+#+#+@+@+-+#+*+#+-+#+#+=+@+#+@+;+@+#+=+*+@++++++++++++++++++++",
"+++++++++++++++++++++G+H+A+r+i+I+J+K+[+L+x+8+f+!+&+p+p+#+#+@+>+#+@+@+@+#+-+@+@+;+*+=+@+#+-+#+=+#+=+#+-+%+@+=+-+#+@++++++++++++++++++",
"+++++++++++++++++++M+N+O+P+Q+R+t+3+u+v+w+^+y+'+$+&+p+#+#+#+#+#+#+#+#+#+#+;+@+@+@+@+@+#+-+#+#+#+#+;+#+#+#+#+@+@+@+@+@++++++++++++++++",
"+++++++++++++++++S+S+T+U+B+V+W+X+b+c+}+{+1+2+!+&+#+#+#+@+=+=+#+@+=+=+@+@+@+=+@+@+=+@+#+#+#+@+#+#+#+@+@+@+@+@+@+=+@+=+*++++++++++++++",
"+++++++++++++++Y+Y+Z@+@@@#@$+j@%@&+m+L+{+1+'+!+$@*+#+-+#+#+#+@+@+@+@+#+@+#+@+#+@+#+@+=+-+-+#+@+@+@+@+#+@+@+@+@+@+#+*+@++++++++++++++",
"++++++++++++++@=@-+Z@;+A@>+i+I@,+6+:@'+x+y+f+~+$+&+#+@+@+@+@+*+@+@+@+@+@+@+@+@+@+#+#+@+#+;+#+@+=+#+@+@+=+@+@+#+#+;+@+=+@++++++++++++",
"++++++++++++@)@!@-@~+H@{+Q+h+0+3+u+v@]+^+2+o+&+$+#+#+-+#+*+#+#+@+@+@+@+-+@+@+@+@+@+@+*+@+*@^@/@(@_@:@<+#+#+@+#+@+#+@+@+-+;++++++++++",
"++++++++++@)@[@!@}@|+H@1+Q@2@3@4+c@5+e+/+2+o+$@6+$+#+#+@+;+@+@+@+@+@+@+@+@+@+@+#+@+@+@+#@7@8@9@0@a@b@c@<+#+=+#+#+#+;+@+#+@++++++++++",
"++++++++++@)@)@!+M@|+H@1+s@d@e@4+c+d+|+1+2+)+$+#+#+#+@+@+@+;+;+@+@+@+@+-+*+@+#+@+@+*+@+@@f@g@h@i@j@k@9@l+*+@+@+-+@+@+@+@+;+@++++++++",
"++++++++@)@[@)@!+S@|@m+P+s+W@n+b@o+}+{+/+'+~+$@p+#+#+#+;+@+@+#+#+@+@+@+#+#+@+#+#+;+@+@@q@r@s@t@u@v@w@x@y+*+@+#+#+#+@+#+#+;+=++++++++",
"++++++@)@)@z@z@!+M+T+U@A+V+W@n@B@o+n+{+/+'+!+&+#+#+@+-+#+#+#+@+=+=+=+=+@+@+#+#+*+@+*+@@C@D@E@F@G@H@I@J@K@<+@+=+@+@+@+@+-+#+@+@++++++",
"++++++@)@)@)@)@!+M@L+U@A+V+W+E@B@o+}+x+y+'+!+&+&+#+@+@+@+@+=+@+@+@+=+@+@+*+@+@+@+@+@+@@^@M@N@O@P@Q@R@S@T+@+=+@+@+@+=+@+@+@+@+@++++++",
"++++++@U@z@)@)@!+M+N+U@A+V@V+E@B@o+}+x+y+'+!+$@6+#+@+=+=+#+#+#+@+@+@+#+%+@+=+@+=+@+@+@+*@W@X@Y@Z#+#@###$+@+@+@+#+#+#+@+=+=+#+@+>++++",
"++++++@)#%@)@z#&+M@L+U@A+V@V@n@B@o+}+{+1+'+~+$+#+#+@+#+#+#+#+#+#+#+#+;+#+@+#+;+#+#+@+#+#@^#*#=#-#;#>@(#,+@+@+#+#+@+@+@+#+#+#+#+@++++",
"++++@z@)@)@)@z@!+S@|@m@A+s+W@n+b@o+n+{+1+'+~+&+&+#+@+@+@+#+@+@+#+#+#+@+@+*+@+@+#+@+=+=+@+@@<@:#'@l@C+@+#+@+@+#+@+@+#+@+@+@+#+@+=+@++",
"++++@)@)#)@)#!@!+S@|@m@A+s@d@e@4+c+d+{+1+2+~+&+&+#+@+#+*+@+*+#+@+@+@+#+@+@+*+-+#+@+@+@+@+@+@+@+@+@+;+@+@+@+=+#+@+=+@+@+#+*+@+*+#+*++",
"++@)@)@z@z@z@)#&@}@~+H@1+Q#~@3@4#{@5+e+/+2+)+&+&+#+#+@+@+=+@+@+@+@+#+#+@+@+@+@+@+#+-+=+;+#+@+@+;+@+;+#+#+@+@+@+@+@+=+@+@+@+=+@+@+;++",
"++@)@)@)@)@z@)@!@-#]#^@1+Q#~+t+3#{+v@]+^+2+)+$+$+p+#+-+@+#+#+@+@+@+#+#+@+@+@+#+-+@+#+;+=+@+@+-+#+-+@+@+#+-+@+@+-+#+#+@+-+@+#+#+@+@++",
"++@)@)@z@)@z@)@!@-+Z#/+A+r+i+I@,+6+:+w+x+y+)+~+&+&+#+-+;+=+@+#+=+=+#+=+@+;+=+#+@+@+#+@+#+#+>+@+@+@+=+@+@+;+=+@+-+@+>+@+-+;+=+@+#+=++",
"++@)@z@z@)@)@z@)@-+Z@;@@#(#_+j+k@&+[+L+x+y+'+~+&+&+#+#+@+@+*+@+@+@+@+@+#+@+@+@+@+@+@+@+#+#+@+@+@+#+;+@+@+@+@+=+#+@+*+@+#+@+@+*+@+=++",
"++@)@)#!@z@)@)@z@-+Z#:+U#<+V+D+E@B+c+}+{+1+2+!+&+&+#+#+@+@+@+@+#+@+@+@+@+#+@+@+-+@+#+@+@+@+=+#+@+@+@+@+@+@+=+@+@+@+@+@+-+@+@+@+@+;++",
"++@[@)@)@z#)@)@)@=+Y@L+U@A#[+g+4@4#{+v+e#}+2+f+&@6+#+#+#+@+@+#+@+@+@+#+-+@+#+#+@+@+=+@+#+#+@+#+-+@+@+#+#+#+@+@+#+@+#+@+@+#+@+@+#+@++",
"++@[#)@)@z#)@)@z@)@-#|+H@{+r#1+I@,+K+:+7+x+y+f+~+&+&+#+#+=+@+@+@+=+@+@+;+@+=+;+@+*+=+#+@+-+=+@+@+@+@+@+@+=+=+@+-+#+=+@+@+=+=+@+@+;++",
"++@[@)@z@z@)#)@)@z@-#2#3+A#(+C#4@%+5@o+}+{+1+(+)+&+&+#+#+@+@+@+@+=+=+@+@+@+=+@+#+@+=+@+@+@+;+=+@+@+@+@+@+=+>+@+#+=+=+@+@+=+@+@+@+=++",
"++@[@)#%@z@)@)@)@z#&+M+N+U+P+s@d+t+3#5#6#7+x+y+'+!+$+#+#+#+@+@+@+=+=+=+@+#+=+=+@+@+-+=+@+@+=+=+@+@+@+@+@+=+=+#+@+=+-+#+@+#+=+@+@+=++",
"++@)@)@)@z@)@z#)@)@!@-@|#^@{#8+i+I+k+l+[+}+{+/+(+'+$+$+#+#+#+#+*+=+-+=+@+@+*+=+-+#+-+;+=+@+@+=+@+@+@+@+@+@+@+@+;+;+*+#+#+*+@+@+#+=++",
"++@U@[@)@)@z@z@)@z@z@-+Z#3@@#9#0@V+4#a#5+v+w+x+y+'+!+$+$+#+#+=+#+@+@+@+#+@+@+#+%+@+@+-+;+@+@+@+#+#+@+@+@+@+@+@+>+@+@+@+@+#+@+@+=+@++",
"++@)@)@)#!@)@z@)@z@)@-+S@L+U@1#b+i+I+k+l@o+n#c+^+8+'+~+&+#+#+#+#+@+@+@+@+@+@+@+-+@+#+@+-+@+@+@+;+@+@+@+@+@+@+@+#+@+#+@+#+@+@+@+#+*++",
"++@)@)@z@z@)@z@)#)@z@)+Y@|@;@@#<#0@V+4#a+u+:+L+{+1+2+)+&+&+#+#+#+=+@+@+@+@+@+@+@+=+@+@+@+@+@+@+@+@+@+@+@+#+@+@+#+@+*+@+@+=+@+@+@+=++",
"++@)@)@)@z@)#!@)@z#!@)@!+M#:@m@{#b+i+I@%+5+c@5+w+x+y+(+)+&+&+p+#+#+@+=+@+@+@+@+-+@+-+#+=+@+*+#+@+*+@+@+@+@+=+@+;+#+*+@+#+@+@+@+#+=++",
"++@)@z@)@z@)@)#)@)@z@)@!+Y@~@;@@#<+V+g+t@,+K@o+n+e+^+y+'+)+&+$@*+p+#+@+%+@+@+@+#+-+@+-+@+@+@+=+#+@+#+@+@+-+@+@+#+-+#+@+-+@+@+#+#+#++",
"++@)@)@)@)@)#)#)#)#!#!@z@-+S+N+U@1#8#_+D+X@4+u#6#d+{+^+y+2+)+&+&+&+#+#+#+#+@+@+=+#+#+#+=+#+@+@+;+#+@+@+;+@+=+@+;+@+#+#+#+#+#+#+#+#++",
"++++@)@z#)@z@)@)@)@)@)@)@)+Y@~+N+U+P+Q+i#4@%+b#{+:#d+{+^+y+2+)+!+&+&#e+&+#+#+@+@+@+@+*+=+@+@+@+#+@+@+*+@+-+@+=+@+#+#+#+p+#+#+#+#+*++",
"++++@z#%@)@z@z@z@)#!#%#%@z@!+Y@~+H+A+B#0#~#f+k+5+c+v#d+{+^+y+2+f+!+&+$+$+p+#+#+#+#+*+#+-+#+#+=+@+#+@+;+@+#+#+#+#+#@*+$+$+$+&+&+#+@++",
"++++++@)@)@)@z@z@)@z@)@z#%@)@-#g#:+H+A#(+V+g+0@,@B+c+:#d+e+x+/+(+'+'+!+$+$+#+#+p+#+#+#+#+#+#+#+#+#+#+#+#+#+#@6+p+&+&+$+~+~+~+)+#++++",
"++++++@)@z@)@)@)@)#!@)@z#%@)@!@-+S@L@m@{+r+C+W+t#h+5#{#6+n+w+{#i+8+(+f+o+~+&+&+&+&+&+p+p@6@6+p+p@6@6+p+p+$+&+&+&+$+!+o+)+f+f+)+>++++",
"++++++@)@)@z@)@z@)#!#%#%@)@z#!#&+Y@~@;+U#j#8+C+W+0+k+b+u@o@5#d#c+x+1+y+2+'+'+!+!+&+&+$+&+$+&+$+$+$+&+&+&+&+,+!+!+'+'+2+2+y+y#e++++++",
"++++++@)@U@z@z@z@)@)@)@)#!@)@)@z+Y+M@|#3@@+P#8+C+g#f@%@4+K+c+:+n+w+{+x+1+8#k+(+'+o+)+)+o+~+~+!+!+!+!+)+)+)+'+'+2+(+y+/+^+x#l+!++++++",
"++++++++@)@)@z@)#%@)#%@z#!@)@)@z@)+Y+S@~@;@@@1+r+V#~#4+X@,+5#m@o+v+}+w+{+x#}+1+y+y+(+2#n#n#n+'#n#n+'+2+2+2+y+/#i+^+x+e+e+e#i++++++++",
"++++++++++@)@z@)@z@z@)#)#%@U@z@z@)@z@-+M@|#3+U@{#(#0+i+D+t@%#a+l#5+[+:+n+L+e+{+x+x+^+/+1+/+/+/+/+1+1+1+/+^+x+x+{+w+L#o+v+e+)++++++++",
"++++++++++@)@[@)@z@)@)@)@)@)@)@)@)@)@)+Y+S@|#3@m+A+B#b#_+g+I+4+k#a+l#5@o+:+v+}#d+w@]+e+e#c+{+x+x+{+{+|+e#7+L#d#p+v+[@o+m+]++++++++++",
"++++++++++++@)#q#)@)@)@z@)#!@)@[@[@)@)@z+Y+S@|+N+H+A+P#8#0+i@V+I+4+k+3@B+K#{+c+[+:+v@5+d+n+}+n+}+}+d+d+v+v+:+m+c#5+6+K#r+f++++++++++",
"++++++++++++++@)@)@)@z@[@)@)@)@)@[@)@)#!@)@-@-+M#:#^+U@1#<#b#0+i@V+I+t#s@,#a@B+l+6#{#{+F+F@o@o@o@o+F+c#{#m#t#u+b+3@,#v+1++++++++++++",
"++++++++++++++@)@)@z@)@z@)@)#)#!@)@z#!@z@)@)@!+Y+Z@~+N+H@@@{#<#b#0+i@d+D+I+4+E+k@,+3@4+b+b+b@B@B+b+b@4@4+3@,@%+X+t+X+6++++++++++++++",
"++++++++++++++++@)@)@z@z@)@[@)@)@)@)@)@)@)@)@)@!+Y@-@~@L@;@m@@@1#<#8+s+C#1+g+D+j+I+t@3@e@n@n+X+E@n@n@e@3+0+I+j+D+g+I++++++++++++++++",
"++++++++++++++++++@z@)@z@)@)@)#!@)@)@z@z@)@[@z@)@)#&+Y+S#g+T#3+U@@@{+P#(+r#[+V#_+i@2#~@d+W@V@V@V@V+W@d#~+h+i+C+V@$++++++++++++++++++",
"++++++++++++++++++++@)#!#)@z#)@z@)@)@z@z@)@z@)@)@z@)@z@-@-+M@~+N@;#^+U+A@{+P#w@#+r+Q+s+s+V+V+V+V+V+V+s+s+Q+r#(#b++++++++++++++++++++",
"++++++++++++++++++++++@z@)@[@z#%#q@[#)@[@)#q@)@)#)@[@)@)#&@!+Y+M#g@~+N#3+H+U+U@@+A@{@1@A@A@A+P@A+P+P@1@1+A#x#y++++++++++++++++++++++",
"++++++++++++++++++++++++@)@)@)@)@z@)@)@)@)#%@z@)@)@z@z@)@z@)@z+Y+Y@-+M#]#|@L#:@;+G+H+H@m@m+U+U+U+U@m+H+H+U#z++++++++++++++++++++++++",
"++++++++++++++++++++++++++@)@)#q@[#)@z@)@z@)@)@)@z@)@)@)#)@)@)@)@z#&#&+Y@-@-#g+Z#g#]@~@~@~+N@L@L+N@|@|#:+U++++++++++++++++++++++++++",
"++++++++++++++++++++++++++++++@)@)@)@z@)@)@z@)@z@z@)@)@)#!@)@)@)@z@z@z@)@)@=@-+Y+Y@-@}+M+S+S+M+S+M+Z#|++++++++++++++++++++++++++++++",
"++++++++++++++++++++++++++++++++@)@)@)@z@z@[@z@)#)@z@z@[#)@)@)@[@)#)#)@)@z@)@z@)@!#&@!#&@!@!@!+Y+Y+S++++++++++++++++++++++++++++++++",
"++++++++++++++++++++++++++++++++++++@)@)@z@)@z@)@z#)#!#)@)@z@)@z@z@z@z@z@z@)@)@z@)@z@[#!#)@z@)#A++++++++++++++++++++++++++++++++++++",
"++++++++++++++++++++++++++++++++++++++@)@)@)@)@)@)@)@z@)@)@)@)#%@z@z@z@)#!@z@)@)@z@z@)@)@)@)@)++++++++++++++++++++++++++++++++++++++",
"++++++++++++++++++++++++++++++++++++++++++++++@z@)@)@)@)@)@)@)@)@)@)#)@)@)@z#)@)@)@)@z++++++++++++++++++++++++++++++++++++++++++++++",
"++++++++++++++++++++++++++++++++++++++++++++++++++@)@)@)@)@)@[@[@[@[@[@[@)@)@)@)@)++++++++++++++++++++++++++++++++++++++++++++++++++",
"++++++++++++++++++++++++++++++++++++++++++++++++++++++++++++++++++++++++++++++++++++++++++++++++++++++++++++++++++++++++++++++++++++"};
