/* XPM */
static char * ball_red_xpm[] = {
"66 66 87 1",
"X c #ADADAD",
"W c #F3F3F3",
"V c #EDEDED",
"U c #E0E0E0",
"T c #D8D8D8",
"S c #E9E9E9",
"R c #FAFAFA",
"Q c #FEFEFE",
"P c #FCFCFC",
"O c #F0F0F0",
"N c #DCDCDC",
"M c #E5E5E5",
"L c #F7F7F7",
"K c #FDFDFD",
"J c #F9F9F9",
"I c #EBEBEB",
"H c #DADADA",
"G c #9A9A9A",
"F c #EAEAEA",
"E c #F4F4F4",
"D c #F5F5F5",
"C c #EEEEEE",
"B c #DBDBDB",
"A c #E1E1E1",
"z c #E2E2E2",
"y c #DDDDDD",
"x c #D7D7D7",
"w c #D6D6D6",
"v c #A0A0A0",
"u c #9B9B9B",
"t c #B8B8B8",
"s c #A3A3A3",
"r c #BCBCBC",
"q c #ABABAB",
"p c #A6A6A6",
"o c #9C9C9C",
"n c #C1C1C1",
"m c #B0B0B0",
"l c #A9A9A9",
"k c #9E9E9E",
"j c #9D9D9D",
"i c #BFBFBF",
"h c #A1A1A1",
"g c #9F9F9F",
"f c #C3C3C3",
"e c #B7B7B7",
"d c #B2B2B2",
"c c #ACACAC",
"b c #A7A7A7",
"a c #A4A4A4",
"0 c #A2A2A2",
"9 c #CACACA",
"8 c #BBBBBB",
"7 c #B5B5B5",
"6 c #AAAAAA",
"5 c #A8A8A8",
"4 c #A5A5A5",
"3 c #BEBEBE",
"2 c #B9B9B9",
"1 c #B3B3B3",
"| c #AEAEAE",
"} c #AFAFAF",
"[ c #C2C2C2",
"< c #B4B4B4",
": c #B1B1B1",
"_ c #C9C9C9",
"( c #C5C5C5",
"/ c #C0C0C0",
"^ c #BDBDBD",
"] c #B6B6B6",
"{ c #BABABA",
"~ c #CFCFCF",
"! c #CBCBCB",
") c #C8C8C8",
"' c #C4C4C4",
", c #C7C7C7",
"> c #C6C6C6",
"; c #CECECE",
"- c #CDCDCD",
"= c #D0D0D0",
"* c #CCCCCC",
"& c #D2D2D2",
"% c #D1D1D1",
"$ c #D3D3D3",
"# c #D4D4D4",
"@ c #D5D5D5",
"+ c None",
"++++++++++++++++++++++++++++++++++++++++++++++++++++++++++++++++++",
"+++++++++++++++++++++++@#$##$#@@@@@@@#@@@@@+++++++++++++++++++++++",
"+++++++++++++++++++++#$%&&&$####@@@@@@#@@@#@#+++++++++++++++++++++",
"+++++++++++++++++++*=--;=&&$####@@@@@#@###@###@+++++++++++++++++++",
"+++++++++++++++++*>,')!~=&$$##@##@#@#@@@@@@@@#@@@+++++++++++++++++",
"+++++++++++++++{]{^/(_*~%&$#####@@@@@@@#@@##@@@@@##+++++++++++++++",
"+++++++++++++++:<]^[,!;=%$$######@@#@@@@#@#@@@##@#@@++++++++++++++",
"+++++++++++++}||123')*~=&$$###@@@@@@@@@##@###@@##@@@@@++++++++++++",
"++++++++++++456}78/>9-~%&$$#@@@@@@@@@@@@@@@@@@@#@#@@@@@+++++++++++",
"+++++++++++0abcde^f)!;=&$$$#@###@@###@@##@####@@#@@@#@@@++++++++++",
"++++++++++gha5|12i'_-~%&$$$##@##@@@##@@##@@@#####@#@@@##@+++++++++",
"+++++++++jkh4lm78n>9;=%$$$###########@@@@@###########@@@@@++++++++",
"++++++++ojg0pq:er[)*~=&$###@@##@##@@@@@@@@###@###@@@#@@@#@@+++++++",
"+++++++oojgsbcdt3'_*~%&$###@##@@@@#@###@#@@###@@@@#@@@@@#@@+++++++",
"+++++++oujva5|<2/(9-=%&$##@@@@@@@@@@@@@@##@###@##@@#@@###@@@++++++",
"++++++uuokval|<{n>!;=&$$####@##@@@@#@@@@#@@@#@@ww@@##@#@#@@##+++++",
"+++++uuuokhal}78[,!;=&$$##@@@@@#@@#@@@@@@#@@@xyzABw@#@#@#@@@@+++++",
"+++++uuuokh46}]r[,!;=&$###@@@##@@@@#@@#@@@@#xACDEFy@#@@#@@@@@@++++",
"++++uGGuok046me^f)*~%&$$####@@##@@@##@###@@@HIJKKLMx@@###@###@++++",
"+++uuGGuog0pq:e^f)*~%&$##@####@@@@@@###@@@@@NOPQQRST@@@@@@@##@@+++",
"+++uuuuuog0pq:e^f)-~%&$##@@@@#@@@@@@##@@@@@@HIJKKLMx@@@@@@@@@@@+++",
"+++uuuuuog0pq:e^f)-~%&$$##@@###@@###@@@@@@@#xUVEWFN@@@@####@@#@#++",
"+++uGGGuog0pq:e^f)*~%&$##@@#########@####@@#@xyAUBw#@@##@@@@###@++",
"++uuuuGuok046:e^f)*~%&$##@@@#@@###@@@@@#@@@@@@@ww@@#@@#@@#@@@#@#@+",
"++uuuuGuok046m]r[,*;=&$##@#@@@#@@@#@@@@#@@@@@#@@@@@@@@#@@@@#@@@#@+",
"+uuuuuuuokhal}78[,!;=&$###@@@@@@@##@@@@@#@@###@#@@#@@#@@#@@@@@@@#+",
"+uuuuGGuukhal}78n>!;=&$$$#@@##@@@##@@@#@@###@@###@@##@@@##@@@##@@+",
"+uuGuGuuojva5|<{/(9-=&&$####@@#@@#@@#@#@@#@##@@@@@@##@@#@@@##@@#@+",
"+uGuuuuuojvsbXd23'_-~%&$###@@@@@@@@#@@@@@@@##@@@##@@@@@#@@@#@@@@@+",
"+uuGuuGuojg0pq:e^[)*~=&$###@@@@#@@@@#@@#@#@@@@#@@@@@@@@@@@@#@@@@#+",
"+uGuGGuuook0p6m]r[>!;=%$$###@@#@@@##@##@@@@##@@@@@###@@#@#@@#@@#@+",
"+uGuuuuuuokha5|1{i(_-~%&$$##@@@@@@@#@@#@@@#@#@@@@@@@@@@##@@@@@@@#+",
"+uuuuuGuuojgsbcdt3f)*~=&$$##@@@@@@@@@@@#@@@@#@@@@@@@@@@#@@@@@@@@@+",
"+uuGuuuuuuog046}78n(9-~%&$###@@@#@@@##@@#@#@#@@@@@@@@@#@@@#@#@@@@+",
"+uuuuuGGuuokva5|123')*~=%$$####@@@@@@@@##@##@@@@@@@@@@@##@##@@@#@+",
"+uGuuGGuuuojvspqm]8n>9-=%&$$####@@@@@@#@@@#@@@@@#@@@@@@#@@@@#@@#@+",
"+uuuuuGuGuuok04l|12if)*;=%&$####@@@@@#@###@#@#@#@@@@@#@#@###@#@##+",
"+uuuuuuuuuuojvspq:]8n(_*~=&$$####@#@#@@@@@@@@##@@@@@##@##@@@@@@@#+",
"+uuuuuGuuGuuog04l|1t3[,9-~=&$$$##@@@@@@#@@##@@@@@@@@@@@#@@@#@@@#@+",
"+uGuuuGGuGuuojvspqm7{i')!;~%&$$#$#@#@@@@#@#@@@##@#@@@@@###@#@@###+",
"+uuuuuGGGGGuuokha5cd]rn(_*;==&$$$####@@##@###@@##@@#@@@@#########+",
"++uuuuuuuuuuuojg04l|1trn(_*;~=&&$#####@@@@@@@@@#@#@@@@@@###$####@+",
"++uuuuGGuuGGuuokvspq}<t3[>_*;~=%&$$$$####@####@@#@@@######$$$$$#@+",
"+++uuuGGuuGGGuujkhabqm<2^[(_!-~=%%&$$##$##############$$$$$&&&&#++",
"+++uuuuuuGGuGuuojg045c:723n()9*~~=%&&$$$$$$$$$$$$$$$$$$$$&&&%%&#++",
"+++uuuuuuGGGuGGuokg045c:<2rn',_*-~~=%%&&$$$$$$$$$$$$$$&&%%==~~$+++",
"+++uGGuGuuGGGuuuuokgs45cm<tri[()9*-~~==%&&&&&&&&&&&&&%%%=~;;-=&+++",
"++++uGuGGuGuGuGGuuokgs45q}1e{3nf>)9*-;~~===%%%%%%%====~~;-!!!~++++",
"+++++uuuuuuGGGGuuuuokg04bq|d7t8in'()_!*--;;;~~~~~~;;;--*9_,>!&++++",
"+++++uuuuuGGuuuuuGuuokg0aplcm1]283nf(>)_9!!***--**!!9__,>'f'=+++++",
"++++++uuuuGGuGuuGuuuuokghs45q|:1]2{3in['(>,,))))),,>>('[nii!&+++++",
"+++++++uuuGGuuGuGuGuuuojkv0aplq|m17t2r^3/n[fffffff[nn/3r82/~++++++",
"+++++++uuuuuuuuGuGuGuuuojkghs4plq|}d1]e22{8r^^33^^r8{2te7ei+++++++",
"++++++++uuuuuuuuuuuuuuuuoojkv0s4p56c|m:d<77]eeeeee]7<<d:m1++++++++",
"+++++++++uuuuuuGuuGuuuGuuuoojgvhsa4b56qc|}}}m::::m}}}|cqc+++++++++",
"++++++++++uGuGGGuuGuuGGuuuuuoojkgv0sappb5l66qqqqqq66l5bl++++++++++",
"+++++++++++uuuGGGGGuuGuuGuuuuuoojkggh00saaa44444444aaa4+++++++++++",
"++++++++++++uuuuuuuuuGuuuuGuuuuuooojkkgvvhh0000000hh0s++++++++++++",
"+++++++++++++uuuGGGuuuuuuuuuuuuuuuuooojjjkkkkkkkkkkg0+++++++++++++",
"+++++++++++++++uuuGGuuGGGuGuGGuuuGuuuoooouooooooojk+++++++++++++++",
"++++++++++++++++uuuGuuGuuuGGuuGuuGuuuuuuuuuuuuuooo++++++++++++++++",
"++++++++++++++++++uuuuGuuuGuuuuuuuuGuuuuuuuGGuuo++++++++++++++++++",
"+++++++++++++++++++uuuuuuuGuuuuGuuuuGuuGuGuuuuu+++++++++++++++++++",
"+++++++++++++++++++++++uuuuGuuGuuuGGuGGuuuu+++++++++++++++++++++++",
"+++++++++++++++++++++++++uuuuuuuuuuuuuuuu+++++++++++++++++++++++++",
"++++++++++++++++++++++++++++++++++++++++++++++++++++++++++++++++++"};
