/* XPM */
static char * ball_red_xpm[] = {
"66 66 234 2",
"#s c #A72D12",
"#r c #AA2E12",
"#q c #AB2E11",
"#p c #AF2F13",
"#o c #B12F13",
"#n c #B02F13",
"#m c #CC3616",
"#l c #C63514",
"#k c #BE3214",
"#j c #D93B16",
"#i c #DA3A17",
"#h c #E13B17",
"#g c #CF3715",
"#f c #D83B16",
"#e c #B13013",
"#d c #E23D17",
"#c c #D83A16",
"#b c #D43A16",
"#a c #C53414",
"#0 c #B53113",
"#9 c #E43C18",
"#8 c #CE3615",
"#7 c #B32F13",
"#6 c #B33012",
"#5 c #AD2E11",
"#4 c #D93A16",
"#3 c #C33514",
"#2 c #B23012",
"#1 c #BB3314",
"#| c #DD3C18",
"#} c #BD3214",
"#[ c #DC3B17",
"#< c #BA3213",
"#: c #B43013",
"#_ c #AC2E11",
"#( c #BC3214",
"#/ c #AD2D11",
"#^ c #D03716",
"#] c #CA3515",
"#{ c #B23013",
"#~ c #A62C11",
"#! c #E54421",
"#) c #E54622",
"#' c #E43E1A",
"#, c #E85C3D",
"#> c #EC755B",
"#; c #EC7A60",
"#- c #E96346",
"#= c #E64D2B",
"#* c #DB3C17",
"#& c #A62B11",
"#% c #E54420",
"#$ c #E96245",
"## c #F19F8D",
"#@ c #F7CBC2",
"#+ c #F8D2CA",
"@Z c #F3AFA1",
"@Y c #EB7358",
"@X c #E64A27",
"@W c #D23916",
"@V c #AB2E12",
"@U c #E64B29",
"@T c #EF8B75",
"@S c #F9DCD6",
"@R c #FDFAF9",
"@Q c #FBE8E4",
"@P c #F2A797",
"@O c #E85738",
"@N c #E5401B",
"@M c #E53F1A",
"@L c #E75130",
"@K c #F19D8B",
"@J c #FCEBE7",
"@I c #FEFDFC",
"@H c #FEFEFE",
"@G c #FDF4F2",
"@F c #F5BCAF",
"@E c #E96142",
"@D c #E5411D",
"@C c #B22F13",
"@B c #A72C11",
"@A c #A72B11",
"@z c #E64C2A",
"@y c #EF8C77",
"@x c #FADDD7",
"@w c #FDF8F7",
"@v c #FDFBFA",
"@u c #FBE9E5",
"@t c #F3A999",
"@s c #E85839",
"@r c #E4401B",
"@q c #D23816",
"@p c #CB3515",
"@o c #C53415",
"@n c #A62C12",
"@m c #E54521",
"@l c #E96548",
"@k c #F2A494",
"@j c #F8D1C8",
"@i c #F9D7D0",
"@h c #F4B5A7",
"@g c #EC765C",
"@f c #E64B28",
"@e c #DE3B18",
"@d c #C43415",
"@c c #A72B12",
"@b c #E64926",
"@a c #E85E40",
"@0 c #EC785F",
"@9 c #ED7D65",
"@8 c #E96648",
"@7 c #E64E2C",
"@6 c #E5401C",
"@5 c #DE3B17",
"@4 c #D63A16",
"@3 c #CA3615",
"@2 c #C33515",
"@1 c #BC3314",
"@| c #B13012",
"@} c #AD2D12",
"@[ c #AA2D12",
"@< c #A82D11",
"@: c #A62B12",
"@_ c #E53E1A",
"@( c #E5421E",
"@/ c #E54623",
"@^ c #E54825",
"@] c #E5431F",
"@{ c #E53F1B",
"@~ c #DA3B16",
"@! c #D53916",
"@) c #B63113",
"@' c #B12F12",
"@, c #AA2D11",
"@> c #A72C12",
"@; c #D93A17",
"@- c #CE3616",
"@= c #C13314",
"@* c #B53012",
"@& c #AC2D11",
"@% c #A82C11",
"@$ c #CD3616",
"@# c #C63515",
"@@ c #B93213",
"@+ c #B43012",
"+Z c #AF2E12",
"+Y c #AC2D12",
"+X c #A82C12",
"+W c #A82D12",
"+V c #C53514",
"+U c #BE3314",
"+T c #B83113",
"+S c #AE2E12",
"+R c #AB2D11",
"+Q c #A92D12",
"+P c #BD3213",
"+O c #B63013",
"+N c #B22F12",
"+M c #AB2D12",
"+L c #A92D11",
"+K c #D83B17",
"+J c #CE3715",
"+I c #C83515",
"+H c #C13414",
"+G c #AD2E12",
"+F c #AC2E12",
"+E c #D13816",
"+D c #C53515",
"+C c #B93113",
"+B c #B33013",
"+A c #B02F12",
"+z c #AE2E11",
"+y c #E43C17",
"+x c #DF3C18",
"+w c #DC3C17",
"+v c #D93B17",
"+u c #D53A16",
"+t c #CF3716",
"+s c #C33414",
"+r c #B73113",
"+q c #B53013",
"+p c #B23113",
"+o c #E43D17",
"+n c #D73A16",
"+m c #D33816",
"+l c #CD3615",
"+k c #C73515",
"+j c #C03314",
"+i c #BB3213",
"+h c #BC3213",
"+g c #BD3314",
"+f c #E33C18",
"+e c #E13C17",
"+d c #D63A17",
"+c c #D13716",
"+b c #CB3615",
"+a c #C43514",
"+0 c #C23414",
"+9 c #BF3314",
"+8 c #DF3C17",
"+7 c #D83A17",
"+6 c #CE3716",
"+5 c #CC3615",
"+4 c #C43414",
"+3 c #C93515",
"+2 c #E03C18",
"+1 c #DE3C18",
"+| c #DA3B17",
"+} c #D73A17",
"+[ c #D33916",
"+< c #D63917",
"+: c #D43916",
"+_ c #DC3C18",
"+( c #E03C17",
"+/ c #DE3C17",
"+^ c #DD3B17",
"+] c #DD3C17",
"+{ c #E03B17",
"+~ c #DB3B17",
"+! c #E43E18",
"+) c #E33D17",
"+' c #E23C17",
"+, c #E23C18",
"+> c #E13C18",
"+; c #E53E18",
"+- c #E53D18",
"+= c #E43D19",
"+* c #E53D19",
"+& c #E43E19",
"+% c #E33D18",
"+$ c #E33C17",
"+# c #E43D18",
"+@ c #E53E19",
"++ c None",
"++++++++++++++++++++++++++++++++++++++++++++++++++++++++++++++++++++++++++++++++++++++++++++++++++++++++++++++++++++++++++++++++++++",
"+++++++++++++++++++++++++++++++++++++++++++++++@+#+$+#+#+%+#+&+*+&+=+@+&+&+@+-+&+;+&+@++++++++++++++++++++++++++++++++++++++++++++++",
"+++++++++++++++++++++++++++++++++++++++++++;+%+>+,+,+'+)+#+#+@+!+@+@+@+!+@+@+!+!+@+@+@+@+;++++++++++++++++++++++++++++++++++++++++++",
"+++++++++++++++++++++++++++++++++++++++~+{+]+^+/+(+,+'+%+#+#+!+#+*+@+@+@+@+@+@+&+@+#+@+&+&+@+@++++++++++++++++++++++++++++++++++++++",
"+++++++++++++++++++++++++++++++++++_+:+<+[+}+|+1+2+,+%+%+#+#+@+@+*+@+@+@+@+@+@+@+*+@+*+@+@+@+@+@+@++++++++++++++++++++++++++++++++++",
"+++++++++++++++++++++++++++++++3+4+3+5+6+:+7+~+8+>+,+)+#+#+#+!+;+@+@+@+@+@+@+@+&+@+&+!+@+@+&+!+@+;+&+;++++++++++++++++++++++++++++++",
"+++++++++++++++++++++++++++++++9+0+a+b+c+d+|+]+2+e+f+%+#+#+&+&+=+!+@+@+#+@+@+@+!+&+@+&+@+@+@+@+#+@+!+@+@++++++++++++++++++++++++++++",
"+++++++++++++++++++++++++++g+h+i+j+k+l+m+n+~+/+2+'+f+o+#+#+@+@+@+@+@+@+@+@+@+@+@+!+#+#+@+!+@+@+;+#+@+@+;+@+&++++++++++++++++++++++++",
"+++++++++++++++++++++++++p+q+r+g+s+3+t+u+v+w+x+>+,+%+y+#+@+@+@+@+@+&+&+@+&+&+@+@+@+@+&+*+@+@+*+#+@+@+&+@+&+@+@++++++++++++++++++++++",
"+++++++++++++++++++++++z+A+B+C+9+D+b+E+n+|+/+(+'+%+)+o+#+@+!+#+#+@+@+#+#+!+@+@+&+#+&+!+&+#+#+@+@+#+@+-+@+!+@+&+@++++++++++++++++++++",
"+++++++++++++++++++++F+G+A+q+i+H+I+J+[+K+w+8+e+,+f+y+o+#+!+@+;+!+@+@+@+!+&+@+@+;+&+*+@+!+=+#+@+!+@+!+&+!+@+@+&+#+@++++++++++++++++++",
"+++++++++++++++++++L+M+G+N+O+P+s+3+t+u+v+]+x+>+$+f+y+#+#+!+!+!+#+!+#+#+!+;+@+@+@+@+@+#+&+!+#+!+!+;+#+!+!+!+@+@+@+@+@++++++++++++++++",
"+++++++++++++++++Q+Q+R+S+B+T+U+V+b+E+}+~+1+2+,+%+#+#+#+@+@+@+!+@+@+@+@+@+@+@+@+@+@+@+#+#+!+@+#+#+#+@+@+@+@+@+@+@+@+@+&++++++++++++++",
"+++++++++++++++W+X+Q+Y+Z@+@@+j@#@$+m+7+~+1+>+,+$+#+#+=+!+!+!+@+@+@+@+!+@+#+@+#+@+#+@+@+&+&+#+@+@+@+@+!+@+@+@+@+@+#+&+@++++++++++++++",
"+++++++++++++++X@%+Q@&+A@*+i@=+I@-+:@;+w+x+e+'+)+%+#+@+@+@+@+=+@+@+@+@+@+@+@+@+@+!+#+@+!+;+#+@+@+!+@+@+@+@+@+!+!+;+@+@+@++++++++++++",
"++++++++++++@>@>@%@,+G@'@)+h+0+3+t@!@~+]+2+'+%+$+#+#+=+!+&+#+!+@+@+@+@+&+@+@+@+@+@+@+&+@+&@{@]@^@/@(@_+!+#+@+!+@+#+@+@+=+;++++++++++",
"++++++++++@>@:@>@<@[@}@|@)@1@2@3+c@4+|@5+2+'+)+$+)+#+!+@+;+@+@+@+@+@+@+@+@+@+@+!+@+@+@+!@6@7@8@9@0@a@b@_+!+@+#+!+#+;+@+!+@++++++++++",
"++++++++++@c@>@>+L@[+G@|+r+g@d@3+E+d+|@e+2+,+)+#+#+#+@+@+@+-+;+@+@+@+@+&+&+@+#+@+@+&+@+@@f@g@h@i@j@k@l@m+&+@+@+&+@+@+@+@+;+@++++++++",
"++++++++@>@n@c@>+Q@[+S+N+r+U@o@p@q+}+~+/+>+'+)+o+#+!+!+;+@+@+!+!+@+@+@+#+#+@+!+!+;+@+@@r@s@t@u@v@w@x@y@z+&+@+!+!+!+@+!+!+;+@++++++++",
"++++++@>@>@A@B@>+L+R+S@C+T+U@o+5@q+n+~+/+>+,+%+#+#+@+&+!+#+!+@+@+@+@+@+@+@+#+!+&+@+&+@@D@E@F@G@H@I@J@K@L@M+@+@+@+@+@+@+&+!+@+@++++++",
"++++++@>@c@>@>@>+L+R+S@C+T+U@o+5@q+}+w+x+>+,+%+%+#+@+@+@+@+@+@+@+@+@+@+@+&+@+@+@+@+@+@@N@O@P@Q@R@w@S@T@U+@+@+@+@+@+@+@+@+@+@+@++++++",
"++++++@>@A@>@>@>+L@V+S@C+T+U@o+5@W+}+w+x+>+,+)+$+#+@+@+@+#+#+!+@+@+@+!+!+@+@+@+@+@+@+@+&@X@Y@Z#+#@###$#%+@+@+@+!+!+!+@+@+@+#+@+;++++",
"++++++@>#&@c@B@B+L+R+S@C+T+U@o+5@q+}#*+1+>+'+)+#+#+@+!+!+!+!+!+!+!+!+-+!+@+!+-+!+!+@+!+!@N#=#-#;#>#,@^#'+@+@+!+!+@+@+@+!+!+!+!+@++++",
"++++@A@>@c@>@B@>+Q@[+S@C+r+U@o@p@q+n+~+1+>+'+%+%+#+@+@+@+#+@+@+!+!+#+@+@+&+@+@+#+@+@+@+@+@@M@(#)#!@D+@+!+@+@+#+@+@+#+@+@+@+#+@+*+@++",
"++++@>@>#~@>@A@>+Q@[+S#{+r+g@d#]+E+d+~+1+2+'+%+%+#+@+#+&+@+&+!+@+@+@+!+@+@+&+&+#+@+@+@+@+@+@+@+@+@+;+@+@+@+@+#+@+@+@+@+#+&+@+&+!+&++",
"++@>@c@B@A@B@>@B@<@,+G@|@)@1@2@3#^@4+|+/+2+,+%+%+#+#+@+@+@+@+@+@+@+#+#+@+@+@+@+@+#+&+@+;+#+@+@+;+@+;+!+!+@+@+@+@+@+@+@+@+@+@+@+@+;++",
"++@>@>@>@>@A@>@>@%@,#/@'@)#(+s+3#^+u@~+]+2+,+)+)+o+#+&+@+#+!+@+@+@+!+!+@+@+@+!+&+@+#+;+@+@+@+=+!+&+@+@+!+&+@+@+&+!+#+@+&+@+#+!+@+@++",
"++@>@>@A@c@A@>@>@%+Q#_+A+q+i@=+I+6+:@;+w+x+,+'+%+%+#+&+-+@+@+!+@+@+!+@+@+-+@+#+@+@+#+@+!+#+;+@+@+@+@+@+@+-+@+@+&+@+;+@+&+-+@+@+!+@++",
"++@>@A@B@>@>@B@>@%+Q@&+Z#:#<+j+k@$+[+7#[+x+>+'+%+%+#+#+@+@+&+@+@+@+@+@+!+@+@+@+@+@+@+@+!+!+@+@+@+#+;+@+@+@+@+@+!+@+&+@+#+@+@+&+@+@++",
"++@c@>@A@B@>@>@B@<+Q+M+S+B+T+9+D+5+E+}+~+1+2+,+%+%+#+#+@+@+@+@+#+@+@+@+@+!+@+@+&+@+#+@+@+@+@+!+@+@+@+@+@+@+@+@+@+@+@+@+&+@+@+@+@+-++",
"++@n@>@>@A#~@>@>+W+W+R+S#{+r#}+4#]#^+u+|#|+2+e+f+)+#+#+#+@+@+!+@+@+@+!+&+@+!+#+@+@+@+@+!+!+@+!+=+@+@+!+#+#+@+@+!+@+!+@+@+#+@+@+!+@++",
"++@n#~@>@B#~@>@B@>@<@[+G@'+q#1+H+I+J+:+K+w+x+e+'+%+%+#+#+@+@+@+@+@+@+@+;+@+@+;+@+&+@+#+@+=+@+@+@+@+@+@+@+@+@+@+&+#+@+@+@+@+@+@+@+-++",
"++@n@>@A@B@>#&@>@B@<@[+Y+A#:+C+j@#+5@q+}+~+1+(+,+%+%+#+#+@+@+@+@+@+@+@+@+@+@+@+!+@+@+@+@+@+;+@+@+@+@+@+@+@+;+@+!+@+@+@+@+@+@+@+@+@++",
"++@n@>#&@B@>@>@>@B@B+L+M+S#2+r+g#3+3#^+:#4+w+x+>+,+$+#+#+#+@+@+@+@+@+@+@+#+@+@+@+@+&+*+@+@+@+@+@+@+@+@+@+@+@+#+@+*+&+#+@+!+@+@+@+@++",
"++@>@>@>@B@>@A#&@>@>@<@[#5@'+q+i@=+k+l+[+}+~+/+(+>+$+)+#+#+#+!+&+@+&+@+@+@+&+@+&+#+&+-+@+@+@+@+@+@+@+@+@+@+@+@+;+;+&+#+!+&+@+@+!+@++",
"++@c@n@>@>@A@B@c@B@B@%+Q+Y+Z#6+T+U+4#]#^@!+v+w+x+>+,+)+)+#+#+@+!+@+@+@+!+@+@+!+!+@+@+&+;+@+@+@+!+!+@+@+*+@+@+@+;+@+@+@+@+!+@+@+@+@++",
"++@>@>@c@B@c@A@>@A@>@%+Q+R+S@'+O+i@=+k+l@W+n+~+]+8+>+'+%+#+#+#+#+*+@+@+@+@+@+@+&+@+#+@+&+@+@+@+;+@+@+@+@+@+@+@+!+@+#+*+!+@+@+@+!+&++",
"++@>@>@B@B@c@B@>#~@B@>+W@[@&+Z+B+T+U+4#]+t+:+7+~+1+2+,+f+%+#+#+#+*+@+@+@+@+@+@+@+*+@+*+@+@+@+@+@+@+@+@+@+#+@+@+!+*+&+*+@+@+@+@+@+@++",
"++@>@>@>@B@>@A@>@B@A@>@>+L+M+S@'+O+i+H@#+5+E@4+v+w+x+(+,+f+%+o+#+#+@+@+@+@+@+@+&+@+&+!+@+@+&+!+@+&+@+@+@+@+@+@+-+!+&+@+!+@+@+@+!+@++",
"++@>@B@>@B@>@c#~@>@A@>@>+W@,@&+Z#7+T+g+s+I#8@q+n+|+^+x+>+,+f+)#9+y+#+@+#+@+@+@+!+&+@+&+@+@+@+@+#+@+!+@+@+&+@+@+!+&+#+@+&+@+@+#+#+#++",
"++@>@>@>@>@>#&#~#&@A@B@B@%+Q+M+S@'#0#<+9#a@3+t#b#c+~+^+x+2+,+f+%+%+#+#+#+#+@+@+@+!+#+#+@+!+@+@+;+#+@+@+;+@+@+@+;+@+#+#+#+#+#+#+#+#++",
"++++@>@B#~@B@>@>@>@>@>@>@>+W@,+M+S+N+O+i+j@#+b#^+:#c+~+^+x+2+,+,+%+f+%+%+#+#+@+@+@+@+&+*+@+@+*+#+@+@+&+@+&+@+@+@+#+#+#+y+#+#+#+#+&++",
"++++@A#&@>@B@A@A@>@A#&#&@B@>+W@,@}+A+B+T@1+0+k+5+c@!#c+~+^+x+2+e+,+f+$+$+o+#+#+#+#+&+!+&+#+#+@+@+#+@+-+@+#+#+#+#+#+#+)+)+)+%+f+#+@++",
"++++++@>@>@>@B@B@>@B@>@B#&@>@<+L+M+G+A#:+T+g+0+I+5+c+:#c+|+w+/+(+>+>+,+)+)+#+#+o+#+#+#+#+#+#+#+#+#+#+#+#+#+#+$+o+%+f+$#d+'+'+,+#++++",
"++++++@>@B@>@>@>@>@A@>@A#&@>@>@<+Q+R+S@'+q@@+U+s+k+5#^#b+n+v+~+/+8+(+e+'+'+f+%+%+%+f+y+y+$+$+y+o+$+$+o+o+$+%+%+%+$+,+'+,+e+e+,+;++++",
"++++++@>@c@B@>@A@>@A#&#&@>@A@A@B+W@,@&+S#e+q@@+U+0+k+b+t@q@4#f+~+w+1+x+2+>+>+,+,+%+%+)+f+$+%+)+)+$+%+%+%+%+%+,+,+>+>+2+2+x+x+f++++++",
"++++++@>@>@B@B@A@>@>@c@c@A@>@>@B+X+L@[+Y+Z#2+q@@+g+0@#@3#8+E+:+n@;+~+w+1+8+2+(+>+'+,+,+'+'+'+,+,+,+,+,+,+,+>+>+2+(+x+/+]#[+8+,++++++",
"++++++++@>@c@B@>#&@>#~@B@A@>@>@B@>+X+Q@,@&+Z@|+q+T@1+j#a+I+5#g@W@!+}@;+~+w#|+1+x+x+(+2+e#h#h+>+e#h+>+2+2+2+x+/+/+]+w+|+|#i+/++++++++",
"++++++++++@c@B@>@B@B@>#&#&@c@A@A@>@B@%+L@[+Y+S@'#:+T+i+9+s@##]+l#^+[+:+n+K+|+~#[+w+]+/+1+/+/+/+/+1+1+1+/+]+w#[+~+v+7+d+u#i+,++++++++",
"++++++++++@>@:@>@A@>@c@c@>@>@>@>@>@>@>+X+Q@[+Y+S+A+B+O#<+g+H+4+k#]+l#^@q+:+u+}#c@;@~+|+|+~#*#[+w+~+~+|+|#j+7#c@4+u+[@q+m+{++++++++++",
"++++++++++++@>@:#~@>@c@A@>@A@>@n@n@>@>@B+X+Q@[+M+G+A+N#0+T+i#k@=+4+k+3+5+J#^+E+[+:+u@4+d+n+}+n+}+}+d+d+u@!+:+m+E#^+6+J#i+e++++++++++",
"++++++++++++++@c@>@>@A@n@c@>@>@>@n@>@>@A@>@%@%+L+M#/+S@'+B+O+T+i+U@=#3#l+I#]+5+l+6#^#^+E+E@q@q@q@q+E+E#^#g+6#m+b+3+I+t+1++++++++++++",
"++++++++++++++@>@>@B@>@B@>@>#&@A@>@A@A@B@>@>@>+W+Q@,+M+G+Z@'+B+O+T+i+g+9+H+4+D+k+I+3@3@p@p+b+5+5+b@p#]@3+3+I@#+V+s#a+6++++++++++++++",
"++++++++++++++++@>@>@B@B@>@:@c@>@>@>@>@>@>@>@>@>+W@<@,+R@&+S+Z@'+B+q+r+C#1#}+9+j@=+s@2@d@o@o#a@o@o@o@d@2+0@=+j+9#}+H++++++++++++++++",
"++++++++++++++++++@A@c@B@>@>@>@A@>@>@A@B@>@n@A@>@>@B+W+Q+L+R+Y+S+Z@'+N#:+q+r+T#<+i#(@1+g+U+U#k#k+U+U+g@1+h+i@@+T@@++++++++++++++++++",
"++++++++++++++++++++@>@B#~@A#~@B@>@>@A@B@>@A@>@>@B@>@B@%@%+L@,+M@&#/+S+A@'#2#6@++q@)+r+r+T+T+T+T+T+T+r+r@)+q#:+O++++++++++++++++++++",
"++++++++++++++++++++++@A@>@:@A#~@:@n#&@n@>@:@>@>#&@n@>@>@B@>+W+L+L@,+M+Y+G+S+S+Z+A@'@|#{@C@C+N@C+N+N@|@|+A#n#o++++++++++++++++++++++",
"++++++++++++++++++++++++@>@>@>@>@B@>@>@>@>#&@B@>@>@B@A@>@B@>@B+X+W@<+L@,@[+R+M@&+F+G+G+S+S+S+S+S+S+S+G+G+S#p++++++++++++++++++++++++",
"++++++++++++++++++++++++++@>@>@:@n#&@B@>@B@>@>@>@B@>@>@>#&@>@>@>@B@B@B+W@<@<+L+Q+L@,@,@,@,+M#q#q+M@[@[+M+S++++++++++++++++++++++++++",
"++++++++++++++++++++++++++++++@>@>@>@A@>@>@B@c@B@A@>@>@>@A@c@>@>@B@A@B@>@>+W@%+W+W@%@<+L+Q+Q+L+Q+L+Q#r++++++++++++++++++++++++++++++",
"++++++++++++++++++++++++++++++++@>@>@>@A@B@:@B@>#~@B@B@:#~@>@c@n@>#&#~@>@B@>@B@>@>@B@>@B@>@>@>+W+W+Q++++++++++++++++++++++++++++++++",
"++++++++++++++++++++++++++++++++++++@>@>@B@c@A@>@B#~@A#~@>@A@>@B@B@A@B@A@B@>@>@B@>@B@:@A#&@A@>#s++++++++++++++++++++++++++++++++++++",
"++++++++++++++++++++++++++++++++++++++@>@>@>@>@>@>@>@B@>@>@>@>#&@B@B@B@>@A@B@>@>@B@B@>@>@>@>@>++++++++++++++++++++++++++++++++++++++",
"++++++++++++++++++++++++++++++++++++++++++++++@A@>@>@>@c@>@>@c@>@>@>#~@>@>@A#~@>@c@>@A++++++++++++++++++++++++++++++++++++++++++++++",
"++++++++++++++++++++++++++++++++++++++++++++++++++@>@>@>@>@>@n@n@n@n@n@n@>@>@>@>@>++++++++++++++++++++++++++++++++++++++++++++++++++",
"++++++++++++++++++++++++++++++++++++++++++++++++++++++++++++++++++++++++++++++++++++++++++++++++++++++++++++++++++++++++++++++++++++"};
