/* XPM */
static char * ball_red_xpm[] = {
"66 66 248 2",
"#G c #7A12A7",
"#F c #7F13AF",
"#E c #8013B1",
"#D c #8013B0",
"#C c #8413B7",
"#B c #7B11A9",
"#A c #8113B3",
"#z c #9316CC",
"#y c #9315CD",
"#x c #8F14C6",
"#w c #A117E0",
"#v c #9C16D6",
"#u c #9E17DB",
"#t c #9C17D6",
"#s c #9615CF",
"#r c #8113B1",
"#q c #A017DE",
"#p c #8213B5",
"#o c #A517E2",
"#n c #8313B4",
"#m c #A418E4",
"#l c #9D16D8",
"#k c #8E14C5",
"#j c #8413B5",
"#i c #9015C6",
"#h c #A217DF",
"#g c #8313B6",
"#f c #9A16D5",
"#e c #8212B3",
"#d c #9D17D7",
"#c c #9015C7",
"#b c #9E16D9",
"#a c #8E14C3",
"#0 c #A317E0",
"#9 c #8613B9",
"#8 c #7A12AA",
"#7 c #8814BB",
"#6 c #7C12AA",
"#5 c #7711A6",
"#4 c #A018DD",
"#3 c #9115CA",
"#2 c #8F15C5",
"#1 c #7B12AB",
"#| c #9F17DC",
"#} c #9416CD",
"#[ c #8713BA",
"#< c #8213B4",
"#: c #7F12AF",
"#_ c #7C11AC",
"#( c #9616D0",
"#/ c #7D11AD",
"#^ c #7A11AA",
"#] c #9716D0",
"#{ c #8914BC",
"#~ c #A922E5",
"#! c #7711A7",
"#) c #A61AE4",
"#' c #B43DE8",
"#, c #BF5BEC",
"#> c #C160EC",
"#; c #B746E9",
"#- c #AD2BE6",
"#= c #7911A7",
"#* c #7811A6",
"#& c #A920E5",
"#% c #B745E9",
"#$ c #D28DF1",
"## c #E7C2F7",
"#@ c #EACAF8",
"#+ c #DAA1F3",
"@Z c #BE58EB",
"@Y c #AB27E6",
"@X c #8513B8",
"@W c #AC29E6",
"@V c #C975EF",
"@U c #EED6F9",
"@T c #FCF9FD",
"@S c #F4E4FB",
"@R c #D697F2",
"@Q c #B138E8",
"@P c #A71BE5",
"@O c #8914BE",
"@N c #7C11AB",
"@M c #AF30E7",
"@L c #D18BF1",
"@K c #F5E7FC",
"@J c #FDFCFE",
"@I c #FEFEFE",
"@H c #F9F2FD",
"@G c #DFAFF5",
"@F c #B642E9",
"@E c #A71DE5",
"@D c #8113B2",
"@C c #7811A7",
"@B c #AC2AE6",
"@A c #CA77EF",
"@z c #EFD7FA",
"@y c #FBF7FD",
"@x c #FCFAFD",
"@w c #F4E5FB",
"@v c #D799F3",
"@u c #B139E8",
"@t c #A71BE4",
"@s c #A218E1",
"@r c #9816D2",
"@q c #7D12AE",
"@p c #7712A6",
"@o c #A921E5",
"@n c #D594F2",
"@m c #E9C8F8",
"@l c #ECD0F9",
"@k c #DCA7F4",
"@j c #BF5CEC",
"@i c #AB28E6",
"@h c #8E15C4",
"@g c #8A14BD",
"@f c #AB26E6",
"@e c #B440E8",
"@d c #C05FEC",
"@c c #C365ED",
"@b c #B848E9",
"@a c #AD2CE6",
"@0 c #A71CE5",
"@9 c #9B16D6",
"@8 c #9215CA",
"@7 c #8E15C3",
"@6 c #8814BC",
"@5 c #8112B1",
"@4 c #7B12AA",
"@3 c #7812A6",
"@2 c #7812A7",
"@1 c #A61AE5",
"@| c #A81EE5",
"@} c #AA23E5",
"@[ c #AA25E5",
"@< c #A81FE5",
"@: c #A61BE5",
"@_ c #9E16DA",
"@( c #8012B1",
"@/ c #7B11AA",
"@^ c #7911A8",
"@] c #7912A7",
"@{ c #7712A7",
"@~ c #A118DF",
"@! c #9416CE",
"@) c #8312B5",
"@' c #7D11AC",
"@, c #7A11A8",
"@> c #7912A8",
"@; c #9816D3",
"@- c #9316CD",
"@= c #8F15C6",
"@* c #8713B9",
"@& c #8212B4",
"@% c #7E12AF",
"@$ c #7C12AC",
"@# c #7B12A9",
"@@ c #7A12A8",
"@+ c #8F14C5",
"+Z c #8A14BE",
"+Y c #8613B8",
"+X c #7E12AE",
"+W c #7B11AB",
"+V c #7A12A9",
"+U c #9E17D9",
"+T c #9616CF",
"+S c #8913BD",
"+R c #8413B6",
"+Q c #8112B2",
"+P c #7E12AD",
"+O c #7C12AB",
"+N c #7A11A9",
"+M c #A417E4",
"+L c #A217E1",
"+K c #9415CE",
"+J c #9015C8",
"+I c #8C14C1",
"+H c #8813BB",
"+G c #8012B0",
"+F c #7D12AD",
"+E c #7D12AC",
"+D c #9315CB",
"+C c #8E15C5",
"+B c #8A14BF",
"+A c #8513B9",
"+z c #8213B3",
"+y c #7F12B0",
"+x c #7D11AE",
"+w c #A218DF",
"+v c #A017DC",
"+u c #9D17D9",
"+t c #9B16D5",
"+s c #9516CF",
"+r c #8D14C3",
"+q c #8513B7",
"+p c #8313B5",
"+o c #8213B2",
"+n c #A517E4",
"+m c #A317E2",
"+l c #9C16D7",
"+k c #9415CD",
"+j c #8F15C7",
"+i c #8B14C0",
"+h c #8713BB",
"+g c #8813BC",
"+f c #8914BD",
"+e c #A317E1",
"+d c #A218E0",
"+c c #9E17DA",
"+b c #9716D1",
"+a c #9215CB",
"+0 c #8D14C2",
"+9 c #8B14BF",
"+8 c #A117DF",
"+7 c #9D17D8",
"+6 c #9516CE",
"+5 c #9315CC",
"+4 c #8E14C4",
"+3 c #9115C9",
"+2 c #A318E0",
"+1 c #A118DE",
"+| c #9F17DA",
"+} c #9C17D7",
"+[ c #9916D3",
"+< c #9B17D6",
"+: c #9A16D4",
"+_ c #A018DC",
"+( c #A318E2",
"+/ c #A117DE",
"+^ c #A017DD",
"+] c #A217E0",
"+{ c #9F17DB",
"+~ c #A618E4",
"+! c #A517E3",
"+) c #A417E2",
"+' c #A418E2",
"+, c #A318E1",
"+> c #A518E3",
"+; c #A518E5",
"+- c #A618E5",
"+= c #A519E4",
"+* c #A519E5",
"+& c #A619E4",
"+% c #A418E3",
"+$ c #A417E3",
"+# c #A518E4",
"+@ c #A619E5",
"++ c None",
"++++++++++++++++++++++++++++++++++++++++++++++++++++++++++++++++++++++++++++++++++++++++++++++++++++++++++++++++++++++++++++++++++++",
"+++++++++++++++++++++++++++++++++++++++++++++++@+#+$+#+#+%+#+&+*+=+=+*+&+=+*+-+&+;+&+@++++++++++++++++++++++++++++++++++++++++++++++",
"+++++++++++++++++++++++++++++++++++++++++++-+>+,+'+'+)+!+#+#+@+#+@+@+@+~+@+@+~+~+@+@+@+@+-++++++++++++++++++++++++++++++++++++++++++",
"+++++++++++++++++++++++++++++++++++++++{+]+^+^+/+]+(+)+>+#+#+#+#+@+@+@+@+@+@+@+=+@+#+@+&+=+*+@++++++++++++++++++++++++++++++++++++++",
"+++++++++++++++++++++++++++++++++++_+:+<+[+}+|+1+2+(+>+>+#+#+@+@+@+@+@+@+@+@+@+@+*+@+*+@+@+@+@+@+@++++++++++++++++++++++++++++++++++",
"+++++++++++++++++++++++++++++++3+4+3+5+6+:+7+{+8+,+'+$+#+#+#+~+-+@+@+@+@+@+@+@+=+@+&+~+@+@+&+~+@+-+&+-++++++++++++++++++++++++++++++",
"+++++++++++++++++++++++++++++++9+0+4+a+b+<+c+^+d+e+%+%+#+#+&+&+=+#+@+@+~+@+@+@+#+&+@+=+@+@+@+*+#+@+#+@+@++++++++++++++++++++++++++++",
"+++++++++++++++++++++++++++f+g+h+i+j+k+[+l+{+/+2+m+%+n+#+#+@+@+@+@+@+@+@+@+@+@+*+~+#+~+@+~+*+@+-+#+@+@+-+@+&++++++++++++++++++++++++",
"+++++++++++++++++++++++++o+p+q+f+r+3+s+t+u+v+w+,+'+>+n+#+@+@+@+*+@+&+&+@+=+&+*+@+@+@+&+@+@+@+@+#+@+@+&+@+&+@+@++++++++++++++++++++++",
"+++++++++++++++++++++++x+y+z+A+B+C+D+b+l+|+/+]+m+>+$+n+#+@+#+#+#+@+@+#+#+#+@+@+&+~+&+#+=+#+#+@+@+~+*+-+@+~+@+&+@++++++++++++++++++++",
"+++++++++++++++++++++E+F+G+p+H+I+J+K+[+7+v+8+L+'+>+M+n+#+#+@+-+#+@+@+@+~+&+@+@+-+&+@+@+#+=+~+@+#+@+#+&+~+@+@+&+~+@++++++++++++++++++",
"+++++++++++++++++++N+O+P+Q+R+S+r+3+T+t+U+^+w+,+$+>+M+#+#+#+#+#+~+~+#+~+#+-+@+@+@+@+*+~+&+~+#+#+~+-+~+~+~+#+@+@+@+@+@++++++++++++++++",
"+++++++++++++++++V+V+W+X+z+Y+Z@++a+b+}+{+1+d+'+>+#+#+#+@+@+@+~+@+@+@+@+@+*+@+@+@+@+@+#+~+~+@+#+#+~+@+@+@+@+@+@+@+@+@+&++++++++++++++",
"++++++++++++++@@@@@#@$@%@&@*+i@=@-@;+7+{+1+,+'+$+#+#+=+~+~+~+@+@+@+@+~+@+~+@+~+@+#+@+@+&+=+#+@+@+@+@+~+@+@+@+@+@+~+&+@++++++++++++++",
"++++++++++++++@>@,@#@'+y@)+h+I+J@!+:+u+v@~+e+)+!+>+#+@+@+@+@+&+@+@+@+@+@+@+@+@+@+~+#+@+#+-+#+@+@+#+@+@+@+@+@+~+~+;+@+@+@++++++++++++",
"++++++++++++@{@]@^@/+F@(+R+g+0+3+T+t@_+^+d+m+>+!+#+#+=+~+&+~+#+@+@+@+@+=+@+@+@+@+@+@+&+@+&@:@<@[@}@|@1+~+~+@+~+@+~+@+@+=+-++++++++++",
"++++++++++@2@3@]@,@4+F@5+R@6@7@8+b@9+|+/+2+m+!+$+!+#+#+@+-+@+@+@+@+@+@+@+@+@+@+#+@+@+@+#@0@a@b@c@d@e@f@1+#+@+#+#+#+-+@+#+@++++++++++",
"++++++++++@2@2@]+N@4+F@5+q@g@h@8+b+<+|+1+d+(+!+#+#+#+@+@+@+-+;+@+@+@+@+=+&+@+#+@+@+&+@+@@i@j@k@l@m@n@b@o+&+@+@+&+@+@+@+@+;+@++++++++",
"++++++++@2@p@2@]+V@4@q+Q+q+Z+C+a@r+}+{+/@s+)+!+n+#+~+#+-+@+@+~+#+@+@+@+~+~+@+~+#+-+@+@@t@u@v@w@x@y@z@A@B+&+@+#+#+~+@+~+#+-+@++++++++",
"++++++@2@2@C@C@]+N+W+X@D+Y+Z+C+5@r+l+{+/@s+'+>+#+#+@+&+#+#+~+@+@+@+@+@+@+@+#+#+&+@+&+@@E@F@G@H@I@J@K@L@M@1+@+@+@+@+@+@+&+#+@+@++++++",
"++++++@2@2@2@2@]+N@N+X@D+Y@O+C+5@r+}+v@~+,+'+>+>+#+*+@+@+@+@+@+@+@+@+@+@+&+@+@+@+@+@+@@P@Q@R@S@T@y@U@V@W+@+@+@+@+@+@+*+@+@+@+@++++++",
"++++++@2@C@2@2@]+N+O+X@D@X@O+C+5@r+}+v@~+,+'+$+$+#+@+@+@+#+~+#+@+@+@+#+#+@+@+@+@+@+@+@+&@Y@Z#+#@###$#%#&+@+@+@+#+~+#+@+@+@+#+@+-++++",
"++++++@2#*@{@C#=+N@N+X@D+Y@O+C+5@r+}+{+1@s+)+!+#+#+@+#+~+~+#+~+~+#+~+;+~+@+~+-+~+~+@+#+~@P#-#;#>#,#'@[#)+@+@+~+~+@+@+@+#+~+~+#+@++++",
"++++#!@2@2@2@C@]+V@4@q@D+q+Z+C+a@r+l+{+1@s+)+>+>+#+@+@+@+#+@+@+~+#+#+@+@+&+@+@+~+@+@+@+@+@@1@|#~@o@E+@+~+@+@+~+@+@+~+@+@+@+#+@+@+@++",
"++++@2@2#*@2@C@]+V@4@q@D+q@g@h@8+b+<+{+1+d+)+>+>+#+@+#+&+@+&+#+@+@+@+#+@+@+&+&+#+@+@+@+@+*+@+@+@+@+-+@+@+@+@+#+@+@+@+@+#+&+@+&+#+&++",
"++@2@2@C@C@C@2#=@,@/+F@5+R#{@7@8#]@9+|+/+2+(+>+>+#+#+@+@+@+@+@+@+@+#+#+@+@+@+@+@+~+&+@+;+#+@+@+;+@+-+~+#+@+@+@+@+@+@+@+@+@+@+@+@+;++",
"++@2@2@2@2@C@2@]@,#^#/@(+R@6+r+3#(+t@_+^+d+(+!+!+n+#+&+@+#+#+@+@+@+~+#+@+@+@+#+&+@+#+-+@+@+@+=+#+&+@+@+#+&+@+@+&+~+#+@+&+@+#+#+@+@++",
"++@2@2#!@2@C@2@]@^@#@'+G+p+H+I+J+6+:+u+v+w+(+)+>+%+#+=+-+@+@+~+@+@+~+@+@+;+@+#+@+@+#+@+~+~+-+@+@+@+@+@+@+;+@+@+&+@+-+@+=+-+@+@+~+@++",
"++@2#!@C@2@2@C@2@,@##_#:#<#[+i+j#}+[+7#|@~+,+)+>+>+#+#+@+@+&+@+@+@+@+@+~+@+@+@+@+@+@+@+#+~+@+@+@+~+-+@+@+@+@+@+~+@+&+@+#+@+@+&+@+*++",
"++@2@2@C@C@2@{@C@^@##1+X+z@X+B#2+5+b+}+{+1+2+'+>+>+#+#+@+@+*+@+#+@+*+@+@+#+@+@+=+@+#+@+@+@+@+~+@+@+@+@+@+@+@+@+@+@+@+@+=+@+@+*+@+-++",
"++@3@{@2#!#*@2@2@@@@@N+X@D+q+f+4#3#(+t+c#4+d+e+%+!+#+#+#+@+@+~+@+@+@+~+&+@+~+#+@+@+@+@+~+#+@+#+&+@+@+#+~+#+@+@+~+@+~+@+@+#+@+@+~+@++",
"++@3#5@2@C#5@2@C@2@,#6+F@(+p#7+I+J+K+:+7+v@~+e+)+>+%+#+#+@+@+@+@+@+@+*+-+@+*+-+@+&+*+~+@+=+@+@+@+@+*+@+@+@+@+@+=+#+@+@+@+@+@+@+@+-++",
"++@3@2@C@C@2#5@2@C@,#8@$+y#<#9+i@=+5@r+}+{+1#0+(+>+>+#+#+@+@+@+@+@+@+@+@+@+@+@+#+@+@+@+@+@+-+@+@+@+@+@+@+@+-+@+~+@+@+@+@+@+@+@+@+@++",
"++@3@2#5@C@2@2@2@C#=+N+O+X+Q+q@g#a+3#(+:#b+v@~+,+'+!+#+#+#+*+@+@+@+@+@+@+#+*+@+@+@+&+@+@+@+@+@+@+@+@+@+@+@+@+~+@+@+&+~+@+~+@+*+@+@++",
"++@2@2@2@C@{#!#5@2@]@,@4#/@(+p+h+I#c+k+[#d+{+/+]+,+$+$+#+#+#+~+&+@+&+@+@+@+&+@+&+~+&+-+@+@+@+@+@+@+*+@+@+@+@+@+-+-+&+#+~+&+@+*+~+*++",
"++@2@3@2@2#!@C@2@C@C@,@#@$@%#e@X@O+4@8#(#f+U+v@~+,+'+!+!+#+#+@+#+@+@+@+~+@+@+~+~+@+@+=+-+@+@+@+#+~+@+@+@+@+@+@+-+@+@+@+@+~+@+@+@+@++",
"++@2@2@2@C@2@C@2@C@2@^+V@N@q@(#g+h+I#c+k@r+l+{+^#h+,+)+>+#+#+#+#+@+@+@+@+@+@+@+=+@+#+@+&+@+@+@+-+@+@+@+@+@+@+@+~+@+#+@+#+@+@+@+#+=++",
"++@2@2@C@C@2@C@2#*@C@2@@@4#_#:+z@X@O+4#3+s+:+7+{+1+2+(+%+>+#+#+#+@+@+@+@+@+@+@+@+*+@+*+@+@+@+@+@+@+@+@+@+#+@+@+#+@+&+@+@+@+@+@+@+*++",
"++@2@2@2@C@2@C@2@C@C@2@]+N#1@q@(#g+h+I#i+5+b@9+U+v@~#0+(+%+>+n+#+#+@+@+@+@+@+@+=+@+&+~+@+@+&+~+@+&+*+@+@+@+@+@+-+~+&+@+#+@+*+@+~+@++",
"++@2@C@2@C@2@2#5@2@C@2@]@@@/#_@%+z@X+f+r+J+K@r+l+c+^@~+,+(+%+!+#+n+#+@+~+@+@+@+#+&+@+=+@+@+@+*+#+@+#+@+@+=+@+@+~+&+#+@+&+@+@+#+#+#++",
"++@2@2@2@2@2#*#5#5#!@C@C@^+V+O@q@(#j#[+B#k@8+T+:#l+{+^@~+2+(+%+>+>+#+#+#+#+@+@+*+~+#+~+@+~+*+@+-+#+@+@+-+@+*+@+-+@+#+#+#+#+#+#+#+#++",
"++++@2@C#*@C@2@2@2@2@2@2@2@@@/+O+X+Q+R+H+i@=+a#(+:#l+{+^@~+2+(+'+>+>+>+>+#+#+*+@+@+@+&+@+@+@+@+#+@+@+&+@+&+@+@+@+#+#+#+n+##m+#+#+&++",
"++++#!#5@2@C@C#!@2@C#*#5@C@]@@@/+F+y+z@X#{+0#c+5+b#f#l+{+^@~+2+e+'+%+$+!+M+#+#+#+#+&+#+=+#+#+@+@+~+*+-+@+#+#+#+#+#+#+$+!+$+>+%+#+@++",
"++++++@2@2@2@C#!@2@C@2#!#5@2@,+N#1+F+G#n@X+f+0+J+5+b+:#l+c+v+/+]+,+,+'+!+$+#+#+n+#+#+#+#+#+#+#+#+#+#+#+#+#+#+$+n+>+>+$#o+)+)+(+#++++",
"++++++@2@C@2@2@2@2@C@{#!#5@2@]@,+V@N@q@(#p#9+Z+r#c+5#(+:+l+U+{#q+8+]+e+m+)+%+>+>+>+>+M+n+!+$+n+M+!+$+n+M+$+%+>+>+$+'+m+(+e+e+(+-++++",
"++++++@2@2@C@2@C@2#!#5#5@2@C#!#=@@@/#_+X#r+p#9+Z+0#c+a+T@r@9#l+{+v+1@~+2+,+,+'+'+>+>+!+%+$+>+!+!+$+>+>+>+>+>+'+'+,+,+2+d@~@~+%++++++",
"++++++@2@{@C@C#!@2@2@2@2#!@2@2@C@>+N@4@$@%+Q+p#9+f+0@=@8+K+b+:+l+U+{+v+1+8+d#0+,+m+(+(+m+)+)+'+'+'+'+(+(+(+,+,+2+]@~+/+^+v#h+'++++++",
"++++++++@2@2@C@2#*@2#*#!#!@2@2#!@2@>+V@/#_@%@5#p@X#{+i#k+J+5#s@r#f#d+U+{+v#4+1@~+w+]+d+L+L+L@s+L+L@s+d+2+d@~+/+/+^+v+|+c+c+/++++++++",
"++++++++++@{@C@2@C@C@2#5#*@{#!@C@2@C@^+N@4@$+X@(#n@X+H+B+r#i#3+k#(+[+:+l+7+c+{#|+v+^+/+1+/+/+/+/+1+1+1+/+^+v#|+{+U+7#t+t+c+(++++++++",
"++++++++++@2@3@2@C@2@2@{@2@2@2@2@2@2@2@>+V@4@$@q+G+z+R#[+f+I+4#c#3+k#(@r+:+t+}#l+u@_+|+|+{+{+v+v+{#u+|+|#b+7#l#v#f+[@r+[#w++++++++++",
"++++++++++++@{@p#*@2@2#!@{#!@2@3@3@2@2@C@>+V@4+O+F+y+Q#j@X+h@O+I+4#c+3+5+K#(+b+[+:+t@9+<+l+}+l+}+}+<+<+t#f+:@;+b#(+6+K+c+e++++++++++",
"++++++++++++++@2@2@2@C@3@2@2@2@2@3@2@2@C@2@^@,+N#1#/+X@(+z#g@X+h@O+I#a#x+J#3+5#y+6#(#(+b+b@r@r@r@r+b+b#(#s+6#z+a+3+J+T+1++++++++++++",
"++++++++++++++@2@2@C@2@C@2@2#*@C@2@C@C#!@2@2@]@@+V@/+O+F@%@(#A#g@X+h@g+9+I+4#2+j+J+3@8+a+a+a+5+5+a+a@8@8+3+J@=@++r@++6++++++++++++++",
"++++++++++++++++@2@2@C@C@2@3@2@2@2@2@2@2@2@2@2@]@@@,@/@N#_@q#:@(+z+p+q#9#7+f+B+i+I+r@7@h+C+C#k+C+C+C@h@7+0+I+i+B+f+I++++++++++++++++",
"++++++++++++++++++#!@{@C@2@2@2#!@2@2@C@C@2@3@C@2@2#=@@+V#B+W@$@q@%@(+Q#<+p+q@X#[+H@6@6@g+Z@O@O@O@O+Z@g#{+g+h#9+Y#9++++++++++++++++++",
"++++++++++++++++++++@2#!#*@C#*@C@2@2@C@C@2#!@2@2@C@2@C@^@,+N@/+O#_#/+X+y@(+Q#e@&+p+R#C+q+Y+Y@X@X+Y@X+q#C+R+p#<#g++++++++++++++++++++",
"++++++++++++++++++++++#!@2@p@C#*@p@p#5@3@2@p@2@2#*@3@2@2#=@]@@+N#B@/+O@$+F+X+X#:+G@(@5@D@D@D+Q@D+Q+Q@5@5+G#D#E++++++++++++++++++++++",
"++++++++++++++++++++++++@2@2@2@2@C@2@2@2@{#5@C@2@2@C@C@2@C@2@C@>@@@,+N#^#6@N#1#_+E+F+F@q@q+X+X+X+X@q+F+F+X#F++++++++++++++++++++++++",
"++++++++++++++++++++++++++@2@2@p@3#*@C@2@C@2@2@2@C@2@2@2#*@2@2@2@C#=#=@@@,@,#B@##B#^@/@/@/+O@N@N+O@4@4#1+X++++++++++++++++++++++++++",
"++++++++++++++++++++++++++++++@{@2@2@C@2@2@C@2@C@C@2@2@2@C@2@2@2@C@C@C@2@2@@@,@@@@@,@,+N+V+V+N+V+N@##6++++++++++++++++++++++++++++++",
"++++++++++++++++++++++++++++++++@2@{@2@C@C@3#!@2#*@C@C@p#*@2@2@3@2#5#*@2@C@2@C@2@]#=@]#=@]@]@]@@@@+V++++++++++++++++++++++++++++++++",
"++++++++++++++++++++++++++++++++++++@2@2@C@2@C@2@C#*@C#*@2@C@2@C@C@C@C#!@C@2@2@C@2@C@3@C#5@C@2#G++++++++++++++++++++++++++++++++++++",
"++++++++++++++++++++++++++++++++++++++@2@2@2@2@2@2@2@C@2@2@2@2#*@C@C@C@2@C@C@2@{@C#!@2@2@2@2@2++++++++++++++++++++++++++++++++++++++",
"++++++++++++++++++++++++++++++++++++++++++++++#!@2@2@2@2@2@2@{@2@2@2#*@{@2#!#*@2@2@2#!++++++++++++++++++++++++++++++++++++++++++++++",
"++++++++++++++++++++++++++++++++++++++++++++++++++@2@2@2@2@2@3@3@3@3@3@3@2@2@2@2@2++++++++++++++++++++++++++++++++++++++++++++++++++",
"++++++++++++++++++++++++++++++++++++++++++++++++++++++++++++++++++++++++++++++++++++++++++++++++++++++++++++++++++++++++++++++++++++"};
