/* XPM */
static char * ball_red_xpm[] = {
"66 66 263 2",
"#V c #AF1394",
"#U c #B11394",
"#T c #B01394",
"#S c #B6139A",
"#R c #BC139E",
"#Q c #C315A3",
"#P c #C514A6",
"#O c #BF14A1",
"#N c #CF16AF",
"#M c #CC16AD",
"#L c #C614A6",
"#K c #D616B4",
"#J c #D817B6",
"#I c #CF15AE",
"#H c #E018BD",
"#G c #C615A5",
"#F c #B11395",
"#E c #AC118F",
"#D c #C715A8",
"#C c #C314A4",
"#B c #B41396",
"#A c #C214A2",
"#z c #D816B5",
"#y c #D816B4",
"#x c #D216B1",
"#w c #AA118E",
"#v c #C615A7",
"#u c #A6118D",
"#t c #DF17BC",
"#s c #B31296",
"#r c #A6128C",
"#q c #D316B0",
"#p c #AD1190",
"#o c #D916B6",
"#n c #AB128F",
"#m c #B9139C",
"#l c #B01293",
"#k c #AC128F",
"#j c #CE15AE",
"#i c #BB149C",
"#h c #AD1291",
"#g c #AA128E",
"#f c #A8118E",
"#e c #DD18B9",
"#d c #D516B3",
"#c c #CA15AA",
"#b c #C414A4",
"#a c #BD149F",
"#0 c #A8128D",
"#9 c #CC15AC",
"#8 c #B8139B",
"#7 c #AB1290",
"#6 c #BA139B",
"#5 c #B41397",
"#4 c #DC17B9",
"#3 c #C815A9",
"#2 c #BB139D",
"#1 c #D016AE",
"#| c #BC149D",
"#} c #AD1191",
"#[ c #D616B3",
"#< c #D016AF",
"#: c #E521C3",
"#_ c #E522C3",
"#( c #E41AC1",
"#/ c #E525C4",
"#^ c #E83DCA",
"#] c #EC5BD2",
"#{ c #EC60D3",
"#~ c #E946CD",
"#! c #E62BC5",
"#) c #A6118C",
"#' c #E520C2",
"#, c #E945CC",
"#> c #F18DE0",
"#; c #F7C2EE",
"#- c #F8CAF0",
"#= c #F3A1E5",
"#* c #EB58D2",
"#& c #E627C4",
"#% c #E629C5",
"#$ c #EF75D9",
"## c #F9D6F3",
"#@ c #FDF9FD",
"#+ c #FBE4F7",
"@Z c #F297E3",
"@Y c #E838C9",
"@X c #AB118E",
"@W c #E730C6",
"@V c #F18BDF",
"@U c #FCE7F8",
"@T c #FEFCFD",
"@S c #FEFEFE",
"@R c #FDF2FB",
"@Q c #F5AFE9",
"@P c #E942CB",
"@O c #E51DC1",
"@N c #C515A6",
"@M c #B81399",
"@L c #AB118F",
"@K c #A7118D",
"@J c #A7118C",
"@I c #E62AC5",
"@H c #EF77DA",
"@G c #FAD7F4",
"@F c #FDF7FC",
"@E c #FDFAFD",
"@D c #FBE5F7",
"@C c #F399E3",
"@B c #E839C9",
"@A c #E41BC1",
"@z c #D216B0",
"@y c #BE149E",
"@x c #AE1292",
"@w c #E521C2",
"@v c #F294E2",
"@u c #F8C8F0",
"@t c #F9D0F2",
"@s c #F4A7E7",
"@r c #EC5CD2",
"@q c #E628C4",
"@p c #C415A4",
"@o c #BD149D",
"@n c #B7139A",
"@m c #B11295",
"@l c #A7128C",
"@k c #E626C4",
"@j c #E840CB",
"@i c #EC5FD3",
"@h c #ED65D5",
"@g c #E948CD",
"@f c #E62CC5",
"@e c #E51CC1",
"@d c #DA17B6",
"@c c #D616B2",
"@b c #CA15AB",
"@a c #C315A4",
"@0 c #BC149E",
"@9 c #AA128F",
"@8 c #A6128D",
"@7 c #E51AC1",
"@6 c #E51EC2",
"@5 c #E523C3",
"@4 c #E525C3",
"@3 c #E51FC2",
"@2 c #E51BC1",
"@1 c #DA16B6",
"@| c #B61398",
"@} c #B11294",
"@[ c #AD1290",
"@< c #AA118F",
"@: c #A7128D",
"@_ c #CE16AD",
"@( c #C114A2",
"@/ c #B51298",
"@^ c #AC1190",
"@] c #A8118D",
"@{ c #A8128C",
"@~ c #D817B4",
"@! c #CD16AD",
"@) c #C615A6",
"@' c #C014A0",
"@, c #B41297",
"@> c #AF1293",
"@; c #AC1290",
"@- c #A8128E",
"@= c #DE18BA",
"@* c #DB17B7",
"@& c #CB15AC",
"@% c #C514A5",
"@$ c #BE149F",
"@# c #B8139A",
"@@ c #B31395",
"@+ c #AE1293",
"+Z c #AB1190",
"+Y c #A9128E",
"+X c #A9128F",
"+W c #DF18BC",
"+V c #BD139E",
"+U c #B61399",
"+T c #B21295",
"+S c #AB128E",
"+R c #A9118E",
"+Q c #CE15AD",
"+P c #C815A8",
"+O c #C114A1",
"+N c #B51398",
"+M c #AD1292",
"+L c #AC128E",
"+K c #D116B0",
"+J c #C515A5",
"+I c #BF14A0",
"+H c #B9139B",
"+G c #B31396",
"+F c #B01294",
"+E c #AE1192",
"+D c #DF18BB",
"+C c #DC17B8",
"+B c #D917B6",
"+A c #D516B2",
"+z c #CF16AE",
"+y c #C314A3",
"+x c #B71399",
"+w c #B51397",
"+v c #B21395",
"+u c #E417BF",
"+t c #DE17BB",
"+s c #D716B4",
"+r c #CD15AD",
"+q c #C715A7",
"+p c #C014A1",
"+o c #BB139C",
"+n c #BC139D",
"+m c #BD149E",
"+l c #E117BD",
"+k c #DD17BA",
"+j c #D617B3",
"+i c #D116AF",
"+h c #CB15AB",
"+g c #C414A5",
"+f c #C214A3",
"+e c #BF149F",
"+d c #DF17BB",
"+c c #DB17B8",
"+b c #D817B5",
"+a c #D416B1",
"+0 c #CE16AE",
"+9 c #CC15AB",
"+8 c #C915A9",
"+7 c #C414A6",
"+6 c #C915AA",
"+5 c #E318BE",
"+4 c #E018BC",
"+3 c #DE18BB",
"+2 c #DA17B7",
"+1 c #D717B4",
"+| c #D316B1",
"+} c #D617B4",
"+[ c #D416B2",
"+< c #DC18B8",
"+: c #E419C0",
"+_ c #E217BD",
"+( c #E218BD",
"+/ c #DE17BA",
"+^ c #DD17B8",
"+] c #DD17B9",
"+{ c #E017BC",
"+~ c #DB17B9",
"+! c #E418C1",
"+) c #E317BF",
"+' c #E217BE",
"+, c #E218BE",
"+> c #E118BD",
"+; c #E318BF",
"+- c #E518C1",
"+= c #E518C0",
"+* c #E519C1",
"+& c #E419C1",
"+% c #E318C0",
"+$ c #E317BE",
"+# c #E418C0",
"+@ c #E519C0",
"++ c None",
"++++++++++++++++++++++++++++++++++++++++++++++++++++++++++++++++++++++++++++++++++++++++++++++++++++++++++++++++++++++++++++++++++++",
"+++++++++++++++++++++++++++++++++++++++++++++++@+#+$+#+#+%+#+&+*+&+&+@+&+&+@+=+&+=+&+@++++++++++++++++++++++++++++++++++++++++++++++",
"+++++++++++++++++++++++++++++++++++++++++++-+;+>+,+,+'+)+#+#+@+!+*+*+*+#+*+*+#+!+*+*+@+*+-++++++++++++++++++++++++++++++++++++++++++",
"+++++++++++++++++++++++++++++++++++++++~+{+]+^+/+{+(+_+;+#+#+#+#+*+*+*+*+*+*+*+:+*+#+*+:+:+*+*++++++++++++++++++++++++++++++++++++++",
"+++++++++++++++++++++++++++++++++++<+[+}+|+1+2+3+4+(+5+;+#+#+*+*+*+*+*+*+*+*+*+*+*+*+*+*+*+*+*+*+*++++++++++++++++++++++++++++++++++",
"+++++++++++++++++++++++++++++++6+7+8+9+0+a+b+c+d+>+(+)+#+#+#+#+-+*+*+*+*+*+*+*+:+*+&+#+@+*+&+#+*+=+:+-++++++++++++++++++++++++++++++",
"+++++++++++++++++++++++++++++++e+f+g+h+i+j+2+k+4+l+5+;+#+#+:+&+:+#+*+*+!+*+*+*+!+:+*+:+*+*+*+@+#+*+#+*+*++++++++++++++++++++++++++++",
"+++++++++++++++++++++++++++m+n+o+p+q+r+|+s+c+t+4+_+5+u+#+#+*+*+*+*+*+*+*+*+*+*+@+#+#+!+@+#+*+*+=+#+*+*+=+*+:++++++++++++++++++++++++",
"+++++++++++++++++++++++++v+w+x+m+y+6+z+A+B+C+D+>+,+;+u+#+*+*+*+*+*+&+&+*+&+&+*+*+*+*+&+*+*+*+*+#+*+@+&+*+&+@+*++++++++++++++++++++++",
"+++++++++++++++++++++++E+F+G+H+I+J+h+K+s+2+/+{+_+5+)+u+#+*+#+#+#+*+*+#+#+#+*+*+:+#+&+#+&+#+#+*+*+!+*+=+*+!+*+&+*++++++++++++++++++++",
"+++++++++++++++++++++L+M+F+N+o+O+P+Q+|+b+C+d+l+,+;+u+u+#+!+*+-+!+*+*+*+!+:+*+*+=+&+*+*+!+:+#+@+#+@+#+:+#+*+*+:+#+*++++++++++++++++++",
"+++++++++++++++++++R+S+M+T+U+V+y+8+z+A+B+]+W+>+$+;+u+#+#+#+#+#+#+#+#+#+!+=+*+*+*+*+*+!+:+#+#+#+!+=+#+#+!+#+*+*+*+*+*++++++++++++++++",
"+++++++++++++++++X+Y+Z@+@@@#@$@%@&+K+1@*@=+4+,+5+#+#+#+*+*+*+#+*+*+*+@+*+*+*+*+*+*+*+#+#+#+*+#+#+#+*+*+*+*+*+*+*+*+@+:++++++++++++++",
"++++++++++++++@-@-+Y@;@>@,+H@'@)@!+|@~+c+3+>+,+)+#+#+:+#+#+#+*+*+*+*+#+*+#+*+#+*+#+*+*+:+:+#+*+*+*+*+#+*+*+*+*+*+#+&+*++++++++++++++",
"++++++++++++++@{@]+Y@^+F@/+o@(+P@_+[+B+C+W+l+_+)+%+#+*+*+*+*+:+*+*+*+*+*+*+*+*+*+#+#+*+#+=+!+*+*+#+*+*+*+*+*+#+!+=+*+*+*++++++++++++",
"++++++++++++@:@:@]@<@[@}@|+n+f+6+z+A@1+]+4+_+5+)+#+#+&+#+&+#+#+*+*+*+*+:+*+*+*+*+*+*+&+*+&@2@3@4@5@6@7+!+!+*+#+*+#+*+*+:+-++++++++++",
"++++++++++@:@8@:@]@9+M@}+U@0@a@b+i@c@d+/+4+_+)+)+)+#+!+*+-+*+*+@+*+*+*+*+*+*+*+!+*+*+@+#@e@f@g@h@i@j@k@7+#+*+#+#+#+-+*+!+@++++++++++",
"++++++++++@l@:@:+R@9+M@m@n@o@p@b+K+}+2@=+4+(+)+#+#+#+*+*+*+=+=+*+*+@+*+:+&+*+#+*+*+&+*+*@q@r@s@t@u@v@g@w+&+*+*+&+*+*+*+*+=+*++++++++",
"++++++++@:@8@l@:+Y@9@x+T@n@y+J+h@z+1@*+t+>+_+)+u+#+!+!+=+*+*+#+#+*+*+*+#+#+*+#+!+=+*+*@A@B@C@D@E@F@G@H@I+&+*+!+#+#+*+!+!+=+*++++++++",
"++++++@:@:@J@K@:+R@L@++v@M@$@N+9@z+s@*+t+>+,+;+#+#+*+:+#+#+#+*+*+*+*+*+*+*+#+#+&+*+&+*@O@P@Q@R@S@T@U@V@W@7+*+*+*+*+*+*+:+#+*+*++++++",
"++++++@:@l@:@:@:+R@X@++v@#@$@N+9@z+1+C+D+>+,+;+%+#+*+*+*+*+*+*+*+*+*+*+*+&+*+*+*+*+*+*@2@Y@Z#+#@@F###$#%+*+*+*+*+*+*+*+*+*+*+*++++++",
"++++++@:@K@:@:@:+R+S@++v@#@$@N+9@z+1+C+D+>+,+)+)+#+*+*+*+#+#+#+*+*+*+#+#+*+*+*+*+*+*+*+&#&#*#=#-#;#>#,#'+*+*+*+#+#+#+*+*+*+#+*+-++++",
"++++++@:#)@l@K@K+R@L@++v@#@$@N+9@z+1+c+3+>+_+)+#+#+*+!+!+!+#+#+#+#+#+=+!+*+!+=+!+#+*+!+#@2#!#~#{#]#^#/#(+*+*+!+#+*+*+*+!+!+!+#+*++++",
"++++@K@:@l@:@J@:+Y@9@x+v@n@$@N+h@z+s@*+3+>+_+;+%+#+*+*+*+#+*+*+#+#+#+*+*+&+*+*+!+*+*+*+*+*@7@6#_#:@O+*+#+*+*+!+*+*+#+*+*+*+#+*+@+@++",
"++++@:@:#)@:@J@:+Y@9@x+v@n@o@p@b+K+}@*@=+4+_+;+%+#+*+!+&+*+&+#+*+*+*+!+*+*+&+&+!+*+*+*+*+*+*+*+*+*+-+*+*+*+*+#+*+*+*+*+!+&+*+&+#+&++",
"++@:@l@K@K@J@:@K@]@<+M@}+U@0@a@b#<#[@d+/+4+(+;+%+#+#+*+*+*+*+*+*+*+#+#+*+*+*+*+*+#+&+*+-+#+*+*+-+*+-+#+!+*+*+*+*+*+*+*+*+*+*+*+*+=++",
"++@:@:@:@:@J@l@:@]@<#}@}@|#|+y+6#1+A@1+]+4+(+$+)+u+#+&+*+#+#+*+*+*+#+#+*+*+*+#+&+*+#+=+@+*+*+:+!+:+*+*+!+&+*+*+&+#+#+*+&+*+#+#+*+*++",
"++@:@:@J@:@J@:@:@]+Y@^+F+N#2@(#3+0+[+B#4+W+(+_+;+%+#+:+=+*+*+#+*+*+#+*+*+=+*+#+*+*+#+*+!+#+-+*+*+*+*+@+*+-+*+*+&+*+-+*+:+=+*+*+#+*++",
"++@:@J@K@:@:@K@l@]+Y@^@>#5#6+p+q@!+|+b+C+D+>+_+;+%+#+#+*+*+&+*+*+*+*+*+!+*+*+*+*+*+*+*+!+#+*+*+*+#+-+*+*+*+*+*+!+*+&+*+#+*+*+&+*+*++",
"++@:@:@K@J@l@:@K@]+Y#7@++G#8+I+J#9+K+1@*@=+4+,+5+%+#+#+*+*+*+*+#+*+*+*+*+#+*+*+&+*+#+*+*+*+*+#+*+*+*+*+*+*+*+*+*+*+*+*+:+*+*+*+*+=++",
"++@8@l@:@J#)@:@:#0@-@L@x+v+x#a#b#c#<#d@d#e+4+l+5+)+#+#+#+*+*+!+*+*+*+#+:+*+#+#+*+*+*+*+!+!+*+#+:+*+*+#+!+#+*+*+!+*+#+*+*+#+*+*+!+*++",
"++@8#)@:@K#)@:@K@:#f#g#h@}+N#i+O+P#j+a+b+C+D+l+_+;+%+#+#+*+*+*+*+*+*+*+=+*+*+=+*+&+*+!+*+:+*+*+*+*+*+*+*+*+*+*+:+#+*+*+*+*+*+*+*+=++",
"++@8@:@J@K@:#)@:@J@]@9#k#l#5#m+p@)#9@z+1@*+3+{+(+5+;+#+#+*+*+*+*+*+*+*+*+*+*+*+#+*+*+*+*+*+-+*+*+*+*+*+*+*+-+*+#+*+*+*+*+*+*+*+*+*++",
"++@8@:#)@J@l@:@:@K@K+R#n@++T@n@o+y+6#<+[#o#4+D+>+,+)+#+#+#+*+*+*+*+*+@+*+#+*+*+*+*+&+*+*+*+*+*+*+*+*+*+*+*+*+!+*+*+&+#+*+!+*+*+*+*++",
"++@:@:@l@J@:@K#)@l@:#f@9#p@}+N#2@(+q+r#q+1@*+/+{+>+$+)+#+#+#+!+&+*+&+*+*+*+&+*+:+#+&+=+*+*+*+*+*+*+*+*+*+*+*+*+=+=+&+#+#+&+*+*+!+*++",
"++@:#r@:@:@J@J@:@K@J@]+Y@;@>#s#8@$#b#c#<+A+B#4+D+>+(+$+)+#+#+@+!+*+*+*+#+*+*+#+!+*+*+&+-+*+*+*+#+#+*+*+*+*+*+*+-+*+*+*+*+!+*+*+@+*++",
"++@:@:@:@K@l@K@:@J@:@]+Y@X@x@}+U#2@(+q+r@z+s@*+k#t+>+_+5+#+#+#+#+*+*+*+*+*+*+*+:+*+#+*+:+*+*+*+=+*+*+*+*+*+*+*+#+*+#+*+#+*+*+@+#+&++",
"++@:@:@K@J@:@K@l#u@K@:#0#g@^@>+G#8@$#b#c+z+[+b+c+3+4+(+5+;+#+#+#+*+*+*+*+*+*+*+*+*+*+*+*+*+*+*+*+*+*+*+*+#+*+*+!+*+&+*+*+*+*+*+*+*++",
"++@:@:@:@K@l@J@:@J@J@l@:+R#n@x@m+U#2+O#v#9+K#[+B#4+D+{+(+5+;+u+#+#+*+*+*+*+*+*+:+*+&+#+@+*+&+#+*+&+*+*+*+*+*+*+=+#+&+@+#+*+*+*+#+*++",
"++@:@J@:@K@:@:#)@l@K@:@:#0#w@^@>+G@#+m+y#3#j#x+s+2+k+D+>+(+5+)+#+u+#+*+!+*+*+*+!+:+*+:+*+*+*+@+#+*+#+*+*+&+*+*+!+&+!+*+:+*+*+#+#+#++",
"++@:@:@:@:@:#u#)#)@J@J@J@]+Y+S@x@}+w#6+I@%@b+z+a#y@*+k+W+4+(+5+;+;+#+#+#+#+*+*+@+#+#+!+@+#+*+*+=+#+*+*+=+*+*+*+=+*+#+#+#+#+#+#+#+#++",
"++++@:@K#u@J@:@:@:@:@:@:@:#0#w#n@++T+U#2+p@)+h#<+[#z@*+k+D+4+(+,+5+%+%+%+#+#+*+*+*+*+&+*+*+*+*+#+*+@+&+*+&+*+*+*+#+#+#+u+#+#+#+#+&++",
"++++@K#)@:@K@J@K@l@J#)#)@J@:@-#w@[+F+G@##|#A+q#9+i+A#z@*+k+D+4+l+(+5+)+)+u+#+#+#+#+&+#+&+#+#+*+*+!+*+=+*+#+#+#+#+#+#+)+)+)+5+5+#+@++",
"++++++@:@:@:@K@J@:@K@:@K#)@l@]+R+S+M+F#B#8+m#A+P#9+i+[#y+2#4+t+{+>+>+,+$+)+#+#+u+#+#+#+#+#+#+#+#+#+#+#+#+#+#+)+u+;+;+$+_+_+_+,+#++++",
"++++++@:@K@l@:@:@:@K@:@J#)@l@:@]+Y@L@x@m+N#m@$#C#D#9#<+a+s+B+c+t+d+{+l+_+_+5+5+;+;+;+u+u+)+)+u+u+)+)+u+u+)+;+;+5+$+,+_+(+l+l+,+-++++",
"++++++@:@:@K@:@J@:@J#)#)@:@J@J@K@-@<#E@x#F+N+H@$#A#D+h+z#x#[#z@*#4@=+D+4+>+>+,+,+5+5+)+;+)+;+)+)+)+;+;+;+5+5+,+,+>+>+4+4+D+D+;++++++",
"++++++@:@l@J@K@J@:@:@l@l@J@:@:@K#0+R#g#k@>+T+N#m+m#A#G@b#j+K+[+s+B@*#4+3+d+4+{+>+_+(+(+_+'+'+,+,+,+,+(+(+(+>+>#H+{+D+/+]+C+d+(++++++",
"++++++++@:@:@K@l#)@:#u@J@J@:@:@J@:#0+Y#w#E@>@m+N#8#|+p@%#3#9#I@z+A+1+B@*#4#e@=+D+W+{+4+l+l+l+>+l+l+>+4+4+4+W+t+/+]+C+2@d+2+/++++++++",
"++++++++++@l@K@:@K@K@l#)#)@:@J@K@:@K@]+R#g#k@x@m#B@##2+I+y#v#c+r#<#q+[+s+b@d@*+C#4+]+/@=+t+t+t+t+3+3@=+/+]+C+C@*+B+b+}+A@d+,++++++++",
"++++++++++@:@8@:@K@:@l@l@:@:@:@:@:@:@:#0+Y#g#k@x+F+G+U#6+m+O#b+q#c+r#<@z+a#d+1#z+B@1@d+2@*+c+C+C@*@*+2@d#o#J#z#K+A+|@z+|+{++++++++++",
"++++++++++++@:@8#u@:@l@J@:@J@:@8@8@:@:@J#0+Y@9#n+M+F+T+w@##2@$@(#b+q+6#9#j#<+K+|+[+A#[+}+s+1+s+1+1+}+}+A+A+[+|+K#<@_+Q+2+l++++++++++",
"++++++++++++++@:@:@:@K#r@:@:@:@:@8@:@:@J@:@]#f+R#n#p@+@}+G@|#8#2@$@(+y#L+P#c#9+r+0#1#<+i+K@z#x@z@z+i+i#<#I+0#M@&+8+P#N+3++++++++++++",
"++++++++++++++@:@:@K@:@J@l@:#)@J@:@J@J@J@:@:@:#0+Y#w#n#h@>@m+G+U#8#2@o#O+O#b+J+q+P+6@b+h+h+h#9#9+h+h@b#c+8+P@)@%#C#P@_++++++++++++++",
"++++++++++++++++@:@:@K@K@:@8@:@:@:@l@:@:@:@:@:@l#0#f#w@X@^@x@>@}+G+N@n#m#i#a+e+p@(+y#Q@p@N@N@%@N@N@N@p@a+f@(@'+I#a+O++++++++++++++++",
"++++++++++++++++++@K@:@J@:@:@:@K@:@:@J@K@:#r@J@l@l@K#0+Y+R@L@;@x@>@}+T#5+N+x#8#6#2@0@0@o@$@$@$@$@$@y@o@0#R+o+H#8+H++++++++++++++++++",
"++++++++++++++++++++@:@K#u@J#)@J@:@:@J@K@:@J@:@:@K@:@K@]@]+R#w+S@^#p@+#l@}+T#s@,+N@|@n@n@#@#@#@#@#@#@n@n@|+N#5#S++++++++++++++++++++",
"++++++++++++++++++++++@K@:#r@J#)@8#r#)@8@:#r@:@:#)@8@:@:@J@:#0+R+R@<+S#k#h@x@+@>+F@}@}+v+v+v+T+v+T+T@m@}+F#T#U++++++++++++++++++++++",
"++++++++++++++++++++++++@:@:@:@:@J@:@:@:@l#)@K@:@:@K@J@:@J@:@J#0#0#f+R@<#g@L#7@^@;#h+M@x@x@+@+@+@+@x+M+M@+#V++++++++++++++++++++++++",
"++++++++++++++++++++++++++@:@l@8@8#u@J@:@K@:@:@:@K@:@:@l#u@:@:@l@K@K@K#0#f#f+R+Y+R@<@<@<@<#n@X@X+S@9@9#7@+++++++++++++++++++++++++++",
"++++++++++++++++++++++++++++++@:@:@:@J@:@:@K@:@J@J@:@:@:@J@l@:@:@K@J@K@:@:#0@]#0#0@]@]+R+Y+Y+R+Y+R+Y#g++++++++++++++++++++++++++++++",
"++++++++++++++++++++++++++++++++@:@:@:@J@J@8@J@:#u@J@J#r#u@:@:@8@l#)#u@:@J@:@J@:@:@J@:@K@:@:@:#0@-+X++++++++++++++++++++++++++++++++",
"++++++++++++++++++++++++++++++++++++@:@:@K@:@J@:@J#u@J#u@:@K@:@K@K@K@J@J@K@:@:@K@l@J@8@J#)@K@:@:++++++++++++++++++++++++++++++++++++",
"++++++++++++++++++++++++++++++++++++++@:@:@:@:@:@:@:@J@:@l@:@:#)@K@K@J@:@K@J@l@:@K@J@:@:@:@:@:++++++++++++++++++++++++++++++++++++++",
"++++++++++++++++++++++++++++++++++++++++++++++@K@:@:@:@:@:@:@l@:@:@:#)@l@:@J#)@:@:@:@K++++++++++++++++++++++++++++++++++++++++++++++",
"++++++++++++++++++++++++++++++++++++++++++++++++++@:@:@:@:@:@8@8@8@8@8@8@:@:@:@:@:++++++++++++++++++++++++++++++++++++++++++++++++++",
"++++++++++++++++++++++++++++++++++++++++++++++++++++++++++++++++++++++++++++++++++++++++++++++++++++++++++++++++++++++++++++++++++++"};
