/* XPM */
static char * ball_red_xpm[] = {
"66 66 233 2",
"#r c #136BAF",
"#q c #136CB0",
"#p c #126FB4",
"#o c #1473BD",
"#n c #1680CF",
"#m c #167ECC",
"#l c #167ECE",
"#k c #1479C6",
"#j c #1680D2",
"#i c #157FCF",
"#h c #136DB1",
"#g c #1478C3",
"#f c #1789DE",
"#e c #1684D8",
"#d c #1478C5",
"#c c #157ECC",
"#b c #1684D7",
"#a c #1267A9",
"#0 c #126EB3",
"#9 c #1373BB",
"#8 c #1169AD",
"#7 c #1685D9",
"#6 c #167FD0",
"#5 c #1579C6",
"#4 c #1372B9",
"#3 c #136EB4",
"#2 c #1681D4",
"#1 c #1472BB",
"#| c #1888DD",
"#} c #126BAE",
"#[ c #1269AB",
"#< c #1372BA",
"#: c #136FB4",
"#_ c #1683D5",
"#( c #1473BC",
"#/ c #116AAD",
"#^ c #1680D0",
"#] c #1167A6",
"#{ c #1D8EE5",
"#~ c #2291E5",
"#! c #1A8DE4",
"#) c #3D9FE8",
"#' c #5BADEC",
"#, c #60B0EC",
"#> c #46A3E9",
"#; c #2B96E6",
"#- c #1166A6",
"#= c #2090E5",
"#* c #45A2E9",
"#& c #8DC6F1",
"#% c #C2E1F7",
"#$ c #CAE4F8",
"## c #A1D0F3",
"#@ c #58ACEB",
"#+ c #2794E6",
"@Z c #1475BE",
"@Y c #2995E6",
"@X c #75BAEF",
"@W c #D6EAF9",
"@V c #F7FAFD",
"@U c #F9FCFD",
"@T c #E4F1FB",
"@S c #97CBF2",
"@R c #389CE8",
"@Q c #1888DF",
"@P c #3098E7",
"@O c #8BC5F1",
"@N c #E7F3FC",
"@M c #FCFDFE",
"@L c #FEFEFE",
"@K c #F2F8FD",
"@J c #AFD7F5",
"@I c #42A1E9",
"@H c #1D8FE5",
"@G c #1370B8",
"@F c #1168AB",
"@E c #1167A7",
"@D c #1166A7",
"@C c #2A95E6",
"@B c #77BBEF",
"@A c #D7EBFA",
"@z c #F7FBFD",
"@y c #FAFCFD",
"@x c #E5F2FB",
"@w c #99CCF3",
"@v c #399CE8",
"@u c #1B8EE4",
"@t c #1681D2",
"@s c #1267A6",
"@r c #2191E5",
"@q c #94C9F2",
"@p c #C8E4F8",
"@o c #D0E7F9",
"@n c #A7D3F4",
"@m c #5CAEEC",
"@l c #2894E6",
"@k c #1578C4",
"@j c #126DB1",
"@i c #1167A9",
"@h c #2693E6",
"@g c #40A0E8",
"@f c #5FAFEC",
"@e c #65B2ED",
"@d c #48A4E9",
"@c c #2C96E6",
"@b c #1C8EE5",
"@a c #178CE3",
"@0 c #1683D6",
"@9 c #157CCA",
"@8 c #1577C3",
"@7 c #1474BC",
"@6 c #1268AA",
"@5 c #1266A6",
"@4 c #1A8DE5",
"@3 c #1E8FE5",
"@2 c #2392E5",
"@1 c #2592E5",
"@| c #1F90E5",
"@} c #1B8EE5",
"@[ c #1685DA",
"@< c #157BC9",
"@: c #136FB6",
"@_ c #126CB1",
"@( c #1269AD",
"@/ c #1168AA",
"@^ c #1266A7",
"@] c #1267A7",
"@{ c #157BC8",
"@~ c #126FB5",
"@! c #1169AC",
"@) c #1167A8",
"@' c #167ECD",
"@, c #157AC6",
"@> c #1475C0",
"@; c #126EB4",
"@- c #126BAF",
"@= c #1267A8",
"@* c #1888DE",
"@& c #1785DB",
"@% c #1783D7",
"@$ c #1479C5",
"@# c #1474BE",
"@@ c #1371B8",
"@+ c #136DB3",
"+Z c #126AAE",
"+Y c #1169AB",
"+X c #1268A9",
"+W c #1785D9",
"+V c #1374BD",
"+U c #1370B6",
"+T c #126DB2",
"+S c #1268AB",
"+R c #1168A9",
"+Q c #1788DF",
"+P c #1786DC",
"+O c #157ECE",
"+N c #157AC8",
"+M c #1476C1",
"+L c #136FB5",
"+K c #126CB0",
"+J c #126AAD",
"+I c #1269AC",
"+H c #178CE4",
"+G c #1579C5",
"+F c #1371B9",
"+E c #136EB3",
"+D c #126BB0",
"+C c #116AAE",
"+B c #1889DF",
"+A c #1787DC",
"+z c #1784D9",
"+y c #1682D5",
"+x c #167FCF",
"+w c #1477C3",
"+v c #1370B7",
"+u c #136EB5",
"+t c #136DB2",
"+s c #178BE4",
"+r c #188AE0",
"+q c #1683D7",
"+p c #1681D3",
"+o c #157ECD",
"+n c #157AC7",
"+m c #1476C0",
"+l c #1372BB",
"+k c #1373BC",
"+j c #1474BD",
"+i c #178AE1",
"+h c #1788DD",
"+g c #1785DA",
"+f c #1680D1",
"+e c #157DCB",
"+d c #1478C4",
"+c c #1477C2",
"+b c #1475BF",
"+a c #1789DF",
"+0 c #1786DB",
"+9 c #1784D8",
"+8 c #167FCE",
"+7 c #157DCC",
"+6 c #1479C4",
"+5 c #157CC9",
"+4 c #1889E0",
"+3 c #1889DE",
"+2 c #1786DA",
"+1 c #1784D7",
"+| c #1682D3",
"+} c #1783D6",
"+[ c #1682D4",
"+< c #1887DC",
"+: c #188DE4",
"+_ c #188BE4",
"+( c #178BE2",
"+/ c #188AE2",
"+^ c #1789E0",
"+] c #1788DE",
"+{ c #1787DD",
"+~ c #178AE0",
"+! c #1787DB",
"+) c #178AE2",
"+' c #188BE2",
"+, c #188AE1",
"+> c #188BE3",
"+; c #188DE5",
"+- c #188CE5",
"+= c #198CE4",
"+* c #198CE5",
"+& c #198DE4",
"+% c #188CE3",
"+$ c #178BE3",
"+# c #188CE4",
"+@ c #198DE5",
"++ c None",
"++++++++++++++++++++++++++++++++++++++++++++++++++++++++++++++++++++++++++++++++++++++++++++++++++++++++++++++++++++++++++++++++++++",
"+++++++++++++++++++++++++++++++++++++++++++++++@+#+$+#+#+%+#+&+*+=+=+@+&+&+@+-+&+;+&+@++++++++++++++++++++++++++++++++++++++++++++++",
"+++++++++++++++++++++++++++++++++++++++++++;+>+,+'+'+)+$+#+#+*+#+@+@+@+#+@+@+#+#+@+@+@+@+;++++++++++++++++++++++++++++++++++++++++++",
"+++++++++++++++++++++++++++++++++++++++!+~+{+{+]+^+/+(+>+_+#+:+#+*+*+*+@+@+@+*+&+@+#+@+=+&+@+@++++++++++++++++++++++++++++++++++++++",
"+++++++++++++++++++++++++++++++++++<+[+}+|+1+2+3+4+/+>+>+#+#+@+@+@+@+@+@+@+*+@+@+*+@+@+@+@+@+@+@+@++++++++++++++++++++++++++++++++++",
"+++++++++++++++++++++++++++++++5+6+5+7+8+[+9+0+a+,+/+$+_+#+#+#+-+@+@+@+@+@+@+*+=+@+=+#+*+@+&+#+@+;+&+;++++++++++++++++++++++++++++++",
"+++++++++++++++++++++++++++++++b+c+d+e+f+}+g+h+4+i+>+>+#+#+&+=+=+#+@+@+#+@+@+@+:+=+*+&+@+@+@+*+#+@+#+@+@++++++++++++++++++++++++++++",
"+++++++++++++++++++++++++++j+k+l+m+n+o+p+q+0+]+r+)+>+s+#+#+@+@+@+@+@+@+@+@+@+@+@+#+#+#+*+#+*+@+-+#+@+@+;+@+&++++++++++++++++++++++++",
"+++++++++++++++++++++++++t+u+v+j+w+5+x+y+z+A+B+,+'+>+s+#+*+@+@+@+@+&+=+@+&+&+*+@+@+@+&+@+@+@+@+#+@+@+&+@+&+@+*++++++++++++++++++++++",
"+++++++++++++++++++++++C+D+E+F+b+G+e+f+q+g+]+^+)+>+$+H+#+@+:+#+#+@+@+#+#+#+@+@+=+:+=+#+=+#+#+@+@+:+@+;+@+#+@+&+@++++++++++++++++++++",
"+++++++++++++++++++++I+J+K+L+l+M+N+O+p+9+P+Q+i+'+>+s+s+#+#+@+-+#+@+@+@+:+=+@+@+;+=+@+@+:+&+#+*+:+*+#+=+#+@+@+=+:+@++++++++++++++++++",
"+++++++++++++++++++R+S+J+T+U+V+w+5+x+y+W+{+B+,+$+>+s+#+#+:+#+#+#+#+#+#+#+-+@+*+@+@+@+:+&+#+#+#+:+-+#+#+#+#+@+@+@+@+*++++++++++++++++",
"+++++++++++++++++X+X+Y+Z@+@@@#@$+e+f@%@&@*+r+'+>+#+#+#+@+@+@+#+@+*+*+@+@+@+@+@+@+*+@+#+#+#+@+#+#+#+@+@+@+*+@+*+@+*+@+&++++++++++++++",
"++++++++++++++@=@=+X+I@-@;+F@>@,@'+p+9+0+3+,+'+$+_+#+&+#+#+#+@+@+@+@+#+@+#+@+#+@+#+@+@+=+=+#+@+@+@+@+#+@+@+*+@+@+#+&+@++++++++++++++",
"++++++++++++++@=@)+X@!+D@~+l+M@{+8+[+z+A+B+i+(+$+%+#+@+@+@+@+=+@+@+@+@+@+@+@+@+@+#+#+@+:+-+#+@+@+#+@+@+@+*+*+#+:+-+@+@+@++++++++++++",
"++++++++++++@]@^@)@/@(@_@:+k+c@<+x+y@[+{+4+)+>+$+#+#+=+#+&+#+#+@+@+@+@+=+@+@+@+@+@+@+&+*+&@}@|@1@2@3@4+#+#+@+#+*+:+@+@+=+;++++++++++",
"++++++++++@]@5@]@)@6+J@_+U@7@8@9+f@0+g+]+r+)+$@a+$+#+#+@+;+@+@+@+@+@+@+@+@+@+@+#+@+@+@+#@b@c@d@e@f@g@h@4+#+@+#+#+#+;+@+#+@++++++++++",
"++++++++++@]@]@]@i@6+J@j+v+j@k@9+f+}+2@*+r+/+$+#+#+#+@+@+@+-+-+@+@+@+@+=+=+@+:+@+@+&+@+@@l@m@n@o@p@q@d@r+&+@+@+=+@+@+@+@+;+@++++++++",
"++++++++@]@s@^@]+X@6+Z+T+v@#+G+e@t@%+0+]+,+)+$+s+#+:+#+-+@+@+#+#+@+@+@+#+#+@+#+#+-+@+@@u@v@w@x@y@z@A@B@C+&+@+#+#+#+@+:+#+-+@++++++++",
"++++++@]@]@D@E@]+R@F+Z+t@G@#+G+7@t+q+0+]+,+'+>+#+#+@+&+#+#+#+@+@+@+*+@+@+*+#+#+&+@+&+@@H@I@J@K@L@M@N@O@P@4+@+@+@+@+@+@+&+#+@+@++++++",
"++++++@]@]@]@]@]+R@F+Z+t@@@#+G+7@t+1+P@Q+,+'+>+%+#+@+@+@+@+*+@+@+@+@+@+@+=+*+@+@+@+*+*@}@R@S@T@U@V@W@X@Y+@+@+@+@+*+*+@+@+@+@+@++++++",
"++++++@]@D@]@]@]+R+S+Z+t@@@Z+G+7@t+1+P@Q+,+'+$+$+#+@+@+@+#+#+#+*+@+@+#+#+@+@+@+@+@+@+@+&#+#@###$#%#&#*#=+@+@+*+#+#+#+@+@+@+#+@+;++++",
"++++++@]#-@]@D@E+R@F+Z+t@@@#+G+7@t@%+0@*+,+(+$+#+#+@+:+#+#+#+#+:+#+#+-+#+@+#+-+:+#+@+#+#@}#;#>#,#'#)@1#!+@+@+#+:+@+@+@+:+#+#+#+@++++",
"++++@D@]@]@]@D@]+X@6+Z+t+v@#+G+e@t+q+0@*+,+)+>+%+#+@+@+@+#+@+@+#+#+#+@+@+&+*+@+#+@+@+@+@+@@4@3#~@r#{+@+#+@+@+#+@+@+#+@+@+@+#+@+@+@++",
"++++@]@]#]@]@D@]+X@6+Z+t+v+j@k@9+f+}+0@*+r+)+>+>+#+@+#+&+*+&+#+@+@+@+#+@+@+=+&+#+@+@+@+@+@+*+@+@+@+-+@+@+@+*+#+@+@+@+@+#+&+*+&+#+&++",
"++@]@]@E@E@E@]@E@)@/+J@_+U@7@8@9#^@0+g+]+r+/+>+>+#+#+@+*+@+@+@+*+@+#+#+*+@+@+*+@+#+&+@+-+#+@+@+-+@+;+:+#+@+@+@+@+@+@+@+@+*+@+@+@+;++",
"++@]@]@]@]@D@]@]@)@/#/@_+U#(+w+5#^#_@[+{+4+/+$+$+s+#+&+@+#+#+@+@+@+#+:+@+@+@+#+=+@+#+-+@+@+@+&+#+=+@+@+#+&+@+@+&+#+#+@+&+@+#+#+@+@++",
"++@^@]@D@]@E@]@]@)+X@!+D+L+l+M@{+8+[+z+A+B+/+)+>+%+#+=+-+@+@+:+@+*+#+@+@+-+@+#+@+@+#+*+#+#+;+@+@+@+@+@+@+-+*+@+=+@+;+*+=+-+@+@+:+@++",
"++@]@D@E@]@]@E@]@)+X@!@-#:#<+m+n@'+p+9+A+B+,+)+>+>+#+#+@+@+&+@+@+@+@+*+#+@+@+@+@+*+*+@+#+#+@+@+@+#+;+@+@+@+@+@+#+@+=+@+#+@+@+&+@+@++",
"++@]@]@D@E@^@^@E@)+X#[#}+E@@+b+G+7+f@%+0@*+r+'+>+>+#+#+@+*+@+@+#+@+@+*+@+:+*+*+&+@+#+@+@+@+@+#+@+@+*+@+@+@+@+@+@+@+@+@+=+@+*+@+@+;++",
"++@s@^@]@D#-@]@]@=@=@F+Z+t+v+j+d@9#^#_+g#|+4+i+>+$+#+#+:+@+@+#+@+@+@+#+=+@+#+#+@+@+@+@+#+#+@+#+=+@+@+#+#+#+@+@+#+@+#+@+@+:+@+@+#+@++",
"++@s#-@]@E#-@]@E@]@)@6@(@_+L#1+M@{+O#2+9+P@Q+i+)+>+%+#+#+@+@+@+@+@+@+@+-+@+@+-+@+&+@+#+@+=+@+@+@+@+@+@+@+@+@+@+&+#+@+@+@+@+@+@+@+;++",
"++@s@]@E@E@]#-@]@E@)@6+I+D#3#4@>#5+7@t+1+0@*+^+/+>+>+#+#+@+@+@+@+@+*+@+@+*+@+@+#+@+*+@+@+*+;+*+@+@+@+@+@+*+;+@+#+@+@+@+@+@+@+@+@+@++",
"++@s@]#-@E@]@]@]@E@E+R+S+Z+T+v+j+w+5#6+[#7+A+B+,+/+$+#+#+#+@+@+*+*+*+@+@+#+*+*+@+@+&+@+@+*+*+@+@+@+@+@+@+@+*+#+@+*+&+#+@+#+@+@+@+*++",
"++@]@]@]@E@]@D#-@]@]@)@6#8@_+L#9+M+n+o+p+1+0+]+^+,+$+$+#+#+#+#+&+@+&+@+@+*+=+@+&+#+=+-+*+@+@+@+@+@+*+@+@+@+@+@+-+-+=+:+:+&+@+@+#+@++",
"++@^@5@]@]@E@E@]@E@D@)+X+I@-#0@@@#+d@9#6+y+W+A+B+,+/+$+$+#+#+*+#+@+@+@+#+@+@+#+#+@+@+=+-+@+@+@+#+#+@+@+*+@+@+@+-+@+@+@+*+#+@+@+*+@++",
"++@]@]@]@D@]@D@]@D@]@)#a@F+Z@j+U#9+M+n+o@t#b@&+{+a+,+(+>+_+#+#+#+*+*+*+@+@+@+*+&+@+#+@+=+@+@+@+-+@+*+@+@+@+*+@+:+@+#+@+:+*+*+@+:+&++",
"++@]@]@D@E@]@E@]#]@E@]@=@6@!@-+E@@@#+d@9+x+[+9+0+3+r+/+>+>+#+#+#+@+@+@+@+@+*+@+@+*+@+@+@+@+@+@+@+@+*+@+@+#+@+@+#+*+=+@+@+@+@+*+@+@++",
"++@]@]@]@E@]@D@]@E@D@^@]@i+S+Z@_+U#9+M@,#c+f@0+W+P+B+~+/+>+>+H+#+#+@+@+@+@+@+*+=+@+=+#+*+@+&+#+@+&+@+@+@+@+@+@+-+#+=+*+#+@+*+@+#+@++",
"++@]@E@]@E@]@^#-@]@D@]@]@=@/@!@-+E@@+j+w@{+O@t+q+g+h+B+,+/+>+$+_+s+#+@+#+@+@+@+:+=+*+&+@+@+@+*+#+@+#+@+@+=+@+@+#+=+#+@+&+@+@+#+#+#++",
"++@]@]@]@]@]#-#-#-@D@D@E@)#a+S+Z@_+L#<+b#d@9+x+[#e+0+h+B+r+/+>+>+>+#+#+#+#+@+@+@+#+#+#+*+#+*+@+-+#+@+@+-+@+*+@+-+@+#+#+#+#+#+#+#+#++",
"++++@]@E#]@E@]@]@]@]@]@]@]@=@/#[+Z+T+U#9+m#5+e#6+[#e+0+h+B+r+/+/+>+%+%+>+#+#+*+@+@+@+&+@+@+@+@+#+@+@+&+@+&+@+@+@+#+#+#+s+#+#+#+#+&++",
"++++@D#]@]@E@D@D@]@D#-#-@D@]@=@/@(+D+E@@#(+c+n#c+f+y#e+0+h+B+r+i+/+>+$+$+H+#+#+#+#+=+#+=+#+#+@+@+:+@+;+@+#+#+#+#+#+#+$+$+$+>+>+#+@++",
"++++++@]@]@]@D@D@]@E@]@D#-@^@)+R+S+J+K#3@@+j+c@{+7+f+[#e+g+A#f+^+,+,+/+$+$+_+#+H+#+#+#+#+#+#+#+#+#+#+#+#+#+#+$+H+>+>+$+)+(+)+'+#++++",
"++++++@]@D@]@]@]@]@D@^@E#-@^@^@)+X+Y+Z@_+L#4@##g+n#c#6+[+q+W+0+]+a+^+i+)+)+>+>+>+>+>+s+H@a@a+s+s+$@a+s+H+$+>+>+>+$+'+)+/+i+i+'+;++++",
"++++++@]@]@E@]@E@]@D#-#-@]@E@D@E@=@/@!+Z#h+L+F@#+c+n+e+x@t@0#e@&+A@*+B+r+,+,+/+'+>+>+$+>+$+>+$+$+$+>+>+>+>+>+'+'+,+,+r+4+B+B+>++++++",
"++++++@]@^@D@E@D@]@]@]@^@E@]@]@E@=@i@6+I@-+T+L#4+j+c#5@9+O+f+[#b+W+0+A@*+a+4+~+,+)+/+/+)+)+)+'+'+'+'+/+/+/+,+,+r+^+B+]+{+A+a+/++++++",
"++++++++@]@]@E@^#-@]#-@D@D@]@]@D@]@=#a@/@!@-@j+L@@#(+m@$@{#c#i@t+y+1+W+0+A#|@*+B+B+^+r+i+i+i+,+i+i+,+r+r+4+B#f+]+{+P+g+g+g+]++++++++",
"++++++++++@^@E@]@E@E@]#-#-@^@D@E@]@E@)@i@6+I+Z@_#3@@#9+b+w@,@9+o#6+p+[+q+9+g+0+A+A+{+]@*+]+]+]+]@*@*@*+]+{+A+P+0+W+9+}#_+g+'++++++++",
"++++++++++@]@5@]@D@]@^@^@]@]@]@]@]@]@]@=#a@6+I+Z+K+E+U#<+j+M+d+n@9+o#6@t#2#_@%#e+z@[+g+g@&+0+P+P+0+0+2+g#7+9#e@0+y+|#j+p+^++++++++++",
"++++++++++++@]@5#]@]@]@D@]@D@]@s@s@]@]@D@=#a@6#[+J+D+T+L@@#9@#+M+d+n+5+7+O#^+f+p+[+y@0+}+q@%#b+1@%+}+}#_+y+[+p+f#6+8+O+2+i++++++++++",
"++++++++++++++@]@]@]@D@5@]@]@]@]@s@]@]@D@]@)@)+R+S#8+Z@_+E@:@@#9@#+M+w#k@{@9+7+o+8#6#^+f+f#j@t@t#j+f+f#^#i#l#m+e+5@{#n+3++++++++++++",
"++++++++++++++@]@]@E@]@E@]@]#-@D@]@D@D@E@]@]@]@=#a@/#[+J@-@_+E+U@@#9+j+b+M+d+G+n@{+5@9+e+e+e+7+7+e+e@9@9@<@{#5#d#g@$+8++++++++++++++",
"++++++++++++++++@]@]@E@E@]@s@]@]@]@]@]@]@]@]@]@]@=@)@/@F@!+Z@-@j+E+L+v#4#1+j+b+m+M+w@8@k+G+G@$+G+G+G@k@8+c+M@>+b+j+M++++++++++++++++",
"++++++++++++++++++@D@^@E@]@]@]@D@]@]@D@E@]@s@D@^@^@E@=#a+R@F+I+Z@-@_+T#3+L+v@@#<+l#(#(#o@#@#@#@#@#@##o#(+k+l+F@@#4++++++++++++++++++",
"++++++++++++++++++++@]@D#]@D#-@E@]@]@D@E@]@D@^@]@E@]@D@)@)@i@/+S@!#8+Z+D@_+T#0#p+L+U+v+v@G@@@@@@@G@G+v+v@:+L#:+U++++++++++++++++++++",
"++++++++++++++++++++++@D@]@5@D#-@5@5#-@s@]@5@]@]#-@s@]@]@D@]@=@i+R@/+S+I@(+Z#}@-+D@_@_+t+t+t+T+t+T+T@_@_+K#q#h++++++++++++++++++++++",
"++++++++++++++++++++++++@]@]@]@]@E@]@]@]@^#-@E@]@]@E@D@]@E@]@D@=@=@)+R@/@6@F#[@!+I+J+J+Z+Z+Z+Z+Z+Z+Z+J+J+Z#r++++++++++++++++++++++++",
"++++++++++++++++++++++++++@]@]@s@s#-@D@]@E@]@]@]@E@]@]@]#]@]@]@]@E@E@E@=@)@)+R+X+R@/@/@/@/+S@F@F+S@6@6#[+Z++++++++++++++++++++++++++",
"++++++++++++++++++++++++++++++@]@]@]@D@^@]@E@^@D@D@]@]@]@D@^@]@]@E@D@D@]@]@=@)@=@=@)@)@i+X+X@i#a@i+X@6++++++++++++++++++++++++++++++",
"++++++++++++++++++++++++++++++++@]@]@]@D@D@s@E@]#]@E@D@s#]@]@^@s@]#-#]@]@D@]@E@]@]@D@]@E@]@]@]@=@=+X++++++++++++++++++++++++++++++++",
"++++++++++++++++++++++++++++++++++++@]@]@E@]@D@]@E#]@D#]@]@E@]@E@D@E@E@D@E@]@]@E@]@E@s@D#-@E@]@]++++++++++++++++++++++++++++++++++++",
"++++++++++++++++++++++++++++++++++++++@]@]@]@]@]@]@]@D@]@]@]@]#-@E@E@E@]@D@E@^@^@E@D@]@]@]@]@]++++++++++++++++++++++++++++++++++++++",
"++++++++++++++++++++++++++++++++++++++++++++++@D@]@]@]@^@]@]@^@]@]@]#-@^@]@D#-@]@]@]@D++++++++++++++++++++++++++++++++++++++++++++++",
"++++++++++++++++++++++++++++++++++++++++++++++++++@]@]@^@]@]@s@s@s@s@s@s@]@]@]@]@]++++++++++++++++++++++++++++++++++++++++++++++++++",
"++++++++++++++++++++++++++++++++++++++++++++++++++++++++++++++++++++++++++++++++++++++++++++++++++++++++++++++++++++++++++++++++++++"};
