/* XPM */
static char * ball_red_xpm[] = {
"66 66 208 2",
"#3 c #A7A012",
"#2 c #AFA713",
"#1 c #B0A813",
"#| c #B3AB12",
"#} c #C4BA14",
"#[ c #CCC216",
"#< c #C6BC14",
"#: c #E1D717",
"#_ c #DACF17",
"#( c #CFC515",
"#/ c #DFD517",
"#^ c #C6BC15",
"#] c #B2AA12",
"#{ c #E3D718",
"#~ c #B1A913",
"#! c #D8CE16",
"#) c #C5BB14",
"#' c #C3B914",
"#, c #E4D917",
"#> c #B3AA12",
"#; c #C7BE15",
"#- c #D9CF16",
"#= c #A69E11",
"#* c #C8BF15",
"#& c #BBB214",
"#% c #DDD218",
"#$ c #DCD117",
"## c #BAB113",
"#@ c #B4AB13",
"#+ c #DDD317",
"@Z c #D0C616",
"@Y c #ADA511",
"@X c #D0C716",
"@W c #E5DB21",
"@V c #E5DB22",
"@U c #B2A913",
"@T c #E4D91A",
"@S c #E8DF3D",
"@R c #ECE45B",
"@Q c #ECE460",
"@P c #E9E046",
"@O c #E6DC2B",
"@N c #A69F11",
"@M c #E5DA20",
"@L c #E9E045",
"@K c #F1EC8D",
"@J c #F7F4C2",
"@I c #F8F5CA",
"@H c #F3EFA1",
"@G c #EBE358",
"@F c #E6DB27",
"@E c #A79E12",
"@D c #E6DC29",
"@C c #EFE875",
"@B c #F9F7D6",
"@A c #FDFDF9",
"@z c #FBFAE4",
"@y c #F2ED97",
"@x c #E8DE38",
"@w c #E7DD30",
"@v c #F1EB8B",
"@u c #FCFAE7",
"@t c #FEFEFC",
"@s c #FEFEFE",
"@r c #FDFCF2",
"@q c #F5F1AF",
"@p c #E9E042",
"@o c #E5DA1D",
"@n c #E4D818",
"@m c #DED417",
"@l c #A79F11",
"@k c #A79E11",
"@j c #E6DC2A",
"@i c #EFE877",
"@h c #FAF8D7",
"@g c #FDFDF7",
"@f c #FDFDFA",
"@e c #FBFAE5",
"@d c #F3EE99",
"@c c #E8DE39",
"@b c #E4DA1B",
"@a c #D2C816",
"@0 c #C5BB15",
"@9 c #A69E12",
"@8 c #E5DA21",
"@7 c #F2ED94",
"@6 c #F8F5C8",
"@5 c #F9F7D0",
"@4 c #F4F0A7",
"@3 c #ECE45C",
"@2 c #E6DC28",
"@1 c #CAC115",
"@| c #C4BB15",
"@} c #E5D91A",
"@[ c #E6DB26",
"@< c #E8DF40",
"@: c #ECE45F",
"@_ c #EDE565",
"@( c #E9E148",
"@/ c #E6DC2C",
"@^ c #E5DA1C",
"@] c #E3D917",
"@{ c #D6CC16",
"@~ c #CAC015",
"@! c #C3BA15",
"@) c #BCB314",
"@' c #B1A912",
"@, c #AAA212",
"@> c #A69F12",
"@; c #E5DA1A",
"@- c #E5DA1E",
"@= c #E5DB23",
"@* c #E5DB25",
"@& c #E5DA1F",
"@% c #E5DA1B",
"@$ c #DAD016",
"@# c #B1A812",
"@@ c #AAA211",
"@+ c #A79F12",
"+Z c #E3D918",
"+Y c #B5AC12",
"+X c #ACA411",
"+W c #A8A011",
"+V c #DED418",
"+U c #CDC316",
"+T c #C6BD15",
"+S c #B4AB12",
"+R c #AFA712",
"+Q c #A8A012",
"+P c #C5BC14",
"+O c #BEB514",
"+N c #B8AF13",
"+M c #B3AA13",
"+L c #AEA612",
"+K c #ABA311",
"+J c #A9A112",
"+I c #BDB413",
"+H c #B6AD13",
"+G c #B2A912",
"+F c #ABA312",
"+E c #A9A111",
"+D c #CEC415",
"+C c #C8BE15",
"+B c #C1B814",
"+A c #ADA512",
"+z c #ACA412",
"+y c #CBC215",
"+x c #C5BC15",
"+w c #B9B013",
"+v c #B3AB13",
"+u c #B0A812",
"+t c #AEA611",
"+s c #DFD418",
"+r c #DCD217",
"+q c #D9CF17",
"+p c #D5CB16",
"+o c #CFC516",
"+n c #C9C015",
"+m c #C3BA14",
"+l c #B7AE13",
"+k c #B5AC13",
"+j c #B2AA13",
"+i c #E4D817",
"+h c #D7CD16",
"+g c #CDC315",
"+f c #C7BD15",
"+e c #C0B714",
"+d c #BBB213",
"+c c #BCB313",
"+b c #BDB414",
"+a c #E1D617",
"+0 c #D6CC17",
"+9 c #D1C716",
"+8 c #CBC115",
"+7 c #C2B914",
"+6 c #BFB614",
"+5 c #DFD417",
"+4 c #D8CE17",
"+3 c #CEC416",
"+2 c #CCC215",
"+1 c #C4BB14",
"+| c #C9BF15",
"+} c #E0D518",
"+[ c #DED318",
"+< c #DAD017",
"+: c #D7CD17",
"+_ c #D3C916",
"+( c #D6CB17",
"+/ c #D4CA16",
"+^ c #DCD218",
"+] c #DED317",
"+{ c #DDD217",
"+~ c #E0D517",
"+! c #DBD117",
"+) c #E4DA18",
"+' c #E2D717",
"+, c #E2D718",
"+> c #E1D618",
"+; c #E5DA18",
"+- c #E5D918",
"+= c #E4D919",
"+* c #E5D919",
"+& c #E4DA19",
"+% c #E3D818",
"+$ c #E3D817",
"+# c #E4D918",
"+@ c #E5DA19",
"++ c None",
"++++++++++++++++++++++++++++++++++++++++++++++++++++++++++++++++++++++++++++++++++++++++++++++++++++++++++++++++++++++++++++++++++++",
"+++++++++++++++++++++++++++++++++++++++++++++++@+#+$+#+#+%+#+&+@+&+&+*+&+=+@+-+&+-+&+@++++++++++++++++++++++++++++++++++++++++++++++",
"+++++++++++++++++++++++++++++++++++++++++++;+%+>+,+,+'+$+#+#+*+#+@+@+@+#+@+@+#+)+@+@+@+@+;++++++++++++++++++++++++++++++++++++++++++",
"+++++++++++++++++++++++++++++++++++++++!+~+{+{+]+~+,+'+%+#+#+#+#+@+@+@+@+@+*+@+=+@+#+@+=+=+@+@++++++++++++++++++++++++++++++++++++++",
"+++++++++++++++++++++++++++++++++++^+/+(+_+:+<+[+}+,+%+%+#+#+@+@+*+@+@+@+*+*+*+@+@+*+@+@+*+@+@+@+@++++++++++++++++++++++++++++++++++",
"+++++++++++++++++++++++++++++++|+1+|+2+3+/+4+!+5+>+,+$+#+#+#+#+-+@+@+@+@+@+*+@+=+@+&+#+*+@+&+#+@+-+&+-++++++++++++++++++++++++++++++",
"+++++++++++++++++++++++++++++++6+7+1+8+9+0+<+{+}+a+%+%+#+#+=+=+=+#+@+@+#+@+@+@+#+=+@+=+@+@+@+@+)+@+#+@+@++++++++++++++++++++++++++++",
"+++++++++++++++++++++++++++b+c+d+e+f+g+_+h+!+]+}+'+%+i+#+#+@+@+@+@+@+@+@+@+@+@+*+#+#+#+*+#+@+@+-+#+@+@+-+*+&++++++++++++++++++++++++",
"+++++++++++++++++++++++++j+k+l+b+m+n+o+p+q+r+s+>+,+%+i+#+@+@+@+@+@+=+&+@+&+&+@+@+@+@+&+*+@+@+@+#+@+@+&+@+&+*+@++++++++++++++++++++++",
"+++++++++++++++++++++++t+u+v+w+6+x+y+9+h+<+]+~+'+%+$+i+#+@+#+#+#+@+*+#+#+#+@+*+=+#+&+#+=+#+#+@+@+#+@+-+*+#+*+&+@++++++++++++++++++++",
"+++++++++++++++++++++z+A+u+k+d+B+C+D+_+4+r+5+a+,+%+i+i+#+#+@+-+)+@+@+@+)+=+@+@+-+=+*+@+#+=+#+*+#+*+#+=+#+@+@+&+#+@++++++++++++++++++",
"+++++++++++++++++++E+F+A+G+H+I+m+n+o+p+q+{+s+>+$+%+i+#+#+#+#+#+#+#+#+#+#+-+@+@+@+@+@+#+=+#+#+#+#+-+#+#+#+#+@+@+@+@+@++++++++++++++++",
"+++++++++++++++++J+J+K+L+M+N+O+P+8+9+:+!+[+}+,+%+#+#+#+@+@+*+#+*+*+*+@+@+*+@+@+*+@+@+#+#+#+@+#+#+#+*+@+*+*+@+*+@+@+*+&++++++++++++++",
"+++++++++++++++Q+Q+J+z+R+S+w+e+T+U+_+4+!+V+>+,+$+#+#+=+#+#+#+@+@+@+@+#+@+#+*+#+@+#+@+@+=+=+#+@+@+@+@+#+*+@+*+@+@+#+=+@++++++++++++++",
"+++++++++++++++Q+W+J+X+u+Y+d+B+C+3+/+q+r+s+a+'+$+Z+#+@+@+@+@+=+@+@+@+@+@+@+@+@+@+#+#+@+#+-+#+@+*+)+@+@+*+@+@+#+#+-+@+@+@++++++++++++",
"++++++++++++@+@++W@@+A@#+H+c+7+|+o+p@$+{+}+'+%+$+#+#+=+#+&+#+#+@+@+@+@+=+@+@+@+@+@+*+&+@+=@%@&@*@=@-@;+#+#+@+#+@+#+@+@+=+-++++++++++",
"++++++++++@+@>@++W@,+A@'+H@)@!@~+9@{+<+]+}+'+$+$@]+#+#+@+;+@+@+@+@+@+@+@+@+*+@+#+@+@+@+#@^@/@(@_@:@<@[@}+#+*+#+#+#+;+@+#+@++++++++++",
"++++++++++@+@+@++E@,+A@'+l+b@|@1+9+0+<+[+}+,+$+#+#+#+@+@+@+-+-+@+@+@+@+=+&+*+#+@+@+&+@+*@2@3@4@5@6@7@(@8+=+@+@+=+@+*+@+@+;+@++++++++",
"++++++++@+@9@+@++J@,+L+G+l+O@0+8@a+:+!+]+>+'+$+i+#+#+#+-+@+@+#+#+@+@+@+#+#+@+#+#+-+@+*@b@c@d@e@f@g@h@i@j+&+@+#+#+#+@+#+#+-+@++++++++",
"++++++@+@+@k@l@++E+K+L+j+N+O@0+2@a+h+!@m+>+,+%@n+#+@+=+#+#+#+@+@+@+@+@+@+@+#+#+=+@+&+@@o@p@q@r@s@t@u@v@w@;+@+@+@+@+@+@+=+#+@+@++++++",
"++++++@+@+@+@+@++E+K+L+j+N+O+x+2@a+:+r+s+>+,+%+%+#+@+@+*+@+@+@+@+*+@+@+@+&+@+@+@+@+*+*@%@x@y@z@A@g@B@C@D+@+@+@+@+*+*+@+@+*+@+@++++++",
"++++++@E@l@+@+@++E+F+L+j+N+O+x+2@a+:+r+s+>+,+$+$+#+@+@+@+#+#+#+@+@+*+#+#+@+*+@+@+@+@+@+=@F@G@H@I@J@K@L@M+@+@+@+#+#+#+@+@+@+#+@+;++++",
"++++++@+@N@+@l@l+E+K+L+j+N+O@0+2@a+:+!+V+>+'+$+#+#+@+#+#+#+#+#+#+#+#+-+#+@+#+-+#+#+@+#+#@%@O@P@Q@R@S@*@T+@+@+#+#+@+@+@+#+#+#+#+@++++",
"++++@k@+@+@+@l@++J@,+L@U+l+O@0+8@a+h+!+[+>+'+%+Z+#+@+@+@+#+@+@+#+#+#+@+@+&+@+@+#+@+@+@+@+@@;@-@V@W@o+@+#+@+@+#+@+@+#+@+@+@+#+@+@+@++",
"++++@E@+@N@+@k@++J@,+L@U+l+b@|@1+9+0+!+[+}+'+%+Z+#+@+#+&+*+&+#+@+@+*+#+@+@+&+&+#+@+@+@+@+@+*+@+@+@+;+@+@+@+*+#+@+@+*+@+#+&+*+&+#+&++",
"++@+@E@k@k@l@+@l+W@@+A@'+H@)@!@~@X@{+<+]+}+,+%+Z+#+#+@+@+@+*+@+@+@+#+#+@+@+@+@+@+#+&+@+-+#+@+@+-+*+;+#+#+@+@+@+@+@+@+*+@+@+@+*+@+-++",
"++@+@+@+@+@l@+@++W@@@Y@'+H@)+m+n@Z+p@$#++}+,+$+$+i+#+=+@+#+#+@+@+@+#+#+@+@+*+#+=+@+#+-+*+@+*+=+#+=+@+@+#+=+*+@+=+)+#+@+=+@+#+#+@+@++",
"++@+@+@k@+@l@+@++W+J+X+u+k+d+B+C+3+/+q+r+s+,+'+%+%+#+=+-+*+@+#+*+*+#+@+@+-+*+#+@+@+#+@+#+#+;+@+@+@+*+@+@+-+*+@+=+@+;+*+=+-+*+@+#+*++",
"++@+@l@l@+@+@l@++W+J+X+R#@##+e+f+U+_+4#$+s+>+'+%+Z+#+#+@+@+=+@+*+@+*+@+#+*+@+*+@+@+@+@+#+#+@+@+@+#+;+*+@+@+@+@+#+@+=+*+#+@+@+=+@+*++",
"++@+@+@l@l@+@+@l+W+J+F+L+v+N+6+x+2+9+:+!+[+}+,+%+Z+#+#+@+@+@+@+#+@+@+*+@+#+@+@+=+@+#+*+@+@+@+#+@+*+@+@+@+@+@+@+@+@+@+@+=+@+@+@+@+-++",
"++@>@+@+@l@N@+@++Q+Q+K+L+j+l+b+1@~@Z+p+<#%+}+a+%+$+#+#+#+@+@+#+@+@+@+#+=+@+#+#+@+@+@+@+#+#+@+#+=+@+@+#+#+#+@+@+#+@+#+@+@+#+@+@+#+@++",
"++@>@N@+@l@N@+@l@++W@,+A@#+k#&+B#*+D+/+4+r+s+a+'+%+Z+#+#+*+@+@+@+*+*+@+-+@+*+-+@+&+@+#+@+=+*+@+@+@+@+@+@+@+@+@+=+#+@+@+@+*+*+@+@+-++",
"++@9@+@l@l@+@N@+@l+W@,+z+u#@+w+e+T+2@a+:+!+[+~+,+%+%+#+#+@+@+@+*+*+*+@+@+@+*+*+#+@+@+@+@+*+-+@+@+@+@+@+*+@+-+@+#+@+*+*+@+*+@+@+@+*++",
"++@9@+#=@l@+@+@+@l@l+E+F+L+G+l+b+m+n@Z+/#-+r+s+>+,+$+#+#+#+@+@+@+@+@+*+@+#+*+*+@+@+&+@+@+@+@+@+@+@+@+@+@+@+@+#+@+@+&+#+@+#+*+@+@+*++",
"++@+@+@+@l@+@k@N@+@++W@,@Y@#+k+d+B#;+g+_+:+!+]+~+>+$+$+#+#+#+#+&+@+&+@+@+@+&+@+=+#+&+-+*+@+@+@+@+@+@+@+@+@+@+@+-+-+&+#+#+&+@+@+#+@++",
"++@E@>@+@+@k@l@+@l@l+W+J+z+R#>+N+O+1@~@Z+p+q+r+s+>+,+$+$+#+#+*+#+@+@+@+#+@+@+#+)+@+@+=+;+@+@+@+#+#+@+@+*+@+@+@+;+@+@+@+@+#+@+@+*+@++",
"++@+@+@E@l@+@l@+@l@++W+J+K+L@'+H+d+B#;+g@a+h+!#++5+>+'+%+#+#+#+#+@+@+@+@+@+*+@+=+@+#+@+=+@+*+@+-+@+@+@+@+@+@+@+#+@+#+@+#+@+*+@+#+&++",
"++@+@+@l@l@+@l@+@N@l@++Q@,+X+R+M+N+O+1@~+o+/+4+!+[+}+,+%+%+#+#+#+*+@+@+@+*+*+*+@+@+*+@+@+*+@+@+@+*+*+@+@+#+@+@+#+@+&+@+@+*+@+@+@+*++",
"++@E@+@+@l@+@l@+@l@l@+@++E+F+L@'+H+d+B+T+2+9@{+q+r+s+~+,+%+%#,+#+#+@+@+@+@+*+@+=+@+&+#+*+@+&+#+@+&+@+@+@+@+@+@+-+#+&+*+#+@+*+@+#+@++",
"++@+@l@+@l@+@+@N@+@l@+@++Q@@+X+R+M+N+b#'+C+D@a+h+<+{+s+>+,+%+$@n+i+#+@+#+@+@+@+#+=+@+=+@+@+@+@+)+@+#+@+@+&+@+@+#+=+#+@+=+@+@+#+#+#++",
"++@+@E@+@+@+@N@N@N@l@l@l+W+J+F+L@'+k##+6#)@~+o+/#!+!+{+s+}+,+%+%+%+#+#+#+#+@+@+*+#+#+#+*+#+@+@+-+#+@+@+-+@+@+@+-+@+#+#+#+#+#+#+#+#++",
"++++@E@l@N@l@+@+@+@+@E@+@++Q@@+F+L+G+H+d+e+T+8@Z+/#!+!+{+s+}+,+,+%+Z+Z+Z+#+#+@+@+@+@+&+*+@+@+@+#+@+@+&+@+&+@+@+@+#+#+#+i+#+#+#+#+&++",
"++++@k#=@+@l@l@l@+@l#=#=@l@++Q@@+A+u+v+N@)+7+f+2+9+p#!+!+{+s+}+a+,+%+$+$+i+#+#+#+#+&+#+=+#+#+@+@+#+@+-+*+#+#+#+#+#+#+$+$+$+%+%+#+@++",
"++++++@+@+@+@l@k@+@l@+@l#=@++W+E+F+A+u#@+N+b+7+C+2+9+/#!+<+r+]+~+>+>+,+$+$+#+#+i+#+#+#+#+#+#+#+#+#+#+#+#+#+#@]#,+%+%+$+'+'+'+,+#++++",
"++++++@E@k@+@+@+@+@k@+@k@N@+@++W+J+K+L@'+k+w+O+m#;+2@Z+/+h+q+!+]+5+~+a+'+'+%+%+%+%+%+i+i+$+$+i+i+$+$+i+i+$+%+%+%+$+,+'+,+a+a+,+;++++",
"++++++@+@+@l@+@l@+@l#=@N@+@l@l@l+Q@@+X+L#~+k+w+O+7+f+8+o@a@{#!+!+r+[+s+}+>+>+,+,#{+%+$+%+$+%+$+$+$+%+%+%+%+%+,+,+>+>+}+}+s+s+%++++++",
"++++++@+@+@k@l@k@+@+@+@E@l@+@+@l+Q+E@,+z+R#]+k+w+b+7#^@~+D+9+/+h+q+!+r+[+5+}+~+>+'+,+,+'+'+'+,+,+,+,+,+,+,+>+>+}+~+s+]#++r#/+,++++++",
"++++++++@+@+@l@+@N@+@N@l@l@+@+@k@++Q+J@@+X+R@'+k+N@)+e#)+C+2#(@a+p+:+q+!+r#%+[+s+s+~+}+a+a+a+>+a+a+>+}+}+}+s+]+]+{+r+<+<+<@m++++++++",
"++++++++++@+@l@+@l@l@+#=@N@E@k@l@+@l+W+E@,+z+L@'#@+N+d+6#'+T@~+g@Z+_+/+h+4+<+!#$+r#++]+[+]@m@m@m+[+[+[+]+{+r#$+!+q+4+0+p+<+,++++++++",
"++++++++++@+@>@+@l@+@+@+@+@+@+@+@+@+@++Q+J@,+z+L+u+v+H##+b+B+1#;@~+g@Z@a+/+p+:#!+q@$+<+<+!+!+r+r+!+!+<+<#-+4#!@{+p+_@a+_+~++++++++++",
"++++++++++++@+@>@N@+@E@l@+@l@+@>@>@+@+@l+Q+J@,+F+A+u+G+k+N+d+O+B+1#;+|+2+D@Z+9+_+/+p@{+0+h+:+h+:+:+0+0+p+p+/+_+9@Z+3+D#_#:++++++++++",
"++++++++++++++@+@+@+@l@>@+@+@+@+@9@+@+@k@++W+W+E+F@Y+L@'+M+H+N+d+O+B+m#<+C@~+2+g+3@Z@Z+9+9@a@a@a@a+9+9@Z#(+3#[+8+|+C+o+[++++++++++++",
"++++++++++++++@+@+@l@+@l@+@+@N@l@+@l@k@l@+@+@++Q+J@@+F+A+R@'+M+H+N+d+b+6+B#}+x+f+C+|@~+8+8+8+2+2+8+8@1@~+|+C+T+P+m+P+3++++++++++++++",
"++++++++++++++++@+@+@l@l@+@>@+@+@+@+@+@+@+@+@+@++Q+W@@+K+X+L+R@'+M+k+l+w#&+b+6+e+B+m@!@|@0@0+P+x@0@0@|@!+7+B+e+6+b+B++++++++++++++++",
"++++++++++++++++++@k@+@l@+@+@+@l@+@+@l@l@+@>@l@+@+@l+Q+J+E+K+z+L+R@#+G#@+k+l+N##+d@)@)+b+O+O+O+O+O+O+b@)+c+d+w+N+w++++++++++++++++++",
"++++++++++++++++++++@+@l@N@l@N@k@+@+@l@l@+@k@+@+@k@+@l+W+W+E@@+F+X@Y+L+u@##]#|+S+k+H+l+l+N+N+N+N+N+N+l+l+H+k#@+H++++++++++++++++++++",
"++++++++++++++++++++++@k@+@9@k#=@9@>@N@>@+@9@+@+@N@>@+@+@l@++Q+E+E@@+F+z+A+L+L+R+u@'@'@U@U@U+G@U+G+G@'@'+u#1#~++++++++++++++++++++++",
"++++++++++++++++++++++++@+@+@+@+@l@+@+@+@+@N@l@+@+@l@l@+@l@+@l+Q+Q+W+E@@@,+K+F+X+z+A+A+L+L+L+L+L+L+L+A+A+L#2++++++++++++++++++++++++",
"++++++++++++++++++++++++++@+@+@9@9#=@l@+@l@+@+@+@l@+@+@E@N@+@+@+@l@l@l+Q+W+W+E+J+E@@@@@@@@+F+K+K+F@,@,+F+L++++++++++++++++++++++++++",
"++++++++++++++++++++++++++++++@+@+@+@l@+@+@l@+@k@l@+@+@+@l@+@+@+@l@l@l@+@++Q+W+Q+Q+W+W+E+J+J+E+J+E+J@,++++++++++++++++++++++++++++++",
"++++++++++++++++++++++++++++++++@+@+@+@k@l@>@k@+@N@k@l@>@N@+@+@>@E@N#=@+@l@+@l@+@+@l@+@l@+@+@++Q+Q+J++++++++++++++++++++++++++++++++",
"++++++++++++++++++++++++++++++++++++@+@+@l@+@l@+@l#=@l@N@+@l@+@l@l@k@l@l@l@+@+@l@+@l@>@l#=@l@+#3++++++++++++++++++++++++++++++++++++",
"++++++++++++++++++++++++++++++++++++++@+@+@+@+@+@+@+@l@+@+@+@+@N@l@l@l@+@l@l@+@+@l@k@+@+@+@+@+++++++++++++++++++++++++++++++++++++++",
"++++++++++++++++++++++++++++++++++++++++++++++@k@E@+@+@+@+@+@+@+@+@+@N@+@+@l@N@+@+@E@k++++++++++++++++++++++++++++++++++++++++++++++",
"++++++++++++++++++++++++++++++++++++++++++++++++++@+@+@+@+@+@>@>@>@>@>@>@+@+@E@+@+++++++++++++++++++++++++++++++++++++++++++++++++++",
"++++++++++++++++++++++++++++++++++++++++++++++++++++++++++++++++++++++++++++++++++++++++++++++++++++++++++++++++++++++++++++++++++++"};
