/* XPM */
static char * ball_red_xpm[] = {
"66 66 268 2",
"$+ c #12A789",
"#Z c #13AF8E",
"#Y c #13B08F",
"#X c #13B794",
"#W c #12B392",
"#V c #13BC98",
"#U c #12B18F",
"#T c #11A98A",
"#S c #16CCA5",
"#R c #14C6A0",
"#Q c #16CEA6",
"#P c #16D6AF",
"#O c #16D8AF",
"#N c #17D6AF",
"#M c #15CFA8",
"#L c #17DFB6",
"#K c #18E0B5",
"#J c #13B190",
"#I c #13B592",
"#H c #17E2B9",
"#G c #15C8A1",
"#F c #13B493",
"#E c #16D8B0",
"#D c #14C59F",
"#C c #13B594",
"#B c #15CEA6",
"#A c #14C19C",
"#z c #11AC8C",
"#y c #13B693",
"#x c #12B391",
"#w c #18E4B8",
"#v c #17D7B0",
"#u c #13BB97",
"#t c #11AD8C",
"#s c #16D9B1",
"#r c #16D4AD",
"#q c #14C09B",
"#p c #13B996",
"#o c #12AC8C",
"#n c #12AA89",
"#m c #14BB99",
"#l c #12AA8B",
"#k c #18DDB3",
"#j c #16D5AE",
"#i c #14C49F",
"#h c #14BD99",
"#g c #15CCA4",
"#f c #13B391",
"#e c #12AB8A",
"#d c #17DCB2",
"#c c #16CDA6",
"#b c #14C09D",
"#a c #13BA97",
"#0 c #13B492",
"#9 c #11AC8B",
"#8 c #17DDB4",
"#7 c #16D0A8",
"#6 c #11AD8D",
"#5 c #16D0A9",
"#4 c #15C39F",
"#3 c #14BC99",
"#2 c #11AA8A",
"#1 c #13B290",
"#| c #11A687",
"#} c #1DE5BA",
"#[ c #21E5BC",
"#< c #22E5BC",
"#: c #16D2AA",
"#_ c #1AE4BA",
"#( c #3DE8C4",
"#/ c #5BECCD",
"#^ c #60ECCF",
"#] c #46E9C7",
"#{ c #2BE6BF",
"#~ c #11AB8B",
"#! c #11A788",
"#) c #11A686",
"#' c #20E5BB",
"#, c #45E9C6",
"#> c #8DF1DC",
"#; c #C2F7EC",
"#- c #CAF8EE",
"#= c #A1F3E2",
"#* c #58EBCC",
"#& c #27E6BD",
"#% c #13B895",
"#$ c #12AB8C",
"## c #29E6BE",
"#@ c #75EFD5",
"#+ c #D6F9F2",
"@Z c #F9FDFD",
"@Y c #E4FBF6",
"@X c #97F2DF",
"@W c #38E8C2",
"@V c #11AB8C",
"@U c #30E7C0",
"@T c #8BF1DC",
"@S c #E7FCF7",
"@R c #FCFEFD",
"@Q c #FEFEFE",
"@P c #F2FDFA",
"@O c #AFF5E6",
"@N c #42E9C6",
"@M c #1DE5BB",
"@L c #17DEB5",
"@K c #14BE9A",
"@J c #11A787",
"@I c #11A786",
"@H c #2AE6BE",
"@G c #77EFD5",
"@F c #D7FAF2",
"@E c #F7FDFC",
"@D c #FAFDFD",
"@C c #E5FBF7",
"@B c #99F3E0",
"@A c #39E8C2",
"@z c #1BE4BA",
"@y c #16D2AB",
"@x c #15C59F",
"@w c #12B291",
"@v c #12A687",
"@u c #21E5BB",
"@t c #48E9C7",
"@s c #94F2DE",
"@r c #C8F8EE",
"@q c #D0F9F0",
"@p c #A7F4E4",
"@o c #5CECCD",
"@n c #28E6BE",
"@m c #15CAA4",
"@l c #15C49F",
"@k c #14BD9B",
"@j c #12A786",
"@i c #26E6BD",
"@h c #40E8C5",
"@g c #5FECCE",
"@f c #65EDD0",
"@e c #48E9C8",
"@d c #2CE6BF",
"@c c #1CE5BA",
"@b c #16D6AE",
"@a c #15CAA3",
"@0 c #15C39E",
"@9 c #14BC98",
"@8 c #12AA8A",
"@7 c #11A889",
"@6 c #12A686",
"@5 c #1AE5BA",
"@4 c #1EE5BB",
"@3 c #23E5BC",
"@2 c #25E5BD",
"@1 c #1FE5BB",
"@| c #1BE5BA",
"@} c #16DAB1",
"@[ c #14C29E",
"@< c #12B190",
"@: c #11AA89",
"@_ c #12A788",
"@( c #12A787",
"@/ c #12B593",
"@^ c #11AC8D",
"@] c #11A888",
"@{ c #12A889",
"@~ c #18DEB5",
"@! c #16CDA5",
"@) c #15C6A1",
"@' c #13B997",
"@, c #12B492",
"@> c #12AF8E",
"@; c #12AC8B",
"@- c #12A98A",
"@= c #12A888",
"@* c #14C5A0",
"@& c #14BE9B",
"@% c #13B896",
"@$ c #12AE8D",
"@# c #11AB8A",
"@@ c #12A989",
"@+ c #12A988",
"+Z c #17D9B1",
"+Y c #16CFA8",
"+X c #14C39F",
"+W c #13BD99",
"+V c #13B694",
"+U c #12B290",
"+T c #12AD8D",
"+S c #12AB8B",
"+R c #11A989",
"+Q c #17E1B6",
"+P c #16D3AC",
"+O c #15CEA7",
"+N c #15C8A2",
"+M c #14C19D",
"+L c #12AD8C",
"+K c #12AC8D",
"+J c #16D1AA",
"+I c #15CBA5",
"+H c #15C5A0",
"+G c #14BF9B",
"+F c #13B995",
"+E c #13B392",
"+D c #12B08F",
"+C c #11AE8D",
"+B c #17E4B8",
"+A c #18DFB5",
"+z c #17DCB3",
"+y c #17D9B0",
"+x c #16D5AD",
"+w c #16CFA7",
"+v c #14C39E",
"+u c #13B795",
"+t c #13B593",
"+s c #13B291",
"+r c #17E4B9",
"+q c #17E2B7",
"+p c #16D7AF",
"+o c #15CDA6",
"+n c #15C7A1",
"+m c #14C09C",
"+l c #13BB98",
"+k c #13BC99",
"+j c #14BD9A",
"+i c #17E1B7",
"+h c #17DAB1",
"+g c #17D6AE",
"+f c #16D1A9",
"+e c #15CBA4",
"+d c #14C4A0",
"+c c #14C29D",
"+b c #14BF9C",
"+a c #17E3B8",
"+0 c #18E1B6",
"+9 c #17DFB5",
"+8 c #17D8B0",
"+7 c #16CEA7",
"+6 c #15CCA5",
"+5 c #15C9A3",
"+4 c #14C49E",
"+3 c #15C9A2",
"+2 c #18E3B8",
"+1 c #18E0B6",
"+| c #18DEB4",
"+} c #17DAB2",
"+[ c #17D7AF",
"+< c #16D3AB",
"+: c #17D6AD",
"+_ c #16D4AC",
"+( c #18DCB3",
"+/ c #19E4B9",
"+^ c #18E2B7",
"+] c #17E0B6",
"+{ c #17DEB4",
"+~ c #17DDB3",
"+! c #17E0B5",
"+) c #17DBB2",
"+' c #18E4BA",
"+, c #19E5B9",
"+> c #17E2B8",
"+; c #18E2B8",
"+- c #18E1B7",
"+= c #18E5BA",
"+* c #18E5B9",
"+& c #19E4BA",
"+% c #18E3B9",
"+$ c #17E3B9",
"+# c #18E4B9",
"+@ c #19E5BA",
"++ c None",
"++++++++++++++++++++++++++++++++++++++++++++++++++++++++++++++++++++++++++++++++++++++++++++++++++++++++++++++++++++++++++++++++++++",
"+++++++++++++++++++++++++++++++++++++++++++++++@+#+$+#+#+%+#+&+@+&+&+@+&+&+@+*+&+=+&+@++++++++++++++++++++++++++++++++++++++++++++++",
"+++++++++++++++++++++++++++++++++++++++++++=+%+-+;+;+>+$+#+#+,+'+@+@+@+'+@+@+'+'+@+,+@+@+=++++++++++++++++++++++++++++++++++++++++++",
"+++++++++++++++++++++++++++++++++++++++)+!+~+~+{+]+^+>+%+#+#+'+#+@+@+@+@+@+@+@+/+@+#+@+/+/+@+@++++++++++++++++++++++++++++++++++++++",
"+++++++++++++++++++++++++++++++++++(+_+:+<+[+}+|+1+^+2+2+#+#+@+@+,+@+@+@+@+@+@+@+@+,+,+@+@+@+@+@+@++++++++++++++++++++++++++++++++++",
"+++++++++++++++++++++++++++++++3+4+5+6+7+_+8+)+9+0+;+a+#+#+#+'+*+@+@+,+@+@+@+@+/+@+/+'+@+@+&+'+@+=+&+=++++++++++++++++++++++++++++++",
"+++++++++++++++++++++++++++++++b+c+d+e+f+g+h+~+1+i+2+2+#+#+&+&+/+#+@+@+'+@+@+@+#+&+@+/+@+@+@+@+#+@+#+@+@++++++++++++++++++++++++++++",
"+++++++++++++++++++++++++++j+k+l+m+n+o+<+p+)+{+1+q+2+r+#+#+@+@+,+@+@+@+@+@+@+@+,+#+#+#+,+#+@+@+=+#+@+@+=+@+&++++++++++++++++++++++++",
"+++++++++++++++++++++++++s+t+u+j+v+5+w+x+y+z+A+-+;+2+B+#+@+@+@+@+@+/+&+@+&+&+,+@+@+@+&+,+,+@+@+#+@+@+&+@+/+@+,++++++++++++++++++++++",
"+++++++++++++++++++++++C+D+E+F+G+H+I+J+p+}+{+]+q+2+a+B+#+@+#+#+#+@+@+#+#+#+@+@+&+'+&+#+/+#+'+@+@+#+,+*+@+'+@+&+@++++++++++++++++++++",
"+++++++++++++++++++++K+L+D+t+l+M+N+O+P+8+z+9+Q+;+2+B+r+#+#+@+*+#+@+@+@+#+/+@+@+=+/+,+@+#+/+#+,+'+,+#+/+'+@+@+&+'+@++++++++++++++++++",
"+++++++++++++++++++R+S+T+U+V+W+X+5+Y+x+Z+~+A+-+a+%+B+#+#+#+#+'+#+#+#+#+'+*+@+,+@+@+,+#+/+#+#+#+#+*+#+#+#+#+@+@+@+@+,++++++++++++++++",
"++++++++++++++++@+@@@#@$+E@%@&@*+e+f+[+)+|+1+;+%+#+#+#+@+@+@+#+@+@+@+@+@+@+@+@+@+@+@+#+#+#+@+'+#+#+@+@+@+@+@+@+@+@+@+&++++++++++++++",
"++++++++++++++@=@=@-@;@>@,@'+m@)@!+<+8+)@~+0+;+a+#+#+/+#+#+'+@+@+@+@+'+@+'+,+'+@+'+@+@+&+/+'+@+@+@+,+#+@+@+@+@+@+'+&+@++++++++++++++",
"++++++++++++++@{@]@-@^+D@/+l+M+N+7+_+y+z+A+i+>+$+%+#+@+@+@+@+/+@+@+@+@+@+@+@+@+@+#+#+@+#+*+#+@+@+#+@+@+@+@+@+'+#+=+@+,+@++++++++++++",
"++++++++++++@(@_@]@:+T@<+V+k@[+3+Y+x@}+~+1+q+%+a+#+#+/+'+/+#+#+@+,+,+@+/+@+@+@+,+@+,+&+@+&@|@1@2@3@4@5+#+#+@+#+@+#+,+@+/+=++++++++++",
"++++++++++@(@6@_@7@8+L@<+V@9@0@a+f@b+}+{+1+q+$+a+a+#+#+@+*+@+@+,+@+@+,+@+@+,+@+#+@+@+,+#@c@d@e@f@g@h@i@5+#+@+#+#+#+*+@+#+@++++++++++",
"++++++++++@j@(@_+R@8+L@<+u@k@l@m+f+g+}+|+1+^+a+#+#+#+@+,+@+*+=+@+@+@+@+&+&+@+#+@+@+&+@+@@n@o@p@q@r@s@t@u+&+@+@+/+@+@+@+@+=+@++++++++",
"++++++++@(@v@j@_@@@8@$@w+u@&@x+e@y+[+)+{+0+>+a+r+#+'+#+*+@+@+#+#+@+@+@+#+#+@+#+#+=+@+@@z@A@B@C@D@E@F@G@H+&+@+'+#+#+@+'+#+*+@++++++++",
"++++++@(@(@I@J@_+R@#@$+s@%@K@x+6@y+p+)@L+0+;+%+#+#+@+&+#+#+#+@+@+@+@+,+@+@+#+#+&+@+/+@@M@N@O@P@Q@R@S@T@U@5+@+@+@+@+@+@+&+#+@+@++++++",
"++++++@(@(@(@(@_+R@V@$+s@%@K+H+6@y+[+z+A+0+;+%+2+#+@+@+@+@+@+@+@+@+@+@+@+&+@+@+@+@+,+@@|@W@X@Y@Z@E#+#@##+@+@+,+@+@+,+@+@+@+@+@++++++",
"++++++@(@J@(@(@_+R#$@$+s#%@K+H+6@y+[+z+A+0+;+a+$+#+@+@+@+#+#+#+@+@+@+#+#+@+@+@+@+@+@+@+&#&#*#=#-#;#>#,#'+@+@+@+#+#+#+@+@+@+#+@+=++++",
"++++++@(#)@j@I#!+R#~@$+s@%@K@x+6@y+[+)@~+0+>+$+#+#+@+#+#+#+#+#+#+#+#+=+#+@+#+*+'+'+@+#+'@|#{#]#^#/#(@2#_+@+@+#+'+@+@+@+#+#+#+#+@++++",
"++++@J@(@(@(@J@_@@@8@$+s+u@K@x+e#:+p+)+|+0+>+%+%+#+,+@+@+#+@+@+#+#+#+@+@+&+@+@+'+@+,+@+@+@@5@4#<#[#}+@+#+@+@+#+@+,+#+,+@+@+#+@+@+@++",
"++++@(@(#|@(@I@_@@@8@$#1+u@k@l@m+f+g+)+|+1+q+2+%+#+@+#+&+@+/+#+@+@+@+#+@+,+&+&+#+@+@+,+,+@+,+@+@+@+*+@+@+@+,+#+@+,+@+@+#+&+@+/+#+&++",
"++@(@(@J@J@J@(#!@7#2+L@<+V#3#4@a#5@b+}+{+1+^+%+%+#+#+@+@+@+@+@+@+@+#+'+@+@+@+@+@+#+&+@+*+'+@+@+*+@+=+#+#+@+@+@+@+@+@+@+@+@+@+@+@+=++",
"++@(@(@(@(@I@j@_@]@:#6@<+V#3+v+5#7+x@}#8+1+^+$+$+B+#+&+@+#+#+@+@+@+#+#+@+@+,+#+&+@+#+=+@+@+@+/+#+/+@+@+#+&+@+@+/+'+#+@+&+@+#+#+@+@++",
"++@j@(@I@(@I@(@_@]@-@^+D+t+l+M+N+7+_+y+z+A+^+>+%+%+#+/+*+@+@+'+,+@+#+,+@+*+@+#+@+@+#+@+#+#+=+,+@+@+@+@+@+*+@+@+&+@+*+,+/+*+@+@+'+@++",
"++@(@I@J@(@(@J@(@]@-#9@>#0#a#b+n#c+<+8#d+A+0+>+%+%+#+#+@+@+/+@+@+@+,+,+#+@+@+@+@+@+@+,+#+#+@+@+,+#+*+@+@+,+@+@+#+@+&+@+#+@+@+/+@+@++",
"++@(@(@I@I@(@(@J@]@@#e@$#f#%+G+H#g+J+[+)+|+1+;+%+2+#+#+,+,+@+@+#+@+@+,+@+#+,+,+/+@+#+,+@+@+@+'+@+@+@+@+@+@+@+@+@+,+@+@+/+,+,+@+@+*++",
"++@v@j@(@I#)@(@(@{@=#~@$+s+u#h#i@a#5#j+h#k+1+i+2+a+#+#+'+@+@+'+@+@+@+'+&+@+#+'+@+@+@+@+#+'+@+#+/+@+@+'+#+#+@+@+#+@+#+@+@+'+@+@+'+@++",
"++@v#)@(@J#)@(@J@(@]#l+L@<+t#m+M+N+O+_+8+z+A+Q+>+%+%+#+#+@+@+@+@+@+@+@+=+@+@+*+@+&+@+'+@+/+@+@+@+@+,+@+@+@+@+@+&+'+@+@+@+,+@+@+@+=++",
"++@v@(@J@J@(#)@(@J@]#n#o+D#0#p#q@)+6#:+[+)+|+]+^+2+2+#+#+@+@+@+@+,+,+@+@+,+@+@+#+@+@+@+@+@+=+@+@+@+,+,+@+@+=+,+#+@+@+@+@+,+@+@+@+@++",
"++@v@(#|@J@(@(@(@I#!+R+S@$@w+u+j+X+5#7#r#s+z+A+0+;+a+#+#+#+,+@+@+,+,+@+@+#+,+@+,+,+/+@+@+,+@+@+,+,+@+@+@+@+,+#+@+@+/+#+@+#+,+,+@+@++",
"++@(@(@(@J@(@I#|@j@_@]@8#t@<+t#u+M+n+o+P#v+)+{+]+-+a+a#w+#+#+'+&+@+&+@+@+,+&+,+&+'+/+=+@+,+@+@+@+@+,+@+@+@+@+,+=+=+/+#+'+/+@+@+'+@++",
"++@j@6@j@(@I@J@(@J@J@]@-#o@>#x#%@K#i@a#7+x+Z+z+A+0+;+$+$+#+#+,+'+@+@+@+'+@+@+'+'+@+,+&+*+@+@+@+'+'+,+@+,+@+@+@+*+@+@+@+@+'+@+@+,+@++",
"++@(@(@(@J@(@J@(@I@(@]@@#~@$@<#y#u+M+n+o@y+p+)#8+9+-+>+%+#+#+#+#+@+@+@+@+@+@+@+/+@+#+@+/+@+@+@+*+@+@+@+,+@+@+@+#+@+#+@+#+@+@+@+'+&++",
"++@(@(@J@J@(@J@(#)@J@(@=@8#z@>#f#%@K#i@a+Y+_+8+)+|+1+^+2+%+#+#+#+,+@+@+@+@+@+@+@+@+,+,+@+@+@+@+@+@+,+,+@+#+,+@+'+@+/+,+,+,+@+@+@+@++",
"++@(@(@(@I@(@I@(@I@I@(@_+R+S@$@<#y#u#A@)+6+J@b+Z+z+A+]+^+2+%+B+#+#+@+,+@+@+@+@+/+@+/+'+@+@+&+'+@+&+,+@+@+@+@+@+=+'+/+@+#+@+@+@+'+@++",
"++@(@J@(@J@(@(#)@(@I@(@_@=#2#z@>#f#%+j+v+N#B@y+p+h+~+A+0+^+2+a+#+B+#+@+'+@+@+@+#+&+@+/+@+@+@+@+#+@+#+,+@+/+@+@+'+&+#+@+&+@+@+#+#+#++",
"++@(@j@(@(@(#)#)#)@J@I@J@]@@+S@$@<#C#a+G#D@m+Y#r#E+)+~+A+1+^+2+%+%+#+#+#+#+@+@+,+#+#+#+,+#+@+@+=+#+@+@+*+@+@+@+*+,+#+#+#+#+#+#+#+#++",
"++++@(@J#)@I@(@(@(@(@(@(@(@=#2+S@$@w+V+l+m@)+e#7#r#E+)+~+A+1+^+;+%+2+%+%+#+#+,+@+@+@+&+,+,+@+@+#+@+@+&+@+/+@+@+@+#+#+#+B+#+#+#+#+&++",
"++++@J#)@(@J@I@J@(@J#)#)@J@_@=#2+L+D+E#%#3@[+n+6+f+x#E+)+~+A+1+i+;+2+a+a+B+#+#+#+#+&+#+/+#+'+@+@+#+,+*+@+#+#+#+#+##w+a+a+a+%+2+#+@++",
"++++++@(@(@(@I@I@(@J@(@I#)@(@]+R+S+L+D#F#%+j@[#G+6+f#r#E+h+z+{+]+0+-+;+$+$+#+#+r+#+#+#+#+#+#+#+#+#+#+#+#+#+#+$+r+%+2+a#H+>+>+^+#++++",
"++++++@j@J@(@(@(@(@I@(@J#)@(@_@]@@@V@$@<#I@'@K+v+n+6#7#r+p+Z+)+{+9+]+Q+q+>+2+2+%+%+%+B+r+a+a+B+B+a+a+B+B+a+%+2+%+a+;+q+^+Q+Q+^+=++++",
"++++++@(@(@J@(@J@(@I#)#)@(@I@I#!@=#2#z@$#J+t@'@K@[+n+e+Y@y@b#E+)+z+|+A+1+0+-+;+;+%+%+a+2+a+%+a+a+a+%+2+%+2+%+;+;+-+-+1+1+A+A+2++++++",
"++++++@(@j@I@J@I@(@j@j@j@I@j@(@J@=+R@8#o@>@w+t@'+j@[@)@m#B+J+_+p+y+)+z+|+9#K+]+-+q+^+^+q+>+>+;+;+;+;+^+^+^+-+0+1+]+A+{#8+z#L+;++++++",
"++++++++@(@(@J@j#)@(#)@I@I@(@(@J@(@=@@#2#z@>@<#I#%#3+m#D+N+6#M@y+x#v+Z+)+z#k+|+A+A+]+1+Q+Q+Q+0+Q+Q+0+1+1+1+A+{+{+~+z+}+h+h+{++++++++",
"++++++++++@(@J@(@I@J@j#)#)@j@J@J@(@J@]+R@8#o@$@<#F#%+l+G+v@)@a+o#7+P#r+p+8+h+)#d+z#8+{+|+{@L@L@L+|+|+|+{+~+z#d+)+Z+8#N+x+h+^++++++++",
"++++++++++@(@6@(@J@(@j@j@(@(@(@(@(@(@(@=@@@8#o@$+D+E+V#a+j+M#i+n@a+o#7#:+_#j+[#O+y@}+}+}+)+)+z+z+)+)+}+}#s+8#E#P+x+P#:+<+!++++++++++",
"++++++++++++@(@6#|@(@j@I@(@I@(@v@v@(@(@J@=@@@8#$+L+D+U+t#%#u@K+M#i+n+3+6#B#7+f+<+_+x@b+g+p+[+p+[+[+g+g#j+x+_+<+J#7#Q#B+h+i++++++++++",
"++++++++++++++@(@(@(@I@6@(@(@(@(@v@(@(@J@(@]@]+R+S#t@$@<#f#y#%#u@K+M+X#R+N@a#g+o+7#7#5+J+J#:#:#:#:+J+f#5#M+7#S+e+5+N+Y+|++++++++++++",
"++++++++++++++@(@(@I@(@J@j@j#|@I@(@I@J@I@(@(@_@=@@#2+S+L@>@<#f#y#%#u+j+G+M#i+H+n+N+5@a+e+e+e+6+6+e+e@m@a+3+N@)@*+X@*+7++++++++++++++",
"++++++++++++++++@(@(@J@J@(@v@(@(@(@(@(@(@(@(@(@_@=@]#2#~#z@$@>@<#f+t+u#p#m#h+G#b+M+v#4@l@x@x@*+H@x@x@l@0@[+M+m+G#h+M++++++++++++++++",
"++++++++++++++++++@J@j@J@(@(@(@I@(@(@J@J@(@v@I@(@(#!@=@@#T#~#o@$@>#U@w#0+t+u#%#a+l@9#3@k@K@K@K@K@K@&@k#3#V#u#p@%#p++++++++++++++++++",
"++++++++++++++++++++@(@I#|@I#)@I@(@(@I@J@(@I@(@(@J@(@J@]@]+R#2+S#9#t@$+D@<@w#W@,+t+V#X+u@%@%#%#%@%#%+u#X+V+t#0#y++++++++++++++++++++",
"++++++++++++++++++++++@J@(@6@J#)@v@6#)@v@(@6@(@(#)@v@(@(#!@_@=+R#T#2+S#o+L@$@$@>+D@<@<#1+s+s@w+s@w@w@<@<+D#Y#J++++++++++++++++++++++",
"++++++++++++++++++++++++@(@(@(@(@J@(@(@(@(#)@J@(@(@I@I@j@J@(@J@=@=@]+R@:#l#~#e#9+K+T+L@$@$@$@$@$@$@$+L+L@$#Z++++++++++++++++++++++++",
"++++++++++++++++++++++++++@(@(@6@6#)@I@j@J@j@(@j@J@(@(@(#|@(@(@(@J#!#!@=@]@]+R@-#T@:#2#2#2+S@V@V#$@8@8#e@$++++++++++++++++++++++++++",
"++++++++++++++++++++++++++++++@(@(@(@I@(@(@J@j@J@I@(@(@(@I@(@(@(@J@I@J@(@(@{@]@=@=@]@7+R@@@@+R@@+R@@#l++++++++++++++++++++++++++++++",
"++++++++++++++++++++++++++++++++@(@(@(@I@J@v@I@(#|@J@J@6#|@(@j@6@(#)#|@(@J@(@J@(@_#!@_#!@_@_@_@=@=@+++++++++++++++++++++++++++++++++",
"++++++++++++++++++++++++++++++++++++@(@(@J@(@I@(@J#|@I#|@(@J@(@J@J@J@J@I@J@(@(@J@j@J@v@I#)@J@($+++++++++++++++++++++++++++++++++++++",
"++++++++++++++++++++++++++++++++++++++@(@(@(@(@(@(@(@J@j@(@(@(#)@J@J@J@(@I@I@(@(@J@I@(@(@(@(@(++++++++++++++++++++++++++++++++++++++",
"++++++++++++++++++++++++++++++++++++++++++++++@J@(@(@(@j@(@(@j@(@(@(#|@j@(@I#)@(@(@(@J++++++++++++++++++++++++++++++++++++++++++++++",
"++++++++++++++++++++++++++++++++++++++++++++++++++@(@(@j@(@(@v@v@v@v@v@v@(@(@(@(@(++++++++++++++++++++++++++++++++++++++++++++++++++",
"++++++++++++++++++++++++++++++++++++++++++++++++++++++++++++++++++++++++++++++++++++++++++++++++++++++++++++++++++++++++++++++++++++"};
