/* XPM */
static char * ball_red_xpm[] = {
"66 66 234 2",
"#s c #66AF13",
"#r c #67B013",
"#q c #69B412",
"#p c #6DBD14",
"#o c #6FC114",
"#n c #78CC16",
"#m c #73C614",
"#l c #79CF15",
"#k c #67B113",
"#j c #72C314",
"#i c #82DE17",
"#h c #67B012",
"#g c #7DD816",
"#f c #72C514",
"#e c #84E418",
"#d c #78CC15",
"#c c #7DD716",
"#b c #62A912",
"#a c #68B312",
"#0 c #6DBB13",
"#9 c #64AD11",
"#8 c #7ED916",
"#7 c #73C615",
"#6 c #6CB913",
"#5 c #68B413",
"#4 c #6CBB14",
"#3 c #81DD18",
"#2 c #64AB12",
"#1 c #6CBA13",
"#| c #69B413",
"#} c #6DBC14",
"#[ c #65AD11",
"#< c #79D016",
"#: c #62A611",
"#_ c #87E51D",
"#( c #8AE522",
"#/ c #86E41A",
"#^ c #8BE525",
"#] c #98E83D",
"#{ c #A8EC5B",
"#~ c #ABEC60",
"#! c #9DE946",
"#) c #8FE62B",
"#' c #61A611",
"#, c #89E520",
"#> c #9CE945",
"#; c #C2F18D",
"#- c #DEF7C2",
"#= c #E2F8CA",
"#* c #CDF3A1",
"#& c #A7EB58",
"#% c #8DE627",
"#$ c #6FBE14",
"## c #8EE629",
"#@ c #B6EF75",
"#+ c #E9F9D6",
"@Z c #FAFDF7",
"@Y c #FCFDF9",
"@X c #F1FBE4",
"@W c #C8F297",
"@V c #95E838",
"@U c #81DF18",
"@T c #92E730",
"@S c #C1F18B",
"@R c #F2FCE7",
"@Q c #FDFEFC",
"@P c #FEFEFE",
"@O c #F8FDF2",
"@N c #D5F5AF",
"@M c #9BE942",
"@L c #88E51D",
"@K c #6AB813",
"@J c #68B213",
"@I c #63AB11",
"@H c #62A711",
"@G c #61A711",
"@F c #8EE62A",
"@E c #B7EF77",
"@D c #EAFAD7",
"@C c #FBFDF7",
"@B c #FCFDFA",
"@A c #F1FBE5",
"@z c #C9F399",
"@y c #96E839",
"@x c #87E41B",
"@w c #7AD216",
"@v c #68B212",
"@u c #62A612",
"@t c #8AE521",
"@s c #C6F294",
"@r c #E2F8C8",
"@q c #E6F9D0",
"@p c #D0F4A7",
"@o c #A9EC5C",
"@n c #8DE628",
"@m c #72C415",
"@l c #62A911",
"@k c #8CE626",
"@j c #9AE840",
"@i c #AAEC5F",
"@h c #ADED65",
"@g c #9EE948",
"@f c #8FE62C",
"@e c #87E51C",
"@d c #85E317",
"@c c #7CD616",
"@b c #79D116",
"@a c #76CA15",
"@0 c #71C315",
"@9 c #6EBC14",
"@8 c #67B112",
"@7 c #63AA12",
"@6 c #61A612",
"@5 c #86E51A",
"@4 c #88E51E",
"@3 c #8BE523",
"@2 c #8CE525",
"@1 c #89E51F",
"@| c #87E51B",
"@} c #7EDA16",
"@[ c #69B613",
"@< c #66B112",
"@: c #64AD12",
"@_ c #63AA11",
"@( c #61A712",
"@/ c #62A712",
"@^ c #85E318",
"@] c #79CE16",
"@{ c #75C815",
"@~ c #69B512",
"@! c #64AC11",
"@) c #62A811",
"@' c #78CD16",
"@, c #74C615",
"@> c #6FC014",
"@; c #68B412",
"@- c #66AF12",
"@= c #62A812",
"@* c #81DE18",
"@& c #7EDB17",
"@% c #7CD717",
"@$ c #73C514",
"@# c #6EBE14",
"@@ c #6BB813",
"@+ c #67B313",
"+Z c #65AE12",
"+Y c #64AB11",
"+X c #63A912",
"+W c #7ED917",
"+V c #7BD516",
"+U c #6EBD13",
"+T c #6AB613",
"+S c #67B212",
"+R c #63AB12",
"+Q c #63A911",
"+P c #85E417",
"+O c #81DF17",
"+N c #7FDC17",
"+M c #78CE15",
"+L c #74C815",
"+K c #70C114",
"+J c #69B513",
"+I c #65AD12",
"+H c #64AC12",
"+G c #73C515",
"+F c #6BB913",
"+E c #68B313",
"+D c #66B012",
"+C c #65AE11",
"+B c #82DF18",
"+A c #80DC17",
"+z c #7DD917",
"+y c #7CD516",
"+x c #79CF16",
"+w c #71C314",
"+v c #6AB713",
"+u c #68B513",
"+t c #67B213",
"+s c #84E417",
"+r c #83E217",
"+q c #7CD716",
"+p c #7AD316",
"+o c #78CD15",
"+n c #74C715",
"+m c #70C014",
"+l c #6CBB13",
"+k c #6DBC13",
"+j c #6EBD14",
"+i c #86E418",
"+h c #83E117",
"+g c #82E018",
"+f c #81DD17",
"+e c #7EDA17",
"+d c #7CD617",
"+c c #7AD116",
"+b c #77CB15",
"+a c #71C214",
"+0 c #6FBF14",
"+9 c #82DF17",
"+8 c #7FDB17",
"+7 c #7DD817",
"+6 c #7BD416",
"+5 c #78CE16",
"+4 c #77CC15",
"+3 c #76C915",
"+2 c #72C414",
"+1 c #75C915",
"+| c #85E519",
"+} c #83E018",
"+[ c #82DE18",
"+< c #7FDA17",
"+: c #7DD717",
"+_ c #7BD316",
"+( c #7DD617",
"+/ c #7CD416",
"+^ c #80DC18",
"+] c #85E419",
"+{ c #83E218",
"+~ c #82E017",
"+! c #81DE17",
"+) c #80DD17",
"+' c #83E017",
"+, c #80DB17",
"+> c #84E217",
"+; c #84E218",
"+- c #83E118",
"+= c #86E518",
"+* c #85E518",
"+& c #86E419",
"+% c #84E318",
"+$ c #84E317",
"+# c #85E418",
"+@ c #86E519",
"++ c None",
"++++++++++++++++++++++++++++++++++++++++++++++++++++++++++++++++++++++++++++++++++++++++++++++++++++++++++++++++++++++++++++++++++++",
"+++++++++++++++++++++++++++++++++++++++++++++++@+#+$+#+#+%+#+&+@+&+&+@+&+&+@+*+&+*+&+@++++++++++++++++++++++++++++++++++++++++++++++",
"+++++++++++++++++++++++++++++++++++++++++++=+%+-+;+;+>+$+#+#+@+#+@+@+@+#+@+@+#+#+@+@+@+@+=++++++++++++++++++++++++++++++++++++++++++",
"+++++++++++++++++++++++++++++++++++++++,+'+)+)+!+~+{+>+%+#+#+#+#+@+@+@+@+@+@+@+&+@+#+@+]+]+@+@++++++++++++++++++++++++++++++++++++++",
"+++++++++++++++++++++++++++++++++++^+/+(+_+:+<+[+}+{+%+%+#+#+@+@+@+@+@+@+@+@+|+|+@+|+@+@+@+@+@+@+@++++++++++++++++++++++++++++++++++",
"+++++++++++++++++++++++++++++++1+2+3+4+5+6+7+8+9+-+{+$+#+#+#+#+*+@+@+@+@+@+|+@+&+@+&+#+@+@+&+#+@+=+&+=++++++++++++++++++++++++++++++",
"+++++++++++++++++++++++++++++++0+a+2+b+c+d+e+f+g+h+%+%+#+#+&+]+]+#+@+@+#+@+|+@+i+]+@+]+@+@+@+|+#+|+i+@+@++++++++++++++++++++++++++++",
"+++++++++++++++++++++++++++j+k+l+m+n+o+p+q+8+!+}+r+%+s+#+#+@+@+@+@+@+@+@+@+@+@+|+i+#+i+@+i+|+@+=+#+@+@+=+@+&++++++++++++++++++++++++",
"+++++++++++++++++++++++++t+u+v+j+w+3+x+y+z+A+B+-+;+%+s+#+@+@+|+@+@+&+&+|+&+]+@+@+@+@+&+@+|+@+@+#+@+@+&+|+]+@+@++++++++++++++++++++++",
"+++++++++++++++++++++++C+D+E+F+0+G+b+c+q+e+!+~+r+%+$+s+#+@+i+#+#+@+@+#+#+#+@+@+&+#+&+i+&+#+#+@+@+#+|+*+@+#+@+&+@++++++++++++++++++++",
"+++++++++++++++++++++H+I+D+J+l+K+L+M+_+7+N+O+h+;+%+P+P+#+#+@+=+i+@+@+@+#+&+@+@+=+]+@+@+i+&+#+|+#+|+i+&+#+@+@+]+#+@++++++++++++++++++",
"+++++++++++++++++++Q+R+I+S+T+U+w+3+x+V+W+)+B+-+$+%+P+#+#+#+#+#+i+i+i+i+#+=+@+@+@+@+@+i+&+i+i+i+i+=+i+i+#+#+@+@+@+@+@++++++++++++++++",
"+++++++++++++++++X+X+Y+Z@+@@@#@$+b+c@%@&@*+}+;+%+#+#+#+@+@+|+i+@+|+@+@+@+@+@+@+@+@+@+#+#+#+|+#+i+#+@+@+@+@+|+@+@+@+@+&++++++++++++++",
"++++++++++++++@=@=+X+H@-@;+F@>@,@'+p+7+8+[+-+;+$+#+#+]+#+#+#+|+@+@+@+#+|+#+@+i+@+#+@+@+&+&+#+@+@+@+|+#+@+@+@+@+@+#+&+@++++++++++++++",
"++++++++++++++@=@)+X@!+D@~+l+K@{@]+6+z+A+B+h+>+$@^+#+@+@+@+@+&+@+@+@+@+@+@+@+@+@+i+#+@+#+=+i+@+@+i+@+@+@+@+@+i+#+=+|+@+@++++++++++++",
"++++++++++++@/@(@)@_@:@<@[+k+a+1+x+y@}+)+g+r+%+$+#+#+]+#+&+#+#+@+@+@+|+&+@+@+@+@+@+@+&+@+&@|@1@2@3@4@5+#+#+@+#+@+#+@+|+&+=++++++++++",
"++++++++++@/@6@/@)@7+I@8+T@9@0@a@b@c+e+!+}+r+$+$@d+#+i+@+=+@+@+@+@+@+@+@+@+@+|+i+@+|+@+i@e@f@g@h@i@j@k@5+#+@+#+i+i+*+@+i+@++++++++++",
"++++++++++@(@/@/@l@7+I@8+v+j@m@a+c+d+<@*+}+{+$+#+#+#+@+@+|+*+*+|+@+@+@+&+&+|+i+@+@+&+@+@@n@o@p@q@r@s@g@t+&+@+@+&+|+|+@+@+=+@++++++++",
"++++++++@/@u@(@/+X@7+Z@v+v@#+G+b@w@%+8+!+-+>+$+s+#+i+i+*+@+@+i+i+@+@+@+i+#+@+i+i+*+@+@@x@y@z@A@B@C@D@E@F+&+@+#+#+i+@+i+i+*+@++++++++",
"++++++@/@/@G@H@/+Q@I+Z@J@K@#+G+4@w+q+8+!+-+;+%+#+#+@+&+#+#+#+@+|+@+@+@+@+@+#+#+&+@+&+@@L@M@N@O@P@Q@R@S@T@5+@+|+@+@+@+@+&+#+@+@++++++",
"++++++@/@/@/@/@/+Q@I+Z@J@@@#+G+4@w+:+N@U+-+;+%@^+#+@+|+@+@+@+@+|+@+@+@+@+]+@+@+@+|+@+@@|@V@W@X@Y@Z#+#@##+@+@+|+@+@+@+@+|+@+@+@++++++",
"++++++@/@H@/@/@/+Q+R+Z@J@@#$+G+4@w+:+N@U+-+;+$+$+#+@+@+@+#+#+i+@+@+@+#+i+@+|+@+@+@+@+|+&#%#&#*#=#-#;#>#,+@+|+@+#+#+i+@+@+@+#+@+=++++",
"++++++@/#'@(@G@H+Q@I+Z@J@@@#+G+4@w@%+8@*+-+r+$+#+#+@+i+#+#+#+i+#+i+i+=+i+@+#+*+i+#+@+i+#@|#)#!#~#{#]#^#/+@+@+i+#+@+@+@+i+#+#+#+@++++",
"++++@G@/@/@/@G@/+X@7+Z@J+v@#+G+b@w+q+8@*+-+>+%@^+#+@+@+@+#+@+@+#+#+#+@+@+&+|+@+#+@+@+@+@+@@5@4#(@t#_+@+i+@+@+#+@+@+i+@+@+@+#+@+@+@++",
"++++@/@/#:@/@G@/+X@7+Z+t+v+j@m@a+c+d+8@*+}+r+%+%+#+@+#+&+@+&+i+@+@+@+#+@+@+&+&+#+@+@+@+@+@+@+@+@+@+*+@+@+@+@+#+@+@+|+@+#+&+@+&+i+&++",
"++@/@/@H@H@H@/@H@)@_+I@8+T@9@0@a#<@c+e+!+}+{+%@^+#+#+@+@+@+|+@+@+@+#+#+@+@+@+@+@+#+&+@+*+#+@+|+=+@+=+#+i+@+@+@+@+@+@+@+@+@+@+|+@+*++",
"++@/@/@/@/@G@/@/@)@_#[@8+T#}+w+3#<+y@}+)+g+{+$+$+s+#+&+@+#+i+@+@+@+#+#+@+@+@+#+&+@+#+*+@+@+@+]+i+]+@+@+i+]+@+@+&+#+#+@+&+@+#+i+@+@++",
"++@/@/@G@/@G@/@/@)+X@!+D+J+l+K@{@]+6+z+A+B+{+>+%+%+#+]+=+@+@+#+@+@+#+@+@+=+@+#+@+@+#+@+#+#+=+@+@+@+@+@+@+*+@+@+]+@+=+@+]+=+@+@+#+@++",
"++@/@G@H@/@/@H@/@)+X@!@-#|#1+m+n@'+_+7+A+B+-+>+%@^+#+#+@+@+&+@+|+|+|+@+#+@+@+@+@+@+@+@+#+#+@+@+@+#+*+|+@+|+@+|+#+@+&+@+#+@+@+&+@+|++",
"++@/@/@G@H@/@(@H@)+X#2+Z+E@@+0+G+4+c@%+8@*+}+;+%@^+#+#+@+|+@+@+#+@+@+@+@+i+@+@+&+@+i+|+@+|+|+#+@+@+@+@+@+@+@+@+@+@+@+@+&+@+|+@+@+*++",
"++@u@(@/@G#'@/@/@=@=@I+Z+t+v+j+2@a#<+y+e#3+g+h+%+$+#+#+#+@+@+i+@+@+@+#+&+@+#+i+@+@+@+@+i+#+@+#+&+@+@+#+i+#+@+@+i+@+#+|+@+#+@+@+i+@++",
"++@6#'@/@H#'@/@H@/@)@7@:@8+J#4+K@{+M+6+7+N@U+h+r+%@^+#+#+@+@+@+@+@+@+@+*+@+@+*+@+&+@+#+@+&+@+@+@+@+@+|+@+@+@+|+]+#+@+@+@+@+@+@+@+*++",
"++@u@/@H@H@/#'@/@H@)@7+H+D#5#6@>#7+4@w+:+8@*+~+{+%+%+#+#+@+@+@+@+@+@+@+@+@+@+@+#+@+@+@+@+@+*+@+@+@+@+@+@+@+=+@+i+@+@+@+@+@+@+@+@+@++",
"++@u@/#'@H@/@/@/@H@H+Q+R+Z+S+v+j+w+3#<+6#8+A+B+-+;+$+#+#+#+@+@+@+@+@+@+@+#+@+@+@+@+&+@+@+@+@+@+@+@+@+@+@+@+@+#+@+@+&+#+@+#+@+@+@+@++",
"++@/@/@/@H@/@G#'@/@/@)@7#9@<+J#0+K+n+o+p+:+8+!+~+-+$+$+#+#+#+#+&+@+&+@+@+@+&+@+]+#+&+*+@+@+@+@+@+@+|+@+@+|+@+@+*+*+&+#+#+&+@+@+#+@++",
"++@(@u@/@/@G@H@/@H@G@)+X+H@-#a@@@#+2@a#<+V+W+A+B+-+{+$+$+#+#+@+#+@+@+@+#+@+@+#+#+@+@+]+*+@+@+@+i+#+@+@+@+@+@+@+=+@+@+@+|+#+@+@+@+@++",
"++@/@/@/@H@/@G@/@G@/@)#b@I+Z@8+T#0+K+n+o@w#c@&+)+9+-+>+%+#+#+#+#+@+@+@+@+@+@+@+&+@+#+@+]+@+|+@+=+@+@+@+@+@+@+@+i+@+#+@+#+@+@+@+#+&++",
"++@/@/@H@H@/@H@/#:@H@/@=@7@!@-+E@@@#+2@a+x+6+7+8+[+}+{+%+%+#+#+#+@+@+@+@+@+@+|+|+@+|+@+@+@+@+@+@+@+@+@+@+#+@+@+#+|+&+@+|+@+@+@+@+@++",
"++@(@/@/@H@/@G@/@H@G@(@/@l+R+Z@8+T#0+K@,#d+c@c+W+N+B+'+{+%+%+s+#+#+@+@+@+@+|+@+&+@+&+#+@+@+&+#+@+&+|+@+@+@+@+@+*+#+&+@+#+@+|+@+#+@++",
"++@/@H@/@H@/@(#'@/@G@/@/@=@_@!@-+E@@+j+w@{+M@w+q+e+f+B+-+{+%+$#e+s+#+@+#+@+|+@+i+]+@+]+@+@+@+|+#+|+i+@+@+]+@+@+#+]+#+@+&+@+|+#+#+#++",
"++@/@/@/@/@/#'#'#'@G@G@G@)#b+R+Z@8+J#1+0#f@a+x+6#g+8+f+B+}+{+%+%+%+#+#+#+#+@+@+|+i+#+i+@+i+|+@+=+#+@+@+=+@+|+@+=+@+#+#+#+#+#+#+#+#++",
"++++@/@H#:@H@/@/@/@/@/@/@/@=@_#2+Z+S+T#0+m#7+b#<+6#g+8+f+B+}+{+;+%@^+%@^+#+#+@+@+@+@+&+@+|+@+@+#+@+@+&+|+]+@+@+|+#+#+#+s+#+#+#+#+&++",
"++++@G#'@/@H@G@G@/@G#'#'@G@/@=@_@:+D+E@@#}+a+n#d@b+V#g+8+f+B+}+h+{+%+$+$+P+#+#+#+#+&+i+&+#+#+@+@+#+|+*+@+#+#+#+#+#+#+$+$+$+%+%+#+@++",
"++++++@/@/@/@G@G@/@H@(@G#'@(@)+Q+R+I#h#5@@+j+a@{+4@b+6#g+e+A#i+~+-+-+;+$+$+#+#+P+#+#+#+#+#+#+#+#+#+#+#+#+#+#+$+P+%+%+$+>+r+>+;+#++++",
"++++++@/@H@/@/@/@(@G@(@G#'@(@(@)+X+Y+Z@8+J#6@##j+n#d#<+6+q+W+8+!+9+~+h+r+r+%+%+%+%+%+s+P@d+$+P+s@d+$+P+s+$+%+%+%+$+;+r+{+h+h+;+=++++",
"++++++@/@/@H@/@H@/@G#'#'@/@G@G@H@=@_@!+Z#k+J+F@#+a+n+b+x@w@c#g@&+A@*+B+}+-+-+;+;+%+%+$+%+$+%+$+$+$+%+%+%+%+%+;+;+-+-+}+g+B+B+%++++++",
"++++++@/@(@G@H@G@/@/@/@(@G@/@/@H@=@l@7+H@-+S+J#6+j+a#7@a+M+c+6#c+W+8+A@*+9+g+'+-+r+{+{+r+>+>+;+;+;+;+{+{+{+-+-+}+~+B+!+)+A+9+{++++++",
"++++++++@/@/@H@(#'@/#'@G@G@/@(@H@/@=#b@_@!@-@8+J@@#}+m@$@{#d#l@w+V+:+W+8+A#3@*+B+B+~+}+h+h+h+-+h+h+-+}+}+g+B#i+!+)+N+e+e+e+!++++++++",
"++++++++++@(@H@(@H@H@/#'#'@(@G@H@/@H@)@l@7+H+Z@8#5@@#0+0+w@,@a+o#<+p+6+q+7+e+8+A+A+)+!@*+!+!+!+!@*@*@*+!+)+A+N+8+W+7+d+y+e+;++++++++",
"++++++++++@/@6@/@H@/@(@(@/@/@/@/@/@/@/@=#b@7+H+Z#h+E+T#1+j+K+2+n@a+o#<@w+6+y@%#g+z@}+e+e+8+8+N+N+8+8+e+e#8+7#g@c+V+_@w+_+~++++++++++",
"++++++++++++@/@6#:@/@(@G@/@G@/@u@u@/@/@G@=#b@7#2+I+D+S+J@@#0@#+K+2+n+3+4+M#<+c+_+6+V@c+d+q@%#c+:@%+d+d+y+V+6+p+c#<+5+M+<+h++++++++++",
"++++++++++++++@/@/@/@G@6@/@/@(@/@u@/@(@G@/@)@)+Q+R#9+Z@8+E@[@@#0@#+K+w#m@{@a+4+o@]#<#<+c+c@w@w@w@w+c+c#<#l+5#n+b+3@{+x+[++++++++++++",
"++++++++++++++@/@/@H@/@H@/@/#'@G@/@G@G@H@/@/@/@=#b@_#2+I@-@8+E+T@@#0+j+0+K+2+G+n@{+3@a+b+b+b+4+4+b+b@a@a+1@{#7#f#j@$+5++++++++++++++",
"++++++++++++++++@/@/@H@H@/@u@/@/@/@/@/@/@/@/@/@/@=@)@_@I@!+Z@-@8+E+J+v#6#4+j+0+m+K+w@0@m+G+G@$+G+G+G@m@0+a+K@>+0+j#o++++++++++++++++",
"++++++++++++++++++@G@/@H@/@/@/@G@/@/@G@H@/@u@H@(@(@H@=#b+Q@I+H+Z@-@<+S#5+J+v@@#1+l#}#}#p@#@#@#@#@#@##p#}+k+l+F@@#6++++++++++++++++++",
"++++++++++++++++++++@/@G#:@H#'@H@/@/@G@H@/@H@(@/@H@/@G@)@)@l@_+R@!#9+Z+D@8+S#a#q+J+T+v+v@K@@@@@@@K@K+v+v@[+J#|+T++++++++++++++++++++",
"++++++++++++++++++++++@H@(@6@G#'@6@6#'@u@/@6@/@/#'@u@/@/@G@/@=@l+Q@_+R+H@:+Z+Z@-+D@<@8+t+t+t+S+t+S+S@8@8+D#r#k++++++++++++++++++++++",
"++++++++++++++++++++++++@/@/@/@/@H@/@/@/@(#'@H@/@/@H@G@/@H@/@G@=@=@)+Q@_@7@I#2@!+H+I+I+Z+Z+Z+Z+Z+Z+Z+I+I+Z#s++++++++++++++++++++++++",
"++++++++++++++++++++++++++@/@/@6@6#'@G@/@H@/@/@/@H@/@/@/#:@/@/@/@H@H@H@=@)@)+Q+X+Q@_@_@_@_+R@I@I+R@7@7#2+Z++++++++++++++++++++++++++",
"++++++++++++++++++++++++++++++@/@/@/@G@(@/@H@(@G@G@/@/@/@G@(@/@/@H@G@G@/@/@=@)@=@=@)@)@l+X+X@l#b@l+X@7++++++++++++++++++++++++++++++",
"++++++++++++++++++++++++++++++++@/@/@(@G@H@u@G@/#:@H@G@6#:@/@(@u@/#'#:@/@G@/@G@/@/@G@/@H@/@/@/@=@=+X++++++++++++++++++++++++++++++++",
"++++++++++++++++++++++++++++++++++++@/@/@H@/@G@/@H#:@G#:@/@H@/@H@H@H@H@G@H@/@/@H@/@H@u@G#'@H@/@/++++++++++++++++++++++++++++++++++++",
"++++++++++++++++++++++++++++++++++++++@/@/@/@/@/@/@/@G@/@/@/@/#'@H@H@H@/@G@H@/@(@H@G@/@/@/@/@/++++++++++++++++++++++++++++++++++++++",
"++++++++++++++++++++++++++++++++++++++++++++++@G@/@/@/@(@/@/@(@/@/@/#'@(@/@G#'@/@/@/@G++++++++++++++++++++++++++++++++++++++++++++++",
"++++++++++++++++++++++++++++++++++++++++++++++++++@/@/@/@/@/@u@u@u@u@u@u@/@/@(@/@/++++++++++++++++++++++++++++++++++++++++++++++++++",
"++++++++++++++++++++++++++++++++++++++++++++++++++++++++++++++++++++++++++++++++++++++++++++++++++++++++++++++++++++++++++++++++++++"};
