/* XPM */
static char * ball_red_xpm[] = {
"50 50 135 2",
"@i c #AB2E12",
"@h c #AF2F13",
"@g c #B83214",
"@f c #BD3214",
"@e c #C43515",
"@d c #D33917",
"@c c #CE3616",
"@b c #CC3616",
"@a c #D43917",
"@0 c #D13716",
"@9 c #C63415",
"@8 c #BD3314",
"@7 c #C93615",
"@6 c #C43415",
"@5 c #B23013",
"@4 c #CD3716",
"@3 c #B63013",
"@2 c #B12F12",
"@1 c #E33C18",
"@| c #C23414",
"@} c #BB3214",
"@[ c #D43916",
"@< c #B93213",
"@: c #DC3B17",
"@_ c #D83B17",
"@( c #C53515",
"@/ c #DB3C17",
"@^ c #CA3615",
"@] c #C33414",
"@{ c #BC3214",
"@~ c #AF2E12",
"@! c #C03314",
"@) c #B13013",
"@' c #D93A17",
"@, c #B43013",
"@> c #D53A17",
"@; c #E64F2D",
"@- c #EE8A75",
"@= c #EA674A",
"@* c #E5421E",
"@& c #B93113",
"@% c #EB7156",
"@$ c #FADDD7",
"@# c #FCF4F2",
"@@ c #F3AB9C",
"@+ c #E64C2A",
"+Z c #D23916",
"+Y c #FEFEFE",
"+X c #FDFBFA",
"+W c #F6BDB1",
"+V c #E75130",
"+U c #D23816",
"+T c #CA3515",
"+S c #C13314",
"+R c #F5BCAF",
"+Q c #FCEAE6",
"+P c #FADDD6",
"+O c #EE8A74",
"+N c #E54724",
"+M c #B12F13",
"+L c #E54420",
"+K c #E85E40",
"+J c #ED7E65",
"+I c #EB7055",
"+H c #E64E2D",
"+G c #DD3C17",
"+F c #D73B17",
"+E c #C83615",
"+D c #BF3314",
"+C c #B73113",
"+B c #AC2D12",
"+A c #E53F1A",
"+z c #E5411D",
"+y c #E5401C",
"+x c #CF3716",
"+w c #AF2F12",
"+v c #AB2D12",
"+u c #A72C12",
"+t c #D53917",
"+s c #C53415",
"+r c #BC3314",
"+q c #A82D12",
"+p c #CB3615",
"+o c #BA3214",
"+n c #B33013",
"+m c #AE2E12",
"+l c #AA2D12",
"+k c #A92D12",
"+j c #D13816",
"+i c #C93515",
"+h c #C13414",
"+g c #B83113",
"+f c #B22F13",
"+e c #AA2E12",
"+d c #DB3B17",
"+c c #D63A17",
"+b c #CE3716",
"+a c #C63515",
"+0 c #BE3314",
"+9 c #B63113",
"+8 c #B02F12",
"+7 c #AD2E12",
"+6 c #D93B17",
"+5 c #CC3615",
"+4 c #C33514",
"+3 c #BB3314",
"+2 c #B53013",
"+1 c #B23113",
"+| c #DC3C17",
"+} c #D73A17",
"+[ c #D03716",
"+< c #C83515",
"+: c #C03414",
"+_ c #BA3213",
"+( c #C23515",
"+/ c #E13C18",
"+^ c #DA3B17",
"+] c #D53A16",
"+{ c #CD3616",
"+~ c #C73515",
"+! c #C43414",
"+) c #E03C18",
"+' c #DD3C18",
"+, c #D83A17",
"+> c #D33916",
"+; c #D33816",
"+- c #DC3C18",
"+= c #DF3C18",
"+* c #DE3C17",
"+& c #DE3C18",
"+% c #E23C18",
"+$ c #E53E19",
"+# c #E33D18",
"+@ c #E43D18",
"++ c None",
"++++++++++++++++++++++++++++++++++++++++++++++++++++++++++++++++++++++++++++++++++++++++++++++++++++",
"+++++++++++++++++++++++++++++++++++++@+#+@+@+@+$+$+$+$+$+$+$+$+$++++++++++++++++++++++++++++++++++++",
"+++++++++++++++++++++++++++++++%+&+*+=+%+#+@+@+$+$+$+$+$+$+$+$+$+$+$+$++++++++++++++++++++++++++++++",
"+++++++++++++++++++++++++++-+;+>+,+'+)+%+#+@+$+$+$+$+$+$+$+$+$+$+$+$+$+$+$++++++++++++++++++++++++++",
"+++++++++++++++++++++++++!+~+{+]+^+&+/+#+@+@+$+$+$+$+$+$+$+$+$+$+$+$+$+$+$+$+$++++++++++++++++++++++",
"+++++++++++++++++++++(+_+:+<+[+}+|+=+%+#+@+@+$+$+$+$+$+$+$+$+$+$+$+$+$+$+$+$+$+$++++++++++++++++++++",
"+++++++++++++++++++1+2+3+4+5+>+6+'+/+%+@+@+$+$+$+$+$+$+$+$+$+$+$+$+$+$+$+$+$+$+$+$++++++++++++++++++",
"+++++++++++++++++7+8+9+0+a+b+c+d+=+/+#+@+@+$+$+$+$+$+$+$+$+$+$+$+$+$+$+$+$+$+$+$+$+$++++++++++++++++",
"+++++++++++++++e+7+f+g+h+i+j+,+|+)+%+#+@+@+$+$+$+$+$+$+$+$+$+$+$+$+$+$+$+$+$+$+$+$+$+$++++++++++++++",
"+++++++++++++k+l+m+n+o+4+p+>+^+&+/+#+@+@+$+$+$+$+$+$+$+$+$+$+$+$+$+$+$+$+$+$+$+$+$+$+$+$++++++++++++",
"+++++++++++++q+l+m+2+r+s+{+t+^+=+/+#+@+@+$+$+$+$+$+$+$+$+$+$+$+$+$+$+$+$+$+$+$+$+$+$+$+$+$++++++++++",
"+++++++++++u+q+v+w+9+0+~+x+c+|+=+%+#+@+$+$+$+$+$+$+$+$+$+$+$+$+$+$+$+$+y+z+A+$+$+$+$+$+$+$+$++++++++",
"+++++++++u+u+q+B+8+C+D+E+j+F+G+)+%+@+@+$+$+$+$+$+$+$+$+$+$+$+$+$+$+A+H+I+J+K+L+$+$+$+$+$+$+$++++++++",
"+++++++++u+u+k+B+M+g+:+i+j+,+'+)+%+@+@+$+$+$+$+$+$+$+$+$+$+$+$+$+$+N+O+P+Q+R+K+A+$+$+$+$+$+$+$++++++",
"+++++++u+u+u+k+B+M+g+S+T+U+,+'+/+#+@+@+$+$+$+$+$+$+$+$+$+$+$+$+$+$+V+W+X+Y+Q+J+z+$+$+$+$+$+$+$++++++",
"+++++++u+u+u+k+7+M+g+S+T+Z+6+&+/+#+@+@+$+$+$+$+$+$+$+$+$+$+$+$+$+$@+@@@#+X@$@%+y+$+$+$+$+$+$+$+$++++",
"+++++u+u+u+u+k+7+M@&+S+T+Z+6+&+/+#+@+@+$+$+$+$+$+$+$+$+$+$+$+$+$+$@*@=@@+W@-@;+$+$+$+$+$+$+$+$+$++++",
"+++++u+u+u+u+k+B+M+g+S+T+U+,+'+/+#+@+@+$+$+$+$+$+$+$+$+$+$+$+$+$+$+$@*@++V+N+A+$+$+$+$+$+$+$+$+$++++",
"+++++u+u+u+u+k+B+M+g+:+i+j+,+'+)+%+@+@+$+$+$+$+$+$+$+$+$+$+$+$+$+$+$+$+$+$+$+$+$+$+$+$+$+$+$+$+$+$++",
"+++u+u+u+u+u+q+B+8+C+D+E+j+F+G+)+%+@+@+$+$+$+$+$+$+$+$+$+$+$+$+$+$+$+$+$+$+$+$+$+$+$+$+$+$+$+$+$+$++",
"+++u+u+u+u+u+q+v+w+9+0+~+x+c+|+)+%+#+@+$+$+$+$+$+$+$+$+$+$+$+$+$+$+$+$+$+$+$+$+$+$+$+$+$+$+$+$+$+$++",
"+++u+u+u+u+u+q+l+m+2+r+s+{+t+^+=+/+#+@+@+$+$+$+$+$+$+$+$+$+$+$+$+$+$+$+$+$+$+$+$+$+$+$+$+$+$+$+$+$++",
"+++u+u+u+u+u+q+l+m+n+o+4+p+>+^+&+/+#+@+@+$+$+$+$+$+$+$+$+$+$+$+$+$+$+$+$+$+$+$+$+$+$+$+$+$+$+$+$+$++",
"+++u+u+u+u+u+u+k+7+f+g+h+i+j+,+|+)+%+#+@+@+$+$+$+$+$+$+$+$+$+$+$+$+$+$+$+$+$+$+$+$+$+$+$+$+$+$+$+$++",
"+++u+u+u+u+u+u+k+v+8+9+0+a+b@>+d+=+/+#+@+@+$+$+$+$+$+$+$+$+$+$+$+$+$+$+$+$+$+$+$+$+$+$+$+$+$+$+$+$++",
"+++u+u+u+u+u+u+q+l+m@,+3+4+p+>@'+'+)+%+#+@+@+$+$+$+$+$+$+$+$+$+$+$+$+$+$+$+$+$+$+$+$+$+$+$+$+$+$+$++",
"+++u+u+u+u+u+u+u+k+7@)+g@!+<+[+c+d+=+/+#+@+@+$+$+$+$+$+$+$+$+$+$+$+$+$+$+$+$+$+$+$+$+$+$+$+$+$+$+$++",
"+++u+u+u+u+u+u+u+k+v@~+2@{+!+5+>@'+G+)+%+#+@+@+$+$+$+$+$+$+$+$+$+$+$+$+$+$+$+$+$+$+$+$+$+$+$+$+$+$++",
"+++u+u+u+u+u+u+u+q+l+7+f+g@!+<+x@>+^+&+/+%+#+@+@+$+$+$+$+$+$+$+$+$+$+$+$+$+$+$+$+$+$+$+$+$+$+$+$+$++",
"+++u+u+u+u+u+u+u+u+k+v@~+2@{@]@^+j+}@/+=+/+%+#+@+@+$+$+$+$+$+$+$+$+$+$+$+$+$+$+$+$+$+$+$+$+$+$+$+$++",
"+++u+u+u+u+u+u+u+u+q+l+7@)+C+0@(+{+>@_@:+=+/+%+#+@+@+@+$+$+$+$+$+$+$+$+$+$+$+$+$+$+$+$+$+$+@+@+@+@++",
"+++++u+u+u+u+u+u+u+u+k+v+m+n@<@!+~+b@[@'@:+=+/+%+#+@+@+@+@+$+$+$+$+$+$+$+$+$+$+$+$+$+$+@+@+@+@+@+$++",
"+++++u+u+u+u+u+u+u+u+u+k+B+8+2@}@|+<+x@[@'@:+&+/+%+%+#+@+@+@+@+$+$+$+$+$+$+$+$+$+@+@+@+@+#+#+#@1++++",
"+++++u+u+u+u+u+u+u+u+u+q+l+7@2@3@{@|+i+x+>@_+d+'+)+/+%+%+#+#+@+@+@+@+@+@+@+@+@+@+@+#+#+#+%+%+/@1++++",
"+++++++u+u+u+u+u+u+u+u+u+q+v+7@)+9@{@|+<@4+U+c+6+|+&+)+/+%+%+#+#+#+#+#+#+#+#+#+#+#+%+%+/+)+=+=+@++++",
"+++++++u+u+u+u+u+u+u+u+u+u+k+v+m@5@3@}+h+a+5+[@[+}+^+|+&+=+)+/+/+/+%+%+%+%+%+/+/+/+)+=+&+G+d+*++++++",
"+++++++++u+u+u+u+u+u+u+u+u+u+k+v+m@2+2+_+D@6@7+b+j+]+}+^+d+|+'+&+=+=+=+=+=+=+=+&+'+G+d+^+,+}+%++++++",
"+++++++++u+u+u+u+u+u+u+u+u+u+u+k+v+7+8@,+g@8+h@9+T+b@0+>+c+,@'+^+^+d@/+|@/+d+^+^@'+,+c@[+j@'++++++++",
"+++++++++++u+u+u+u+u+u+u+u+u+u+u+k+l+B@~@5@3+_+0@|@9+i+5+b+[+U@[@a@>+c+c+c@>@a@[+Z+j+b@b+[+@++++++++",
"+++++++++++++u+u+u+u+u+u+u+u+u+u+u+q+l+v+7+8+n@3+_+0+h@]+a+<+T+5+{@c+b+x+b@c+{+5+T+<+a+a@d++++++++++",
"+++++++++++++u+u+u+u+u+u+u+u+u+u+u+u+q+k+l+B+m+8+n+9+g+3+0+:+h@]@e+s+s+a+s+s@e@]+h+:+0+h++++++++++++",
"+++++++++++++++u+u+u+u+u+u+u+u+u+u+u+u+u+q+k+l+B+m+8+f@,+9+C@&+o+3+r@{@f@{+r+3+o@&+C@g++++++++++++++",
"+++++++++++++++++u+u+u+u+u+u+u+u+u+u+u+u+u+u+q+k+l+v+7+m+8+M+f+n@,@,+2+2+2@,@,+n+f+n++++++++++++++++",
"+++++++++++++++++++u+u+u+u+u+u+u+u+u+u+u+u+u+u+u+q+k+k+l+v+B+7+7+m+m@~@~@~+m+m+m@h++++++++++++++++++",
"+++++++++++++++++++++++u+u+u+u+u+u+u+u+u+u+u+u+u+u+u+q+q+q+k+k+l+l+l+l@i@i+l+l++++++++++++++++++++++",
"+++++++++++++++++++++++++u+u+u+u+u+u+u+u+u+u+u+u+u+u+u+u+u+u+u+q+q+q+q+q+q+k++++++++++++++++++++++++",
"+++++++++++++++++++++++++++++u+u+u+u+u+u+u+u+u+u+u+u+u+u+u+u+u+u+u+u+u+u++++++++++++++++++++++++++++",
"+++++++++++++++++++++++++++++++++u+u+u+u+u+u+u+u+u+u+u+u+u+u+u+u+u+u++++++++++++++++++++++++++++++++",
"+++++++++++++++++++++++++++++++++++++++u+u+u+u+u+u+u+u+u+u+u+u++++++++++++++++++++++++++++++++++++++",
"++++++++++++++++++++++++++++++++++++++++++++++++++++++++++++++++++++++++++++++++++++++++++++++++++++"};
