/* XPM */
static char * ball_red_xpm[] = {
"50 50 154 2",
"@B c #AF1394",
"@A c #B31395",
"@z c #B8149A",
"@y c #BC149C",
"@x c #BA149D",
"@w c #B7139A",
"@v c #C415A4",
"@u c #D317B1",
"@t c #CE16AD",
"@s c #B6139A",
"@r c #CC16AC",
"@q c #D216B1",
"@p c #D417B2",
"@o c #AC1290",
"@n c #BD149E",
"@m c #B41397",
"@l c #C915AA",
"@k c #C415A5",
"@j c #BF14A1",
"@i c #BA139C",
"@h c #B11295",
"@g c #D717B5",
"@f c #D416B2",
"@e c #C615A6",
"@d c #BB149D",
"@c c #C214A3",
"@b c #B11294",
"@a c #E218BD",
"@0 c #C214A2",
"@9 c #AC128F",
"@8 c #D416B1",
"@7 c #C515A6",
"@6 c #DB17B8",
"@5 c #CA15AB",
"@4 c #AD1291",
"@3 c #D917B5",
"@2 c #C414A4",
"@1 c #BC149E",
"@| c #B51398",
"@} c #AF1293",
"@[ c #AB128F",
"@< c #B8139B",
"@: c #B11395",
"@_ c #B41396",
"@( c #AB1290",
"@/ c #EE75D9",
"@^ c #EA4ACE",
"@] c #E51EC2",
"@{ c #B9139B",
"@~ c #EB56D1",
"@! c #FAD7F4",
"@) c #FCF2FB",
"@' c #F39CE4",
"@, c #E62AC5",
"@> c #FEFEFE",
"@; c #FDFAFD",
"@- c #F6B1E9",
"@= c #E730C7",
"@* c #D216B0",
"@& c #CA15AA",
"@% c #C114A2",
"@$ c #F5AFE9",
"@# c #FCE6F8",
"@@ c #FAD6F4",
"@+ c #EE74D9",
"+Z c #E524C3",
"+Y c #D817B6",
"+X c #D116B0",
"+W c #C014A0",
"+V c #B11394",
"+U c #A9128E",
"+T c #E520C2",
"+S c #E840CB",
"+R c #ED65D5",
"+Q c #EB55D1",
"+P c #E62DC6",
"+O c #DD17B9",
"+N c #C815A8",
"+M c #BF14A0",
"+L c #B71399",
"+K c #AC1291",
"+J c #A8128D",
"+I c #E51AC1",
"+H c #E51DC2",
"+G c #E51CC1",
"+F c #D617B4",
"+E c #CF16AE",
"+D c #B61398",
"+C c #AF1294",
"+B c #AB128E",
"+A c #A7128D",
"+z c #DA17B7",
"+y c #D517B3",
"+x c #C515A5",
"+w c #BC149D",
"+v c #AE1293",
"+u c #A8128E",
"+t c #CB15AC",
"+s c #BA149C",
"+r c #B31396",
"+q c #AE1292",
"+p c #AA128F",
"+o c #A9128F",
"+n c #DC17B9",
"+m c #D116AF",
"+l c #C915A9",
"+k c #C114A1",
"+j c #B8139A",
"+i c #AD1290",
"+h c #AA128E",
"+g c #DF18BB",
"+f c #DB17B7",
"+e c #D617B3",
"+d c #CE16AE",
"+c c #C615A7",
"+b c #BE149F",
"+a c #B61399",
"+0 c #B01294",
"+9 c #AD1292",
"+8 c #DD18BA",
"+7 c #D917B6",
"+6 c #CC15AC",
"+5 c #C314A3",
"+4 c #BB149C",
"+3 c #B51397",
"+2 c #B21395",
"+1 c #DC17B8",
"+| c #D717B4",
"+} c #D016AF",
"+[ c #C815A9",
"+< c #C014A1",
"+: c #BA139B",
"+_ c #C215A2",
"+( c #E118BD",
"+/ c #DE18BB",
"+^ c #DA17B6",
"+] c #D516B2",
"+{ c #CD16AD",
"+~ c #C715A7",
"+! c #C414A6",
"+) c #E018BC",
"+' c #DD18B9",
"+, c #D817B5",
"+> c #D316B1",
"+; c #DC18B8",
"+- c #E318BF",
"+= c #DF18BC",
"+* c #DE17BA",
"+& c #DE18BA",
"+% c #E218BE",
"+$ c #E519C1",
"+# c #E318BE",
"+@ c #E418C0",
"++ c None",
"++++++++++++++++++++++++++++++++++++++++++++++++++++++++++++++++++++++++++++++++++++++++++++++++++++",
"+++++++++++++++++++++++++++++++++++++@+#+@+@+@+$+$+$+$+$+$+$+$+$++++++++++++++++++++++++++++++++++++",
"+++++++++++++++++++++++++++++++%+&+*+=+%+-+@+@+$+$+$+$+$+$+$+$+$+$+$+$++++++++++++++++++++++++++++++",
"+++++++++++++++++++++++++++;+>+>+,+'+)+%+-+@+$+$+$+$+$+$+$+$+$+$+$+$+$+$+$++++++++++++++++++++++++++",
"+++++++++++++++++++++++++!+~+{+]+^+/+(+#+@+@+$+$+$+$+$+$+$+$+$+$+$+$+$+$+$+$+$++++++++++++++++++++++",
"+++++++++++++++++++++_+:+<+[+}+|+1+=+%+-+@+@+$+$+$+$+$+$+$+$+$+$+$+$+$+$+$+$+$+$++++++++++++++++++++",
"+++++++++++++++++++2+3+4+5+6+>+7+8+(+%+@+@+$+$+$+$+$+$+$+$+$+$+$+$+$+$+$+$+$+$+$+$++++++++++++++++++",
"+++++++++++++++++9+0+a+b+c+d+e+f+g+(+#+@+@+$+$+$+$+$+$+$+$+$+$+$+$+$+$+$+$+$+$+$+$+$++++++++++++++++",
"+++++++++++++++h+i+2+j+k+l+m+,+n+)+%+-+@+@+$+$+$+$+$+$+$+$+$+$+$+$+$+$+$+$+$+$+$+$+$+$++++++++++++++",
"+++++++++++++o+p+q+r+s+5+t+>+^+&+(+#+@+@+$+$+$+$+$+$+$+$+$+$+$+$+$+$+$+$+$+$+$+$+$+$+$+$++++++++++++",
"+++++++++++++u+h+v+3+w+x+{+y+z+g+(+-+@+@+$+$+$+$+$+$+$+$+$+$+$+$+$+$+$+$+$+$+$+$+$+$+$+$+$++++++++++",
"+++++++++++A+u+B+C+D+b+~+E+F+1+=+%+-+@+$+$+$+$+$+$+$+$+$+$+$+$+$+$+$+$+G+H+I+$+$+$+$+$+$+$+$++++++++",
"+++++++++A+A+J+K+0+L+M+N+m+|+O+)+%+@+@+$+$+$+$+$+$+$+$+$+$+$+$+$+$+I+P+Q+R+S+T+$+$+$+$+$+$+$++++++++",
"+++++++++A+A+U+K+V+j+W+l+X+Y+'+)+%+@+@+$+$+$+$+$+$+$+$+$+$+$+$+$+$+Z@+@@@#@$+S+I+$+$+$+$+$+$+$++++++",
"+++++++A+A+A+U+K+V+j@%@&@*+Y+8+(+#+@+@+$+$+$+$+$+$+$+$+$+$+$+$+$+$@=@-@;@>@#+R+H+$+$+$+$+$+$+$++++++",
"+++++++A+A+A+U+i+V+j@%@&@*+7+&+(+#+@+@+$+$+$+$+$+$+$+$+$+$+$+$+$+$@,@'@)@;@!@~+G+$+$+$+$+$+$+$+$++++",
"+++++A+A+A+A+U+i+V@{@%@&@*+7+&+(+#+@+@+$+$+$+$+$+$+$+$+$+$+$+$+$+$@]@^@'@-@/+P+$+$+$+$+$+$+$+$+$++++",
"+++++A+A+A+A+U+K+V+j@%@&@*+Y+8+(+#+@+@+$+$+$+$+$+$+$+$+$+$+$+$+$+$+$@]@,@=+Z+I+$+$+$+$+$+$+$+$+$++++",
"+++++A+A+A+A+U+K+V+j+W+l+X+Y+'+)+%+@+@+$+$+$+$+$+$+$+$+$+$+$+$+$+$+$+$+$+$+$+$+$+$+$+$+$+$+$+$+$+$++",
"+++A+A+A+A+A+J+K+0+L+M+N+m+|+O+)+%+@+@+$+$+$+$+$+$+$+$+$+$+$+$+$+$+$+$+$+$+$+$+$+$+$+$+$+$+$+$+$+$++",
"+++A+A+A+A+A+u+B+C+D+b+~+E+F+1+)+%+-+@+$+$+$+$+$+$+$+$+$+$+$+$+$+$+$+$+$+$+$+$+$+$+$+$+$+$+$+$+$+$++",
"+++A+A+A+A+A+u+h+v+3+w+x+{+y+z+g+(+-+@+@+$+$+$+$+$+$+$+$+$+$+$+$+$+$+$+$+$+$+$+$+$+$+$+$+$+$+$+$+$++",
"+++A+A+A+A+A+J+p+q+r+s+5+t+>+^+&+(+#+@+@+$+$+$+$+$+$+$+$+$+$+$+$+$+$+$+$+$+$+$+$+$+$+$+$+$+$+$+$+$++",
"+++A+A+A+A+A+A+U+i+2+j+k+l+m+,+n+)+%+-+@+@+$+$+$+$+$+$+$+$+$+$+$+$+$+$+$+$+$+$+$+$+$+$+$+$+$+$+$+$++",
"+++A+A+A+A+A+A+U@(+0+a+b+c+d+y+f+g+(+#+@+@+$+$+$+$+$+$+$+$+$+$+$+$+$+$+$+$+$+$+$+$+$+$+$+$+$+$+$+$++",
"+++A+A+A+A+A+A+u+h+v@_+4+5+t+>+7+8+)+%+-+@+@+$+$+$+$+$+$+$+$+$+$+$+$+$+$+$+$+$+$+$+$+$+$+$+$+$+$+$++",
"+++A+A+A+A+A+A+A+o+i@:@<+<+N+}+e+f+g+(+#+@+@+$+$+$+$+$+$+$+$+$+$+$+$+$+$+$+$+$+$+$+$+$+$+$+$+$+$+$++",
"+++A+A+A+A+A+A+A+U@[@}@|@1@2+6+>@3+O+)+%+#+@+@+$+$+$+$+$+$+$+$+$+$+$+$+$+$+$+$+$+$+$+$+$+$+$+$+$+$++",
"+++A+A+A+A+A+A+A+J+h@4+2@<+<+N+E+y+^+/+(+%+-+@+@+$+$+$+$+$+$+$+$+$+$+$+$+$+$+$+$+$+$+$+$+$+$+$+$+$++",
"+++A+A+A+A+A+A+A+A+U@[@}@|@1+5@5+X+|@6+g+(+%+-+@+@+$+$+$+$+$+$+$+$+$+$+$+$+$+$+$+$+$+$+$+$+$+$+$+$++",
"+++A+A+A+A+A+A+A+A+J+h@4@:+L+b@7+{+>+,+1+=+(+%+-+@+@+@+$+$+$+$+$+$+$+$+$+$+$+$+$+$+$+$+$+$+@+@+@+@++",
"+++++A+A+A+A+A+A+A+A+U@[+v+r@{+<+~+d@8@3+1+g+(+%+#+@+@+@+@+$+$+$+$+$+$+$+$+$+$+$+$+$+$+@+@+@+@+@+$++",
"+++++A+A+A+A+A+A+A+A+A+U@9+0+3+4@0+[+E@8@3+1+/+(@a+%+-+@+@+@+@+$+$+$+$+$+$+$+$+$+@+@+@+@+-+-+#+-++++",
"+++++A+A+A+A+A+A+A+A+A+J+h@4@b+a+w@c+l+E+>+,+f+8+)+(+%+%+-+-+@+@+@+@+@+@+@+@+@+@+@+-+-+#+%@a+(+-++++",
"+++++++A+A+A+A+A+A+A+A+A+u@[@4@:+a@1@0+N+{@*+e+7+1+/+)+(@a+%+#+#+-+-+-+-+-+-+-+#+#+%@a+(+)+=+g+@++++",
"+++++++A+A+A+A+A+A+A+A+A+A+U@[+q+2+a@d+k@e+6+}@f@g+^+1+/+g+)+(+(+(+%+%+%+%+%+(+(+(+)+=+/+O+f+*++++++",
"+++++++++A+A+A+A+A+A+A+A+A+A+U@[+q@h@|@i@j@k@l+d+X+]+|+^+f+n+8+/+g+g+=+=+=+g+g+/+8+O+f+^+,+|+%++++++",
"+++++++++A+A+A+A+A+A+A+A+A+A+A+U@[@4+0@m@<@n@%@e@&+d+m+>+e+,+7+^+z+f@6+1@6+f+z+^+7+,+e@8+X+7++++++++",
"+++++++++++A+A+A+A+A+A+A+A+A+A+A+U+h@o@}+2+a@i+b@0@e+l+6+d+}@*@8@p+y+e+F+e+y@p@8@q+m+d@r+}+@++++++++",
"+++++++++++++A+A+A+A+A+A+A+A+A+A+A+u+h@[@4+0+r@s@i+b+k+5@e+N@&+6+{@t+d+E+d@t+{+6@&+N@e@e@u++++++++++",
"+++++++++++++A+A+A+A+A+A+A+A+A+A+A+A+J+U+h@o+v+0+r+D@<+4+b+W@%+5@v@7@7@e@7@7@v+5@%+W+b+k++++++++++++",
"+++++++++++++++A+A+A+A+A+A+A+A+A+A+A+A+A+u+U+h@o+q+0+2@_+D@w@{@x+4@y@1@n@1@y+4@x@{@w@z++++++++++++++",
"+++++++++++++++++A+A+A+A+A+A+A+A+A+A+A+A+A+A+u+U+h@(+i+v+0+V+2+r@m@m+3+3+3@m@m+r+2@A++++++++++++++++",
"+++++++++++++++++++A+A+A+A+A+A+A+A+A+A+A+A+A+A+A+u+U+o+h@[+K+i@4+q+v@}@}@}+v+q+v@B++++++++++++++++++",
"+++++++++++++++++++++++A+A+A+A+A+A+A+A+A+A+A+A+A+A+A+J+u+u+U+U+p+p+p+h+B+B+p+p++++++++++++++++++++++",
"+++++++++++++++++++++++++A+A+A+A+A+A+A+A+A+A+A+A+A+A+A+A+A+A+A+J+J+u+u+u+u+o++++++++++++++++++++++++",
"+++++++++++++++++++++++++++++A+A+A+A+A+A+A+A+A+A+A+A+A+A+A+A+A+A+A+A+A+A++++++++++++++++++++++++++++",
"+++++++++++++++++++++++++++++++++A+A+A+A+A+A+A+A+A+A+A+A+A+A+A+A+A+A++++++++++++++++++++++++++++++++",
"+++++++++++++++++++++++++++++++++++++++A+A+A+A+A+A+A+A+A+A+A+A++++++++++++++++++++++++++++++++++++++",
"++++++++++++++++++++++++++++++++++++++++++++++++++++++++++++++++++++++++++++++++++++++++++++++++++++"};
