/* XPM */
static char * ball_red_xpm[] = {
"50 50 150 2",
"@x c #12AB8C",
"@w c #13AF8E",
"@v c #14B896",
"@u c #14BB99",
"@t c #14BD99",
"@s c #17D3AB",
"@r c #15CCA5",
"@q c #16CCA5",
"@p c #17D5AE",
"@o c #17D4AD",
"@n c #13BA96",
"@m c #15C6A0",
"@l c #14BD9A",
"@k c #13B493",
"@j c #15C49F",
"@i c #16D2AA",
"@h c #15C9A2",
"@g c #14C29E",
"@f c #13B693",
"@e c #12B190",
"@d c #18E3B8",
"@c c #14C29D",
"@b c #12AC8C",
"@a c #16D4AC",
"@0 c #16CEA6",
"@9 c #15C7A2",
"@8 c #13B997",
"@7 c #13B391",
"@6 c #16D3AC",
"@5 c #15CAA4",
"@4 c #14C39E",
"@3 c #16CFA7",
"@2 c #12AA8A",
"@1 c #17DDB4",
"@| c #14C49F",
"@} c #14BC98",
"@[ c #17D6AF",
"@< c #16D0A8",
"@: c #14C09B",
"@_ c #17D9B0",
"@( c #13B492",
"@/ c #75EED5",
"@^ c #9CF3E1",
"@] c #4AEAC8",
"@{ c #1EE5BB",
"@~ c #13B996",
"@! c #56EBCB",
"@) c #D7FAF2",
"@' c #F2FCFB",
"@, c #9CF3E0",
"@> c #2AE6BE",
"@; c #FEFEFE",
"@- c #FAFDFD",
"@= c #B1F6E7",
"@* c #30E7C0",
"@& c #16D2AB",
"@% c #15CAA3",
"@$ c #14C19C",
"@# c #13B896",
"@@ c #AFF5E6",
"@+ c #E6FCF7",
"+Z c #D6FAF2",
"+Y c #74EED4",
"+X c #24E5BC",
"+W c #14C09D",
"+V c #13B190",
"+U c #12A989",
"+T c #20E5BC",
"+S c #40E8C5",
"+R c #65EDD0",
"+Q c #55EBCB",
"+P c #2DE6BF",
"+O c #17DDB3",
"+N c #17D7B0",
"+M c #16D1A9",
"+L c #14BF9B",
"+K c #13B795",
"+J c #12AC8B",
"+I c #12A889",
"+H c #12A787",
"+G c #1AE5BA",
"+F c #1DE5BB",
"+E c #1CE5BA",
"+D c #16CFA8",
"+C c #14BE9B",
"+B c #12AF8E",
"+A c #12AB8B",
"+z c #12A788",
"+y c #17DAB2",
"+x c #17D5AD",
"+w c #15C5A0",
"+v c #14BC99",
"+u c #12A888",
"+t c #15CBA4",
"+s c #14BA97",
"+r c #13B392",
"+q c #12AE8D",
"+p c #12AA89",
"+o c #12A988",
"+n c #16D1AA",
"+m c #15C9A3",
"+l c #14C19D",
"+k c #13B895",
"+j c #13B290",
"+i c #12AD8D",
"+h c #12AA8B",
"+g c #17DBB2",
"+f c #17D6AE",
"+e c #16CEA7",
"+d c #15C6A1",
"+c c #14BE9A",
"+b c #13B694",
"+a c #12B08F",
"+0 c #12AD8C",
"+9 c #18E1B6",
"+8 c #18DDB4",
"+7 c #17D9B1",
"+6 c #15CCA4",
"+5 c #14C39F",
"+4 c #14BB98",
"+3 c #13B593",
"+2 c #13B291",
"+1 c #17DCB3",
"+| c #17D7AF",
"+} c #16D0A9",
"+[ c #15C8A2",
"+< c #14C09C",
"+: c #13BA97",
"+_ c #15C29E",
"+( c #18E1B7",
"+/ c #18DEB4",
"+^ c #17DAB1",
"+] c #16D5AD",
"+{ c #16CDA6",
"+~ c #15C7A1",
"+! c #14C49E",
"+) c #18E2B8",
"+' c #18E0B6",
"+, c #18DDB3",
"+> c #17D8B0",
"+; c #16D3AB",
"+- c #18DCB3",
"+= c #18DFB5",
"+* c #17DEB5",
"+& c #18DEB5",
"+% c #18E2B7",
"+$ c #19E5BA",
"+# c #18E3B9",
"+@ c #18E4B9",
"++ c None",
"++++++++++++++++++++++++++++++++++++++++++++++++++++++++++++++++++++++++++++++++++++++++++++++++++++",
"+++++++++++++++++++++++++++++++++++++@+#+@+@+@+$+$+$+$+$+$+$+$+$++++++++++++++++++++++++++++++++++++",
"+++++++++++++++++++++++++++++++%+&+*+=+%+#+@+@+$+$+$+$+$+$+$+$+$+$+$+$++++++++++++++++++++++++++++++",
"+++++++++++++++++++++++++++-+;+;+>+,+'+)+#+@+$+$+$+$+$+$+$+$+$+$+$+$+$+$+$++++++++++++++++++++++++++",
"+++++++++++++++++++++++++!+~+{+]+^+/+(+#+@+@+$+$+$+$+$+$+$+$+$+$+$+$+$+$+$+$+$++++++++++++++++++++++",
"+++++++++++++++++++++_+:+<+[+}+|+1+=+%+#+@+@+$+$+$+$+$+$+$+$+$+$+$+$+$+$+$+$+$+$++++++++++++++++++++",
"+++++++++++++++++++2+3+4+5+6+;+7+8+9+)+@+@+$+$+$+$+$+$+$+$+$+$+$+$+$+$+$+$+$+$+$+$++++++++++++++++++",
"+++++++++++++++++0+a+b+c+d+e+f+g+=+(+#+@+@+$+$+$+$+$+$+$+$+$+$+$+$+$+$+$+$+$+$+$+$+$++++++++++++++++",
"+++++++++++++++h+i+j+k+l+m+n+>+1+'+)+#+@+@+$+$+$+$+$+$+$+$+$+$+$+$+$+$+$+$+$+$+$+$+$+$++++++++++++++",
"+++++++++++++o+p+q+r+s+5+t+;+^+/+9+#+@+@+$+$+$+$+$+$+$+$+$+$+$+$+$+$+$+$+$+$+$+$+$+$+$+$++++++++++++",
"+++++++++++++u+h+q+3+v+w+{+x+y+=+(+#+@+@+$+$+$+$+$+$+$+$+$+$+$+$+$+$+$+$+$+$+$+$+$+$+$+$+$++++++++++",
"+++++++++++z+u+A+B+b+C+~+D+f+1+=+)+#+@+$+$+$+$+$+$+$+$+$+$+$+$+$+$+$+$+E+F+G+$+$+$+$+$+$+$+$++++++++",
"+++++++++H+z+I+J+a+K+L+[+M+N+O+'+)+@+@+$+$+$+$+$+$+$+$+$+$+$+$+$+$+G+P+Q+R+S+T+$+$+$+$+$+$+$++++++++",
"+++++++++H+z+U+J+V+k+W+m+n+>+,+'+)+@+@+$+$+$+$+$+$+$+$+$+$+$+$+$+$+X+Y+Z@+@@+S+G+$+$+$+$+$+$+$++++++",
"+++++++H+H+z+U+J+V@#@$@%@&+>+8+9+#+@+@+$+$+$+$+$+$+$+$+$+$+$+$+$+$@*@=@-@;@++R+F+$+$+$+$+$+$+$++++++",
"+++++++H+H+z+U+i+V@#+l@%@&+7+/+9+#+@+@+$+$+$+$+$+$+$+$+$+$+$+$+$+$@>@,@'@-@)@!+E+$+$+$+$+$+$+$+$++++",
"+++++H+H+H+z+U+i+V@~+l@%@&+7+/+9+#+@+@+$+$+$+$+$+$+$+$+$+$+$+$+$+$@{@]@^@=@/+P+$+$+$+$+$+$+$+$+$++++",
"+++++H+H+H+z+U+J+V@#@$@%@&+>+8+9+#+@+@+$+$+$+$+$+$+$+$+$+$+$+$+$+$+$@{@>@*+X+G+$+$+$+$+$+$+$+$+$++++",
"+++++H+H+H+z+U+J+V+k+W+m+n+>+,+'+)+@+@+$+$+$+$+$+$+$+$+$+$+$+$+$+$+$+$+$+$+$+$+$+$+$+$+$+$+$+$+$+$++",
"+++H+H+H+H+z+I+J+a+K+L+[+M+N+O+'+)+@+@+$+$+$+$+$+$+$+$+$+$+$+$+$+$+$+$+$+$+$+$+$+$+$+$+$+$+$+$+$+$++",
"+++H+H+H+H+z+u+A+B+b+C+~+D+f+1+'+)+#+@+$+$+$+$+$+$+$+$+$+$+$+$+$+$+$+$+$+$+$+$+$+$+$+$+$+$+$+$+$+$++",
"+++H+H+H+H+H+u+h+q+3+v+w+{+x+y+=+(+#+@+@+$+$+$+$+$+$+$+$+$+$+$+$+$+$+$+$+$+$+$+$+$+$+$+$+$+$+$+$+$++",
"+++H+H+H+H+H+u+p+q+r+s+5+t+;+^+/+9+#+@+@+$+$+$+$+$+$+$+$+$+$+$+$+$+$+$+$+$+$+$+$+$+$+$+$+$+$+$+$+$++",
"+++H+H+H+H+H+z+U+i+j+k+l+m+n+>+1+'+)+#+@+@+$+$+$+$+$+$+$+$+$+$+$+$+$+$+$+$+$+$+$+$+$+$+$+$+$+$+$+$++",
"+++H+H+H+H+H+z+U+A+a+b+c+d+e+x+g+=+(+#+@+@+$+$+$+$+$+$+$+$+$+$+$+$+$+$+$+$+$+$+$+$+$+$+$+$+$+$+$+$++",
"+++H+H+H+H+H+H+u+h+q@(+4+5+t+;@_+8+'+)+#+@+@+$+$+$+$+$+$+$+$+$+$+$+$+$+$+$+$+$+$+$+$+$+$+$+$+$+$+$++",
"+++H+H+H+H+H+H+z+U+i+V+k@:+[@<@[+g+=+(+#+@+@+$+$+$+$+$+$+$+$+$+$+$+$+$+$+$+$+$+$+$+$+$+$+$+$+$+$+$++",
"+++H+H+H+H+H+H+z+U+A+B+3@}@|+6+;@_@1+'+%+#+@+@+$+$+$+$+$+$+$+$+$+$+$+$+$+$+$+$+$+$+$+$+$+$+$+$+$+$++",
"+++H+H+H+H+H+H+H+u@2+i+j+k@:+[@3+x+^+/+9+)+#+@+@+$+$+$+$+$+$+$+$+$+$+$+$+$+$+$+$+$+$+$+$+$+$+$+$+$++",
"+++H+H+H+H+H+H+H+z+U+A+B+3@}@4@5+M+|+g+=+9+)+#+@+@+$+$+$+$+$+$+$+$+$+$+$+$+$+$+$+$+$+$+$+$+$+$+$+$++",
"+++H+H+H+H+H+H+H+H+u@2+i+V+K+c+w+{@6+>+1+=+9+)+#+@+@+@+$+$+$+$+$+$+$+$+$+$+$+$+$+$+$+$+$+$+@+@+@+@++",
"+++++H+H+H+H+H+H+H+z+U+A+q@7@8+<@9@0@a@_+1+=+9+)+#+@+@+@+@+$+$+$+$+$+$+$+$+$+$+$+$+$+$+@+@+@+@+@+$++",
"+++++H+H+H+H+H+H+H+H+z+U@b+a+3+4@c+[@3@a@_+1+&+9+%+)+#+@+@+@+@+$+$+$+$+$+$+$+$+$+@+@+@+@+#+#+#@d++++",
"+++++H+H+H+H+H+H+H+H+H+u@2+0@e@f+v@g@h@3@6+>+g+8+'+9+%+)+#+#+@+@+@+@+@+@+@+@+@+@+@+#+#+#+)+%+(@d++++",
"+++++++H+H+H+H+H+H+H+H+z+u+A+i+V+b+v@c+[+{@i@[+7+1+/+'+9+%+)+#+#+#+#+#+#+#+#+#+#+#+)+%+(+'+=+=+@++++",
"+++++++H+H+H+H+H+H+H+H+H+z+U+A+q+j+b+4+l+d+6+}@a+|+^+1+/+=+'+9+(+(+%+)+)+)+%+(+(+9+'+=+/+O+g+*++++++",
"+++++++++H+H+H+H+H+H+H+H+H+z+U+A+q@e+3+:+L@j+m@0+n+]+|+^+g+1+8+/+=+=+=+=+=+=+=+/+8+O+g+^+>+|+%++++++",
"+++++++++H+H+H+H+H+H+H+H+H+H+z+U+A+i+a@k+k@l+l@m@%@0+M@6+f+>@_+^+y+g+g+1+g+g+y+^@_+>+f@a+n@_++++++++",
"+++++++++++H+H+H+H+H+H+H+H+H+H+z+U@2@b+B+2+b@n+c@c@m@h+6+e@<@&@a@o@p+f+f+f@p@o@a@&+M+e@q@<+@++++++++",
"+++++++++++++H+H+H+H+H+H+H+H+H+H+z+u@2+A+i+a@7+b@n+c+l+5+d+[@%@r+{+e+e@3+e+e+{@r@%+[+d@m@s++++++++++",
"+++++++++++++H+H+H+H+H+H+H+H+H+H+H+H+u+U+h@b+q+a@7+b+k+4+c+<+l@4@j+w+w+d+w+w@j@4+l+<+c+l++++++++++++",
"+++++++++++++++H+H+H+H+H+H+H+H+H+H+H+H+z+u+U+h@b+q+a+j@(+b+K@~+s+4+v+v@t+v+v@u+s@~+K@v++++++++++++++",
"+++++++++++++++++H+H+H+H+H+H+H+H+H+H+H+H+H+z+u+U+h+A+i+q+a+V+j+r@(@k+3+3+3@k@(+r+j+r++++++++++++++++",
"+++++++++++++++++++H+H+H+H+H+H+H+H+H+H+H+H+H+H+z+u+U+U+h+A+J+i+i+q+q+B+B+B+q+q+q@w++++++++++++++++++",
"+++++++++++++++++++++++H+H+H+H+H+H+H+H+H+H+H+H+H+H+z+I+u+u+U+U+p@2@2+h@x@x@2@2++++++++++++++++++++++",
"+++++++++++++++++++++++++H+H+H+H+H+H+H+H+H+H+H+H+H+H+H+H+z+z+z+I+u+u+u+u+u+o++++++++++++++++++++++++",
"+++++++++++++++++++++++++++++H+H+H+H+H+H+H+H+H+H+H+H+H+H+H+H+H+H+H+H+H+z++++++++++++++++++++++++++++",
"+++++++++++++++++++++++++++++++++H+H+H+H+H+H+H+H+H+H+H+H+H+H+H+H+H+H++++++++++++++++++++++++++++++++",
"+++++++++++++++++++++++++++++++++++++++H+H+H+H+H+H+H+H+H+H+H+H++++++++++++++++++++++++++++++++++++++",
"++++++++++++++++++++++++++++++++++++++++++++++++++++++++++++++++++++++++++++++++++++++++++++++++++++"};
