/* XPM */
static char * ball_red_xpm[] = {
"50 50 129 2",
"@c c #66AF13",
"@b c #69B413",
"@a c #68B213",
"@0 c #6BB814",
"@9 c #6BB713",
"@8 c #69B613",
"@7 c #7BD317",
"@6 c #72C314",
"@5 c #78CC16",
"@4 c #7BD417",
"@3 c #7DD917",
"@2 c #73C615",
"@1 c #6EBD14",
"@| c #67B012",
"@} c #72C415",
"@[ c #67B112",
"@< c #83E218",
"@: c #71C214",
"@_ c #6CBB14",
"@( c #7BD416",
"@/ c #78CE16",
"@^ c #6CB913",
"@] c #77CA15",
"@{ c #72C414",
"@~ c #79D016",
"@! c #7AD316",
"@) c #68B413",
"@' c #64AB12",
"@, c #62A912",
"@> c #B6EE75",
"@; c #9FEA4A",
"@- c #88E51E",
"@= c #6BB913",
"@* c #A5EB56",
"@& c #E9FAD7",
"@% c #F8FCF2",
"@$ c #CAF39C",
"@# c #8EE62A",
"@@ c #FEFEFE",
"@+ c #FCFDFA",
"+Z c #D5F6B1",
"+Y c #92E730",
"+X c #7AD216",
"+W c #76CA15",
"+V c #D5F5AF",
"+U c #F2FCE6",
"+T c #E9FAD6",
"+S c #B5EE74",
"+R c #8BE524",
"+Q c #75C915",
"+P c #6FC014",
"+O c #67B113",
"+N c #89E520",
"+M c #9AE840",
"+L c #ADED65",
"+K c #A5EB55",
"+J c #90E62D",
"+I c #80DD17",
"+H c #7DD717",
"+G c #79D116",
"+F c #6FBF14",
"+E c #6AB713",
"+D c #64AC12",
"+C c #86E51A",
"+B c #88E51D",
"+A c #87E51C",
"+z c #7FDC17",
"+y c #79CF16",
"+x c #66AF12",
"+w c #63AB12",
"+v c #62A712",
"+u c #7FDA17",
"+t c #7CD517",
"+s c #73C515",
"+r c #6DBC14",
"+q c #66AE12",
"+p c #62A812",
"+o c #77CB15",
"+n c #6CBA14",
"+m c #68B313",
"+l c #65AE12",
"+k c #63A912",
"+j c #82E018",
"+i c #7AD116",
"+h c #76C915",
"+g c #70C114",
"+f c #6BB813",
"+e c #64AD12",
"+d c #63AA12",
"+c c #7FDB17",
"+b c #7CD617",
"+a c #79CE16",
"+0 c #74C615",
"+9 c #6EBE14",
"+8 c #6AB613",
"+7 c #66B012",
"+6 c #65AD12",
"+5 c #7ED917",
"+4 c #77CC15",
"+3 c #71C314",
"+2 c #6DBB14",
"+1 c #69B513",
"+| c #67B213",
"+} c #80DC17",
"+[ c #7CD717",
"+< c #7AD016",
"+: c #75C815",
"+_ c #70C014",
"+( c #6CBA13",
"+/ c #71C215",
"+^ c #83E118",
"+] c #7EDA17",
"+{ c #7BD516",
"+~ c #78CD16",
"+! c #74C715",
"+) c #73C414",
"+' c #83E018",
"+, c #81DD18",
"+> c #7DD817",
"+; c #7BD316",
"+- c #80DC18",
"+= c #82DF18",
"+* c #81DE17",
"+& c #81DE18",
"+% c #84E218",
"+$ c #86E519",
"+# c #84E318",
"+@ c #85E418",
"++ c None",
"++++++++++++++++++++++++++++++++++++++++++++++++++++++++++++++++++++++++++++++++++++++++++++++++++++",
"+++++++++++++++++++++++++++++++++++++@+#+@+@+@+$+$+$+$+$+$+$+$+$++++++++++++++++++++++++++++++++++++",
"+++++++++++++++++++++++++++++++%+&+*+=+%+#+@+@+$+$+$+$+$+$+$+$+$+$+$+$++++++++++++++++++++++++++++++",
"+++++++++++++++++++++++++++-+;+;+>+,+'+%+#+@+$+$+$+$+$+$+$+$+$+$+$+$+$+$+$++++++++++++++++++++++++++",
"+++++++++++++++++++++++++)+!+~+{+]+&+^+#+@+@+$+$+$+$+$+$+$+$+$+$+$+$+$+$+$+$+$++++++++++++++++++++++",
"+++++++++++++++++++++/+(+_+:+<+[+}+=+%+#+@+@+$+$+$+$+$+$+$+$+$+$+$+$+$+$+$+$+$+$++++++++++++++++++++",
"+++++++++++++++++++|+1+2+3+4+;+5+,+^+%+@+@+$+$+$+$+$+$+$+$+$+$+$+$+$+$+$+$+$+$+$+$++++++++++++++++++",
"+++++++++++++++++6+7+8+9+0+a+b+c+=+^+#+@+@+$+$+$+$+$+$+$+$+$+$+$+$+$+$+$+$+$+$+$+$+$++++++++++++++++",
"+++++++++++++++d+e+|+f+g+h+i+>+}+j+%+#+@+@+$+$+$+$+$+$+$+$+$+$+$+$+$+$+$+$+$+$+$+$+$+$++++++++++++++",
"+++++++++++++k+d+l+m+n+3+o+;+]+&+^+#+@+@+$+$+$+$+$+$+$+$+$+$+$+$+$+$+$+$+$+$+$+$+$+$+$+$++++++++++++",
"+++++++++++++p+d+q+1+r+s+~+t+u+=+^+#+@+@+$+$+$+$+$+$+$+$+$+$+$+$+$+$+$+$+$+$+$+$+$+$+$+$+$++++++++++",
"+++++++++++v+p+w+x+8+9+!+y+b+z+=+%+#+@+$+$+$+$+$+$+$+$+$+$+$+$+$+$+$+$+A+B+C+$+$+$+$+$+$+$+$++++++++",
"+++++++++v+v+p+D+7+E+F+:+G+H+I+'+%+@+@+$+$+$+$+$+$+$+$+$+$+$+$+$+$+C+J+K+L+M+N+$+$+$+$+$+$+$++++++++",
"+++++++++v+v+k+D+O+f+P+Q+i+>+,+'+%+@+@+$+$+$+$+$+$+$+$+$+$+$+$+$+$+R+S+T+U+V+M+C+$+$+$+$+$+$+$++++++",
"+++++++v+v+v+k+D+O+f+g+W+X+>+,+^+#+@+@+$+$+$+$+$+$+$+$+$+$+$+$+$+$+Y+Z@+@@+U+L+B+$+$+$+$+$+$+$++++++",
"+++++++v+v+v+k+e+O+f+g+W+X+5+&+^+#+@+@+$+$+$+$+$+$+$+$+$+$+$+$+$+$@#@$@%@+@&@*+A+$+$+$+$+$+$+$+$++++",
"+++++v+v+v+v+k+e+O@=+g+W+X+5+&+^+#+@+@+$+$+$+$+$+$+$+$+$+$+$+$+$+$@-@;@$+Z@>+J+$+$+$+$+$+$+$+$+$++++",
"+++++v+v+v+v+k+D+O+f+g+W+X+>+,+^+#+@+@+$+$+$+$+$+$+$+$+$+$+$+$+$+$+$@-@#+Y+R+C+$+$+$+$+$+$+$+$+$++++",
"+++++v+v+v+v+k+D+O+f+P+Q+i+>+,+'+%+@+@+$+$+$+$+$+$+$+$+$+$+$+$+$+$+$+$+$+$+$+$+$+$+$+$+$+$+$+$+$+$++",
"+++v+v+v+v+v+p+D+7+E+F+:+G+H+I+'+%+@+@+$+$+$+$+$+$+$+$+$+$+$+$+$+$+$+$+$+$+$+$+$+$+$+$+$+$+$+$+$+$++",
"+++v+v+v+v+v+p+w+x+8+9+!+y+b+z+j+%+#+@+$+$+$+$+$+$+$+$+$+$+$+$+$+$+$+$+$+$+$+$+$+$+$+$+$+$+$+$+$+$++",
"+++v+v+v+v+v+p+d+q+1+r+s+~+t+u+=+^+#+@+@+$+$+$+$+$+$+$+$+$+$+$+$+$+$+$+$+$+$+$+$+$+$+$+$+$+$+$+$+$++",
"+++v+v+v+v+v+p+d+l+m+n+3+o+;+]+&+^+#+@+@+$+$+$+$+$+$+$+$+$+$+$+$+$+$+$+$+$+$+$+$+$+$+$+$+$+$+$+$+$++",
"+++v+v+v+v+v+v+k+e+|+f+g+h+i+>+}+j+%+#+@+@+$+$+$+$+$+$+$+$+$+$+$+$+$+$+$+$+$+$+$+$+$+$+$+$+$+$+$+$++",
"+++v+v+v+v+v+v@,@'+7+8+9+0+a+t+c+=+^+#+@+@+$+$+$+$+$+$+$+$+$+$+$+$+$+$+$+$+$+$+$+$+$+$+$+$+$+$+$+$++",
"+++v+v+v+v+v+v+p+d+l@)+2+3+o@!+5+,+'+%+#+@+@+$+$+$+$+$+$+$+$+$+$+$+$+$+$+$+$+$+$+$+$+$+$+$+$+$+$+$++",
"+++v+v+v+v+v+v+v+k+e+O+f+P+:@~+b+c+=+^+#+@+@+$+$+$+$+$+$+$+$+$+$+$+$+$+$+$+$+$+$+$+$+$+$+$+$+$+$+$++",
"+++v+v+v+v+v+v+v@,@'+x+1+r@{+4@!+5+I+j+%+#+@+@+$+$+$+$+$+$+$+$+$+$+$+$+$+$+$+$+$+$+$+$+$+$+$+$+$+$++",
"+++v+v+v+v+v+v+v+p+d+6+|+f+P+:+y+t+]+&+^+%+#+@+@+$+$+$+$+$+$+$+$+$+$+$+$+$+$+$+$+$+$+$+$+$+$+$+$+$++",
"+++v+v+v+v+v+v+v+v@,@'+x+1+r+3@]+i+H+c+=+^+%+#+@+@+$+$+$+$+$+$+$+$+$+$+$+$+$+$+$+$+$+$+$+$+$+$+$+$++",
"+++v+v+v+v+v+v+v+v+p+d+6+O+E+9+s+~+;+>+}+=+^+%+#+@+@+@+$+$+$+$+$+$+$+$+$+$+$+$+$+$+$+$+$+$+@+@+@+@++",
"+++++v+v+v+v+v+v+v+v@,+w+l+m@^+_+!@/@(+5+}+=+^+%+#+@+@+@+@+$+$+$+$+$+$+$+$+$+$+$+$+$+$+@+@+@+@+@+$++",
"+++++v+v+v+v+v+v+v+v+v+k+D+7+1@_@:+:+y@(+5+}+&+^@<+%+#+@+@+@+@+$+$+$+$+$+$+$+$+$+@+@+@+@+#+#+#+#++++",
"+++++v+v+v+v+v+v+v+v+v+p+d+6@[+8+r@:+Q+y+;+>+c+,+j+^+%+%+#+#+@+@+@+@+@+@+@+@+@+@+@+#+#+#+%@<+^+#++++",
"+++++++v+v+v+v+v+v+v+v+v+p+w+6+O+8+r@:+:+~+X+b+5+}+&+j+^@<+%+#+#+#+#+#+#+#+#+#+#+#+%@<+^+'+=+=+@++++",
"+++++++v+v+v+v+v+v+v+v+v+v@,+w+l+|+8+2+g+0+4+<@(+H+]+}+&+=+j+^+^+^+%+%+%+%+%+^+^+^+j+=+&+I+c+*++++++",
"+++++++++v+v+v+v+v+v+v+v+v+v@,+w+l@[+1+(+F@}+h@/+i+{+H+]+c+}+,+&+=+=+=+=+=+=+=+&+,+I+c+]+>+H+%++++++",
"+++++++++v+v+v+v+v+v+v+v+v+v+v@,+w+6@|@)+f@1+g@2+W@/+i+;+b+>@3+]+u+c+c+z+c+c+u+]@3+>+b@(+i+5++++++++",
"+++++++++++v+v+v+v+v+v+v+v+v+v+v@,+d+D+x+|+8+(+9@:@2+Q+4+a@~+X@(@4+t+b+b+b+t@4@(+X+G+a@5+<+@++++++++",
"+++++++++++++v+v+v+v+v+v+v+v+v+v+v+p+d@'+6@|+m+8+(+9+g@6+0+:+W+4+~+a+a+y+a+a+~+4+W+:+0@2@7++++++++++",
"+++++++++++++v+v+v+v+v+v+v+v+v+v+v+v+p@,+d+D+l@|+m+8+f+2+9+P+g+3@}+s+s@2+s+s@}+3+g+P+9+g++++++++++++",
"+++++++++++++++v+v+v+v+v+v+v+v+v+v+v+v+v+p+k+d+D+l+7+|@)@8@9@=+n+2+r+r@1+r+r+2+n@=@9@0++++++++++++++",
"+++++++++++++++++v+v+v+v+v+v+v+v+v+v+v+v+v+v+p+k+d@'+e+l+7+O@a+m@)@b+1+1+1@b@)+m@a+m++++++++++++++++",
"+++++++++++++++++++v+v+v+v+v+v+v+v+v+v+v+v+v+v+v+p@,+k+d@'+D+e+6+l+q+x+x+x+q+l+l@c++++++++++++++++++",
"+++++++++++++++++++++++v+v+v+v+v+v+v+v+v+v+v+v+v+v+v+p+p+p+k+k+d+d+d+d+w+w+d+d++++++++++++++++++++++",
"+++++++++++++++++++++++++v+v+v+v+v+v+v+v+v+v+v+v+v+v+v+v+v+v+v+p+p+p+p+p+p+k++++++++++++++++++++++++",
"+++++++++++++++++++++++++++++v+v+v+v+v+v+v+v+v+v+v+v+v+v+v+v+v+v+v+v+v+v++++++++++++++++++++++++++++",
"+++++++++++++++++++++++++++++++++v+v+v+v+v+v+v+v+v+v+v+v+v+v+v+v+v+v++++++++++++++++++++++++++++++++",
"+++++++++++++++++++++++++++++++++++++++v+v+v+v+v+v+v+v+v+v+v+v++++++++++++++++++++++++++++++++++++++",
"++++++++++++++++++++++++++++++++++++++++++++++++++++++++++++++++++++++++++++++++++++++++++++++++++++"};
