/* XPM */
static char * ball_red_xpm[] = {
"50 50 113 2",
"@< c #AFA713",
"@: c #B8AF14",
"@_ c #D3C917",
"@( c #CCC216",
"@/ c #D4CA17",
"@^ c #C6BC15",
"@] c #BDB414",
"@{ c #C4BB15",
"@~ c #B1A912",
"@! c #B1A812",
"@) c #C2B914",
"@' c #D4CA16",
"@, c #C7BE15",
"@> c #DDD317",
"@; c #B4AB13",
"@- c #B3AB13",
"@= c #EEE875",
"@* c #EAE14A",
"@& c #E5DA1E",
"@% c #B9B013",
"@$ c #EBE356",
"@# c #FAF8D7",
"@@ c #FCFCF2",
"@+ c #F3EE9C",
"+Z c #E6DC2A",
"+Y c #FEFEFE",
"+X c #FDFDFA",
"+W c #F6F2B1",
"+V c #E7DD30",
"+U c #D2C816",
"+T c #CAC015",
"+S c #B1A913",
"+R c #F5F1AF",
"+Q c #FCFAE6",
"+P c #FAF8D6",
"+O c #EEE874",
"+N c #E5DB24",
"+M c #B1A813",
"+L c #E5DA20",
"+K c #E8DF40",
"+J c #EDE565",
"+I c #EBE355",
"+H c #E6DC2D",
"+G c #DDD217",
"+F c #C8BE15",
"+E c #BFB614",
"+D c #B7AE13",
"+C c #ACA412",
"+B c #E5DA1A",
"+A c #E5DA1D",
"+z c #E5DA1C",
"+y c #CFC516",
"+x c #AFA712",
"+w c #ABA312",
"+v c #A79F12",
"+u c #D5CB17",
"+t c #C5BC15",
"+s c #BCB314",
"+r c #A8A012",
"+q c #CBC115",
"+p c #BAB114",
"+o c #B3AA13",
"+n c #AEA612",
"+m c #A9A112",
"+l c #D1C716",
"+k c #C9BF15",
"+j c #C1B814",
"+i c #B8AF13",
"+h c #B2A913",
"+g c #AAA212",
"+f c #DBD117",
"+e c #D6CC17",
"+d c #CEC416",
"+c c #C6BD15",
"+b c #BEB514",
"+a c #B6AD13",
"+0 c #B0A812",
"+9 c #ADA512",
"+8 c #DDD318",
"+7 c #D9CF17",
"+6 c #CCC215",
"+5 c #C3BA14",
"+4 c #BBB214",
"+3 c #B5AC13",
"+2 c #B2AA13",
"+1 c #DCD217",
"+| c #D7CD17",
"+} c #D0C616",
"+[ c #C8BF15",
"+< c #C0B714",
"+: c #BAB113",
"+_ c #C2B915",
"+( c #E1D618",
"+/ c #DED318",
"+^ c #DAD017",
"+] c #D5CB16",
"+{ c #CDC316",
"+~ c #C7BD15",
"+! c #C4BB14",
"+) c #E0D518",
"+' c #DDD218",
"+, c #D8CE17",
"+> c #D3C916",
"+; c #D3C816",
"+- c #DCD218",
"+= c #DFD418",
"+* c #DED417",
"+& c #DED418",
"+% c #E2D718",
"+$ c #E5DA19",
"+# c #E3D818",
"+@ c #E4D918",
"++ c None",
"++++++++++++++++++++++++++++++++++++++++++++++++++++++++++++++++++++++++++++++++++++++++++++++++++++",
"+++++++++++++++++++++++++++++++++++++@+#+@+@+@+$+$+$+$+$+$+$+$+$++++++++++++++++++++++++++++++++++++",
"+++++++++++++++++++++++++++++++%+&+*+=+%+#+@+@+$+$+$+$+$+$+$+$+$+$+$+$++++++++++++++++++++++++++++++",
"+++++++++++++++++++++++++++-+;+>+,+'+)+%+#+@+$+$+$+$+$+$+$+$+$+$+$+$+$+$+$++++++++++++++++++++++++++",
"+++++++++++++++++++++++++!+~+{+]+^+/+(+#+@+@+$+$+$+$+$+$+$+$+$+$+$+$+$+$+$+$+$++++++++++++++++++++++",
"+++++++++++++++++++++_+:+<+[+}+|+1+=+%+#+@+@+$+$+$+$+$+$+$+$+$+$+$+$+$+$+$+$+$+$++++++++++++++++++++",
"+++++++++++++++++++2+3+4+5+6+>+7+8+(+%+@+@+$+$+$+$+$+$+$+$+$+$+$+$+$+$+$+$+$+$+$+$++++++++++++++++++",
"+++++++++++++++++9+0+a+b+c+d+e+f+=+(+#+@+@+$+$+$+$+$+$+$+$+$+$+$+$+$+$+$+$+$+$+$+$+$++++++++++++++++",
"+++++++++++++++g+9+h+i+j+k+l+,+1+)+%+#+@+@+$+$+$+$+$+$+$+$+$+$+$+$+$+$+$+$+$+$+$+$+$+$++++++++++++++",
"+++++++++++++m+g+n+o+p+5+q+>+^+/+(+#+@+@+$+$+$+$+$+$+$+$+$+$+$+$+$+$+$+$+$+$+$+$+$+$+$+$++++++++++++",
"+++++++++++++r+g+n+3+s+t+{+u+^+=+(+#+@+@+$+$+$+$+$+$+$+$+$+$+$+$+$+$+$+$+$+$+$+$+$+$+$+$+$++++++++++",
"+++++++++++v+r+w+x+a+b+~+y+e+1+=+%+#+@+$+$+$+$+$+$+$+$+$+$+$+$+$+$+$+$+z+A+B+$+$+$+$+$+$+$+$++++++++",
"+++++++++v+v+r+C+0+D+E+F+l+|+G+)+%+@+@+$+$+$+$+$+$+$+$+$+$+$+$+$+$+B+H+I+J+K+L+$+$+$+$+$+$+$++++++++",
"+++++++++v+v+m+C+M+i+<+k+l+,+'+)+%+@+@+$+$+$+$+$+$+$+$+$+$+$+$+$+$+N+O+P+Q+R+K+B+$+$+$+$+$+$+$++++++",
"+++++++v+v+v+m+C+S+i+j+T+U+,+8+(+#+@+@+$+$+$+$+$+$+$+$+$+$+$+$+$+$+V+W+X+Y+Q+J+A+$+$+$+$+$+$+$++++++",
"+++++++v+v+v+m+9+S+i+j+T+U+7+/+(+#+@+@+$+$+$+$+$+$+$+$+$+$+$+$+$+$+Z@+@@+X@#@$+z+$+$+$+$+$+$+$+$++++",
"+++++v+v+v+v+m+9+S@%+j+T+U+7+/+(+#+@+@+$+$+$+$+$+$+$+$+$+$+$+$+$+$@&@*@++W@=+H+$+$+$+$+$+$+$+$+$++++",
"+++++v+v+v+v+m+C+S+i+j+T+U+,+8+(+#+@+@+$+$+$+$+$+$+$+$+$+$+$+$+$+$+$@&+Z+V+N+B+$+$+$+$+$+$+$+$+$++++",
"+++++v+v+v+v+m+C+M+i+<+k+l+,+'+)+%+@+@+$+$+$+$+$+$+$+$+$+$+$+$+$+$+$+$+$+$+$+$+$+$+$+$+$+$+$+$+$+$++",
"+++v+v+v+v+v+r+C+0+D+E+F+l+|+G+)+%+@+@+$+$+$+$+$+$+$+$+$+$+$+$+$+$+$+$+$+$+$+$+$+$+$+$+$+$+$+$+$+$++",
"+++v+v+v+v+v+r+w+x+a+b+~+y+e+1+)+%+#+@+$+$+$+$+$+$+$+$+$+$+$+$+$+$+$+$+$+$+$+$+$+$+$+$+$+$+$+$+$+$++",
"+++v+v+v+v+v+r+g+n+3+s+t+{+u+^+=+(+#+@+@+$+$+$+$+$+$+$+$+$+$+$+$+$+$+$+$+$+$+$+$+$+$+$+$+$+$+$+$+$++",
"+++v+v+v+v+v+r+g+n@-+p+5+q+>+^+/+(+#+@+@+$+$+$+$+$+$+$+$+$+$+$+$+$+$+$+$+$+$+$+$+$+$+$+$+$+$+$+$+$++",
"+++v+v+v+v+v+v+m+9+h+i+j+k+l+,+1+)+%+#+@+@+$+$+$+$+$+$+$+$+$+$+$+$+$+$+$+$+$+$+$+$+$+$+$+$+$+$+$+$++",
"+++v+v+v+v+v+v+m+w+0+a+b+c+d+u+f+=+(+#+@+@+$+$+$+$+$+$+$+$+$+$+$+$+$+$+$+$+$+$+$+$+$+$+$+$+$+$+$+$++",
"+++v+v+v+v+v+v+r+g+n@;+4+5+q+>+7+8+)+%+#+@+@+$+$+$+$+$+$+$+$+$+$+$+$+$+$+$+$+$+$+$+$+$+$+$+$+$+$+$++",
"+++v+v+v+v+v+v+v+m+9+S+i+<+F+}+e+f+=+(+#+@+@+$+$+$+$+$+$+$+$+$+$+$+$+$+$+$+$+$+$+$+$+$+$+$+$+$+$+$++",
"+++v+v+v+v+v+v+v+m+w+x+3+s+!+6+>+7@>+)+%+#+@+@+$+$+$+$+$+$+$+$+$+$+$+$+$+$+$+$+$+$+$+$+$+$+$+$+$+$++",
"+++v+v+v+v+v+v+v+r+g+9+h+i+<+F+y+u+^+/+(+%+#+@+@+$+$+$+$+$+$+$+$+$+$+$+$+$+$+$+$+$+$+$+$+$+$+$+$+$++",
"+++v+v+v+v+v+v+v+v+m+w+x+3+s+5+T+l+|+f+=+(+%+#+@+@+$+$+$+$+$+$+$+$+$+$+$+$+$+$+$+$+$+$+$+$+$+$+$+$++",
"+++v+v+v+v+v+v+v+v+r+g+9+S+D+b+t+{+>+,+1+=+(+%+#+@+@+@+$+$+$+$+$+$+$+$+$+$+$+$+$+$+$+$+$+$+@+@+@+@++",
"+++++v+v+v+v+v+v+v+v+m+w+n+o@%+<@,+d@'+7+1+=+(+%+#+@+@+@+@+$+$+$+$+$+$+$+$+$+$+$+$+$+$+@+@+@+@+@+$++",
"+++++v+v+v+v+v+v+v+v+v+m+C+0+3+4@)+[+y@'+7+1+&+(+%+%+#+@+@+@+@+$+$+$+$+$+$+$+$+$+@+@+@+@+#+#+#+#++++",
"+++++v+v+v+v+v+v+v+v+v+r+g+9@!+a+s@)+k+y+>+,+f+8+)+(+%+%+#+#+@+@+@+@+@+@+@+@+@+@+@+#+#+#+%+%+(+#++++",
"+++++++v+v+v+v+v+v+v+v+v+r+w+9+S+a+s@)+F+{+U+e+7+1+/+)+(+%+%+#+#+#+#+#+#+#+#+#+#+#+%+%+(+)+=+=+@++++",
"+++++++v+v+v+v+v+v+v+v+v+v+m+w+n+h+a+4+j+c+6+}@'+|+^+1+/+=+)+(+(+(+%+%+%+%+%+(+(+(+)+=+/+G+f+*++++++",
"+++++++++v+v+v+v+v+v+v+v+v+v+m+w+n@~+3+:+E@{+k+d+l+]+|+^+f+1+8+/+=+=+=+=+=+=+=+/+8+G+f+^+,+|+%++++++",
"+++++++++v+v+v+v+v+v+v+v+v+v+v+m+w+9+0@;+i@]+j@^+T+d+l+>+e+,+7+^+^+f+f+1+f+f+^+^+7+,+e@'+l+7++++++++",
"+++++++++++v+v+v+v+v+v+v+v+v+v+v+m+g+C+x+2+a+:+b@)@^+k+6+d+}+U@'@/+u+e+e+e+u@/@'+U+l+d@(+}+@++++++++",
"+++++++++++++v+v+v+v+v+v+v+v+v+v+v+r+g+w+9+0+o+a+:+b+j+5+c+[+T+6+{+d+d+y+d+d+{+6+T+[+c+c@_++++++++++",
"+++++++++++++v+v+v+v+v+v+v+v+v+v+v+v+r+m+g+C+n+0+o+a+i+4+b+<+j+5@{+t+t@^+t+t@{+5+j+<+b+j++++++++++++",
"+++++++++++++++v+v+v+v+v+v+v+v+v+v+v+v+v+r+m+g+C+n+0+h@;+a+D@%+p+4+s+s@]+s+s+4+p@%+D@:++++++++++++++",
"+++++++++++++++++v+v+v+v+v+v+v+v+v+v+v+v+v+v+r+m+g+w+9+n+0+M+h+o@;@;+3+3+3@;@;+o+h+o++++++++++++++++",
"+++++++++++++++++++v+v+v+v+v+v+v+v+v+v+v+v+v+v+v+r+m+m+g+w+C+9+9+n+n+x+x+x+n+n+n@<++++++++++++++++++",
"+++++++++++++++++++++++v+v+v+v+v+v+v+v+v+v+v+v+v+v+v+r+r+r+m+m+g+g+g+g+w+w+g+g++++++++++++++++++++++",
"+++++++++++++++++++++++++v+v+v+v+v+v+v+v+v+v+v+v+v+v+v+v+v+v+v+r+r+r+r+r+r+m++++++++++++++++++++++++",
"+++++++++++++++++++++++++++++v+v+v+v+v+v+v+v+v+v+v+v+v+v+v+v+v+v+v+v+v+v++++++++++++++++++++++++++++",
"+++++++++++++++++++++++++++++++++v+v+v+v+v+v+v+v+v+v+v+v+v+v+v+v+v+v++++++++++++++++++++++++++++++++",
"+++++++++++++++++++++++++++++++++++++++v+v+v+v+v+v+v+v+v+v+v+v++++++++++++++++++++++++++++++++++++++",
"++++++++++++++++++++++++++++++++++++++++++++++++++++++++++++++++++++++++++++++++++++++++++++++++++++"};
