/* XPM */
static char * ball_red_xpm[] = {
"50 50 75 1",
"L c #B0B0B0",
"K c #C5C5C5",
"J c #BEBEBE",
"I c #A7A7A7",
"H c #9F9F9F",
"G c #DDDDDD",
"F c #ACACAC",
"E c #FCFCFC",
"D c #ECECEC",
"C c #D7D7D7",
"B c #FEFEFE",
"A c #FDFDFD",
"z c #C3C3C3",
"y c #BCBCBC",
"x c #F0F0F0",
"w c #FAFAFA",
"v c #F7F7F7",
"u c #E5E5E5",
"t c #D6D6D6",
"s c #9D9D9D",
"r c #DBDBDB",
"q c #E2E2E2",
"p c #DFDFDF",
"o c #D8D8D8",
"n c #B9B9B9",
"m c #AAAAAA",
"l c #C1C1C1",
"k c #A3A3A3",
"j c #9B9B9B",
"i c #B7B7B7",
"h c #AFAFAF",
"g c #A6A6A6",
"f c #A2A2A2",
"e c #9C9C9C",
"d c #BBBBBB",
"c c #B3B3B3",
"b c #ABABAB",
"a c #A0A0A0",
"0 c #9E9E9E",
"9 c #CCCCCC",
"8 c #C7C7C7",
"7 c #C0C0C0",
"6 c #B1B1B1",
"5 c #A9A9A9",
"4 c #A4A4A4",
"3 c #A1A1A1",
"2 c #CACACA",
"1 c #BDBDBD",
"| c #B5B5B5",
"} c #AEAEAE",
"[ c #A8A8A8",
"< c #A5A5A5",
": c #C8C8C8",
"_ c #C2C2C2",
"( c #BABABA",
"/ c #B2B2B2",
"^ c #ADADAD",
"] c #B4B4B4",
"{ c #D1D1D1",
"~ c #CBCBCB",
"! c #C6C6C6",
") c #BFBFBF",
"' c #B8B8B8",
", c #B6B6B6",
"> c #CECECE",
"; c #C9C9C9",
"- c #C4C4C4",
"= c #CDCDCD",
"* c #D0D0D0",
"& c #CFCFCF",
"% c #D2D2D2",
"$ c #D5D5D5",
"# c #D3D3D3",
"@ c #D4D4D4",
"+ c None",
"++++++++++++++++++++++++++++++++++++++++++++++++++",
"++++++++++++++++++@#@@@$$$$$$$$$++++++++++++++++++",
"+++++++++++++++%&&*%#@@$$$$$$$$$$$$+++++++++++++++",
"+++++++++++++=--;>*%#@$$$$$$$$$$$$$$$+++++++++++++",
"++++++++++++,')!~&{#@@$$$$$$$$$$$$$$$$$+++++++++++",
"++++++++++]^/(_:=*%#@@$$$$$$$$$$$$$$$$$$++++++++++",
"+++++++++<[}|1-2>{%@@$$$$$$$$$$$$$$$$$$$$+++++++++",
"++++++++3456'789&{#@@$$$$$$$$$$$$$$$$$$$$$++++++++",
"+++++++0a<bcd_;=*%#@@$$$$$$$$$$$$$$$$$$$$$$+++++++",
"++++++e0fg^|1-~&{#@@$$$$$$$$$$$$$$$$$$$$$$$$++++++",
"++++++e0f[hi)!~&{#@@$$$$$$$$$$$$$$$$$$$$$$$$$+++++",
"+++++je0k56'l8=*%#@$$$$$$$$$$$$$$$$$$$$$$$$$$$++++",
"++++jjea4m/n_:>*%@@$$$$$$$$$$$$$$$opqr$$$$$$$$++++",
"++++jjsa4b/(_;>*%@@$$$$$$$$$$$$$$tuvwxr$$$$$$$$+++",
"+++jjjsa<bcyz;>{#@@$$$$$$$$$$$$$$oxABwq$$$$$$$$+++",
"+++jjjsa<bcyz2&{#@@$$$$$$$$$$$$$$CDEAvp$$$$$$$$$++",
"++jjjjsa<Fcyz2&{#@@$$$$$$$$$$$$$$$GDxuo$$$$$$$$$++",
"++jjjjsa<bcyz;>{#@@$$$$$$$$$$$$$$$$Cot$$$$$$$$$$++",
"++jjjjsa4b/(_;>*%@@$$$$$$$$$$$$$$$$$$$$$$$$$$$$$$+",
"+jjjjjea4m/n_:>*%@@$$$$$$$$$$$$$$$$$$$$$$$$$$$$$$+",
"+jjjjje0k56'l8=*%#@$$$$$$$$$$$$$$$$$$$$$$$$$$$$$$+",
"+jjjjje0f[hi)!~&{#@@$$$$$$$$$$$$$$$$$$$$$$$$$$$$$+",
"+jjjjje0fg^|1-~&{#@@$$$$$$$$$$$$$$$$$$$$$$$$$$$$$+",
"+jjjjjjsa<bcd_;=*%#@@$$$$$$$$$$$$$$$$$$$$$$$$$$$$+",
"+jjjjjjeH456'7!9&{#@@$$$$$$$$$$$$$$$$$$$$$$$$$$$$+",
"+jjjjjje0fI}|1-2>*%#@@$$$$$$$$$$$$$$$$$$$$$$$$$$$+",
"+jjjjjjjsa<b/nl89&{#@@$$$$$$$$$$$$$$$$$$$$$$$$$$$+",
"+jjjjjjjeHk[h,1-2>*%#@@$$$$$$$$$$$$$$$$$$$$$$$$$$+",
"+jjjjjjjes3<b/n7!~&{%#@@$$$$$$$$$$$$$$$$$$$$$$$$$+",
"+jjjjjjjjeHk[h|y_:9&{%#@@$$$$$$$$$$$$$$$$$$$$$$$$+",
"+jjjjjjjjes3<m6iJ-;=*{%#@@@$$$$$$$$$$$$$$$$$$@@@@+",
"++jjjjjjjje0fgFcn)K2=&{%#@@@@$$$$$$$$$$$$$$@@@@@$+",
"++jjjjjjjjjsHk[^](7K2=&{%%#@@@@$$$$$$$$$@@@@####++",
"++jjjjjjjjjes345h|(7-;9>*{%%##@@@@@@@@@@@###%%{#++",
"+++jjjjjjjjje03<5h]n)z82=&*{%%###########%%{**&@++",
"+++jjjjjjjjjje03<5}c'1_K:~=&&*{{{%%%%%{{{**&>9&+++",
"++++jjjjjjjjjje03<[^/,d)_!:~9=>&&&***&&&>>9~;:%+++",
"++++jjjjjjjjjjje034IbL]id)_-8;2~~99=99~~2;8K_2++++",
"+++++jjjjjjjjjjje0ak<5^L]i(17lzKK!888!KKz_71_@++++",
"++++++jjjjjjjjjjjesH34g5^Lc|'(y1J77777J1y(''-+++++",
"++++++jjjjjjjjjjjjee0af4g5b}L/]|,ii'ii,|]/6c++++++",
"+++++++jjjjjjjjjjjjjes0afk<I5mF^}hhLhh}^Fmb+++++++",
"++++++++jjjjjjjjjjjjjjes0Hafk4<gII[[[IIg<g++++++++",
"+++++++++jjjjjjjjjjjjjjjees0Haa3ffkkkfffk+++++++++",
"+++++++++++jjjjjjjjjjjjjjjeeesss0000000+++++++++++",
"++++++++++++jjjjjjjjjjjjjjjjjjjeeeeeee++++++++++++",
"++++++++++++++jjjjjjjjjjjjjjjjjjjjjj++++++++++++++",
"++++++++++++++++jjjjjjjjjjjjjjjjjj++++++++++++++++",
"+++++++++++++++++++jjjjjjjjjjjj+++++++++++++++++++",
"++++++++++++++++++++++++++++++++++++++++++++++++++"};
