/* XPM */
static char * ball_red_xpm[] = {
"50 50 142 2",
"@p c #AA4F12",
"@o c #AF5313",
"@n c #B85814",
"@m c #C45D15",
"@l c #D36417",
"@k c #CC6016",
"@j c #D46517",
"@i c #BA5713",
"@h c #D96617",
"@g c #CA5E15",
"@f c #BD5914",
"@e c #C45C15",
"@d c #B55613",
"@c c #C65E15",
"@b c #E36A18",
"@a c #C25C14",
"@0 c #B65513",
"@9 c #B15312",
"@8 c #C25B14",
"@7 c #BB5814",
"@6 c #AC5112",
"@5 c #D46416",
"@4 c #CE6016",
"@3 c #C75E15",
"@2 c #B95813",
"@1 c #B35413",
"@| c #D86717",
"@} c #B75713",
"@[ c #BC5814",
"@< c #AF5212",
"@: c #D06116",
"@_ c #C05A14",
"@( c #B85613",
"@/ c #B45513",
"@^ c #AB5012",
"@] c #E6792D",
"@{ c #EEA675",
"@~ c #EA8B4A",
"@! c #E56F1E",
"@) c #B95713",
"@' c #EB9356",
"@, c #FAE5D7",
"@> c #FCF7F2",
"@; c #F3BF9C",
"@- c #E6772A",
"@= c #FEFEFE",
"@* c #FDFBFA",
"@& c #F6CDB1",
"@% c #E77B30",
"@$ c #D26316",
"@# c #CA5F15",
"@@ c #F5CCAF",
"@+ c #FCEFE6",
"+Z c #FAE5D6",
"+Y c #EEA674",
"+X c #E57324",
"+W c #B15413",
"+V c #A95012",
"+U c #E57020",
"+T c #E88540",
"+S c #ED9C65",
"+R c #EB9255",
"+Q c #E6782D",
"+P c #E56C1A",
"+O c #DD6817",
"+N c #D16216",
"+M c #BF5A14",
"+L c #B75613",
"+K c #AC5012",
"+J c #A85012",
"+I c #A74E12",
"+H c #E56D1A",
"+G c #E56E1D",
"+F c #E56E1C",
"+E c #D66617",
"+D c #CF6116",
"+C c #BE5A14",
"+B c #AF5312",
"+A c #AB5112",
"+z c #A74F12",
"+y c #DA6817",
"+x c #D56517",
"+w c #C55D15",
"+v c #BC5914",
"+u c #AE5212",
"+t c #A84F12",
"+s c #CB5F15",
"+r c #BA5814",
"+q c #B35513",
"+p c #AE5112",
"+o c #AA5012",
"+n c #A94F12",
"+m c #D16316",
"+l c #C95E15",
"+k c #C15B14",
"+j c #B85713",
"+i c #B25413",
"+h c #AD5212",
"+g c #AA5112",
"+f c #DB6817",
"+e c #D66517",
"+d c #CE6116",
"+c c #C65D15",
"+b c #BE5914",
"+a c #B65613",
"+0 c #B05312",
"+9 c #AD5112",
"+8 c #D96717",
"+7 c #CC5F15",
"+6 c #C35C14",
"+5 c #BB5914",
"+4 c #B55513",
"+3 c #B25513",
"+2 c #DC6817",
"+1 c #D76617",
"+| c #D06216",
"+} c #C85E15",
"+[ c #C05B14",
"+< c #BA5813",
"+: c #C25C15",
"+_ c #E16A18",
"+( c #DA6717",
"+/ c #D56516",
"+^ c #CD6016",
"+] c #C75D15",
"+{ c #C45C14",
"+~ c #E26B18",
"+! c #E06A18",
"+) c #DD6918",
"+' c #D86617",
"+, c #D36416",
"+> c #D36316",
"+; c #DC6918",
"+- c #E36B18",
"+= c #DF6918",
"+* c #DE6917",
"+& c #DE6918",
"+% c #E26A18",
"+$ c #E56C19",
"+# c #E36C18",
"+@ c #E46B18",
"++ c None",
"++++++++++++++++++++++++++++++++++++++++++++++++++++++++++++++++++++++++++++++++++++++++++++++++++++",
"+++++++++++++++++++++++++++++++++++++@+#+@+@+@+$+$+$+$+$+$+$+$+$++++++++++++++++++++++++++++++++++++",
"+++++++++++++++++++++++++++++++%+&+*+=+%+-+@+@+$+$+$+$+$+$+$+$+$+$+$+$++++++++++++++++++++++++++++++",
"+++++++++++++++++++++++++++;+>+,+'+)+!+~+-+@+$+$+$+$+$+$+$+$+$+$+$+$+$+$+$++++++++++++++++++++++++++",
"+++++++++++++++++++++++++{+]+^+/+(+&+_+#+@+@+$+$+$+$+$+$+$+$+$+$+$+$+$+$+$+$+$++++++++++++++++++++++",
"+++++++++++++++++++++:+<+[+}+|+1+2+=+%+-+@+@+$+$+$+$+$+$+$+$+$+$+$+$+$+$+$+$+$+$++++++++++++++++++++",
"+++++++++++++++++++3+4+5+6+7+,+8+)+_+~+@+@+$+$+$+$+$+$+$+$+$+$+$+$+$+$+$+$+$+$+$+$++++++++++++++++++",
"+++++++++++++++++9+0+a+b+c+d+e+f+=+_+-+@+@+$+$+$+$+$+$+$+$+$+$+$+$+$+$+$+$+$+$+$+$+$++++++++++++++++",
"+++++++++++++++g+h+i+j+k+l+m+'+2+!+~+-+@+@+$+$+$+$+$+$+$+$+$+$+$+$+$+$+$+$+$+$+$+$+$+$++++++++++++++",
"+++++++++++++n+o+p+q+r+6+s+,+(+&+_+#+@+@+$+$+$+$+$+$+$+$+$+$+$+$+$+$+$+$+$+$+$+$+$+$+$+$++++++++++++",
"+++++++++++++t+g+u+4+v+w+^+x+y+=+_+-+@+@+$+$+$+$+$+$+$+$+$+$+$+$+$+$+$+$+$+$+$+$+$+$+$+$+$++++++++++",
"+++++++++++z+t+A+B+a+C+]+D+E+2+=+~+-+@+$+$+$+$+$+$+$+$+$+$+$+$+$+$+$+$+F+G+H+$+$+$+$+$+$+$+$++++++++",
"+++++++++I+z+J+K+0+L+M+}+N+1+O+!+~+@+@+$+$+$+$+$+$+$+$+$+$+$+$+$+$+P+Q+R+S+T+U+$+$+$+$+$+$+$++++++++",
"+++++++++I+z+V+K+W+j+[+l+m+'+)+!+~+@+@+$+$+$+$+$+$+$+$+$+$+$+$+$+$+X+Y+Z@+@@+T+H+$+$+$+$+$+$+$++++++",
"+++++++I+I+z+V+K+W+j+k@#@$+'+)+_+#+@+@+$+$+$+$+$+$+$+$+$+$+$+$+$+$@%@&@*@=@++S+G+$+$+$+$+$+$+$++++++",
"+++++++I+I+z+V+h+W+j+k@#@$+8+&+_+#+@+@+$+$+$+$+$+$+$+$+$+$+$+$+$+$@-@;@>@*@,@'+F+$+$+$+$+$+$+$+$++++",
"+++++I+I+I+z+V+h+W@)+k@#@$+8+&+_+#+@+@+$+$+$+$+$+$+$+$+$+$+$+$+$+$@!@~@;@&@{@]+$+$+$+$+$+$+$+$+$++++",
"+++++I+I+I+z+V+K+W+j+k@#@$+'+)+_+#+@+@+$+$+$+$+$+$+$+$+$+$+$+$+$+$+$@!@-@%+X+P+$+$+$+$+$+$+$+$+$++++",
"+++++I+I+I+z+V+K+W+j+[+l+m+'+)+!+~+@+@+$+$+$+$+$+$+$+$+$+$+$+$+$+$+$+$+$+$+$+$+$+$+$+$+$+$+$+$+$+$++",
"+++I+I+I+I+z+J+K+0+L+M+}+N+1+O+!+~+@+@+$+$+$+$+$+$+$+$+$+$+$+$+$+$+$+$+$+$+$+$+$+$+$+$+$+$+$+$+$+$++",
"+++I+I+I+I+z+t+A+B+a+C+]+D+E+2+!+~+-+@+$+$+$+$+$+$+$+$+$+$+$+$+$+$+$+$+$+$+$+$+$+$+$+$+$+$+$+$+$+$++",
"+++I+I+I+I+I+t+g+u+4+v+w+^+x+y+=+_+-+@+@+$+$+$+$+$+$+$+$+$+$+$+$+$+$+$+$+$+$+$+$+$+$+$+$+$+$+$+$+$++",
"+++I+I+I+I+I+t+o+p+q+r+6+s+,+(+&+_+#+@+@+$+$+$+$+$+$+$+$+$+$+$+$+$+$+$+$+$+$+$+$+$+$+$+$+$+$+$+$+$++",
"+++I+I+I+I+I+z+V+h+i+j+k+l+m+'+2+!+~+-+@+@+$+$+$+$+$+$+$+$+$+$+$+$+$+$+$+$+$+$+$+$+$+$+$+$+$+$+$+$++",
"+++I+I+I+I+I+z+n@^+0+a+b+c+d+x+f+=+_+-+@+@+$+$+$+$+$+$+$+$+$+$+$+$+$+$+$+$+$+$+$+$+$+$+$+$+$+$+$+$++",
"+++I+I+I+I+I+I+t+g+u@/+5+6+s+>+8+)+!+~+-+@+@+$+$+$+$+$+$+$+$+$+$+$+$+$+$+$+$+$+$+$+$+$+$+$+$+$+$+$++",
"+++I+I+I+I+I+I+z+n+h+W@(@_+}@:+E+f+=+_+-+@+@+$+$+$+$+$+$+$+$+$+$+$+$+$+$+$+$+$+$+$+$+$+$+$+$+$+$+$++",
"+++I+I+I+I+I+I+z+n+A@<+4@[+{+7+,+8+O+!+%+-+@+@+$+$+$+$+$+$+$+$+$+$+$+$+$+$+$+$+$+$+$+$+$+$+$+$+$+$++",
"+++I+I+I+I+I+I+I+t+o+9+i@(@_+}+D+x+(+&+_+~+-+@+@+$+$+$+$+$+$+$+$+$+$+$+$+$+$+$+$+$+$+$+$+$+$+$+$+$++",
"+++I+I+I+I+I+I+I+z+n+A@<+4@[+6@#+N+1+f+=+_+~+-+@+@+$+$+$+$+$+$+$+$+$+$+$+$+$+$+$+$+$+$+$+$+$+$+$+$++",
"+++I+I+I+I+I+I+I+I+t+o+9+W@}+C+w+^+,@|+2+=+_+~+-+@+@+@+$+$+$+$+$+$+$+$+$+$+$+$+$+$+$+$+$+$+@+@+@+@++",
"+++++I+I+I+I+I+I+I+z+n@^+u@1@2@_@3@4@5+8+2+=+_+~+-+@+@+@+@+$+$+$+$+$+$+$+$+$+$+$+$+$+$+@+@+@+@+@+$++",
"+++++I+I+I+I+I+I+I+I+z+V@6+0+4@7@8+}+D@5+8+2+&+_+%+~+-+@+@+@+@+$+$+$+$+$+$+$+$+$+@+@+@+@+-+-+#+-++++",
"+++++I+I+I+I+I+I+I+I+I+t+o+9@9@0+v@a+l+D+,+'+f+)+!+_+%+~+-+-+@+@+@+@+@+@+@+@+@+@+@+-+-+#+~+%+_@b++++",
"+++++++I+I+I+I+I+I+I+I+z+t@^+h+W+a+v@8+}+^@$+E+8+2+&+!+_+%+~+#+-+-+-+-+-+-+-+-+-+#+~+%+_+!+=+=+@++++",
"+++++++I+I+I+I+I+I+I+I+I+z+n@^+u+i+a@7+k@c+7+|@5+1+(+2+&+=+!+_+_+_+%+~+~+~+%+_+_+_+!+=+&+O+f+*++++++",
"+++++++++I+I+I+I+I+I+I+I+I+z+n@^+u@9@d+<+M@e+l@4+m+/+1+(+f+2+)+&+=+=+=+=+=+=+=+&+)+O+f+(+'+1+%++++++",
"+++++++++I+I+I+I+I+I+I+I+I+I+z+n@^+9+0@/+j@f+k+c@g@4+N+,+e+'+8+(+y+f+f+2+f+f+y+(+8+'+e@5+m@h++++++++",
"+++++++++++I+I+I+I+I+I+I+I+I+I+z+n+o@6@<+i+a@i+b@8+c+l+7+d+|@$@5@j+x+E+E+E+x@j@5@$+N+d@k+|+@++++++++",
"+++++++++++++I+I+I+I+I+I+I+I+I+I+z+t+o+A+h+0@1@0@i+b+k+6+c+}@#+7+^+d+d+D+d+d+^+7@#+}+c+c@l++++++++++",
"+++++++++++++I+I+I+I+I+I+I+I+I+I+I+I+t+n+g@6+u+0@1+a+j+5+b+[+k+6@m+w+w+c+w+w@m+6+k+[+b+k++++++++++++",
"+++++++++++++++I+I+I+I+I+I+I+I+I+I+I+I+z+t+V+g@6+p+0+i@/+a+L@)+r+5+v+v@f+v+v+5+r@)+L@n++++++++++++++",
"+++++++++++++++++I+I+I+I+I+I+I+I+I+I+I+I+I+z+t+V+g@^+h+u+0+W+i+q@/@/@d@d@d@/@/+q+i+q++++++++++++++++",
"+++++++++++++++++++I+I+I+I+I+I+I+I+I+I+I+I+I+I+z+t+n+n+g+A+K+h+9+p+u@<@<@<+u+p+u@o++++++++++++++++++",
"+++++++++++++++++++++++I+I+I+I+I+I+I+I+I+I+I+I+I+I+z+J+t+t+V+V@p+o+o+g+A+A+o+o++++++++++++++++++++++",
"+++++++++++++++++++++++++I+I+I+I+I+I+I+I+I+I+I+I+I+I+I+I+z+z+z+J+t+t+t+t+t+n++++++++++++++++++++++++",
"+++++++++++++++++++++++++++++I+I+I+I+I+I+I+I+I+I+I+I+I+I+I+I+I+I+I+I+I+z++++++++++++++++++++++++++++",
"+++++++++++++++++++++++++++++++++I+I+I+I+I+I+I+I+I+I+I+I+I+I+I+I+I+I++++++++++++++++++++++++++++++++",
"+++++++++++++++++++++++++++++++++++++++I+I+I+I+I+I+I+I+I+I+I+I++++++++++++++++++++++++++++++++++++++",
"++++++++++++++++++++++++++++++++++++++++++++++++++++++++++++++++++++++++++++++++++++++++++++++++++++"};
