/* XPM */
static char * ball_red_xpm[] = {
"50 50 131 2",
"@e c #136BAF",
"@d c #136FB4",
"@c c #1471B8",
"@b c #1371B7",
"@a c #136FB6",
"@0 c #1782D3",
"@9 c #1478C3",
"@8 c #167ECC",
"@7 c #1782D4",
"@6 c #1784D9",
"@5 c #1579C6",
"@4 c #1474BD",
"@3 c #1578C4",
"@2 c #126CB1",
"@1 c #188AE2",
"@| c #1477C2",
"@} c #1472BB",
"@[ c #1682D4",
"@< c #167ECE",
"@: c #1372B9",
"@_ c #157DCA",
"@( c #1478C4",
"@/ c #167FD0",
"@^ c #136EB4",
"@] c #1269AB",
"@{ c #1267A9",
"@~ c #136EB3",
"@! c #2D97E6",
"@) c #75BAEE",
"@' c #9CCEF3",
"@, c #4AA5EA",
"@> c #1E8FE5",
"@; c #1371B9",
"@- c #56ABEB",
"@= c #D7EBFA",
"@* c #F2F8FC",
"@& c #9CCDF3",
"@% c #2A95E6",
"@$ c #FEFEFE",
"@# c #FAFCFD",
"@@ c #B1D8F6",
"@+ c #3098E7",
"+Z c #1681D2",
"+Y c #157CCA",
"+X c #136DB1",
"+W c #AFD7F5",
"+V c #E6F3FC",
"+U c #D6EBFA",
"+T c #74B9EE",
"+S c #2492E5",
"+R c #157BC9",
"+Q c #1475C0",
"+P c #136CB1",
"+O c #2090E5",
"+N c #40A0E8",
"+M c #65B2ED",
"+L c #55ABEB",
"+K c #2D96E6",
"+J c #1787DD",
"+I c #1784D7",
"+H c #1475BF",
"+G c #1370B7",
"+F c #126CB0",
"+E c #1269AC",
"+D c #1A8DE5",
"+C c #1D8FE5",
"+B c #1C8EE5",
"+A c #1786DC",
"+z c #167FCF",
"+y c #126BAF",
"+x c #1268AB",
"+w c #1267A7",
"+v c #1786DA",
"+u c #1783D5",
"+t c #1579C5",
"+s c #1473BC",
"+r c #126BAE",
"+q c #1267A8",
"+p c #157DCB",
"+o c #1472BA",
"+n c #136DB3",
"+m c #126AAE",
"+l c #1268A9",
"+k c #1889E0",
"+j c #1680D1",
"+i c #157CC9",
"+h c #1476C1",
"+g c #1371B8",
"+f c #1269AD",
"+e c #1268AA",
"+d c #1786DB",
"+c c #1783D6",
"+b c #167FCE",
"+a c #157AC6",
"+0 c #1474BE",
"+9 c #1370B6",
"+8 c #126BB0",
"+7 c #126AAD",
"+6 c #1785D9",
"+5 c #1681D3",
"+4 c #157DCC",
"+3 c #1477C3",
"+2 c #1473BB",
"+1 c #136FB5",
"+| c #136DB2",
"+} c #1787DC",
"+[ c #1783D7",
"+< c #1680D0",
"+: c #157BC8",
"+_ c #1476C0",
"+( c #1372BA",
"+/ c #1577C2",
"+^ c #188AE1",
"+] c #1785DA",
"+{ c #1682D5",
"+~ c #167ECD",
"+! c #157AC7",
"+) c #1479C4",
"+' c #188AE0",
"+, c #1888DD",
"+> c #1784D8",
"+; c #1682D3",
"+- c #1887DC",
"+= c #1889DF",
"+* c #1788DE",
"+& c #1888DE",
"+% c #188BE2",
"+$ c #198DE5",
"+# c #188BE3",
"+@ c #188CE4",
"++ c None",
"++++++++++++++++++++++++++++++++++++++++++++++++++++++++++++++++++++++++++++++++++++++++++++++++++++",
"+++++++++++++++++++++++++++++++++++++@+#+@+@+@+$+$+$+$+$+$+$+$+$++++++++++++++++++++++++++++++++++++",
"+++++++++++++++++++++++++++++++%+&+*+=+%+#+@+@+$+$+$+$+$+$+$+$+$+$+$+$++++++++++++++++++++++++++++++",
"+++++++++++++++++++++++++++-+;+;+>+,+'+%+#+@+$+$+$+$+$+$+$+$+$+$+$+$+$+$+$++++++++++++++++++++++++++",
"+++++++++++++++++++++++++)+!+~+{+]+&+^+#+@+@+$+$+$+$+$+$+$+$+$+$+$+$+$+$+$+$+$++++++++++++++++++++++",
"+++++++++++++++++++++/+(+_+:+<+[+}+=+%+#+@+@+$+$+$+$+$+$+$+$+$+$+$+$+$+$+$+$+$+$++++++++++++++++++++",
"+++++++++++++++++++|+1+2+3+4+5+6+,+^+%+@+@+$+$+$+$+$+$+$+$+$+$+$+$+$+$+$+$+$+$+$+$++++++++++++++++++",
"+++++++++++++++++7+8+9+0+a+b+c+d+=+^+#+@+@+$+$+$+$+$+$+$+$+$+$+$+$+$+$+$+$+$+$+$+$+$++++++++++++++++",
"+++++++++++++++e+f+|+g+h+i+j+>+}+k+%+#+@+@+$+$+$+$+$+$+$+$+$+$+$+$+$+$+$+$+$+$+$+$+$+$++++++++++++++",
"+++++++++++++l+e+m+n+o+3+p+5+]+&+^+#+@+@+$+$+$+$+$+$+$+$+$+$+$+$+$+$+$+$+$+$+$+$+$+$+$+$++++++++++++",
"+++++++++++++q+e+r+1+s+t+~+u+v+=+^+#+@+@+$+$+$+$+$+$+$+$+$+$+$+$+$+$+$+$+$+$+$+$+$+$+$+$+$++++++++++",
"+++++++++++w+q+x+y+9+0+!+z+c+A+=+%+#+@+$+$+$+$+$+$+$+$+$+$+$+$+$+$+$+$+B+C+D+$+$+$+$+$+$+$+$++++++++",
"+++++++++w+w+q+E+F+G+H+:+j+I+J+'+%+@+@+$+$+$+$+$+$+$+$+$+$+$+$+$+$+D+K+L+M+N+O+$+$+$+$+$+$+$++++++++",
"+++++++++w+w+l+E+P+g+Q+R+j+>+,+'+%+@+@+$+$+$+$+$+$+$+$+$+$+$+$+$+$+S+T+U+V+W+N+D+$+$+$+$+$+$+$++++++",
"+++++++w+w+w+l+E+X+g+h+Y+Z+>+,+^+#+@+@+$+$+$+$+$+$+$+$+$+$+$+$+$+$@+@@@#@$+V+M+C+$+$+$+$+$+$+$++++++",
"+++++++w+w+w+l+f+X+g+h+Y+Z+6+&+^+#+@+@+$+$+$+$+$+$+$+$+$+$+$+$+$+$@%@&@*@#@=@-+B+$+$+$+$+$+$+$+$++++",
"+++++w+w+w+w+l+f+X@;+h+Y+Z+6+&+^+#+@+@+$+$+$+$+$+$+$+$+$+$+$+$+$+$@>@,@'@@@)@!+$+$+$+$+$+$+$+$+$++++",
"+++++w+w+w+w+l+E+X+g+h+Y+Z+>+,+^+#+@+@+$+$+$+$+$+$+$+$+$+$+$+$+$+$+$@>@%@++S+D+$+$+$+$+$+$+$+$+$++++",
"+++++w+w+w+w+l+E+P+g+Q+R+j+>+,+'+%+@+@+$+$+$+$+$+$+$+$+$+$+$+$+$+$+$+$+$+$+$+$+$+$+$+$+$+$+$+$+$+$++",
"+++w+w+w+w+w+q+E+F+G+H+:+j+I+J+'+%+@+@+$+$+$+$+$+$+$+$+$+$+$+$+$+$+$+$+$+$+$+$+$+$+$+$+$+$+$+$+$+$++",
"+++w+w+w+w+w+q+x+y+9+0+!+z+c+A+k+%+#+@+$+$+$+$+$+$+$+$+$+$+$+$+$+$+$+$+$+$+$+$+$+$+$+$+$+$+$+$+$+$++",
"+++w+w+w+w+w+q+e+r+1+s+t+~+u+v+=+^+#+@+@+$+$+$+$+$+$+$+$+$+$+$+$+$+$+$+$+$+$+$+$+$+$+$+$+$+$+$+$+$++",
"+++w+w+w+w+w+q+e+m@~+o+3+p+5+]+&+^+#+@+@+$+$+$+$+$+$+$+$+$+$+$+$+$+$+$+$+$+$+$+$+$+$+$+$+$+$+$+$+$++",
"+++w+w+w+w+w+w+l+f+|+g+h+i+j+>+}+k+%+#+@+@+$+$+$+$+$+$+$+$+$+$+$+$+$+$+$+$+$+$+$+$+$+$+$+$+$+$+$+$++",
"+++w+w+w+w+w+w@{@]+8+9+0+a+b+u+d+=+^+#+@+@+$+$+$+$+$+$+$+$+$+$+$+$+$+$+$+$+$+$+$+$+$+$+$+$+$+$+$+$++",
"+++w+w+w+w+w+w+q+e+m@^+2+3+p+5+6+,+'+%+#+@+@+$+$+$+$+$+$+$+$+$+$+$+$+$+$+$+$+$+$+$+$+$+$+$+$+$+$+$++",
"+++w+w+w+w+w+w+w+l+f+X+g+Q+:@/+c+d+=+^+#+@+@+$+$+$+$+$+$+$+$+$+$+$+$+$+$+$+$+$+$+$+$+$+$+$+$+$+$+$++",
"+++w+w+w+w+w+w+w@{@]+y+1+s@(+4+5+6+J+k+%+#+@+@+$+$+$+$+$+$+$+$+$+$+$+$+$+$+$+$+$+$+$+$+$+$+$+$+$+$++",
"+++w+w+w+w+w+w+w+q+e+7+|+g+Q+:+z+u+]+&+^+%+#+@+@+$+$+$+$+$+$+$+$+$+$+$+$+$+$+$+$+$+$+$+$+$+$+$+$+$++",
"+++w+w+w+w+w+w+w+w@{@]+y+1+s+3@_+j+I+d+=+^+%+#+@+@+$+$+$+$+$+$+$+$+$+$+$+$+$+$+$+$+$+$+$+$+$+$+$+$++",
"+++w+w+w+w+w+w+w+w+q+e+7+X+G+0+t+~+5+>+}+=+^+%+#+@+@+@+$+$+$+$+$+$+$+$+$+$+$+$+$+$+$+$+$+$+@+@+@+@++",
"+++++w+w+w+w+w+w+w+w@{+x+m@~@:+_+!@<@[+6+}+=+^+%+#+@+@+@+@+$+$+$+$+$+$+$+$+$+$+$+$+$+$+@+@+@+@+@+$++",
"+++++w+w+w+w+w+w+w+w+w+l+E+8+1@}@|+:+z@[+6+}+&+^@1+%+#+@+@+@+@+$+$+$+$+$+$+$+$+$+@+@+@+@+#+#+#+#++++",
"+++++w+w+w+w+w+w+w+w+w+q+e+7@2+9+s@|+R+z+5+>+d+,+k+^+%+%+#+#+@+@+@+@+@+@+@+@+@+@+@+#+#+#+%@1+^+#++++",
"+++++++w+w+w+w+w+w+w+w+w+q+x+7+X+9+s@|+:+~+Z+c+6+}+&+k+^@1+%+#+#+#+#+#+#+#+#+#+#+#+%@1+^+'+=+=+@++++",
"+++++++w+w+w+w+w+w+w+w+w+w@{+x+m+|+9+2+h+a+4+<@[+I+]+}+&+=+k+^+^+^+%+%+%+%+%+^+^+^+k+=+&+J+d+*++++++",
"+++++++++w+w+w+w+w+w+w+w+w+w@{+x+m@2+1+(+H@3+i@<+j+{+I+]+d+}+,+&+=+=+=+=+=+=+=+&+,+J+d+]+>+I+%++++++",
"+++++++++w+w+w+w+w+w+w+w+w+w+w@{+x+7+F@^+g@4+h@5+Y@<+j+5+c+>@6+]+v+d+d+A+d+d+v+]@6+>+c@[+j+6++++++++",
"+++++++++++w+w+w+w+w+w+w+w+w+w+w@{+e+E+y+|+9+(+0@|@5+R+4+b+<+Z@[@7+u+c+c+c+u@7@[+Z+j+b@8+<+@++++++++",
"+++++++++++++w+w+w+w+w+w+w+w+w+w+w+q+e@]+7+F@~+9+(+0+h@9+a+:+Y+4+~+b+b+z+b+b+~+4+Y+:+a@5@0++++++++++",
"+++++++++++++w+w+w+w+w+w+w+w+w+w+w+w+q@{+e+E+m+F@~+9+g+2+0+Q+h+3@3+t+t@5+t+t@3+3+h+Q+0+h++++++++++++",
"+++++++++++++++w+w+w+w+w+w+w+w+w+w+w+w+w+q+l+e+E+m+8+|@^@a@b@;+o+2+s+s@4+s+s+2+o@;@b@c++++++++++++++",
"+++++++++++++++++w+w+w+w+w+w+w+w+w+w+w+w+w+w+q+l+e@]+f+m+8+P+|+n@^@d+1+1+1@d@^+n+|@~++++++++++++++++",
"+++++++++++++++++++w+w+w+w+w+w+w+w+w+w+w+w+w+w+w+q@{+l+e@]+E+f+7+m+r+y+y+y+r+m+m@e++++++++++++++++++",
"+++++++++++++++++++++++w+w+w+w+w+w+w+w+w+w+w+w+w+w+w+q+q+q+l+l+e+e+e+e+x+x+e+e++++++++++++++++++++++",
"+++++++++++++++++++++++++w+w+w+w+w+w+w+w+w+w+w+w+w+w+w+w+w+w+w+q+q+q+q+q+q+l++++++++++++++++++++++++",
"+++++++++++++++++++++++++++++w+w+w+w+w+w+w+w+w+w+w+w+w+w+w+w+w+w+w+w+w+w++++++++++++++++++++++++++++",
"+++++++++++++++++++++++++++++++++w+w+w+w+w+w+w+w+w+w+w+w+w+w+w+w+w+w++++++++++++++++++++++++++++++++",
"+++++++++++++++++++++++++++++++++++++++w+w+w+w+w+w+w+w+w+w+w+w++++++++++++++++++++++++++++++++++++++",
"++++++++++++++++++++++++++++++++++++++++++++++++++++++++++++++++++++++++++++++++++++++++++++++++++++"};
