/* XPM */
static char * ball_red_xpm[] = {
"50 50 147 2",
"@u c #7A12AA",
"@t c #7F13AF",
"@s c #7E12AF",
"@r c #8614B8",
"@q c #8914BB",
"@p c #8814BD",
"@o c #9917D3",
"@n c #9316CD",
"@m c #9316CC",
"@l c #9A17D4",
"@k c #8613BA",
"@j c #8914BD",
"@i c #8313B4",
"@h c #8E15C4",
"@g c #9015C6",
"@f c #8D14C2",
"@e c #8313B6",
"@d c #8012B1",
"@c c #A418E3",
"@b c #8C14C2",
"@a c #8714BB",
"@0 c #9A16D4",
"@9 c #9416CE",
"@8 c #8713B9",
"@7 c #7B12AB",
"@6 c #8F15C5",
"@5 c #9215CA",
"@4 c #8D14C3",
"@3 c #9516CF",
"@2 c #8814BC",
"@1 c #9616D0",
"@| c #9015C8",
"@} c #8113B1",
"@[ c #9D17D9",
"@< c #8213B4",
"@: c #9B17D5",
"@_ c #AE2DE6",
"@( c #C975EE",
"@/ c #B94AEA",
"@^ c #A81EE5",
"@] c #8613B9",
"@{ c #BD56EB",
"@~ c #EFD7FA",
"@! c #FAF2FC",
"@) c #D89CF3",
"@' c #AC2AE6",
"@, c #FEFEFE",
"@> c #FCFAFD",
"@; c #E0B1F6",
"@- c #AF30E7",
"@= c #A218E1",
"@* c #9816D2",
"@& c #9115CA",
"@% c #8B14C1",
"@$ c #8613B8",
"@# c #E0AFF5",
"@@ c #F5E6FC",
"@+ c #EFD6FA",
"+Z c #C874EE",
"+Y c #AA24E5",
"+X c #8C14C0",
"+W c #8013B1",
"+V c #7B12A9",
"+U c #A920E5",
"+T c #B540E8",
"+S c #C365ED",
"+R c #BD55EB",
"+Q c #AD2DE6",
"+P c #A017DD",
"+O c #9D17D7",
"+N c #8A14BF",
"+M c #8513B7",
"+L c #8012B0",
"+K c #7C12AC",
"+J c #7812A7",
"+I c #A61AE5",
"+H c #A71DE5",
"+G c #A71CE5",
"+F c #9C17D6",
"+E c #9616CF",
"+D c #8F15C7",
"+C c #8A14BE",
"+B c #7F12AF",
"+A c #7C12AB",
"+z c #7912A7",
"+y c #9F17DA",
"+x c #9A17D5",
"+w c #8E15C5",
"+v c #8914BC",
"+u c #7E12AE",
"+t c #7A12A8",
"+s c #9315CB",
"+r c #8714BA",
"+q c #8213B3",
"+p c #7D12AE",
"+o c #7B12AA",
"+n c #7A12A9",
"+m c #A218E0",
"+l c #9716D1",
"+k c #9115C9",
"+j c #8C14C1",
"+i c #8513B8",
"+h c #8113B2",
"+g c #7C12AA",
"+f c #A118DF",
"+e c #9F17DB",
"+d c #9B17D6",
"+c c #9516CE",
"+b c #8F15C6",
"+a c #8914BE",
"+0 c #8413B6",
"+9 c #7F12B0",
"+8 c #7D12AD",
"+7 c #9E17D9",
"+6 c #9315CC",
"+5 c #8E14C3",
"+4 c #8814BB",
"+3 c #8313B5",
"+2 c #8213B2",
"+1 c #A017DC",
"+| c #9C17D7",
"+} c #9716D0",
"+[ c #9115C8",
"+< c #8B14C0",
"+: c #8713BA",
"+_ c #8D15C2",
"+( c #A318E1",
"+/ c #9E17DA",
"+^ c #9A16D5",
"+] c #9416CD",
"+{ c #9015C7",
"+~ c #8E14C4",
"+! c #A418E2",
"+) c #A318E0",
"+' c #A018DD",
"+, c #9D17D8",
"+> c #9916D3",
"+; c #9816D3",
"+- c #A018DC",
"+= c #A218DF",
"+* c #A117DE",
"+& c #A118DE",
"+% c #A318E2",
"+$ c #A619E5",
"+# c #A518E3",
"+@ c #A518E4",
"++ c None",
"++++++++++++++++++++++++++++++++++++++++++++++++++++++++++++++++++++++++++++++++++++++++++++++++++++",
"+++++++++++++++++++++++++++++++++++++@+#+@+@+@+$+$+$+$+$+$+$+$+$++++++++++++++++++++++++++++++++++++",
"+++++++++++++++++++++++++++++++%+&+*+=+%+#+@+@+$+$+$+$+$+$+$+$+$+$+$+$++++++++++++++++++++++++++++++",
"+++++++++++++++++++++++++++-+;+>+,+'+)+!+#+@+$+$+$+$+$+$+$+$+$+$+$+$+$+$+$++++++++++++++++++++++++++",
"+++++++++++++++++++++++++~+{+]+^+/+&+(+#+@+@+$+$+$+$+$+$+$+$+$+$+$+$+$+$+$+$+$++++++++++++++++++++++",
"+++++++++++++++++++++_+:+<+[+}+|+1+=+%+#+@+@+$+$+$+$+$+$+$+$+$+$+$+$+$+$+$+$+$+$++++++++++++++++++++",
"+++++++++++++++++++2+3+4+5+6+>+7+'+(+!+@+@+$+$+$+$+$+$+$+$+$+$+$+$+$+$+$+$+$+$+$+$++++++++++++++++++",
"+++++++++++++++++8+9+0+a+b+c+d+e+f+(+#+@+@+$+$+$+$+$+$+$+$+$+$+$+$+$+$+$+$+$+$+$+$+$++++++++++++++++",
"+++++++++++++++g+8+h+i+j+k+l+,+1+m+!+#+@+@+$+$+$+$+$+$+$+$+$+$+$+$+$+$+$+$+$+$+$+$+$+$++++++++++++++",
"+++++++++++++n+o+p+q+r+5+s+>+/+&+(+#+@+@+$+$+$+$+$+$+$+$+$+$+$+$+$+$+$+$+$+$+$+$+$+$+$+$++++++++++++",
"+++++++++++++t+g+u+3+v+w+]+x+y+f+(+#+@+@+$+$+$+$+$+$+$+$+$+$+$+$+$+$+$+$+$+$+$+$+$+$+$+$+$++++++++++",
"+++++++++++z+t+A+B+0+C+D+E+F+1+=+!+#+@+$+$+$+$+$+$+$+$+$+$+$+$+$+$+$+$+G+H+I+$+$+$+$+$+$+$+$++++++++",
"+++++++++J+z+t+K+L+M+N+[+l+O+P+)+!+@+@+$+$+$+$+$+$+$+$+$+$+$+$+$+$+I+Q+R+S+T+U+$+$+$+$+$+$+$++++++++",
"+++++++++J+z+V+K+W+i+X+k+l+,+'+m+!+@+@+$+$+$+$+$+$+$+$+$+$+$+$+$+$+Y+Z@+@@@#+T+I+$+$+$+$+$+$+$++++++",
"+++++++J+J+z+V+K+W@$@%@&@*+,+'@=+#+@+@+$+$+$+$+$+$+$+$+$+$+$+$+$+$@-@;@>@,@@+S+H+$+$+$+$+$+$+$++++++",
"+++++++J+J+z+V+8+W@$@%@&@*+7+&+(+#+@+@+$+$+$+$+$+$+$+$+$+$+$+$+$+$@'@)@!@>@~@{+G+$+$+$+$+$+$+$+$++++",
"+++++J+J+J+z+V+8+W@]@%@&@*+7+&+(+#+@+@+$+$+$+$+$+$+$+$+$+$+$+$+$+$@^@/@)@;@(@_+$+$+$+$+$+$+$+$+$++++",
"+++++J+J+J+z+V+K+W@$@%@&@*+,+'@=+#+@+@+$+$+$+$+$+$+$+$+$+$+$+$+$+$+$@^@'@-+Y+I+$+$+$+$+$+$+$+$+$++++",
"+++++J+J+J+z+V+K+W+i+X+k+l+,+'+m+!+@+@+$+$+$+$+$+$+$+$+$+$+$+$+$+$+$+$+$+$+$+$+$+$+$+$+$+$+$+$+$+$++",
"+++J+J+J+J+z+t+K+L+M+N+[+l+O+P+)+!+@+@+$+$+$+$+$+$+$+$+$+$+$+$+$+$+$+$+$+$+$+$+$+$+$+$+$+$+$+$+$+$++",
"+++J+J+J+J+z+t+A+B+0+C+D+E+F+1+m+!+#+@+$+$+$+$+$+$+$+$+$+$+$+$+$+$+$+$+$+$+$+$+$+$+$+$+$+$+$+$+$+$++",
"+++J+J+J+J+J+t+g+u+3+v+w+]+x+y+f+(+#+@+@+$+$+$+$+$+$+$+$+$+$+$+$+$+$+$+$+$+$+$+$+$+$+$+$+$+$+$+$+$++",
"+++J+J+J+J+J+t+o+p+q+r+5+s+>+/+&+(+#+@+@+$+$+$+$+$+$+$+$+$+$+$+$+$+$+$+$+$+$+$+$+$+$+$+$+$+$+$+$+$++",
"+++J+J+J+J+J+z+V+8+h+i+j+k+l+,+1+m+!+#+@+@+$+$+$+$+$+$+$+$+$+$+$+$+$+$+$+$+$+$+$+$+$+$+$+$+$+$+$+$++",
"+++J+J+J+J+J+z+n+A+9+0+a+b+c@:+e+f+(+#+@+@+$+$+$+$+$+$+$+$+$+$+$+$+$+$+$+$+$+$+$+$+$+$+$+$+$+$+$+$++",
"+++J+J+J+J+J+J+t+g+u@<+4+5+s+>@[+'+)+!+#+@+@+$+$+$+$+$+$+$+$+$+$+$+$+$+$+$+$+$+$+$+$+$+$+$+$+$+$+$++",
"+++J+J+J+J+J+J+z+n+8@}+i+<@|@1+F+e+f+(+#+@+@+$+$+$+$+$+$+$+$+$+$+$+$+$+$+$+$+$+$+$+$+$+$+$+$+$+$+$++",
"+++J+J+J+J+J+J+z+n+A+B+3@2+~+6+>@[+P+m+%+#+@+@+$+$+$+$+$+$+$+$+$+$+$+$+$+$+$+$+$+$+$+$+$+$+$+$+$+$++",
"+++J+J+J+J+J+J+J+t+o+8+h+i+<@|@3@:+/+&+(+!+#+@+@+$+$+$+$+$+$+$+$+$+$+$+$+$+$+$+$+$+$+$+$+$+$+$+$+$++",
"+++J+J+J+J+J+J+J+z+n+A+B+3@2@4@5+l+|+e+f+(+!+#+@+@+$+$+$+$+$+$+$+$+$+$+$+$+$+$+$+$+$+$+$+$+$+$+$+$++",
"+++J+J+J+J+J+J+J+J+t+o+8@}+M+C@6+]+>+,+1+f+(+!+#+@+@+@+$+$+$+$+$+$+$+$+$+$+$+$+$+$+$+$+$+$+@+@+@+@++",
"+++++J+J+J+J+J+J+J+z+n@7+u+q@8+<+{@9@0@[+1+f+(+!+#+@+@+@+@+$+$+$+$+$+$+$+$+$+$+$+$+$+$+@+@+@+@+@+$++",
"+++++J+J+J+J+J+J+J+J+z+V+K+9+3@a@b+[@3@0@[+1+&+(+%+!+#+@+@+@+@+$+$+$+$+$+$+$+$+$+@+@+@+@+#+#+#@c++++",
"+++++J+J+J+J+J+J+J+J+J+t+o+8@d@e@2@f+k@3+>+,+e+'+m+(+%+!+#+#+@+@+@+@+@+@+@+@+@+@+@+#+#+#+!+%+(@c++++",
"+++++++J+J+J+J+J+J+J+J+z+t@7+8@}+0@2@b@|+]@*+F+7+1+&+m+(+%+!+#+#+#+#+#+#+#+#+#+#+#+!+%+(+)+=+f+@++++",
"+++++++J+J+J+J+J+J+J+J+J+z+n@7+u+h+0+4+j@g+6@1@0+|+/+1+&+f+m+(+(+(+%+!+!+!+%+(+(+(+m+=+&+P+e+*++++++",
"+++++++++J+J+J+J+J+J+J+J+J+z+n@7+u@d+3+:+N@h+k@9+l+^+|+/+e+1+'+&+f+f+f+f+f+f+f+&+'+P+e+/+,+|+%++++++",
"+++++++++J+J+J+J+J+J+J+J+J+J+z+n@7+8+L@i+i@j+j+b@&@9+l+>+d+,@[+/+y+e+e+1+e+e+y+/@[+,+d@0+l@[++++++++",
"+++++++++++J+J+J+J+J+J+J+J+J+J+z+n+o+K+B+h+0@k+a@b+b+k+6+c@1@*@0@l@:+d+F+d@:@l@0@*+l+c@m@1+@++++++++",
"+++++++++++++J+J+J+J+J+J+J+J+J+J+z+t+o+A+8+L+q+0@k+a+j+5+b+[@5+6@n@9+c@3+c@9@n+6@5+[+b+b@o++++++++++",
"+++++++++++++J+J+J+J+J+J+J+J+J+J+J+J+t+n+g+K+u+L+q+0+i+4+a+<+j@4@h+w+w+b+w+w@h@4+j+<+a+j++++++++++++",
"+++++++++++++++J+J+J+J+J+J+J+J+J+J+J+J+z+t+V+g+K+p+9+h@<+0+M@]+r+4+v@2@p@2+v@q+r@]+M@r++++++++++++++",
"+++++++++++++++++J+J+J+J+J+J+J+J+J+J+J+J+J+z+t+V+g+A+8+u+9+W+h+q@<@i+3+3+3@i@<+q+h+q++++++++++++++++",
"+++++++++++++++++++J+J+J+J+J+J+J+J+J+J+J+J+J+J+z+t+n+n+g+A+K+8+8+p+u@s@s@s+u+p+u@t++++++++++++++++++",
"+++++++++++++++++++++++J+J+J+J+J+J+J+J+J+J+J+J+J+J+z+t+t+t+V+V@u+o+o+g+A+A+o+o++++++++++++++++++++++",
"+++++++++++++++++++++++++J+J+J+J+J+J+J+J+J+J+J+J+J+J+J+J+z+z+z+t+t+t+t+t+t+n++++++++++++++++++++++++",
"+++++++++++++++++++++++++++++J+J+J+J+J+J+J+J+J+J+J+J+J+J+J+J+J+J+J+J+J+z++++++++++++++++++++++++++++",
"+++++++++++++++++++++++++++++++++J+J+J+J+J+J+J+J+J+J+J+J+J+J+J+J+J+J++++++++++++++++++++++++++++++++",
"+++++++++++++++++++++++++++++++++++++++J+J+J+J+J+J+J+J+J+J+J+J++++++++++++++++++++++++++++++++++++++",
"++++++++++++++++++++++++++++++++++++++++++++++++++++++++++++++++++++++++++++++++++++++++++++++++++++"};
