/* XPM */
static char * ball_red_xpm[] = {
"44 44 170 2",
"@R c #B25413",
"@Q c #B45512",
"@P c #AF5312",
"@O c #BC5914",
"@N c #BB5814",
"@M c #C55D15",
"@L c #C05B14",
"@K c #B75613",
"@J c #CF6216",
"@I c #CE6015",
"@H c #D56416",
"@G c #D86616",
"@F c #D86716",
"@E c #BC5813",
"@D c #AC5111",
"@C c #DD6918",
"@B c #E36C18",
"@A c #E16A17",
"@z c #D16316",
"@y c #A95011",
"@x c #CF6116",
"@w c #BB5913",
"@v c #A94F11",
"@u c #A74F11",
"@t c #A74D12",
"@s c #CA5E15",
"@r c #C25B14",
"@q c #AE5212",
"@p c #C05A14",
"@o c #DA6817",
"@n c #CE6115",
"@m c #C65D15",
"@l c #BB5713",
"@k c #B35412",
"@j c #C85E15",
"@i c #B65513",
"@h c #AB5112",
"@g c #CC6015",
"@f c #BA5713",
"@e c #B25412",
"@d c #D76616",
"@c c #C75E15",
"@b c #BE5A14",
"@a c #B55613",
"@0 c #A84F11",
"@9 c #A74D11",
"@8 c #AC5012",
"@7 c #C55D14",
"@6 c #A64D12",
"@5 c #A64E12",
"@4 c #D16216",
"@3 c #BD5A14",
"@2 c #B55513",
"@1 c #AA5011",
"@| c #A74F12",
"@} c #A64D11",
"@[ c #D36316",
"@< c #E67528",
"@: c #E6762A",
"@_ c #E56F1F",
"@( c #E06917",
"@/ c #B95813",
"@^ c #E98A49",
"@] c #F4C3A1",
"@{ c #F5C8A9",
"@~ c #EC975C",
"@! c #D66617",
"@) c #F2BB95",
"@' c #FDF8F5",
"@, c #F6CFB4",
"@> c #D66616",
"@; c #BA5813",
"@- c #AC5112",
"@= c #A64E11",
"@* c #E67426",
"@& c #F3BC97",
"@% c #FDF9F6",
"@$ c #FDFAF8",
"@# c #F6D0B6",
"@@ c #E77C32",
"@+ c #E06918",
"+Z c #D66517",
"+Y c #C35C14",
"+X c #B95713",
"+W c #B15412",
"+V c #EA8D4C",
"+U c #F4C7A8",
"+T c #F5CCB0",
"+S c #EC9960",
"+R c #E57121",
"+Q c #E36A17",
"+P c #E06A17",
"+O c #CC5F15",
"+N c #C25C14",
"+M c #AB5011",
"+L c #A85011",
"+K c #A74E12",
"+J c #E56E1D",
"+I c #E67629",
"+H c #E6772B",
"+G c #E5701F",
"+F c #DF6917",
"+E c #D46416",
"+D c #B75713",
"+C c #B05312",
"+B c #AB5012",
"+A c #A74E11",
"+z c #B65613",
"+y c #AF5212",
"+x c #A84F12",
"+w c #A85012",
"+v c #D86617",
"+u c #B45513",
"+t c #AE5112",
"+s c #AA5012",
"+r c #A94F12",
"+q c #E26B17",
"+p c #DC6817",
"+o c #D66516",
"+n c #CE6016",
"+m c #BB5813",
"+l c #B35413",
"+k c #AD5212",
"+j c #A95012",
"+i c #DE6917",
"+h c #DA6717",
"+g c #D36416",
"+f c #CB5F15",
"+e c #C15B14",
"+d c #B85613",
"+c c #B15312",
"+b c #AD5112",
"+a c #E36B17",
"+0 c #DD6817",
"+9 c #D76617",
"+8 c #D06216",
"+7 c #C75D15",
"+6 c #BE5914",
"+5 c #B85713",
"+4 c #B35513",
"+3 c #E56B18",
"+2 c #DF6918",
"+1 c #DB6817",
"+| c #D56516",
"+} c #CD6015",
"+[ c #C45C14",
"+< c #BF5A14",
"+: c #BD5914",
"+_ c #E46B19",
"+( c #D96717",
"+/ c #D26316",
"+^ c #CE6116",
"+] c #CA5F15",
"+{ c #C95E15",
"+~ c #E56C18",
"+! c #E26B18",
"+) c #E06A18",
"+' c #DD6917",
"+, c #DB6717",
"+> c #D96617",
"+; c #DE6918",
"+- c #E46C19",
"+= c #E36B18",
"+* c #E26A18",
"+& c #E16A18",
"+% c #E46C18",
"+$ c #E56B19",
"+# c #E46B18",
"+@ c #E56C19",
"++ c None",
"+++++++++++++++++++++++++++++++++++@+#+#+#+$+@+@+#+@+@++++++++++++++++++++++++++++++++++",
"+++++++++++++++++++++++++++++%+&+*+=+#+#+@+-+@+-+-+-+$+@+@+@++++++++++++++++++++++++++++",
"+++++++++++++++++++++++++;+>+,+'+)+!+=+#+@+-+#+@+-+#+-+~+@+$+-+-++++++++++++++++++++++++",
"+++++++++++++++++++++{+]+^+/+(+;+&+=+#+#+#+@+~+~+#+@+_+~+@+@+@+@+@+~++++++++++++++++++++",
"+++++++++++++++++++:+<+[+}+|+1+2+*+=+#+-+#+#+#+_+#+#+@+@+@+@+-+#+#+#+3++++++++++++++++++",
"+++++++++++++++++4+5+6+7+8+9+0+)+=+a+#+-+@+@+-+@+@+@+@+%+#+#+-+@+@+-+@+$+@++++++++++++++",
"+++++++++++++++b+c+d+e+f+g+h+i+&+=+#+#+-+@+@+@+@+@+@+@+@+-+#+-+@+@+@+@+@+@++++++++++++++",
"+++++++++++++j+k+l+m+[+n+o+p+)+q+=+#+#+@+%+@+@+@+@+@+#+@+-+@+@+%+@+@+@+@+@+$+@++++++++++",
"+++++++++++r+s+t+u+:+7+8+v+0+&+=+#+#+$+$+@+#+_+$+#+@+-+@+#+$+$+@+#+_+$+#+@+-+-++++++++++",
"+++++++++w+x+s+y+z+<+{+/+(+;+&+=+#+#+@+$+#+#+@+#+@+-+@+3+@+@+$+#+#+@+#+@+-+@+#+@++++++++",
"+++++++++A+x+B+C+D+e+f+E+,+F+!+=+#+@+@+$+#+@+@+-+#+@+_+@+@+@+G+H+I+J+-+#+@+_+@+@+~++++++",
"+++++++K+A+L+M+C+5+N+O+|+1+P+q+Q+#+@+$+#+@+3+#+$+#+#+#+#+@+R+S+T+U+V+J+#+#+#+#+@+-++++++",
"+++++++K+K+r+B+W+X+Y+}+Z+p@++!+#+#+@+-+-+@+-+@+-+-+-+-+@+@@@@#@$@%@&@*+-+-+-+@+@+-+-++++",
"+++++K@=+K+r@-+W@;+Y+}@>+p@++q+#+#+@+$+-+@+-+#+@+-+#+-+~+@@@@,@$@'@)@*+-+#+-+~+@+$+#++++",
"+++++K+K+A+r@-+W@;+Y+}@!+p+P+!+#+#+@+@+@+#+@+~+~+#+@+_+~+@+R@~@{@]@^+J+#+@+_+~+@+@+@+@++",
"+++A+A+A+K+r+B+W@/+Y+}+o+p@(+q+#+#+@+@+-+#+#+#+_+#+#+@+@+@+@@_@:@<+J+_+#+#+@+@+@+@+-+@++",
"+++K+K+K+K+x+M+c+X+N+O+|+1+)+!+#+#+#+#+-+@+@+-+@+@+@+@+%+#+#+-+@+@+-+@+@+@+@+%+#+#+-+3++",
"+++K+K+K+K+x+B+C+5+e+f+E+,+2+!+=+#+-+#+-+@+@+@+@+@+@+@+@+-+#+-+@+@+@+@+@+@+@+@+-+#+-+$+@",
"+++K+K+K+A+x+s+y+z+<+{@[+(+;+*+a+#+#+@+@+%+@+@+@+@+@+#+@+-+@+@+%+@+@+@+@+@+#+@+-+@+@+%+$",
"+K+K@}+K+K@|@1+t@2@3+7@4+v+'+&+=+#+#+$+$+@+#+_+$+#+@+-+@+#+$+$+@+#+_+$+#+@+-+@+#+$+$+@+$",
"@}@}@5@6+K@|+r+b+l+m@7+^+o+p+)+!+=+#+#+$+#+#+@+#+@+-+@+3+@+@+$+#+#+@+#+@+-+@+3+@+@+$+#+#",
"+A@5@}+K+K+K+x@8+c+5+e+f+g+h+2+&+=+#+#+$+#+@+@+-+#+@+_+@+@+@+$+#+@+@+-+#+@+_+@+@+@+$+#+$",
"+K+K@}+A@9@=@0+s+y@a@b@c+8@d+0+P+q+=+#+#+@+3+#+$+#+#+#+#+@+$+#+@+3+#+$+#+#+#+#+@+$+#+@+@",
"+K+K@6+K+K+K@|+r+b@e@f+Y@g+E+h+2+&+=+#+#+@+-+@+-+-+-+-+@+@+-+-+@+-+@+-+-+-+-+@+@+-+-+@+@",
"+K+K@5@}+K+K+K+x@h+C@i+<@j+8@d+p@++!+=+#+#+-+#+@+-+#+-+~+@+$+-+@+-+#+@+-+#+-+~+@+$+-+@+#",
"+++K@}+K+A+K+K@|+j+b@k@l+Y+f+g+(+i+)+!+a+#+#+~+~+#+@+_+~+@+@+@+#+@+~+~+#+@+_+~+@+@+@+#+@",
"+++K@9+A+K+K+K+K+x@h+C+z@b@m@n+|@o+i+)+!+a+Q+#+#+#+#+@+@+@+@+-+#+#+#+_+#+#+@+@+@+#+#+#+@",
"+++K+K+K+K+K@}+A@|+j+b@e+5@p@j+8+o+1+i+)+!+=+=+#+#+#+@+%+#+#+-+@+@+-+@+@+@+#+#+#+#+#+#++",
"+++A+A+K+K+K+K@}+K+x+s@q+u@;@r@s@4+o+1+;+)+*+=+=+#+#+#+#+-+#+-+@+@+@+@+#+#+#+#+=+a+=+#++",
"++++@t+K@9+K+K+K+K+K+x@h+y@2+m+Y+]+8+o+h+0+F+&+*+=+=+a+=+#+#+#+#+#+#+#+=+=+a+!+!+&+*+#++",
"+++++K+K+K+K@9+K+K+K@u@v@-+C@a@w@r+{@x+E+v+1+'+2+P+&+!+!+a+=+=+=+a+a+=+q+*+&+)+F+;+&++++",
"+++++++K+K@5@5@6+K@}+A+x@y@-+C@2+m+e+7+}@z+|+(+1+0+;+2+)+&+&@A@A@A+&+P@++2+i+p+,+1@B++++",
"+++++++K+K+K@t+K+K@}+K+K+x@y@-+C+u+X+<+[+{+n+/+|+v+h+1+p+'@C+i+i+;@C+0+p+,+(+9+E+p++++++",
"++++++++@6@=@9+K@}@6+A+A+K@u@y@D@q@e+D@E@p+[+{+}+8+/+E+o@d+9@F@F@G@d@>+|+E@4@x@H+i++++++",
"+++++++++K+K+K+K@t+K+K+K+K+K+x+r+B+b+C+u+d@E@p+Y+7+{+O@I@x+8+8@4+8@J+^+}+f@j+{+Z++++++++",
"+++++++++++K+K+K+K@5@5@}@t@5+A@|+x+s@-@q+c+u@K@;+:@L+N+[@M@m+7+7+7@m@M+Y+e+<+[++++++++++",
"+++++++++++++K+K+K@}+K+A@t@}+K+A+K+x+r+s@-+t+C@e+u@K+X@;@N@O+:+:@O@O@N@f+d@/++++++++++++",
"+++++++++++++++K+K@5+A+A@=@9+A+K+K+K+K+x+r@1+M@D@q@P+c@e@k+4+u@Q@Q@k@e+W@R++++++++++++++",
"+++++++++++++++++A+K+K@5+K+K+K+K+K@}@}+K+K@|+x+r+s+B@h@-@-+b+k@q+b+b+b+y++++++++++++++++",
"+++++++++++++++++++K+K@9+K+K+K+K+K+K@}@5+K@t+A@|@|+x+x+x+j@y+j+j+j+s+B++++++++++++++++++",
"+++++++++++++++++++++++K@5+K+K@9+K+K+K+K+K+K+K+K+K+K+A+K+K+K+K@|+x++++++++++++++++++++++",
"+++++++++++++++++++++++++++K+K+K+K@9+K+K+K@=+A+K@}+K+K+K@9+K+K++++++++++++++++++++++++++",
"+++++++++++++++++++++++++++++++A+K@9+K+K@}@}+K@}@5+K+K+K+A++++++++++++++++++++++++++++++",
"+++++++++++++++++++++++++++++++++++++++K@}+A+K+K+K++++++++++++++++++++++++++++++++++++++"};
