/* XPM */
static char * ball_red_xpm[] = {
"44 44 158 2",
"@F c #A62C11",
"@E c #B22F13",
"@D c #B43012",
"@C c #B33012",
"@B c #AF2F12",
"@A c #BC3214",
"@z c #BD3214",
"@y c #BC3314",
"@x c #BB3214",
"@w c #B93113",
"@v c #C63515",
"@u c #C73415",
"@t c #C53515",
"@s c #C03414",
"@r c #D63917",
"@q c #CE3615",
"@p c #D83A16",
"@o c #BC3213",
"@n c #AC2D11",
"@m c #DD3C18",
"@l c #E13C17",
"@k c #CF3716",
"@j c #A92D11",
"@i c #DD3B17",
"@h c #D13716",
"@g c #C03314",
"@f c #B22F12",
"@e c #AD2D12",
"@d c #DE3B17",
"@c c #D53A16",
"@b c #CE3715",
"@a c #C63415",
"@0 c #B63113",
"@9 c #B02E12",
"@8 c #B32F12",
"@7 c #C83515",
"@6 c #B23012",
"@5 c #A72B12",
"@4 c #D73A16",
"@3 c #D03816",
"@2 c #B53113",
"@1 c #A82C11",
"@| c #C53414",
"@} c #A62B12",
"@[ c #A62C12",
"@< c #D83B17",
"@: c #D13816",
"@_ c #B53013",
"@( c #AA2D11",
"@/ c #A82C12",
"@^ c #E64A28",
"@] c #E64C2A",
"@{ c #E03B17",
"@~ c #A72B11",
"@! c #E96649",
"@) c #F4B0A1",
"@' c #F5B7A9",
"@, c #EC765C",
"@> c #E54421",
"@; c #BA3113",
"@- c #F2A695",
"@= c #FDF7F5",
"@* c #F6C0B4",
"@& c #E75232",
"@% c #DC3C17",
"@$ c #BA3213",
"@# c #AC2D12",
"@@ c #A62B11",
"@+ c #E64926",
"+Z c #F3A797",
"+Y c #FDF7F6",
"+X c #FDF9F8",
"+W c #F6C1B6",
"+V c #E75332",
"+U c #D63A17",
"+T c #C33414",
"+S c #B93213",
"+R c #EA694C",
"+Q c #F4B6A8",
"+P c #F5BCB0",
"+O c #EC7A60",
"+N c #E54521",
"+M c #E03C17",
"+L c #CC3615",
"+K c #C23414",
"+J c #AB2D11",
"+I c #A82D11",
"+H c #A72C12",
"+G c #E5411D",
"+F c #E64B29",
"+E c #E64D2B",
"+D c #E5431F",
"+C c #DF3C17",
"+B c #D43916",
"+A c #CB3615",
"+z c #B73113",
"+y c #B02F12",
"+x c #AB2D12",
"+w c #A72C11",
"+v c #D93B17",
"+u c #D23816",
"+t c #B63013",
"+s c #AF2E12",
"+r c #A82D12",
"+q c #E43C18",
"+p c #D83A17",
"+o c #B43013",
"+n c #AE2E12",
"+m c #AA2D12",
"+l c #E23C17",
"+k c #DC3B17",
"+j c #D63A16",
"+i c #CE3616",
"+h c #BB3213",
"+g c #B32F13",
"+f c #A92D12",
"+e c #E33D18",
"+d c #DE3C17",
"+c c #DA3B17",
"+b c #D33916",
"+a c #CB3515",
"+0 c #C13414",
"+9 c #B12F12",
"+8 c #AD2E12",
"+7 c #E33C17",
"+6 c #D73A17",
"+5 c #D03716",
"+4 c #C73515",
"+3 c #BE3314",
"+2 c #B83113",
"+1 c #B33013",
"+| c #DF3C18",
"+} c #D53916",
"+[ c #CD3615",
"+< c #C43414",
"+: c #BF3314",
"+_ c #BD3314",
"+( c #E53D18",
"+/ c #D23916",
"+^ c #CE3716",
"+] c #CA3515",
"+{ c #C93515",
"+~ c #E53E18",
"+! c #E03C18",
"+) c #DD3C17",
"+' c #DB3B17",
"+, c #D93A17",
"+> c #DE3C18",
"+; c #E43D19",
"+- c #E53D19",
"+= c #E43E19",
"+* c #E33C18",
"+& c #E23C18",
"+% c #E13C18",
"+$ c #E43E18",
"+# c #E43D18",
"+@ c #E53E19",
"++ c None",
"+++++++++++++++++++++++++++++++++++@+#+#+$+@+@+@+$+@+@++++++++++++++++++++++++++++++++++",
"+++++++++++++++++++++++++++++#+%+&+*+#+#+@+=+-+=+;+;+@+@+@+@++++++++++++++++++++++++++++",
"+++++++++++++++++++++++++>+,+'+)+!+&+*+#+-+;+#+@+;+#+=+~+-+@+;+=++++++++++++++++++++++++",
"+++++++++++++++++++++{+]+^+/+,+>+%+*+#+#+#+@+(+(+#+-+=+~+@+-+-+@+@+~++++++++++++++++++++",
"+++++++++++++++++++_+:+<+[+}+'+|+&+*+#+;+#+$+#+;+#+#+@+@+@+@+;+#+$+$+~++++++++++++++++++",
"+++++++++++++++++1+2+3+4+5+6+)+!+*+7+#+=+-+@+;+@+@+@+@+$+#+$+=+-+@+;+@+@+@++++++++++++++",
"+++++++++++++++8+9+2+0+a+b+c+d+%+e+#+#+=+@+@+-+@+@+@+@+@+=+#+=+@+@+-+@+@+@++++++++++++++",
"+++++++++++++f+8+g+h+<+i+j+k+!+l+e+#+#+@+$+@+@+@+@+@+#+@+=+@+@+$+@+@+@+@+@+@+@++++++++++",
"+++++++++++f+m+n+o+_+4+5+p+)+%+*+q+#+@+-+@+#+;+@+#+@+=+@+#+@+-+@+#+;+@+#+@+=+=++++++++++",
"+++++++++r+r+m+s+t+:+{+u+v+>+%+e+#+#+-+@+$+#+@+#+@+=+@+(+@+-+@+$+#+@+#+@+=+@+#+@++++++++",
"+++++++++w+r+x+y+z+0+A+B+'+C+&+*+#+@+@+@+#+@+-+;+#+@+;+@+@+@+D+E+F+G+;+#+@+;+@+@+~++++++",
"+++++++H+w+I+J+y+2+K+L+}+'+M+l+7+#+-+@+#+-+(+#+-+#+#+#+#+-+N+O+P+Q+R+G+#+#+#+#+-+=++++++",
"+++++++H+H+f+x+9+S+T+[+U+k+!+&+#+#+@+=+;+@+=+-+=+;+;+;+@+@+V+W+X+Y+Z@++;+;+;+@+@+=+=++++",
"+++++H@@+H+f@#+9@$+T+[+j@%+!+l+#+#+-+-+=+-+;+#+@+;+#+=+~+-@&@*+X@=@-@++;+#+=+~+-+-+$++++",
"+++++H+H+w+f@#+9@;+T+[+U@%+M+&+#+#+@+-+-+#+@+(+(+#+-+=+~+@@>@,@'@)@!+G+#+-+=+~+@+-+@+@++",
"++@~+w@~+H+f+x+9+S+T+[+j+k@{+l+q+#+@+@+;+#+$+#+;+#+#+@+@+@+@+D@]@^+G+;+#+#+@+@+@+@+;+@++",
"+++H+H+H+H+r+J+9+S+K+L+}+'+!+&+#+#+#+$+=+-+@+;+@+@+@+@+$+#+$+=+-+@+;+@+@+@+@+$+#+$+=+~++",
"+++H+H+H+H+r+x+y+2+0+A+B+'+|+&+e+#+=+#+=+@+@+-+@+@+@+@+@+=+#+=+@+@+-+@+@+@+@+@+=+#+=+@+@",
"+++H+H+H+w@/+m+s+t+:+{+b+v+>+&+7+#+#+@+@+$+@+@+@+@+@+#+@+=+@+@+$+@+@+@+@+@+#+@+=+@+@+$+@",
"+H+H@@+H+H+H@(+n@_+_+4@:@<+)+%+*+q+#+@+-+@+#+;+@+#+@+=+@+#+@+-+@+#+;+@+#+@+=+@+#+@+-+@+@",
"@@@@@[@}+H+H+f+8+1+h@|+^+j@%+!+&+*+#+#+@+$+#+@+#+@+=+@+(+@+-+@+$+#+@+#+@+=+@+(+@+-+@+$+$",
"+w@[@@+H+H+H+r@#+9+2+0+A+b+c+|+%+e+#+#+@+#+@+-+;+#+@+;+@+@+@+@+#+@+-+;+#+@+;+@+@+@+@+#+@",
"+H+H@@@~@~@@@1+m+s@2+3+4@3@4+)+M+l+*+#+#+-+(+#+-+#+#+#+#+-+@+#+-+(+#+-+#+#+#+#+-+@+#+-+@",
"@5@5@}@5+H+H+H+f+8@6@$+T+L+B+c+|+%+*+#+#+@+=+-+=+;+;+;+@+@+=+;+@+=+-+=+;+;+;+@+@+=+;+@+@",
"+H+H@}@@+H+H+H+r+x+y+t+:@7@3@4@%+!+&+*+#+#+;+#+@+;+#+=+~+-+-+=+-+;+#+@+;+#+=+~+-+-+=+-+$",
"+++H@@+H+w+H+H+H+f+8@8+h+T+A+b+v+d+!+&+7+#+#+(+(+#+-+=+~+@+-+-+#+@+(+(+#+-+=+~+@+-+-+#+@",
"+++H@~@~@5+H@5+H+r+x@9@0+3@a@b@c+c@d+!+&+7+7+#+#+#+#+@+@+@+@+;+#+$+#+;+#+#+@+@+@+#+#+#+@",
"+++H+H+H+H+H@@+w+H+f@e@f+2@g@7+5+j+'+d+!+&+*+*+#+#+#+@+$+#+$+=+-+@+;+@+@+@+#+#+#+#+#+#++",
"++@~+w+H+H+H+H@@+H@/+m+n+o@$+K+]@h+j+'+>+!+&+*+*+q+#+#+#+=+#+=+@+@+-+@+#+#+#+#+e+7+*+#++",
"++++@5+H@~+H+H+H+H+H+r+x+s@_+h+T+]+5+j+c@i+C+%+&+*+*+7+e+#+#+#+#+#+#+#+e+e+7+&+&+%+&+#++",
"+++++H+H+H+H@~+H@5@5+w@j@#+y@_+h+K+{@k+B+p+'+)+|+M+%+&+&+7+*+*+*+7+7+*+l+&+%+!+C+>+%++++",
"+++++++H+H@}@[@}+H@@+w@/@j@#+y@_+h+0+4+[@:+}+v+'+)+>+|+!+%+%@l@l@l+%+M+!+|+d+k+'+'+e++++",
"+++++++H+H+H+H+H+H@@+H+H@/@j@#@9+o+S+:+<+{+^+u+}+p+c+'@%+)@m+d+d+>@m+)+k+'+,+6+B+k++++++",
"++++++++@}@@@~+H@@@[@~@~+H+w@j@n+n@f+z@o@g+<+{+[+5+u+B+j@4+6@p@p@p@4+j@c+B@:@k+}+d++++++",
"+++++++++H+H+H@5@5@5@5@5@5+H@/+f+x+8+y+o+2@o@g+T+4+{+L@q@k+5@3@:+5@k+^+[+A@7+{@r++++++++",
"++++++++++@5+H@5@5@[@}@@+H@}+w+H+r+m@#+n+9+o+z@$+_@s+K+<@t@a@u+4@u@v@t+T+0+:+<++++++++++",
"+++++++++++++H+H@5@@+H+w+H@@+H+w+H@/+f+m@#+n+y@6+o+z@w@$@x@y@z@z@A@y@x@;+2+S++++++++++++",
"+++++++++++++++H+H@}@~@~@@@~@~@5+H@5+H@/+f@(+J@n+n@B+9@6@C+1+o@D@D@C@6+9@E++++++++++++++",
"++++++++++++++++@~+H+H@[+H+H+H+H+H@@@F+H+H+H+r+f+m+x+x@#@#@e+8+n+8@e+8+s++++++++++++++++",
"+++++++++++++++++++H+H@~@5+H+H+H+H+H@@@[@5@5+w+H+H+r+r+r+f@j+f+f+f+m+x++++++++++++++++++",
"+++++++++++++++++++++++H@[+H+H@~+H+H+H+H@5+H+H+H+H+H+w+H+H+H+H+H+r++++++++++++++++++++++",
"+++++++++++++++++++++++++++H@5+H+H@~+H@5@5@@@~@5@@+H+H+H@~@5+H++++++++++++++++++++++++++",
"++++++++++++++++++++++++++++++@~+H@~+H+H@@@@+H@@@[+H+H+H@~++++++++++++++++++++++++++++++",
"+++++++++++++++++++++++++++++++++++++++H@@+w+H@5+H++++++++++++++++++++++++++++++++++++++"};
