/* XPM */
static char * ball_red_xpm[] = {
"44 44 163 2",
"@K c #136DB2",
"@J c #126EB3",
"@I c #126EB4",
"@H c #1473BC",
"@G c #1473BB",
"@F c #136FB4",
"@E c #1578C5",
"@D c #157AC6",
"@C c #1579C5",
"@B c #1475C0",
"@A c #1784D6",
"@z c #157CCB",
"@y c #157ECE",
"@x c #1684D8",
"@w c #1683D7",
"@v c #1373BC",
"@u c #126BAE",
"@t c #1169AC",
"@s c #1783D7",
"@r c #1888DD",
"@q c #1372B9",
"@p c #178AE1",
"@o c #167FCF",
"@n c #1168A9",
"@m c #1373BB",
"@l c #167FD0",
"@k c #1476C0",
"@j c #1786DA",
"@i c #157FCE",
"@h c #1579C6",
"@g c #1788DE",
"@f c #1477C3",
"@e c #126DB3",
"@d c #157BC8",
"@c c #126DB2",
"@b c #1684D7",
"@a c #1682D3",
"@0 c #1266A6",
"@9 c #1478C5",
"@8 c #1267A6",
"@7 c #1167A6",
"@6 c #1680D1",
"@5 c #136FB5",
"@4 c #1168AA",
"@3 c #2894E6",
"@2 c #2A95E6",
"@1 c #1F8FE5",
"@| c #1266A7",
"@} c #1D8EE5",
"@[ c #49A4E9",
"@< c #A1D0F4",
"@: c #A9D4F5",
"@_ c #5CAEEC",
"@( c #2190E5",
"@/ c #178AE0",
"@^ c #95CAF2",
"@] c #F5FAFD",
"@{ c #B4DAF6",
"@~ c #1787DC",
"@! c #1372BA",
"@) c #1269AC",
"@' c #1166A6",
"@, c #2693E6",
"@> c #97CBF3",
"@; c #F6FAFD",
"@- c #F8FBFD",
"@= c #B6DAF6",
"@* c #3299E7",
"@& c #1783D6",
"@% c #1478C3",
"@$ c #1371B9",
"@# c #126DB1",
"@@ c #1269AB",
"@+ c #4CA6EA",
"+Z c #A8D3F4",
"+Y c #B0D7F5",
"+X c #60B0EC",
"+W c #2191E5",
"+V c #178CE3",
"+U c #178AE2",
"+T c #1789E0",
"+S c #1683D5",
"+R c #157DCC",
"+Q c #1477C2",
"+P c #126CB0",
"+O c #1169AB",
"+N c #1167A8",
"+M c #1167A7",
"+L c #1267A7",
"+K c #1D8FE5",
"+J c #2994E6",
"+I c #2B95E6",
"+H c #1F90E5",
"+G c #1789DF",
"+F c #1682D4",
"+E c #1370B7",
"+D c #126BB0",
"+C c #1268AB",
"+B c #1166A7",
"+A c #1785D9",
"+z c #157BC9",
"+y c #1370B6",
"+x c #126BAF",
"+w c #1267A8",
"+v c #1784D8",
"+u c #136EB4",
"+t c #126AAE",
"+s c #1268AA",
"+r c #1267A9",
"+q c #178BE2",
"+p c #1889E0",
"+o c #1786DC",
"+n c #1683D6",
"+m c #167ECE",
"+l c #1372BB",
"+k c #136DB3",
"+j c #1269AD",
"+i c #1268A9",
"+h c #1789DE",
"+g c #1785DA",
"+f c #1681D3",
"+e c #157DCB",
"+d c #1476C1",
"+c c #126CB1",
"+b c #126AAD",
"+a c #178BE3",
"+0 c #1787DD",
"+9 c #1784D7",
"+8 c #1680D0",
"+7 c #157AC7",
"+6 c #1474BE",
"+5 c #1371B8",
"+4 c #136EB3",
"+3 c #198CE4",
"+2 c #188AE2",
"+1 c #1889DF",
"+| c #1682D5",
"+} c #157ECD",
"+[ c #1478C4",
"+< c #1475BF",
"+: c #1474BD",
"+_ c #188CE5",
"+( c #1888DE",
"+/ c #1784D9",
"+^ c #1681D2",
"+] c #167FCE",
"+{ c #157CCA",
"+~ c #157CC9",
"+! c #188DE5",
"+) c #188DE4",
"+' c #188AE0",
"+, c #1788DD",
"+> c #1786DB",
"+; c #1786D9",
"+- c #1889DE",
"+= c #198CE5",
"+* c #198DE4",
"+& c #188BE3",
"+% c #188BE2",
"+$ c #188AE1",
"+# c #188CE4",
"+@ c #198DE5",
"++ c None",
"+++++++++++++++++++++++++++++++++++@+#+#+#+@+@+@+#+@+@++++++++++++++++++++++++++++++++++",
"+++++++++++++++++++++++++++++#+$+%+&+#+#+@+*+@+*+*+*+=+@+@+@++++++++++++++++++++++++++++",
"+++++++++++++++++++++++++-+;+>+,+'+%+&+#+@+*+)+@+*+)+*+!+@+@+*+*++++++++++++++++++++++++",
"+++++++++++++++++++++~+{+]+^+/+(+$+&+#+#+#+@+_+!+#+@+*+!+@+@+@+@+@+!++++++++++++++++++++",
"+++++++++++++++++++:+<+[+}+|+>+1+2+&+#+*+#+#+#+3+#+#+@+@+@+@+*+#+#+#+!++++++++++++++++++",
"+++++++++++++++++4+5+6+7+8+9+0+'+&+a+#+*+@+@+*+@+@+@+@+)+)+)+*+@+@+*+@+@+=++++++++++++++",
"+++++++++++++++b+c+5+d+e+f+g+h+$+&+#+#+*+@+@+@+@+@+@+@+@+*+#+*+@+@+@+@+@+@++++++++++++++",
"+++++++++++++i+j+k+l+[+m+n+o+p+q+&+#+#+@+)+@+@+@+@+@+#+@+*+@+@+)+@+@+@+@+@+@+=++++++++++",
"+++++++++++r+s+t+u+:+7+8+v+0+$+&+#+#+@+@+@+)+3+@+#+@+*+@+)+@+@+@+)+3+@+#+@+*+*++++++++++",
"+++++++++w+w+s+x+y+<+z+^+A+(+$+&+#+#+@+@+#+#+@+)+@+*+@+!+@+@+@+#+#+@+)+@+*+@+#+@++++++++",
"+++++++++B+w+C+D+E+d+e+F+>+G+2+&+#+@+@+@+)+@+@+*+#+@+*+@+@+@+H+I+J+K+*+#+@+*+@+@+!++++++",
"+++++++L+M+N+O+P+5+Q+R+S+>+T+U+V+#+@+=+#+@+_+#+@+#+#+#+#+@+W+X+Y+Z@++K+#+#+#+#+@+*++++++",
"+++++++L+L+r@@@#@$@%+}@&+o+'+%+#+#+@+*+*+@+*+@+*+*+*+*+@+@@*@=@-@;@>@,+*+*+*+@+@+*+*++++",
"+++++L@'+L+r@)@#@!@%+}+n@~+'+q+#+#+@+@+*+@+*+)+@+*+)+*+!+@@*@{@-@]@^@,+*+)+*+!+@+@+)++++",
"+++++L+L+M+r@)@#@!@%+}@&@~@/+%+#+#+@+@+@+#+@+_+!+#+@+*+!+@@(@_@:@<@[@}+#+@+*+!+@+@+@+@++",
"+++B+M+M@|+r@@@#@$@%+}+n+o@/+q+#+#+@+@+*+#+#+#+3+#+#+@+@+@+@@1@2@3@}+3+#+#+@+@+@+@+*+@++",
"+++L+L+L+L+w+O+c@$+Q+R+S+>+p+2+#+#+)+)+*+@+@+*+@+@+@+@+)+)+)+*+@+@+*+@+@+@+@+)+)+)+*+!++",
"++@|@|+L+L+w@@+D+5+d+e+F+>+1+2+&+#+*+#+*+@+@+@+@+@+@+@+@+*+#+*+@+@+@+@+@+@+@+@+*+#+*+=+@",
"++@|+L+L+M+w+s+x+y+<+~+f+A+(+2+a+#+#+@+@+)+@+@+@+@+@+#+@+*+@+@+)+@+@+@+@+@+#+@+*+@+@+)+@",
"+L@|@'+L@|+L@4+t@5+:+7@6+v+,+$+&+#+#+@+@+@+)+3+@+#+@+*+@+)+@+@+@+)+3+@+#+@+*+@+)+@+@+@+@",
"@'@7@8@8+L@|+r+j+4+l@9+]+n+o+p+%+&+#+#+@+#+#+@+)+@+*+@+!+@+@+@+#+#+@+)+@+*+@+!+@+@+@+#+#",
"+M@0@'+L@|+L+w@)+c+5+d+e@a+g+1+$+&+#+#+@+)+@+@+*+#+@+*+@+@+@+@+)+@+@+*+#+@+*+@+@+@+@+)+@",
"+L@|@'+B+M@'+N+s+x@5+6+7+8@b+0@/+q+&+#+#+@+_+#+@+#+#+#+#+@+=+#+@+_+#+@+#+#+#+#+@+=+#+@+@",
"+L+L@8@|+L+L+L+i+j@c@!@%+R+F+g+1+$+&+#+#+@+*+@+*+*+*+*+@+@+*+*+@+*+@+*+*+*+*+@+@+*+*+@+@",
"+L+L@8@'+L+L@|+w@@+D+y+<@d+8@b@~+p+2+&+#+#+*+)+@+*+)+*+!+@+@+*+@+*+)+@+*+)+*+!+@+@+*+@+#",
"+++L@'+L+M+L+L+L+i+b@e+l@f+e+f+A@g+'+%+a+#+#+_+!+#+@+*+!+@+@+@+#+@+_+!+#+@+*+!+@+@+@+#+@",
"+++L+M+M@|+L@|+L+w+C+D+y+6@h@i+S@j@g+'+%+a+a+#+#+#+#+@+@+@+@+*+#+#+#+3+#+#+@+@+@+#+#+#+@",
"+++L+L+L+L+L@7+B+L+i+j@c+5@k@d@l+n+>@g+'+%+&+&+#+#+#+@+)+)+)+*+@+@+*+@+@+@+#+#+#+#+#+#++",
"+++B+M+L+L+L+L@'+L+w+s+t+u@!+Q+{@6+n+>+(+'+2+&+&+#+#+#+#+*+#+*+@+@+@+@+#+#+#+#+&+a+&+#++",
"+++++L+L+M+L@|+L+L+L+w@@+x@5@m@f+{+8+n+g+0+G+$+2+&+&+a+&+#+#+#+#+#+#+#+&+&+a+%+2+$+%+#++",
"+++++L+L@|+L+B+L@|@|+M@n@)+P@5@m+Q+z@o+F+v+>+,+1@/+$+2+%+a+&+&+&+a+a+&+U+2+$+'+G+(+$++++",
"+++++++L+L@0@0@0@|@7+B+w@n@)+P@5+l+d+7+}@6+S+A+>+,+(+1+'+$+$@p@p@p+$@/+p+1@g@~+>+>+&++++",
"++++++@|@|+L+L+L+L@7+L@|+w@n@)+D+u@q+<+[+~+m+^+S+v+g+>@~+,@r@g@g+(@r+0+o+>+/@s+F@~++++++",
"++++++++@0@'+B@|@'@8+B+B@|+M@n@t@u@c+E@v@k+[+z+}@l+^+F+n@w+9@x@x@x@b+n+S+F@6@o+S@g++++++",
"+++++++++L+L+L+L@|@|+L@|+L+L+w+r+C+b+P+u+5@v@k@%+7+~+R@y@o+8+8@6+8@o+]+}@z@d+z@A++++++++",
"+++++++++++L+L+L@|@8@0@7@|@8+B+L+w+s@)+t+c+u+E@!+:@B+Q+[@C@D+7+7+7@h@E@f+d+<+[++++++++++",
"++++++++++++@|+L+L@7+L+B@|@'+L+M+L+w+r+s@)+t+D@c@F+E@$@!@G@H+:+:@H@H@G@!+5@$++++++++++++",
"+++++++++++++++L+L@8+M+M@7+M+M@|+L@|+L+w+r@4+O@t+t+x+c@c@e+4+u@I@I@J@c@#@K++++++++++++++",
"+++++++++++++++++M+L+L@8+L+L+L+L+L@7@'+L+L+L+w+r+s+C@@@)@)+b+b+t+b+b+b+x++++++++++++++++",
"+++++++++++++++++++L+L+B+L@|+L+L+L+L@'@8@|+L+B+L+L+w+w+w+r@n+i+i+i+s@@++++++++++++++++++",
"+++++++++++++++++++++++L@8+L+L+M+L@|+L+L@|+L+L+L+L+L+M+L+L+L+L+L+w++++++++++++++++++++++",
"+++++++++++++++++++++++++++L+L+L+L+B+L@|@|@'+M@|@'+L@|+L+B@|+L++++++++++++++++++++++++++",
"+++++++++++++++++++++++++++++++B+L+M@|@|@7@'+L@7@8+L+L+L+B++++++++++++++++++++++++++++++",
"+++++++++++++++++++++++++++++++++++++++L@'+M+L+L+L++++++++++++++++++++++++++++++++++++++"};
