/* XPM */
static char * ball_red_xpm[] = {
"44 44 163 2",
"@K c #65AF12",
"@J c #67B213",
"@I c #68B412",
"@H c #67B312",
"@G c #61A612",
"@F c #6DBC14",
"@E c #6DBB14",
"@D c #69B413",
"@C c #72C515",
"@B c #74C615",
"@A c #73C515",
"@z c #6FC014",
"@y c #7DD617",
"@x c #76CB15",
"@w c #67B012",
"@v c #7DD816",
"@u c #7CD716",
"@t c #6DBC13",
"@s c #64AC11",
"@r c #7CD717",
"@q c #81DD18",
"@p c #6CB913",
"@o c #83E117",
"@n c #7AD116",
"@m c #79CF16",
"@l c #63A911",
"@k c #6DBB13",
"@j c #85E318",
"@i c #70C014",
"@h c #67B212",
"@g c #85E317",
"@f c #7FDA17",
"@e c #78CE15",
"@d c #73C615",
"@c c #81DE17",
"@b c #71C314",
"@a c #68B312",
"@0 c #75C815",
"@9 c #68B212",
"@8 c #7DD716",
"@7 c #72C514",
"@6 c #62A612",
"@5 c #62A611",
"@4 c #79D116",
"@3 c #69B513",
"@2 c #63AA11",
"@1 c #7AD316",
"@| c #66B112",
"@} c #8DE628",
"@[ c #8EE62A",
"@< c #88E51F",
"@: c #62A711",
"@_ c #87E51D",
"@( c #9EE949",
"@/ c #CDF4A1",
"@^ c #D1F5A9",
"@] c #A9EC5C",
"@{ c #89E521",
"@~ c #83E017",
"@! c #C7F295",
"@) c #FAFDF5",
"@' c #D7F6B4",
"@, c #92E732",
"@> c #80DC17",
"@; c #6CBA13",
"@- c #64AC12",
"@= c #61A611",
"@* c #8CE626",
"@& c #C8F397",
"@% c #FAFDF6",
"@$ c #FBFDF8",
"@# c #D8F6B6",
"@@ c #93E732",
"@+ c #7CD617",
"+Z c #72C314",
"+Y c #6BB913",
"+X c #64AB12",
"+W c #62A912",
"+V c #62A712",
"+U c #A0EA4C",
"+T c #D1F4A8",
"+S c #D5F5B0",
"+R c #ABEC60",
"+Q c #8AE521",
"+P c #85E518",
"+O c #83E217",
"+N c #82E017",
"+M c #7CD516",
"+L c #77CC15",
"+K c #71C214",
"+J c #64AB11",
"+I c #62A811",
"+H c #61A712",
"+G c #85E519",
"+F c #88E51D",
"+E c #8EE629",
"+D c #8FE62B",
"+C c #89E51F",
"+B c #82DF17",
"+A c #7BD416",
"+z c #6AB713",
"+y c #66B012",
"+x c #63AB12",
"+w c #61A711",
"+v c #7ED917",
"+u c #75C915",
"+t c #6AB613",
"+s c #66AF12",
"+r c #62A812",
"+q c #7DD817",
"+p c #68B413",
"+o c #65AE12",
"+n c #63AA12",
"+m c #84E217",
"+l c #82E018",
"+k c #7FDC17",
"+j c #7CD616",
"+i c #6CBB13",
"+h c #64AD12",
"+g c #63A912",
"+f c #82DE17",
"+e c #7EDA17",
"+d c #7BD316",
"+c c #77CB15",
"+b c #70C114",
"+a c #67B112",
"+0 c #65AD12",
"+9 c #86E418",
"+8 c #84E317",
"+7 c #80DD17",
"+6 c #7DD717",
"+5 c #79D016",
"+4 c #74C715",
"+3 c #6EBE14",
"+2 c #6BB813",
"+1 c #68B313",
"+| c #85E419",
"+} c #83E218",
"+[ c #82DF18",
"+< c #7BD516",
"+: c #78CD15",
"+_ c #72C414",
"+( c #6FBF14",
"+/ c #6EBD14",
"+^ c #81DE18",
"+] c #7DD917",
"+{ c #7AD216",
"+~ c #78CE16",
"+! c #76CA15",
"+) c #76C915",
"+' c #86E518",
"+, c #83E018",
"+> c #81DD17",
"+; c #7FDB17",
"+- c #7FD917",
"+= c #82DE18",
"+* c #86E419",
"+& c #84E318",
"+% c #84E218",
"+$ c #83E118",
"+# c #85E418",
"+@ c #86E519",
"++ c None",
"+++++++++++++++++++++++++++++++++++@+#+#+#+@+@+@+#+@+@++++++++++++++++++++++++++++++++++",
"+++++++++++++++++++++++++++++#+$+%+&+#+#+@+*+@+*+*+*+@+@+@+@++++++++++++++++++++++++++++",
"+++++++++++++++++++++++++=+-+;+>+,+%+&+#+@+*+#+@+*+#+*+'+@+@+*+*++++++++++++++++++++++++",
"+++++++++++++++++++++)+!+~+{+]+^+$+&+#+#+#+@+'+'+#+@+*+'+@+@+@+@+@+'++++++++++++++++++++",
"+++++++++++++++++++/+(+_+:+<+;+[+}+&+#+*+#+#+#+|+#+#+@+@+@+@+*+#+#+#+'++++++++++++++++++",
"+++++++++++++++++1+2+3+4+5+6+7+,+&+8+#+*+@+@+*+@+@+@+@+9+#+9+*+@+@+*+@+@+@++++++++++++++",
"+++++++++++++++0+a+2+b+c+d+e+f+$+&+#+#+*+@+@+@+@+@+@+@+@+*+#+*+@+@+@+@+@+@++++++++++++++",
"+++++++++++++g+h+1+i+_+~+j+k+l+m+&+#+#+@+9+@+@+@+@+@+#+@+*+@+@+9+@+@+@+@+@+@+@++++++++++",
"+++++++++++g+n+o+p+/+4+5+q+7+$+&+#+#+@+@+@+#+*+@+#+@+*+@+#+@+@+@+#+*+@+#+@+*+*++++++++++",
"+++++++++r+r+n+s+t+(+u+{+v+^+$+&+#+#+@+@+#+#+@+#+@+*+@+'+@+@+@+#+#+@+#+@+*+@+#+@++++++++",
"+++++++++w+r+x+y+z+b+c+A+;+B+}+&+#+@+@+@+#+@+@+*+#+@+*+@+@+@+C+D+E+F+*+#+@+*+@+G+'++++++",
"+++++++H+w+I+J+y+2+K+L+M+;+N+O+8+#+@+@+#+@+P+#+@+#+9+#+9+@+Q+R+S+T+U+F+#+9+#+9+@+*++++++",
"+++++++V+V+W+X+a+Y+Z+:@++k+,+%+#+#+@+*+*+@+*+@+*+*+*+*+@+@@@@#@$@%@&@*+*+*+*+@+@+*+*++++",
"+++++V@=+H+W@-+a@;+Z+:+j@>+,+m+#+#+@+@+*+@+*+#+@+*+#+*+'+@@,@'@$@)@!@*+*+#+*+'+@+@+9++++",
"+++++V+V+w+W@-+a@;+Z+:@+@>@~+%+#+#+@+@+@+#+@+'+'+#+@+*+'+@@{@]@^@/@(@_+#+@+*+'+@+@+@+@++",
"+++w@:+w+H+W+X+a+Y+Z+:+j+k@~+m+#+#+@+@+*+#+#+#+|+#+#+@+@+@+@@<@[@}@_+|+#+#+@+@+@+@+*+@++",
"+++V+V+V+V+r+J@|+Y+K+L+M+;+l+}+#+#+#+9+*+@+@+*+@+@+@+@+9+#+9+*+@+@+*+@+@+@+@+9+#+9+*+'++",
"+++H+V+V+V+r+X+y+2+b+c+A+;+[+}+&+#+*+#+*+@+@+@+@+@+@+@+@+*+#+*+@+@+@+@+@+@+@+@+*+#+*+@+@",
"+++V+V+V+w+r+n+s+t+(+)@1+v+^+}+8+#+#+@+@+9+@+@+@+@+@+#+@+*+@+@+9+@+@+@+@+@+#+@+*+@+@+9+@",
"+V+V@=+V+V+V@2+o@3+/+4@4+q+>+$+&+#+#+@+@+@+#+*+@+#+@+*+@+#+@+@+@+#+*+@+#+@+*+@+#+@+@+@+@",
"@=@5@6@6+V+V+W+h+1+i@7+~+j+k+l+%+&+#+#+@+#+#+@+#+@+*+@+'+@+@+@+#+#+@+#+@+*+@+'+@+@+@+#+#",
"@:@6@=+V+H+V+r@-+a+2+b+c+d+e+[+$+&+#+#+@+#+@+@+*+#+@+*+@+@+@+@+#+@+@+*+#+@+*+@+@+@+@+#+@",
"+V+V@=+w+w@=+I+n+s@3+3+4+5@8+7@~+m+&+#+#+@+P+#+@+#+9+#+9+@+@+#+@+P+#+@+#+9+#+9+@+@+#+@+@",
"+V+V@6+V+V+V+V+g+h@9@;+Z+L+A+e+[+$+&+#+#+@+*+@+*+*+*+*+@+@+*+*+@+*+@+*+*+*+*+@+@+*+*+@+@",
"+V+V@6@=+H+V+V+r+X+y+t+(@0+5@8@>+l+}+&+#+#+*+#+@+*+#+*+'+@+@+*+@+*+#+@+*+#+*+'+@+@+*+@+#",
"+++V@=+V+w+V+V+V+g+0@a+i@b+c+d+v@c+,+%+8+#+#+'+'+#+@+*+'+@+@+@+#+@+'+'+#+@+*+'+@+@+@+#+@",
"+++V+w+w+H+V+V+V+r+x+y+t+3@d@e+M@f@c+,+%+8@g+#+#+#+#+@+@+@+@+*+#+#+#+|+#+#+@+@+@+#+#+#+@",
"+++V+V+V+V+V@=@:+V+g+h@h+2@i@0+5+j+;@c+,+%+&@j+#+#+#+@+9+#+9+*+@+@+*+@+@+@+#+#+#+#+#+#++",
"+++w@:+V+V+V+V@=+V+r+n+o+p@;+K+!@4+j+;+^+,+}+&+&+#+#+#+#+*+#+*+@+@+@+@+#+#+#+#+&+8+&+#++",
"+++++V+V+w+V+V+V+V+V+r+X+s@3@k@b+!+5+j+e+7+B+$+}+&+&+8+&+#+#+#+#+#+#+#+&+&+8+%+}+$+%+#++",
"+++++V+V+V+V@:+V+V+V@:@l@-+y@3@k+K+u@m+A+q+;+>+[@~+$+}+%+8+&+&+&+8+8+&+O+}+$+,+B+^+$++++",
"+++++++V+V@6@6@6+V@=@:+r@l@-+y@3+i+b+4+:@n+M+v+;+>+^+[+,+$+$@o@o@o+$@~+l+[@c@>+;+;+&++++",
"+++++++H+H+V+H+V+V@=+V+H+r@l@-+y+p@p+(+_+)+~+{+M+q+e+;@>+>@q@c@c+^@q+7+k+;+]@r+A@>++++++",
"++++++++@6@=@:+H@=@6+w+w+V@:@l@s+o@h+z@t@i+_+u+:+5+{+A+j@u+6@v@v@v@8+j+M+A@n@m+M@c++++++",
"+++++++++V+V+V+V+V+V+V+V+V+V+r+W+x+0@w+p+2@t@i+Z+4+)+L@e@m+5+5@n+5@m+~+:@x@0+u@y++++++++",
"+++++++++++H+V+V+H@6@6@=+V@6+w+V+r+n@-+o+a+p+z@;+/@z+K+_@A@B+4+4+4@d@C@b+b+(+_++++++++++",
"+++++++++++++V+V+V@=+V+w+V@=+V+w+V+r+W+n@-+o+y@h@D+z+Y@;@E@F+/+/@F@F@E@;+2+Y++++++++++++",
"+++++++++++++++V+V@G+w+w@=+w+w+H+V+V+V+r+W@2+J@s+o+s+a@h@H+1+p@I@I@a@h+a@J++++++++++++++",
"+++++++++++++++++w+V+V@6+V+V+V+V+V@=@5+V+V+V+r+W+n+x+X@-@-+0+0+o+0+0+0@K++++++++++++++++",
"+++++++++++++++++++V+V+w+V+V+V+V+V+V@=@6+V+H+w+V+V+r+r+r+W@l+g+g+g+n+X++++++++++++++++++",
"+++++++++++++++++++++++H@6+V+V+w+V+V+V+V+V+V+V+V+V+V+w+V+V+V+V+V+r++++++++++++++++++++++",
"+++++++++++++++++++++++++++V+H+V+V@:+V+V+V@=+w+H@=+V+V+V@:+V+V++++++++++++++++++++++++++",
"+++++++++++++++++++++++++++++++w+V+w+V+V@=@5+V@5@6+V+V+V+w++++++++++++++++++++++++++++++",
"+++++++++++++++++++++++++++++++++++++++V@=@:+V+V+V++++++++++++++++++++++++++++++++++++++"};
