/* XPM */
static char * ball_red_xpm[] = {
"44 44 74 1",
"K c #B7B7B7",
"J c #B1B1B1",
"I c #AEAEAE",
"H c #C2C2C2",
"G c #A8A8A8",
"F c #EDEDED",
"E c #E0E0E0",
"D c #9A9A9A",
"C c #EBEBEB",
"B c #FCFCFC",
"A c #FDFDFD",
"z c #F1F1F1",
"y c #D9D9D9",
"x c #B5B5B5",
"w c #ACACAC",
"v c #A5A5A5",
"u c #DDDDDD",
"t c #EEEEEE",
"s c #F0F0F0",
"r c #E1E1E1",
"q c #D6D6D6",
"p c #BDBDBD",
"o c #B4B4B4",
"n c #9F9F9F",
"m c #D7D7D7",
"l c #C5C5C5",
"k c #AAAAAA",
"j c #9B9B9B",
"i c #BBBBBB",
"h c #A9A9A9",
"g c #A3A3A3",
"f c #9E9E9E",
"e c #C9C9C9",
"d c #B8B8B8",
"c c #A7A7A7",
"b c #A2A2A2",
"a c #9C9C9C",
"0 c #CDCDCD",
"9 c #C7C7C7",
"8 c #BFBFBF",
"7 c #ADADAD",
"6 c #A0A0A0",
"5 c #9D9D9D",
"4 c #C4C4C4",
"3 c #B3B3B3",
"2 c #A4A4A4",
"1 c #A1A1A1",
"| c #C8C8C8",
"} c #C1C1C1",
"[ c #B9B9B9",
"< c #B0B0B0",
": c #ABABAB",
"_ c #A6A6A6",
"( c #CCCCCC",
"/ c #C6C6C6",
"^ c #BEBEBE",
"] c #B6B6B6",
"{ c #B2B2B2",
"~ c #AFAFAF",
"! c #D1D1D1",
") c #C3C3C3",
"' c #C0C0C0",
", c #BCBCBC",
"> c #BABABA",
"; c #D0D0D0",
"- c #CECECE",
"= c #CBCBCB",
"* c #CACACA",
"& c #CFCFCF",
"% c #D3D3D3",
"$ c #D2D2D2",
"# c #D4D4D4",
"@ c #D5D5D5",
"+ c None",
"+++++++++++++++++@###@@@#@@+++++++++++++++++",
"++++++++++++++#$$%#####@##@@@@++++++++++++++",
"++++++++++++&*=-;$%####@##@@#@#@++++++++++++",
"++++++++++>,')*&!%###@@##@@@@@@@@#++++++++++",
"+++++++++~{]^/(;$%#@######@@@@@####+++++++++",
"++++++++_:<[}|-!%%#@@@@@@@@@#@@@@@@@@+++++++",
"+++++++12:3,4=&!%###@@@@#@@@###@@@@#@+++++++",
"++++++56_7]890;$%##@@@@@@@#@@@@@@@@@@@@+++++",
"+++++a5bc<d}e-!%##@@@##@#@@@#@@@##@#@@@+++++",
"++++aafgh{i)*&!%######@###@######@###@##++++",
"++++jaf2k3,l(;$%#@@@#@@##@#@@@@mm@##@#@@#+++",
"+++jjan2:op/(;$%##@###@######qrstu@######+++",
"+++jjanvwx^90;$##@@@###@##@@@yzABCm##@@@@@++",
"++jDja6v7]890;$%#######@##@@#ysABCm##@@##@++",
"++jjja6v7]890;$##@@@#@@##@@@@@EtFu@#@@@@@@@+",
"+jjDjanvwx890;$##@@@######@@@@@mm@###@@@@@@+",
"+jjjjan2:op/(;$###@@@@@@@@@@#@@@@@@@@@@#@@@+",
"+jDjjan2:3,l(;$%####@@@@#@@@###@@@@#@@@###@@",
"+jjjjjfgh{i4*&$%##@@@@@@@@#@@@@@@@@@@#@@@@@@",
"jjDjDj5bG<dHe-!%##@@@##@#@@@#@@@##@#@@@#@@@@",
"jDjDjja1_I]'90;$%#####@###@######@###@######",
"jjDjjjan2:opl=&!%##@#@@##@#@@@@#@@##@#@@@@#@",
"jjDDDDjfbG<[}|-;$%####@######@###@######@##@",
"jjjjDjj51_7x^l=&!%#####@##@@@@@###@##@@@@@#@",
"jjDDjjjan2hJ[}|0;$%####@##@@######@##@@#####",
"+jDjjjjj51_7xp4*-;$%##@##@@@@@@#@@##@@@@@@#@",
"+jDDjjDjangh<d'/=&!$%%####@@@@@######@@@###@",
"+jjjjjDjj56v:3>}9(&;$%%###@@#@@@@@@@@######+",
"+jjjjjDDjafbc7oiH9(&;$%%#######@@@@####%%%#+",
"++jjDjDjjjangGIxi}9=-;!$%%%%#######%%%$$!$#+",
"++jjDjDjDjj562GIo>'le(-;;!$$%%%%%%%$$!;;&!++",
"+++jjjjjjDjj562GI3[^)/*(-&;;!!!!!!;;&-0(($++",
"+++jjjjjDDjjj56gcwJ]i8)/e=(0--&&---0(*|l0+++",
"++++DDDDDDDDjj5nbvkI{]i^})l9||eee|9/lH'/&+++",
"++++jjDjjjjjjjjaf12c:I{xdip8'}HH}}'^,>>9++++",
"+++++jjjDjjDjDjja5nb2ck7<{o]Kd[[[dKx3{x+++++",
"++++++jjDDjDjDjjjjafnb2_ckw7I~<<~IIw:w++++++",
"+++++++jDDDDDDDjjDjja5n6bg2v_cccc__vv+++++++",
"++++++++DjjDjjjjjDDjjjaa5fn66111111g++++++++",
"+++++++++jjDjDjjjDDDjjjjjaaa55555fn+++++++++",
"+++++++++++jjjjDjDjjjjjjjjjjjjjja+++++++++++",
"+++++++++++++jjDjDjDjDDjDjDjDjj+++++++++++++",
"+++++++++++++++jjDjjDDjDjjjjj+++++++++++++++",
"+++++++++++++++++++jjjjjj+++++++++++++++++++"};
