/* XPM */
static char * ball_red_xpm[] = {
"44 44 182 2",
"#$ c #AE1291",
"## c #AC1291",
"#@ c #B21395",
"#+ c #B11295",
"@Z c #B41296",
"@Y c #AC1190",
"@X c #AB118F",
"@W c #BC149C",
"@V c #BC149E",
"@U c #BC149D",
"@T c #BB149D",
"@S c #C615A7",
"@R c #C515A5",
"@Q c #C214A3",
"@P c #D617B5",
"@O c #D016AE",
"@N c #CE15AD",
"@M c #D716B5",
"@L c #D816B5",
"@K c #D717B5",
"@J c #BC139D",
"@I c #B71399",
"@H c #AE1293",
"@G c #AC118F",
"@F c #A6128C",
"@E c #DD18B9",
"@D c #DD18BA",
"@C c #C414A5",
"@B c #E117BD",
"@A c #D116B0",
"@z c #E217BD",
"@y c #CF16AE",
"@x c #A9118E",
"@w c #DF17BC",
"@v c #E317BE",
"@u c #B41396",
"@t c #E318C0",
"@s c #C014A1",
"@r c #B21295",
"@q c #E018BD",
"@p c #CE15AE",
"@o c #C615A6",
"@n c #B01293",
"@m c #DE17BA",
"@l c #C314A3",
"@k c #BB139D",
"@j c #B31296",
"@i c #C815A8",
"@h c #DA17B7",
"@g c #D416B2",
"@f c #B21296",
"@e c #D716B4",
"@d c #BE149F",
"@c c #DF18BB",
"@b c #B8139B",
"@a c #A8128E",
"@0 c #CE16AE",
"@9 c #C514A5",
"@8 c #AD1291",
"@7 c #A6128D",
"@6 c #DD17BA",
"@5 c #D116AF",
"@4 c #B51398",
"@3 c #AA118E",
"@2 c #A6118C",
"@1 c #D516B3",
"@| c #B9139A",
"@} c #E628C4",
"@[ c #E62AC5",
"@< c #E949CD",
"@: c #F4A1E5",
"@_ c #F5A9E7",
"@( c #EC5CD3",
"@/ c #E521C2",
"@^ c #BA139C",
"@] c #A7118D",
"@{ c #F295E2",
"@~ c #FDF5FC",
"@! c #F6B4EA",
"@) c #DC17B9",
"@' c #BA139B",
"@, c #AC1290",
"@> c #A6118D",
"@; c #E626C4",
"@- c #F397E2",
"@= c #FDF6FC",
"@* c #FDF8FC",
"@& c #F6B6EB",
"@% c #E732C7",
"@$ c #D617B3",
"@# c #CD15AC",
"@@ c #C314A4",
"@+ c #B9139B",
"+Z c #AB1290",
"+Y c #A7128D",
"+X c #EA4CCE",
"+W c #F4A8E7",
"+V c #F5B0E9",
"+U c #EC60D3",
"+T c #E521C3",
"+S c #E518C0",
"+R c #E017BC",
"+Q c #DB17B8",
"+P c #CC15AC",
"+O c #C214A2",
"+N c #AB1190",
"+M c #A8118D",
"+L c #A7128C",
"+K c #E51DC1",
"+J c #E629C5",
"+I c #E62BC5",
"+H c #E51FC2",
"+G c #DF17BB",
"+F c #D416B1",
"+E c #C114A2",
"+D c #B7139A",
"+C c #B01294",
"+B c #AB128F",
"+A c #A7118C",
"+z c #D216B1",
"+y c #C915A9",
"+x c #B61399",
"+w c #AF1293",
"+v c #AA128E",
"+u c #A8128D",
"+t c #D817B5",
"+s c #C715A7",
"+r c #B41397",
"+q c #AE1292",
"+p c #AA128F",
"+o c #A9128F",
"+n c #E217BE",
"+m c #DC17B8",
"+l c #D616B3",
"+k c #BB139C",
"+j c #AD1290",
"+i c #A9128E",
"+h c #DE17BB",
"+g c #DA17B6",
"+f c #D316B1",
"+e c #CB15AB",
"+d c #C114A1",
"+c c #B11294",
"+b c #AD1292",
"+a c #E418C1",
"+0 c #E317BF",
"+9 c #D717B4",
"+8 c #D016AF",
"+7 c #C715A8",
"+6 c #BE149E",
"+5 c #B8139A",
"+4 c #B31396",
"+3 c #E218BD",
"+2 c #DF18BC",
"+1 c #D516B2",
"+| c #CD15AD",
"+} c #C414A4",
"+[ c #BF14A0",
"+< c #BD149E",
"+: c #E418BF",
"+_ c #DE18BA",
"+( c #D917B5",
"+/ c #D216B0",
"+^ c #CE16AD",
"+] c #CA15AA",
"+{ c #C915AA",
"+~ c #E518C1",
"+! c #E419C0",
"+) c #E318BF",
"+' c #E018BC",
"+, c #DD17B9",
"+> c #DB17B7",
"+; c #D917B6",
"+- c #DE18BB",
"+= c #E519C0",
"+* c #E419C1",
"+& c #E318BE",
"+% c #E218BE",
"+$ c #E118BD",
"+# c #E418C0",
"+@ c #E519C1",
"++ c None",
"+++++++++++++++++++++++++++++++++++@+#+#+#+@+@+@+#+@+@++++++++++++++++++++++++++++++++++",
"+++++++++++++++++++++++++++++#+$+%+&+#+#+@+*+@+*+*+*+=+@+@+@++++++++++++++++++++++++++++",
"+++++++++++++++++++++++++-+;+>+,+'+%+)+#+@+!+#+=+*+#+*+~+@+@+*+*++++++++++++++++++++++++",
"+++++++++++++++++++++{+]+^+/+(+_+$+&+:+#+#+@+~+~+#+@+*+~+@+@+@+@+@+~++++++++++++++++++++",
"+++++++++++++++++++<+[+}+|+1+>+2+3+)+#+*+#+#+#+!+#+#+@+@+@+@+*+#+#+#+~++++++++++++++++++",
"+++++++++++++++++4+5+6+7+8+9+,+'+&+0+#+*+@+@+!+@+@+@+@+a+#+#+*+@+@+!+@+@+@++++++++++++++",
"+++++++++++++++b+c+5+d+e+f+g+h+$+&+#+#+*+@+@+@+@+@+@+@+@+*+#+*+@+@+@+@+@+=++++++++++++++",
"+++++++++++++i+j+4+k+}+^+l+m+'+n+)+#+#+@+a+@+@+@+@+@+#+@+*+@+@+a+@+@+@+@+@+=+@++++++++++",
"+++++++++++o+p+q+r+<+s+8+t+,+$+&+#+#+@+@+@+#+!+@+#+@+*+@+#+@+@+@+#+!+@+#+@+*+*++++++++++",
"+++++++++u+u+v+w+x+[+y+z+;+-+$+)+#+#+@+@+#+#+@+#+@+*+@+~+@+@+@+#+#+@+#+@+*+@+#+@++++++++",
"+++++++++A+u+B+C+D+E+e+F+>+G+3+)+#+@+@+@+#+@+@+*+#+@+*+@+@+@+H+I+J+K+*+#+@+*+@+=+~++++++",
"+++++++L+A+M+N+C+5+O+P+1+Q+R+n+0+#+@+=+#+@+S+#+@+#+#+#+#+@+T+U+V+W+X+K+#+#+#+#+@+!++++++",
"+++++++Y+Y+i+Z+c@+@@@#@$+m+'+%+#+#+@+*+*+@+*+@+*+*+*+*+@+@@%@&@*@=@-@;+*+*+*+@+@+*+*++++",
"+++++Y@>+Y+i@,+c@'@@+|+l@)+'+n+#+#+@+=+*+@+!+#+=+*+#+*+~+@@%@!@*@~@{@;+*+#+*+~+@+=+#++++",
"+++++Y+Y@]+i@,+c@^@@+|@$@)+R+%+#+#+@+@+@+#+@+~+~+#+@+*+~+@@/@(@_@:@<+K+#+@+*+~+@+@+@+@++",
"++@]@]+A+Y+i+Z+c@+@@@#+l+m+R+n+#+#+@+@+*+#+#+#+!+#+#+@+@+@+@+H@[@}+K+!+#+#+@+@+@+@+*+@++",
"+++Y+Y+Y+Y+u+N+c@|+O+P@1+Q+'+%+#+#+#+#+*+@+@+!+@+@+@+@+a+#+#+*+@+@+!+@+@+@+@+a+#+#+*+~++",
"+++Y+Y+Y+Y+u+B+C+5+E+e+F+>+2+3+)+#+*+#+*+@+@+@+@+@+@+@+@+*+#+*+@+@+@+@+@+@+@+@+*+#+*+@+@",
"+++Y+Y+Y+A+u+v+w+x+[+y+f+;+-+3+0+#+#+@+@+a+@+@+@+@+@+#+@+*+@+@+a+@+@+@+@+@+#+@+*+@+@+a+@",
"+Y+L@2+Y+Y+Y@3+q@4+<+s@5+t@6+$+&+#+#+@+@+@+#+!+@+#+@+*+@+#+@+@+@+#+!+@+#+@+*+@+#+@+@+@+@",
"@2@>@7@7+Y+Y+i@8+4+k@9@0+l+m+'+%+)+#+#+@+#+#+@+#+@+*+@+~+@+@+@+#+#+@+#+@+*+@+~+@+@+@+#+#",
"@]@7@2+Y+Y+Y@a@,+c@b+E+e+f+g@c+$+)+#+#+@+#+@+@+*+#+@+*+@+@+@+@+#+@+@+*+#+@+*+@+@+@+@+#+@",
"+Y+Y@2+A+A@2+M+v+w@4@d+7+8@e+,+R+n+)+#+#+@+S+#+@+#+#+#+#+@+=+#+@+S+#+@+#+#+#+#+@+=+#+@+@",
"+Y+Y@7+Y+Y+Y+Y+i@8@f@^@@+P@g@h@c+$+&+#+#+@+*+@+*+*+*+*+@+@+*+*+@+*+@+*+*+*+*+@+@+*+*+@+@",
"+Y+Y@7@>+Y+Y+Y@a+B+C+x+[@i+8@e@)+'+3+)+#+#+!+#+=+*+#+*+~+@+=+*+@+!+#+=+*+#+*+~+@+=+*+@+#",
"+++Y@2+Y@]+Y+Y+Y+i@8@j@k@l+e+f+;@m+'+%+0+#+#+~+~+#+@+*+~+@+@+@+#+@+~+~+#+@+*+~+@+@+@+#+@",
"+++Y+A+A+Y+Y+Y+Y+u+B@n+x@d@o@p@1@h@m@q+%+0+0+#+#+#+#+@+@+@+@+*+#+#+#+!+#+#+@+@+@+#+#+#+@",
"+++Y+Y+Y+Y+Y@>@]+Y+i@8@r@b@s@i+8+l+>+h+'+%+&@t+#+#+#+@+a+#+#+*+@+@+!+@+@+@+#+#+#+#+#+#++",
"++@]@]+Y+Y+Y+Y@2+Y+u+v+q@u@^+O+]@5+l+>+_+'+3+&+)+#+#+#+#+*+#+*+@+@+@+@+#+#+#+#+)@v+&+#++",
"+++++Y+Y+A+Y+Y+Y+Y+Y@a+B+w@4@k@@+]+8+l+g+,@w+$+3+&+&+0+)+#+#+#+#+#+#+#+)+)@v+%+3+$+%+#++",
"+++++Y+Y+Y+Y@]+Y+Y+Y@]@x@,+C@4@k+O+y@y+F+t+>@6@c+R+$+3+%@v+&+&+&@v@v+&@z+3+$+'@w+_+$++++",
"+++++++Y+Y@7@7@7+Y@2+A+u@x@,+C@4+k+d+7@#@A@1+(+>@6+-+2+'+$+$@B@B@B+$+R+'@c@m@)+>+Q+&++++",
"+++++++L+Y+Y+Y+Y+Y@>+Y+Y+u@x@,+C+r@++[@C+{@0+/@1+t+g+Q+m+,@D@m@m+_@E+,+m+>+;+9@g+m++++++",
"++++++++@F@2@]+L@2@7+A+A+Y@]@x@G@H@f@I@J@s@C+y@#+8+z@g+l@e@K@L@L@L@M+l@1+F@A@y@1@m++++++",
"+++++++++Y+Y+Y+Y+Y+Y+Y+Y+Y+Y+u+i+B@8+C+r+5@J@s@@+s+{+P@N@y@O+8@5+8@y@0@#+e@i+y@P++++++++",
"+++++++++++L+Y+Y+Y@7@7@>+Y@7@]+Y+u+v@,+q+c+r+D@^+<@s@Q@C@R@S+s+s+s@o@R@@+E+[+}++++++++++",
"+++++++++++++Y+Y+Y@2+Y+A+Y@2+Y@]+Y+u+i+v@,+q+C@r+r@I@+@^@T@U+<+<@V@W@T@'+5@+++++++++++++",
"+++++++++++++++Y+L@F+A+A@2+A+A+Y+Y+Y+Y+u+i@3@X@Y+q+w+c@r@j+4@u@Z@Z@j@r#+#@++++++++++++++",
"+++++++++++++++++A+Y+Y@7+Y+Y+Y+Y+Y@>@>+Y+Y+Y+u+i+v+B+B@,##+b+b#$@8@8+b+w++++++++++++++++",
"+++++++++++++++++++Y+Y@]+Y+Y+Y+Y+Y+Y@2@7+Y+Y@]+Y+Y+u@a@a+i@x+i+i+i+v+Z++++++++++++++++++",
"+++++++++++++++++++++++Y@F+Y+Y+A+Y+Y+Y+Y+Y+Y+Y+Y+Y+Y+A+Y+Y+Y+Y+Y@a++++++++++++++++++++++",
"+++++++++++++++++++++++++++Y+L+L+Y@]+Y+Y+Y@>+A+Y@2+Y+Y+Y@]+Y+Y++++++++++++++++++++++++++",
"++++++++++++++++++++++++++++++@]+Y@]+Y+L@2@2+Y@>@F+Y+Y+Y@]++++++++++++++++++++++++++++++",
"+++++++++++++++++++++++++++++++++++++++Y@2@]+Y+Y+Y++++++++++++++++++++++++++++++++++++++"};
