/* XPM */
static char * ball_red_xpm[] = {
"44 44 145 2",
"@s c #B2A913",
"@r c #B4AB12",
"@q c #BCB314",
"@p c #BBB214",
"@o c #C4BA14",
"@n c #C5BB15",
"@m c #C6BD15",
"@l c #C5BC15",
"@k c #D5CA16",
"@j c #D8CE16",
"@i c #BCB313",
"@h c #ACA411",
"@g c #A69F11",
"@f c #DDD218",
"@e c #DDD318",
"@d c #C9C015",
"@c c #E1D617",
"@b c #CFC516",
"@a c #A9A111",
"@0 c #A79E12",
"@9 c #CAC015",
"@8 c #B4AB13",
"@7 c #E3D918",
"@6 c #C8BF15",
"@5 c #C0B714",
"@4 c #B2A912",
"@3 c #CEC415",
"@2 c #C6BC15",
"@1 c #B0A712",
"@| c #DED317",
"@} c #B3AA12",
"@[ c #C8BE15",
"@< c #B2AA12",
"@: c #D7CD16",
"@_ c #C5BB14",
"@( c #A69E12",
"@/ c #A69F12",
"@^ c #D1C716",
"@] c #B5AC13",
"@{ c #AAA211",
"@~ c #DED418",
"@! c #B1A812",
"@) c #E6DB28",
"@' c #E6DC2A",
"@, c #A79E11",
"@> c #E9E149",
"@; c #F4EFA1",
"@- c #F5F0A9",
"@= c #ECE45C",
"@* c #F2ED95",
"@& c #FDFDF5",
"@% c #F6F2B4",
"@$ c #DCD217",
"@# c #BAB113",
"@@ c #ACA412",
"@+ c #A69E11",
"+Z c #E6DB26",
"+Y c #F3ED97",
"+X c #FDFDF6",
"+W c #FDFDF8",
"+V c #F6F2B6",
"+U c #E7DD32",
"+T c #D6CC17",
"+S c #C3BA14",
"+R c #B9B013",
"+Q c #EAE14C",
"+P c #F4F0A8",
"+O c #F5F1B0",
"+N c #ECE560",
"+M c #E5DA21",
"+L c #E0D517",
"+K c #CCC215",
"+J c #C2B914",
"+I c #ABA311",
"+H c #A8A011",
"+G c #A79F12",
"+F c #E5DA1D",
"+E c #E6DC29",
"+D c #E6DC2B",
"+C c #E5DA1F",
"+B c #DFD417",
"+A c #D4CA16",
"+z c #B7AE13",
"+y c #B0A812",
"+x c #ABA312",
"+w c #A79F11",
"+v c #C9BF15",
"+u c #B6AD13",
"+t c #AFA712",
"+s c #A8A012",
"+r c #D8CE17",
"+q c #C7BD15",
"+p c #B4AC13",
"+o c #AEA612",
"+n c #AAA212",
"+m c #E2D717",
"+l c #DCD117",
"+k c #D6CC16",
"+j c #BBB213",
"+i c #B3AA13",
"+h c #A9A112",
"+g c #DED417",
"+f c #DAD017",
"+e c #D3C916",
"+d c #CBC115",
"+c c #C1B814",
"+b c #B1A912",
"+a c #ADA512",
"+0 c #E3D817",
"+9 c #DDD217",
"+8 c #D7CD17",
"+7 c #D0C616",
"+6 c #C7BE15",
"+5 c #BEB514",
"+4 c #B8AF13",
"+3 c #B3AB13",
"+2 c #E5D918",
"+1 c #DFD418",
"+| c #DBD117",
"+} c #D5CB16",
"+[ c #CDC315",
"+< c #C4BB14",
"+: c #BFB614",
"+_ c #BDB414",
"+( c #DED318",
"+/ c #D2C816",
"+^ c #CEC416",
"+] c #CAC115",
"+{ c #C9BE15",
"+~ c #E5DA18",
"+! c #E4D919",
"+) c #E0D518",
"+' c #DDD317",
"+, c #DBD017",
"+> c #D9CF17",
"+; c #DED218",
"+- c #E4DA19",
"+= c #E3D818",
"+* c #E2D718",
"+& c #E1D618",
"+% c #E5D919",
"+$ c #E4DA18",
"+# c #E4D918",
"+@ c #E5DA19",
"++ c None",
"+++++++++++++++++++++++++++++++++++@+#+#+$+@+@+@+#+%+@++++++++++++++++++++++++++++++++++",
"+++++++++++++++++++++++++++++#+&+*+=+#+#+@+-+@+-+-+-+@+@+@+@++++++++++++++++++++++++++++",
"+++++++++++++++++++++++++;+>+,+'+)+*+=+#+@+-+#+@+-+#+!+~+@+@+-+-++++++++++++++++++++++++",
"+++++++++++++++++++++{+]+^+/+>+(+&+=+#+#+$+@+~+~+#+@+-+~+@+@+@+@+@+~++++++++++++++++++++",
"+++++++++++++++++++_+:+<+[+}+|+1+*+=+#+-+$+#+#+!+#+#+@+@+@+@+-+$+#+#+2++++++++++++++++++",
"+++++++++++++++++3+4+5+6+7+8+9+)+=+0+#+-+@+@+-+@+@+@+@+$+#+$+-+@+@+-+@+%+@++++++++++++++",
"+++++++++++++++a+b+4+c+d+e+f+g+&+=+#+#+-+@+%+%+@+@+@+@+@+-+#+-+@+%+%+@+@+@++++++++++++++",
"+++++++++++++h+a+i+j+<+^+k+l+)+m+=+#+#+@+$+@+@+@+@+@+#+@+-+@+@+$+@+@+@+@+@+@+@++++++++++",
"+++++++++++h+n+o+p+_+q+7+r+'+&+=+#+#+@+@+@+#+!+@+#+@+-+@+#+@+@+@+#+!+@+#+@+-+!++++++++++",
"+++++++++s+s+n+t+u+:+v+/+>+(+&+=+#+#+@+@+$+#+@+#+@+-+@+~+@+@+@+$+#+@+#+@+-+@+#+%++++++++",
"+++++++++w+s+x+y+z+c+d+A+,+B+*+=+#+%+@+@+#+@+@+-+#+@+!+@+%+@+C+D+E+F+-+#+@+!+@+%+~++++++",
"+++++++G+w+H+I+y+4+J+K+}+|+L+m+0+#+@+@+#+@+~+#+@+#+#+#+#+@+M+N+O+P+Q+F+#+#+#+#+@+!++++++",
"+++++++G+G+h+x+b+R+S+[+T+l+)+*+#+#+@+-+-+@+-+@+-+-+-+-+@+@+U+V+W+X+Y+Z+-+-+-+@+@+-+-++++",
"+++++G@++G+h@@+b@#+S+[+k@$+)+m+#+#+@+@+!+@+-+#+@+-+#+!+~+@+U@%+W@&@*+Z+-+#+!+~+@+@+$++++",
"+++++G+G+w+h@@+b@#+S+[+T@$+L+*+#+#+@+@+@+$+@+~+~+#+@+-+~+@+M@=@-@;@>+F+#+@+-+~+@+@+@+@++",
"++@,+w@,+G+h+x+b+R+S+[+k+l+L+m+#+#+@+@+-+$+#+#+!+#+#+@+@+@+@+C@'@)+F+!+#+#+@+@+@+@+-+@++",
"+++G+G+G+G+s+I@!+R+J+K+}+|+)+*+#+#+#+$+-+@+@+-+@+@+@+@+$+#+$+-+@+@+-+@+@+@+@+$+#+$+-+~++",
"+++G+G+G+G+s+x+y+4+c+d+A+|+1+*+=+#+-+#+-+@+%+%+@+@+@+@+@+-+#+-+@+%+%+@+@+@+@+@+-+#+-+@+@",
"+++G+G+G+w+s+n+t+u+:+v+e+>@~+*+0+#+#+@+@+$+@+@+@+@+@+#+@+-+@+@+$+@+@+@+@+@+#+@+-+@+@+$+@",
"+G+G@++G+G+G@{+o@]+_+q@^+r+'+&+=+#+#+@+@+@+#+!+@+#+@+-+@+#+@+@+@+#+!+@+#+@+-+@+#+@+@+@+@",
"@+@+@/@(+G+G+h+a+i+j@_+^+k@$+)+*+=+#+#+@+$+#+@+#+@+-+@+~+@+@+@+$+#+@+#+@+-+@+~+@+@+@+$+$",
"+w@/@++G+G+G+s@@+b+4+c+d+e+f+1+&+=+#+#+@+#+@+@+-+#+@+!+@+%+@+@+#+@+@+-+#+@+!+@+%+@+@+#+@",
"+G+G@+@,+w@++H+n+t@]+5+6+7@:+9+L+m+=+#+#+@+~+#+@+#+#+#+#+@+@+#+@+~+#+@+#+#+#+#+@+@+#+@+@",
"+G+G@/+G+G+G+G+h+a@<@#+S+K+A+f+1+&+=+#+#+@+-+@+-+-+-+-+@+@+-+-+@+-+@+-+-+-+-+@+@+-+-+@+@",
"+G+G@/@++G+G+G+s+x+y+u+:@[+7@:@$+)+*+=+#+#+-+#+@+-+#+!+~+@+@+!+@+-+#+@+-+#+!+~+@+@+!+@+#",
"+++G@++G+w+G+G+G+h+a@}+j+S+d+e+>@|+)+*+0+#+#+~+~+#+@+-+~+@+@+@+$+@+~+~+#+@+-+~+@+@+@+$+%",
"+++G+w@,+G+G+G+G+s+x@1+u+5@2@3+}+f@|+)+*+0+0+#+#+#+#+@+@+@+@+-+$+#+#+!+#+#+@+@+@+#+#+#+@",
"+++G+G+G+G+G@++w+G+h+a@4+4@5@6+7+k+,@|+)+*+=@7+#+#+#+@+$+#+$+-+@+@+-+@+@+@+#+#+#+#+#+#++",
"++@,+w+G+G+G+G@++G+s+n+o@8@#+J@9@^+k+|+(+)+*+=+=+#+#+#+#+-+#+-+@+%+%+@+#+#+#+#+=+0+=+#++",
"+++++G+G@,+G+G+G+G+G+s+x+t@]+j+S@9+7+k+f+9+B+&+*+=+=+0+=+#+#+#+#+#+#+#+=+=+0+*+*+&+*+#++",
"+++++G+G+G+G@,+G@0+G+w@a@@+y@]+j+J+v@b+A+r+|+'+1+L+&+*+*+0+=+=+=+0+0+=+m+*+&+)+B+(+&++++",
"+++++++G+G@/@(@/+G@++w+s@a@@+y@]+j+c+q+[@^+}+>+|+9+(+1+)+&+&@c@c@c+&+L+)+1@|@$+|+|+=++++",
"+++++++G+G+G+G+G+G@++G+G+s@a@@@1@8+R+:+<@d+^+/+}+r+f+|@$+9@e@|@|+(@f+9+l+|+>+8+A@$++++++",
"++++++++@(@++w+G@g@/@,@,+G+w@a@h+o@<+z@i@5+<+v+[+7+/+A+k@:+8@j@j@j@:+k+}+A@^@b@k+g++++++",
"+++++++++G+G+G+G+G+G+G+G+G+G+s+h+x+a+y@8+4@i@5+S+q@d+K@3@b+7+7@^+7@b+^+[+d@[+v+T++++++++",
"+++++++++++G+G+G+G@/@/@++G@/+w+G+s+n@@+o@!@8+z@#+_@5+J+<@l@m+q+q+q@2@n+S+c+:@o++++++++++",
"++++++++++++@0+G+G@++G+w+G@++G+w+G+s+h+n@@+o+y@<+p+z+R@#@p@q+_+_@q@q@p@#+4+R++++++++++++",
"++++++++++++++@0+G@(@,@,@++w@,+G+G+G+G+s+h@{+I@h+o+t@!@4@}+3@8@r@r@}@<+b@s++++++++++++++",
"+++++++++++++++++w+G+G@/+G+G+G+G+G@+@g+G+G+G+s+h+n+x+x@@@@+a+a+o+a+a+a+t++++++++++++++++",
"+++++++++++++++++++G+G+w+G+G+G+G+G+G@+@/+G+G+w+G+G+s+s+s+h@a+h+h+h+n+x++++++++++++++++++",
"+++++++++++++++++++++++G@(+G+G@,+G+G+G+G+G+G+G+G+G+G+w+G+G+G+G+G+s++++++++++++++++++++++",
"+++++++++++++++++++++++++++G+G+G+G@,+G@0+G@+@,+G@++G+G+G@,+G+G++++++++++++++++++++++++++",
"++++++++++++++++++++++++++++++@,+G@,+G+G@+@++G@+@/+G+G+G@,++++++++++++++++++++++++++++++",
"+++++++++++++++++++++++++++++++++++++++G@++w+G+G+G++++++++++++++++++++++++++++++++++++++"};
