/* XPM */
static char * ball_red_xpm[] = {
"44 44 176 2",
"@X c #7A12AB",
"@W c #7C12AD",
"@V c #8113B2",
"@U c #8112B1",
"@T c #8212B4",
"@S c #7D11AC",
"@R c #8814BD",
"@Q c #8914BC",
"@P c #8814BB",
"@O c #8413B7",
"@N c #8D14C4",
"@M c #8E15C5",
"@L c #8F15C5",
"@K c #9616CF",
"@J c #9415CE",
"@I c #8F15C7",
"@H c #8E14C3",
"@G c #9C16D6",
"@F c #9C16D8",
"@E c #9D16D8",
"@D c #8813BC",
"@C c #7C11AC",
"@B c #9C17D7",
"@A c #A018DE",
"@z c #A018DD",
"@y c #A317E1",
"@x c #7B11A9",
"@w c #A218E1",
"@v c #A317E0",
"@u c #9916D4",
"@t c #9516CF",
"@s c #7A11A9",
"@r c #7911A7",
"@q c #8213B5",
"@p c #8213B4",
"@o c #7E12AE",
"@n c #8B14C0",
"@m c #A017DE",
"@l c #9515CE",
"@k c #8F15C6",
"@j c #9315CB",
"@i c #8112B3",
"@h c #9716D0",
"@g c #9015C8",
"@f c #9F17DA",
"@e c #8112B2",
"@d c #9C16D7",
"@c c #8A14BE",
"@b c #8413B5",
"@a c #7911A8",
"@0 c #7C12AC",
"@9 c #8E14C5",
"@8 c #8813BB",
"@7 c #7712A6",
"@6 c #7812A6",
"@5 c #7811A6",
"@4 c #9716D1",
"@3 c #8313B5",
"@2 c #7B11AA",
"@1 c #7912A7",
"@| c #7F12AF",
"@} c #7912A8",
"@[ c #A218DF",
"@< c #9B16D5",
"@: c #AB28E6",
"@_ c #AC2AE6",
"@( c #7711A7",
"@/ c #B849E9",
"@^ c #DAA1F4",
"@] c #DDA9F5",
"@{ c #C05CEC",
"@~ c #A418E4",
"@! c #8613BA",
"@) c #D695F2",
"@' c #FBF5FD",
"@, c #E1B4F6",
"@> c #A017DC",
"@; c #8713BA",
"@- c #7D12AC",
"@= c #7711A6",
"@* c #AB26E6",
"@& c #D697F3",
"@% c #FBF6FD",
"@$ c #FCF8FD",
"@# c #E2B6F6",
"@@ c #AF32E7",
"@+ c #9B17D6",
"+Z c #9315CD",
"+Y c #8D14C3",
"+X c #8613B9",
"+W c #7C12AB",
"+V c #7812A7",
"+U c #BA4CEA",
"+T c #DDA8F4",
"+S c #E0B0F5",
"+R c #C160EC",
"+Q c #A921E5",
"+P c #A217E0",
"+O c #9315CC",
"+N c #8D14C2",
"+M c #8613B8",
"+L c #8012B0",
"+K c #7B11AB",
"+J c #7A11A8",
"+I c #7712A7",
"+H c #A71DE5",
"+G c #AC29E6",
"+F c #AC2BE6",
"+E c #A81FE5",
"+D c #A217DF",
"+C c #9A16D4",
"+B c #8513B7",
"+A c #7F12B0",
"+z c #7B12AB",
"+y c #7811A7",
"+x c #9E17D9",
"+w c #8A14BF",
"+v c #8413B6",
"+u c #7E12AF",
"+t c #7A12A8",
"+s c #9D17D8",
"+r c #8313B4",
"+q c #7D12AE",
"+p c #7B12AA",
"+o c #7A12A9",
"+n c #A417E2",
"+m c #9F17DC",
"+l c #9B16D6",
"+k c #9416CE",
"+j c #8713BB",
"+i c #8113B3",
"+h c #7B12A9",
"+g c #A117DE",
"+f c #9E17DA",
"+e c #9916D3",
"+d c #9215CB",
"+c c #8C14C1",
"+b c #8012B1",
"+a c #7D12AD",
"+0 c #A618E4",
"+9 c #A417E3",
"+8 c #A318E0",
"+7 c #9D17D7",
"+6 c #9616D0",
"+5 c #9015C7",
"+4 c #8914BE",
"+3 c #8513B8",
"+2 c #8213B3",
"+1 c #A518E3",
"+| c #A318E2",
"+} c #A118DF",
"+[ c #9A16D5",
"+< c #9415CD",
"+: c #8E14C4",
"+_ c #8B14BF",
"+( c #8914BD",
"+/ c #A518E5",
"+^ c #9816D2",
"+] c #9516CE",
"+{ c #9215CA",
"+~ c #9115C9",
"+! c #A618E5",
"+) c #A519E4",
"+' c #A218E0",
"+, c #A017DD",
"+> c #9F17DB",
"+; c #9D17D9",
"+- c #A118DE",
"+= c #A519E5",
"+* c #A619E4",
"+& c #A418E3",
"+% c #A418E2",
"+$ c #A318E1",
"+# c #A518E4",
"+@ c #A619E5",
"++ c None",
"+++++++++++++++++++++++++++++++++++@+#+#+#+@+@+@+#+@+@++++++++++++++++++++++++++++++++++",
"+++++++++++++++++++++++++++++#+$+%+&+#+#+@+*+@+*+*+*+@+=+@+@++++++++++++++++++++++++++++",
"+++++++++++++++++++++++++-+;+>+,+'+%+&+#+@+*+#+@+)+#+)+!+@+@+)+*++++++++++++++++++++++++",
"+++++++++++++++++++++~+{+]+^+;+-+$+&+#+#+#+@+/+!+#+=+)+!+@+@+=+@+@+!++++++++++++++++++++",
"+++++++++++++++++++(+_+:+<+[+>+}+|+1+#+)+#+#+#+)+#+#+@+@+@+@+)+#+#+#+!++++++++++++++++++",
"+++++++++++++++++2+3+4+5+6+7+,+8+&+9+#+*+=+@+)+@+@+@+@+0+#+0+*+=+@+)+@+@+@++++++++++++++",
"+++++++++++++++a+b+3+c+d+e+f+g+$+1+#+#+*+=+=+@+@+=+@+@+@+)+#+*+=+=+@+@+=+=++++++++++++++",
"+++++++++++++h+a+i+j+:+k+l+m+'+n+1+#+#+@+0+@+@+@+@+@+#+@+*+@+@+0+@+@+@+@+@+=+@++++++++++",
"+++++++++++o+p+q+r+(+5+6+s+,+$+&+#+#+@+=+@+#+)+@+#+@+)+@+#+@+=+@+#+)+@+#+@+)+*++++++++++",
"+++++++++t+t+p+u+v+w+~+^+x+-+$+1+#+#+@+@+#+#+@+#+@+*+@+/+@+@+@+#+#+@+#+@+*+@+#+@++++++++",
"+++++++++y+t+z+A+B+c+d+C+>+D+%+&+#+=+@+=+#+@+=+*+#+@+)+@+=+@+E+F+G+H+*+#+@+)+@+@+!++++++",
"+++++++I+y+J+K+L+M+N+O+[+>+P+n+9+#+=+=+#+@+/+#+@+#+#+#+#+=+Q+R+S+T+U+H+#+#+#+#+=+*++++++",
"+++++++V+V+o+W+b+X+Y+Z@++m+'+%+#+#+@+*+*+@+*+@+*+*+*+*+@+@@@@#@$@%@&@*+*+*+*+@+@+*+*++++",
"+++++I@=+V+o@-+b@;+Y+<+l@>+'+n+#+#+@+=+)+@+*+#+@+)+#+)+!+@@@@,@$@'@)@*+)+#+)+!+@+=+#++++",
"+++++V+V+y+o@-+b@!+Y+<@+@>+P+%@~+#+@+@+=+#+@+/+!+#+=+)+!+@+Q@{@]@^@/+H+#+=+)+!+@+@+@+@++",
"++@(+y@(+V+o+W+b+X+Y+<+l+m+P+n+#+#+@+@+)+#+#+#+)+#+#+@+@+@+@+E@_@:+H+)+#+#+@+@+@+@+)+@++",
"+++V+V+V+V+t+K+b+X+N+O@<+>+'+%+#+#+#+0+*+=+@+)+@+@+@+@+0+#+0+*+=+@+)+@+@+@+@+0+#+0+*+!++",
"+++V+V+V+V+t+z+L+3+c+d+C+>@[+%+1+#+)+#+*+=+=+@+@+=+@+@+@+)+#+*+=+=+@+@+=+@+@+@+)+#+*+@+@",
"+++I+V+V+y@}+p@|+v+_+~+e+x+-+|+9+#+#+@+@+0+@+@+@+@+@+#+@+*+@+@+0+@+@+@+@+@+#+@+*+@+@+0+@",
"+V+V@=+V+V@1@2+q@3+(+5@4+s+,+$+&+#+#+@+=+@+#+)+@+#+@+)+@+#+@+=+@+#+)+@+#+@+)+@+#+@+=+@+@",
"@5@=@6@7+V@1+o+a+2@8@9+]+l@>+'+%+1+#+#+@+#+#+@+#+@+*+@+/+@+@+@+#+#+@+#+@+*+@+/+@+@+@+#+#",
"+y@7@=+V+V+V+t@0+b+3+c+d+e+f+}+$+1@~+#+=+#+@+=+*+#+@+)+@+=+@+=+#+@+=+*+#+@+)+@+=+@+=+#+@",
"+V+V@=+y@(@=@a+p+u@b@c+5+6@d+,+P+n+1+#+#+@+/+#+@+#+#+#+#+=+=+#+@+/+#+@+#+#+#+#+=+=+#+@+@",
"+V+V@6+V+I+V@1+o+a@e@!+Y+O+C@f+}+$+&+#+#+@+*+@+*+*+*+*+@+@+*+*+@+*+@+*+*+*+*+@+@+*+*+@+@",
"+V+V@6@=+I+V+V+t+W+A+v+w@g@h@d@>+'+%+&+#+#+*+#+@+)+#+)+!+@+=+)+@+*+#+@+)+#+)+!+@+=+)+@+#",
"+++V@=+V@(+V+V@1+h+a@i+j+Y@j+e+x+g+'+%+9+#+#+/+!+#+=+)+!+@+@+=+#+@+/+!+#+=+)+!+@+@+=+#+@",
"+++V@(@(+V+V+V+V+t+W+A+v@c@k@l@<@f@m+8+%+9+9+#+#+#+#+@+@+@+@+)+#+#+#+)+#+#+@+@+@+#+#+#+@",
"+++V+V+V+V+V@=+y@1+h+a@e+3@n@g+6+l+>+g+'+%+&+&+#+#+#+@+0+#+0+*+=+@+)+@+@+@+#+#+#+#+#+#++",
"++@(+y+V+V+V+V@=+V@}+p@o@p@;+N+{@4+l+>+-+'+|+&+1+#+#+#+#+)+#+*+=+=+@+@+#+#+#+#+1+9+&+#++",
"+++++V+V@(+V+V+V+V@1+t+W@|@q@8+Y+{+6+l+f+,+D+$+|+&+&+9+1+#+#+#+#+#+#+#+1+1+9+%+%+$+|+#++",
"+++++I+V+V+V@(+V+V+V@r@s@0+A@3@8+N+~@t@u+s+>+,@[@v+$+%+%+9+&+&+1+9+9+&+n+|+$+'+D+-@w++++",
"+++++++V+V@6@6@6+V@=+y@}@x@0+L@3+j+c+5+Z@4@<+;+>+,+-@[+'@w@w@y@y@y@w@v+'+}+g@>+>+>+1++++",
"+++++++I+V+V+V+V+V@=+V+V@}@x@0+A+r+X+w+:+~+k+^+[+s+f+>@>+,@z+g+g@A@z+,+m+>+;@B+C+m++++++",
"++++++++@7@=+y+V@5@6@(+y+V@r@x@C@o@e+B@D@n+:+~+Z+6+^+C+l@d@B@E@E@F@d@G@<@u@4@t+[+g++++++",
"+++++++++V+V+V+I+V+V+I+V+V+V@}+o+W+a+L@p+3@D@n@H@I+~+O@J@t+6@h@4+6@K+]+<+d@g+~@+++++++++",
"+++++++++++V+V+V+V@6@6@=+V@6+y@1+t+p@0@o+b@p+B@;+(@n+N+:@L@k@I@I@I@k@M+Y+c+w@N++++++++++",
"+++++++++++++V+V+V@5+V+y+V@=+V+y+V@}+o+p@0+q+A@e+r@O+X@;@P@Q@R@R@Q@Q@P@!+3+X++++++++++++",
"+++++++++++++++V+I@7@(@(@=@(@(+V+V+V+V@}+o@2+K@S@o@|+b@e@i+2@p@T@T@i@e@U@V++++++++++++++",
"+++++++++++++++++y+V+V@6+V+V+V+V+V@=@=+V+V@1+t+o+p+z+W@0@0+a+a@o+a@W+a+u++++++++++++++++",
"+++++++++++++++++++V+V+y+V+V+V+V+V+V@=@6+V+V+y@1@1+t+t+t+o@x+h+h+h+p@X++++++++++++++++++",
"+++++++++++++++++++++++I@6+V+V@(+V+V+V+V+V+V+V+V+V+V+y+V+V+V+V@1+t++++++++++++++++++++++",
"+++++++++++++++++++++++++++I+V+V+V@(+V+V+V@=@(+V@=+V+V+V@(+I+I++++++++++++++++++++++++++",
"++++++++++++++++++++++++++++++@(+V@(+V+V@=@=+V@=@6+V+V+V@(++++++++++++++++++++++++++++++",
"+++++++++++++++++++++++++++++++++++++++V@5+y+V+V+V++++++++++++++++++++++++++++++++++++++"};
