/* XPM */
static char * ball_red_xpm[] = {
"44 44 185 2",
"#* c #13B291",
"#& c #12B492",
"#% c #11AC8C",
"#$ c #11AB8B",
"## c #11AA8A",
"#@ c #14BD99",
"#+ c #14BC99",
"@Z c #14BB98",
"@Y c #13B794",
"@X c #14C49E",
"@W c #15C59F",
"@V c #15C6A1",
"@U c #15C5A0",
"@T c #16CFA8",
"@S c #15CEA6",
"@R c #16D5AC",
"@Q c #16D6AF",
"@P c #16D8AF",
"@O c #16D8B0",
"@N c #13BC98",
"@M c #11AC8B",
"@L c #18DDB3",
"@K c #18DDB4",
"@J c #16D2AA",
"@I c #16CEA6",
"@H c #17E1B7",
"@G c #16D1AA",
"@F c #15CDA5",
"@E c #16CFA7",
"@D c #13BB99",
"@C c #11A989",
"@B c #11A788",
"@A c #13B592",
"@z c #15CAA3",
"@y c #13B492",
"@x c #12AE8E",
"@w c #14C09C",
"@v c #12B290",
"@u c #15CEA7",
"@t c #15C6A0",
"@s c #17DEB4",
"@r c #15CBA5",
"@q c #13BB97",
"@p c #12B391",
"@o c #15C8A2",
"@n c #17DAB2",
"@m c #12B291",
"@l c #16D7AF",
"@k c #14BE9B",
"@j c #12AA8A",
"@i c #11A888",
"@h c #16D3AC",
"@g c #12AC8B",
"@f c #14C5A0",
"@e c #12A686",
"@d c #12A687",
"@c c #16D1A9",
"@b c #13B593",
"@a c #11AA89",
"@0 c #12A788",
"@9 c #11A686",
"@8 c #18DEB5",
"@7 c #16D4AD",
"@6 c #18E0B5",
"@5 c #13B996",
"@4 c #12B18F",
"@3 c #28E6BE",
"@2 c #2AE6BE",
"@1 c #11A786",
"@| c #49E9C8",
"@} c #A1F4E2",
"@[ c #A9F5E4",
"@< c #5CECCE",
"@: c #21E5BB",
"@_ c #17E0B6",
"@( c #14C39F",
"@/ c #12A786",
"@^ c #95F2DF",
"@] c #F5FDFB",
"@{ c #B4F6E8",
"@~ c #13BA97",
"@! c #12AC8C",
"@) c #11A687",
"@' c #26E6BD",
"@, c #97F3DF",
"@> c #F6FDFC",
"@; c #F8FDFC",
"@- c #B6F6E8",
"@= c #32E7C1",
"@* c #18E4B8",
"@& c #17DCB2",
"@% c #17D6AE",
"@$ c #14C39E",
"@# c #13B997",
"@@ c #12AB8B",
"@+ c #12A989",
"+Z c #4CEAC9",
"+Y c #A8F4E4",
"+X c #B0F5E7",
"+W c #60ECCF",
"+V c #21E5BC",
"+U c #17E0B5",
"+T c #15CCA5",
"+S c #14C29E",
"+R c #13B896",
"+Q c #11AB8A",
"+P c #11A889",
"+O c #12A787",
"+N c #1DE5BA",
"+M c #29E6BE",
"+L c #2BE6BF",
"+K c #1FE5BB",
"+J c #17DFB5",
"+I c #16D4AC",
"+H c #14C19C",
"+G c #13B795",
"+F c #12B08F",
"+E c #12AB8A",
"+D c #11A787",
"+C c #18E5B9",
"+B c #17D9B1",
"+A c #15C9A3",
"+z c #14BF9B",
"+y c #13B694",
"+x c #12AF8E",
"+w c #12AA8B",
"+v c #12A888",
"+u c #12A889",
"+t c #18E1B6",
"+s c #17D8B0",
"+r c #16D0A8",
"+q c #13B493",
"+p c #12AE8D",
"+o c #12AA89",
"+n c #12A988",
"+m c #17E2B8",
"+l c #17DCB3",
"+k c #16D6AE",
"+j c #13BB98",
"+i c #13B391",
"+h c #12AD8D",
"+g c #12A98A",
"+f c #17DEB5",
"+e c #17DAB1",
"+d c #16D3AB",
"+c c #15CBA4",
"+b c #14C19D",
"+a c #12B190",
"+0 c #12AD8C",
"+9 c #17E3B8",
"+8 c #17DDB3",
"+7 c #17D7AF",
"+6 c #16D0A9",
"+5 c #15C7A1",
"+4 c #14BE9A",
"+3 c #13B895",
"+2 c #13B392",
"+1 c #18E2B7",
"+| c #18DFB5",
"+} c #16D5AD",
"+[ c #15CDA6",
"+< c #14C49F",
"+: c #14BF9C",
"+_ c #14BD9A",
"+( c #18E4BA",
"+/ c #16D2AB",
"+^ c #16CEA7",
"+] c #15CAA4",
"+{ c #15C9A2",
"+~ c #18E5BA",
"+! c #18E3B9",
"+) c #18E0B6",
"+' c #17DDB4",
"+, c #17DBB2",
"+> c #17D9B0",
"+; c #18DEB4",
"+- c #19E4BA",
"+= c #19E4B9",
"+* c #19E5B9",
"+& c #18E3B8",
"+% c #18E2B8",
"+$ c #18E1B7",
"+# c #18E4B9",
"+@ c #19E5BA",
"++ c None",
"+++++++++++++++++++++++++++++++++++@+#+#+#+@+@+@+#+@+@++++++++++++++++++++++++++++++++++",
"+++++++++++++++++++++++++++++#+$+%+&+#+#+*+=+@+-+-+-+@+@+@+@++++++++++++++++++++++++++++",
"+++++++++++++++++++++++++;+>+,+'+)+%+!+#+@+-+#+*+=+#+-+~+@+@+-+-++++++++++++++++++++++++",
"+++++++++++++++++++++{+]+^+/+>+;+$+&+#+#+(+@+~+~+(+@+-+~+@+@+@+@+@+~++++++++++++++++++++",
"+++++++++++++++++++_+:+<+[+}+,+|+1+!+#+-+#+#+#+=+#+#+*+@+*+@+-+#+#+#+~++++++++++++++++++",
"+++++++++++++++++2+3+4+5+6+7+8+)+&+9+#+-+*+@+-+@+@+@+@+(+(+#+-+*+@+-+@+@+*++++++++++++++",
"+++++++++++++++0+a+3+b+c+d+e+f+$+!+#+#+=+*+@+@+@+@+@+@+@+=+#+=+*+@+@+@+@+@++++++++++++++",
"+++++++++++++g+h+i+j+<+^+k+l+)+m+!+#+#+@+#+@+@+@+@+@+#+@+=+@+@+#+@+@+@+@+@+@+*++++++++++",
"+++++++++++n+o+p+q+_+5+r+s+'+t+&+#+#+@+*+@+(+-+@+#+@+=+@+#+@+*+@+(+-+@+#+@+=+-++++++++++",
"+++++++++u+v+w+x+y+z+A+/+B+;+$+&+#+#+@+@+#+#+@+(+@+-+*+C+*+@+@+#+#+@+(+@+-+*+#+@++++++++",
"+++++++++D+v+E+F+G+H+c+I+,+J+1+&+#+*+@+@+#+@+@+-+#+@+=+@+*+@+K+L+M+N+-+#+@+=+@+@+~++++++",
"+++++++O+D+P+Q+F+R+S+T+}+,+U+m+9+#+@+@+(+@+~+(+@+(+#+(+(+@+V+W+X+Y+Z+N+(+#+(+(+@+=++++++",
"+++++++O+O@+@@+a@#@$+[@%@&+)+%@*+#+*+=+-+*+=+@+-+-+-+=+@+*@=@-@;@>@,@'+-+-+=+@+*+-+-++++",
"+++++O@)+O@+@!+a@~@$+[+k+l+)+m+#+#+@+@+=+@+-+#+*+=+#+-+~+@@=@{@;@]@^@'+=+#+-+~+@+@+(++++",
"+++++O@/+D@+@!+a@~@(+[@%+l@_+%@*+#+@+@+@+(+@+~+~+(+@+-+~+@@:@<@[@}@|+N+(+@+-+~+@+@+@+@++",
"+++D+D@1+O@+@@+a@#@$+[+k@&@_+m+#+#+*+@+-+#+#+#+=+#+#+*+@+*+@+K@2@3+N+=+#+#+*+@+*+@+-+@++",
"+++O+O+O+O+u+Q@4@5+S+T+}+,@6+%+#+#+(+#+-+*+@+-+@+@+@+@+(+(+#+-+*+@+-+@+@+@+@+(+(+#+-+~++",
"+++O@/+O+O+v+E+F+3+b+c@7+,+|+1+!+#+=+#+=+*+@+@+@+@+@+@+@+=+#+=+*+@+@+@+@+@+@+@+=+#+=+@+@",
"+++O+O+O+D+v+w+x+y+:+A+d+B@8+1+9+#+#+@+@+#+@+@+@+@+@+#+@+=+@+@+#+@+@+@+@+@+#+@+=+@+@+#+@",
"+O+O@9+O@/@0@a+p@b+_+5@c+s+'+t+&+#+#+@+*+@+(+-+@+#+@+=+@+#+@+*+@+(+-+@+#+@+=+@+#+@+*+@+@",
"@9@9@d@e@/@0@++h+i+j@f+^+k+l+)+%+&+#+#+@+#+#+@+(+@+-+*+C+*+@+@+#+#+@+(+@+-+*+C+*+@+@+#+#",
"+D@e@9+O+O+O+u@g+a+3+b+c@h+e+|+$+!+#+#+@+#+@+@+-+#+@+=+@+*+@+@+#+@+@+-+#+@+=+@+*+@+@+#+@",
"+O@/@9@1@1@9@i@j+x@b@k+5+6@l+8@_+m+!+#+(+@+~+(+@+(+#+(+(+@+@+(+@+~+(+@+(+#+(+(+@+@+(+@+@",
"+O@/@e@/+O+O@0@++h@m@~@$+T@7@n+|+$+&+#+#+*+=+@+-+-+-+=+@+*+=+-+*+=+@+-+-+-+=+@+*+=+-+*+@",
"+O+O@e@9+O+O+O+v@@+F+y+z@o+6@l+l+)+1+!+#+#+-+#+*+=+#+-+~+@+@+=+@+-+#+*+=+#+-+~+@+@+=+@+#",
"+++O@9@/+D+O+O@0+g+0@p@q@$@r+d+B@s+)+%+9+#+#+~+~+(+@+-+~+@+@+@+(+@+~+~+(+@+-+~+@+@+@+(+@",
"+++O@1@1+O+O+O+O+v@@+F+y+4@t@u+}@n@s+)+%+9+9+#+#+#+#+*+@+*+@+-+#+#+#+=+#+#+*+@+*+#+#+#+@",
"+++O+O+O+O+O@9+D@0+g+0@v+R@w@o+r+k+,@s+)+%+&+!+#+#+#+@+(+(+#+-+*+@+-+@+@+@+#+#+#+#+#+#++",
"+++D+D+O+O+O+O@9+O+v@j@x@y@~+S@z@c+k+,+;+)+1+&+&@*+#+#+#+=+#+=+*+@+@+@+#+#+#+#+!+9+&+#++",
"+++++O+O@1+O@/+O+O+O+v@@+x@A+j@$@z+r+k+e+8+J+t+1+&+&+9+!+#+#+#+#+#+#+#+!+!+9+%+1+$+1+#++",
"+++++O+O@/@/@1+O+O+O@B@C@!+F@b@D+S+{@E+I+s+,+'+|@_+$+%+%+9+&+&+!+9+9+&+m+1+$+)+J+;+t++++",
"+++++++O@/@d@d@d+O@9+D+v@C@!+F@b+j+b+5@F@G+}+>+,+8+;+|+)+t+t@H@H@H+t@_+)+|@s+l+,+,+!++++",
"+++++++O+O+O+O+O+O@9+O+O+v@C@!+F+q@5+z+<+A@I@J+}+s+e+,+l+8@K@s@s+;@L+8@&+,+>+7@7+l++++++",
"++++++++@e@9@1+O@9@e@1@1+O@B@C@M@x@m+G@N@w+<+A@F+r+/@7+k@l+7@O@O@P@l@Q+}+I@G@E@R+f++++++",
"+++++++++O+O@/@/@/@/@/@/@/+O+v+n@@+0+F@y+3@N@w@(+5+A+T@S@E+6+6@c+6@T+^+[+c@o+A@%++++++++",
"+++++++++++O@/@/@/@e@e@9@/@e+D@0+v@j@g+p@4@y+G@~+_@w+S+<@U@V+5+5+5@t@W@$+b+z@X++++++++++",
"+++++++++++++O+O@/@9+O@1@/@9@/+D+O+v@+@j@g+p+F@m+q@Y@5@~@Z#+#@#@#+#+@Z@~+3@5++++++++++++",
"+++++++++++++++O@/@e@1@1@9@1@1+O+O+O+O+v@+###$#%+p+x@4@m@p+2@y#&#&@p@m+a#*++++++++++++++",
"+++++++++++++++++D+O@/@e@/+O+O+O+O@9@9+O+O@0+v@+@j+E@@@!@g+0+h+p+0+0+0+x++++++++++++++++",
"+++++++++++++++++++O+O+D@/@/+O+O+O+O@9@d+O+O+D@0@0+v+v+v@+@C@++g@+@j+E++++++++++++++++++",
"+++++++++++++++++++++++O@e+O+O@1+O@/+O+O+O+O+O+O+O+O+D+O+O+O+O@0+v++++++++++++++++++++++",
"+++++++++++++++++++++++++++O+O@/@/@1+O+O+O@9@1+O@9+O@/@/@1+O+O++++++++++++++++++++++++++",
"+++++++++++++++++++++++++++++++D+O@1+O+O@9@9+O@9@d+O+O+O+D++++++++++++++++++++++++++++++",
"+++++++++++++++++++++++++++++++++++++++O@9+D+O+O+O++++++++++++++++++++++++++++++++++++++"};
