/* XPM */
static char * s4_keroro_xpm[] = {
"100 100 2 1",
" 	c None",
".	c #FA0035",
"                                                                                                    ",
"                                                                                                    ",
"                                                                                                    ",
"                                                                                                    ",
"                                                                                                    ",
"                                                                                                    ",
"                                                                                                    ",
"                                                 ..                                                 ",
"                                                ....                                                ",
"                                               ......                                               ",
"                                               ......                                               ",
"                                              ........                                              ",
"                                             .........                                              ",
"                                             .........                                              ",
"                                            ...........                                             ",
"                                            ...........                                             ",
"                                           ............                                             ",
"                                          .............                                             ",
"                                          ..............                                            ",
"                                         ...............                                            ",
"                                         ...............                                            ",
"                                        .................                                           ",
"                                        .................                                           ",
"                                       ..................                                           ",
"                                       ..................                                           ",
"                                      ....................                                          ",
"                                      ....................                                          ",
"                                     .....................                                          ",
"                                     ......................                                         ",
"                                    .......................                           ...           ",
"          .......                   .......................                    ..........           ",
"          ................         .........................             ................           ",
"           .................................................      ......................            ",
"           .............................................................................            ",
"            ...........................................................................             ",
"             ..........................................................................             ",
"             .........................................................................              ",
"              ........................................................................              ",
"               ......................................................................               ",
"               .....................................................................                ",
"                ....................................................................                ",
"                 ..................................................................                 ",
"                  ................................................................                  ",
"                  ................................................................                  ",
"                   ..............................................................                   ",
"                    .............................................................                   ",
"                    ............................................................                    ",
"                     ..........................................................                     ",
"                      .........................................................                     ",
"                      ........................................................                      ",
"                       .......................................................                      ",
"                        .....................................................                       ",
"                        .....................................................                       ",
"                         ...................................................                        ",
"                         ...................................................                        ",
"                         ...................................................                        ",
"                         ...................................................                        ",
"                        ....................................................                        ",
"                        .....................................................                       ",
"                       ......................................................                       ",
"                       .......................................................                      ",
"                      ........................................................                      ",
"                      .........................................................                     ",
"                     ..........................................................                     ",
"                     ..........................................................                     ",
"                    ............................................................                    ",
"                    ............................................................                    ",
"                   ..............................................................                   ",
"                  ...............................................................                   ",
"                  ................................................................                  ",
"                 .................................................................                  ",
"                 ..................................................................                 ",
"                ...............................     ...............................                 ",
"                .............................          .............................                ",
"               ............................              ...........................                ",
"               .........................                   ..........................               ",
"              ........................                       ........................               ",
"              ......................                          ........................              ",
"             .....................                              ......................              ",
"             ...................                                  .....................             ",
"            ..................                                      ...................             ",
"            ................                                          .................             ",
"           ...............                                              ................            ",
"           .............                                                  ..............            ",
"           ...........                                                     ..............           ",
"           .........                                                         ............           ",
"          .......                                                              ..........           ",
"          ....                                                                   ........           ",
"                                                                                   .......          ",
"                                                                                      ....          ",
"                                                                                                    ",
"                                                                                                    ",
"                                                                                                    ",
"                                                                                                    ",
"                                                                                                    ",
"                                                                                                    ",
"                                                                                                    ",
"                                                                                                    ",
"                                                                                                    ",
"                                                                                                    "};
