/* XPM */
static char * s4_kururu_xpm[] = {
"100 100 2 1",
" 	c None",
".	c #FAF900",
"                                                                                                    ",
"                                                                                                    ",
"                                                                                                    ",
"                                                                                                    ",
"                                                                                                    ",
"                                                                                                    ",
"                                                                                                    ",
"                                                                                                    ",
"                                                                                                    ",
"                                                                                                    ",
"                                      .......................                                       ",
"                                   ...............................                                  ",
"                                 .....................................                              ",
"                               ..........................................                           ",
"                              ............................................                          ",
"                             ..............................................                         ",
"                           .................................................                        ",
"                          ...................................................                       ",
"                         .....................................................                      ",
"                        .......................................................                     ",
"                       ........................................................                     ",
"                      ..........................................................                    ",
"                     ............................................................                   ",
"                    ..............................................................                  ",
"                  .................................................................                 ",
"                  ........................                 .........................                ",
"                 ......................                        ......................               ",
"                ......................                           .....................              ",
"               ......................                             ....................              ",
"              ......................                               ....................             ",
"              .....................                                ....................             ",
"             .....................                                  ....................            ",
"             ....................                                    ...................            ",
"            ....................                                      ..................            ",
"            ..................                                         .................            ",
"           ...................             ......                       .................           ",
"           ..................            ..........                      ................           ",
"           .................            ............                     ................           ",
"          .................             ............                     ................           ",
"          ................             ..............                    ................           ",
"          ................             ..............                    ................           ",
"          ................            ................                   ................           ",
"          ................            ................                   ................           ",
"          ................            ................                   ................           ",
"          ................            ................                   ................           ",
"          ................            ................                  .................           ",
"          ................            ................                  ................            ",
"          ................             ................                 ................            ",
"          ................             ................                .................            ",
"           ...............             ................                ................             ",
"           ...............             ................               .................             ",
"           ...............             ................               .................             ",
"           ................             ................             .................              ",
"           ................             ................            ..................              ",
"           .................            ................           ...................              ",
"            ................            .................         ...................               ",
"            .................            ...........................................                ",
"            .................            ...........................................                ",
"            ..................           ..........................................                 ",
"             .................            .........................................                 ",
"             ..................           .........................................                 ",
"              ..................           .......................................                  ",
"              ...................          ......................................                   ",
"               ...................          ....................................                    ",
"                ...................         ...................................                     ",
"                ....................         .................................                      ",
"                 ....................         ...............................                       ",
"                 ......................        .............................                        ",
"                  .......................        ..........................                         ",
"                  ........................         .......................                          ",
"                   ........................          ...................                            ",
"                    ........................            .........                                   ",
"                     ........................                                                       ",
"                      .......................                                                       ",
"                        .....................                                                       ",
"                         ....................                                                       ",
"                          ...................                                                       ",
"                           ..................                                                       ",
"                            .................                                                       ",
"                             ...............                                                        ",
"                               ............                                                         ",
"                                 .........                                                          ",
"                                  .......                                                           ",
"                                                                                                    ",
"                                                                                                    ",
"                                                                                                    ",
"                                                                                                    ",
"                                                                                                    ",
"                                                                                                    ",
"                                                                                                    ",
"                                                                                                    ",
"                                                                                                    ",
"                                                                                                    ",
"                                                                                                    ",
"                                                                                                    ",
"                                                                                                    ",
"                                                                                                    ",
"                                                                                                    ",
"                                                                                                    ",
"                                                                                                    "};
