/* XPM */
static char * ball_red_xpm[] = {
"66 66 5 1",
"% c #F90034",
"$ c #F90035",
"# c #FA0034",
"@ c #FA0035",
"+ c None",
"++++++++++++++++++++++++++++++++++++++++++++++++++++++++++++++++++",
"++++++++++++++++++++++++++++++++++++++++++++++++++++++++++++++++++",
"++++++++++++++++++++++++++++++++++++++++++++++++++++++++++++++++++",
"++++++++++++++++++++++++++++++++++++++++++++++++++++++++++++++++++",
"++++++++++++++++++++++++++++++++@@++++++++++++++++++++++++++++++++",
"+++++++++++++++++++++++++++++++#$@#+++++++++++++++++++++++++++++++",
"+++++++++++++++++++++++++++++++%%#%+++++++++++++++++++++++++++++++",
"+++++++++++++++++++++++++++++###@@%@++++++++++++++++++++++++++++++",
"+++++++++++++++++++++++++++++@#@@@@@++++++++++++++++++++++++++++++",
"+++++++++++++++++++++++++++++$%%@@%$@+++++++++++++++++++++++++++++",
"++++++++++++++++++++++++++++@@%@@@@@@+++++++++++++++++++++++++++++",
"+++++++++++++++++++++++++++@$%#%%%%##+++++++++++++++++++++++++++++",
"+++++++++++++++++++++++++++@@@%@##@@@+++++++++++++++++++++++++++++",
"++++++++++++++++++++++++++@$%%@@@@#@@@++++++++++++++++++++++++++++",
"++++++++++++++++++++++++++@@@@#@@@@@@@++++++++++++++++++++++++++++",
"+++++++++++++++++++++++++%@#@##@@@@#@@++++++++++++++++++++++++++++",
"+++++++++++++++++++++++++@%@@@@@@@@@@$@+++++++++++++++++++++++++++",
"++++++++++++++++++++++++@$@$@##@@@@%@@#+++++++++++++++++++++++++++",
"++++++++++++++++++++++++@###@@##@@@$#@@+++++++++++++++++++++++++++",
"++++++@@##@@+++++++++++@$@##%$@@@@@@@%@+++++++++++++##%@@#%+++++++",
"++++++##@@@@@#@#@@+++++@##@@@#@@#@@@#@##++++++++$@@@@@@@@#%+++++++",
"++++++##@@#@@@@@@@#$@#@%%#@@%%#@@@%#@@@@@%#@@@@@$@@%$@##%%@+++++++",
"+++++++@@#%@@#%#@@%@@%#@@@####%%%%#%@%@%$@#%@@#%#@@%@@%#@$@+++++++",
"+++++++@#@@@@##@%##@@#@@%@@@#@@##%@@@@@#@@@@@@##@%##@@#@@#++++++++",
"++++++++@@@@@@@@@@@@#%@@##%@@@%@@@%@@@@%@##@@@@@@@@@@#%@#+++++++++",
"+++++++++##%#@#@#%%@##@@#####@###%%#@#@#%#@#%#@#@#%%@##@@+++++++++",
"+++++++++@$@@%%%@@%%@@%#%@@@%#@@@%%@@#%$@%%%@@%%%@@%%@@#++++++++++",
"++++++++++@@@@@@@@@##@@@@###@@%@@%@@#@%@#%@%#@@@@@@@##@@++++++++++",
"+++++++++++@@@@%@@@@@@#@@#%@@@@@@@@%$@@#@@@#%@@@%@@@@@@+++++++++++",
"+++++++++++@@%@@@@@@#@@@@@#@#@@%@@@@%@@#@%@@@#%@@@@@@@@+++++++++++",
"+++++++++++++#%@@#@#@@%@%@@%@@%@@@@%@%#@@#@%#@#%@@#@%@++++++++++++",
"+++++++++++++@@@@#@@@@$%##@@@@@@@@@#@@%@##%@@@@@@@#@@+++++++++++++",
"++++++++++++++@@@@@@#@%@##@@@@@@@@@@@@@%@@@@@#@@@@@@@+++++++++++++",
"+++++++++++++++@@@@@#%@@#%@%@@@@@@$@%@@@#@@@@#@@@@@@++++++++++++++",
"+++++++++++++++@$@@@#@%%@%%@#@%@@@@@@@@%%@%$@@@@@$@+++++++++++++++",
"++++++++++++++++@@@@@@%@@@%#@@%#@@@#@@%#@@@@#@@@#@@+++++++++++++++",
"++++++++++++++++@@@@%@#@%$#@$$#%$@$@$$@#$%@#@$@%@$@+++++++++++++++",
"+++++++++++++++$$@@%@@%@@@#@@@@@@@@@$@$@@@@@@@@@@@@+++++++++++++++",
"+++++++++++++++@@@@@@@%#@@#@$@%#@@@@@@@%@@#$@@%@@@$+++++++++++++++",
"+++++++++++++++$%@@#@@%@%@@@##%@%#@#@@@#%@%@@@@%@%@#++++++++++++++",
"++++++++++++++@%@@%@@@#@%@%@@@@#@@@@@@@##%#@#@@#%@@#@+++++++++++++",
"+++++++++++++@#@@@@#@@@@#@%@@@#@@@@@@@@@@@@@@@#%@@@@@+++++++++++++",
"+++++++++++++@@%@%@%@%%%@%%%@%%%@@%%%@@%%#%$%#@@%@%@@+++++++++++++",
"+++++++++++++@%@%#%@@%#@@%##%@%@@@@@%@@##@@####%@%#%@+++++++++++++",
"+++++++++++@#$#%%%%%@$@%@%@#%%#%%%%#%@$@@@%#%%%#%%%%@$++++++++++++",
"+++++++++++#@%%%@@@@@@@@@@@@@@%@##@@@@#@#@#%%@%%%@@@@$@+++++++++++",
"+++++++++++#%@@@@#@$@@@%@@%%%%@@@@#@#@%@##@%%%@@@@#@$@@+++++++++++",
"++++++++++@$%@##@@#@@###@#@@@@##@@@@@@@@#%@%#%@##@@#@@#+++++++++++",
"+++++++++@@##%#@@@%%@#@%@@##@%@@++@@%@@@@#@@##%#@@@%%@%@++++++++++",
"+++++++++@%%@@@@@@@%@%%%@@%@@++++++++@$%@@@%%@@@@@@@%@%@@+++++++++",
"+++++++++$%%@#@@@@@%@@#@@#@+++++++++++@#@@@%%@#@@@@@%@@#%+++++++++",
"++++++++@@%#@@#@@@##@#@@++++++++++++++++@%@%#@@#@@@##@###+++++++++",
"+++++++@$@@@@@##@%###@@+++++++++++++++++++@@@@@##@%##@@@$@++++++++",
"+++++++@@@@@@@@@@@$@++++++++++++++++++++++++@@@@@@@@@@@@@@++++++++",
"+++++++#@@#@@@@@@#@+++++++++++++++++++++++++++#%@@@%$@##%##+++++++",
"+++++++@@#%@@#%@++++++++++++++++++++++++++++++++@@@%@@%#@@#+++++++",
"++++++#@@@@###@++++++++++++++++++++++++++++++++++@%##@#@@%@+++++++",
"++++++#@##@@++++++++++++++++++++++++++++++++++++++++@@%@@##+++++++",
"++++++@#@@+++++++++++++++++++++++++++++++++++++++++++@@@@##$++++++",
"++++++++++++++++++++++++++++++++++++++++++++++++++++++++##@@++++++",
"++++++++++++++++++++++++++++++++++++++++++++++++++++++++++++++++++",
"++++++++++++++++++++++++++++++++++++++++++++++++++++++++++++++++++",
"++++++++++++++++++++++++++++++++++++++++++++++++++++++++++++++++++",
"++++++++++++++++++++++++++++++++++++++++++++++++++++++++++++++++++",
"++++++++++++++++++++++++++++++++++++++++++++++++++++++++++++++++++",
"++++++++++++++++++++++++++++++++++++++++++++++++++++++++++++++++++"};
