/* XPM */
static char * ball_red_xpm[] = {
"66 66 5 1",
"% c #FAF800",
"$ c #F9F900",
"# c #FAF900",
"@ c #F9F800",
"+ c None",
"++++++++++++++++++++++++++++++++++++++++++++++++++++++++++++++++++",
"++++++++++++++++++++++++++++++++++++++++++++++++++++++++++++++++++",
"++++++++++++++++++++++++++++++++++++++++++++++++++++++++++++++++++",
"++++++++++++++++++++++++++++++++++++++++++++++++++++++++++++++++++",
"++++++++++++++++++++++++++++++++++++++++++++++++++++++++++++++++++",
"++++++++++++++++++++++++++++++++++++++++++++++++++++++++++++++++++",
"+++++++++++++++++++++++++@##$###%%###$@##+++++++++++++++++++++++++",
"+++++++++++++++++++++###%%@%###########%#%#####+++++++++++++++++++",
"++++++++++++++++++++#@#%##@#######%##%##%#%%#####+++++++++++++++++",
"+++++++++++++++++++#$@@@#@@@#@$@%%@@@##@@#@@@%##%#++++++++++++++++",
"+++++++++++++++++##%#@##%@%%@#@%###%@#%%%%###%%@%@#+++++++++++++++",
"++++++++++++++++##@@#@%@#@#%@@%@@@@%@#$###@%@@@%@$#%++++++++++++++",
"+++++++++++++++#$%#####%#####%@%%###%#####%@@#@@@#%##+++++++++++++",
"++++++++++++++%##%#@###@%#@@@@##%%%#%%@#%%#@@@####%##+++++++++++++",
"+++++++++++++%#%%#%%#%%%#%####%#########%@#@%@#%%%#%%#++++++++++++",
"+++++++++++%##%###@@#%#@%#%%#%%#%##%#####%%#%%@%###@@#@+++++++++++",
"+++++++++++########@#@@@##@###########$@%##@@#######@###++++++++++",
"++++++++++#%#%#####@##%####%++++++++++%####@@#%#####@####+++++++++",
"+++++++++#%%##%%##%%#%%%#%++++++++++++++++##%##%%##%%#%%#+++++++++",
"+++++++++@###%%%#@%%#%###++++++++++++++++++###%%%#@%%#%#@#++++++++",
"++++++++###%###########$++++++++++++++++++++$#############%+++++++",
"+++++++#@%%%###%##@$#@#+++++++++++++++++++++%###%##@$##%@@#+++++++",
"+++++++###@##%@%#%@###++++++++++++++++++++++++$@%#%@##@%###+++++++",
"+++++++#%###%%%%@%%@+++++++%$##%##++++++++++++%#%@%%##%#%@#+++++++",
"+++++++#%###########++++++$%%#@##%#+++++++++++++######@##%%+++++++",
"++++++@$#%%@##%#%#%++++++#$%###%#@$+++++++++++++#%@@##%##%#+++++++",
"++++++##@$@##@@@##+++++++#%#@%###@#+++++++++++++###@@##@%@%+++++++",
"++++++#%@%@%######+++++++#%%##@##@##++++++++++++@###%#%%##%+++++++",
"++++++$%##%@###@##+++++++#@####%#%%#++++++++++++%#%####%%%%+++++++",
"++++++##@%###@####+++++++%%#%##@##%#+++++++++++$##########%+++++++",
"++++++####@%#%@###+++++++%#@##@#####+++++++++++###%%%##@#@#+++++++",
"++++++###@#%######+++++++@#######%###+++++++++####%####@@##+++++++",
"++++++##%##%%%####+++++++#######%%###+++++++++######%##@%%#+++++++",
"+++++++%%%##%%####+++++++##@%##%%%@##+++++++++@######%@###++++++++",
"+++++++#%@@%%###@#+++++++#####$##%##@+++++++%####@#####@#%++++++++",
"+++++++%#%%###%%##%+++++++#%##@%###%#+++++++###%%##%###@#+++++++++",
"+++++++$@#%%@#$%@#%#++++++$%$$%@@%$#@#######@@#$%@##%$###+++++++++",
"+++++++#%%#%########+++++++#########@#$##%%#%#######@###++++++++++",
"+++++++#$%@##@##%##@+++++++$$#$%#######@%#%@##@##%##%#@#++++++++++",
"++++++++%@####@#@###$++++++##%@%@##%###%@#@####@#@##%##+++++++++++",
"++++++++##%%###@%#@###+++++############%%@%%%###@%#@#%$+++++++++++",
"+++++++++%%###@%#####%#+++++######%##%##%#%%###@%#####++++++++++++",
"+++++++++##@%##@#@#@%@#%+++++#$@%%@@@##@@#@@@%##@#@##+++++++++++++",
"++++++++++##%%@%@%@##@###++++#%%###%@#%%%%###%%@%@#%++++++++++++++",
"+++++++++++#@@%@$@@@#@%@%##%++##@@@%@#$###@%@@@%@$#+++++++++++++++",
"+++++++++++##@@@#%#####%####++++%###%#####%@@#@@@#++++++++++++++++",
"+++++++++++##%###%#@###@%#@$$#+++###@%@#%%$@%@@@@+++++++++++++++++",
"+++++++++++++@%%%#%%#%%%#%####++++++####%##+++++++++++++++++++++++",
"+++++++++++++#@###@@#%#@%#%%##++++++++++++++++++++++++++++++++++++",
"+++++++++++++++#$##@#@@@##@###++++++++++++++++++++++++++++++++++++",
"++++++++++++++++###@##%####$#%++++++++++++++++++++++++++++++++++++",
"+++++++++++++++++%#%#%%%#%%%##++++++++++++++++++++++++++++++++++++",
"++++++++++++++++++#$#%####%%@#++++++++++++++++++++++++++++++++++++",
"++++++++++++++++++++$@#######+++++++++++++++++++++++++++++++++++++",
"+++++++++++++++++++++###@###++++++++++++++++++++++++++++++++++++++",
"++++++++++++++++++++++++++++++++++++++++++++++++++++++++++++++++++",
"++++++++++++++++++++++++++++++++++++++++++++++++++++++++++++++++++",
"++++++++++++++++++++++++++++++++++++++++++++++++++++++++++++++++++",
"++++++++++++++++++++++++++++++++++++++++++++++++++++++++++++++++++",
"++++++++++++++++++++++++++++++++++++++++++++++++++++++++++++++++++",
"++++++++++++++++++++++++++++++++++++++++++++++++++++++++++++++++++",
"++++++++++++++++++++++++++++++++++++++++++++++++++++++++++++++++++",
"++++++++++++++++++++++++++++++++++++++++++++++++++++++++++++++++++",
"++++++++++++++++++++++++++++++++++++++++++++++++++++++++++++++++++",
"++++++++++++++++++++++++++++++++++++++++++++++++++++++++++++++++++",
"++++++++++++++++++++++++++++++++++++++++++++++++++++++++++++++++++"};
