/* XPM */
static char * ball_red_xpm[] = {
"66 66 12 1",
", c #88E200",
"> c #4FD700",
"; c #50D700",
"- c #56D900",
"= c #EBF600",
"* c #00C700",
"& c #F9F800",
"% c #F9F900",
"$ c #00C800",
"# c #FAF800",
"@ c #FAF900",
"+ c None",
"++++++++++++++++++++++++++++++++++++++++++++++++++++++++++++++++++",
"++++++++++++++++++++++++++++++++++++++++++++++++++++++++++++++++++",
"++++++++++++++++++++++++++++++++++++++++++++++++++++++++++++++++++",
"++++++++++++++++++++++++++++++++++++++++++++++++++++++++++++++++++",
"++++++++++++++++++++++++++++++++++++++++++++++++++++++++++++++++++",
"+++++++++++++++++++++++++++++++++++++++++++++++++++@#+++++++++++++",
"+++++++++++$++++++++++++++++++++++++++++++++++++++%#@+++++++++++++",
"+++++++++++$$$++++++++++++++++++++++++++++++++++@&@&@+++++++++++++",
"+++++++++++$$$$++++++++++++++++++++++++++++++++%#@@@@+++++++++++++",
"+++++++++++$*$$$$+++++++++++++++++++++++++++++@&&@&@@+++++++++++++",
"+++++++++++$*$*$*$++++++++++++++++++++++++++@@@&#&#&@+++++++++++++",
"+++++++++++$*****$$$+++++++++++++++++++++++@@&&#&%&&@+++++++++++++",
"+++++++++++$$***$$$$++++++++++++++++++++++@@&@&&&@#@@+++++++++++++",
"+++++++++++$*$$$$*$$$*++++++++++++++++++@@&&&&@@@@#@#+++++++++++++",
"+++++++++++$*$$*$$$$$$*$+++++++++++++++@%&@&#&@###@#@+++++++++++++",
"+++++++++++$***$$$**$*$$$++++++++++++%#@@##@##&#@@@&#+++++++++++++",
"+++++++++++*$$$$$$$*$****$++++++++++@%@&#@@&&@@@@@@@@+++++++++++++",
"+++++++++++$$*$$$$$*$$$$$$$$++++++#@@@&@@@@&&@#@@@@@#+++++++++++++",
"+++++++++++$$$$$$$$*$***$**$$+++++%&@@&&&@@&#@@##@@#@+++++++++++++",
"+++++++++++$$$**$***$$$$$$$*$$$+##&@@&&#@##@@@###@&#@+++++++++++++",
"+++++++++++$$$$$$$$$$$$$$$$$$$$=@@@@#@@@@@@@#@@@@@@@@+++++++++++++",
"+++++++++++*$$$*$$*$$$***$$$***-@#&##@@@@####@@@#@@&@+++++++++++++",
"+++++++++++$$***$$*$$**$$$*****;&&#&#&#&%@@&@@#&#@#&@+++++++++++++",
"+++++++++++$$******$$*$$*$$$*$$;#&#@@@##@#@@@####&##@+++++++++++++",
"+++++++++++*$$$$*$$$$*$$$$*$$$*;@@&@@#@&@#@@@@@@@@@@@+++++++++++++",
"+++++++++++$$$*$***$$$$$$$$$$$$;@&&@##@@&@##&@@#@#&&@+++++++++++++",
"+++++++++++$$$*$$$*$$$$**$$$**$;@&&@@@&&@&%&@@&&&@@&@+++++++++++++",
"+++++++++++$*$$$$$$*$$$$*$$*$$*;@&@##@&@#&#&#@@@@@@@@+++++++++++++",
"+++++++++++$$$$**$$$$$*$$$*$$$$;@##&%@#@#@@#&@@@&@#@@+++++++++++++",
"+++++++++++$$*$$$$$$$$$$$$$$$$$;@@#@&@@#@&#@@@&@@@@@@+++++++++++++",
"+++++++++++$$*$$$***$$*$*$$*$$*;@@@&@&#@@@@&#@#&@@##@+++++++++++++",
"+++++++++++*$$$$$$$$$$$*$$$$$$$;@#@#@@&@@@&@#@@@@@#@@+++++++++++++",
"+++++++++++$*$$$$$$$*$*$$$$$$$$;##@@##@&@#@@###@@@@@@+++++++++++++",
"+++++++++++*$$$$$$$$$*$$$*$*$$$;##&@&##@@##@@##@@@@@@+++++++++++++",
"+++++++++++$$$$$$$$$$$**$**$$$*;@#@@##@&%#&&##@@@&@@@+++++++++++++",
"+++++++++++$$$**$$$$$$*$$$$*$$$;@@@#@@&#@@##@@@##@@#@+++++++++++++",
"+++++++++++$$$*$$$$$$$*$*$*$$$*;&#%@&%@#&&@##&@%#&@@@+++++++++++++",
"+++++++++++$$$$$$$$*$$*$$$$$$$$;@@@@&@%@@##@#@@@@@@@@+++++++++++++",
"+++++++++++$$*$$$$$$$$**$$*$$$*;@@@@@@@&#@#&@@&@@#@@@+++++++++++++",
"+++++++++++$$$*$*$$$$$*$*$$$$$$;&@@#@@@#&@&@@@@&@&@@@+++++++++++++",
"+++++++++++$$$**$$*$$$*$*$*$$$$;@@@@@@@##&###@@@&#@&@+++++++++++++",
"+++++++++++$$$*$$$$$$$$$$$*$$$$;@@#@@#@@#@##@@@&#@@@@+++++++++++++",
"+++++++++++$*$$*$*$*$***$***$**>##&&&@@&&@&&&#@@&@&@@+++++++++++++",
"+++++++++++$*$*$*$*$$$*$$$***$*;@@@#&@####@@@##&#&#&@+++++++++++++",
"+++++++++++$********$$$*$*$****;&&&#&@%@@@&#&&&#&%&&@+++++++++++++",
"+++++++++++$****$$$$$$$$$$$$$$*;#@@@#@@@@@#&&@&&&@#@@+++++++++++++",
"++++++++++++$$$$$*$$$$$*$$$***$;###@##&@##@&&&@@@@@@++++++++++++++",
"++++++++++++++$$$$$$$***$*$$$$$;@@@@@@@@#&@&#&@##@@+++++++++++++++",
"+++++++++++++++$$$**$*$*$$$*$**;#@@#@@@@@##@##&@@+++++++++++++++++",
"+++++++++++++++++$$*$****$*$*$$;@@@@@@@&#@@&&@@@++++++++++++++++++",
"+++++++++++++++++$$*$$$$$$$$$**;@@@&@@&@@@@&&&@+++++++++++++++++++",
"+++++++++++++++++++$$***$***$$*;@@@&@@&&&@@&@+++++++++++++++++++++",
"++++++++++++++++++++$$$$$$$***$;#@#@@&&#@#@@++++++++++++++++++++++",
"++++++++++++++++++++++$$$$$$$$$;@@@@#@@@@@++++++++++++++++++++++++",
"+++++++++++++++++++++++$$$$$***;@#&##@@&@+++++++++++++++++++++++++",
"+++++++++++++++++++++++++$$****;&&#&#&@+++++++++++++++++++++++++++",
"++++++++++++++++++++++++++$$*$$;#&#@@%#+++++++++++++++++++++++++++",
"+++++++++++++++++++++++++++$$**;@@&#@+++++++++++++++++++++++++++++",
"+++++++++++++++++++++++++++++$$;@&@@++++++++++++++++++++++++++++++",
"+++++++++++++++++++++++++++++++,@#++++++++++++++++++++++++++++++++",
"+++++++++++++++++++++++++++++++#@+++++++++++++++++++++++++++++++++",
"++++++++++++++++++++++++++++++++++++++++++++++++++++++++++++++++++",
"++++++++++++++++++++++++++++++++++++++++++++++++++++++++++++++++++",
"++++++++++++++++++++++++++++++++++++++++++++++++++++++++++++++++++",
"++++++++++++++++++++++++++++++++++++++++++++++++++++++++++++++++++",
"++++++++++++++++++++++++++++++++++++++++++++++++++++++++++++++++++"};
