/* XPM */
static char * ball_red_xpm[] = {
"50 50 3 1",
"# c #00C800",
"@ c #FAF900",
"+ c None",
"++++++++++++++++++++++++++++++++++++++++++++++++++",
"++++++++++++++++++++++++++++++++++++++++++++++++++",
"++++++++++++++++++++++++++++++++++++++++++++++++++",
"++++++++++++++++++++++++++++++++++++++++++++++++++",
"+++++++++++++++++++++++++++++++++++++++@++++++++++",
"++++++++##+++++++++++++++++++++++++++@@@++++++++++",
"++++++++###+++++++++++++++++++++++++@@@@++++++++++",
"++++++++#####++++++++++++++++++++++@@@@@++++++++++",
"++++++++######+++++++++++++++++++@@@@@@@++++++++++",
"++++++++#######+++++++++++++++++@@@@@@@@++++++++++",
"++++++++#########+++++++++++++@@@@@@@@@@++++++++++",
"++++++++##########+++++++++++@@@@@@@@@@@++++++++++",
"++++++++############++++++++@@@@@@@@@@@@++++++++++",
"++++++++#############+++++@@@@@@@@@@@@@@++++++++++",
"++++++++##############+++@@@@@@@@@@@@@@@++++++++++",
"++++++++################@@@@@@@@@@@@@@@@++++++++++",
"++++++++################@@@@@@@@@@@@@@@@++++++++++",
"++++++++################@@@@@@@@@@@@@@@@++++++++++",
"++++++++################@@@@@@@@@@@@@@@@++++++++++",
"++++++++################@@@@@@@@@@@@@@@@++++++++++",
"++++++++################@@@@@@@@@@@@@@@@++++++++++",
"++++++++################@@@@@@@@@@@@@@@@++++++++++",
"++++++++################@@@@@@@@@@@@@@@@++++++++++",
"++++++++################@@@@@@@@@@@@@@@@++++++++++",
"++++++++################@@@@@@@@@@@@@@@@++++++++++",
"++++++++################@@@@@@@@@@@@@@@@++++++++++",
"++++++++################@@@@@@@@@@@@@@@@++++++++++",
"++++++++################@@@@@@@@@@@@@@@@++++++++++",
"++++++++################@@@@@@@@@@@@@@@@++++++++++",
"++++++++################@@@@@@@@@@@@@@@@++++++++++",
"++++++++################@@@@@@@@@@@@@@@@++++++++++",
"++++++++################@@@@@@@@@@@@@@@@++++++++++",
"++++++++################@@@@@@@@@@@@@@@@++++++++++",
"++++++++################@@@@@@@@@@@@@@@@++++++++++",
"+++++++++###############@@@@@@@@@@@@@@@@++++++++++",
"++++++++++##############@@@@@@@@@@@@@@@+++++++++++",
"+++++++++++#############@@@@@@@@@@@@@+++++++++++++",
"+++++++++++++###########@@@@@@@@@@@@++++++++++++++",
"++++++++++++++##########@@@@@@@@@@@+++++++++++++++",
"+++++++++++++++#########@@@@@@@@@+++++++++++++++++",
"+++++++++++++++++#######@@@@@@@@++++++++++++++++++",
"++++++++++++++++++######@@@@@@++++++++++++++++++++",
"++++++++++++++++++++####@@@@@+++++++++++++++++++++",
"+++++++++++++++++++++###@@@@++++++++++++++++++++++",
"++++++++++++++++++++++##@@++++++++++++++++++++++++",
"++++++++++++++++++++++++@+++++++++++++++++++++++++",
"++++++++++++++++++++++++++++++++++++++++++++++++++",
"++++++++++++++++++++++++++++++++++++++++++++++++++",
"++++++++++++++++++++++++++++++++++++++++++++++++++",
"++++++++++++++++++++++++++++++++++++++++++++++++++"};
