/* XPM */
static char * ball_red_xpm[] = {
"44 44 72 1",
"I c #E4A11C",
"H c #CE423B",
"G c #C92C42",
"F c #DC7C28",
"E c #C72445",
"D c #D35834",
"C c #F1D80A",
"B c #DA762A",
"A c #CC393E",
"z c #F5E406",
"y c #DB7B28",
"x c #C41948",
"w c #EBBE12",
"v c #DA772A",
"u c #EDC311",
"t c #C10D4C",
"s c #D04939",
"r c #D96F2C",
"q c #C92D42",
"p c #F6EB04",
"o c #C3134A",
"n c #CC3B3D",
"m c #F3DD08",
"l c #D25435",
"k c #ECBF12",
"j c #D15036",
"i c #F4E306",
"h c #D56131",
"g c #BE0151",
"f c #C0084E",
"e c #EEC610",
"d c #E19420",
"c c #D04B38",
"b c #F8F401",
"a c #E39C1D",
"0 c #BF0150",
"9 c #C72644",
"8 c #F5E506",
"7 c #C82943",
"6 c #BE0150",
"5 c #C10C4D",
"4 c #F5E606",
"3 c #CA3140",
"2 c #BF0151",
"1 c #DF8924",
"| c #F0D30C",
"} c #CA3041",
"[ c #C0074E",
"< c #BF0350",
": c #C41649",
"_ c #E5A21C",
"( c #F9F700",
"/ c #F1D60B",
"^ c #CA3240",
"] c #C0054F",
"{ c #BF0250",
"~ c #C10B4D",
"! c #DB7729",
") c #F9F600",
"' c #F8F202",
", c #EBBC13",
"> c #E7AA19",
"; c #F5E705",
"- c #F7EF03",
"= c #E9B515",
"* c #E5A41B",
"& c #EFCE0D",
"% c #F9F900",
"$ c #F9F800",
"# c #FAF900",
"@ c #FAF800",
"+ c None",
"++++++++++++++++++++++++++++++++++++++++++++",
"++++++++++++++++++++++++++++++++++++++++++++",
"++++++++++++++++++++++++++++++++++++++++++++",
"++++++++++++++++++++++++++++++++++++++++++++",
"++++++++++++++++++++++++++++++++++++++++++++",
"++++++++++++++++++++++++++++++++++++++++++++",
"++++++++++++++++++++++++++++++++++++++++++++",
"++++++++++++++++++@######@++++++++++++++++++",
"+++++++++++++++###$@#$$#$#%##+++++++++++++++",
"+++++++++++++##@@@##$$#$#@#@%##+++++++++++++",
"+++++++++++##$#@#%#@$#%#$#@#%####+++++++++++",
"+++++++++@#@#$@$$#@$@@@#$@$$#@$@@#@+++++++++",
"++++++++###%#%###%%###%#%###%%###%##++++++++",
"++++++++#@%$%$$&*=-$@%$%$;>,'%$@%$%#++++++++",
"+++++++$#@###)!~{]^/@##(_:<[}|@@####$+++++++",
"+++++++@$$$$$1<222234$$=562227;$$$$$#+++++++",
"++++++###@##8922260{a#bc22226{d@######++++++",
"++++++$$$@%#ef22226gh%i:222226j@%####$++++++",
"++++++###@##k{260222l#m[226022n@######++++++",
"++++++$#@#$$|o2g2620!$pq62g262r#$$#$#$++++++",
"++++++#%#$$#bs22222tu$$v22222fw$$#$###++++++",
"+++++++#@$#%#&x222<y)#%zA2222B($#%#$@+++++++",
"+++++++$$@@@#$CDEAa$@@@#pFGHI($@@@#$%+++++++",
"+++++++@###%#%###%%###%#%###%%###%##@+++++++",
"++++++++#%%$%$$%##%$@%$%$$%##%$@%$%#++++++++",
"+++++++++@###$#$@##@@###$#$@##@@##@+++++++++",
"+++++++++++#$$$###@$$$$$$$###@$$#+++++++++++",
"++++++++++++#####$@#@#######$@##++++++++++++",
"++++++++++++++$##%$$@%######%#++++++++++++++",
"+++++++++++++##$#@##@#####$#@$++++++++++++++",
"+++++++++++++##$#$#@@###$#$#$$++++++++++++++",
"+++++++++++++%@#@@###+$$#@#@@$++++++++++++++",
"+++++++++++++$#@#%#@%+##$#@#%@++++++++++++++",
"+++++++++++++#@$$#@@#++#$@$$#$++++++++++++++",
"+++++++++++++####%##+++@@###%%++++++++++++++",
"++++++++++++++#%###+++++#$%##@++++++++++++++",
"++++++++++++++#$##@++++++$$###++++++++++++++",
"++++++++++++++++++++++++++++++++++++++++++++",
"++++++++++++++++++++++++++++++++++++++++++++",
"++++++++++++++++++++++++++++++++++++++++++++",
"++++++++++++++++++++++++++++++++++++++++++++",
"++++++++++++++++++++++++++++++++++++++++++++",
"++++++++++++++++++++++++++++++++++++++++++++",
"++++++++++++++++++++++++++++++++++++++++++++"};
