/* XPM */
static char * ball_red_xpm[] = {
"44 44 5 1",
"% c #F9F900",
"$ c #FAF800",
"# c #F9F800",
"@ c #FAF900",
"+ c None",
"++++++++++++++++++++++++++++++++++++++++++++",
"++++++++++++++++++++++++++++++++++++++++++++",
"++++++++++++++++++++++++++++++++++++++++++++",
"++++++++++++++++++++++++++++++++++++++++++++",
"+++++++++++++++@#$$@@@@@@$@@@$++++++++++++++",
"+++++++++++++@$@@#$@$@@@@@@@#$@@@+++++++++++",
"++++++++++++@@@@@%##$%@@@@@@%##$@+++++++++++",
"+++++++++++@@@@#@$@@$@@@@@#@$@@$@#$+++++++++",
"++++++++++%#@#@#@#@$@##@#@#@#@$@##%+++++++++",
"+++++++++@@@#@$@$$@@##@#@$@$$@@##@@#++++++++",
"+++++++@$@@%@#@$@%@$#@%@#@$@%@$#@%@#@+++++++",
"+++++++@#$$$@#$##@#++++++@##@$#$$$@#$@++++++",
"++++++@#@@@%@%@@$+++++++++++%%@@@%@%@$@+++++",
"+++++@@%#$%#%##@+++++++++++++@#$%#%##%$+++++",
"+++++@@@$$@@@#@++++++++++++++$@$@@@#@#@+++++",
"++++@@@$#####@++++@@@@@++++++++@#####@@@++++",
"++++#@#$@$@@@++++$@@$@@+++++++++$@@@@@@@++++",
"++++@@%##$%@+++++%##$%@#++++++++@@@@@@@@++++",
"++++@@$@@$@$++++$$@@$@@#++++++++@@@@@#@@++++",
"++++@@#@$@#$++++@#@$@##@+++++++%@#@#@#@@++++",
"++++@$$@@##$++++@%@@##@%%++++++@#@#@$@@$++++",
"++++@@%@$#@$+++++@@$#@%@#++++++@@%@#@$#+++++",
"++++@#@$#$$@+++++%$#$$$@@+++++@$$$@#$$@+++++",
"++++@@%%@@@@$++++#%@@@%@@++++@@@@%@%@$++++++",
"++++%%@%#$%#$++++%%#$%#%#@%@%@#$%#%##@++++++",
"+++++@@@$$@@@@++++@$$@@@#@#$@@$$@@@#@+++++++",
"+++++@@$#####@$+++@#######@@@$######@+++++++",
"++++++#$@$@@@@@+++$$$@@@@@@@#$@$@@@@%+++++++",
"++++++%##$%@@@$@+++#$%@@@@@@%##$%@@%++++++++",
"+++++++$@$@@@@@##%$%%$@@@@#@$@@$@@$+++++++++",
"+++++++@@@##@#@#@##++$$$#@#@#@$$$+++++++++++",
"++++++++$##@#@$@$$@@+++%@@@@%@@%++++++++++++",
"+++++++++@@%@#@$@%@#++++++++++++++++++++++++",
"+++++++++++@@#$##@$@++++++++++++++++++++++++",
"+++++++++++$@%@@@%%@++++++++++++++++++++++++",
"++++++++++++@@#%@@%@++++++++++++++++++++++++",
"++++++++++++++@#@$@+++++++++++++++++++++++++",
"++++++++++++++++++++++++++++++++++++++++++++",
"++++++++++++++++++++++++++++++++++++++++++++",
"++++++++++++++++++++++++++++++++++++++++++++",
"++++++++++++++++++++++++++++++++++++++++++++",
"++++++++++++++++++++++++++++++++++++++++++++",
"++++++++++++++++++++++++++++++++++++++++++++",
"++++++++++++++++++++++++++++++++++++++++++++"};
