/* XPM */
static char * ball_red_xpm[] = {
"44 44 11 1",
"> c #E2F400",
"; c #DCF300",
"- c #DBF300",
"= c #DEF300",
"* c #F9F800",
"& c #FAF800",
"% c #F9F900",
"$ c #00C800",
"# c #00C700",
"@ c #FAF900",
"+ c None",
"++++++++++++++++++++++++++++++++++++++++++++",
"++++++++++++++++++++++++++++++++++++++++++++",
"++++++++++++++++++++++++++++++++++++++++++++",
"++++++++++++++++++++++++++++++++++@+++++++++",
"+++++++#$++++++++++++++++++++++++@@+++++++++",
"+++++++#$$+++++++++++++++++++++%@@@+++++++++",
"+++++++$$$$+++++++++++++++++++@@%@@+++++++++",
"+++++++$$#$$$++++++++++++++++@@&@@*+++++++++",
"+++++++$$$#$$$$++++++++++++@%@&@**@+++++++++",
"+++++++$$##$#$$$++++++++++@@&@@**@%+++++++++",
"+++++++$$#$$$#$$$++++++++@&@%@&*@%@+++++++++",
"+++++++$#$##$####$$++++@@&**@&*&&&@+++++++++",
"+++++++#$$$$$$$$$$$$++&@%@@@%%@@@%&+++++++++",
"+++++++$$$$#$$#$#$$$#@*%**%@@%*&%*@+++++++++",
"+++++++$$#$###$$#$$$#=@@*@*&@@&&@@@+++++++++",
"+++++++$$###$##$$$$$#-****@@@&****@+++++++++",
"+++++++#$$$$$$$$###$$;@@@@@@*&@&@@@+++++++++",
"+++++++$$$$$$$$$$$#$$;@@@@@@%**&%@@+++++++++",
"+++++++$$#$$$$$#$$$$#;@@@@*@&@@&@@*+++++++++",
"+++++++$$$#$$#$$$#$$$-*@*@*@*@&@**@+++++++++",
"+++++++$$##$#$$$#$$$#-@*@&@&&@@**@%+++++++++",
"+++++++$$#$$$#$$$$$$#;%@*@&@%@&*@%@+++++++++",
"+++++++$#$##$####$$#$;&@*&**@&*&&&@+++++++++",
"+++++++#$$$$$$$$$$$$$;%@%@@@%%@@@%&+++++++++",
"+++++++$$$$#$$#$#$$$$;*%**%@@%*&%*@+++++++++",
"+++++++$$#$###$$#$$$#;@@*@*&@@&&@@@+++++++++",
"+++++++$$###$##$$$$$#-****@@@&****@+++++++++",
"+++++++#$$$$$$$$###$$;@@@@@@*&@&@@@+++++++++",
"+++++++$$$$$$$$$$$#$$;@@@@@@%**&%@@+++++++++",
"+++++++$$#$$$$$#$$$$#;@@@@*@&@@&@@*+++++++++",
"+++++++$$$#$$#$$$#$$$-*@*@*@*@&@**@+++++++++",
"++++++++$##$#$$$#$$$#-@*@&@&&@@**@++++++++++",
"++++++++++$$$#$$$$$$#;%@*@&@%@&*@+++++++++++",
"+++++++++++$$$###$$#$;&@*&**@&@+++++++++++++",
"+++++++++++++$#$$$$$$;%@%@@@%&++++++++++++++",
"++++++++++++++$$#$$$$;*%**%*@+++++++++++++++",
"+++++++++++++++$$$$$#;@@*@%%++++++++++++++++",
"+++++++++++++++++$$$#-**@@++++++++++++++++++",
"++++++++++++++++++$$$;@&@+++++++++++++++++++",
"+++++++++++++++++++$$>@+++++++++++++++++++++",
"+++++++++++++++++++++@++++++++++++++++++++++",
"++++++++++++++++++++++++++++++++++++++++++++",
"++++++++++++++++++++++++++++++++++++++++++++",
"++++++++++++++++++++++++++++++++++++++++++++"};
