/* XPM */
static char * ball_red_xpm[] = {
"32 32 767 2",
"-r c #F8FEFC",
"-q c #F7FFFA",
"-p c #FBFFFC",
"-o c #FCFCFE",
"-n c #F3E9ED",
"-m c #97A99B",
"-l c #6B866D",
"-k c #6A866B",
"-j c #617965",
"-i c #6F7D6E",
"-h c #7C8D80",
"-g c #B2C7BB",
"-f c #E7F1EC",
"-e c #FFF8F9",
"-d c #AEB7AF",
"-c c #698776",
"-b c #4C735B",
"-a c #3A754A",
"-0 c #3F7748",
"-9 c #61795F",
"-8 c #A9A69F",
"-7 c #EDEAE8",
"-6 c #F9FBFB",
"-5 c #F2FFFF",
"-4 c #F9FFFA",
"-3 c #FEFFFA",
"-2 c #FCFFFC",
"-1 c #FDF9FE",
"-| c #DCD9DA",
"-} c #60816D",
"-[ c #457251",
"-< c #367148",
"-: c #3B7F57",
"-_ c #396A4C",
"-( c #49725A",
"-/ c #8EAE9E",
"-^ c #E5F2EC",
"-] c #FEFBF9",
"-{ c #8DA997",
"-~ c #467F60",
"-! c #357E56",
"-) c #2B854E",
"-' c #37864F",
"-, c #477453",
"-> c #7C897C",
"-; c #E3E8E4",
"-- c #F8FDFC",
"-= c #FAFFFD",
"-* c #FCFDFF",
"-& c #FAFEFC",
"-% c #FDFFFD",
"-$ c #E3F0E9",
"-# c #4B8564",
"-@ c #3C8859",
"-+ c #2C9154",
"=Z c #1F9050",
"=Y c #3E9060",
"=X c #488463",
"=W c #A6C7B7",
"=V c #F4FDFA",
"=U c #FDFDF9",
"=T c #87B398",
"=S c #358858",
"=R c #279054",
"=Q c #1B924C",
"=P c #2A9154",
"=O c #41825B",
"=N c #90AC9B",
"=M c #E2F3EC",
"=L c #F6FFFE",
"=K c #FBFFFD",
"=J c #FFF8FD",
"=I c #EDFFF9",
"=H c #4A966C",
"=G c #2D9055",
"=F c #1F964F",
"=E c #358654",
"=D c #679E7D",
"=C c #DAF4E7",
"=B c #F8FBFC",
"=A c #FFF4FB",
"=z c #FDFBF9",
"=y c #8FBB9E",
"=x c #3B8F5A",
"=w c #209750",
"=v c #2B9055",
"=u c #64A57F",
"=t c #D1ECDE",
"=s c #EFFEFA",
"=r c #FFF9FD",
"=q c #FBFDFB",
"=p c #D1EADA",
"=o c #3B8F5F",
"=n c #259450",
"=m c #1B8E44",
"=l c #2C8D4B",
"=k c #6DA87E",
"=j c #D5F1E1",
"=i c #EFFFF9",
"=h c #FAFBFF",
"=g c #FEF6FE",
"=f c #FBFDFC",
"=e c #7CA98C",
"=d c #398955",
"=c c #2A8746",
"=b c #2C8B4C",
"=a c #569E6F",
"=0 c #C9EED4",
"=9 c #F9FEFA",
"=8 c #F8FCFB",
"=7 c #FDFFFB",
"=6 c #CCDFD0",
"=5 c #3D8D5C",
"=4 c #28934E",
"=3 c #249047",
"=2 c #378E52",
"=1 c #80B18E",
"=| c #E2F9ED",
"=} c #F0FDFC",
"=[ c #F7FAFE",
"=< c #FAF6FE",
"=: c #F4FEFE",
"=_ c #639E7E",
"=( c #338E57",
"=/ c #2A8F4B",
"=^ c #348A4D",
"=] c #6A9E77",
"={ c #DDEFDD",
"=~ c #FEFBFE",
"=! c #FAFFFF",
"=) c #FCFFFB",
"=' c #FDFFFC",
"=, c #F1FFFF",
"=> c #FFFAFD",
"=; c #CCD9CD",
"=- c #3F8756",
"== c #2A8E49",
"=* c #2A9049",
"=& c #3D9059",
"=% c #749F7F",
"=$ c #DEF1E5",
"=# c #FCFAFD",
"=@ c #E5F7F2",
"=+ c #4F9572",
"*Z c #258E53",
"*Y c #20924C",
"*X c #328C50",
"*W c #699774",
"*V c #DEEBDC",
"*U c #FFFEFB",
"*T c #FFFEFC",
"*S c #F6FFFF",
"*R c #F5FFFE",
"*Q c #F9FEFD",
"*P c #FFFAFF",
"*O c #FFFBFD",
"*N c #CDD8CD",
"*M c #408656",
"*L c #2E8C49",
"*K c #298D48",
"*J c #378C57",
"*I c #739C7E",
"*H c #DFEFE1",
"*G c #DBDBD9",
"*F c #D6CED4",
"*E c #C8C1C4",
"*D c #A9BDB1",
"*C c #428C64",
"*B c #259255",
"*A c #319255",
"*z c #619973",
"*y c #DAECDF",
"*x c #FFFBFC",
"*w c #FFF9FE",
"*v c #FEFEFC",
"*u c #F8FFFB",
"*t c #F9FEFC",
"*s c #CADCCF",
"*r c #3E8959",
"*q c #2C8F4B",
"*p c #269149",
"*o c #339056",
"*n c #4F845E",
"*m c #80A186",
"*l c #657B68",
"*k c #5C705F",
"*j c #516551",
"*i c #436E4F",
"*h c #2B7E4A",
"*g c #25914F",
"*f c #249049",
"*e c #2D8C50",
"*d c #5F9E77",
"*c c #D4EEDE",
"*b c #FEFAFE",
"*a c #FFFBFB",
"*0 c #FFFAFC",
"*9 c #FEFEFA",
"*8 c #C5DED0",
"*7 c #388B58",
"*6 c #279654",
"*5 c #2C7B47",
"*4 c #2F7446",
"*3 c #357A4F",
"*2 c #347D4F",
"*1 c #3D8353",
"*| c #30854D",
"*} c #24914E",
"*[ c #20974C",
"*< c #258F45",
"*: c #308C50",
"*_ c #53906B",
"*( c #B0CCBB",
"*/ c #F8F8F9",
"*^ c #FFFDFB",
"*] c #FBFEFB",
"*{ c #F9FFFC",
"*~ c #FDFDFE",
"*! c #F0F9F4",
"*) c #AED2BD",
"*' c #328854",
"*, c #27914E",
"*> c #1C964B",
"*; c #19964D",
"*- c #269050",
"*= c #2A8F50",
"** c #2B9353",
"*& c #289553",
"*% c #23914D",
"*$ c #1C914A",
"*# c #1A994D",
"*@ c #17974B",
"*+ c #21934B",
"&Z c #2D9153",
"&Y c #327B4E",
"&X c #588666",
"&W c #CAD9CB",
"&V c #F7F7F5",
"&U c #F9FEFF",
"&T c #FAFEFD",
"&S c #F9FDFC",
"&R c #FFFAFB",
"&Q c #CDD8CC",
"&P c #719E80",
"&O c #2F8250",
"&N c #2C9052",
"&M c #1D914C",
"&L c #1B954F",
"&K c #20924E",
"&J c #25904D",
"&I c #298F4D",
"&H c #278F4C",
"&G c #23924C",
"&F c #1E944C",
"&E c #1A974E",
"&D c #17944D",
"&C c #18924D",
"&B c #1D8C4B",
"&A c #2F8D52",
"&z c #34804D",
"&y c #7AA381",
"&x c #BCC6B6",
"&w c #EDE7E8",
"&v c #F5FEFF",
"&u c #F4FFFF",
"&t c #F4F7F5",
"&s c #FEF8F7",
"&r c #F7F6F2",
"&q c #88A48E",
"&p c #418058",
"&o c #2D8A50",
"&n c #2B914F",
"&m c #208F4B",
"&l c #1E9351",
"&k c #21924F",
"&j c #25914D",
"&i c #26904B",
"&h c #259149",
"&g c #229348",
"&f c #1E9347",
"&e c #1D9347",
"&d c #24974E",
"&c c #27954E",
"&b c #25904E",
"&a c #2B9455",
"&0 c #2D8F52",
"&9 c #327A49",
"&8 c #497251",
"&7 c #828F83",
"&6 c #CFD5D4",
"&5 c #E4F0F0",
"&4 c #F5FEFE",
"&3 c #F9F9FA",
"&2 c #FEF8FA",
"&1 c #D8E2D9",
"&| c #5E8E6F",
"&} c #398B5A",
"&[ c #268F4D",
"&< c #238C45",
"&: c #27924C",
"&_ c #209250",
"&( c #22914E",
"&/ c #24914A",
"&^ c #229347",
"&] c #209446",
"&{ c #1F9343",
"&~ c #289449",
"&! c #2A8F47",
"&) c #2E8D47",
"&' c #2F8F50",
"&, c #228D50",
"&> c #1F904E",
"&; c #2A8D4F",
"&- c #398050",
"&= c #507359",
"&* c #7C8F82",
"&& c #B3C1BE",
"&% c #E7F1F0",
"&$ c #FEF9FD",
"&# c #FDFDFC",
"&@ c #C5DCCC",
"&+ c #3F855B",
"%Z c #238C4F",
"%Y c #22994F",
"%X c #288F46",
"%W c #24914D",
"%V c #24914C",
"%U c #23924B",
"%T c #219349",
"%S c #1F9448",
"%R c #1E9446",
"%Q c #249448",
"%P c #2A8B46",
"%O c #36884A",
"%N c #458C54",
"%M c #3E8957",
"%L c #26874F",
"%K c #219652",
"%J c #1B954C",
"%I c #2B8F4F",
"%H c #437B53",
"%G c #2B4831",
"%F c #5B6961",
"%E c #B8BFBE",
"%D c #FEFFFF",
"%C c #FCFEFB",
"%B c #B6D4C0",
"%A c #37885A",
"%z c #219553",
"%y c #179445",
"%x c #249343",
"%w c #298F44",
"%v c #279049",
"%u c #259248",
"%t c #239248",
"%s c #1F9449",
"%r c #1E9549",
"%q c #1F934B",
"%p c #299451",
"%o c #358C55",
"%n c #77BA8C",
"%m c #B9DFC5",
"%l c #AADCBB",
"%k c #499B69",
"%j c #20904D",
"%i c #149548",
"%h c #24914B",
"%g c #2B693B",
"%f c #061C08",
"%e c #262F28",
"%d c #BFC5C3",
"%c c #FBFBFE",
"%b c #FDFBFE",
"%a c #FBFCFD",
"%0 c #FEFBFD",
"%9 c #E9ECE7",
"%8 c #8DAD98",
"%7 c #358659",
"%6 c #1E9251",
"%5 c #1B994A",
"%4 c #219241",
"%3 c #2A9143",
"%2 c #289145",
"%1 c #259245",
"%| c #239346",
"%} c #20954A",
"%[ c #1F964E",
"%< c #229353",
"%: c #288C56",
"%_ c #6CB390",
"%( c #D2FCEC",
"%/ c #E6FDF5",
"%^ c #E7FDF1",
"%] c #AFE5C1",
"%{ c #369659",
"%~ c #1F954B",
"%! c #278E4A",
"%) c #164B23",
"%' c #000E00",
"%, c #383F38",
"%> c #D5DAD9",
"%; c #F8FCFD",
"%- c #F8FBFD",
"%= c #FDFCFE",
"%* c #FEFBFC",
"%& c #C7C7C4",
"%% c #57715F",
"%$ c #347C52",
"%# c #269152",
"%@ c #1C944A",
"%+ c #249445",
"$Z c #2C9545",
"$Y c #279242",
"$X c #259244",
"$W c #1F9349",
"$V c #1F944D",
"$U c #249356",
"$T c #278554",
"$S c #85C1A8",
"$R c #E0FFF9",
"$Q c #859993",
"$P c #7F9684",
"$O c #C4EED1",
"$N c #43995E",
"$M c #2D9552",
"$L c #358D51",
"$K c #0E3918",
"$J c #222E21",
"$I c #A7ACA7",
"$H c #F4F8F7",
"$G c #F1F8F9",
"$F c #F7FCFD",
"$E c #FCFCFD",
"$D c #F9FDFE",
"$C c #E2E2E4",
"$B c #7B7878",
"$A c #181F17",
"$z c #265939",
"$y c #378D5A",
"$x c #218E4B",
"$w c #228F46",
"$v c #259146",
"$u c #249345",
"$t c #229245",
"$s c #229246",
"$r c #1F9348",
"$q c #20924B",
"$p c #2C8853",
"$o c #67A782",
"$n c #D3F5E2",
"$m c #92A395",
"$l c #86A389",
"$k c #A3D6B1",
"$j c #3B8E56",
"$i c #2A8348",
"$h c #498D5E",
"$g c #77947C",
"$f c #DDE4DD",
"$e c #FCFBFD",
"$d c #F9FBFD",
"$c c #F9FCFC",
"$b c #F8FDFD",
"$a c #F7FFFE",
"$0 c #CCCFD0",
"$9 c #5C5658",
"$8 c #0F0E0B",
"$7 c #112C19",
"$6 c #32754C",
"$5 c #298B4F",
"$4 c #299450",
"$3 c #23934A",
"$2 c #239349",
"$1 c #229249",
"$| c #229248",
"$} c #239449",
"$[ c #249449",
"$< c #269049",
"$: c #328D4D",
"$_ c #41814D",
"$( c #84AD84",
"$/ c #C5DABC",
"$^ c #ABD6AF",
"$] c #49945F",
"${ c #338B51",
"$~ c #398A55",
"$! c #659B76",
"$) c #DDEDE1",
"$' c #F8F5F8",
"$, c #FEFCFE",
"$> c #FCFDFE",
"$; c #FDFDFA",
"$- c #FCF9FB",
"$= c #FAFEFE",
"$* c #E2EDEA",
"$& c #A0A7A7",
"$% c #ECE4E6",
"$$ c #B5ADAC",
"$# c #4B584D",
"$@ c #92BDA2",
"$+ c #489968",
"#Z c #29884D",
"#Y c #289052",
"#X c #259050",
"#W c #25904F",
"#V c #28914E",
"#U c #2C934C",
"#T c #2E944B",
"#S c #309048",
"#R c #388741",
"#Q c #5F9052",
"#P c #6A864F",
"#O c #5C7642",
"#N c #407A43",
"#M c #2C8A4E",
"#L c #288A4F",
"#K c #68B185",
"#J c #CCF0DB",
"#I c #FEFBFF",
"#H c #FCF9FE",
"#G c #FCFBFE",
"#F c #FEFCFB",
"#E c #FEFCF8",
"#D c #FEFDFE",
"#C c #FCFDFD",
"#B c #DDE4E2",
"#A c #ADB1B0",
"#z c #FEFCFD",
"#y c #C1C5C0",
"#x c #F1FFF7",
"#w c #B8D9C6",
"#v c #79A489",
"#u c #5C9271",
"#t c #478A61",
"#s c #4B9069",
"#r c #64A37B",
"#q c #83B890",
"#p c #8FC19C",
"#o c #87B891",
"#n c #859169",
"#m c #A97853",
"#l c #C5835F",
"#k c #8B875C",
"#j c #4B7D48",
"#i c #2F8F52",
"#h c #279055",
"#g c #89C1A4",
"#f c #F3FDFB",
"#e c #FDF6FD",
"#d c #FDFCFF",
"#c c #FBFEFF",
"#b c #FEFCFF",
"#a c #FEFDF8",
"#0 c #F6F6F6",
"#9 c #BEBEBE",
"#8 c #C9C9C9",
"#7 c #CECECE",
"#6 c #F5F5F5",
"#5 c #EDF7EE",
"#4 c #D0E9D7",
"#3 c #DAF5E8",
"#2 c #EEFEF4",
"#1 c #FBFFF6",
"#| c #FAFDF7",
"#} c #F4FBF6",
"#[ c #DEB4A7",
"#< c #E86C5B",
"#: c #F06653",
"#_ c #A18664",
"#( c #6E8455",
"#/ c #4C7E48",
"#^ c #4C8254",
"#] c #AABBA8",
"#{ c #F0E4E6",
"#~ c #FEF9FF",
"#! c #FEFDFC",
"#) c #FAFFFA",
"#' c #F7F7F7",
"#, c #B1B1B1",
"#> c #292929",
"#; c #333333",
"#- c #9C9C9C",
"#= c #F9FCF7",
"#* c #F5FFF6",
"#& c #F1FEF9",
"#% c #F4FCF5",
"#$ c #FCFCF4",
"## c #FEFEF9",
"#@ c #F7FDF9",
"#+ c #D3ADA0",
"@Z c #E3705E",
"@Y c #EC6E58",
"@X c #C6AE8C",
"@W c #AAA579",
"@V c #968258",
"@U c #937558",
"@T c #9A7A6C",
"@S c #CAB9B2",
"@R c #F8FFFE",
"@Q c #F3FFFD",
"@P c #A8A8A8",
"@O c #191919",
"@N c #1B1B1B",
"@M c #BCBCBC",
"@L c #FEFDFA",
"@K c #FEFDF9",
"@J c #FEFDFB",
"@I c #FFFCF8",
"@H c #FEFBFA",
"@G c #F8FDFA",
"@F c #D4B4A6",
"@E c #DD7964",
"@D c #DF725A",
"@C c #D3C0A0",
"@B c #DDC79E",
"@A c #CB7B5C",
"@z c #E37368",
"@y c #A85B54",
"@x c #CCBAAC",
"@w c #F3FFF9",
"@v c #FEFDFF",
"@u c #F5FFFF",
"@t c #C5C5C5",
"@s c #737373",
"@r c #5D5D5D",
"@q c #CFCFCF",
"@p c #FEFCFC",
"@o c #FFFCFC",
"@n c #FFFAFA",
"@m c #FEFAFC",
"@l c #F9FCFB",
"@k c #DDBFB4",
"@j c #D37A64",
"@i c #D57159",
"@h c #DBC7AC",
"@g c #FBF2CE",
"@f c #D3846A",
"@e c #DF6862",
"@d c #C1736D",
"@c c #DED0C2",
"@b c #EFFFF7",
"@a c #DFDFDF",
"@0 c #FEFEFE",
"@9 c #FDFBFC",
"@8 c #FEF8FC",
"@7 c #FDFCFC",
"@6 c #E7CCC3",
"@5 c #C37763",
"@4 c #CE7360",
"@3 c #DFC8B6",
"@2 c #FFFFE6",
"@1 c #E6BFAB",
"@| c #DB908D",
"@} c #DDAAA7",
"@[ c #F4ECE4",
"@< c #F0FFF6",
"@: c #FFF8FF",
"@_ c #FFFCFE",
"@( c #FFFDFE",
"@/ c #E2E2E2",
"@^ c #E1E1E1",
"@] c #E0E0E0",
"@{ c #FDFFFF",
"@~ c #FFFEFE",
"@! c #FBFAFE",
"@) c #FAEDE7",
"@' c #C4806F",
"@, c #C67364",
"@> c #D7BEB5",
"@; c #FCFEF3",
"@- c #F8F5EA",
"@= c #F6E0DF",
"@* c #FCEAEC",
"@& c #FEFBFB",
"@% c #F9FFFD",
"@$ c #FFFCFF",
"@# c #FFFBFE",
"@@ c #FDFEFD",
"@+ c #FAFFFB",
"+Z c #F0F0F0",
"+Y c #878787",
"+X c #484848",
"+W c #D2D2D2",
"+V c #F9FFFF",
"+U c #FBFFFF",
"+T c #FCFEFF",
"+S c #FFFDFF",
"+R c #FFFAF5",
"+Q c #C49182",
"+P c #A9665B",
"+O c #D1BABB",
"+N c #F5F9F9",
"+M c #F2FEFF",
"+L c #F8FEFF",
"+K c #F8FFFF",
"+J c #F7FFFD",
"+I c #F4FFFA",
"+H c #EDFFFA",
"+G c #A7A7A7",
"+F c #282828",
"+E c #FCFFFE",
"+D c #FAFFFE",
"+C c #FEFEFF",
"+B c #FBFEFE",
"+A c #FCFEFE",
"+z c #FFFEFF",
"+y c #F9FCFF",
"+x c #FEFDF7",
"+w c #E7CEBE",
"+v c #C39287",
"+u c #DACBCF",
"+t c #FAFEFF",
"+s c #F1FEFF",
"+r c #FDFBFF",
"+q c #F7FFFF",
"+p c #F5FFFD",
"+o c #F8FFFC",
"+n c #F4FFFC",
"+m c #EDFFFC",
"+l c #FBFBFB",
"+k c #E8E8E8",
"+j c #4C4C4C",
"+i c #CDCDCD",
"+h c #FEFFFE",
"+g c #FEFEFD",
"+f c #FFFBFF",
"+e c #FDFEFF",
"+d c #F8FFF9",
"+c c #FDFBE9",
"+b c #FFF6EA",
"+a c #FBFAFF",
"+0 c #F5FCFF",
"+9 c #F9FFFE",
"+8 c #FDFEFE",
"+7 c #FFF7FC",
"+6 c #FFF8FB",
"+5 c #F8FFFD",
"+4 c #FBFEFD",
"+3 c #FDFDFF",
"+2 c #FAFDFF",
"+1 c #FAFAFA",
"+| c #F9F9F9",
"+} c #FCFCFC",
"+[ c #FDFDFD",
"+< c #D1D1D1",
"+: c #F1F1F1",
"+_ c #FFFFFF",
"+( c #FFFEFD",
"+/ c #FFFDFC",
"+^ c #FEFDFD",
"+] c #FCFFFD",
"+{ c #FCFFFF",
"+~ c #F4FEFF",
"+! c #F3FFFB",
"+) c #FBFEEC",
"+' c #FFF8EB",
"+, c #F7FEFF",
"+> c #F3FEFF",
"+; c #FCFEFD",
"+- c #FFFCFB",
"+= c #FFF9FA",
"+* c #FFFDFA",
"+& c #F8FEF8",
"+% c #F9FFFB",
"+$ c #FFFCFD",
"+# c #FFF8FE",
"+@ c #FFF7FF",
"++ c #FFF9FF",
"+++@+#+$+%+&+*+=+-+;+>+,+'+)+!+~+{+]+^+++/+(+_+_+_+_+:+<+[+}+|+1",
"+2+3+^+4+5+;+6+7+8+9+0+a+b+c+d+,+e+]+[+f+g+h+_+_+_+_+i+j+k+}+|+l",
"+m+n+o+p+q+r+++f+~+s+t+u+v+w+x+y+z+A+B+C+D+E+_+_+_+_+i+F+G+[+|+l",
"+H+I+%+J+K+r+@+++L+M+N+O+P+Q+R+3+S+T+U+{+V+{+_+_+_+_+W+X+Y+Z+}+1",
"@+@@@#@$+E@%@&@*@=@-@;@>@,@'@)@!@$@~+e+C+{@{+_+_+_+_@]@]@^@/+[+[",
"@(@_++@:+;@<@[@}@|@1@2@3@4@5@6@7@8+$@_@$@9+[+l@0+[@0@a@]@^@]+[+[",
"+e+3++@:+4@b@c@d@e@f@g@h@i@j@k@l@m@n@o+S@p@p@0+[+[+|@q@r@s@t+[+}",
"@u+K@v+f+9@w@x@y@z@A@B@C@D@E@F@G@H@I@J+e@K@L@0+[+1+l@M@N@O@P+}+1",
"@Q@R@{+U+K+;@S@T@U@V@W@X@Y@Z#+#@###$#%#&#*#=+1+[+}+}#-#;#>#,#'+}",
"#)#!+3+K+t#~#{#]#^#/#(#_#:#<#[#}#|#1#2#3#4#5+[+[+_#6#7#8+G#9#0+}",
"#a@&#b#c#d#e#f#g#h#i#j#k#l#m#n#o#p#q#r#s#t#u#v#w#x#y@H#z#A#B#C#D",
"#E#F#G#H#I@l#J#K#L#M#N#O#P#Q#R#S#T#U#V#W#X#Y#Z$+$@$#$$$%$&$*$=$-",
"$;#C$>$,$'$)$!$~${$]$^$/$($_$:$<$[$}$|$1$2$3$4$5$6$7$8$9$0$a$b+^",
"$c$=$d$e$f$g$h$i$j$k$l$m$n$o$p#X$q$r$s$t$u$v$w$x$y$z$A$B$C$D+A$E",
"$F$G$H$I$J$K$L$M$N$O$P$Q$R$S$T$U$V$W$t$X$Y$Z%+%@%#%$%%%&%*%=#c+T",
"%-%;%>%,%'%)%!%~%{%]%^%/%(%_%:%<%[%}%|%1%2%3%4%5%6%7%8%9@m%0%a+{",
"%b%c%d%e%f%g%h%i%j%k%l%m%n%o%p%q%r%s%t%u%v%w%x%y%z%A%B%C@$+S%D%D",
"+##G%E%F%G%H%I%J%K%L%M%N%O%P%Q%R%S%T%U%V%W%X%1%Y%Z&+&@&#@$+z+_%D",
"&$$,&%&&&*&=&-&;&>&,&'&)&!&~&{&]&^&/%W&(&_&:&<&[&}&|&1+$@v+e+C+S",
"&2&3&4&5&6&7&8&9&0&a&b&c&d&e&f&g&h&i&j&k&l&m&n&o&p&q&r@#+C+U+e@$",
"&s&t&u&v%b&w&x&y&z&A&B&C&D&E&F&G&H&I&J&K&L&M&N&O&P&Q&R@#@{+V+A@#",
"&S&T+V&U+e%0&V&W&X&Y&Z*+*@*#*$*%*&***=*-*;*>*,*'*)*!*~+S+g*{*]*^",
"&U+e+/+/+{+e@$*/*(*_*:*<*[*}*|*1*2*3*4*5*6%s&:*7*8+9+T+C+/@+#)*9",
"@v+f*0*a+C+C*b+[*c*d*e*f*g*h*i*j*k*l*m*n*o*p*q*r*s+8+S+S@_*t*u*v",
"+C#b*0+-+z@$*w*x*y*z*A$V*B*C*D*E*F*G*H*I*J*K*L*M*N*O*P*P@#*Q*R+U",
"*S+t*T*U+C#b*P*0*V*W*X*Y*Z=+=@=#%b$==$=%=&=*===-=;=>*P*P+f+t*S+{",
"=,+q='=)=!+T=~#F={=]=^=/=(=_=:=<=[=}=|=1=2=3=4=5=6+^+f*P*P#c&U+C",
"+q+T*v=7@R+K=8=9=0=a=b=c=d=e=f=g=h=i=j=k=l=m=n=o=p=q+S@$+f#c+t@$",
"*P@:=r+-@%*R=s=t=u=v=w*,=x=y=z=A=B=C=D=E=F$V=G=H=I+D$>@0+$+4+T+f",
"@:@:=J+-=K=L=M=N=O=P=Q=R=S=T=U*0=V=W=X=Y=Z-+-@-#-$$>+U-%*^-&#c+f",
"-*#b*O*^-=---;->-,-'-)-!-~-{-]&R-^-/-(-_-:-<-[-}-|-1+e-2-3-4&T@$",
"-5+K-%=7@%-6-7-8-9-0-a-b-c-d-e+6-f-g-h-i-j-k-l-m-n*P-o-p-3-q-r@$"};
