/* XPM */
static char * ball_red_xpm[] = {
"24 24 453 2",
"&= c #F5FFFB",
"&* c #FEFFFA",
"&& c #F4EAEF",
"&% c #84998A",
"&$ c #5E7B5F",
"&# c #5A7760",
"&@ c #657666",
"&+ c #8BA194",
"%Z c #DEEAE3",
"%Y c #FFF7FA",
"%X c #DEDEDA",
"%W c #6A8977",
"%V c #457055",
"%U c #337743",
"%T c #567456",
"%S c #ABA8A2",
"%R c #FBFCFB",
"%Q c #FEFFFC",
"%P c #FCFFFE",
"%O c #F3FFFF",
"%N c #FCFCFE",
"%M c #E4E7E5",
"%L c #4B7C60",
"%K c #418658",
"%J c #2C8D56",
"%I c #3E815B",
"%H c #5D8B73",
"%G c #E7F6EF",
"%F c #FFFAFB",
"%E c #D2E1D6",
"%D c #3E855D",
"%C c #2F8F5A",
"%B c #289452",
"%A c #448159",
"%z c #899D8F",
"%y c #F6FFFD",
"%x c #FAFFFD",
"%w c #FBFEFE",
"%v c #F0FFFA",
"%u c #459468",
"%t c #248D4D",
"%s c #1D964E",
"%r c #378655",
"%q c #98C3AB",
"%p c #FFF5FB",
"%o c #D8E9DA",
"%n c #3C8C5A",
"%m c #24914D",
"%l c #1F9450",
"%k c #51976E",
"%j c #D1EADE",
"%i c #F2FFFD",
"%h c #F9FFFD",
"%g c #FFF8FE",
"%f c #D9EDE0",
"%e c #378F5C",
"%d c #20944B",
"%c c #2C8E4B",
"%b c #86BA95",
"%a c #EBFFF7",
"%0 c #F9FCFF",
"%9 c #FEF7FE",
"%8 c #C8DCCF",
"%7 c #3A8855",
"%6 c #2B8947",
"%5 c #348951",
"%4 c #C2E8CD",
"%3 c #FAFDFA",
"%2 c #F8FEFD",
"%1 c #FDFFFB",
"%| c #F7FFFF",
"%} c #D9E4D9",
"%[ c #3B8B56",
"%< c #259147",
"%: c #368E53",
"%_ c #88B394",
"%( c #F1FFFB",
"%/ c #F8FCFE",
"%^ c #FBFBFF",
"%] c #A8CFC0",
"%{ c #2D8E58",
"%~ c #25904B",
"%! c #438555",
"%) c #D2E3D0",
"%' c #FFFBFD",
"%, c #FEFFFB",
"%> c #F2FFFF",
"%; c #F5FFFE",
"%- c #DAE1D8",
"%= c #3E8755",
"%* c #298D45",
"%& c #348C54",
"%% c #86AB8F",
"%$ c #EBF0EA",
"%# c #E1DADF",
"%@ c #D1CDCF",
"%+ c #7DAA92",
"$Z c #20944D",
"$Y c #3C8957",
"$X c #CCE3D2",
"$W c #FFFAFC",
"$V c #FFFCFB",
"$U c #FEFEFC",
"$T c #F6FFFB",
"$S c #FFFDFD",
"$R c #D6E5DB",
"$Q c #3B8B58",
"$P c #279147",
"$O c #2F9154",
"$N c #528761",
"$M c #69886F",
"$L c #566F5A",
"$K c #4C674E",
"$J c #337549",
"$I c #26914F",
"$H c #258F4A",
"$G c #378956",
"$F c #C6E5D2",
"$E c #FFFBFB",
"$D c #FEFDFF",
"$C c #FFFEFA",
"$B c #F8FFFA",
"$A c #FFFEFC",
"$z c #CDE6D9",
"$y c #338D57",
"$x c #1F9348",
"$w c #1C964F",
"$v c #28864B",
"$u c #2C874F",
"$t c #2A8D52",
"$s c #2F9253",
"$r c #1E924B",
"$q c #1B9A4C",
"$p c #259047",
"$o c #338351",
"$n c #789D85",
"$m c #EEF0EE",
"$l c #FEFCFE",
"$k c #FDFEFD",
"$j c #FDFEFE",
"$i c #FAFFFE",
"$h c #F5F4F1",
"$g c #82AA8F",
"$f c #2E8550",
"$e c #25924E",
"$d c #1B954F",
"$c c #22924E",
"$b c #278F4D",
"$a c #288F4D",
"$0 c #22924C",
"$9 c #1C964E",
"$8 c #18954E",
"$7 c #1B944F",
"$6 c #298E50",
"$5 c #35814F",
"$4 c #8FB193",
"$3 c #E1DEDA",
"$2 c #FEFBFE",
"$1 c #F4FBFB",
"$| c #FDF9F7",
"$} c #FFFBFE",
"$[ c #C4CFC3",
"$< c #44825B",
"$: c #2D8D51",
"$_ c #268F4B",
"$( c #1E9351",
"$/ c #21924F",
"$^ c #26904C",
"$] c #259149",
"${ c #1D9245",
"$~ c #23954B",
"$! c #27934C",
"$) c #299253",
"$' c #288E4F",
"$, c #347B4A",
"$> c #59745D",
"$; c #BAC2BE",
"$- c #E3EFEF",
"$= c #F8FDFD",
"$* c #FEF8FA",
"$& c #85AA92",
"$% c #2F8B54",
"$$ c #23934D",
"$# c #278E44",
"$@ c #23914E",
"$+ c #23914D",
"#Z c #23924B",
"#Y c #1D9344",
"#X c #279448",
"#W c #2E8B45",
"#V c #358748",
"#U c #2A8850",
"#T c #229754",
"#S c #24924F",
"#R c #428457",
"#Q c #506A56",
"#P c #929F9A",
"#O c #EEF1F3",
"#N c #FBFEFB",
"#M c #6AA180",
"#L c #249354",
"#K c #1A9647",
"#J c #299142",
"#I c #279049",
"#H c #259249",
"#G c #219349",
"#F c #1E9549",
"#E c #22954D",
"#D c #288B4C",
"#C c #61A877",
"#B c #A4CFB0",
"#A c #6EB287",
"#z c #1F8D4C",
"#y c #159548",
"#x c #338A4E",
"#w c #0C280F",
"#v c #3B453E",
"#u c #EEF2F2",
"#t c #FEF9FB",
"#s c #DEE3DD",
"#r c #558C6B",
"#q c #219152",
"#p c #1B9849",
"#o c #279041",
"#n c #289144",
"#m c #249245",
"#l c #219448",
"#k c #1F964D",
"#j c #239254",
"#i c #388E62",
"#h c #D2FCED",
"#g c #E4FBF3",
"#f c #E1FFEB",
"#e c #45A065",
"#d c #21954C",
"#c c #25773D",
"#b c #000F00",
"#a c #575D57",
"#0 c #F7FCFD",
"#9 c #F7FBFD",
"#8 c #FCFDFE",
"#7 c #FAFEFE",
"#6 c #F6F4F6",
"#5 c #989895",
"#4 c #1F442B",
"#3 c #339059",
"#2 c #1F924A",
"#1 c #289245",
"#| c #269343",
"#} c #239244",
"#[ c #209246",
"#< c #1F934B",
"#: c #279156",
"#_ c #3E8E65",
"#( c #DCFDF2",
"#/ c #4A5C53",
"#^ c #AECAB3",
"#] c #4D9D66",
"#{ c #2B8B4C",
"#~ c #3C764B",
"#! c #717C6F",
"#) c #EAECEB",
"#' c #F7FCFC",
"#, c #F8FEFE",
"#> c #D9DCDD",
"#; c #4A4546",
"#- c #040F05",
"#= c #33744C",
"#* c #2A8E51",
"#& c #25924B",
"#% c #239349",
"#$ c #229248",
"## c #229348",
"#@ c #239449",
"#+ c #28904B",
"@Z c #338149",
"@Y c #87B38B",
"@X c #CDE3C6",
"@W c #87C194",
"@V c #368C53",
"@U c #388754",
"@T c #98BDA2",
"@S c #FDFBFE",
"@R c #FBFDFE",
"@Q c #FCFDFB",
"@P c #F4FDFA",
"@O c #A8B0AF",
"@N c #F1EAEC",
"@M c #767470",
"@L c #A8CBB6",
"@K c #4A9969",
"@J c #2B8B51",
"@I c #278F51",
"@H c #278F50",
"@G c #2C914E",
"@F c #31934D",
"@E c #338D47",
"@D c #528C4B",
"@C c #748B54",
"@B c #5E7844",
"@A c #34844A",
"@z c #298C50",
"@y c #80C19B",
"@x c #EFFDF6",
"@w c #FEFBFF",
"@v c #FBF9FE",
"@u c #FDFBF7",
"@t c #FEFDFE",
"@s c #EFF0F0",
"@r c #C1C2C2",
"@q c #DCDCDB",
"@p c #E9F3EE",
"@o c #BECEC3",
"@n c #8CB399",
"@m c #98C5AD",
"@l c #C6DFCB",
"@k c #D9EBDB",
"@j c #D0E1D1",
"@i c #C17D67",
"@h c #E96F59",
"@g c #8C805A",
"@f c #428048",
"@e c #318D55",
"@d c #AFD1BD",
"@c c #FFF4FC",
"@b c #FCFDFF",
"@a c #FFFAFE",
"@0 c #FEFFF9",
"@9 c #E7E7E7",
"@8 c #525252",
"@7 c #DADADA",
"@6 c #FAFBF9",
"@5 c #F5FFF5",
"@4 c #F1FEF9",
"@3 c #F8FCF4",
"@2 c #FEFEF9",
"@1 c #F8FCF6",
"@| c #CD7E6D",
"@} c #EE6A56",
"@[ c #C7B491",
"@< c #8D8757",
"@: c #897555",
"@_ c #A78D80",
"@( c #EAE2E0",
"@/ c #FBFFFF",
"@^ c #F4FFFD",
"@] c #F9F9F9",
"@{ c #E9E9E9",
"@~ c #272727",
"@! c #292929",
"@) c #FEFDFC",
"@' c #FEFCF8",
"@, c #FDFEFF",
"@> c #FFFCF8",
"@; c #FEFAF9",
"@- c #F9FBF7",
"@= c #CA8775",
"@* c #E07059",
"@& c #DFD0B1",
"@% c #C9976E",
"@$ c #E57367",
"@# c #A96159",
"@@ c #ECF3E6",
"@+ c #FCFEFF",
"+Z c #F6FFFF",
"+Y c #B5B5B5",
"+X c #A6A6A6",
"+W c #FDFCFD",
"+V c #FDFBFC",
"+U c #FFFCFC",
"+T c #FEF9FC",
"+S c #FDFCFB",
"+R c #CA9282",
"+Q c #D5735D",
"+P c #E9D9C2",
"+O c #EED7B6",
"+N c #D7736D",
"+M c #CA8C86",
"+L c #F3FFF3",
"+K c #FAFEFD",
"+J c #D3D3D3",
"+I c #D0D0D0",
"+H c #FCFFFF",
"+G c #FEFEFE",
"+F c #FDFAFD",
"+E c #D6AEA0",
"+D c #CD7767",
"+C c #E0CDC3",
"+B c #FAFBEC",
"+A c #F3D9D6",
"+z c #FBE8EA",
"+y c #FAFEFC",
"+x c #FBFFFE",
"+w c #FFFBFF",
"+v c #FFFCFE",
"+u c #FBFFFC",
"+t c #9E9E9E",
"+s c #4E4E4E",
"+r c #F9FFFF",
"+q c #FAFFFF",
"+p c #FFFDFF",
"+o c #FDFDFF",
"+n c #E6CFC4",
"+m c #AB6A5E",
"+l c #DBC9CB",
"+k c #F3FEFD",
"+j c #F5FEFF",
"+i c #FEF8FF",
"+h c #F7FFFD",
"+g c #F8FFFB",
"+f c #EDFFFA",
"+e c #FAFAFA",
"+d c #FDFDFD",
"+c c #D6D6D6",
"+b c #3B3B3B",
"+a c #FEFFFF",
"+0 c #FDFFFE",
"+9 c #FFFCFF",
"+8 c #FBFFFD",
"+7 c #FEFEFF",
"+6 c #F9FDFF",
"+5 c #FDFEF0",
"+4 c #EAD0C3",
"+3 c #F0EBF0",
"+2 c #F6FEFF",
"+1 c #F8FFFF",
"+| c #FFF9FE",
"+} c #FFF9FD",
"+[ c #F8FFFD",
"+< c #FCFFFD",
"+: c #F3FFFE",
"+_ c #FBFBFB",
"+( c #F7F7F7",
"+/ c #FCFCFC",
"+^ c #BDBDBD",
"+] c #FFFFFF",
"+{ c #FFFEFF",
"+~ c #FFFDFC",
"+! c #FFFAFF",
"+) c #FDFFFD",
"+' c #FDFFFF",
"+, c #F4FEFF",
"+> c #F7FEF3",
"+; c #FFF9EB",
"+- c #F7FEFF",
"+= c #F8FFFE",
"+* c #FFFDFB",
"+& c #FFF9FA",
"+% c #FCFEF9",
"+$ c #F9FFFB",
"+# c #FFFCFD",
"+@ c #FFF7FF",
"++ c #FFF9FF",
"+++@+#+$+%+&+*+=+-+;+>+,+'+)+!+~+{+]+]+]+^+/+(+_",
"+:+<+[+=+}+|+1+2+3+4+5+6+7+8+9+0+a+]+]+]+b+c+d+e",
"+f+g+h+1+i+++j+k+l+m+n+o+p+q+'+r+a+]+]+]+s+t+d+/",
"+u+v+w+x+y+z+A+B+C+D+E+F+9+G+7+H+a+]+]+]+I+J+d+/",
"+p+w+@+K+L+M+N+O+P+Q+R+S+T+U+9+V+W+G+d+_+X+Y+G+G",
"+Z@++w+[@@@#@$@%@&@*@=@-@;@>@,@'@)+/+e+_@!@~@{@]",
"@^+H@/+r@(@_@:@<@[@}@|@1@2@3@4@5@6+/+/@7@8+b@9+e",
"@0@a+r@b@c@d@e@f@g@h@i@j@k@l@m@n@o@p+u@q+e@r@s@t",
"@u+7@v@w@x@y@z@A@B@C@D@E@F@G@H@I@J@K@L@M@N@O@P+V",
"@Q@R@S@]@T@U@V@W@X@Y@Z#+#@###$#%#&#*#=#-#;#>#,+W",
"#,#'#)#!#~#{#]#^#/#(#_#:#<#[#}#|#1#2#3#4#5#6#7#8",
"#9#0#a#b#c#d#e#f#g#h#i#j#k#l#m#n#o#p#q#r#s#t#8+H",
"@S#u#v#w#x#y#z#A#B#C#D#E#F#G#H#I#J#K#L#M#N+9+7+a",
"+|#O#P#Q#R#S#T#U#V#W#X#Y#l#Z$+$@$#$$$%$&@)+p+a+{",
"$*$=$-$;$>$,$'$)$!$~${#l$]$^$/$($_$:$<$[$}+7+H+p",
"$|$1+j$2$3$4$5$6$7$8$9$0$a$b$c$d$e$f$g$h$}+H$i+v",
"+1$j$k+H$l$m$n$o$p$q$r$s$t$u$v$w$x$y$z$i+7$A$B$C",
"$D@a$E+7+9+W$F$G$H$I$J$K$L$M$N$O$P$Q$R+7+p$S$T$U",
"@,$}$V+{+w$W$X$Y$Z#:%+%@%#%$%%%&%*%=%-+!+!+v%;@/",
"%>+x%,+H@w%'%)%!%~%{%]%^%/%(%_%:%<%[%}+w+!+w%|@,",
"%|$j%1+=%2%3%4%5%6%7%8%9%0%a%b%c%d%e%f@t+9+w+r+p",
"++%g+U%h%i%j%k%l%m%n%o%p#'%q%r%s%t%u%v%w+G+#$i+w",
"+w+|+U%x%y%z%A%B%C%D%E%F%G%H%I%J%K%L%M%N+<$C+[+9",
"%O%P%Q%h%R%S%T%U%V%W%X%Y%Z&+&@&#&$&%&&$2+8&*&=+p"};
