/* XPM */
static char * ball_red_xpm[] = {
"42 42 991 2",
",, c #EBE5DD",
",> c #DDDFD2",
",; c #BCCABA",
",- c #AEC0B1",
",= c #B0BBB2",
",* c #BEBDBA",
",& c #CAC0C1",
",% c #A5ACBB",
",$ c #929194",
",# c #7A6149",
",@ c #885632",
",+ c #844E29",
">Z c #785D38",
">Y c #707C53",
">X c #80AE80",
">W c #A9D6B6",
">V c #CCDFD4",
">U c #BDC8B6",
">T c #AFBEA7",
">S c #ADAAAA",
">R c #968889",
">Q c #7D715E",
">P c #807C59",
">O c #9DA17C",
">N c #BDC9B1",
">M c #D9E5DA",
">L c #DCD0C9",
">K c #BBB0A6",
">J c #918A7E",
">I c #777366",
">H c #757066",
">G c #988E89",
">F c #C0B2B1",
">E c #B8A6AB",
">D c #A2837F",
">C c #985A40",
">B c #B6603A",
">A c #C46A43",
">z c #A86640",
">y c #83633D",
">x c #797854",
">w c #AAB09D",
">v c #D5D2D1",
">u c #B8A8B3",
">t c #A59F99",
">s c #837C6F",
">r c #7C6264",
">q c #845C5B",
">p c #855946",
">o c #825C3B",
">n c #846A47",
">m c #968C73",
">l c #C0BFB6",
">k c #C4B4AD",
">j c #957872",
">i c #78524D",
">h c #744D47",
">g c #77564D",
">f c #755C50",
">e c #A89489",
">d c #D8BAB2",
">c c #D39487",
">b c #DC785D",
">a c #ED6E48",
">0 c #F16C42",
">9 c #E8734B",
">8 c #CF714F",
">7 c #AF6953",
">6 c #B78F87",
">5 c #E3D1D5",
">4 c #BCA9B1",
">3 c #9E8387",
">2 c #7B504F",
">1 c #864A4C",
">| c #A95B55",
">} c #D07561",
">[ c #D27658",
">< c #AE6040",
">: c #8F5E47",
">_ c #9F8980",
">( c #C0B6B5",
">/ c #CDBFB8",
">^ c #916B66",
">] c #915553",
">{ c #9F5B58",
">~ c #A16359",
">! c #875846",
">) c #826753",
">' c #AFA494",
">, c #DCB5A3",
">> c #DA9279",
">; c #DE734E",
">- c #E96C3E",
">= c #EE6C40",
">* c #EB704E",
">& c #D46C58",
">% c #CF968D",
">$ c #F6EBE6",
"># c #DED4CB",
">@ c #AF8983",
">+ c #995854",
";Z c #A96055",
";Y c #C26451",
";X c #E5694E",
";W c #F56C4C",
";V c #ED6F51",
";U c #BF674F",
";T c #9B6C60",
";S c #B3A09A",
";R c #DED5D0",
";Q c #A68582",
";P c #A66968",
";O c #A95B57",
";N c #A95A4E",
";M c #A4604B",
";L c #815C45",
";K c #727966",
";J c #ABB6A4",
";I c #DCBAA1",
";H c #C4825D",
";G c #D16C3D",
";F c #EA6D3F",
";E c #ED6C49",
";D c #DB6F5D",
";C c #DAA196",
";B c #F5E6DA",
";A c #E6D7C3",
";z c #D9B6AA",
";y c #B97F75",
";x c #A2664C",
";w c #B45C37",
";v c #E25E36",
";u c #FB5F38",
";t c #FB6543",
";s c #DA6A50",
";r c #B57867",
";q c #C9B6AD",
";p c #EAE2DE",
";o c #DBC6C3",
";n c #D4ABA8",
";m c #B87972",
";l c #A7594A",
";k c #AE5D46",
";j c #9F624A",
";i c #746450",
";h c #8A8977",
";g c #BAA78F",
";f c #B47B54",
";e c #CE6C3B",
";d c #F17142",
";c c #E86442",
";b c #D87165",
";a c #E0AFAB",
";0 c #F1DCD6",
";9 c #F7DCD5",
";8 c #DCC3B8",
";7 c #A28763",
";6 c #9B5C28",
";5 c #D5622D",
";4 c #FB6837",
";3 c #F7633A",
";2 c #D66747",
";1 c #C1836E",
";| c #DAC8BB",
";} c #DDECEA",
";[ c #DFEBEA",
";< c #EED4CE",
";: c #C9A99C",
";_ c #A2614E",
";( c #B45E47",
";/ c #B15D47",
";^ c #986150",
";] c #856150",
";{ c #89624A",
";~ c #AB6B43",
";! c #DC7844",
";) c #ED6F3C",
";' c #E76945",
";, c #CA7064",
";> c #C49996",
";; c #B4ACA7",
";- c #9DA89B",
";= c #9CAA9E",
";* c #ABBABC",
";& c #B7BCB6",
";% c #8C805C",
";$ c #9A6830",
";# c #D16E34",
";@ c #EA662F",
";+ c #F06B3C",
"-Z c #D5734E",
"-Y c #BF8B71",
"-X c #EEE2D3",
"-W c #BECFCF",
"-V c #B6C3C4",
"-U c #D2D6D9",
"-T c #E3E5E8",
"-S c #D2C5B4",
"-R c #A0735C",
"-Q c #AB5C43",
"-P c #B85843",
"-O c #B3584A",
"-N c #A25146",
"-M c #9C523F",
"-L c #BC6943",
"-K c #DB753E",
"-J c #E7753A",
"-I c #E27546",
"-H c #AE5D47",
"-G c #89554D",
"-F c #7B6159",
"-E c #766B5C",
"-D c #727261",
"-C c #6F7973",
"-B c #75766F",
"-A c #7E6246",
"-z c #AA6A3E",
"-y c #DB7844",
"-x c #E06B34",
"-w c #DE703D",
"-v c #C97B52",
"-u c #C7A486",
"-t c #F3ECD9",
"-s c #ABAEB6",
"-r c #71777D",
"-q c #8D9497",
"-p c #D2D6D7",
"-o c #EEF1F2",
"-n c #D7D3C1",
"-m c #A48368",
"-l c #A45F42",
"-k c #B3533A",
"-j c #BB4E3F",
"-i c #BF5045",
"-h c #CA5E4E",
"-g c #DC704C",
"-f c #E0743A",
"-e c #E07432",
"-d c #DE733A",
"-c c #BF5839",
"-b c #9A392B",
"-a c #8C3429",
"-0 c #8C3F2E",
"-9 c #985943",
"-8 c #845343",
"-7 c #774037",
"-6 c #9B483C",
"-5 c #CB604A",
"-4 c #E7704A",
"-3 c #E36D3C",
"-2 c #D2703D",
"-1 c #B87A4E",
"-| c #D0B696",
"-} c #F6F0D9",
"-[ c #A698A6",
"-< c #28212A",
"-: c #484A4A",
"-_ c #A8ACA9",
"-( c #D4D3CF",
"-/ c #E1D7D5",
"-^ c #CECEC3",
"-] c #B3A996",
"-{ c #947255",
"-~ c #A46441",
"-! c #BA5E3D",
"-) c #C55840",
"-' c #D55B46",
"-, c #E8654D",
"-> c #EE7046",
"-; c #E47233",
"-- c #DB6F29",
"-= c #E57334",
"-* c #EF6640",
"-& c #D63C29",
"-% c #C62619",
"-$ c #CA3120",
"-# c #E86049",
"-@ c #DB5A43",
"-+ c #B93127",
"=Z c #C1292F",
"=Y c #E34645",
"=X c #F35F47",
"=W c #EE6E43",
"=V c #D87544",
"=U c #B17348",
"=T c #BEA283",
"=S c #D9CBB6",
"=R c #CEBCC5",
"=Q c #392B30",
"=P c #130D0B",
"=O c #60544A",
"=N c #97857A",
"=M c #BAA29A",
"=L c #D3BAB4",
"=K c #E5CDC9",
"=J c #E9D3CB",
"=I c #C9B8AB",
"=H c #937862",
"=G c #8C5A3B",
"=F c #B0653D",
"=E c #CD7043",
"=D c #D67140",
"=C c #DF6C39",
"=B c #EC6A34",
"=A c #EA6E2E",
"=z c #DF7127",
"=y c #D97327",
"=x c #E47632",
"=w c #F66B3B",
"=v c #E84427",
"=u c #D01F0E",
"=t c #D12416",
"=s c #F0503F",
"=r c #F95B47",
"=q c #DE332A",
"=p c #D41926",
"=o c #E72E35",
"=n c #F95441",
"=m c #F66D43",
"=l c #E17745",
"=k c #B76C43",
"=j c #9C6D53",
"=i c #BFA798",
"=h c #CDB3AC",
"=g c #EFE8E5",
"=f c #746260",
"=e c #1A0705",
"=d c #5F3626",
"=c c #8D5D4A",
"=b c #8B5C4A",
"=a c #9B7262",
"=0 c #B39385",
"=9 c #D0B3A5",
"=8 c #C4A290",
"=7 c #A8765D",
"=6 c #B66D4A",
"=5 c #D06F44",
"=4 c #E07742",
"=3 c #DE7A3A",
"=2 c #DF752D",
"=1 c #E67022",
"=| c #E77121",
"=} c #E37226",
"=[ c #DF732D",
"=< c #E07032",
"=: c #EF6F3A",
"=_ c #EC5933",
"=( c #CD2E17",
"=/ c #C52316",
"=^ c #D93A30",
"=] c #F95C49",
"={ c #EE4738",
"=~ c #D21920",
"=! c #DA2425",
"=) c #F4543A",
"=' c #F26A3C",
"=, c #E3713E",
"=> c #D2724D",
"=; c #A85C47",
"=- c #A3716B",
"== c #CEB2AE",
"=* c #F4EAE5",
"=& c #F2F0E0",
"=% c #A79686",
"=$ c #744334",
"=# c #B66D59",
"=@ c #C6725C",
"=+ c #AB6249",
"*Z c #8F583D",
"*Y c #805B40",
"*X c #937158",
"*W c #9C7055",
"*V c #B57052",
"*U c #DE7C57",
"*T c #E46B3E",
"*S c #EA6938",
"*R c #E66F3F",
"*Q c #E37137",
"*P c #E67029",
"*O c #EC6E2B",
"*N c #F16B34",
"*M c #F0673C",
"*L c #EA643B",
"*K c #EC6B3A",
"*J c #EA6639",
"*I c #CF4122",
"*H c #BD2412",
"*G c #CD3021",
"*F c #F55D3F",
"*E c #F35B3B",
"*D c #C7271D",
"*C c #C02717",
"*B c #DB5228",
"*A c #EB6D34",
"*z c #E86F38",
"*y c #EA7451",
"*x c #D3695B",
"*w c #AB5E5E",
"*v c #B98E90",
"*u c #C9AFAF",
"*t c #F7F9E4",
"*s c #DDCFB9",
"*r c #BA836B",
"*q c #CF785E",
"*p c #D97556",
"*o c #D57954",
"*n c #C1774F",
"*m c #A76E45",
"*l c #966038",
"*k c #92502B",
"*j c #BA623C",
"*i c #E9784E",
"*h c #EB6737",
"*g c #EF6637",
"*f c #E76943",
"*e c #E56C41",
"*d c #EF6935",
"*c c #F4643C",
"*b c #F76143",
"*a c #F46241",
"*0 c #ED6B3C",
"*9 c #EA6D3D",
"*8 c #D34F2A",
"*7 c #BA270F",
"*6 c #C92D19",
"*5 c #EA5836",
"*4 c #EE643D",
"*3 c #C93B26",
"*2 c #B82C14",
"*1 c #C9461C",
"*| c #EA6E37",
"*} c #ED7039",
"*[ c #EA6740",
"*< c #E86B57",
"*: c #C3625E",
"*_ c #B27B7D",
"*( c #D7C9C7",
"*/ c #F1F0ED",
"*^ c #EDD7C6",
"*] c #CA9A81",
"*{ c #BC7550",
"*~ c #CE7445",
"*! c #DA7841",
"*) c #D9753C",
"*' c #DA7840",
"*, c #D7743F",
"*> c #D66E3B",
"*; c #DA6B39",
"*- c #E6713D",
"*= c #E86D36",
"** c #E56D37",
"*& c #DD6E40",
"*% c #E36B43",
"*$ c #F1683F",
"*# c #F0683C",
"*@ c #EA693A",
"*+ c #ED693B",
"&Z c #EF693B",
"&Y c #ED6B3A",
"&X c #EC6D3E",
"&W c #D8552D",
"&V c #C02C11",
"&U c #C52914",
"&T c #DB5035",
"&S c #EC684B",
"&R c #D43F2E",
"&Q c #C22618",
"&P c #CE3721",
"&O c #EA603C",
"&N c #F06F40",
"&M c #EB6735",
"&L c #EC6C43",
"&K c #D66C52",
"&J c #B17066",
"&I c #D2BDBE",
"&H c #F5EFF6",
"&G c #F9EADE",
"&F c #D4AC97",
"&E c #BE7C57",
"&D c #D17847",
"&C c #DC7037",
"&B c #E56E30",
"&A c #E76A2D",
"&z c #EE6F35",
"&y c #EE7038",
"&x c #E76B34",
"&w c #E76D36",
"&v c #E96E36",
"&u c #E46D35",
"&t c #E2723D",
"&s c #E7693B",
"&r c #F25F36",
"&q c #EF6436",
"&p c #E66C35",
"&o c #ED6B38",
"&n c #ED6B3B",
"&m c #DD562B",
"&l c #C92E10",
"&k c #CA230F",
"&j c #DE4831",
"&i c #F3654F",
"&h c #DC3F32",
"&g c #C82219",
"&f c #D33023",
"&e c #EA593C",
"&d c #EF6F3E",
"&c c #EE6A30",
"&b c #F06C34",
"&a c #E37148",
"&0 c #B96F5A",
"&9 c #BB9C9A",
"&8 c #E6DCE1",
"&7 c #FEF7ED",
"&6 c #DFC2B2",
"&5 c #C58063",
"&4 c #D6744B",
"&3 c #E16938",
"&2 c #F16D35",
"&1 c #F06830",
"&| c #F06931",
"&} c #ED6832",
"&[ c #EC6B35",
"&< c #EA6B35",
"&: c #EC6C35",
"&_ c #E66A31",
"&( c #E26B2E",
"&/ c #EA662D",
"&^ c #F7632D",
"&] c #F26930",
"&{ c #E46D2E",
"&~ c #E26D2E",
"&! c #E87033",
"&) c #EC6E37",
"&' c #ED6C39",
"&, c #E2562A",
"&> c #D32E10",
"&; c #D21D08",
"&- c #E74028",
"&= c #E23F35",
"&* c #CA211B",
"&& c #D22D20",
"&% c #E85837",
"&$ c #EE7039",
"&# c #F06C2A",
"&@ c #F16728",
"&+ c #E76B3B",
"%Z c #CA7557",
"%Y c #BA9688",
"%X c #E7DFDD",
"%W c #FFFBF2",
"%V c #EDD3C7",
"%U c #D08C76",
"%T c #D16D4B",
"%S c #E56A3E",
"%R c #F26836",
"%Q c #F2662F",
"%P c #F0682F",
"%O c #EE6C33",
"%N c #E96F35",
"%M c #DD682C",
"%L c #DF6C30",
"%K c #E37634",
"%J c #DD772B",
"%I c #E37328",
"%H c #EE6D29",
"%G c #E76D29",
"%F c #DC702B",
"%E c #DC722E",
"%D c #E17234",
"%C c #E6713A",
"%B c #EA6E3C",
"%A c #E1582D",
"%z c #D12F11",
"%y c #CE1E07",
"%x c #E43F26",
"%w c #FB604B",
"%v c #E13F39",
"%u c #C92020",
"%t c #CF2D21",
"%s c #E35A35",
"%r c #E97236",
"%q c #EE6D27",
"%p c #F36725",
"%o c #EF6B38",
"%n c #CC724E",
"%m c #B6947C",
"%l c #D9D3C5",
"%k c #FBE3D8",
"%j c #DCA593",
"%i c #CD6E50",
"%h c #E46C44",
"%g c #EC6535",
"%f c #EF652D",
"%e c #EE6A2E",
"%d c #E86F30",
"%c c #DA702C",
"%b c #DA7C36",
"%a c #EC994F",
"%0 c #F9B561",
"%9 c #F6B354",
"%8 c #F19F42",
"%7 c #E6812F",
"%6 c #D77025",
"%5 c #D8742E",
"%4 c #DD7738",
"%3 c #DE7139",
"%2 c #E4703F",
"%1 c #EB6C43",
"%| c #DF5331",
"%} c #C92D12",
"%[ c #C8240C",
"%< c #DF492C",
"%: c #F5634E",
"%_ c #DB3B3C",
"%( c #C71F25",
"%/ c #D02F27",
"%^ c #E15D38",
"%] c #E37436",
"%{ c #E76E28",
"%~ c #F36928",
"%! c #F36C3A",
"%) c #CA6E47",
"%' c #B8997D",
"%, c #DCDDCA",
"%> c #E5C0AE",
"%; c #CB7D5E",
"%- c #D77047",
"%= c #E56D39",
"%* c #EB6B31",
"%& c #EA6D2D",
"%% c #DE7029",
"%$ c #D1792A",
"%# c #EBA954",
"%@ c #E0B35B",
"%+ c #CAAB4F",
"$Z c #E9C55B",
"$Y c #FDCA61",
"$X c #F3A74E",
"$W c #DB7B31",
"$V c #DA7032",
"$U c #E4713E",
"$T c #E5693F",
"$S c #ED6747",
"$R c #F5664D",
"$Q c #E24A36",
"$P c #C42614",
"$O c #C62A16",
"$N c #DE5237",
"$M c #EE6652",
"$L c #D3353A",
"$K c #C61D27",
"$J c #D4322D",
"$I c #E1603C",
"$H c #DE7537",
"$G c #E36F2A",
"$F c #EF692B",
"$E c #F1683A",
"$D c #CD704C",
"$C c #C3A88B",
"$B c #EDF3E6",
"$A c #EFD8C3",
"$z c #C89373",
"$y c #C47347",
"$x c #DF7642",
"$w c #E86F34",
"$v c #E76C2A",
"$u c #DD7026",
"$t c #DB8733",
"$s c #F5C361",
"$r c #9C872C",
"$q c #3D3407",
"$p c #A5942C",
"$o c #F5D35E",
"$n c #FDC465",
"$m c #E88B3F",
"$l c #DB6C30",
"$k c #E76B3E",
"$j c #EE6745",
"$i c #F6634B",
"$h c #FC604F",
"$g c #E44135",
"$f c #C22113",
"$e c #C32D19",
"$d c #DE5B40",
"$c c #EA6652",
"$b c #D12F33",
"$a c #C91A22",
"$0 c #D63228",
"$9 c #E3623A",
"$8 c #DE7737",
"$7 c #E26F2C",
"$6 c #EE682E",
"$5 c #F56C43",
"$4 c #CB6C4A",
"$3 c #AB8E70",
"$2 c #D9DECC",
"$1 c #FAF6DD",
"$| c #D4BC99",
"$} c #B87C51",
"$[ c #D47847",
"$< c #E7713A",
"$: c #ED6B2E",
"$_ c #E86B26",
"$( c #E68532",
"$/ c #F8C05D",
"$^ c #B59C3A",
"$] c #5F5713",
"${ c #B2A633",
"$~ c #F5D75A",
"$! c #FCC35B",
"$) c #E78F3B",
"$' c #DE6E2D",
"$, c #E76B39",
"$> c #EE6942",
"$; c #F8674B",
"$- c #F65744",
"$= c #DE3628",
"$* c #C52311",
"$& c #C33218",
"$% c #E56745",
"$$ c #E45E43",
"$# c #D02520",
"$@ c #D31B18",
"$+ c #E03621",
"#Z c #EE6738",
"#Y c #E47633",
"#X c #E76F2D",
"#W c #EE652E",
"#V c #F26A3F",
"#U c #CF6D48",
"#T c #906745",
"#S c #A6A08A",
"#R c #CECCC2",
"#Q c #F9F7D9",
"#P c #ECE2C1",
"#O c #C69D77",
"#N c #C4754B",
"#M c #E26C3F",
"#L c #F26634",
"#K c #F3652A",
"#J c #E86F27",
"#I c #F4A04A",
"#H c #F7C464",
"#G c #E8C95D",
"#F c #F1D258",
"#E c #FCCE55",
"#D c #F2AD42",
"#C c #E08028",
"#B c #E16B25",
"#A c #E76C32",
"#z c #EB6C3B",
"#y c #F56A45",
"#x c #ED5136",
"#w c #D72D18",
"#v c #C8210A",
"#u c #D83F20",
"#t c #F26642",
"#s c #E14D2E",
"#r c #D11F10",
"#q c #DB200F",
"#p c #F34926",
"#o c #F36A31",
"#n c #E16E28",
"#m c #EB6F2E",
"#l c #F26934",
"#k c #EC683D",
"#j c #D67248",
"#i c #A56E46",
"#h c #8A6D50",
"#g c #BDA69A",
"#f c #D5B3B0",
"#e c #F4ECCF",
"#d c #DCBEA3",
"#c c #C47F61",
"#b c #D96A49",
"#a c #EB5F39",
"#0 c #F86131",
"#9 c #F1642A",
"#8 c #EB752F",
"#7 c #F19546",
"#6 c #F7B254",
"#5 c #F5B245",
"#4 c #EAA032",
"#3 c #DE8623",
"#2 c #E0711D",
"#1 c #E96B25",
"#| c #E96E30",
"#} c #EB713A",
"#[ c #F06B3E",
"#< c #E14625",
"#: c #D02107",
"#_ c #D02007",
"#( c #F04E30",
"#/ c #FA5E3E",
"#^ c #E03A1D",
"#] c #D21E09",
"#{ c #DB270C",
"#~ c #F8572A",
"#! c #F16D2F",
"#) c #E0702B",
"#' c #E76F34",
"#, c #E76838",
"#> c #E16A40",
"#; c #D17347",
"#- c #BF7D4F",
"#= c #A46D4A",
"#* c #AE7A68",
"#& c #D7B0AA",
"#% c #F7E8EA",
"#$ c #EACBBD",
"## c #DCA898",
"#@ c #D47A64",
"#+ c #DC6748",
"@Z c #EC663E",
"@Y c #F16837",
"@X c #E5652B",
"@W c #E16C2B",
"@V c #E1782E",
"@U c #D97A25",
"@T c #D3761E",
"@S c #D87221",
"@R c #EA702D",
"@Q c #F26A32",
"@P c #E96935",
"@O c #E76E3E",
"@N c #E36038",
"@M c #CD3317",
"@L c #CE1A08",
"@K c #E32E1D",
"@J c #FC5A47",
"@I c #F44F3C",
"@H c #D42916",
"@G c #C3200E",
"@F c #D64024",
"@E c #EB683C",
"@D c #DC7038",
"@C c #CF7139",
"@B c #D36E43",
"@A c #E37C5C",
"@z c #EB9272",
"@y c #D78C65",
"@x c #BE7D50",
"@w c #C47B56",
"@v c #B26851",
"@u c #CB9E8E",
"@t c #F9EEE3",
"@s c #F0CBC4",
"@r c #DDA695",
"@q c #CF8366",
"@p c #CE7048",
"@o c #DA6F3E",
"@n c #E26E37",
"@m c #E86F37",
"@l c #DF6E33",
"@k c #CF7634",
"@j c #C87A38",
"@i c #CE793C",
"@h c #DF7342",
"@g c #E46841",
"@f c #DB6A43",
"@e c #D86F4A",
"@d c #C04F31",
"@c c #B02715",
"@b c #C8261E",
"@a c #E54640",
"@0 c #EE5E55",
"@9 c #D2413A",
"@8 c #B4241D",
"@7 c #B4342C",
"@6 c #CC5E4C",
"@5 c #CD7453",
"@4 c #C58057",
"@3 c #CF906E",
"@2 c #DE9C89",
"@1 c #F6C4B9",
"@| c #FEDDCA",
"@} c #F2CFB1",
"@[ c #D19B76",
"@< c #C97859",
"@: c #B9654F",
"@_ c #B38773",
"@( c #DDD3BD",
"@/ c #F3DCCC",
"@^ c #E8CAAC",
"@] c #D0A277",
"@{ c #C88653",
"@~ c #CB733C",
"@! c #DE743E",
"@) c #D27740",
"@' c #A57E45",
"@, c #908147",
"@> c #907943",
"@; c #A67248",
"@- c #C2785A",
"@= c #D39272",
"@* c #D8A082",
"@& c #C2846C",
"@% c #C06D60",
"@$ c #D8726D",
"@# c #E78A85",
"@@ c #DE9289",
"@+ c #C57C73",
"+Z c #BB6F6C",
"+Y c #CC7F82",
"+X c #DD9C9A",
"+W c #DFB19F",
"+V c #E9CEB9",
"+U c #F4E2D7",
"+T c #F9E0E0",
"+S c #FEE9EB",
"+R c #FBECD3",
"+Q c #EDCCB2",
"+P c #D78C77",
"+O c #C57161",
"+N c #A27F6C",
"+M c #B5BBA3",
"+L c #FFFBE5",
"+K c #F9F1D3",
"+J c #F4EAC5",
"+I c #E1C99E",
"+H c #B5865A",
"+G c #AE6E42",
"+F c #A9794F",
"+E c #7C8258",
"+D c #5E7C50",
"+C c #63784F",
"+B c #928C6E",
"+A c #CEB59E",
"+z c #EFDDC6",
"+y c #F7EFDB",
"+x c #EFE2D0",
"+w c #ECCDC2",
"+v c #F4CCC8",
"+u c #F7D6D1",
"+t c #F0D9D0",
"+s c #E7D2C9",
"+r c #E7D0CD",
"+q c #F0D2DA",
"+p c #F6DCE0",
"+o c #FAE8E1",
"+n c #FEF9F0",
"+m c #FEFDFA",
"+l c #FFFDFF",
"+k c #FBF0DF",
"+j c #E1B3A6",
"+i c #C27D72",
"+h c #9D8271",
"+g c #AEB49D",
"+f c #F8F8E8",
"+e c #B8BAA7",
"+d c #767561",
"+c c #828774",
"+b c #9BB09E",
"+a c #6C8674",
"+0 c #6A806F",
"+9 c #BDC7BB",
"+8 c #F7F4EA",
"+7 c #FFFCEF",
"+6 c #FFFFF6",
"+5 c #ECD7CD",
"+4 c #B1897E",
"+3 c #977A6B",
"+2 c #C0AC9B",
"+1 c #F5FCFB",
"+| c #D1E3E0",
"+} c #A4BEB6",
"+[ c #B2CBC4",
"+< c #DAECE9",
"+: c #A6BAB4",
"+_ c #99ABA6",
"+( c #D6E3E0",
"+/ c #F1E3DB",
"+^ c #B69D94",
"+] c #9C8073",
"+{ c #DBC1B4",
"+~ c #E2F2F2",
"+! c #E5F6F5",
"+) c #EAFAF8",
"+' c #EDFCFB",
"+, c #D5E4E0",
"+> c #D4E3DF",
"+; c #DEECE9",
"+- c #F7EBE4",
"+= c #E5D2CB",
"+* c #D7BEB5",
"+& c #F4E6DA",
"+% c #FDF2ED",
"+$ c #FDF6F0",
"+# c #FDF6EE",
"+@ c #FDF2E9",
"++ c None",
"++++++++++++++++++++++++++++++++++++++++++++++++++++++++++++++++++++++++++++++++++++",
"++++++++++++++++++++++++++++++++++++++++++++++++++++++++++++++++++++++++++++++++++++",
"++++++++++++++++++++++++++++++++++++++++++++++++++++++++++++++++++++++++++++++++++++",
"++++++++++++++++++++++++++++++++++++++++++++++++++++++++++++++++++++++++++++++++++++",
"++++++++++++++++++++++++++++++++++++++++++++++++++++++++++++++++++++++++++++++++++++",
"++++++++++++++++++++++++++++++++++++++++++++++++++++++++++++++++++++++++++++++++++++",
"++++++++++++++++++++++++++++++++++++++++++++++++++++++++++++++++++++++++++++++++++++",
"++++++++++++++++++++++++++++++++++++++++++++++++++++++++++++++++++++++++++++++++++++",
"++++++++++++++++++++++++++++++++++++++++++++++++++++++++++++++++++++++++++++++++++++",
"++++++++++++++++++++++++++++++++++++++++++++++++++++++++++++++++++++++++++++++++++++",
"+@+#+$+%++++++++++++++++++++++++++++++++++++++++++++++++++++++++++++++++++++++++++++",
"+&+*+=+-+++++++++++++++++++++++++++++++++++++++++;+>+,+'+)+!+~++++++++++++++++++++++",
"+{+]+^+/+++++++++++++++++++++++++++++++++++++++++(+_+:+<+[+}+|+1++++++++++++++++++++",
"+2+3+4+5+6+++++++++++++++++++++++++++++++++++7+8+9+0+a+b+c+d+e+f++++++++++++++++++++",
"+g+h+i+j+k+++++++l+m+n+o+p+q+r+s+t+u+v+w+x+y+z+A+B+C+D+E+F+G+H+I+J+K+L++++++++++++++",
"+M+N+O+P+Q+R+++S+T+U+V+W+X+Y+Z@+@@@#@$@%@&@*@=@-@;@>@,@'@)@!@~@{@]@^@/++++++++++++++",
"@(@_@:@<@[@}@|@1@2@3@4@5@6@7@8@9@0@a@b@c@d@e@f@g@h@i@j@k@l@m@n@o@p@q@r@s++++++++++++",
"@t@u@v@w@x@y@z@A@B@C@D@E@F@G@H@I@J@K@L@M@N@O@P@Q@R@S@T@U@V@W@X@Y@Z#+#@###$++++++++++",
"#%#&#*#=#-#;#>#,#'#)#!#~#{#]#^#/#(#_#:#<#[#}#|#1#2#3#4#5#6#7#8#9#0#a#b#c#d#e++++++++",
"++#f#g#h#i#j#k#l#m#n#o#p#q#r#s#t#u#v#w#x#y#z#A#B#C#D#E#F#G#H#I#J#K#L#M#N#O#P#Q++++++",
"++++#R#S#T#U#V#W#X#Y#Z$+$@$#$$$%$&$*$=$-$;$>$,$'$)$!$~${$]$^$/$($_$:$<$[$}$|$1++++++",
"++++++$2$3$4$5$6$7$8$9$0$a$b$c$d$e$f$g$h$i$j$k$l$m$n$o$p$q$r$s$t$u$v$w$x$y$z$A++++++",
"++++++$B$C$D$E$F$G$H$I$J$K$L$M$N$O$P$Q$R$S$T$U$V$W$X$Y$Z%+%@%#%$%%%&%*%=%-%;%>++++++",
"++++++%,%'%)%!%~%{%]%^%/%(%_%:%<%[%}%|%1%2%3%4%5%6%7%8%9%0%a%b%c%d%e%f%g%h%i%j%k++++",
"++++++%l%m%n%o%p%q%r%s%t%u%v%w%x%y%z%A%B%C%D%E%F%G%H%I%J%K%L%M%N%O%P%Q%R%S%T%U%V%W++",
"++++++%X%Y%Z&+&@&#&$&%&&&*&=%w&-&;&>&,&'&)&!&~&{&]&^&/&(&_&:&<&[&}&|&1&2&3&4&5&6&7++",
"++++++&8&9&0&a&b&c&d&e&f&g&h&i&j&k&l&m&n&o&)#'&p&q&r&s&t&u&v&w&x&y&z&A&B&C&D&E&F&G++",
"++++++&H&I&J&K&L&M&N&O&P&Q&R&S&T&U&V&W&X&Y&Z*+*@*#*$*%*&***=*-*;*>*,*'*)*!*~*{*]*^++",
"++++++*/*(*_*:*<*[*}*|*1*2*3*4*5*6*7*8*9*0*a*b*c*d*|*e*f*g*h*i*j*k*l*m*n*o*p*q*r*s*t",
"++++++++*u*v*w*x*y*z*A*B*C*D*E*F*G*H*I*J*K*L*M*N*O*P*Q*R*S*T*U*V*W*X*Y*Z=+=@=#=$=%=&",
"++++++++=*===-=;=>=,='=)=!=~={=]=^=/=(=_=:=<=[=}=|=1=2=3=4=5=6=7=8=9=0=a=b=c=d=e=f=g",
"++++++++++=h=i=j=k=l=m=n=o=p=q=r=s=t=u=v=w=x=y=z=A=B=C=D=E=F=G=H=I=J=K=L=M=N=O=P=Q=R",
"++++++++++++=S=T=U=V=W=X=Y=Z-+-@-#-$-%-&-*-=---;->-,-'-)-!-~-{-]-^++++++-/-(-_-:-<-[",
"++++++++++++-}-|-1-2-3-4-5-6-7-8-9-0-a-b-c-d-e-f-g-h-i-j-k-l-m-n++++++++++-o-p-q-r-s",
"++++++++++++-t-u-v-w-x-y-z-A-B-C-D-E-F-G-H-I-J-K-L-M-N-O-P-Q-R-S++++++++++++-T-U-V-W",
"++++++++++++-X-Y-Z;+;@;#;$;%;&;*;=;-;;;>;,;';);!;~;{;];^;/;(;_;:;<++++++++++++++;[;}",
"++++++++++++;|;1;2;3;4;5;6;7;8;9++++;0;a;b;c;d;e;f;g;h;i;j;k;l;m;n;o;p++++++++++++++",
"++++++++++++;q;r;s;t;u;v;w;x;y;z;A++;B;C;D;E;F;G;H;I;J;K;L;M;N;O;P;Q;R++++++++++++++",
"++++++++++++;S;T;U;V;W;X;Y;Z>+>@>#++>$>%>&>*>=>->;>>>,>'>)>!>~>{>]>^>/++++++++++++++",
"++++++++++++>(>_>:><>[>}>|>1>2>3>4++>5>6>7>8>9>0>a>b>c>d>e>f>g>h>i>j>k++++++++++++++",
"++++++++++++++>l>m>n>o>p>q>r>s>t>u++>v>w>x>y>z>A>B>C>D>E>F>G>H>I>J>K>L++++++++++++++",
"++++++++++++++>M>N>O>P>Q>R>S>T>U++++>V>W>X>Y>Z,+,@,#,$,%,&,*,=,-,;,>,,++++++++++++++"};
