/* XPM */
static char * ball_red_xpm[] = {
"42 42 898 2",
">= c #EDE9EC",
">* c #DBDBDA",
">& c #B1AEAA",
">% c #8C837B",
">$ c #8C7E73",
"># c #998280",
">@ c #916E82",
">+ c #8F7B8A",
";Z c #959C95",
";Y c #8F998A",
";X c #8C8F84",
";W c #A2A9AA",
";V c #BAC3CB",
";U c #D4D7DC",
";T c #AAA6A7",
";S c #857E79",
";R c #82736F",
";Q c #846067",
";P c #7C4552",
";O c #84454C",
";N c #8D5E59",
";M c #886D5F",
";L c #7D5D50",
";K c #825952",
";J c #9B7975",
";I c #A88C8A",
";H c #E5DBDE",
";G c #BBABAB",
";F c #846966",
";E c #6E4641",
";D c #73423B",
";C c #7E3D3E",
";B c #843140",
";A c #803A43",
";z c #7B5047",
";y c #744D41",
";x c #6D4440",
";w c #826A70",
";v c #BCB6C1",
";u c #DDE3E6",
";t c #BEB8BD",
";s c #8C6B6E",
";r c #78413E",
";q c #7D3833",
";p c #843232",
";o c #8D3237",
";n c #8F3439",
";m c #80312F",
";l c #78382F",
";k c #7F3832",
";j c #7A3030",
";i c #845051",
";h c #AB9292",
";g c #C3A4A4",
";f c #986D6D",
";e c #763533",
";d c #8B3231",
";c c #982D2D",
";b c #A52628",
";a c #B9242A",
";0 c #B02421",
";9 c #9E2B1C",
";8 c #9E2B23",
";7 c #912228",
";6 c #823745",
";5 c #B89BA8",
";4 c #DEDEE0",
";3 c #BFABAE",
";2 c #8F4246",
";1 c #A32725",
";| c #B6221C",
";} c #B82419",
";[ c #BF3229",
";< c #B62E2F",
";: c #AB2C2E",
";_ c #A72E2D",
";( c #B23035",
";/ c #A82B34",
";^ c #832B31",
";] c #9F797A",
";{ c #D2CDCB",
";~ c #E6D1CC",
";! c #C39D98",
";) c #874642",
";' c #832220",
";, c #B53333",
";> c #C92D31",
";; c #D12727",
";- c #D62920",
";= c #CF2818",
";* c #C42510",
";& c #D62B24",
";% c #D02A34",
";$ c #A02C3D",
";# c #BE8694",
";@ c #E6DADA",
";+ c #C59A9A",
"-Z c #A33838",
"-Y c #C72520",
"-X c #DE2617",
"-W c #D1250B",
"-V c #CA2B12",
"-U c #CD2A24",
"-T c #CE2C2D",
"-S c #C52326",
"-R c #CB212B",
"-Q c #C72635",
"-P c #8F2229",
"-O c #A27473",
"-N c #C19A91",
"-M c #863F38",
"-L c #92241E",
"-K c #B52121",
"-J c #D72120",
"-I c #CD2718",
"-H c #D02E18",
"-G c #D0230E",
"-F c #DD1D16",
"-E c #AE2D39",
"-D c #D1939A",
"-C c #D49F99",
"-B c #B0413B",
"-A c #C32217",
"-z c #D92612",
"-y c #D02709",
"-x c #C82609",
"-w c #CE251B",
"-v c #CF2523",
"-u c #D2292A",
"-t c #D1212A",
"-s c #B2101C",
"-r c #942A2E",
"-q c #C79E9A",
"-p c #F1EBE4",
"-o c #D2B7AE",
"-n c #94564D",
"-m c #87251E",
"-l c #9B1713",
"-k c #BE2020",
"-j c #C52221",
"-i c #B92820",
"-h c #C42F23",
"-g c #D1261C",
"-f c #D51C1A",
"-e c #C62024",
"-d c #AD4C4B",
"-c c #D9B2AD",
"-b c #DAB6A9",
"-a c #AB5246",
"-0 c #AD2A1C",
"-9 c #C42A19",
"-8 c #D0291B",
"-7 c #D1271D",
"-6 c #C4241C",
"-5 c #B9261E",
"-4 c #B02920",
"-3 c #A21918",
"-2 c #961A1F",
"-1 c #B66B6B",
"-| c #EAD0CA",
"-} c #EDD9D0",
"-[ c #BD9088",
"-< c #863D35",
"-: c #85221C",
"-_ c #911917",
"-( c #9F1F20",
"-/ c #A22527",
"-^ c #B02224",
"-] c #CB2124",
"-{ c #B82828",
"-~ c #9F5D54",
"-! c #CEC3B4",
"-) c #DABEAF",
"-' c #A65E50",
"-, c #A33529",
"-> c #B82C25",
"-; c #CF2227",
"-- c #D21E28",
"-= c #B21C1C",
"-* c #97241A",
"-& c #802819",
"-% c #89372E",
"-$ c #C17B78",
"-# c #EECFCA",
"-@ c #FCEEE6",
"-+ c #E6CAC3",
"=Z c #CEA6A0",
"=Y c #B17E79",
"=X c #944F4C",
"=W c #8C3636",
"=V c #912329",
"=U c #AC1B25",
"=T c #D11F2A",
"=S c #D52029",
"=R c #B6292D",
"=Q c #90554D",
"=P c #AFAA9A",
"=O c #D4B1A8",
"=N c #A2524D",
"=M c #A8302D",
"=L c #C0292C",
"=K c #D71C2E",
"=J c #D6182F",
"=I c #A91620",
"=H c #8C302B",
"=G c #A67A6B",
"=F c #D5BDAE",
"=E c #F2DAD1",
"=D c #EFDCD8",
"=C c #E6D0CC",
"=B c #DABAB8",
"=A c #BC8583",
"=z c #912F2E",
"=y c #AB1A1D",
"=x c #D82128",
"=w c #DE1F29",
"=v c #BE242D",
"=u c #934C4A",
"=t c #A99C93",
"=s c #C99A98",
"=r c #A43E42",
"=q c #B8262B",
"=p c #CA2025",
"=o c #D91A28",
"=n c #D71C2F",
"=m c #A60F22",
"=l c #A14A4F",
"=k c #DCC7BD",
"=j c #FBF9EB",
"=i c #DBB0AC",
"=h c #9A3D32",
"=g c #A9190C",
"=f c #D41D19",
"=e c #E11920",
"=d c #CA1F2A",
"=c c #A24A4E",
"=b c #C0ADA9",
"=a c #E5DCD8",
"=0 c #D29FA0",
"=9 c #B43841",
"=8 c #CA2028",
"=7 c #D92021",
"=6 c #D72220",
"=5 c #CC2227",
"=4 c #AA1126",
"=3 c #A24554",
"=2 c #D0B5B4",
"=1 c #F8F7EE",
"=| c #C2928D",
"=} c #9A3C2E",
"=[ c #AB1808",
"=< c #D41D15",
"=: c #E62021",
"=_ c #CD2329",
"=( c #993E3E",
"=/ c #998079",
"=^ c #ACA19A",
"=] c #AF7574",
"={ c #B22E35",
"=~ c #CC2025",
"=! c #DA2823",
"=) c #CD2C20",
"=' c #BD2722",
"=, c #A71627",
"=> c #993B4B",
"=; c #C1A0A2",
"=- c #C29A96",
"== c #923A31",
"=* c #A6180F",
"=& c #CE1E17",
"=% c #DF201D",
"=$ c #C82120",
"=# c #8F2C25",
"=@ c #74453A",
"=+ c #754942",
"*Z c #883434",
"*Y c #AC2227",
"*X c #C72C2B",
"*W c #BE2E23",
"*V c #B13223",
"*U c #B13830",
"*T c #991D25",
"*S c #923C43",
"*R c #C4A2A2",
"*Q c #AEA39F",
"*P c #A38B89",
"*O c #793637",
"*N c #982123",
"*M c #C11C1E",
"*L c #D01516",
"*K c #CA1B1A",
"*J c #A82822",
"*I c #94302A",
"*H c #9C2A2F",
"*G c #AB2029",
"*F c #BC2128",
"*E c #A62420",
"*D c #6C120B",
"*C c #570F0B",
"*B c #72211C",
"*A c #862824",
"*z c #88453F",
"*y c #C0A49A",
"*x c #8C6B67",
"*w c #7A4949",
"*v c #7E2D34",
"*u c #A42A34",
"*t c #C4242C",
"*s c #CB1B1F",
"*r c #CE2120",
"*q c #C32328",
"*p c #D12531",
"*o c #DB2B38",
"*n c #C12429",
"*m c #700E0C",
"*l c #240000",
"*k c #150000",
"*j c #3B0705",
"*i c #752018",
"*h c #824435",
"*g c #B7A18E",
"*f c #835340",
"*e c #84362D",
"*d c #942424",
"*c c #B82B32",
"*b c #C92933",
"*a c #C9232A",
"*0 c #C12424",
"*9 c #C52B27",
"*8 c #D92226",
"*7 c #E21622",
"*6 c #DE1C25",
"*5 c #DB2C31",
"*4 c #AD201E",
"*3 c #4A0503",
"*2 c #0D0000",
"*1 c #100000",
"*| c #410607",
"*} c #8D211F",
"*[ c #863528",
"*< c #97836D",
"*: c #AAA792",
"*_ c #7E402F",
"*( c #8E3125",
"*/ c #BA2624",
"*^ c #D22322",
"*] c #D92323",
"*{ c #D02323",
"*~ c #C82E2A",
"*! c #C02B25",
"*) c #CE1C1F",
"*' c #E01721",
"*, c #E11922",
"*> c #D82326",
"*; c #B82520",
"*- c #6A0F09",
"*= c #2E0100",
"** c #370403",
"*& c #7B1D1F",
"*% c #B82D2F",
"*$ c #9B2D26",
"*# c #815848",
"*@ c #9A887B",
"*+ c #AF8378",
"&Z c #86362A",
"&Y c #9E281F",
"&X c #CD2E27",
"&W c #DB2419",
"&V c #D81B10",
"&U c #DA251E",
"&T c #C92822",
"&S c #AF1D16",
"&R c #B7231F",
"&Q c #C32223",
"&P c #CD181E",
"&O c #D31B21",
"&N c #D12726",
"&M c #AF2118",
"&L c #931B10",
"&K c #952016",
"&J c #B8302C",
"&I c #CE2B2E",
"&H c #B7292A",
"&G c #86312D",
"&F c #906C65",
"&E c #B0A19A",
"&D c #D5C0B7",
"&C c #A76962",
"&B c #A02C2A",
"&A c #BD2A26",
"&z c #D3281F",
"&y c #E22111",
"&x c #E31B0D",
"&w c #DA1D16",
"&v c #BB221B",
"&u c #C4584E",
"&t c #DB9388",
"&s c #E09990",
"&r c #D66562",
"&q c #BB2426",
"&p c #CF2125",
"&o c #D92928",
"&n c #D22B22",
"&m c #D42F25",
"&l c #D0231D",
"&k c #DC2124",
"&j c #D4252E",
"&i c #A82129",
"&h c #894141",
"&g c #A5928B",
"&f c #C9C8C0",
"&e c #C5AAA0",
"&d c #A14F4C",
"&c c #B82126",
"&b c #D42A2A",
"&a c #D22118",
"&0 c #DB1F0F",
"&9 c #E42015",
"&8 c #D11715",
"&7 c #D25450",
"&6 c #F7CABF",
"&5 c #FEF8F0",
"&4 c #FCFBF5",
"&3 c #F8D8D1",
"&2 c #D77073",
"&1 c #C21E2B",
"&| c #CD1B22",
"&} c #C61B18",
"&[ c #C51B12",
"&< c #D11F18",
"&: c #DE1E1F",
"&_ c #DF1C27",
"&( c #D0202F",
"&/ c #982A31",
"&^ c #8E6963",
"&] c #C2BCB2",
"&{ c #B8A495",
"&~ c #A04A47",
"&! c #C51A25",
"&) c #DA2226",
"&' c #D0231B",
"&, c #CA2718",
"&> c #C82219",
"&; c #C62426",
"&- c #E89594",
"&= c #FEF9F5",
"&* c #F9F6F3",
"&& c #B1ACA8",
"&% c #9A8C89",
"&$ c #E19AA2",
"&# c #C2394E",
"&@ c #C33543",
"&+ c #E16C6B",
"%Z c #CC5F57",
"%Y c #BB3C32",
"%X c #C61F1A",
"%W c #DD181F",
"%V c #E51D2E",
"%U c #B62632",
"%T c #8D4B49",
"%S c #AF9E94",
"%R c #CCCEC1",
"%Q c #AAA090",
"%P c #9F4E48",
"%O c #CB1C29",
"%N c #D71B20",
"%M c #D0251F",
"%L c #C32820",
"%K c #BA2221",
"%J c #C13038",
"%I c #E8A3A7",
"%H c #FFFCFB",
"%G c #EEEEED",
"%F c #555352",
"%E c #261E1F",
"%D c #A87680",
"%C c #C9677D",
"%B c #D67E8C",
"%A c #E8BBBC",
"%z c #F4DBD8",
"%y c #E6ADA6",
"%x c #CA473A",
"%w c #D41E1B",
"%v c #E21624",
"%u c #C81F2D",
"%t c #973638",
"%s c #AD8F86",
"%r c #CCC7BA",
"%q c #B9B9A8",
"%p c #A6605A",
"%o c #C11E28",
"%n c #D11C1F",
"%m c #D52423",
"%l c #D4242A",
"%k c #C81D2A",
"%j c #BD2533",
"%i c #D67C82",
"%h c #FCEAE7",
"%g c #F8FBF6",
"%f c #AEB4AA",
"%e c #8B7D79",
"%d c #BC9297",
"%c c #C68A95",
"%b c #683E44",
"%a c #433739",
"%0 c #D2D0D3",
"%9 c #FFFAF8",
"%8 c #E89986",
"%7 c #C62B1E",
"%6 c #DC171F",
"%5 c #D41E2C",
"%4 c #A5272E",
"%3 c #B3837B",
"%2 c #D0C0B3",
"%1 c #C9C7B6",
"%| c #B16E68",
"%} c #B61F25",
"%[ c #D52729",
"%< c #D52222",
"%: c #DA1D26",
"%_ c #D61C29",
"%( c #BE1823",
"%/ c #BD3E41",
"%^ c #E49690",
"%] c #F9CEC3",
"%{ c #FBD9CE",
"%~ c #E1A49E",
"%! c #BF7373",
"%) c #D69E9F",
"%' c #7D6363",
"%, c #554E4E",
"%> c #D3D3D5",
"%; c #FEFEFE",
"%- c #EFC3AC",
"%= c #C03B28",
"%* c #CE1618",
"%& c #D31A27",
"%% c #B42730",
"%$ c #B67A74",
"%# c #CCB4A7",
"%@ c #CDC8C0",
"%+ c #B8A59A",
"$Z c #A45955",
"$Y c #AE1E21",
"$X c #CF2827",
"$W c #D2201D",
"$V c #D7191B",
"$U c #E52228",
"$T c #DB2126",
"$S c #C1201F",
"$R c #BF352E",
"$Q c #D54C45",
"$P c #E1534F",
"$O c #C23633",
"$N c #AE2D2A",
"$M c #E89793",
"$L c #F0DDD6",
"$K c #E6E2DE",
"$J c #F8FAF9",
"$I c #FFFBF7",
"$H c #E5AC94",
"$G c #B83723",
"$F c #C91D1C",
"$E c #D22029",
"$D c #B5292F",
"$C c #B4756E",
"$B c #CAAEA2",
"$A c #DBC4C5",
"$z c #BA9C9A",
"$y c #9E6E6B",
"$x c #953534",
"$w c #B42523",
"$v c #C8231C",
"$u c #D6231C",
"$t c #DF201B",
"$s c #E91E1F",
"$r c #E81B1E",
"$q c #D11C1A",
"$p c #C21F16",
"$o c #CE1916",
"$n c #D41514",
"$m c #C41A13",
"$l c #BC2218",
"$k c #D3534A",
"$j c #F7C2B5",
"$i c #FDF5ED",
"$h c #FDEFEC",
"$g c #F6C3C0",
"$f c #C45D4D",
"$e c #B42619",
"$d c #CF2525",
"$c c #CE282C",
"$b c #A92C2B",
"$a c #BD857B",
"$0 c #F0E6D8",
"$9 c #DCC9C8",
"$8 c #B98A8E",
"$7 c #91363E",
"$6 c #A7292C",
"$5 c #C42D28",
"$4 c #CD241A",
"$3 c #D82416",
"$2 c #DC2518",
"$1 c #E01B16",
"$| c #E71719",
"$} c #DC221F",
"$[ c #D22721",
"$< c #DD1E1D",
"$: c #E21C1C",
"$_ c #D3261B",
"$( c #C41F12",
"$/ c #C12015",
"$^ c #C85343",
"$] c #D28472",
"${ c #D87A75",
"$~ c #D15051",
"$! c #BB2924",
"$) c #C72322",
"$' c #D22024",
"$, c #BE2324",
"$> c #A43F37",
"$; c #D6AFA0",
"$- c #FBF5E5",
"$= c #C6B8B3",
"$* c #A35F65",
"$& c #A52233",
"$% c #C1262F",
"$$ c #CC2A24",
"$# c #D52518",
"$@ c #D42412",
"$+ c #C92A16",
"#Z c #C72315",
"#Y c #D82525",
"#X c #D02325",
"#W c #D51D23",
"#V c #DA1D22",
"#U c #D82421",
"#T c #D4241E",
"#S c #CB221A",
"#R c #B42011",
"#Q c #AF2717",
"#P c #BC231D",
"#O c #C61B1D",
"#N c #D22125",
"#M c #E0222B",
"#L c #D81A24",
"#K c #B12220",
"#J c #AA5D4E",
"#I c #E8D5C3",
"#H c #FFFEEF",
"#G c #B5A39B",
"#F c #97454A",
"#E c #BF2A3B",
"#D c #CE212C",
"#C c #D22521",
"#B c #D72618",
"#A c #C92817",
"#z c #AC3222",
"#y c #A9362B",
"#x c #AF2925",
"#w c #B82526",
"#v c #C6272B",
"#u c #D0232B",
"#t c #DA2029",
"#s c #DE1E25",
"#r c #D71B1E",
"#q c #D52521",
"#p c #C7261C",
"#o c #C02217",
"#n c #D1251F",
"#m c #D61C1D",
"#l c #DC1B23",
"#k c #E41C2A",
"#j c #D91F29",
"#i c #AD2C28",
"#h c #B67D6B",
"#g c #EEE0CE",
"#f c #FFFFF5",
"#e c #B89D92",
"#d c #8F3B3B",
"#c c #BC2C36",
"#b c #D1242D",
"#a c #CF1D1D",
"#0 c #C72216",
"#9 c #AC291D",
"#8 c #AC6263",
"#7 c #D09C9F",
"#6 c #AD6766",
"#5 c #923430",
"#4 c #A92D2A",
"#3 c #C12124",
"#2 c #DC1E28",
"#1 c #E71B27",
"#| c #DF1823",
"#} c #DA2328",
"#[ c #CE2321",
"#< c #CA241C",
"#: c #D3251C",
"#_ c #D8211E",
"#( c #D92029",
"#/ c #D9232E",
"#^ c #C52125",
"#] c #9C3129",
"#{ c #BB8F81",
"#~ c #F3E6DE",
"#! c #D1BAB0",
"#) c #924645",
"#' c #A6252D",
"#, c #BB1D26",
"#> c #B81619",
"#; c #A81A10",
"#- c #8E281E",
"#= c #C1969C",
"#* c #F9EAF1",
"#& c #E8CFCD",
"#% c #C08F87",
"#$ c #A9544A",
"## c #AC312B",
"#@ c #BE2424",
"#+ c #CF1D24",
"@Z c #D81E27",
"@Y c #DA242B",
"@X c #CF2222",
"@W c #CA241F",
"@V c #CD2A20",
"@U c #C4241D",
"@T c #BB2024",
"@S c #BE252C",
"@R c #AE2021",
"@Q c #85261D",
"@P c #A57B70",
"@O c #D5C0BB",
"@N c #E7D9D3",
"@M c #C59293",
"@L c #A23640",
"@K c #97141E",
"@J c #9B1A1D",
"@I c #871B11",
"@H c #8B4538",
"@G c #D5BABA",
"@F c #F8EBF5",
"@E c #FEFBFA",
"@D c #F8E9E1",
"@C c #E5C2B4",
"@B c #D59E8F",
"@A c #BF6456",
"@z c #B23129",
"@y c #C42626",
"@x c #D22226",
"@w c #D42427",
"@v c #C92826",
"@u c #B92C22",
"@t c #B3372D",
"@s c #B64544",
"@r c #AA3435",
"@q c #951B1A",
"@p c #7B221A",
"@o c #976C61",
"@n c #DDCDC9",
"@m c #F4E5E4",
"@l c #F8E0E6",
"@k c #CF8D98",
"@j c #90313B",
"@i c #792023",
"@h c #914F47",
"@g c #CFB0A2",
"@f c #F0E2DA",
"@e c #FEF9F1",
"@d c #FAE8DA",
"@c c #F8EEDD",
"@b c #C8A18C",
"@a c #953B2B",
"@0 c #B22923",
"@9 c #D02326",
"@8 c #D6232A",
"@7 c #C12729",
"@6 c #AD3F37",
"@5 c #D4998D",
"@4 c #EEBEB5",
"@3 c #BF716E",
"@2 c #892523",
"@1 c #77241D",
"@| c #905F56",
"@} c #D7C2C0",
"@[ c #FAE5EF",
"@< c #C4959F",
"@: c #9D6A6E",
"@_ c #D0B7B0",
"@( c #F6EADE",
"@/ c #E7E7D5",
"@^ c #AD9C88",
"@] c #793523",
"@{ c #A3251D",
"@~ c #CD2125",
"@! c #D2222B",
"@) c #B5262C",
"@' c #AC5C58",
"@, c #E5D3C9",
"@> c #F2DAD0",
"@; c #CDA099",
"@- c #873330",
"@= c #792722",
"@* c #88524B",
"@& c #CEB5B3",
"@% c #FFFBFF",
"@$ c #E9D3DC",
"@# c #DFCBCD",
"@@ c #EAE2DE",
"@+ c #EFEBE4",
"+Z c #BCA79D",
"+Y c #7B362B",
"+X c #971C16",
"+W c #BE181D",
"+V c #C5202A",
"+U c #A82E36",
"+T c #B98282",
"+S c #E8DDD7",
"+R c #FEFBF9",
"+Q c #DEC2BE",
"+P c #954748",
"+O c #812D2B",
"+N c #884E4A",
"+M c #CAB0AD",
"+L c #FBF3F7",
"+K c #D3BABB",
"+J c #7F3B36",
"+I c #891915",
"+H c #A61517",
"+G c #A2171E",
"+F c #9A3A42",
"+E c #D3AFB2",
"+D c #F5EEED",
"+C c #FCFCFB",
"+B c #E2CBCB",
"+A c #96454B",
"+z c #771F22",
"+y c #864946",
"+x c #CBB1AD",
"+w c #EBDBE0",
"+v c #9D6766",
"+u c #852F29",
"+t c #8B231F",
"+s c #8A2A2A",
"+r c #B6767B",
"+q c #EED4DA",
"+p c #F7F2F5",
"+o c #D0A9B0",
"+n c #8F3642",
"+m c #781E25",
"+l c #8B504E",
"+k c #CFB7B2",
"+j c #F8EBEF",
"+i c #DFC5BF",
"+h c #C1998D",
"+g c #B98A7E",
"+f c #C69A94",
"+e c #EDD0D1",
"+d c #FEF1F5",
"+c c #F7E5EE",
"+b c #C18D99",
"+a c #852837",
"+0 c #822A32",
"+9 c #95605F",
"+8 c #D6C0BC",
"+7 c #FAF3E9",
"+6 c #F7F1E6",
"+5 c #F5EFE3",
"+4 c #F0DFD6",
"+3 c #FCEFEE",
"+2 c #EDDCE4",
"+1 c #A86F7C",
"+| c #7A1F2D",
"+} c #722428",
"+[ c #A57A77",
"+< c #ECDDDA",
"+: c #E4D4DB",
"+_ c #9B656E",
"+( c #782A31",
"+/ c #713534",
"+^ c #C4AAA3",
"+] c #FAEFE9",
"+{ c #ECDFE1",
"+~ c #9D7275",
"+! c #622726",
"+) c #926A62",
"+' c #E8DDD2",
"+, c #FFFFFF",
"+> c #F9F3F0",
"+; c #BEA19D",
"+- c #876058",
"+= c #C4B1A3",
"+* c #FBF9ED",
"+& c #FEF8F1",
"+% c #ECDAD2",
"+$ c #D9C7BC",
"+# c #DFD5C5",
"+@ c #FFFFF3",
"++ c None",
"+++++++++++++++++++@+#+$+%+&++++++++++++++++++++++++++++++++++++++++++++++++++++++++",
"+++++++++++++++++++*+=+-+;+>+,++++++++++++++++++++++++++++++++++++++++++++++++++++++",
"+++++++++++++++++++'+)+!+~+{+,++++++++++++++++++++++++++++++++++++++++++++++++++++++",
"+++++++++++++++++]+^+/+(+_+:++++++++++++++++++++++++++++++++++++++++++++++++++++++++",
"+++++++++++++++++<+[+}+|+1+2+++++3+4+5+6+7++++++++++++++++++++++++++++++++++++++++++",
"+++++++++++++++++8+9+0+a+b+c+++d+e+f+g+h+i+j++++++++++++++++++++++++++++++++++++++++",
"+++++++++++++++++k+l+m+n+o+p+++q+r+s+t+u+v+w++++++++++++++++++++++++++++++++++++++++",
"+++++++++++++++++x+y+z+A+B+C+D+E+F+G+H+I+J+K+L++++++++++++++++++++++++++++++++++++++",
"+++++++++++++++++M+N+O+P+Q+R+S+T+U+V+W+X+Y+Z@+++++++++++++@@@#@$@%++++++++++++++++++",
"++++++++++++++++@&@*@=@-@;@>@,@'@)@!@~@{@]@^@/++++++++++@(@_@:@<@[@%++++++++++++++++",
"++++++++++++++++@}@|@1@2@3@4@5@6@7@8@9@0@a@b@c@d@e++++@f@g@h@i@j@k@l@m++++++++++++++",
"++++++++++++++++@n@o@p@q@r@s@t@u@v@w@x@y@z@A@B@C@D@E@F@G@H@I@J@K@L@M@N++++++++++++++",
"++++++++++++++++@O@P@Q@R@S@T@U@V@W@X@Y@Z#+#@###$#%#&#*#=#-#;#>#,#'#)#!++++++++++++++",
"++++++++++++++++#~#{#]#^#/#(#_#:#<#[#}#|#1#2#3#4#5#6#7#8#9#0#a#b#c#d#e++++++++++++++",
"++++++++++++++#f#g#h#i#j#k#l#m#n#o#p#q#r#s#t#u#v#w#x#y#z#A#B#C#D#E#F#G++++++++++++++",
"++++++++++++++#H#I#J#K#L#M#N#O#P#Q#R#S#T#U#V#W#X#Y#_#Z$+$@$#$$$%$&$*$=++++++++++++++",
"++++++++++++++$-$;$>$,$'$)$!$~${$]$^$/$($_$:$<$[$}$|$1$2$3$4$5$6$7$8$9++++++++++++++",
"++++++++++++++$0$a$b$c$d$e$f$g$h$i$j$k$l$m$n$o$p$q$r$s$t$u$v$w$x$y$z$A++++++++++++++",
"++++++++++++++$B$C$D$E$F$G$H$I$J$K$L$M$N$O$P$Q$R$S$T$U$V$W$X$Y$Z%+%@++++++++++++++++",
"++++++++++++++%#%$%%%&%*%=%-%;%>%,%'%)%!%~%{%]%^%/%(%_%:%<%[%}%|%1++++++++++++++++++",
"++++++++++++++%2%3%4%5%6%7%8%9%0%a%b%c%d%e%f%g%h%i%j%k%l%m%n%o%p%q++++++++++++++++++",
"++++++++++++++%r%s%t%u%v%w%x%y%z%A%B%C%D%E%F%G%H%I%J%K%L%M%N%O%P%Q++++++++++++++++++",
"++++++++++++++%R%S%T%U%V%W%X%Y%Z&+&@&#&$&%&&&*&=&-&;&>&,&'&)&!&~&{++++++++++++++++++",
"++++++++++++++++&]&^&/&(&_&:&<&[&}&|&1&2&3&4&5&6&7&8&9&0&a&b&c&d&e++++++++++++++++++",
"++++++++++++++++&f&g&h&i&j&k&l&m&n&o&p&q&r&s&t&u&v&w&x&y&z&A&B&C&D++++++++++++++++++",
"++++++++++++++++++&E&F&G&H&I&J&K&L&M&N&O&P&Q&R&S&T&U&V&W&X&Y&Z*+++++++++++++++++++++",
"++++++++++++++++++++*@*#*$*%*&***=*-*;*>*,*'*)*!*~*{*]*^*/*(*_++++++++++++++++++++++",
"++++++++++++++++++++*:*<*[*}*|*1*2*3*4*5*6*7*8*9*0*a*b*c*d*e*f++++++++++++++++++++++",
"++++++++++++++++++++++*g*h*i*j*k*l*m*n*o*p*q@v*r*s*t*u*v*w*x++++++++++++++++++++++++",
"++++++++++++++++++++++*y*z*A*B*C*D*E*F*G*H*I*J*K*L*M*N*O*P*Q++++++++++++++++++++++++",
"++++++++++++++++++++++*R*S*T*U*V*W*X*Y*Z=+=@=#=$=%=&=*===-++++++++++++++++++++++++++",
"++++++++++++++++++++++=;=>=,='=)=!=~={=]=^=/=(=_=:=<=[=}=|++++++++++++++++++++++++++",
"++++++++++++++++++++=1=2=3=4=5=6=7=8=9=0=a=b=c=d=e=f=g=h=i++++++++++++++++++++++++++",
"++++++++++++++++++++=j=k=l=m=n=o=p=q=r=s++=t=u=v=w=x=y=z=A=B=C=D++++++++++++++++++++",
"++++++++++++++++++=E=F=G=H=I=J=K=L=M=N=O++=P=Q=R=S=T=U=V=W=X=Y=Z-+++++++++++++++++++",
"++++++++++++++-@-#-$-%-&-*-=---;->-,-'-)++-!-~-{$'-]-^-/-(-_-:-<-[-}++++++++++++++++",
"++++++++++++++-|-1-2-3-4-5-6-7-8-9-0-a-b++-c-d-e-f-g-h-i-j-k-l-m-n-o++++++++++++++++",
"++++++++++++-p-q-r-s-t-u-v-w-x-y-z-A-B-C++-D-E@Z-F-G-H-I-J@w-K-L-M-N++++++++++++++++",
"++++++++++++-p-O-P-Q-R-S-T-U-V-W-X-Y-Z;+;@;#;$;%;&;*;=;-;;;>;,;';);!;~++++++++++++++",
"++++++++++++;{;];^;/;(;_;:;<;[;};|;1;2;3;4;5;6;7;8;9;0;a;b;c;d;e;f;g++++++++++++++++",
"++++++++++++++;h;i;j;k;l;m;n;o;p;q;r;s;t;u;v;w;x;y;z;A;B;C;D;E;F;G;H++++++++++++++++",
"++++++++++++++;I;J;K;L;M;N;O;P;Q;R;S;T;U++;V;W;X;Y;Z>+>@>#>$>%>&>*>=++++++++++++++++"};
