/* XPM */
static char * ball_red_xpm[] = {
"21 21 368 2",
"%, c #F7FEFB",
"%> c #FDFFFA",
"%; c #F9F3F8",
"%- c #9BA99E",
"%= c #5B7C5F",
"%* c #56785E",
"%& c #637A69",
"%% c #A2B9AC",
"%$ c #F8FAF8",
"%# c #F2EEED",
"%@ c #7D9887",
"%+ c #447457",
"$Z c #357A46",
"$Y c #637B62",
"$X c #CECDC9",
"$W c #F9FDFB",
"$V c #FEFEFB",
"$U c #F4F7F7",
"$T c #6D9980",
"$S c #3A8655",
"$R c #298E54",
"$Q c #40825C",
"$P c #98BBA9",
"$O c #EEF2EC",
"$N c #579571",
"$M c #2C8E56",
"$L c #269251",
"$K c #4C8260",
"$J c #C4D5CB",
"$I c #F7FEFD",
"$H c #FFF8FD",
"$G c #F3FCF8",
"$F c #68AB86",
"$E c #22914C",
"$D c #64A27A",
"$C c #DAF1E6",
"$B c #FDF8FD",
"$A c #EEF2ED",
"$z c #5A9C71",
"$y c #298E4C",
"$x c #2B9355",
"$w c #97C9AB",
"$v c #EDFBF6",
"$u c #F6FEFE",
"$t c #FDFEFC",
"$s c #FFFBFD",
"$r c #FDFBFF",
"$q c #EFF5F0",
"$p c #599F74",
"$o c #24934B",
"$n c #389053",
"$m c #B0D6BD",
"$l c #F0FDFB",
"$k c #FAF7FE",
"$j c #E0EEE9",
"$i c #479366",
"$h c #2B8D4B",
"$g c #4C9160",
"$f c #DFF0E0",
"$e c #FBFEFE",
"$d c #FBFFFC",
"$c c #FCFEFD",
"$b c #F3FEFF",
"$a c #FAFFFE",
"$0 c #FFFAFF",
"$9 c #F0F1EF",
"$8 c #5B976E",
"$7 c #298E47",
"$6 c #3A8D57",
"$5 c #A7C5AF",
"$4 c #F2F5F4",
"$3 c #F1EBF0",
"$2 c #BED6CB",
"$1 c #35905E",
"$| c #20924D",
"$} c #4C8F61",
"$[ c #E0ECE0",
"$< c #FCFEFC",
"$: c #F8FEFC",
"$_ c #FEFCFF",
"$( c #EFF4F0",
"$/ c #5A9970",
"$^ c #299048",
"$] c #749D7E",
"${ c #809382",
"$~ c #6D7B6D",
"$! c #507B5D",
"$) c #2A8B50",
"$' c #459161",
"$, c #DAEEE1",
"$> c #FEFAFD",
"$; c #FFFAFD",
"$- c #FEFEFA",
"$= c #F9FFFA",
"$* c #FFFEFD",
"$& c #E7F5F0",
"$% c #529D6F",
"$$ c #229349",
"$# c #1F944F",
"$@ c #2B824B",
"$+ c #2E854F",
"#Z c #318C53",
"#Y c #278E4D",
"#X c #1D984C",
"#W c #249047",
"#V c #398556",
"#U c #9DB9A7",
"#T c #F8F8F8",
"#S c #FDFEFD",
"#R c #F9FEFF",
"#Q c #FEFDFF",
"#P c #FDF9FA",
"#O c #AAC2AF",
"#N c #3A8858",
"#M c #26914E",
"#L c #23914D",
"#K c #288F4D",
"#J c #25914C",
"#I c #1E944C",
"#H c #19964E",
"#G c #1C944F",
"#F c #2A8E51",
"#E c #428858",
"#D c #A4BAA3",
"#C c #E9E5E5",
"#B c #F7FCFE",
"#A c #F4FCFC",
"#z c #FBF9F7",
"#y c #E9ECE7",
"#x c #5E906F",
"#w c #2E8C51",
"#v c #268F4A",
"#u c #1F9250",
"#t c #23914E",
"#s c #25914B",
"#r c #239348",
"#q c #1F9345",
"#p c #249349",
"#o c #2A914B",
"#n c #289051",
"#m c #268C4E",
"#l c #3A7B4E",
"#k c #718776",
"#j c #C7D4D1",
"#i c #F2F9F9",
"#h c #FEF9FB",
"#g c #FEFEFF",
"#f c #FFFCFE",
"#e c #CDE0D3",
"#d c #388959",
"#c c #21944D",
"#b c #279044",
"#a c #24914C",
"#0 c #24914B",
"#9 c #219349",
"#8 c #1F9447",
"#7 c #249348",
"#6 c #308A49",
"#5 c #458E56",
"#4 c #2F8752",
"#3 c #1F9550",
"#2 c #268F4D",
"#1 c #40734E",
"#| c #4C5D52",
"#} c #D0D6D6",
"#[ c #FEFAFE",
"#< c #FDFEFE",
"#: c #FEFCFC",
"#_ c #AECAB8",
"#( c #2E8D57",
"#/ c #199649",
"#^ c #269141",
"#] c #279146",
"#{ c #249246",
"#~ c #209449",
"#! c #1E934C",
"#) c #2B9055",
"#' c #83C59F",
"#, c #D9F7E8",
"#> c #A9DEBC",
"#; c #279351",
"#- c #21934B",
"#= c #174A23",
"#* c #162017",
"#& c #D6DBDA",
"#% c #FAFBFE",
"#$ c #FCFDFE",
"## c #EDEAEB",
"#@ c #677C6D",
"#+ c #2F8252",
"@Z c #1E934B",
"@Y c #279344",
"@X c #279243",
"@W c #239244",
"@V c #1F9348",
"@U c #229451",
"@T c #308B5B",
"@S c #BBE6D8",
"@R c #8DA29A",
"@Q c #B9D9C1",
"@P c #429B60",
"@O c #318E50",
"@N c #214528",
"@M c #878D86",
"@L c #F1F6F6",
"@K c #F6FBFC",
"@J c #FCFDFD",
"@I c #F8FEFE",
"@H c #B5B4B6",
"@G c #1E201B",
"@F c #265939",
"@E c #2A8C50",
"@D c #249149",
"@C c #239347",
"@B c #229247",
"@A c #219348",
"@z c #22914A",
"@y c #318950",
"@x c #83B58F",
"@w c #B2C8B0",
"@v c #8EC49A",
"@u c #368C53",
"@t c #478D5E",
"@s c #BACEBE",
"@r c #FBFAFC",
"@q c #FAFCFE",
"@p c #FBFDFB",
"@o c #FDFBFC",
"@n c #E9F2F0",
"@m c #BABABC",
"@l c #B5AEAE",
"@k c #738A7A",
"@j c #5CA579",
"@i c #2C8C51",
"@h c #278F50",
"@g c #28904F",
"@f c #2D924D",
"@e c #32934C",
"@d c #3F8845",
"@c c #6C8C54",
"@b c #6A8452",
"@a c #37884E",
"@0 c #339158",
"@9 c #A7D7BB",
"@8 c #F7FBFA",
"@7 c #FDFAFE",
"@6 c #FDFCFE",
"@5 c #FDFBF8",
"@4 c #D9DADA",
"@3 c #C7C8C8",
"@2 c #E9E8E8",
"@1 c #EFF1EF",
"@| c #F1F8F4",
"@} c #C9D7CE",
"@[ c #99BDA5",
"@< c #ADD1BD",
"@: c #D4E7D6",
"@_ c #D9ECDE",
"@( c #C9A692",
"@/ c #E26D58",
"@^ c #9B815E",
"@] c #46814A",
"@{ c #479061",
"@~ c #DBE3DD",
"@! c #FDFEFA",
"@) c #C3C3C3",
"@' c #202020",
"@, c #939393",
"@> c #FBFCFA",
"@; c #F7FEF7",
"@- c #FCFCF6",
"@= c #FAFEFB",
"@* c #DCB1A3",
"@& c #E86E5A",
"@% c #D2B493",
"@$ c #9C865A",
"@# c #9E715A",
"@@ c #BBA197",
"@+ c #F7FBF9",
"+Z c #FAFEFE",
"+Y c #F5FEFE",
"+X c #CBCBCB",
"+W c #414141",
"+V c #ADADAD",
"+U c #FEFCFB",
"+T c #FEFDFD",
"+S c #FFFBF9",
"+R c #FAFBFB",
"+Q c #DDB8AC",
"+P c #D9745D",
"+O c #E0C7AA",
"+N c #DAA683",
"+M c #DA6B64",
"+L c #C7A095",
"+K c #F2FEF7",
"+J c #FEFBFF",
"+I c #E7E7E7",
"+H c #E8E8E8",
"+G c #D4D4D4",
"+F c #FDFDFD",
"+E c #FDFCFD",
"+D c #FEFCFE",
"+C c #FEFCFD",
"+B c #FDFBFD",
"+A c #E4C6BD",
"+z c #CC7663",
"+y c #E1C7B6",
"+x c #F3E3CC",
"+w c #E0A09D",
"+v c #EED9D4",
"+u c #F4FEF9",
"+t c #FEFAFF",
"+s c #FFFAFE",
"+r c #FEFDFE",
"+q c #EFEFEF",
"+p c #989898",
"+o c #C4C4C4",
"+n c #FAFEFF",
"+m c #FCFEFF",
"+l c #FDFEFF",
"+k c #FDFCFF",
"+j c #F3E6E0",
"+i c #BD7A6C",
"+h c #D7BDBB",
"+g c #F5FEFA",
"+f c #FBFAFB",
"+e c #FFF8FE",
"+d c #FCFDFF",
"+c c #FAFEFC",
"+b c #F2FFFA",
"+a c #FBFBFB",
"+0 c #FCFCFC",
"+9 c #767676",
"+8 c #ACACAC",
"+7 c #FEFEFE",
"+6 c #FEFFFF",
"+5 c #FDFDFE",
"+4 c #FCFEFE",
"+3 c #FBFDFF",
"+2 c #FBFBF4",
"+1 c #DFC1B2",
"+| c #E6DADD",
"+} c #F5FEFF",
"+[ c #F8FDFF",
"+< c #FEF8FE",
"+: c #FCFCFE",
"+_ c #F6FEFD",
"+( c #F9FFFC",
"+/ c #F2FFFD",
"+^ c #FAFAFA",
"+] c #F9F9F9",
"+{ c #D9D9D9",
"+~ c #FFFFFF",
"+! c #FFFEFF",
"+) c #FEFDFC",
"+' c #FEFBFE",
"+, c #FCFFFD",
"+> c #F8FEFF",
"+; c #F6FEF9",
"+- c #FDFAEB",
"+= c #F8FCFC",
"+* c #F9FEFE",
"+& c #FEFBFB",
"+% c #FFFBFA",
"+$ c #F9FEFA",
"+# c #FCFDFC",
"+@ c #FEF9FE",
"++ c #FEF9FF",
"+++@+#+$+%+&+*+=+-+;+>+,+'+)+!+~+~+{+{+]+^",
"+/+(+_+:+<+[+}+|+1+2+3+4+5+4+6+~+7+8+9+0+a",
"+b+c+*+d+e+f+g+h+i+j+k+l+m+n+6+7+7+o+p+q+0",
"+r+s+t+u+v+w+x+y+z+A+B+C+D+E+F+7+7+G+H+I+F",
"+n+J+J+K+L+M+N+O+P+Q+R+S+T+U+T+0+a+V+W+X+a",
"+Y+m+Z@+@@@#@$@%@&@*@=@-+u@;@>+F+a@,@'@)+a",
"@!+D+*+<@~@{@]@^@/@(@_@:@<@[@}@|@1@2@3@4+0",
"@5@6@7@8@9@0@a@b@c@d@e@f@g@h@i@j@k@l@m@n@o",
"@p@q@r@s@t@u@v@w@x@y@z@A@B@C@D@E@F@G@H@I@J",
"@K@L@M@N@O@P@Q@R@S@T@U@V@W@X@Y@Z#+#@###$#$",
"#%#&#*#=#-#;#>#,#'#)#!#~#{#]#^#/#(#_#:+E#<",
"#[#}#|#1#2#3#4#5#6#7#8#9#0#a#b#c#d#e#f#g#g",
"#h#i#j#k#l#m#n#o#p#q#r#s#t#u#v#w#x#y+D+4+r",
"#z#A#B#C#D#E#F#G#H#I#J#K#L#G#M#N#O#P#Q+Z+D",
"#R#S#<#<#T#U#V#W#X#Y#Z$+$@$#$$$%$&+4$*$=$-",
"#Q$;#:#Q$>$,$'#0$)$!$~${$]#Z$^$/$($_+D$:$<",
"+n+C+)$_+s$[$}$|$1$2$3$4$5$6$7$8$9$0+s@I$a",
"$b$c$d$e@o$f$g$h$i$j$k$l$m$n$o$p$q+'$0+Z+l",
"$r$s$t$u$v$w$x$y$z$A$B$C$D$E#t$F$G+5#f$e$_",
"+@$H+)$I$J$K$L$M$N$O+R$P$Q$R$S$T$U+4$V+c+D",
"+}#S$<$W$X$Y$Z%+%@%#%$%%%&%*%=%-%;#$%>%,+5"};
