/* XPM */
static char * ball_red_xpm[] = {
"42 42 970 2",
">Q c #FCF1F8",
">P c #D6D5D3",
">O c #96A99A",
">N c #7B927C",
">M c #80967E",
">L c #7C8F7C",
">K c #778375",
">J c #848C80",
">I c #8E998F",
">H c #A7B9AE",
">G c #C6D8CE",
">F c #D5E5DC",
">E c #DBD9D6",
">D c #B1BBB3",
">C c #7C9487",
">B c #647F6F",
">A c #5C8168",
">z c #4A8256",
">y c #508257",
">x c #6A8368",
">w c #93978A",
">v c #BCB5B1",
">u c #E2DBDA",
">t c #E6DCE0",
">s c #A8AEA8",
">r c #52735D",
">q c #3A6141",
">p c #34603C",
">o c #336744",
">n c #3A694B",
">m c #365841",
">l c #42614C",
">k c #6C8C7A",
">j c #AFC9BB",
">i c #CFE3D9",
">h c #D9DBD6",
">g c #829A8A",
">f c #407056",
">e c #2E6648",
">d c #266A41",
">c c #21773C",
">b c #28753B",
">a c #386640",
">0 c #536451",
">9 c #9A9B94",
">8 c #E3E2E0",
">7 c #E4E6E4",
">6 c #8FA497",
">5 c #3E7053",
">4 c #3F7A53",
">3 c #3B8253",
">2 c #2A8752",
">1 c #308A58",
">| c #387C55",
">} c #3E7556",
">[ c #5A866F",
">< c #B2D0C2",
">: c #DFF3EA",
">_ c #D0DED3",
">( c #709D82",
">/ c #347E55",
">^ c #338B5C",
">] c #298C55",
">{ c #23914F",
">~ c #339356",
">! c #3F7F55",
">) c #476A52",
">' c #8E9E92",
">, c #DEE7E2",
">> c #ECF6F1",
">; c #97BBA8",
">- c #397E57",
">= c #348754",
">* c #2D8F53",
">& c #1D9550",
">% c #368C5A",
">$ c #3A7A56",
"># c #6F9E85",
">@ c #C7E2D6",
">+ c #E8FCF4",
";Z c #DEEDDF",
";Y c #71A585",
";X c #2A804F",
";W c #278E53",
";V c #1E914E",
";U c #19974D",
";T c #218F4E",
";S c #2E7B4E",
";R c #5B886D",
";Q c #B0C8BA",
";P c #DDEEE6",
";O c #9FCCB5",
";N c #378E5D",
";M c #268C4F",
";L c #1D904A",
";K c #19984C",
";J c #1E8F4B",
";I c #2C804C",
";H c #55906B",
";G c #AFD5C0",
";F c #E9FCF5",
";E c #E1EFE1",
";D c #7BAD8C",
";C c #318752",
";B c #278D4C",
";A c #21934C",
";z c #1B964E",
";y c #489367",
";x c #9CC8AF",
";w c #D8F0E4",
";v c #86BC9E",
";u c #2C8B55",
";t c #1B9348",
";s c #1C8F45",
";r c #298849",
";q c #539668",
";p c #ADD4BC",
";o c #E8FBF4",
";n c #D9E8DB",
";m c #74A584",
";l c #348550",
";k c #2B8949",
";j c #288D48",
";i c #218A48",
";h c #3F9660",
";g c #98D1AC",
";f c #DCF8E7",
";e c #F2FFFC",
";d c #76AE8D",
";c c #2A8951",
";b c #21944D",
";a c #1B9044",
";0 c #238943",
";9 c #3E8E55",
";8 c #8ABC97",
";7 c #E2F7EC",
";6 c #F4FEFE",
";5 c #F5FFFF",
";4 c #C8DCD1",
";3 c #609675",
";2 c #2F844E",
";1 c #2C8A49",
";| c #2C8A48",
";} c #2E8348",
";[ c #589A6C",
";< c #C6E8CE",
";: c #EEFEF3",
";_ c #CCD9CD",
";( c #76A585",
";/ c #249249",
";^ c #229246",
";] c #2D8E4C",
";{ c #3E8753",
";~ c #82B08E",
";! c #DDF5E7",
";) c #B2D4C9",
";' c #4C936E",
";, c #288B52",
";> c #26924D",
";; c #288D49",
";- c #348049",
";= c #65966F",
";* c #CADFC9",
";& c #EBF6E6",
";% c #CDD8CC",
";$ c #79A184",
";# c #30834B",
";@ c #268D45",
";+ c #258F44",
"-Z c #319050",
"-Y c #3E8555",
"-X c #75A080",
"-W c #CBE3D3",
"-V c #E5F7F1",
"-U c #A8D0C0",
"-T c #428F68",
"-S c #1F8B4F",
"-R c #1B924B",
"-Q c #23904B",
"-P c #33824B",
"-O c #61906B",
"-N c #BBD0BA",
"-M c #EAF4E4",
"-L c #CED7CC",
"-K c #7BA185",
"-J c #32824B",
"-I c #2A8B45",
"-H c #268C43",
"-G c #2C8C4E",
"-F c #3B8255",
"-E c #79A083",
"-D c #DAEBDC",
"-C c #E9E8E6",
"-B c #DDD6D9",
"-A c #D8CBD4",
"-z c #CEC0C8",
"-y c #C8D0CB",
"-x c #91B7A3",
"-w c #3C8B62",
"-v c #1F8E51",
"-u c #19934C",
"-t c #23954E",
"-s c #30884F",
"-r c #58916A",
"-q c #ACCBB3",
"-p c #CDD9CD",
"-o c #79A386",
"-n c #33834E",
"-m c #2B8D47",
"-l c #268E44",
"-k c #2A8C4E",
"-j c #357F51",
"-i c #6D9778",
"-h c #C0D4C1",
"-g c #B6BEB3",
"-f c #9C9D98",
"-e c #94908F",
"-d c #86807D",
"-c c #768275",
"-b c #548165",
"-a c #308353",
"-0 c #249252",
"-9 c #1E934C",
"-8 c #24924E",
"-7 c #2B864E",
"-6 c #56966D",
"-5 c #ACD2BA",
"-4 c #C9DCD0",
"-3 c #76A688",
"-2 c #2F864F",
"-1 c #289048",
"-| c #239145",
"-} c #289350",
"-[ c #328752",
"-< c #467F57",
"-: c #658C6D",
"-_ c #597960",
"-( c #4B6851",
"-/ c #47634C",
"-^ c #455F47",
"-] c #3D6444",
"-{ c #2E7044",
"-~ c #27844A",
"-! c #24934E",
"-) c #219048",
"-' c #278E49",
"-, c #2A844C",
"-> c #559870",
"-; c #B6DBC4",
"-- c #DCF4E6",
"-= c #C7DFD3",
"-* c #72A989",
"-& c #2A884E",
"-% c #239249",
"-$ c #1D9345",
"-# c #1E964E",
"-@ c #297A45",
"-+ c #286F40",
"=Z c #2C7447",
"=Y c #2D794B",
"=X c #307E4D",
"=W c #398452",
"=V c #32854E",
"=U c #248748",
"=T c #21954E",
"=S c #1E984B",
"=R c #209043",
"=Q c #2A8D47",
"=P c #2F854F",
"=O c #488761",
"=N c #94B6A1",
"=M c #BACCC1",
"=L c #F3FEF8",
"=K c #CBE4D7",
"=J c #6BA784",
"=I c #28874D",
"=H c #22914A",
"=G c #1B9448",
"=F c #17974C",
"=E c #1C934E",
"=D c #268B4D",
"=C c #27884B",
"=B c #2B8F51",
"=A c #269051",
"=z c #289554",
"=y c #299553",
"=x c #23934E",
"=w c #1A944A",
"=v c #199B4E",
"=u c #17994A",
"=t c #1C9245",
"=s c #2A924D",
"=r c #308A51",
"=q c #30764B",
"=p c #548063",
"=o c #A1B6A6",
"=n c #E7EEE6",
"=m c #FFFFFE",
"=l c #F7F3EF",
"=k c #E2EAE1",
"=j c #A3C2AC",
"=i c #4E8E67",
"=h c #28834C",
"=g c #28914F",
"=f c #20944D",
"=e c #19954D",
"=d c #19944E",
"=c c #22924E",
"=b c #27924F",
"=a c #29914F",
"=0 c #288F4D",
"=9 c #26904E",
"=8 c #22904B",
"=7 c #1D914A",
"=6 c #1A954D",
"=5 c #19994F",
"=4 c #14944C",
"=3 c #16934D",
"=2 c #209551",
"=1 c #288F51",
"=| c #2E874F",
"=} c #317848",
"=[ c #61906C",
"=< c #B1C8B1",
"=: c #D6DACD",
"=_ c #E1DAD7",
"=( c #EDEBE5",
"=/ c #C0CBBE",
"=^ c #679174",
"=] c #357B4F",
"={ c #2B864F",
"=~ c #2C9151",
"=! c #208E4A",
"=) c #1B924E",
"=' c #1C9450",
"=, c #1F924D",
"=> c #268E4C",
"=; c #288E4B",
"=- c #268F4A",
"== c #23924A",
"=* c #20944B",
"=& c #1C954B",
"=% c #19954C",
"=$ c #1B964F",
"=# c #1A954F",
"=@ c #188F4B",
"=+ c #208D4C",
"*Z c #2D9254",
"*Y c #2C884D",
"*X c #3A804E",
"*W c #638E69",
"*V c #94A28F",
"*U c #BAB9B3",
"*T c #DCD7D8",
"*S c #DFE2DA",
"*R c #8FA794",
"*Q c #457C59",
"*P c #2D7E4C",
"*O c #2C8E50",
"*N c #2A914E",
"*M c #228E49",
"*L c #1D924F",
"*K c #1D9351",
"*J c #20924E",
"*I c #268F4B",
"*H c #259147",
"*G c #229348",
"*F c #1F9347",
"*E c #1B9144",
"*D c #1C9246",
"*C c #23974D",
"*B c #26974D",
"*A c #23914B",
"*z c #259050",
"*y c #289253",
"*x c #288F50",
"*w c #2B834A",
"*v c #337345",
"*u c #456B4C",
"*t c #677767",
"*s c #A7AEA9",
"*r c #DBE2E2",
"*q c #C2CFC3",
"*p c #658F72",
"*o c #388154",
"*n c #2D8D53",
"*m c #26904C",
"*l c #248D46",
"*k c #258F48",
"*j c #21934F",
"*i c #1F9150",
"*h c #21914E",
"*g c #249148",
"*f c #229346",
"*e c #209446",
"*d c #1D9243",
"*c c #209344",
"*b c #288F45",
"*a c #2A8B43",
"*0 c #2D8D4A",
"*9 c #2A8E50",
"*8 c #218D4F",
"*7 c #1D8E4D",
"*6 c #238F4D",
"*5 c #2B864B",
"*4 c #36764A",
"*3 c #42694C",
"*2 c #677C6C",
"*1 c #9BAAA3",
"*| c #B6C5C2",
"*} c #C8D3D2",
"*[ c #EEF6EE",
"*< c #A7C1AE",
"*: c #498460",
"*_ c #2A8650",
"*( c #269452",
"*/ c #21944B",
"*^ c #228D41",
"*] c #288E45",
"*{ c #24914D",
"*~ c #22914E",
"*! c #23904D",
"*) c #23904C",
"*' c #1F9446",
"*, c #1C9343",
"*> c #1E9243",
"*; c #269447",
"*- c #2C9047",
"*= c #2B843F",
"** c #2D7F3D",
"*& c #328345",
"*% c #29814A",
"*$ c #22894F",
"*# c #219754",
"*@ c #1F9951",
"*+ c #21924D",
"&Z c #338B52",
"&Y c #478259",
"&X c #47694F",
"&W c #4A5F50",
"&V c #7E8C86",
"&U c #BEC7C6",
"&T c #EBF7EE",
"&S c #99BDA6",
"&R c #3C855B",
"&Q c #228B50",
"&P c #1A944C",
"&O c #1E9749",
"&N c #269244",
"&M c #2A9043",
"&L c #268F49",
"&K c #25904C",
"&J c #24904B",
"&I c #23914A",
"&H c #1F9448",
"&G c #1D9447",
"&F c #1F9548",
"&E c #24964B",
"&D c #258D47",
"&C c #268241",
"&B c #3D8A50",
"&A c #5A9966",
"&z c #609D6F",
"&y c #468D60",
"&x c #26814B",
"&w c #1C8E4C",
"&v c #17984D",
"&u c #149246",
"&t c #29914E",
"&s c #408956",
"&r c #2A5332",
"&q c #0C1E0F",
"&p c #3E4A42",
"&o c #A5ACAA",
"&n c #DCEDE1",
"&m c #8AB59B",
"&l c #36875A",
"&k c #219253",
"&j c #159549",
"&i c #189544",
"&h c #2A8F41",
"&g c #288F46",
"&f c #269048",
"&e c #249147",
"&d c #239247",
"&c c #1E9449",
"&b c #1B9349",
"&a c #1D934B",
"&0 c #289652",
"&9 c #25884C",
"&8 c #3D8F5B",
"&7 c #86C69B",
"&6 c #C4E9D2",
"&5 c #D3EEDF",
"&4 c #AFDFC1",
"&3 c #5AA777",
"&2 c #1F8949",
"&1 c #149347",
"&| c #149748",
"&} c #28964F",
"&[ c #2F7B44",
"&< c #0B2A0F",
"&: c #000100",
"&_ c #1B211C",
"&( c #A6ACAA",
"&/ c #F4F3F0",
"&^ c #CDD9CF",
"&] c #75A186",
"&{ c #358759",
"&~ c #1F9051",
"&! c #17984C",
"&) c #199746",
"&' c #21903F",
"&, c #298F40",
"&> c #299044",
"&; c #269145",
"&- c #249144",
"&= c #229245",
"&* c #1F954B",
"&& c #1D954C",
"&% c #1F9350",
"&$ c #248F54",
"&# c #298453",
"&@ c #77BD99",
"&+ c #D4FBEC",
"%Z c #F3FEFD",
"%Y c #FBFEFD",
"%X c #F6FEFB",
"%W c #B0E4C2",
"%V c #409D62",
"%U c #168B43",
"%T c #1C984B",
"%S c #27924C",
"%R c #216834",
"%Q c #031605",
"%P c #272C27",
"%O c #BCC1BF",
"%N c #EAE7E5",
"%M c #B1BAB1",
"%L c #517960",
"%K c #327D52",
"%J c #238E52",
"%I c #18944B",
"%H c #1B9648",
"%G c #239342",
"%F c #2B9242",
"%E c #299242",
"%D c #269142",
"%C c #249143",
"%B c #209346",
"%A c #1E944A",
"%z c #1F954E",
"%y c #219354",
"%x c #1F8550",
"%w c #31885D",
"%v c #9ED4C1",
"%u c #EDFEFE",
"%t c #CAE0DD",
"%s c #A1B5AB",
"%r c #CBDBCE",
"%q c #D3F7DE",
"%p c #60B27B",
"%o c #1C8742",
"%n c #26964E",
"%m c #2C8B4B",
"%l c #165426",
"%k c #000A01",
"%j c #181C16",
"%i c #7C817B",
"%h c #DADFDD",
"%g c #EFECEE",
"%f c #D1CDCE",
"%e c #7A7D78",
"%d c #1F3A27",
"%c c #2B6944",
"%b c #35935C",
"%a c #219350",
"%0 c #1C9248",
"%9 c #239245",
"%8 c #2A9345",
"%7 c #279343",
"%6 c #249242",
"%5 c #239243",
"%4 c #219244",
"%3 c #1F9246",
"%2 c #1D9248",
"%1 c #1F934D",
"%| c #259456",
"%} c #228550",
"%[ c #31855B",
"%< c #9ED3BE",
"%: c #F1FCFC",
"%_ c #93A6A2",
"%( c #182A1E",
"%/ c #809581",
"%^ c #CFF3D9",
"%] c #60AC77",
"%{ c #218342",
"%~ c #2C8E4E",
"%! c #3D8D56",
"%) c #22522D",
"%' c #354435",
"%, c #91978E",
"%> c #CED1CD",
"%; c #DDE0DD",
"%- c #F5F7F9",
"%= c #E1E1E3",
"%* c #979294",
"%& c #33312F",
"%% c #020A03",
"%$ c #1C492C",
"%# c #3B875A",
"%@ c #2C8F54",
"%+ c #21904B",
"$Z c #228F47",
"$Y c #228F44",
"$X c #249345",
"$W c #239244",
"$V c #229244",
"$U c #219145",
"$T c #209247",
"$S c #1F9248",
"$R c #1F914A",
"$Q c #238F4E",
"$P c #2A8B52",
"$O c #2B7C4D",
"$N c #71AD88",
"$M c #D9F6E5",
"$L c #CDDAD1",
"$K c #869886",
"$J c #AFD0B3",
"$I c #A4D9B2",
"$H c #46965F",
"$G c #237F43",
"$F c #297F47",
"$E c #448458",
"$D c #6D9275",
"$C c #C0CDC1",
"$B c #E5EBE3",
"$A c #F6FAFA",
"$z c #D2D5D6",
"$y c #7E797C",
"$x c #272021",
"$w c #020202",
"$v c #091F10",
"$u c #2B6642",
"$t c #2C834E",
"$s c #289051",
"$r c #279450",
"$q c #229249",
"$p c #219249",
"$o c #229248",
"$n c #219248",
"$m c #219348",
"$l c #229448",
"$k c #229347",
"$j c #238F47",
"$i c #2E914D",
"$h c #2D8044",
"$g c #3F7F4C",
"$f c #82AD84",
"$e c #C4DABB",
"$d c #D6F0D0",
"$c c #9CD1A5",
"$b c #4B9761",
"$a c #2F874D",
"$0 c #2E884E",
"$9 c #34824F",
"$8 c #669B76",
"$7 c #C3DDC9",
"$6 c #F6FFF7",
"$5 c #DBE8E6",
"$4 c #ACB3B4",
"$3 c #B6B0B3",
"$2 c #B4A9AB",
"$1 c #443D3C",
"$| c #1C271D",
"$} c #598669",
"$[ c #4D996B",
"$< c #27894E",
"$: c #1E8A47",
"$_ c #1F904A",
"$( c #1F924C",
"$/ c #1F924B",
"$^ c #1F9149",
"$] c #1F9045",
"${ c #209143",
"$~ c #229242",
"$! c #228E3F",
"$) c #27893D",
"$' c #398C46",
"$, c #468748",
"$> c #517F48",
"$; c #678453",
"$- c #6A8D5D",
"$= c #448851",
"$* c #268045",
"$& c #26864A",
"$% c #338E55",
"$$ c #5FA87A",
"$# c #ADD9BD",
"$@ c #DBF4E3",
"$+ c #F9FFFF",
"#Z c #D2DEDB",
"#Y c #989F9F",
"#X c #D7D6D7",
"#W c #FDFCFD",
"#V c #C5BFBD",
"#U c #8C918A",
"#T c #D3E4DA",
"#S c #ADDBC2",
"#R c #559B70",
"#Q c #2F804F",
"#P c #2E8552",
"#O c #298750",
"#N c #25854C",
"#M c #26864D",
"#L c #2D8A50",
"#K c #368F52",
"#J c #3C9456",
"#I c #419859",
"#H c #409555",
"#G c #3E8344",
"#F c #598447",
"#E c #818E57",
"#D c #918F5C",
"#C c #7D8250",
"#B c #51703C",
"#A c #337B42",
"#z c #2B8E50",
"#y c #218C4E",
"#x c #37955F",
"#w c #A3D8BC",
"#v c #E4FBF3",
"#u c #F2F4F3",
"#t c #CACECD",
"#s c #C1C3C2",
"#r c #EDEDEB",
"#q c #DCDDDA",
"#p c #FAFBFA",
"#o c #F3FCF8",
"#n c #CBE0D4",
"#m c #A1B9AA",
"#l c #8AA995",
"#k c #6A987B",
"#j c #5F9775",
"#i c #6AA383",
"#h c #87B79A",
"#g c #A4C8AC",
"#f c #B5D4B9",
"#e c #BADAC2",
"#d c #B1D6BE",
"#c c #AAB499",
"#b c #A87C5F",
"#a c #CE6E53",
"#0 c #E47A60",
"#9 c #B68462",
"#8 c #6C7B4F",
"#7 c #3E7C45",
"#6 c #2C8B4D",
"#5 c #1F8E50",
"#4 c #3E9667",
"#3 c #BEE0D0",
"#2 c #FEFFFF",
"#1 c #E8E7E7",
"#| c #B2B2B2",
"#} c #A4A4A3",
"#[ c #C5C5C5",
"#< c #FCFDFC",
"#: c #F8FAF9",
"#_ c #F4F5F5",
"#( c #EFF2EF",
"#/ c #CFE3D3",
"#^ c #C6E2D1",
"#] c #D0ECDF",
"#{ c #E2F5EC",
"#~ c #EEF7EE",
"#! c #F2F9ED",
"#) c #F6FCF7",
"#' c #F3FDF9",
"#, c #EBD8CD",
"#> c #D68476",
"#; c #F06253",
"#- c #F66251",
"#= c #BE785D",
"#* c #848962",
"#& c #5A7D4A",
"#% c #437B43",
"#$ c #3A7E4A",
"## c #639370",
"#@ c #C6D1C3",
"#+ c #EFE1E0",
"@Z c #EEEEEE",
"@Y c #9F9E9E",
"@X c #2D2D2D",
"@W c #292929",
"@V c #787878",
"@U c #C1C1C1",
"@T c #F7F7F7",
"@S c #EFFDEF",
"@R c #E9FDF0",
"@Q c #EEFFFA",
"@P c #E1C9BD",
"@O c #CC8171",
"@N c #EA6453",
"@M c #EE6551",
"@L c #CB8D71",
"@K c #BCBC94",
"@J c #8F9161",
"@I c #7E7A4C",
"@H c #7C734E",
"@G c #84725B",
"@F c #AF998D",
"@E c #D7C6C1",
"@D c #ECE6E3",
"@C c #F5F5F5",
"@B c #959595",
"@A c #000000",
"@z c #2F2F2F",
"@y c #D1D1D1",
"@x c #FEFEFE",
"@w c #FAFFFB",
"@v c #C88674",
"@u c #E56D58",
"@t c #E66B54",
"@s c #D29E80",
"@r c #E3E0BA",
"@q c #B9A173",
"@p c #B77C57",
"@o c #CB7864",
"@n c #A95A4E",
"@m c #976259",
"@l c #C5B7AB",
"@k c #ECF0E7",
"@j c #F4F4F4",
"@i c #919191",
"@h c #151515",
"@g c #040404",
"@f c #515151",
"@e c #EAEAEA",
"@d c #F8FEF9",
"@c c #E6DAD0",
"@b c #C78B79",
"@a c #DC705A",
"@0 c #DB6B53",
"@9 c #CB9D81",
"@8 c #EAE8C7",
"@7 c #DCBA8F",
"@6 c #CE7757",
"@5 c #EE7065",
"@4 c #D05B58",
"@3 c #A35D55",
"@2 c #CFC4B4",
"@1 c #F3FCF5",
"@| c #B4B4B4",
"@} c #727272",
"@[ c #5F5F5F",
"@< c #828282",
"@: c #ECDFD9",
"@_ c #CA9383",
"@( c #D5725C",
"@/ c #D36C54",
"@^ c #CC9F87",
"@] c #EDEACF",
"@{ c #F4E3BF",
"@~ c #D58A6D",
"@! c #DE625C",
"@) c #D56261",
"@' c #B7766D",
"@, c #DDD5C7",
"@> c #F6FFFC",
"@; c #CECECE",
"@- c #D3D3D3",
"@= c #E4E4E4",
"@* c #B6B6B6",
"@& c #E9E9E9",
"@% c #F3E6E1",
"@$ c #C99788",
"@# c #CA715B",
"@@ c #D06F59",
"@+ c #D0A18D",
"+Z c #EFE9D4",
"+Y c #FAF3D4",
"+X c #E1B299",
"+W c #D27671",
"+V c #D37979",
"+U c #D4A19C",
"+T c #EEE8DF",
"+S c #F3FFF8",
"+R c #FAFAFA",
"+Q c #CDCDCD",
"+P c #FBFBFB",
"+O c #C7C7C7",
"+N c #E8E8E8",
"+M c #FAF1EE",
"+L c #D3AB9E",
"+K c #C47360",
"+J c #CD715F",
"+I c #C69688",
"+H c #E7DDD0",
"+G c #FDFBE6",
"+F c #F4E6D5",
"+E c #E9C0BC",
"+D c #EABCBE",
"+C c #F8E0E0",
"+B c #FCFAF7",
"+A c #F9FFFA",
"+z c #D4D4D4",
"+y c #BFBFBF",
"+x c #C3C3C3",
"+w c #AFAFAF",
"+v c #EBEBEB",
"+u c #FEFDFC",
"+t c #E1C8BC",
"+s c #C37B6A",
"+r c #BD695B",
"+q c #BF9088",
"+p c #E6D9D5",
"+o c #FCFBF5",
"+n c #FDF7F6",
"+m c #FDF4F6",
"+l c #FEF8FC",
"+k c #FDFFFD",
"+j c #EFEFEF",
"+i c #858585",
"+h c #2E2E2E",
"+g c #747474",
"+f c #FEFEFC",
"+e c #EBD9CD",
"+d c #BE8373",
"+c c #A0584D",
"+b c #B18785",
"+a c #EADFE1",
"+0 c #FEFDFE",
"+9 c #FFF9FF",
"+8 c #FCFCFC",
"+7 c #9E9E9E",
"+6 c #101010",
"+5 c #585858",
"+4 c #F0F0F0",
"+3 c #FFFFFB",
"+2 c #FBF1E5",
"+1 c #D8B4A3",
"+| c #B0796E",
"+} c #BE9EA0",
"+[ c #F2ECEF",
"+< c #FDFDFD",
"+: c #CCCCCC",
"+_ c #3B3B3B",
"+( c #4E4E4E",
"+/ c #ECECEC",
"+^ c #FFFFFF",
"+] c #FFFFF1",
"+{ c #F8EAD7",
"+~ c #EFD9CD",
"+! c #EFE3E5",
"+) c #F2EFF7",
"+' c #E1E1E1",
"+, c #878787",
"+> c #7D7D7D",
"+; c #EDEDED",
"+- c #FFFBE9",
"+= c #FEFCEF",
"+* c #FEFEFD",
"+& c #FDFDFF",
"+% c #F1F1F1",
"+$ c #DBDBDB",
"+# c #D2D2D2",
"+@ c #F3F3F3",
"++ c None",
"+++++++++++++++++++++++++++++++++++++++++++++++++++++++++++++++++++++@+#+$+%++++++++",
"+++++++++++++++++++++++++++++&+*+=+-+++++++++++++++++++++++++++++++++;+>+,+'++++++++",
"+++++++++++++++++++++++++++++)+!+~+{+]+++++++++++++++++++++++++++++^+/+(+_+:+<++++++",
"+++++++++++++++++++++++++++++[+}+|+1+2+3+++++++++++++++++++++++++++^+4+5+6+7+8+^++++",
"+++++++++++++++++++9+0+^+++++a+b+c+d+e+f+++++++++++++++++++++++++++^+4+g+h+i+j+^++++",
"+++++++++++++++k+0+l+m+n+o+++p+q+r+s+t+u+^+++++++++++++++++++++++++++v+w+x+y+z+<++++",
"+++++++++++++++A+B+C+D+E+F+G+H+I+J+K+L+M+^+++++++++++++++++++++++++++N+O+P+'+Q+R++++",
"+++++++++++++++S+T+U+V+W+X+Y+Z@+@@@#@$@%+^++++++++++++++++++++++++++@&@*@=@-@;+<++++",
"++++++++++++++@>@,@'@)@!@~@{@]@^@/@(@_@:+k+++++++++++++++++++++++++^+;@<@[@}@|+R++++",
"++++++++++++++@1@2@3@4@5@6@7@8@9@0@a@b@c@d+++++++++++++++++++++++++^@e@f@g@h@i@j++++",
"++++++++++++++@k@l@m@n@o@p@q@r@s@t@u@v@c@w++++++++++++++++++++++++@x@y@z@A+6@B@C++++",
"++++++++++++++@D@E@F@G@H@I@J@K@L@M@N@O@P++++++++++@Q@R@S+^+++++++^@T@U@V@W@X@Y@Z++++",
"++++++++++++++++#+#@###$#%#&#*#=#-#;#>#,#'#)#!#~#{#]#^#/#(#_#:++#<+;@-@=#[#}#|#1++++",
"++++++++++++++++#2#3#4#5#6#7#8#9#0#a#b#c#d#e#f#g#h#i#j#k#l#m#n#o#p#q#r@x@C#s#t#u++++",
"++++++++++++++++#v#w#x#y#z#A#B#C#D#E#F#G#H#I#J#K#L#M#N#O#P#Q#R#S#T#U#V#W#X#Y#Z$+++++",
"++++++++++++++$@$#$$$%$&$*$=$-$;$>$,$'$)$!$~${$]$^$/$($($_$:$<$[$}$|$1$2$3$4$5++++++",
"++++++++++++$6$7$8$9$0$a$b$c$d$e$f$g$h$i$j$k$l$m$n$n$o$p$q$r$s$t$u$v$w$x$y$z$A++++++",
"++++++++++$B$C$D$E$F$G$H$I$J$K$L$M$N$O$P$Q$R$S$T$U$V$W$X$Y$Z%+%@%#%$%%%&%*%=%-++++++",
"++++++%;%>%,%'%)%!%~%{%]%^%/%(%_%:%<%[%}%|%1%2%3%4%5%6%7%8%9%0%a%b%c%d%e%f%g++++++++",
"++++++%h%i%j%k%l%m%n%o%p%q%r%s%t%u%v%w%x%y%z%A%B$V%C%D%E%F%G%H%I%J%K%L%M%N++++++++++",
"++++++%O%P@A%Q%R%S%T%U%V%W%X%Y%Z&+&@&#&$&%&&&*$m&=&-&;&>&,&'&)&!&~&{&]&^&/++++++++++",
"++++++&(&_&:&<&[&}&|&1&2&3&4&5&6&7&8&9&0&a&b&c$m&d&e&f&g&h%6&i&j&k&l&m&n++++++++++++",
"++++++&o&p&q&r&s&t&u&v&w&x&y&z&A&B&C&D&E&F&G&H$m&I&J&K&L&M&N&O&P&Q&R&S&T++++++++++++",
"++++++&U&V&W&X&Y&Z*+*@*#*$*%*&***=*-*;*>*,*'$m&I*)*!*~*{*]*^*/*(*_*:*<*[++++++++++++",
"++++++*}*|*1*2*3*4*5*6*7*8*9*0*a*b*;*c*d*e*f*g&J*)*h*i*j*k*l*m*n*o*p*q++++++++++++++",
"++++++++++*r*s*t*u*v*w*x*y*z*A*B*C*D*E*F*G*H&L*I*{*J*K*L*M*N*O*P*Q*R*S++++++++++++++",
"++++++++++++*T*U*V*W*X*Y*Z=+=@=#=$=%=&=*===-=;=>*)=,='=)=!=~={=]=^=/=(++++++++++++++",
"++++++++++++++=_=:=<=[=}=|=1=2=3=4=5=6=7=8=9=0=a=b=c=d=e=f=g=h=i=j=k=l++++++++++++++",
"++++++++++++++++=m=n=o=p=q=r=s=t=u=v=w=x=y=z=A=B=C=D=E=F=G=H=I=J=K=L++++++++++++++++",
"++++++++++++++++++++=M=N=O=P=Q=R=S=T=U=V=W=X=Y=Z-+-@=1-#-$-%-&-*-=++++++++++++++++++",
"++++++++++++++++++++---;->-,-'-)-!-~-{-]-^-/-(-_-:-<-[-}-|-1-2-3-4++++++++++++++++++",
"++++++++++++++++++++++-5-6-7-8-9-0-a-b-c-d-e-f-g-h-i-j-k-l-m-n-o-p++++++++++++++++++",
"++++++++++++++++++++++-q-r-s-t-u-v-w-x-y-z-A-B-C-D-E-F-G-H-I-J-K-L++++++++++++++++++",
"++++++++++++++++++++-M-N-O-P-Q-R-S-T-U-V++++++++-W-X-Y-Z;+;@;#;$;%++++++++++++++++++",
"++++++++++++++++++++;&;*;=;-;;;>;,;';)++++++++++;!;~;{;];^;/=|;(;_++++++++++++++++++",
"++++++++++++++++++++;:;<;[;};|;1;2;3;4++++++;5;6;7;8;9;0;a;b;c;d++++++++++++++++++++",
"++++++++++++++++++;e;f;g;h;i;j;k;l;m;n++++++%Z;o;p;q;r;s;t*J;u;v++++++++++++++++++++",
"++++++++++++++++++;w;x;y#y;z;A;B;C;D;E++++++;F;G;H;I;J;K;L;M;N;O;5++++++++++++++++++",
"++++++++++++++++;P;Q;R;S;T;U;V;W;X;Y;Z++++>+>@>#>$>%&k>&>*>=>->;>>++++++++++++++++++",
"++++++++++++++++>,>'>)>!>~>{>]>^>/>(>_++++>:><>[>}>|>1>2>3>4>5>6>7++++++++++++++++++",
"++++++++++++++++>8>9>0>a>b>c>d>e>f>g>h++++>i>j>k>l>m>n>o>p>q>r>s>t++++++++++++++++++",
"++++++++++++++++>u>v>w>x>y>z>A>B>C>D>E++++>F>G>H>I>J>K>L>M>N>O>P>Q++++++++++++++++++"};
