/* XPM */
static char * ball_red_xpm[] = {
"66 66 457 2",
"&, c #FBFF4E",
"&> c #FBFF4F",
"&; c #FEFF87",
"&- c #FDFF4E",
"&= c #FCFF87",
"&* c #FBFE4F",
"&& c #FCFF80",
"&% c #FCFF8B",
"&$ c #FCFF8D",
"&# c #FCFE8F",
"&@ c #FEFF91",
"&+ c #FDFF4F",
"%Z c #FCFF83",
"%Y c #FCFE53",
"%X c #FCFF59",
"%W c #FDFF5A",
"%V c #FEFE94",
"%U c #FCFE4F",
"%T c #FCFE51",
"%S c #FCFF53",
"%R c #FCFF5B",
"%Q c #FCFF5F",
"%P c #FDFF64",
"%O c #FCFE80",
"%N c #FCFF54",
"%M c #FCFE57",
"%L c #FDFE5D",
"%K c #FDFE65",
"%J c #FCFE4E",
"%I c #FCFF4F",
"%H c #FCFE56",
"%G c #FCFE58",
"%F c #FCFF5D",
"%E c #FDFF6A",
"%D c #FDFF6E",
"%C c #FEFF98",
"%B c #FCFF4E",
"%A c #FCFE50",
"%z c #FCFE52",
"%y c #FCFE54",
"%x c #FCFF60",
"%w c #FCFE62",
"%v c #FCFF70",
"%u c #FCFF50",
"%t c #FCFF51",
"%s c #FCFF52",
"%r c #FCFF55",
"%q c #FCFF58",
"%p c #FCFF5A",
"%o c #FCFE6C",
"%n c #FCFE6E",
"%m c #FDFF70",
"%l c #FCFE82",
"%k c #FBFF52",
"%j c #FBFF53",
"%i c #FCFE55",
"%h c #FDFF5F",
"%g c #FDFF6B",
"%f c #FDFF6C",
"%e c #FDFE6E",
"%d c #FCFF8A",
"%c c #FCFF8C",
"%b c #FCFF8E",
"%a c #FCFF56",
"%0 c #FCFF57",
"%9 c #FCFE59",
"%8 c #FCFE5B",
"%7 c #FCFF65",
"%6 c #FDFF6D",
"%5 c #FDFF6F",
"%4 c #FDFE70",
"%3 c #FCFF73",
"%2 c #FCFF7D",
"%1 c #FEFF9E",
"%| c #FDFF58",
"%} c #FCFE5A",
"%[ c #FCFE5C",
"%< c #FCFE5F",
"%: c #FCFE63",
"%_ c #FCFF67",
"%( c #FDFF73",
"%/ c #FCFF77",
"%^ c #FCFE5D",
"%] c #FCFE5E",
"%{ c #FCFE60",
"%~ c #FCFF64",
"%! c #FCFE68",
"%) c #FCFE6A",
"%' c #FCFE8C",
"%, c #FCFE91",
"%> c #FCFF5E",
"%; c #FDFF60",
"%- c #FCFF62",
"%= c #FCFE64",
"%* c #FCFF6A",
"%& c #FDFE6C",
"%% c #FCFF6E",
"%$ c #FCFF72",
"%# c #FDFE76",
"%@ c #FCFE78",
"%+ c #FDFE7E",
"$Z c #FCFE8A",
"$Y c #FCFE61",
"$X c #FDFF63",
"$W c #FCFE65",
"$V c #FCFE67",
"$U c #FCFF68",
"$T c #FCFF74",
"$S c #FEFFA3",
"$R c #FEFFA4",
"$Q c #FCFE66",
"$P c #FCFF66",
"$O c #FCFE69",
"$N c #FCFE6B",
"$M c #FDFF75",
"$L c #FDFE77",
"$K c #FCFE79",
"$J c #FCFF7A",
"$I c #FCFE93",
"$H c #FDFF67",
"$G c #FCFF69",
"$F c #FCFF6B",
"$E c #FCFE6D",
"$D c #FCFF71",
"$C c #FCFE75",
"$B c #FCFE77",
"$A c #FCFE7B",
"$z c #FCFE95",
"$y c #FCFF6C",
"$x c #FCFF6D",
"$w c #FCFF6F",
"$v c #FCFE71",
"$u c #FCFE73",
"$t c #FCFF78",
"$s c #FCFF7C",
"$r c #FDFE7D",
"$q c #FCFE6F",
"$p c #FCFE70",
"$o c #FDFF72",
"$n c #FDFF71",
"$m c #FCFE72",
"$l c #FCFE7A",
"$k c #FDFF74",
"$j c #FCFE74",
"$i c #FCFF76",
"$h c #FDFE79",
"$g c #FCFE7C",
"$f c #FDFF76",
"$e c #FDFE78",
"$d c #FDFE7C",
"$c c #FCFE83",
"$b c #FCFE8B",
"$a c #FCFF92",
"$0 c #FDFF77",
"$9 c #FDFF78",
"$8 c #FDFE7B",
"$7 c #FCFE7D",
"$6 c #FCFE84",
"$5 c #FCFE85",
"$4 c #FEFE8D",
"$3 c #FEFEA0",
"$2 c #FDFF79",
"$1 c #FCFE7F",
"$| c #FCFF82",
"$} c #FEFE97",
"$[ c #FEFFA7",
"$< c #FDFF7A",
"$: c #FDFE7A",
"$_ c #FCFE7E",
"$( c #FDFE80",
"$/ c #FCFF90",
"$^ c #FEFF9A",
"$] c #FEFFAA",
"${ c #FDFFAD",
"$~ c #FEFFB2",
"$! c #FEFFB4",
"$) c #FDFF7B",
"$' c #FDFF7C",
"$, c #FDFF7E",
"$> c #FDFF80",
"$; c #FEFEAA",
"$- c #FEFEB4",
"$= c #FDFFBE",
"$* c #FCFE81",
"$& c #FCFF85",
"$% c #FEFF92",
"$$ c #FEFEA6",
"$# c #FEFFA8",
"$@ c #FEFFBC",
"$+ c #FEFF7F",
"#Z c #FDFF7D",
"#Y c #FDFFAB",
"#X c #FEFEB5",
"#W c #FDFF7F",
"#V c #FDFE7F",
"#U c #FDFF81",
"#T c #FCFE86",
"#S c #FDFE87",
"#R c #FDFF9D",
"#Q c #FDFEA3",
"#P c #FDFFA5",
"#O c #FDFE81",
"#N c #FDFE82",
"#M c #FDFF85",
"#L c #FCFF91",
"#K c #FDFFA2",
"#J c #FDFEA5",
"#I c #FEFEAF",
"#H c #FEFF82",
"#G c #FDFF82",
"#F c #FDFF86",
"#E c #FDFE9C",
"#D c #FDFEA0",
"#C c #FDFEA6",
"#B c #FEFEB2",
"#A c #FDFEB7",
"#z c #FEFEBA",
"#y c #FDFE83",
"#x c #FDFF83",
"#w c #FDFF84",
"#v c #FCFE89",
"#u c #FDFFA0",
"#t c #FDFEA2",
"#s c #FDFFA8",
"#r c #FDFFB6",
"#q c #FDFFB8",
"#p c #FDFEBC",
"#o c #FDFFC6",
"#n c #FDFEC8",
"#m c #FDFECE",
"#l c #FDFE84",
"#k c #FDFE85",
"#j c #FEFFA1",
"#i c #FDFFA3",
"#h c #FDFEAF",
"#g c #FDFEB8",
"#f c #FDFEC5",
"#e c #FDFE86",
"#d c #FDFF87",
"#c c #FDFF89",
"#b c #FDFE8B",
"#a c #FDFE95",
"#0 c #FDFF97",
"#9 c #FDFF99",
"#8 c #FDFE9B",
"#7 c #FEFEA3",
"#6 c #FEFFA5",
"#5 c #FDFFA7",
"#4 c #FDFEA9",
"#3 c #FDFEAB",
"#2 c #FDFEB1",
"#1 c #FEFEB7",
"#| c #FDFEB9",
"#} c #FEFED0",
"#[ c #FFFFDE",
"#< c #FCFE87",
"#: c #FDFF91",
"#_ c #FDFE94",
"#( c #FDFF96",
"#/ c #FEFEA1",
"#^ c #FDFEA4",
"#] c #FDFEA8",
"#{ c #FEFEA9",
"#~ c #FDFEAD",
"#! c #FEFEB1",
"#) c #FEFEB3",
"#' c #FEFFB5",
"#, c #FEFEBB",
"#> c #FEFFBF",
"#; c #FEFEDE",
"#- c #FDFE88",
"#= c #FDFF88",
"#* c #FDFF8A",
"#& c #FDFE8E",
"#% c #FDFE93",
"#$ c #FDFE98",
"## c #FDFE9E",
"#@ c #FDFE9F",
"#+ c #FDFEA1",
"@Z c #FDFFA4",
"@Y c #FDFFA6",
"@X c #FDFEA7",
"@W c #FDFEAA",
"@V c #FDFFAF",
"@U c #FDFFB2",
"@T c #FDFEBB",
"@S c #FDFEBE",
"@R c #FDFEBF",
"@Q c #FEFFCC",
"@P c #FEFED7",
"@O c #FEFFDD",
"@N c #FEFEDF",
"@M c #FEFFE1",
"@L c #FEFEE3",
"@K c #FDFE89",
"@J c #FDFE8A",
"@I c #FDFE8C",
"@H c #FDFE90",
"@G c #FDFF9A",
"@F c #FDFF9C",
"@E c #FDFF9E",
"@D c #FDFF9F",
"@C c #FDFFA1",
"@B c #FDFFA9",
"@A c #FDFEAC",
"@z c #FEFFAE",
"@y c #FDFFB0",
"@x c #FDFEB2",
"@w c #FDFEB6",
"@v c #FDFEBA",
"@u c #FEFFC2",
"@t c #FFFFCF",
"@s c #FEFFD3",
"@r c #FEFFD6",
"@q c #FEFED8",
"@p c #FEFFD9",
"@o c #FEFFDC",
"@n c #FEFFE0",
"@m c #FEFEE2",
"@l c #FDFF8B",
"@k c #FDFF8E",
"@j c #FDFE92",
"@i c #FDFF95",
"@h c #FDFE97",
"@g c #FDFE99",
"@f c #FDFE9A",
"@e c #FDFF9B",
"@d c #FDFE9D",
"@c c #FEFF9F",
"@b c #FDFFAA",
"@a c #FDFFAC",
"@0 c #FDFEAE",
"@9 c #FDFEB0",
"@8 c #FEFFB3",
"@7 c #FDFEB4",
"@6 c #FEFFB6",
"@5 c #FEFEB8",
"@4 c #FDFEC0",
"@3 c #FFFFD4",
"@2 c #FEFFD8",
"@1 c #FEFEDA",
"@| c #FEFEDB",
"@} c #FEFFDE",
"@[ c #FEFFE2",
"@< c #FEFEE4",
"@: c #FEFEE6",
"@_ c #FEFEE8",
"@( c #FFFFEC",
"@/ c #FEFF8C",
"@^ c #FDFF8C",
"@] c #FDFE91",
"@{ c #FDFF93",
"@~ c #FDFF94",
"@! c #FDFE96",
"@) c #FDFF98",
"@' c #FEFFAF",
"@, c #FDFFB1",
"@> c #FDFEB3",
"@; c #FDFFB4",
"@- c #FEFEB6",
"@= c #FEFEBE",
"@* c #FDFEC9",
"@& c #FFFFDF",
"@% c #FEFEE0",
"@$ c #FDFFE2",
"@# c #FEFFE4",
"@@ c #FEFEE7",
"@+ c #FEFEE9",
"+Z c #FEFEEA",
"+Y c #FFFFED",
"+X c #FDFE8D",
"+W c #FDFE8F",
"+V c #FDFF90",
"+U c #FDFF92",
"+T c #FEFF94",
"+S c #FEFF95",
"+R c #FDFFB3",
"+Q c #FDFEB5",
"+P c #FDFFB7",
"+O c #FEFEB9",
"+N c #FDFFBB",
"+M c #FEFEBD",
"+L c #FEFFC1",
"+K c #FEFEC3",
"+J c #FEFEC7",
"+I c #FEFFE5",
"+H c #FEFFE8",
"+G c #FFFFEA",
"+F c #FEFEEC",
"+E c #FEFFEE",
"+D c #FEFEF1",
"+C c #FDFF8D",
"+B c #FDFF8F",
"+A c #FEFFB7",
"+z c #FEFFB9",
"+y c #FEFFBB",
"+x c #FEFFBD",
"+w c #FEFEBF",
"+v c #FEFEC1",
"+u c #FEFEC5",
"+t c #FEFEF0",
"+s c #FFFFF0",
"+r c #FEFEF2",
"+q c #FFFFF4",
"+p c #FEFFB8",
"+o c #FEFFBA",
"+n c #FEFEBC",
"+m c #FEFEC0",
"+l c #FEFEC2",
"+k c #FEFEC4",
"+j c #FEFFC6",
"+i c #FEFFC8",
"+h c #FEFECC",
"+g c #FEFFCD",
"+f c #FFFFF5",
"+e c #FDFFBD",
"+d c #FEFFBE",
"+c c #FEFFC3",
"+b c #FEFECA",
"+a c #FEFECE",
"+0 c #FEFFC0",
"+9 c #FDFEC2",
"+8 c #FEFEC6",
"+7 c #FEFEC8",
"+6 c #FEFFCA",
"+5 c #FEFFCF",
"+4 c #FEFFC4",
"+3 c #FEFFC5",
"+2 c #FEFFC7",
"+1 c #FEFEC9",
"+| c #FEFECB",
"+} c #FEFECF",
"+[ c #FEFED1",
"+< c #FEFED3",
"+: c #FEFFC9",
"+_ c #FEFFCB",
"+( c #FEFECD",
"+/ c #FEFED2",
"+^ c #FEFED4",
"+] c #FEFFCE",
"+{ c #FEFFD0",
"+~ c #FEFFD4",
"+! c #FEFFD5",
"+) c #FFFFD6",
"+' c #FEFFD2",
"+, c #FDFED4",
"+> c #FEFED6",
"+; c #FFFFD7",
"+- c #FEFFD1",
"+= c #FEFED5",
"+* c #FEFFD7",
"+& c #FFFFD8",
"+% c #FDFFD7",
"+$ c #FEFED9",
"+# c #FEFFDA",
"+@ c #FEFFDB",
"++ c None",
"++++++++++++++++++++++++++++++++++++++++++++++++++++++++++++++++++++++++++++++++++++++++++++++++++++++++++++++++++++++++++++++++++++",
"++++++++++++++++++++++++++++++++++++++++++++++++++++++++++++++++++++++++++++++++++++++++++++++++++++++++++++++++++++++++++++++++++++",
"++++++++++++++++++++++++++++++++++++++++++++++++++++++++++++++++++++++++++++++++++++++++++++++++++++++++++++++++++++++++++++++++++++",
"+++++++++++++++++++++++++++++++++++++++++++++++++++++++++++++++@+@++++++++++++++++++++++++++++++++++++++++++++++++++++++++++++++++++",
"+++++++++++++++++++++++++++++++++++++++++++++++++++++++++++++++#+$+%++++++++++++++++++++++++++++++++++++++++++++++++++++++++++++++++",
"+++++++++++++++++++++++++++++++++++++++++++++++++++++++++++++&+$+*+=+-++++++++++++++++++++++++++++++++++++++++++++++++++++++++++++++",
"+++++++++++++++++++++++++++++++++++++++++++++++++++++++++++++;+>+,+'+-++++++++++++++++++++++++++++++++++++++++++++++++++++++++++++++",
"+++++++++++++++++++++++++++++++++++++++++++++++++++++++++++)+!+~+'+{+]++++++++++++++++++++++++++++++++++++++++++++++++++++++++++++++",
"+++++++++++++++++++++++++++++++++++++++++++++++++++++++++++!+^+/+{+(+_+:++++++++++++++++++++++++++++++++++++++++++++++++++++++++++++",
"+++++++++++++++++++++++++++++++++++++++++++++++++++++++++<+<+[+}+(+|+1+2+3++++++++++++++++++++++++++++++++++++++++++++++++++++++++++",
"+++++++++++++++++++++++++++++++++++++++++++++++++++++++++'+{+}+(+|+:+2+3+4++++++++++++++++++++++++++++++++++++++++++++++++++++++++++",
"+++++++++++++++++++++++++++++++++++++++++++++++++++++++5+{+]+(+6+7+8+3+9+0++++++++++++++++++++++++++++++++++++++++++++++++++++++++++",
"+++++++++++++++++++++++++++++++++++++++++++++++++++++++5+a+|+b+7+8+4+c+0+d+e++++++++++++++++++++++++++++++++++++++++++++++++++++++++",
"+++++++++++++f+f+++++++++++++++++++++++++++++++++++++++g+h+b+i+j+k+l+m+d+n+o+p++++++++++++++++++++++++++++++++++++++++++++++++++++++",
"+++++++++++++q+r+s+t+++++++++++++++++++++++++++++++++(+|+1+2+u+c+v+w+x+y+z+A+A+++++++++++++++++++++++++++++++++++++B+C++++++++++++++",
"+++++++++++++r+D+E+F+G+H+I+I+++++++++++++++++++++++6+_+1+J+u+K+L+w+M+N+O+P+Q+R+++++++++++++++++++++++++++S+T+U+V+W+C+X++++++++++++++",
"+++++++++++++++Y+F+Z@+@@@#@$@%@&+++++++++++++++++++6@*+2+u+c+v@=+x+o+z@-@;@>@,@'++++++++++++++++++++@)@!@~@{@]+W+X@^@/++++++++++++++",
"++++++++++++++@(+G@_@:@<@[@%@}@|@1@2+~@3+++++++++++i+j+4+l@4@=+n+o@5@6@7@8@9@0@a@b++++++++@c@d@e@f@g@h@i@j+V@k+X@l@l++++++++++++++++",
"+++++++++++++++++++I@<@m@n@}@o@p@q@r@s+-+5@t+++++2+8+k@u+m+d+n@v+p@w@;@x@y@z@A@b@B++++@C@D@E@F@G@)@!@i+U@H@k@I@J@K++++++++++++++++++",
"++++++++++++++++++@L@M@N@O+@+$@P+=+<+[+}+g@Q+6+8+u+c+l@R@S@T+z+A@-+R@U@V@0@A@W@X@Y@Z#+#@##@F@G#$@!#%@j@H#&@^#*#=#-++++++++++++++++++",
"++++++++++++++++++++#;@O+@@p+;+=@s+{+5+g+|+:+2+u+K+v#>+x#,+z+A#'#)#!@V#~@a#{#]@Y#^#/@D##@F@G@)#(#_#:+B+C@^@K#=#<++++++++++++++++++++",
"++++++++++++++++++++#[+#@2@P+~+/#}+]+(+_+i+j+u+l@4+d+x+y#|#1+Q@>#2@V#~#3#4#5#6#7@C#@@d#8#9#0#a@{@]+W+C#b#c#d#e#d++++++++++++++++++++",
"+++++++++++++++++++++++)+>+^+/#}+]@Q+b+:+8#f+l+0@=+x@v#g@w+Q@x@9#h@A#3#4@Y#^#i#j#@@d#8@g#0#_#%@]+W+C@l@K#d#k#l++++++++++++++++++++++",
"+++++++++++++++++++++++)+~+/#}#m+h+b#n#o+k+l+0+d#p+o#q#r@7@U@y@0@A@W#s@Y@Z#t#u@E@F@f#$#0@i+U@H+W@I@J#v#e#w#x#y++++++++++++++++++++++",
"+++++++++++++++++++++++++++5+]+_+1+i+j+4+l@R+d+n#z#A+Q@7#B@V@0@a@b#s#C#^#t#D###E@G#$#(#_@j@H@k@^#*#-#F#w#G#H++++++++++++++++++++++++",
"+++++++++++++++++++++++++++g+_+1+2+u+K+L+m+x+y+z+A+Q+R@,#I#~@a@B#]#J#^#K@D@E#E#9#$@!@{#L@H@k@I@J#-#M#y#N#O++++++++++++++++++++++++++",
"+++++++++++++++++++++++++++++i+J+3+c+v+w+x#,#|#A+Q@8#2@V#~#3@B#5#P#Q#+@D#R#8@g#0@i#%@]+W@k@l@K#S#T#x#U#V#W++++++++++++++++++++++++++",
"+++++++++++++++++++++++++++++7+k+c+L@=#p+y+z@w#X@>@,#h@A#Y@B@X#^#i#D@D@d#8#9@h@i@{@]+B+X#b#c#S#M#x#U#W#Z$+++++++++++++++++++++++++++",
"+++++++++++++++++++++++++++++++L+m@=$@+o+O@6@7#B@9@0#~@b$#$$#P#t#+@E#R@f@g#0@i$%#:#&+X#b#-#e$&#y$*#V#Z#Z++++++++++++++++++++++++++++",
"+++++++++++++++++++++++++++++++L$=$@+o+p@-$-@U@9@z@a$;#s#C@Z#K#D@E@F@G@)@!#_+U@H@k@I#*#=#F#l#N$>$,$'$)++++++++++++++++++++++++++++++",
"+++++++++++++++++++++++++++++++++++z#1@w$!$~@9${@A$]$##J@Z#t#D@E#E$^#$@!#_@j$/@k@^@J#=#T#l#G$($_$'$:$<++++++++++++++++++++++++++++++",
"++++++++++++++++++++++++++++++++++@6#'+R@,#h#~#3@B$[#P#i#t@D#R@e@G$}#(#_#:+W#&@l@J#=#e#x$|$1$,$'$2$2$<++++++++++++++++++++++++++++++",
"++++++++++++++++++++++++++++++++++++$~#2#h#~#3@B@X#J#i@C$3#R#8@g#$#a@{@]+W$4@l@K#d$5$6#U#V$7$8$<$9$0++++++++++++++++++++++++++++++++",
"++++++++++++++++++++++++++++++++++++++@z@A@W#s#5@Z#t@C###R@e#9#0@i$a@]@k@I$b#c#F#w$c#O$,$d$)$e$0$f++++++++++++++++++++++++++++++++++",
"++++++++++++++++++++++++++++++++++++++#Y@b#s#C#^#t#D#@@F@G@)#(@~@{+V+B@^@l#=#F$5#N#U$1$g$<$h$i$j$k++++++++++++++++++++++++++++++++++",
"++++++++++++++++++++++++++++++++++++++@B@X@Y#^#t#D@E#E@G#$#(#_@j+W@k@^@J#=#F#w#N$($,$d$l$9$f$k$m$n++++++++++++++++++++++++++++++++++",
"++++++++++++++++++++++++++++++++++++#s#5#P@Z@C@D@d#8@g@)@!@~@j@H#&#b#*#=#e#y#N$($,$g$l$9$f$k$o$p$q++++++++++++++++++++++++++++++++++",
"++++++++++++++++++++++++++++++++++$[$$#J#Q@C#@@d#8#9@h@i@{#:+B+X#b#c#d#M#l#O#W$r$s$l$t$f$u$v$w$x$y++++++++++++++++++++++++++++++++++",
"++++++++++++++++++++++++++++++++++#P@Z#i#D@D@d#8#9@h$z@{#:+B+C#b#c#d#M#x#U#W#Z$A$2$B$C$u$D$w$E$F$G$H++++++++++++++++++++++++++++++++",
"++++++++++++++++++++++++++++++++#6#^#K#D@E@F#8#$@!@~$I+V@k@I#b#-#e#w#x$($,$'$J$K$L$M$u$D$w$x$N$O$P$Q++++++++++++++++++++++++++++++++",
"++++++++++++++++++++++++++++++$R$S#K#D@E@F@G#$#(#_+U@H@k@^#*#=#F#w#G$>$,$'$<$9$B$T$m$p$q$E$F$U$V$W$X$Y++++++++++++++++++++++++++++++",
"++++++++++++++++++++++++++++++#K#K#u@E#8@G@h#a#_@j+W#&@^$Z#d#e#l#G$(%+$)$<%@%#$T%$$p%%%&%*$U$P%=%-%;%>++++++++++++++++++++++++++++++",
"++++++++++++++++++++++++++++++#D#@@d@e@g#$#a#_%,+B+X%'@K#=$5$c#O#V$7$g$l%@$f$j$v$p$x$N%)%!$Q%~%-%{%]%^++++++++++++++++++++++++++++++",
"++++++++++++++++++++++++++++@D#@@d#8@g#0#a#%#:+B+X#b#v#S#k#x$*$1$r$)$2%/$C%($D$w$E$N$O%_$W%:$Y%<%]%[%}%|++++++++++++++++++++++++++++",
"++++++++++++++++++++++++++%1#R@d@f@)@!#_#%@]@k@I#b#-#d#l#y#U$1%2$A$K$i$C%3%4%5%6$F$O$V%7%:$Y%<%^%8%9%0%a++++++++++++++++++++++++++++",
"++++++++++++++++++++++++++#R#E@f@)@!@~+U+V%b%c%d#=#F#w#N$($_$g$A$K$i$T$o%4%e%f%g$O%_$W%:$Y%h%^%8%9%0%i%j%k++++++++++++++++++++++++++",
"++++++++++++++++++++++++++#8@G@)#(@~+U+V@k@I#*#-#e#w%l$(%+$g$<$t%#$j$m%m%n%o%)$U$Q%~%-%{%>%[%p%q%a%r%s%t%u++++++++++++++++++++++++++",
"++++++++++++++++++++++++@G#9#0#a#%@]+V+C@l@J#S#M#x#N$>%+$8$2%@$i$k$o%v%6$y$G%!$Q%~%w%x%]%[%}%q%a%y%z%A%B%B++++++++++++++++++++++++++",
"++++++++++++++++++++++%C#$@h#a#%#:+B+X#b#c#S#k#y#U#W$r$8$l$B$0$i++++%D%g%E$V$W$X%w%x%F%8%9%G%H%y%z%I%B%J%J%I++++++++++++++++++++++++",
"++++++++++++++++++++++#0#0@i#%#:+B+C#b#v#d#k$c$*#V#Z$A$2$e$9++++++++++++$H%K%~$Y%h%L%8%9%M%r%N%z%I%B%B%J%J%I++++++++++++++++++++++++",
"++++++++++++++++++++$}@i@~@j+V@k+C#*#=#e#w#x%O#W$'$)$<$h++++++++++++++++++%P%-%Q%^%R%9%M%i%S%T%I%B%B%B%B%J%B%U++++++++++++++++++++++",
"+++++++++++++++++++++S%V+U+V@k@^@J#=#F$6#G%O$_$7$)$)++++++++++++++++++++++++++++%W%X%a%y%Y%t%I%I%B%J%B%B%J%B%B++++++++++++++++++++++",
"++++++++++++++++++@~#%@j+V+C@I@J#-#e#l%l$>$,#Z$'++++++++++++++++++++++++++++++++++%q%i%s%T%I%B%J%J%J%J%J%J%B%B++++++++++++++++++++++",
"+++++++++++++++++++U@]+V@k@l#c#S#M%Z#U$>#W$,++++++++++++++++++++++++++++++++++++++++++&+%I%B%B%B%J%B%B%B%B%J%J++++++++++++++++++++++",
"++++++++++++++++&@@]&#&$&%@K#d#k#x$*$>&&++++++++++++++++++++++++++++++++++++++++++++++++&*%I%B%J%J%J%B%J%B%B%J%J++++++++++++++++++++",
"+++++++++++++++++V+W@I@l@K#<$5#y#G++++++++++++++++++++++++++++++++++++++++++++++++++++++++++++%B%J%I%B%J%B%J%J%J&+++++++++++++++++++",
"++++++++++++++#&@k@I#*#=&=#M#w#l++++++++++++++++++++++++++++++++++++++++++++++++++++++++++++++++%I%I%J%J%B%J%J%B%B++++++++++++++++++",
"++++++++++++++@^@I#*#-#S#F++++++++++++++++++++++++++++++++++++++++++++++++++++++++++++++++++++++++++&-%B%B%J%J%B%B++++++++++++++++++",
"++++++++++++@^@l#*#=#=&;++++++++++++++++++++++++++++++++++++++++++++++++++++++++++++++++++++++++++++++++%B%B%B%B%B%I++++++++++++++++",
"++++++++++++#*#*#*++++++++++++++++++++++++++++++++++++++++++++++++++++++++++++++++++++++++++++++++++++++++++&>%B%B&,++++++++++++++++",
"++++++++++++#*#*++++++++++++++++++++++++++++++++++++++++++++++++++++++++++++++++++++++++++++++++++++++++++++++++%J%I++++++++++++++++",
"++++++++++++++++++++++++++++++++++++++++++++++++++++++++++++++++++++++++++++++++++++++++++++++++++++++++++++++++++++++++++++++++++++",
"++++++++++++++++++++++++++++++++++++++++++++++++++++++++++++++++++++++++++++++++++++++++++++++++++++++++++++++++++++++++++++++++++++",
"++++++++++++++++++++++++++++++++++++++++++++++++++++++++++++++++++++++++++++++++++++++++++++++++++++++++++++++++++++++++++++++++++++",
"++++++++++++++++++++++++++++++++++++++++++++++++++++++++++++++++++++++++++++++++++++++++++++++++++++++++++++++++++++++++++++++++++++",
"++++++++++++++++++++++++++++++++++++++++++++++++++++++++++++++++++++++++++++++++++++++++++++++++++++++++++++++++++++++++++++++++++++"};
