/* XPM */
static char * ball_red_xpm[] = {
"66 66 626 2",
"=# c #51FE60",
"=@ c #58FF67",
"=+ c #5AFF69",
"*Z c #5EFF6C",
"*Y c #64FF73",
"*X c #67FF74",
"*W c #6DFF7B",
"*V c #52FF61",
"*U c #65FE73",
"*T c #70FF7C",
"*S c #4FFE5E",
"*R c #51FE61",
"*Q c #56FE64",
"*P c #5EFE6D",
"*O c #63FF71",
"*N c #67FE74",
"*M c #6AFF78",
"*L c #6CFF7A",
"*K c #72FE7E",
"*J c #7AFF87",
"*I c #90FE99",
"*H c #4FFF5F",
"*G c #53FF63",
"*F c #55FE65",
"*E c #5EFE6C",
"*D c #7AFE87",
"*C c #5BFE69",
"*B c #60FE6E",
"*A c #63FE72",
"*z c #65FF73",
"*y c #7EFF89",
"*x c #55FF65",
"*w c #5AFF6A",
"*v c #6AFE78",
"*u c #82FE8C",
"*t c #4EFF5E",
"*s c #4EFE5E",
"*r c #52FF62",
"*q c #5CFE6B",
"*p c #6CFE7A",
"*o c #71FF7F",
"*n c #81FE8D",
"*m c #83FF8F",
"*l c #4FFE5F",
"*k c #50FE60",
"*j c #6EFE7B",
"*i c #77FE83",
"*h c #7BFE86",
"*g c #92FF9B",
"*f c #4FFF5E",
"*e c #50FF60",
"*d c #52FE61",
"*c c #54FF63",
"*b c #57FE66",
"*a c #66FE73",
"*0 c #6BFF78",
"*9 c #52FF60",
"*8 c #52FE62",
"*7 c #58FF66",
"*6 c #60FF6E",
"*5 c #84FE8E",
"*4 c #53FF62",
"*3 c #54FE63",
"*2 c #56FE65",
"*1 c #59FF68",
"*| c #5DFE6B",
"*} c #61FF6F",
"*[ c #6EFF7C",
"*< c #70FE7E",
"*: c #9CFEA6",
"*_ c #55FF64",
"*( c #56FF65",
"*/ c #58FE66",
"*^ c #5AFE69",
"*] c #5BFF69",
"*{ c #66FF73",
"*~ c #69FE76",
"*! c #6AFE79",
"*) c #7BFF86",
"*' c #83FE8F",
"*, c #57FF66",
"*> c #58FE67",
"*; c #67FF75",
"*- c #72FF7E",
"*= c #76FF81",
"** c #78FE83",
"*& c #7EFE8A",
"*% c #84FF8E",
"*$ c #8DFE96",
"*# c #A2FFA9",
"*@ c #59FE68",
"*+ c #58FF68",
"&Z c #5AFF68",
"&Y c #60FF6F",
"&X c #86FE90",
"&W c #93FF9E",
"&V c #59FF69",
"&U c #59FE69",
"&T c #69FE77",
"&S c #77FF83",
"&R c #5BFF6A",
"&Q c #5BFE6A",
"&P c #5DFF6B",
"&O c #5FFF6D",
"&N c #67FE75",
"&M c #6EFE7C",
"&L c #85FF90",
"&K c #8CFF97",
"&J c #8EFE99",
"&I c #B3FFB9",
"&H c #5DFF6C",
"&G c #62FE70",
"&F c #70FF7D",
"&E c #75FE82",
"&D c #7CFE89",
"&C c #5EFF6D",
"&B c #5FFE6D",
"&A c #60FE6F",
"&z c #62FE71",
"&y c #74FF80",
"&x c #75FF82",
"&w c #7DFF88",
"&v c #7EFF8A",
"&u c #86FF90",
"&t c #89FE93",
"&s c #61FE6F",
"&r c #62FF71",
"&q c #77FE84",
"&p c #7AFE85",
"&o c #87FF92",
"&n c #98FEA0",
"&m c #9CFFA6",
"&l c #62FF70",
"&k c #63FE71",
"&j c #64FE72",
"&i c #68FF76",
"&h c #69FF77",
"&g c #6FFF7B",
"&f c #70FE7D",
"&e c #79FF85",
"&d c #90FE9A",
"&c c #95FF9F",
"&b c #64FF72",
"&a c #65FF72",
"&0 c #6BFE79",
"&9 c #7CFF87",
"&8 c #7FFE8A",
"&7 c #85FF91",
"&6 c #8FFF98",
"&5 c #BAFEC1",
"&4 c #66FF74",
"&3 c #66FE74",
"&2 c #68FE76",
"&1 c #6BFF79",
"&| c #6FFE7B",
"&} c #74FE80",
"&[ c #94FE9D",
"&< c #9AFFA2",
"&: c #68FF75",
"&_ c #68FE75",
"&( c #6AFF77",
"&/ c #6CFF79",
"&^ c #71FE7D",
"&] c #79FE86",
"&{ c #82FE8E",
"&~ c #8EFF99",
"&! c #AEFFB6",
"&) c #69FF76",
"&' c #6AFE77",
"&, c #6DFE7A",
"&> c #71FE7E",
"&; c #73FF7F",
"&- c #79FE85",
"&= c #81FF8B",
"&* c #82FE8D",
"&& c #87FE92",
"&% c #90FE9B",
"&$ c #99FEA2",
"&# c #B5FEBC",
"&@ c #6BFE78",
"&+ c #6CFE79",
"%Z c #6DFE7B",
"%Y c #72FF7F",
"%X c #80FE8C",
"%W c #89FE94",
"%V c #B5FFBC",
"%U c #BBFEC0",
"%T c #6DFF7A",
"%S c #6EFF7B",
"%R c #72FE7F",
"%Q c #76FF82",
"%P c #7BFF87",
"%O c #7DFE88",
"%N c #81FE8B",
"%M c #88FE92",
"%L c #97FFA1",
"%K c #A5FEAE",
"%J c #A7FFB0",
"%I c #6FFF7C",
"%H c #6FFE7C",
"%G c #75FE81",
"%F c #78FE84",
"%E c #8BFE95",
"%D c #9AFEA2",
"%C c #A0FFAA",
"%B c #A9FEB1",
"%A c #C0FEC5",
"%z c #71FF7D",
"%y c #71FF7E",
"%x c #73FE7F",
"%w c #74FE81",
"%v c #76FE82",
"%u c #79FF86",
"%t c #7BFF88",
"%s c #89FF94",
"%r c #90FF9B",
"%q c #A8FFAF",
"%p c #AEFEB6",
"%o c #B4FFBA",
"%n c #C9FECD",
"%m c #73FF80",
"%l c #73FE80",
"%k c #78FF85",
"%j c #7AFF86",
"%i c #8EFF97",
"%h c #91FF9A",
"%g c #92FF9C",
"%f c #99FEA3",
"%e c #BDFFC2",
"%d c #74FF81",
"%c c #75FF81",
"%b c #78FF84",
"%a c #80FF8C",
"%0 c #82FF8E",
"%9 c #8BFF96",
"%8 c #91FE9A",
"%7 c #97FEA1",
"%6 c #9DFFA6",
"%5 c #ADFFB4",
"%4 c #B9FFBF",
"%3 c #BCFFC3",
"%2 c #C3FEC9",
"%1 c #76FF83",
"%| c #76FE83",
"%} c #7DFE89",
"%[ c #9BFEA5",
"%< c #A0FFA9",
"%: c #BAFFBF",
"%_ c #C3FFC9",
"%( c #CFFFD2",
"%/ c #77FF84",
"%^ c #78FE85",
"%] c #7CFE87",
"%{ c #7FFF8B",
"%~ c #9BFFA4",
"%! c #9FFEA7",
"%) c #CBFECF",
"%' c #CCFFD1",
"%, c #7AFF85",
"%> c #7AFE86",
"%; c #7CFE88",
"%- c #87FF91",
"%= c #8AFE94",
"%* c #8DFE98",
"%& c #94FE9E",
"%% c #99FFA3",
"%$ c #B0FEB8",
"%# c #B9FEC0",
"%@ c #7BFE87",
"%+ c #7CFF88",
"$Z c #80FF8B",
"$Y c #86FE91",
"$X c #8BFE96",
"$W c #8DFE97",
"$V c #9DFEA6",
"$U c #A8FEAF",
"$T c #ADFEB5",
"$S c #B2FFB9",
"$R c #C2FEC7",
"$Q c #7DFF89",
"$P c #7EFE89",
"$O c #7FFE8B",
"$N c #8DFF97",
"$M c #A1FEA9",
"$L c #ABFFB3",
"$K c #BAFEBF",
"$J c #7FFF8A",
"$I c #80FE8B",
"$H c #85FE8F",
"$G c #86FE92",
"$F c #94FF9E",
"$E c #96FF9F",
"$D c #A2FEAB",
"$C c #C5FECB",
"$B c #C7FECD",
"$A c #D4FED7",
"$z c #D7FFDB",
"$y c #81FF8C",
"$x c #81FE8C",
"$w c #83FF8E",
"$v c #96FE9F",
"$u c #C5FFC9",
"$t c #CCFED1",
"$s c #D6FED9",
"$r c #82FF8D",
"$q c #83FE8E",
"$p c #84FE8F",
"$o c #88FF92",
"$n c #9CFEA4",
"$m c #A5FFAC",
"$l c #AAFEB1",
"$k c #B3FEB9",
"$j c #B7FFBE",
"$i c #B9FFC0",
"$h c #BBFFC1",
"$g c #BFFEC4",
"$f c #D5FED9",
"$e c #D9FEDC",
"$d c #DBFEDF",
"$c c #84FF8F",
"$b c #85FE90",
"$a c #87FE91",
"$0 c #88FF93",
"$9 c #8AFF94",
"$8 c #8FFF99",
"$7 c #96FFA0",
"$6 c #A4FFAD",
"$5 c #B2FFBA",
"$4 c #B6FFBC",
"$3 c #C0FEC7",
"$2 c #C2FFC8",
"$1 c #C6FECA",
"$| c #DDFEDF",
"$} c #86FF91",
"$[ c #86FF92",
"$< c #8DFF98",
"$: c #A4FEAD",
"$_ c #BBFEC1",
"$( c #BEFFC5",
"$/ c #C0FFC6",
"$^ c #C9FECE",
"$] c #CEFED3",
"${ c #DFFEE1",
"$~ c #88FE93",
"$! c #8AFE95",
"$) c #90FF99",
"$' c #91FE9B",
"$, c #93FF9C",
"$> c #98FFA1",
"$; c #9EFFA6",
"$- c #A9FEB2",
"$= c #B2FEB9",
"$* c #B6FEBC",
"$& c #C7FECC",
"$% c #DFFFE1",
"$$ c #E1FFE4",
"$# c #89FF93",
"$@ c #8AFF95",
"$+ c #8CFF96",
"#Z c #8FFF9A",
"#Y c #93FE9C",
"#X c #A6FFAE",
"#W c #C8FECC",
"#V c #C9FFCE",
"#U c #8BFF95",
"#T c #8CFE96",
"#S c #8EFE98",
"#R c #8FFE99",
"#Q c #9CFFA4",
"#P c #AAFFB1",
"#O c #ABFEB3",
"#N c #B0FFB8",
"#M c #B2FEBA",
"#L c #C4FFCA",
"#K c #CDFFD1",
"#J c #D0FED5",
"#I c #D9FFDD",
"#H c #E5FFE7",
"#G c #8CFE97",
"#F c #8FFE9A",
"#E c #92FE9B",
"#D c #96FEA0",
"#C c #98FEA2",
"#B c #A1FEAA",
"#A c #A6FEAF",
"#z c #B4FEBB",
"#y c #B8FEBE",
"#x c #BBFFC2",
"#w c #CDFED1",
"#v c #D2FED6",
"#u c #DBFEDE",
"#t c #E7FFE9",
"#s c #8EFF98",
"#r c #91FF9B",
"#q c #A9FEB0",
"#p c #AFFEB6",
"#o c #C4FEC9",
"#n c #D0FFD4",
"#m c #90FF9A",
"#l c #91FE9C",
"#k c #93FE9D",
"#j c #9AFFA4",
"#i c #9FFFA8",
"#h c #B7FEBD",
"#g c #BBFEC2",
"#f c #C2FEC8",
"#e c #CAFFCE",
"#d c #CCFED0",
"#c c #DDFFE0",
"#b c #92FE9C",
"#a c #93FF9D",
"#0 c #95FF9E",
"#9 c #97FFA0",
"#8 c #9FFEA8",
"#7 c #AFFFB7",
"#6 c #C4FECA",
"#5 c #D1FFD4",
"#4 c #D6FFDA",
"#3 c #D9FEDD",
"#2 c #E2FFE5",
"#1 c #ECFFEE",
"#| c #94FF9D",
"#} c #95FE9E",
"#[ c #9BFEA3",
"#< c #9EFEA6",
"#: c #A3FEAC",
"#_ c #A7FEAE",
"#( c #B0FEB6",
"#/ c #B7FFBD",
"#^ c #C1FEC6",
"#] c #CBFFD0",
"#{ c #CFFED4",
"#~ c #D2FFD6",
"#! c #DBFFDF",
"#) c #E1FEE3",
"#' c #E7FFEA",
"#, c #EDFFEF",
"#> c #EEFFF0",
"#; c #95FE9F",
"#- c #97FEA0",
"#= c #99FFA1",
"#* c #9AFFA3",
"#& c #AAFEB2",
"#% c #BDFFC3",
"#$ c #C0FFC5",
"## c #DAFFDD",
"#@ c #DDFEE0",
"#+ c #E2FEE5",
"@Z c #E4FEE7",
"@Y c #EFFEF0",
"@X c #F0FFF1",
"@W c #98FEA1",
"@V c #98FFA2",
"@U c #9AFEA3",
"@T c #A0FEA9",
"@S c #A4FFAC",
"@R c #A5FEAD",
"@Q c #ACFFB4",
"@P c #B0FEB7",
"@O c #B7FEBE",
"@N c #BCFFC1",
"@M c #BEFEC4",
"@L c #BFFEC5",
"@K c #C1FEC7",
"@J c #C6FECB",
"@I c #D4FED8",
"@H c #D8FEDC",
"@G c #DCFEDF",
"@F c #DEFFE0",
"@E c #DFFEE2",
"@D c #E3FEE5",
"@C c #E4FFE7",
"@B c #E6FFE9",
"@A c #EEFFF1",
"@z c #99FFA2",
"@y c #9AFEA4",
"@x c #9CFEA5",
"@w c #A2FFAA",
"@v c #A3FEAB",
"@u c #A7FFAF",
"@t c #ACFEB3",
"@s c #B2FFB8",
"@r c #B3FEBA",
"@q c #B8FFBF",
"@p c #BAFFC0",
"@o c #BEFEC3",
"@n c #C1FFC6",
"@m c #C3FEC8",
"@l c #C8FECD",
"@k c #CAFECF",
"@j c #CDFED2",
"@i c #CFFFD3",
"@h c #D1FED5",
"@g c #D3FED6",
"@f c #D5FED8",
"@e c #D8FEDB",
"@d c #DEFEE0",
"@c c #E1FFE3",
"@b c #E3FFE6",
"@a c #E4FFE6",
"@0 c #E6FEE8",
"@9 c #EAFFEC",
"@8 c #EBFFED",
"@7 c #EDFEEF",
"@6 c #F4FFF4",
"@5 c #9BFEA4",
"@4 c #9DFEA5",
"@3 c #9EFFA7",
"@2 c #A1FFAA",
"@1 c #A3FFAB",
"@| c #ABFEB2",
"@} c #ADFEB4",
"@[ c #AEFEB5",
"@< c #B0FFB7",
"@: c #B4FEBA",
"@_ c #B5FEBB",
"@( c #B6FEBD",
"@/ c #B9FEBF",
"@^ c #BCFEC2",
"@] c #BDFFC4",
"@{ c #C5FFCA",
"@~ c #C6FFCB",
"@! c #CAFFCF",
"@) c #CDFFD2",
"@' c #CFFFD4",
"@, c #D3FED7",
"@> c #D5FFD8",
"@; c #D6FEDA",
"@- c #D8FFDC",
"@= c #DAFEDD",
"@* c #DCFFDF",
"@& c #DFFFE2",
"@% c #E1FEE4",
"@$ c #E3FFE5",
"@# c #E5FEE7",
"@@ c #E6FEE9",
"@+ c #E8FEEA",
"+Z c #EAFEEB",
"+Y c #EBFEED",
"+X c #EDFFEE",
"+W c #EFFFF0",
"+V c #F1FEF2",
"+U c #F2FFF3",
"+T c #F4FEF5",
"+S c #F5FFF6",
"+R c #9CFFA5",
"+Q c #9EFEA7",
"+P c #A3FFAC",
"+O c #A5FFAD",
"+N c #A9FFB0",
"+M c #ABFFB2",
"+L c #ACFEB4",
"+K c #AEFFB5",
"+J c #AFFEB7",
"+I c #B1FEB8",
"+H c #B5FFBB",
"+G c #B8FEBF",
"+F c #BAFFC1",
"+E c #BCFEC1",
"+D c #BDFEC3",
"+C c #C1FFC7",
"+B c #C3FFC8",
"+A c #C5FECA",
"+z c #C7FFCB",
"+y c #C8FFCD",
"+x c #CAFECE",
"+w c #CBFED0",
"+v c #CEFED2",
"+u c #CFFED3",
"+t c #D1FFD5",
"+s c #D3FFD6",
"+r c #D4FFD8",
"+q c #D6FFD9",
"+p c #D8FFDB",
"+o c #D9FFDC",
"+n c #DBFFDE",
"+m c #DCFEE0",
"+l c #DEFFE1",
"+k c #E0FEE3",
"+j c #E2FFE4",
"+i c #E3FEE6",
"+h c #E6FFE8",
"+g c #E8FFEA",
"+f c #E9FFEB",
"+e c #EAFEEC",
"+d c #9FFFA7",
"+c c #A0FFA8",
"+b c #A2FEAA",
"+a c #A4FEAC",
"+0 c #A5FFAE",
"+9 c #A7FEAF",
"+8 c #A8FEB0",
"+7 c #AAFFB2",
"+6 c #ACFFB3",
"+5 c #ADFFB5",
"+4 c #AFFFB6",
"+3 c #B1FFB8",
"+2 c #B3FFBA",
"+1 c #B4FFBB",
"+| c #B6FFBD",
"+} c #B8FFBE",
"+[ c #BAFEC0",
"+< c #BCFFC2",
"+: c #BEFFC4",
"+_ c #BFFFC5",
"+( c #C0FEC6",
"+/ c #C2FFC7",
"+^ c #C4FFC9",
"+] c #C6FFCA",
"+{ c #C7FFCC",
"+~ c #C9FFCD",
"+! c #CBFFCF",
"+) c #CCFFD0",
"+' c #CEFFD3",
"+, c #D0FED4",
"+> c #D1FFD6",
"+; c #D3FFD7",
"+- c #D5FED7",
"+= c #A0FEA8",
"+* c #A1FFA9",
"+& c #A3FFAA",
"+% c #A5FEAC",
"+$ c #A6FEAE",
"+# c #A8FFB0",
"+@ c #A9FFB1",
"++ c None",
"++++++++++++++++++++++++++++++++++++++++++++++++++++++++++++++++++++++++++++++++++++++++++++++++++++++++++++++++++++++++++++++++++++",
"++++++++++++++++++++++++++++++++++++++++++++++++++++++++++++++++++++++++++++++++++++++++++++++++++++++++++++++++++++++++++++++++++++",
"++++++++++++++++++++++++++++++++++++++++++++++++++++++++++++++++++++++++++++++++++++++++++++++++++++++++++++++++++++++++++++++++++++",
"++++++++++++++++++++++++++++++++++++++++++++++++++++++++++++++++++++++++++++++++++++++++++++++++++++++++++++++++++++++++++++++++++++",
"+++++++++++++++++++++++++++++++++++++++++++++++++++++++++++++++++++++++++++++++++++++++++++++++++++++++++@+#+$+%+&+*+=++++++++++++++",
"+++++++++++++++++++++++++++++++++++++++++++++++++++++-+;+>+,+'+)+!+~+{+]+^+/+(+_+:+<+[+}+|+1+2+3+4+5+6+7+8+9+0+a+b+c+d++++++++++++++",
"+++++++++++++++++++++++++++e+f+g+h+i+j+k+l+m+n+o+p+q+r+s+t+u+v+w+x+y+z+A+B+C+_+D+E+F+G+|+H+2+I+J+K+L+M+N+9+O+P+b+=+Q+R++++++++++++++",
"+++++++++++++S+T+U+V+W+X+Y+Z@+@@@#@$@%@&+l@*@=@-@;@>@,+t@'@)+)@!+y@~@{+B+C+_@]@^+F@/@(@_@:+3@<@[@}@|+N+9+O@1@2+=@3@4@5++++++++++++++",
"++++++++++++@6+U+V+W@7@8@9+g@0@a@b@c@&@d@*@=@e@;@f@g@h@i@j+)@k@l+z+A@m@n+_@o@^@p@q@(+H@r@s@<+K@t+7+N@u+O@v@w+=+Q@x@y@z++++++++++++++",
"+++++++++++++U+V@A@7+Y+e@+@B@C@D+k@E@F@G@=@H@;@I+;@h+u@j+)@k@l@J+A@m@K@L@M@N+[+G@O+H@:+I@P@[@Q+7+8+9@R@S+b@T+Q@x@U@V@W++++++++++++++",
"++++++++++++@X@Y@7+Y+f@+@0@Z#+@%@E#@@G##@e@;+r+s@h+u@j+w+x+~@J+A@m@n#$#%@^@p@q+|@_@r+I@<@[@t#&+8+9@R@v+b+c+Q@x#*#=#-#;++++++++++++++",
"++++++++++++#>#,+Y+Z#'@0@Z@D#)@E#@#!@=@e@;@I#~@h#{@j#]@k@l@~+A+B#^@L#%@^@p+G#/+H+2+I#(+K+L#&+8#_@R#:@w+=#<@x#[@V#-#}#|++++++++++++++",
"++++++++++++#1+Y+f@+@0@Z#2#)@E#@#!#3+p#4+r+;#5@i@)+)@!@l@J#6@m#^@L#%@N@p+G@(+H+2+I#7@[@t#&+#+9@R#:@2#8@3+R#*@z#9#0#a#b++++++++++++++",
"++++++++++++@9+e+g+h@Z@$#)@&#c#!##+p#4+r#~@h@i@j#d#e@l@J#6#f+C+_+D#g+[+}#h@_@r+3#(+K@Q#&+##_+O@1@2#i@3+R#j@V#-#0#k#l#m++++++++++++++",
"+++++++++++++g+g@0@C#+#)@E#c#!#3@e@;+r#~#n+u@j+)#e@l@~#o@m+C@L#%#g+[@q+|+H+2+I#p+K@t+7#q#_@R@1@2#8+Q@x#*@z#9#;#k#r#m#s++++++++++++++",
"++++++++++++#t@0@a#2#)@E#@#u#3@e#4+r#v@h@i#w+w+x+y@~#6@m#^@L@o#x+[#y#/#z+2+I#(+K@t+7+##A@R@v#B+=#<+R#*#C#D#0#k#E#F#s#G++++++++++++++",
"++++++++++++#H@a#+#)@E#@#!#I@e#4+r#~#J+u#K+w+x@l@J#L@m+C@L#%@^+[+}+|+1#M#N#p+K#O#P+8+$@R@v@2+c+Q#Q#*@V#D#}#a#E#R#S#T#U++++++++++++++",
"++++++++++++@D#2@c@E#@#u#I@e+q+r#~+t@i@j+)#V#W@~+^#f@n+_+D#g+[#y+|#z+2+I+4@[@t#P+##X@R@v#B#i+Q+R#*#=#9#0#Y#r#Z#S$+$@$#++++++++++++++",
"++++++++++++$$+k$%#c#u#3+p+q+r#~+,@i#K+w#e$&@J#o+B#^@L#%@^@p+G$*+1$=+3#p+K@Q$-+#+$+O@1#B+=$;+R#*$>#D#0$,$'$)#S#T$!$#$~++++++++++++++",
"++++++++++++@E${#@+n#I@e+q+r#v+,$]#w#d$^+y@~+^#f$/$(+D$_+[#y+|+H#M+3#7+K+L#&+8+$$:@v+*#i#<+R#*@W#D#}#k$'#R$<$+$@$~$[$}++++++++++++++",
"++++++++++++#c$|#u##@e#4+r#~#n+u#K#]#V+{$1+^$2$3@L+D+<@p#y$4+H$5+I+J+5@t+7+8+$$6@v#B#i#<#Q#*@V$7#}#a#r$8#s#T$9$0$a$b$c++++++++++++++",
"++++++++++++$d+n$e@e$f+r#~#J+'#w+w#V$&@~+^$2#^$g+D$h$i$j@(#z$k+I#p+5@t$l+8#X$m@v+*#8#<$n#*$>#D#0#Y$'$8#S$+$@$o$a$p$q$r++++++++++++++",
"++++++++++++##$e@e$s@I#~+,$]$t+w#V+{@J$u@m@K@L#%@^$i#y$*#z$=+I#p@}#O$l+8#X+%@1+*#8#<@x@U$>$v#}#k$'$8#s#T$@$~$a$b$w$x$y++++++++++++++",
"++++++++++++@-$z$f$A#~#n@i#w+w$^$B$C#o+/+(@L#%$h+[+}+|+1$k@<+4@}#O$l+##X@S$D+*+d$;$n@U$>$E$F#Y$'#R#S#T$!$0$G$H$w$y$I$J++++++++++++++",
"++++++++++++#4+q@I#~+,+u#w#]#V+y$C+^$2$/$g+D$h$K#y@(#z$k+I+4@}$L#P+#+$$:$D$M#8#<+R@U$>$v#}#Y#r$8$N#T$9$0$}$H$q$y$O$P$Q++++++++++++++",
"++++++++++++@>$A#v#n+'#w#]$^$&@J#L$R#^+:+D$h$i$j$4#z$S#N#p$T$L#P$U+$$:+&+*+d$V#Q@U@W$7$F#Y#r#R$W$X$9$~$Y$c$q$y$Z$Q%+%@++++++++++++++",
"+++++++++++++;#~+,+v#w+!+~#W@J#o$2$/$g+D$h%#@O$*#z$S%$+4@}#O#P+##X$:$D+*#i$V@5%%$>#D%&#Y#r$8%*#T%=$0%-$b$q$y$O$P%;%>%,++++++++++++++",
"+++++++++++++t#n$]%'%)$^+{+A+^$2$/+:+D$_@p+}$*@:$=#N#p@}$L#P$U+$$m$D@2%!$V%~@U$>$E%&$,$'#R$N$X$9$0$}$c$q$x%{$Q%]%>%^%/++++++++++++++",
"++++++++++++#{%($t+w$^$&@J%_$R+(@M+D$h%:#y+|#z$=+I#p@}$L+@+8#X+%@v%<#i$V%[#*$>$E$F#Y$'#R$W$X$@$~$Y$b$q$y%{%}%+%>%^%|%1++++++++++++++",
"++++++++++++@)%'%)#V+{@{%2$R$/+:%3$h%4$j$*@:$S@P+4%5#O+@+8+0@S+b+*@3%6%~@U%7$E%&$,%8$8$N%9$!$~$}$c%0%a$J$Q%;%>%b%|%c%d++++++++++++++",
"++++++++++++#]+!$^+{$1%2+/#^@M%e$_%#@O$*+1$S%$+4@}+M+@$U#X+a$D+*%!%6$n%f@W#;$F%g%h#R%i#T$!$0$Y$p%0$x$O%}%;%j%k%|%c%l%m++++++++++++++",
"++++++++++++#e%n+{+A%_+/+(+:+<$h%4$j$4%o$S@P%p+L$L+@%q+0+a@w%<@3%6@5#*@W$E%&#b%r#R$N$X%s$0$Y$c$w%a$J$Q%t%u%b%v%w%x%y%z++++++++++++++",
"++++++++++++#V+{+A#o+/%A@M+D@p%4#/$4+1$=%$#p+L$L%B+9#X@S$D%C#8$V@5%D$>$v#}#b%h#R%i%E%=$o$a$p$q$y%{$Q%t%j%F%v%G%x%y%H%I++++++++++++++",
"+++++++++++++++A#o@K#$@o%3$_$i#h$4+2$=@<%p@}+M+N%J%K@S+b+*@3%6%~%%%L$v#|#b$'$8$N%9%=%M$}$p$r%N$J%O%P%u%F%Q%w%R%z%I%S%T++++++++++++++",
"++++++++++++++%_+/+(@M+<%U$i@O%V%o$S@<+K%5+M%B+9+$+a+b+*+d%6%~%%$>$E$F%g#m$8$N$X%W$0$Y$p%0%X$J%}%P%j%b%Q%c%Y%y%H%Z&+&@++++++++++++++",
"++++++++++++++$R$/@M@^+F%4#/&#@r$=@<%p%5@|+N+8%K+a@w$M+d$V%~&$%7$v#|%g&%$8$N%9%W&&$}$p&*&=$J$Q%@&-%F%1%w&;&>%I&,&@&'&)++++++++++++++",
"++++++++++++++#$@M@^$h%4$j%V@:$S@<&!%5#O+@@u#X@S$D$M%!%6@5@z%7$v%&#b#r&~$W$X%W%M$}$p&{%a$J$Q%P&]%b%Q%d%Y&^%I%T&/&(&_&:++++++++++++++",
"++++++++++++++#%@^$h%4#h&#%o$S@P@[+L+7%B+9+O+a+b@T@3@4%~&<$>$E&[#b#m$8$N$X%W$o$Y$c&*$y%{%}%@%u%/%v&}%R%z&|&,&1&'&2&3&4++++++++++++++",
"++++++++++++++@^&5@/#h%V+2$=@<&!@Q+M+@@u+$@S+b@T@3@4@5@z#9$E$F#b#m&6$N#U%s$o&7$p%0$I&8%O&9%u%F%Q%d%Y%z%I%T&0&(&2&3&a&b++++++++++++++",
"++++++++++++++@p@q#h%V%o@s@P%p+6@|+N@u@R@S@w@T+Q$V%~&$%L&c&[#E&d#R$N#U%W$o$}$c&*$x$J%O%P&e%b%v%w&;&f&g%T&0&h&i&3&j&k&l++++++++++++++",
"+++++++++++++++G#h$*@:$=@<&!+L@|%B@u@R@S@w%<+Q&m@y@z&n$E#|%g#m#s$N#U%s&o&7$c$r%X$J%O%@&p&q%Q%c%R&^%H%T&0&(&:&4&j&r&s&s++++++++++++++",
"+++++++++++++++|&#+2+I@<+K@Q@|+#@u+O@S#B%<+Q@4@5&$#-#;#a#b#m#S$W#U&t&&&u$c&*%X&v&w%@&e&q&x&y%Y&^&g%T&1&(&_&4&j&z&A&B&C++++++++++++++",
"++++++++++++++@_+2$=#(@[+L+M+N+9@R#:@2+=+Q@x@5&$%L#;&[#E#m#S$W%E%W&&$Y$p$q%a&8&D%@&e%F&E%w%R&F%I&,&@&'&:&3&j&G&A&B&H&H++++++++++++++",
"++++++++++++++&I+I#(+K+L@|#q+9@R+a+b@T@3@4@5@z#9#;#k#l&d&J&K%E&t$a&L$c$r%X$J&w%P&-&q%v%d%R&f&M&,&0&'&N&3&b&G&s&O&P&Q&R++++++++++++++",
"+++++++++++++++3@P@[@Q@|#q+9@R#:#B%<+Q@x@5&$#9#;&[$'#m#S$W#U&t&o$b$p$w%X&v%;%P&e&S%v%w%Y&^%H&,&@&T&N&4&j&G&s&B&H&Q&U&V++++++++++++++",
"++++++++++++++#(+K@t#&+8@u@R+a+b+c+Q+R#j@z#9#0&W%g#m#s#T$!&t&&&X$p$r%a&v%O%@&e%/%v%d%R&f&M%T&@&'&_&4&j&l&Y&O&P&R&Z*+*@++++++++++++++",
"+++++++++++++++K@Q+7+8@u@R@1*#+c@3+R%~@z#9#;#a#b&d#s*$$!&t&&&u*%&*%X*&%+%@&-***=&}*-&F%H%T&@&h*;&4&b&l&Y&O&P&Q&V*>*,++++++++++++++++",
"++++++++++++++@t#&+N+9@R@v+*+c+Q@x@U@z#9#0#k$'#m#s#G$@$~&&&L*'$r%X*&&w*)&e&S&E&}%Y&f%S&,*!*~&:*{&j&G&A&O&H*]*^*/*(*_++++++++++++++++",
"++++++++++++++$l+N@u@R@v#B@T+Q*:#*@z#-#}#a$'&d#S&K$@&t&&$b$p&*$Z&8%O%P&-%b&E%w*-*<*[%T&@&T&N&3&j&G*}&O*|&Q*1*>*2*3*4++++++++++++++++",
"+++++++++++++++##A@R@v$M+c@3@x#j#=#9#;&[#r&d#S#T%E$#&&&L*5$r$I&8&w%j&e&q&x%l*-&f*[&,&@&T&_*{&b&G*6&O&P&Q*@*7*2*3*8*9++++++++++++++++",
"+++++++++++++++$+O@v$M+=@3@x#*@V#9#0#a$'#m#s#T$@$#&&&L$w&*$O*&%O%P&-&S%G&y%R&f%S%T*0&T&N*a&b&G*6&C&P&R*1*b*(*c*d*e*f++++++++++++++++",
"++++++++++++++@S@1@2+=#<+R#*@z$7#}#a*g&d#s#T%E$~&o$b*'$r$I&v%;*h&e*i&x&}*-&F*j%T&@&h*;*a&j&l*6&O&H&Q*1*,*2*c*8*k*l*f++++++++++++++++",
"++++++++++++++@1#B+c$;@x#*@z#-#}#k$'&d#S$+$@$#$G&L*m*n$I$P%;%j&e***=&y*o&f*j*p&@&T&N*{&b&G&Y&C*q&Q*@*b*2*3*r*e*f*s*t++++++++++++++++",
"++++++++++++++#B+=@3@x#*@V$7$F#k#r#m$<$+%=%s%-$b$q*u$Z&v%O%j%k&S&E%l%Y&f%S&,*v&)&N*a&b&G&Y&C&H*w*@*,*x*c*r*k*f*t*s*f++++++++++++++++",
"++++++++++++++%!#<@x@U@V#9#}#a$'#F$<#T$9$0&o$b$q&*$Z*y&9%>&-*i&E&}%y&f*j&,*0&)&N*z*A&G*B&C&P*C*1*b*2*c*8*e*f*t*s*s*s++++++++++++++++",
"++++++++++++++%6@x@U#C#9#}#k$'#F$<$+$!$0$a$b$q$r$O*y%;*D&-*i&E%l%R&f*j*p*0*~*;*z*A&G*B*E&P*C*@*b*F*G*r*k*H*s*s*s*t*t++++++++++++++++",
"++++++++++++++@5@U&$#9#0#a$'*I#S#T%=$~$}$b$q$y$Z$P%t*J%b*i%c%m*K&f*j*L*M&)*N*z*O&l*B*P&P*]*1*b*Q*3*R*k*S*t*s*s*t*t*t++++++++++++++++",
"++++++++++++++#*@z$>$E&[*g#m$8$N#U$0$o&L$q&*%{$P%;%>&-*i%G%m&>*T%S&/&@*~*N*U*A&G*6*P&P*C*@*b*(*c*V*k*H*f*t*s*s*t*s*t++++++++++++++++",
"++++++++++++++++++++++++++++++++++++++$c$w$y%{&w&9&]%b%1%c%Y%y%I*W&/&@&i*X*Y*O*}*B*Z&P=+=@*2*3*r=#*H*t*t*s*s*s*t*s*t++++++++++++++++",
"++++++++++++++++++++++++++++++++++++++++++++++++++++++++++++++++++++++++++++++++++++++++++++++++++++++++++++++++++++++++++++++++++++",
"++++++++++++++++++++++++++++++++++++++++++++++++++++++++++++++++++++++++++++++++++++++++++++++++++++++++++++++++++++++++++++++++++++",
"++++++++++++++++++++++++++++++++++++++++++++++++++++++++++++++++++++++++++++++++++++++++++++++++++++++++++++++++++++++++++++++++++++",
"++++++++++++++++++++++++++++++++++++++++++++++++++++++++++++++++++++++++++++++++++++++++++++++++++++++++++++++++++++++++++++++++++++",
"++++++++++++++++++++++++++++++++++++++++++++++++++++++++++++++++++++++++++++++++++++++++++++++++++++++++++++++++++++++++++++++++++++",
"++++++++++++++++++++++++++++++++++++++++++++++++++++++++++++++++++++++++++++++++++++++++++++++++++++++++++++++++++++++++++++++++++++",
"++++++++++++++++++++++++++++++++++++++++++++++++++++++++++++++++++++++++++++++++++++++++++++++++++++++++++++++++++++++++++++++++++++"};
