/* XPM */
static char * ball_red_xpm[] = {
"66 66 677 2",
"=q c #5AFE68",
"=p c #6FFF7B",
"=o c #52FF60",
"=n c #5CFE6A",
"=m c #9CFEA4",
"=l c #A3FFAA",
"=k c #57FF65",
"=j c #59FE67",
"=i c #83FF8D",
"=h c #56FE66",
"=g c #61FE70",
"=f c #50FE5F",
"=e c #59FF67",
"=d c #5EFF6D",
"=c c #50FF5F",
"=b c #56FE64",
"=a c #58FF68",
"=0 c #64FF71",
"=9 c #6CFE7A",
"=8 c #52FE61",
"=7 c #53FE63",
"=6 c #52FF61",
"=5 c #57FF66",
"=4 c #77FF84",
"=3 c #55FF65",
"=2 c #50FE60",
"=1 c #55FE65",
"=| c #70FF7E",
"=} c #8FFE98",
"=[ c #4FFF5E",
"=< c #4EFE5D",
"=: c #4FFE5E",
"=_ c #50FF60",
"=( c #52FE62",
"=/ c #54FF63",
"=^ c #58FE66",
"=] c #59FF68",
"={ c #5FFF6D",
"=~ c #61FE6E",
"=! c #62FE71",
"=) c #6BFE78",
"=' c #71FE7D",
"=, c #52FF62",
"=> c #5AFF68",
"=; c #79FE86",
"=- c #A6FFAF",
"== c #54FF64",
"=* c #59FF69",
"=& c #61FF6F",
"=% c #70FE7E",
"=$ c #4EFE5E",
"=# c #4FFF5F",
"=@ c #51FE60",
"=+ c #56FF65",
"*Z c #5AFE69",
"*Y c #5BFF6A",
"*X c #5DFF6C",
"*W c #73FE7F",
"*V c #4EFF5E",
"*U c #51FF60",
"*T c #54FE63",
"*S c #56FE65",
"*R c #5DFE6C",
"*Q c #5FFE6E",
"*P c #64FF73",
"*O c #7AFF85",
"*N c #7BFE88",
"*M c #4FFE5F",
"*L c #53FE62",
"*K c #54FE64",
"*J c #5FFF6E",
"*I c #61FF70",
"*H c #65FF72",
"*G c #67FF74",
"*F c #6DFF7B",
"*E c #84FE90",
"*D c #51FF61",
"*C c #55FF64",
"*B c #56FF66",
"*A c #58FF67",
"*z c #5CFF6B",
"*y c #60FF6E",
"*x c #6AFF78",
"*w c #76FF83",
"*v c #78FE85",
"*u c #53FF62",
"*t c #63FF71",
"*s c #67FE74",
"*r c #79FF84",
"*q c #81FE8D",
"*p c #85FF90",
"*o c #55FE64",
"*n c #58FE67",
"*m c #5AFF69",
"*l c #5CFF6A",
"*k c #63FE71",
"*j c #6FFE7D",
"*i c #83FF8F",
"*h c #91FE9C",
"*g c #57FE66",
"*f c #5BFF69",
"*e c #5CFE6B",
"*d c #63FE72",
"*c c #67FE75",
"*b c #6CFF7A",
"*a c #A6FEAD",
"*0 c #7EFF8A",
"*9 c #59FE68",
"*8 c #5BFE69",
"*7 c #5EFE6C",
"*6 c #60FE6E",
"*5 c #65FE73",
"*4 c #69FF76",
"*3 c #72FF7E",
"*2 c #9CFEA6",
"*1 c #5BFE6A",
"*| c #5DFF6B",
"*} c #5EFE6D",
"*[ c #60FF6F",
"*< c #64FF72",
"*: c #66FF73",
"*_ c #69FE76",
"*( c #6EFE7C",
"*/ c #74FF80",
"*^ c #77FE84",
"*] c #85FF91",
"*{ c #A7FEB0",
"*~ c #5DFE6B",
"*! c #5EFF6C",
"*) c #62FE70",
"*' c #65FF73",
"*, c #69FE77",
"*> c #9BFEA5",
"*; c #AAFFB3",
"*- c #5FFE6D",
"*= c #61FE6F",
"** c #65FE74",
"*& c #67FF75",
"*% c #9AFEA2",
"*$ c #60FE6F",
"*# c #62FF70",
"*@ c #69FF77",
"*+ c #6BFE79",
"&Z c #6DFE7A",
"&Y c #6EFF7C",
"&X c #74FE81",
"&W c #75FF82",
"&V c #90FE9B",
"&U c #63FE70",
"&T c #65FE72",
"&S c #66FE73",
"&R c #68FF75",
"&Q c #6AFF77",
"&P c #76FF82",
"&O c #79FF86",
"&N c #9EFEA6",
"&M c #64FE72",
"&L c #66FF74",
"&K c #68FE75",
"&J c #6FFE7C",
"&I c #71FF7D",
"&H c #72FE7F",
"&G c #74FF81",
"&F c #77FE82",
"&E c #7BFF88",
"&D c #84FF90",
"&C c #9AFFA2",
"&B c #A2FEAB",
"&A c #A8FFAF",
"&z c #7CFF87",
"&y c #66FE74",
"&x c #68FE76",
"&w c #6AFE77",
"&v c #6DFE7B",
"&u c #71FF7E",
"&t c #73FF7F",
"&s c #7CFE88",
"&r c #90FF99",
"&q c #ABFFB4",
"&p c #AFFFB7",
"&o c #68FF76",
"&n c #6AFE78",
"&m c #6DFF7A",
"&l c #6FFF7C",
"&k c #7CFE87",
"&j c #82FF8C",
"&i c #85FF8F",
"&h c #87FE91",
"&g c #8BFF96",
"&f c #8EFF97",
"&e c #A3FFAC",
"&d c #6BFF78",
"&c c #6CFE79",
"&b c #6EFE7B",
"&a c #70FF7C",
"&0 c #76FE83",
"&9 c #78FF85",
"&8 c #7AFF86",
"&7 c #80FF8B",
"&6 c #87FF91",
"&5 c #AEFEB6",
"&4 c #B1FEB9",
"&3 c #6CFF79",
"&2 c #7AFF87",
"&1 c #BAFFC1",
"&| c #BDFFC2",
"&} c #6EFF7B",
"&[ c #70FF7D",
"&< c #71FE7E",
"&: c #75FE81",
"&_ c #78FF83",
"&( c #79FF85",
"&/ c #7EFE8A",
"&^ c #80FE8B",
"&] c #84FE8E",
"&{ c #98FEA2",
"&~ c #A6FFAD",
"&! c #70FE7D",
"&) c #72FF7F",
"&' c #73FF80",
"&, c #77FF83",
"&> c #7BFE86",
"&; c #7EFF89",
"&- c #82FF8D",
"&= c #86FF90",
"&* c #89FE94",
"&& c #8BFF95",
"&% c #72FE7E",
"&$ c #73FE80",
"&# c #75FE82",
"&@ c #78FE84",
"&+ c #7BFF86",
"%Z c #85FE91",
"%Y c #8AFF93",
"%X c #74FE80",
"%W c #75FF81",
"%V c #77FE83",
"%U c #7DFF88",
"%T c #80FE8C",
"%S c #84FF8E",
"%R c #9BFFA3",
"%Q c #9DFEA5",
"%P c #CCFFCF",
"%O c #89FF94",
"%N c #76FE82",
"%M c #7AFE85",
"%L c #7DFE88",
"%K c #8EFF99",
"%J c #97FFA1",
"%I c #ABFEB3",
"%H c #78FF84",
"%G c #79FE85",
"%F c #7BFF87",
"%E c #7FFF8A",
"%D c #80FF8C",
"%C c #82FE8E",
"%B c #88FE92",
"%A c #8DFE97",
"%z c #98FEA1",
"%y c #B3FFB9",
"%x c #BEFFC5",
"%w c #8DFF98",
"%v c #7AFE86",
"%u c #7BFE87",
"%t c #7DFE89",
"%s c #7FFE8A",
"%r c #82FE8D",
"%q c #91FF9B",
"%p c #99FEA3",
"%o c #ABFFB3",
"%n c #C5FFC9",
"%m c #8FFE9A",
"%l c #7CFF88",
"%k c #7DFF89",
"%j c #7FFE8B",
"%i c #84FE8F",
"%h c #88FF92",
"%g c #8AFE94",
"%f c #91FE9A",
"%e c #A9FEB2",
"%d c #B1FFB7",
"%c c #BEFFC3",
"%b c #7EFE89",
"%a c #81FE8C",
"%0 c #83FF8E",
"%9 c #8BFE96",
"%8 c #93FE9C",
"%7 c #9AFEA3",
"%6 c #A7FFAE",
"%5 c #BDFFC4",
"%4 c #C0FEC5",
"%3 c #7FFF8B",
"%2 c #81FF8C",
"%1 c #8DFE98",
"%| c #91FE9B",
"%} c #95FF9F",
"%[ c #A1FFAA",
"%< c #ADFFB5",
"%: c #B9FFBE",
"%_ c #BDFEC4",
"%( c #C6FFCC",
"%/ c #C9FECD",
"%^ c #81FF8D",
"%] c #85FE8F",
"%{ c #86FE91",
"%~ c #88FF93",
"%! c #8CFE96",
"%) c #93FF9C",
"%' c #96FFA0",
"%, c #9DFEA7",
"%> c #BEFEC3",
"%; c #C8FFCE",
"%- c #83FE8E",
"%= c #84FF8F",
"%* c #86FF91",
"%& c #88FE93",
"%% c #8AFF94",
"%$ c #8EFF98",
"%# c #95FE9E",
"%@ c #A9FEB0",
"%+ c #BBFEC0",
"$Z c #C5FFCB",
"$Y c #D3FED8",
"$X c #85FE90",
"$W c #87FE92",
"$V c #89FF93",
"$U c #8AFE95",
"$T c #96FEA0",
"$S c #9EFFA7",
"$R c #ACFFB4",
"$Q c #BBFFC0",
"$P c #C6FECA",
"$O c #D2FED5",
"$N c #B0FFB8",
"$M c #87FF92",
"$L c #8CFF96",
"$K c #8EFE98",
"$J c #92FF9B",
"$I c #95FF9E",
"$H c #98FFA2",
"$G c #9AFFA4",
"$F c #A3FEAC",
"$E c #B2FEB8",
"$D c #B3FFBB",
"$C c #BCFEC3",
"$B c #BFFEC4",
"$A c #D4FFD7",
"$z c #9EFFA6",
"$y c #89FE93",
"$x c #8CFE97",
"$w c #92FE9B",
"$v c #93FF9D",
"$u c #97FEA0",
"$t c #A0FFA8",
"$s c #A5FEAD",
"$r c #ACFEB4",
"$q c #B0FEB7",
"$p c #B2FFB8",
"$o c #B4FEBA",
"$n c #B5FFBC",
"$m c #BFFFC4",
"$l c #C2FFC7",
"$k c #C6FFCB",
"$j c #D0FED4",
"$i c #D3FFD8",
"$h c #D7FFDB",
"$g c #DBFFDE",
"$f c #8AFF95",
"$e c #8BFE95",
"$d c #8CFF97",
"$c c #8FFF98",
"$b c #90FE9A",
"$a c #93FE9D",
"$0 c #99FEA2",
"$9 c #9DFFA5",
"$8 c #9FFEA7",
"$7 c #A0FEA8",
"$6 c #B1FEB7",
"$5 c #B5FEBC",
"$4 c #C2FEC7",
"$3 c #C9FFCE",
"$2 c #CBFECF",
"$1 c #CDFED1",
"$| c #CEFED3",
"$} c #D4FED7",
"$[ c #D6FFD9",
"$< c #D9FEDD",
"$: c #DDFEE0",
"$_ c #DEFEE2",
"$( c #E2FEE4",
"$/ c #8DFF97",
"$^ c #8EFE99",
"$] c #94FE9D",
"${ c #95FE9F",
"$~ c #97FFA0",
"$! c #B0FEB8",
"$) c #B4FFBA",
"$' c #B9FFC0",
"$, c #BDFEC2",
"$> c #BEFFC4",
"$; c #C0FEC6",
"$- c #C5FECB",
"$= c #D0FED5",
"$* c #E0FEE3",
"$& c #8FFF99",
"$% c #8FFE99",
"$$ c #90FF9A",
"$# c #92FE9C",
"$@ c #99FFA2",
"$+ c #9CFFA6",
"#Z c #9FFFA7",
"#Y c #A0FFA9",
"#X c #A2FFAA",
"#W c #A4FFAC",
"#V c #ABFEB2",
"#U c #B6FEBC",
"#T c #B9FFBF",
"#S c #C2FFC8",
"#R c #C7FECD",
"#Q c #D9FFDD",
"#P c #DBFFDF",
"#O c #E1FFE3",
"#N c #E5FEE8",
"#M c #94FF9D",
"#L c #92FF9C",
"#K c #94FF9E",
"#J c #96FF9F",
"#I c #9CFFA4",
"#H c #9DFFA6",
"#G c #A0FEA9",
"#F c #A4FEAC",
"#E c #A7FEAF",
"#D c #A9FFB1",
"#C c #B7FEBE",
"#B c #BCFFC1",
"#A c #C2FEC8",
"#z c #C4FECA",
"#y c #C8FECC",
"#x c #C9FECE",
"#w c #CBFFD0",
"#v c #CFFFD3",
"#u c #D0FFD5",
"#t c #D6FFDA",
"#s c #D8FFDB",
"#r c #DAFFDD",
"#q c #DEFFE0",
"#p c #DFFEE1",
"#o c #E1FEE3",
"#n c #E5FEE6",
"#m c #9CFFA5",
"#l c #98FFA1",
"#k c #94FE9E",
"#j c #9AFFA3",
"#i c #9BFEA4",
"#h c #A1FEA9",
"#g c #A2FFAB",
"#f c #AEFFB6",
"#e c #B5FFBB",
"#d c #B8FFBF",
"#c c #B9FEC0",
"#b c #C1FEC6",
"#a c #C3FEC8",
"#0 c #CAFECE",
"#9 c #D2FED6",
"#8 c #D5FFD8",
"#7 c #D6FEDA",
"#6 c #D8FEDB",
"#5 c #DDFFE1",
"#4 c #E2FEE5",
"#3 c #E6FEE9",
"#2 c #96FE9F",
"#1 c #97FEA1",
"#| c #99FFA3",
"#} c #9BFFA5",
"#[ c #A1FFA9",
"#< c #A6FEAE",
"#: c #A8FEB0",
"#_ c #AAFEB1",
"#( c #ACFEB3",
"#/ c #AFFEB7",
"#^ c #B3FEB9",
"#] c #B4FEBB",
"#{ c #B8FFBE",
"#~ c #BFFFC5",
"#! c #C1FFC6",
"#) c #C4FEC9",
"#' c #CDFED2",
"#, c #D4FFD8",
"#> c #DCFFDF",
"#; c #DFFEE2",
"#- c #E6FEE8",
"#= c #E3FFE6",
"#* c #9AFEA4",
"#& c #9BFFA4",
"#% c #9CFEA5",
"#$ c #9DFEA6",
"## c #9FFEA8",
"#@ c #A1FEAA",
"#+ c #A3FEAB",
"@Z c #A5FFAD",
"@Y c #A7FEAE",
"@X c #A8FEAF",
"@W c #AAFEB2",
"@V c #AEFFB5",
"@U c #AFFEB6",
"@T c #B1FEB8",
"@S c #B3FEBA",
"@R c #B8FEBF",
"@Q c #BCFEC2",
"@P c #BDFFC3",
"@O c #BFFEC6",
"@N c #C1FEC7",
"@M c #C3FEC9",
"@L c #C8FECD",
"@K c #CBFED0",
"@J c #CEFFD2",
"@I c #CFFED3",
"@H c #DCFEDE",
"@G c #DEFEE0",
"@F c #DFFFE2",
"@E c #E1FEE4",
"@D c #E5FEE7",
"@C c #E7FFE8",
"@B c #E9FFEA",
"@A c #EAFEEB",
"@z c #ECFEED",
"@y c #EAFEED",
"@x c #A4FFAB",
"@w c #9FFFA8",
"@v c #9EFEA7",
"@u c #A2FEAA",
"@t c #A4FEAD",
"@s c #A8FFB0",
"@r c #AAFFB2",
"@q c #B0FFB6",
"@p c #B3FFBA",
"@o c #B8FEBE",
"@n c #BAFFC0",
"@m c #C3FFC8",
"@l c #C5FECA",
"@k c #CCFED0",
"@j c #D3FED7",
"@i c #D5FED8",
"@h c #D7FEDB",
"@g c #D8FEDC",
"@f c #DAFEDE",
"@e c #E3FFE5",
"@d c #E8FEEA",
"@c c #EAFFEC",
"@b c #ECFFED",
"@a c #EFFEF0",
"@0 c #A5FFAE",
"@9 c #A4FFAD",
"@8 c #A3FFAB",
"@7 c #A6FFAE",
"@6 c #A7FFAF",
"@5 c #A9FFB0",
"@4 c #ABFFB2",
"@3 c #ADFEB4",
"@2 c #AEFEB5",
"@1 c #B5FEBB",
"@| c #B7FEBD",
"@} c #B9FEBF",
"@[ c #BAFEC1",
"@< c #BCFFC2",
"@: c #BEFEC4",
"@_ c #C0FFC5",
"@( c #C7FFCB",
"@/ c #C8FFCD",
"@^ c #CEFFD3",
"@] c #CFFFD4",
"@{ c #D2FFD6",
"@~ c #D7FFDA",
"@! c #DAFFDE",
"@) c #DEFFE1",
"@' c #E0FFE3",
"@, c #E3FEE6",
"@> c #E5FFE7",
"@; c #E7FEE9",
"@- c #EAFEEC",
"@= c #EEFFEF",
"@* c #F1FEF3",
"@& c #A9FEB1",
"@% c #AAFFB1",
"@$ c #ADFFB4",
"@# c #BBFEC1",
"@@ c #BFFEC5",
"@+ c #C1FFC7",
"+Z c #C3FFC9",
"+Y c #C5FFCA",
"+X c #C6FECC",
"+W c #C9FFCD",
"+V c #CCFED1",
"+U c #CEFED2",
"+T c #CFFED4",
"+S c #D1FED5",
"+R c #D7FEDA",
"+Q c #D9FFDC",
"+P c #DCFEDF",
"+O c #E0FFE2",
"+N c #E1FFE5",
"+M c #E3FEE5",
"+L c #E5FFE8",
"+K c #EBFFEC",
"+J c #F1FFF3",
"+I c #F3FFF4",
"+H c #ACFFB3",
"+G c #ADFEB5",
"+F c #B2FFB9",
"+E c #BAFEC0",
"+D c #C0FFC6",
"+C c #B2FEB9",
"+B c #B0FFB7",
"+A c #B6FFBC",
"+z c #BBFFC1",
"+y c #C4FFCA",
"+x c #CBFFCF",
"+w c #CAFECF",
"+v c #C7FECC",
"+u c #CAFFCE",
"+t c #CDFFD1",
"+s c #D5FFD9",
"+r c #D9FEDC",
"+q c #DCFFE0",
"+p c #DEFEE1",
"+o c #E0FEE2",
"+n c #E2FFE4",
"+m c #E4FEE6",
"+l c #E6FFE8",
"+k c #E7FFE9",
"+j c #E9FFEB",
"+i c #EBFFED",
"+h c #ECFFEE",
"+g c #EEFFF0",
"+f c #F0FEF1",
"+e c #F4FFF4",
"+d c #E4FFE7",
"+c c #B7FFBE",
"+b c #AFFFB6",
"+a c #B1FFB8",
"+0 c #BDFEC3",
"+9 c #C7FFCC",
"+8 c #D1FFD5",
"+7 c #DAFEDD",
"+6 c #CCFFD1",
"+5 c #C6FECB",
"+4 c #CAFED0",
"+3 c #D0FFD4",
"+2 c #D5FED9",
"+1 c #DBFEDE",
"+| c #E1FFE4",
"+} c #E9FEEA",
"+[ c #ECFEEE",
"+< c #EEFEF0",
"+: c #F0FFF1",
"+_ c #F2FFF3",
"+( c #F4FEF5",
"+/ c #F2FEF3",
"+^ c #CDFFD2",
"+] c #B6FEBD",
"+{ c #B4FFBB",
"+~ c #B7FFBD",
"+! c #BCFFC3",
"+) c #C4FFC9",
"+' c #CCFFD0",
"+, c #D3FFD7",
"+> c #DDFFE0",
"+; c #E8FFE9",
"+- c #EDFFEF",
"+= c #EFFFF0",
"+* c #F1FFF2",
"+& c #F2FFF4",
"+% c #F4FFF5",
"+$ c #F1FFF1",
"+# c #CAFFCF",
"+@ c #B6FFBD",
"++ c None",
"++++++++++++++++++++++++++++++++++++++++++++++++++++++++++++++++++++++++++++++++++++++++++++++++++++++++++++++++++++++++++++++++++++",
"++++++++++++++++++++++++++++++++++++++++++++++++++++++++++++++++++++++++++++++++++++++++++++++++++++++++++++++++++++++++++++++++++++",
"++++++++++++++++++++++++++++++++++++++++++++++++++++++++++++++++++++++++++++++++++++++++++++++++++++++++++++++++++++++++++++++++++++",
"+++++++++++++++++++@+#+$+%+&+*+=+-+;+>+,+'+)+!+~+{++++++++++++++++++++++++++++++++++++++++++++++++++++++++++++++++++++++++++++++++++",
"+++++++++++++++++++]+^+/+(+_+:+<+[+}+|+1+2+3+4+5+6+1+7+8+9+0+~+a+b++++++++++++++++++++++++++++++++++++++++++++++++++++++++++++++++++",
"+++++++++++++++++++c+d+e+_+f+g+h+i+j+k+l+m+n+o+p+q+1+r+s+8+t+u+v+w+x+y+z+A+B+C+D+E+F+G+H++++++++++++++++++++++++++++++++++++++++++++",
"+++++++++++++++++++++I+J+:+<+[+K+}+k+L+M+N+O+p+P+1+Q+R+s+,+S+T+U+V+#+W+X+Y+Z@+@@@#+@+C+F+A+F@$@%@&++++++++++++++++++++++++++++++++++",
"++++++++++++++++++++@*+f@=+h@-+}@;@>@,+n@'@)+P@!+r@~+2+,@{@]@^+6+x@/@(+Y+Z@+@_@:@<@[@}@|@1+F+B@2@3@4@5@6@7@8@8@9@0++++++++++++++++++",
"++++++++++++++++++++@a@=@b@c@d+k+L@e+|+o@)+P@f@g@h@i@j+8+T+^@k+w@/+X@l@m@+@@@:@<@n@o+~@1@p+a@q@2+H@r@s@6@t@8@u@u@v@w@x++++++++++++++",
"++++++++++++++++++++@y@z@A@B@C@D+M@E@F@G@H+7@g+R+s@j+S@I@J@K+w@L+v@l@M@N@O@P@Q+E@R+@@1@S@T@U@V+H@W@X@Y@Z#+#@###$#%#&#*#&@8++++++++++",
"++++++++++++++++++++#=@d@d#-@D@,@E#;+p#>+7@g@~#,@j+S@I#'@k+u@L+5#)@m#!#~+0+z@n#{+]#]#^+a#/+G#(#_#:#<@t#+#[###$#}#|#1#2#%#[++++++++++",
"+++++++++++++++++++++|#-#3@D#4@E#;#5+P+7#6#7#8#9+S@I+^@K#0@/+5+)#a#b#~+0@<#c#d+A#e#^@T#f@2#(#_#:#<@t#g#h###$#i#j#1#2#k#l#m++++++++++",
"++++++++++++++++++++#n#-+d+M#o#p#q+P#r#s#t#,@{#u#v+^#w#x#y+5#z#A#b#~@P#B+E#C+A+{#^+a@U@3#(#D#E#<#F#g#G@w#H#I#|#l#J#K#L#M#J++++++++++",
"++++++++++++++++++++#N+d+M#O@F+>#P#Q#s#t#,#9+8@I#'#w#0#R+5#)#S+D@@+0@##T@o#U#]+F@T+b@$#V#D#E@7#W#X#Y#Z$+#&$@#1#J#k$#$$$%$&++++++++++",
"++++++++++++++++++++#=#4$*@F+>+1+7#6+s#,@{$=@I+t#w#x+9$-#)#S$;$>$,@#$'+c+A$)+C$!@V@3@4@&#E#<#W#g#G###$#&$@$~${$]#L$$$^$/$/++++++++++",
"++++++++++++++++++++$($*$_$:+1$<#s$[$}#9+3$|$1$2$3+9$-@M$4$;@:+!@##c+c$5$)+C$6#f@3@4#D@X#<#F@u$7$8$9#&$0#1#J$a$#$b$c$d$e$f++++++++++",
"++++++++++++++++++++@'+p+>$g$<$h#t$i#9$j@^#'@K#x+v$k#)$l$;$m+0@##T+~$n$o$p$q#f$r@4@&#E$s#F#X$t@v#m#&$@$u#2$v$w$b$^$x$f$y$z++++++++++",
"++++++++++++++++++++#5$:$g$<$h$[$A@{+3$|+6+##x+9$k#)$l+D$B$C@#@R+c$5$D$E+B@2@3@r#D@6$s$F#@@w@v#m$G$H$~$I$]$J$$$K$L$f$y$M$z++++++++++",
"++++++++++++++++++$N+w+1+Q$h+s$A$O+3@J+V+x#x+v$P+)$4$;$>$,$Q@}@|$n@S+F$q@V$R@W@5#E@Z#W@u#G$S#m$G$@$T$I$v$w$$$K$x$U$V$W$X#&++++++++++",
"+++++++++++++++++++C+)+r@~+s$Y#9$j+U+V+w$3+9$Z#a$l@_@:@Q%+@R+~#e$o$p+B@V$r#_%@#E$s#+#X$t@v#m#j$0$u%#$a$w$b%$$L%%%&%*%=%-$@++++++++++",
"++++++++++++++++++$n#z$h+s+,+8$j@J+'+#%;+v+Y@m@N@O%>@<$Q@}+~#e@p@T$q@V$r@r#:@Y@0#+#@$t%,#m#j$@%'%#%)$J$&%$%!%%%~%{%]%-%^$~++++++++++",
"++++++++++++++++++@o@l+s+,+S+3+U+V+u%/%($Z@m@N@@%_@<@n%:@|#]@S@T#/%<#(#_#:@7@Z#+%[##@v#%#j$@$T%}$a%|$&%1$L%%%~$W$X%-%2%3$]++++++++++",
"+++++++++++++++++++z+5+,+S+T+U@k+#@/+v+Y#a@N%4%5@Q@n@R+]@1@S@T@U+G$r@W#:%6$s@8#[###$#%%7$H$T#k%8%|$&$/%9%%%&%{$X%0%a%3%b$J++++++++++",
"++++++++++++++++++$m+9+8@]#'+V+w@L+5#z@m#b$B%c@<+E#{+@#e@S%d+b+G#(%e@s@7@Z#+#[#Z#H#i%7$H%'#K$#%f$%%1$e%g%h%{%i%0%2%j%k%l%m++++++++++",
"++++++++++++++++++$l#y@I$1+'+u@/+5%n@m#!@@+0@<+E@o+]#]#^@T+b+G%o#D@s#<#F#+#h###$#&%p#l#2#k$#%q$&$/%9%%%h%*%i%r%2%s%t%u%v%w++++++++++",
"+++++++++++++++++++9+##'#w#x#y+5%n#A#b%x+0+z$'+c+@$o%y+B@U+G+H#D#:#<#F#X#[#Z#$#&$0%z#J#K$#$$$^%A$e%%%B%{%=%C%D%E%k%F%G%H$f++++++++++",
"+++++++++++++++++++#@K#w$3@L+5#)#S#!$B+0+z+E@o#U#]%y$q+b@3%I#D@s@7#F#+#Y#Z#$#i#|%J${$]$#$$%K%A%9%g%h%*%i%-%D%j%L%u%M%H%N%O++++++++++",
"++++++++++++++++++%P$2#x+9+5+)#S#!%x$,@##T+c#U$o+C+B@U@3%o#D@X#<#W@u#Y@v%Q%R$0$~#J#k#L$b$%$/$e%O$M%*%S%r%T%E%U%u%G%V%W%X$M++++++++++",
"++++++++++++++++++#0#x#R+5+)$4#b$B+0+z@n@o+A#]+C$q@U$r%o#D#E@7#F@u#[#Z#$#i$@%J#J#K$#$b$^%A$e%Y%B%Z%i%r%D%E%L&+%G&@&#&$&%%0++++++++++",
"+++++++++++++++++++]+9$Z#)$4+D$>@P+z#T+~$5$o+F$q@V@$#V#D#E@0#W@u#Y$z$9#j$0#1%}$a$J$b%$$d&&&*$W&=%=&-%3&;%l&>%G&,%N&'&)&!%r++++++++++",
"++++++++++++++++++$p+5#)$l$;@:+!@##c#C$5$)+F$q+b@3@4@5#E&~$F@u#Y@v$9#i&{$u${$v$J$$$K$/$e$y$M$X&]&-&^&/%L&>&(&_&:&'&<&[&}%2++++++++++",
"+++++++++++++++++++F@m$l$;$>&|&1#T+~+A@p+a$q@2$r@4@5@6@Z#+%[$t$S#m#*$@$u%}$a$w$$$K$d$U$V$M$X%0%2%3&;%l&2&(&,&:&$&%&[&}&3%E++++++++++",
"+++++++++++++++++++{@+$;@:@Q+z$'+~$n$)&4#/&5$r@4%@#E@Z@8#@@w@v#%#*$0$~%#$a%|$$$K$L$e%&&6$X%-%r&7&;%l&8&9&0&:&$&<&a&b&c&d&;++++++++++",
"++++++++++++++++++$n@_@:@<+E#d@|#e@p&4+b@2#(@r@5@6$s&e#@$t$S#m#j$H%'%#$v%|$b&f&g%%%&&h&i%-&j%j%k&k&8%H&0%W&$&<&l&m&3&n&o%U++++++++++",
"+++++++++++++++++++@@:@<%+#T@|#e@p+a&p@V&q@r#:#E$s#+#@@w$S#m#j#l%'#K$v%q&r%w&g$U%&%*$X%-%2&^&;&s&8%H&,%W&t&u&l&v&c&w&x&y&z++++++++++",
"++++++++++++++++++#{@Q@n#d+~@1#^@T+b@2+H@W&A@Y$s&B#[###H#%&C&{#2#k#L%q$%$/$L%%%&%{&D%r%a%E%k&E%v&@&F&G&H&I&J&m&c&w&K&L&M&8++++++++++",
"+++++++++++++++++++E@n#T+@#e@S+a+b%<+H@W@s@7#W@8#h##&N#I%7#l$u#k$a%|$&$/%!%g%&%{&i%-%a%E%k%F&O&@&P%W&t&u&J&m&3&Q&R&S&T&U&+++++++++++",
"++++++++++++++++++$'#{#U#]%y+a@U@3%I@%#:#<#W#+#h###H#i#j#l#J#K$#&V$&$/$L%g%B%*%i&-%T%E%k%u%G%H&W&X&H&!&Y&Z*+*@&K&y&M*#*$%U++++++++++",
"++++++++++++++++++@o+]+{+F@T+b%<@4@%@s@7#F@8#h###H#i*%#l%'#K#L%f$&$/&g%%%~%*&D%C%2%s%t%u&(&,%N&'&)&[&l&m&3&w*&**&M*#*=*-%F++++++++++",
"++++++++++++++++*;+{$)+F%d@U@3%o%e@6@7#F#X#Y$8#$*>$@%z#J#K$#$b$%%A&&%O$W&=%=&-&^&/%U%u&(%H&W%X&H&[&b&3&d*,*&*'&M*)*$*!*~&+++++++++++",
"++++++++++++++++@r&4+C$!#f@$#V#_*{@7#F#X$t#Z%Q#&$0#l#2#M#L$$$&$/&&%O%h*]%=&-%D&/%k%u%G*^%N*/&)&!*(&Z&d*_&R*:*<*)*[*}*|*1%U++++++++++",
"++++++++++++++++@4+B$q#f@$@4@&@6@Z&e#X#G#Z*2#i$0%z#2$]#L$b%$%A$e%O$W$X%S&-&^%s%l%F%G&,&:*/*3&[&b&m&d*4*&*5*<*)*6*7*~*8*9*0++++++++++",
"++++++++++++++++@4&5@2@3%I#D@6*a#F@u#Y@v#$#i$0#1#J$]$#$b%$$x$e$y$W$X&]%r%T*0%L&>%G&,&#&$&%&!&}*b&n*_*c*:*d*)*6*}*e*f*9*g%T++++++++++",
"++++++++++++++++%o@3$R#V@&#E$s$F@u$7@v#m#i$0$~%}$]*h%m$K$x$f$y$W$X*i&-&7&/%U&+&(%V&:&$&u*j&b&c&n&x*c*5*k*#*6*7*l*m*n*g*o%0++++++++++",
"++++++++++++++++#V#(@r@&@Y$s#+@u#G$S#%#i$0$u%}$a$#$b%$%!$U%~$W*p%i*q%D&/%l%v*r&,%W&$&<&a&b&c&n&x*s*5*t*)*6*7*e*m*n*g*o*u&i++++++++++",
"++++++++++++++++@r#_%@#E@Z$F#@$7$z#%#j$H$~$I%)%q&r%$$L%g%&&h$X%-*q&7&;%l%v*v*w%W&$&u*j&b&c*x&x*s*5*t*=*y*!*z*m*A*B*C*u*D%h++++++++++",
"++++++++++++++++@5@s#E@Z#+#X$t$S#m#j#l$~$I$a%q$%$K$L$e%&%{*E*i%2%j%t&s&8*v%V&:&'&<&l*F&c&Q&x*G*H*t*I*J*!*l*m*n*B*K*L*D*M%%++++++++++",
"++++++++++++++++@s@6$s#+#@@w$z#%%7%z%'$I%)%|$%$/$L%g%~%{%]%0%a%E%b*N*O%H&,%W&$&<&a&v&3&w&K&y*P*t*=*Q*R*l*m*A*S*T*u*U*M*V$L++++++++++",
"++++++++++++++++@7@Z#+#@$7#$#%%7#l$~%#%8%q$%%1%9%%%~%{%i%-%a&^&;&k%v&9&0%W*W&<&l&Z&3&Q&x&y&M*k*=*Q*X*Y*Z*n=+*K*L=@=#*V=$$c++++++++++",
"++++++++++++++++#W&B#@###H#&%7#l%'#K%8%|$&$K%!%g%&%*%]%0%a%3%t%u&8%H*w&X&t=%&Y&Z&3&w&K&y&M*t=&*Q*X*l=**g*S==*L=@*M=$*V=$*V++++++++++",
"++++++++++++++=-@t#h###$#&%7#l%'#K#L%q$%&f$L%g%h%*%i%0%2%s%t%u=;%H%N%W&%&I&J&Z&d*@*&&y&M&U=&*-*X*Y=>*A=+*T=,*U*M*V*V=$*V=$++++++++++",
"++++++++++++++@7@8#Z#$#i#j#l%'#K$#%q$&%A&&%g%&%{%=%C%a%E%t%F%v&@&P&X&)='&l&m=)&Q&K*:*<=!=~={*X*Y=]=^=+=/=(=_=:=<=$*V=$=$=[++++++++++",
"++++++++++++++@Z@u#H#&%p%J#J#k$#%f=}$x%9%O$M%*%i&-%D%s%L%u%G%H&P%X&)=|&l&Z=)*,*c&y*d*#*[*-*|*Y*9*g=1*T=(=2=[*V*V=$*V*V=(=3++++++++++",
"++++++++++++++#W#h#&%7#l#J#M#L%f$&$/&&%O$W&=%=%r%T%s%k%F%G=4&P*/&%&!&Y&Z&d*,*c*:&M*)*y*-*X*Y=]=5=1=/=6=_=[=$*V*V=$=$=$*m*#++++++++++",
"++++++++++++++#g$8$0#1#J#M$#$$$^%A&&&*$M&=%S%r&^&/%l%F*r%V&#%X&H='&}&Z=)*,*G*'&M*#*6*}*e*Y=]*g*C=7=8=_=$*V*V*V=$=$=$*V*#&J++++++++++",
"++++++++++++++#X&N#1${#K$w$b$K%A&&%O$W*p%i*q%T*0%L%F%G%V%N%X&%&!&b=9=)*_*&*5=0*#*6*}*e*Z=a*g=b*T=8=c*V=$*V=$=$=:*V=$*V&n%k++++++++++",
"++++++++++++++#Y#%${$v%q$$$K$x$U$y$W$X%0%r&^*0%l&>*r&,%W%X&u&[&b=9&n*4*&*'*d*#*y=d*e*Z=e=5=3=7=8=f=:=$=$*V=$=$*V*V=$*V&)$U++++++++++",
"++++++++++++++$t#i#M$w$b$K$d$f$V&h*p*i&-&^%b%l&>%G%V&:&$&%&[&b&3&Q&o*s*5*k=g*6*7*z*Z=]=h*o=7*D=#=[=:*V*V*V=$=$*V=$=$=$*4$v++++++++++",
"++++++++++++++$7#&%)$$$c%!$e$V$W*p*i&-%r&h&i=i%3%U%G&W*3&!&b&3*x&x&y*5*t*#*J*7*z*Z=j=k==*L*D*M=$=$*V=$=$*V=$*V*V*V*V*M=6++++++++++++",
"++++++++++++++++=l@8++++++++++++++++++#Y$S=m#l%)$/*p%l&u*(&m&-%0%E&@&%&o=&*7=n*m*A*g*o*L=o=#=:=$=$*V*V=$=$*V=$=$=:=$=+=p++++++++++++",
"++++++++++++++++++++++++++++++++++++++++++++++++++++++++++++%R#K%$%=%F&3=&*X*W&r%~%E&P&Q*Y=[*V*V*J*y={*R=n*m=e=q*1*R&d$w++++++++++++",
"++++++++++++++++++++++++++++++++++++++++++++++++++++++++++++++++++++++++++++++++++++++++++++++++#M$&%%%0&;&+%X%V%l%0$]++++++++++++++",
"++++++++++++++++++++++++++++++++++++++++++++++++++++++++++++++++++++++++++++++++++++++++++++++++++++++++++++++++++++++++++++++++++++",
"++++++++++++++++++++++++++++++++++++++++++++++++++++++++++++++++++++++++++++++++++++++++++++++++++++++++++++++++++++++++++++++++++++",
"++++++++++++++++++++++++++++++++++++++++++++++++++++++++++++++++++++++++++++++++++++++++++++++++++++++++++++++++++++++++++++++++++++",
"++++++++++++++++++++++++++++++++++++++++++++++++++++++++++++++++++++++++++++++++++++++++++++++++++++++++++++++++++++++++++++++++++++"};
