/* XPM */
static char * ball_red_xpm[] = {
"66 66 412 2",
"%s c #F3F042",
"%r c #F3EF42",
"%q c #F8F691",
"%p c #F8F695",
"%o c #F9F79B",
"%n c #F1EF41",
"%m c #F8F68D",
"%l c #F7F488",
"%k c #F7F695",
"%j c #F8F79D",
"%i c #F7F686",
"%h c #F7F589",
"%g c #F7F581",
"%f c #F9F6A0",
"%e c #F7F586",
"%d c #F7F47A",
"%c c #F6F482",
"%b c #F9F7A5",
"%a c #F9F7A9",
"%0 c #F2EE43",
"%9 c #F2EE46",
"%8 c #F6F578",
"%7 c #FAF8A9",
"%6 c #F5F473",
"%5 c #F9F8AC",
"%4 c #F3F041",
"%3 c #F3F148",
"%2 c #F6F16B",
"%1 c #F6F36F",
"%| c #F5F477",
"%} c #F7F68B",
"%[ c #F7F68E",
"%< c #FAF9AF",
"%: c #F3F14D",
"%_ c #F3F04F",
"%( c #F4F156",
"%/ c #F4EF59",
"%^ c #F5F267",
"%] c #F5F26A",
"%{ c #F5F26F",
"%~ c #F5F373",
"%! c #F7F692",
"%) c #FAF9AE",
"%' c #F4F05C",
"%, c #F5F263",
"%> c #F4F369",
"%; c #F5F26B",
"%- c #F5F377",
"%= c #F6F57C",
"%* c #F7F58E",
"%& c #F7F696",
"%% c #F9F8B1",
"%$ c #FAF9B4",
"%# c #FAF9B0",
"%@ c #F3F051",
"%+ c #F4F15C",
"$Z c #F5F268",
"$Y c #F9F8B5",
"$X c #FAF8B1",
"$W c #F1F041",
"$V c #F2EF40",
"$U c #F1EF42",
"$T c #F4F055",
"$S c #F4F158",
"$R c #F5F260",
"$Q c #F4F26C",
"$P c #F5F36F",
"$O c #F7F47F",
"$N c #F7F583",
"$M c #F8F79A",
"$L c #F8F8A6",
"$K c #FAF7B3",
"$J c #F2EF46",
"$I c #F4F36C",
"$H c #FAF8B5",
"$G c #FAF7AF",
"$F c #F3F049",
"$E c #F8F793",
"$D c #F8F69E",
"$C c #FAF9B5",
"$B c #F9F9B9",
"$A c #F2F041",
"$z c #F3EF40",
"$y c #F4F264",
"$x c #F9F7A2",
"$w c #F2EE44",
"$v c #F2EE42",
"$u c #F2F045",
"$t c #F5F264",
"$s c #F5F368",
"$r c #F6F58B",
"$q c #F7F593",
"$p c #F9F69B",
"$o c #F8F7A2",
"$n c #FAF8AA",
"$m c #FAFABD",
"$l c #FBFABC",
"$k c #F2ED46",
"$j c #F2EF42",
"$i c #F2F04A",
"$h c #F4F155",
"$g c #F6F47B",
"$f c #F7F58F",
"$e c #F8F7A6",
"$d c #FAF8AE",
"$c c #FAF8B6",
"$b c #FBFABD",
"$a c #F3EF46",
"$0 c #F2EF41",
"$9 c #F2F042",
"$8 c #F8F69A",
"$7 c #F9F8A6",
"$6 c #FAFAC0",
"$5 c #F2EF44",
"$4 c #F2F046",
"$3 c #F3F04A",
"$2 c #F6F583",
"$1 c #F8F590",
"$| c #FAF9C2",
"$} c #FAF9C4",
"$[ c #FBF9C3",
"$< c #F3F048",
"$: c #F2F049",
"$_ c #F3F04E",
"$( c #F3F159",
"$/ c #F4F360",
"$^ c #F6F57F",
"$] c #F6F483",
"${ c #F8F8A3",
"$~ c #FAF9C1",
"$! c #FBF9C6",
"$) c #FBF9C1",
"$' c #F3EF4C",
"$, c #F3F04D",
"$> c #F6F374",
"$; c #F7F693",
"$- c #F8F8A7",
"$= c #F9F8B2",
"$* c #FBFAC1",
"$& c #FCFAC7",
"$% c #F3F150",
"$$ c #F3F151",
"$# c #F6F587",
"$@ c #F8F696",
"$+ c #FAF9B2",
"#Z c #FBFACC",
"#Y c #FCFBCD",
"#X c #F3F052",
"#W c #F4F15E",
"#V c #FBFAD0",
"#U c #F3F152",
"#T c #F3F155",
"#S c #F5F26D",
"#R c #F7F587",
"#Q c #F8F79E",
"#P c #F9F7A6",
"#O c #F9F9B2",
"#N c #FAF9BD",
"#M c #FCFBD8",
"#L c #F4F154",
"#K c #F3F156",
"#J c #F4F365",
"#I c #F8F690",
"#H c #F9F8A3",
"#G c #FAFAC1",
"#F c #FAFAC6",
"#E c #FCFCDF",
"#D c #F3F157",
"#C c #F4F159",
"#B c #F5F374",
"#A c #F5F478",
"#z c #F8F68F",
"#y c #FAF8AF",
"#x c #F4F157",
"#w c #F3F15A",
"#v c #F5F479",
"#u c #FAF8B2",
"#t c #FBF9BE",
"#s c #FCFACD",
"#r c #F4F25A",
"#q c #F4F15A",
"#p c #F4F15D",
"#o c #F5F36C",
"#n c #F6F474",
"#m c #F6F484",
"#l c #FDFCE0",
"#k c #FEFEF3",
"#j c #FEFEF2",
"#i c #F4F25B",
"#h c #F4F25D",
"#g c #F7F68C",
"#f c #F8F693",
"#e c #F8F79B",
"#d c #F9F79F",
"#c c #FAF8B0",
"#b c #FAF8B3",
"#a c #FBFABE",
"#0 c #FEFDEC",
"#9 c #F4F25C",
"#8 c #F4F261",
"#7 c #F4F265",
"#6 c #F5F474",
"#5 c #F6F580",
"#4 c #F7F68F",
"#3 c #F8F69B",
"#2 c #FBFBCA",
"#1 c #FEFDE8",
"#| c #FFFEF9",
"#} c #F4F25E",
"#[ c #F4F262",
"#< c #F4F269",
"#: c #F4F36D",
"#_ c #F5F475",
"#( c #F6F585",
"#/ c #F9F7A4",
"#^ c #F9F7A8",
"#] c #F9F8AA",
"#{ c #FBFABF",
"#~ c #FDFDEC",
"#! c #FFFEFE",
"#) c #FEFDF7",
"#' c #FEFCEF",
"#, c #F4F260",
"#> c #F5F262",
"#; c #F5F265",
"#- c #F5F370",
"#= c #F5F375",
"#* c #F6F478",
"#& c #F8F79F",
"#% c #F9F8AE",
"#$ c #F9F9B3",
"## c #FBFAC5",
"#@ c #FBFBCD",
"#+ c #FCFBD9",
"@Z c #FEFDF0",
"@Y c #FEFEFB",
"@X c #F4F161",
"@W c #F4F266",
"@V c #F7F584",
"@U c #F8F58D",
"@T c #F8F69C",
"@S c #F9F8A7",
"@R c #FAF9B3",
"@Q c #F9F9B7",
"@P c #FAFABE",
"@O c #FAFAC2",
"@N c #FDFCDE",
"@M c #FEFEF0",
"@L c #FFFEF7",
"@K c #F5F362",
"@J c #F5F369",
"@I c #F6F375",
"@H c #F6F480",
"@G c #F7F58C",
"@F c #F8F694",
"@E c #F8F698",
"@D c #F8F7A3",
"@C c #F9F7A7",
"@B c #FAF9B6",
"@A c #FBFAC2",
"@z c #FBFACD",
"@y c #FDFDE4",
"@x c #F5F365",
"@w c #F5F266",
"@v c #F5F36A",
"@u c #F7F585",
"@t c #F7F588",
"@s c #F6F58C",
"@r c #F7F690",
"@q c #F8F798",
"@p c #F8F79C",
"@o c #F8F7A0",
"@n c #F9F7A3",
"@m c #F9F8A8",
"@l c #F9F8AB",
"@k c #F9F8AF",
"@j c #FAF8B7",
"@i c #FAF9BB",
"@h c #FBF9C7",
"@g c #FEFDE5",
"@f c #FEFEF4",
"@e c #FFFEFA",
"@d c #F4F268",
"@c c #F5F269",
"@b c #F5F36D",
"@a c #F5F371",
"@0 c #F6F475",
"@9 c #F6F481",
"@8 c #F6F584",
"@7 c #F7F688",
"@6 c #F7F58B",
"@5 c #F7F590",
"@4 c #F7F694",
"@3 c #F8F796",
"@2 c #F8F697",
"@1 c #F8F699",
"@| c #F8F7A1",
"@} c #F8F7A5",
"@[ c #F9F8A9",
"@< c #F9F8AD",
"@: c #F9F8B3",
"@_ c #FAFAC3",
"@( c #FBFBD1",
"@/ c #FDFDEE",
"@^ c #FEFEF6",
"@] c #F4F36A",
"@{ c #F5F36E",
"@~ c #F5F372",
"@! c #F5F476",
"@) c #F6F479",
"@' c #F6F47C",
"@, c #F6F47F",
"@> c #F7F484",
"@; c #F6F588",
"@- c #F7F68A",
"@= c #F7F58A",
"@* c #FAF6A8",
"@& c #FAF9B7",
"@% c #FAF9BA",
"@$ c #FAF9BF",
"@# c #FCFBD1",
"@@ c #FDFCDD",
"@+ c #FDFDE7",
"+Z c #FEFCEE",
"+Y c #FEFCF2",
"+X c #FFFEFD",
"+W c #F4F26B",
"+V c #F5F26E",
"+U c #F5F271",
"+T c #F6F477",
"+S c #F6F47A",
"+R c #F6F57D",
"+Q c #F6F47D",
"+P c #FAF9B9",
"+O c #FAF9BE",
"+N c #FBFACB",
"+M c #FCFBD5",
"+L c #FDFDEB",
"+K c #FDFBE4",
"+J c #FFFDF7",
"+I c #FFFDF8",
"+H c #FFFEFC",
"+G c #FAF8B8",
"+F c #FBFAC3",
"+E c #FBFAC7",
"+D c #FBFACE",
"+C c #FDFDE1",
"+B c #FDFDF0",
"+A c #FDFCEA",
"+z c #FAF9C3",
"+y c #FBFAC6",
"+x c #FBFACA",
"+w c #FDFDF2",
"+v c #FDFAE3",
"+u c #FBF9C0",
"+t c #FBFAC9",
"+s c #FBFBCE",
"+r c #FBFBD2",
"+q c #FCFCD9",
"+p c #FEFCEC",
"+o c #FCFBCE",
"+n c #FCFBD2",
"+m c #FCFBD6",
"+l c #FCFCDD",
"+k c #FCFCE2",
"+j c #FDFCE5",
"+i c #FEFDF3",
"+h c #FBFBCC",
"+g c #FBFBD6",
"+f c #FCFCDA",
"+e c #FCFCE1",
"+d c #FEFEED",
"+c c #FBFBC9",
"+b c #FCFBDA",
"+a c #FCFCDE",
"+0 c #FEFDE9",
"+9 c #FEFCEB",
"+8 c #FDFCDC",
"+7 c #FDFCE2",
"+6 c #FDFDE5",
"+5 c #FEFDED",
"+4 c #FEFDF5",
"+3 c #FEFDF4",
"+2 c #FDFCE1",
"+1 c #FDFCE6",
"+| c #FDFDEA",
"+} c #FDFEED",
"+[ c #FEFDF1",
"+< c #FEFDF9",
"+: c #FEFBED",
"+_ c #FDFDE6",
"+( c #FDFDE8",
"+/ c #FDFDED",
"+^ c #FDFBDE",
"+] c #FDFDE9",
"+{ c #FEFDF2",
"+~ c #FEFEF1",
"+! c #FEFEF5",
"+) c #FEFFFC",
"+' c #FFFFFA",
"+, c #FEFAE3",
"+> c #FEFEF9",
"+; c #FFFFF8",
"+- c #FEFEF8",
"+= c #FEFEFE",
"+* c #FFFFFC",
"+& c #FEFEFC",
"+% c #FFFFFE",
"+$ c #FEFEFD",
"+# c #FFFFFF",
"+@ c #FFFFFD",
"++ c None",
"++++++++++++++++++++++++++++++++++++++++++++++++++++++++++++++++++++++++++++++++++++++++++++++++++++++++++++++++++++++++++++++++++++",
"++++++++++++++++++++++++++++++++++++++++++++++++++++++++++++++++++++++++++++++++++++++++++++++++++++++++++++++++++++++++++++++++++++",
"++++++++++++++++++++++++++++++++++++++++++++++++++++++++++++++++++++++++++++++++++++++++++++++++++++++++++++++++++++++++++++++++++++",
"++++++++++++++++++++++++++++++++++++++++++++++++++++++++++++++++++++++++++++++++++++++++++++++++++++++++++++++++++++++++++++++++++++",
"+++++++++++++++++++++++++++++++++++++++++++++++++++++++++++++++++@+#++++++++++++++++++++++++++++++++++++++++++++++++++++++++++++++++",
"+++++++++++++++++++++++++++++++++++++++++++++++++++++++++++++++$+%+%+&++++++++++++++++++++++++++++++++++++++++++++++++++++++++++++++",
"+++++++++++++++++++++++++++++++++++++++++++++++++++++++++++++++*+=+%+-++++++++++++++++++++++++++++++++++++++++++++++++++++++++++++++",
"+++++++++++++++++++++++++++++++++++++++++++++++++++++++++++;+$+%+%+&+>+,++++++++++++++++++++++++++++++++++++++++++++++++++++++++++++",
"+++++++++++++++++++++++++++++++++++++++++++++++++++++++++++'+$+=+)+>+!+~++++++++++++++++++++++++++++++++++++++++++++++++++++++++++++",
"+++++++++++++++++++++++++++++++++++++++++++++++++++++++++++$+=+$+>+!+{+]+^++++++++++++++++++++++++++++++++++++++++++++++++++++++++++",
"+++++++++++++++++++++++++++++++++++++++++++++++++++++++++@+%+&+-+!+~+/+(+_++++++++++++++++++++++++++++++++++++++++++++++++++++++++++",
"+++++++++++++++++++++++++++++++++++++++++++++++++++++++:+<+&+>+!+[+}+|+1+2++++++++++++++++++++++++++++++++++++++++++++++++++++++++++",
"+++++++++++++++++++++++++++++++++++++++++++++++++++++++3+&+-+4+[+5+]+6+7+8++++++++++++++++++++++++++++++++++++++++++++++++++++++++++",
"+++++++++++++++++++++++++++++++++++++++++++++++++++++9+>+>+!+~+/+0+1+7+a+b+c++++++++++++++++++++++++++++++++++++++++++++++++++++++++",
"+++++++++++++++++++++++++++++++++++++++++++++++++++++{+-+!+~+d+]+_+e+a+f+g+h++++++++++++++++++++++++++++++++++++++++++++++++++++++++",
"+++++++++++++++++++++++++++++++++++++++++++++++++++9+i+!+[+/+]+j+k+l+b+m+n+o++++++++++++++++++++++++++++++++++++++++++++++++++++++++",
"+++++++++++++++++++++++++++++++++++++++++++++++++++p+!+~+5+]+j+2+a+q+m+r+s+t+u++++++++++++++++++++++++++++++++++++++++++++++++++++++",
"+++++++++++++++++++++++++++++++++++++++++++++++++v+w+[+/+]+j+7+l+b+m+n+s+x+y+z++++++++++++++++++++++++++++++++++++++++++++++++++++++",
"+++++++++++++++++++++++++++++++++++++++++++++++++A+B+/+]+6+C+l+f+m+n+D+x+E+F+G++++++++++++++++++++++++++++++++++++++++++++++++++++++",
"+++++++++++++#+%+%+H+I+J+++++++++++++++++++++++K+L+/+]+j+2+l+b+M+n+D+N+y+F+O+P+++++++++++++++++++++++++++Q+R+S+T+U+V+W++++++++++++++",
"+++++++++++++@+=+=+X+&+X+#+=+%+>+Y+Z++++++++++@++/+]+j+2@@+q+m@#+o+x+y+F@$@%@&@*++++++++++++++++@=@-@;@>@,@'@)@!@~@{@]++++++++++++++",
"+++++++++++++@+$+=+=+=+#+#+=+%+=+$+=+=+&@^@/+(+|+]+j+2+l+f+M@(+D+x+y@_+O@%@&@:@<@[@}@|@1@2@3@4@5@6@7@8@9+Q@)@0@a@b@c@d++++++++++++++",
"++++++++++++++@e+=+=+=+#+=+=+=+=+#+%+&+>@f+B+/+]@g+2+a+f+M+r+D+x@h+z+O@i@j@:@k@l@m@n@o@p@q@4@r@s@t@u@9+Q@)@0@a@b@v@w@x++++++++++++++",
"+++++++++++++++%+$+=+#+#+#+=+=+=+=+&+-@f+~+/+]@y+2+l+q+M+n@z+x+y@A+O@i@B@:@k@l@C@D@o@p@E@F@r@G@t@8@H+Q@)@I@a@b@J@w@K++++++++++++++++",
"++++++++++++++++@L+X+=+=+=+#+#+%+&+-@f@M+d+]+6+2@N+q+g@(+D+t+y@O@P@%@Q@R@k@l@S@D@o@T@E@F@r@U@t@V@H+Q@)@I@a@b@J@W@X++++++++++++++++++",
"++++++++++++++++++@Y+&+=+#+=+=+&+-@f@Z+/+]+j+2@@#++M@##@+t##@A+O@i@B#$#%@l@S@D#&@T@2@4@r@G@t@8@H+Q#*#=#-@b@J#;#>#,++++++++++++++++++",
"++++++++++++++++++#'#)#!+#+=+&+-@f+~#~+]+6+2+l#++m+n+s+x+y@O#{@%@&@:@k#]#^#/#&@p@E@4@r@G@t#(@9+Q@)#_@a#:#<@w#[#}++++++++++++++++++++",
"++++++++++++++++++++#|#!+%+&+-@f@Z+5#1@y+e+l#++M@#@z#2##@O+O@%@B@:#%@l@C@D#&#3@2@4#4@G@;@8#5@'#*#6#-@b@c#7#8#}#9++++++++++++++++++++",
"++++++++++++++++++++++@^+-+-@f@Z#0+]+6+2+l+q+M+n+o+x+y@A#a@%@B#b#c@l@C@D#d#e@E#f@r#g@t@8@H+Q@)@0@a@b@c#;#8#h#i++++++++++++++++++++++",
"++++++++++++++++++++++#j+!#k+B#~+]+6#l+l+q+M@(#@+t+y@A+O@%@B#b#%@l@S@n#&#e@E@4#4@G@;#m@H@'@)#n@a#o@J#7#8#p#q#r++++++++++++++++++++++",
"+++++++++++++++++++++++++++(#~+]+6+2+l+q+M@##s+c+y@A#t@%@B#u@k@l@C@D#&#3@2#f@r#g@t@8@H@'#v#_@a#:@J#;#[#}#w#x++++++++++++++++++++++++",
"+++++++++++++++++++++++++++_@+@y+2+l#++M@#@z+t##@O+O@%@B#u#y@l@S@n#&#3@2@F#z@6@t@8@H@'#A#B@a@b@J#7#8#h#C#D++++++++++++++++++++++++++",
"+++++++++++++++++++++++++++++b#E+l+q+M@(+s+x#F#G+O@%@B#u@k@l@S#H#&@p@2#f#I#g@t@8@9@'#v#=@a@b@J#J#8#}#q#K#L++++++++++++++++++++++++++",
"+++++++++++++++++++++++++++++++f#M+M@(#@+c##@A#N@%@B#O#%@l#P@n#Q#e@2@4#4@6#R#m#5@'#*#=@a#S#<#7#8#h#C#T#U++++++++++++++++++++++++++++",
"++++++++++++++++++++++++++++++#V+r@#@z+x+y@A@P@%@B@:@k#]@C@D#&#3@2#f@5@G@t@V@H@'@)#B@a@b@J#7#8#W#q#T#X++++++++++++++++++++++++++++++",
"++++++++++++++++++++++++++++++++#Y#Z+t##@A#N+P@B$+#%@l@S@n#Q#e$@#f#z@G$#@8@H@'#*#6#-#o@d#7#8#p#C#T$$$%++++++++++++++++++++++++++++++",
"++++++++++++++++++++++++++++++++$&+t##$*+O@%@B$=@k#]$-@D#&#3@E$;#4@G@t@8@H@'@)$>@a@b@c#7#8#p#q#K#U$,$'++++++++++++++++++++++++++++++",
"++++++++++++++++++++++++++++++$)$!##$~+O@%@B#O#%#]#P${#&#3$@#f#z@G#R$]$^@'#*#B#-@b@c#7$/#h$(#T$$$_$:$<++++++++++++++++++++++++++++++",
"++++++++++++++++++++++++++++++$[$}$|#N@%@B$=#%#]@C@n#&#e@2#f$1@6#R$2@H@'#*$>@a#o@c#7#8#h#q#K#U$_$3$4$5++++++++++++++++++++++++++++++",
"++++++++++++++++++++++++++++++$6#G#N@%@B$+#%#]$7@D#&$8@2#f#4@6#R@8@,@'#*$>#-#o@d#7#8#h#C#T$$$_$:$4$9$0$a++++++++++++++++++++++++++++",
"++++++++++++++++++++++++++++$b#G+O@%$c#u$d#]$e@D#&#e@2$;$f@6@;@8#5$g#*#B@a@b@c#7#8#p#C$h#U$,$i$4$j$0$0$j$k++++++++++++++++++++++++++",
"++++++++++++++++++++++++++$l#{$m+P$c#u#%$n$7$o#Q$p@2$q#4$r#R@8@,@'#*#B#-#o$s$t#,#h$(#T$$$_$3$u$j$0$0$0$v$w++++++++++++++++++++++++++",
"++++++++++++++++++++++++++$m$m@%@B#u#%#]@S$x#&#e@2$;$f@6#R$2@H$g#*#6#-#o@c$y#8#p#C#T#X$_$3$4$j$0$0$z$0$0$A++++++++++++++++++++++++++",
"++++++++++++++++++++++++++@i$B$C$=#%#]$7$o$D$8@2$E$f@6#R@8@,@'+T#B#-#o@d$t#,#h#C#T$$$_$F$4$j$0$0$0$A$0$0$A++++++++++++++++++++++++++",
"++++++++++++++++++++++$G+P+P$H$=#%#]$7$o#Q#e@2$;#4@6#R$]@H$g#*#B#-$I#<#;#8#p#C#T$$$,$:$J$j$0$0$0$0$0$0$0$0$0++++++++++++++++++++++++",
"++++++++++++++++++++++$K$H@B$=#%#]$L$o#Q$M@2#f#4@6#R$N$O@'#*#B$P$Q@d#;$R#h$S$T$$$,$F$u$U$0$A$0$V$V$0$0$0$A$W$A++++++++++++++++++++++",
"++++++++++++++++++++++$X$Y$=$d#]#P$o#Q$8@2$;#4@6#R$2@,@'#*#B#-#o$Z$y#8%+#C#T%@$,$i$u$j$0$0$0$0$V$0$0$0$0$0$A$A++++++++++++++++++++++",
"++++++++++++++++++++%#%$%%#%#]#P$o#Q$8%&$;%*@6#R$N@,%=%-#B#-%;%>%,#,%'$S#T$$$,$:$u$9$0$0$0$V$0$A$0$0$0$0$0$A$A++++++++++++++++++++++",
"++++++++++++++++++%)#u$X#%#]#P$x#Q$M$@%!#4@6#R$]@H$g#*%~%{%]@J%^++++%/%(%_%:$:$4$9$0$0$0$0$0$0$V$0$0$0$V$0$0$0$0++++++++++++++++++++",
"++++++++++++++++++%<@k@<@[#P$o#Q$8$@%!%[%}$#$]@,$g%|#6%1%2++++++++++++++++%3$4$9$0$A$A$0$0$0$0$0$0%4$0$0$0$0$0$0$A++++++++++++++++++",
"++++++++++++++++++%5@<#]$7$o#Q$8$@%!%[@6#R$2@,@'+T#=%6++++++++++++++++++++++$A$A$0$0$0$0$0$0$0$0$0$0$0$0$0$0$0$0$0++++++++++++++++++",
"++++++++++++++++%7%5@[$e$o#Q$M$@%!%*@6#R$N@,@'%8++++++++++++++++++++++++++++++++%9%0$0$A$V$0$0$0$0$0$0$A$A$A$0$0$0++++++++++++++++++",
"++++++++++++++@n%a#]%b$o#Q$M$@%!%[@=#R%c$O+Q%d++++++++++++++++++++++++++++++++++++++$j$A$0$0$0$0$0$0$0$0$0$0$0$0$0$0++++++++++++++++",
"++++++++++++++%b#P$7$o#Q$M$@%!%[@-%e$2@,++++++++++++++++++++++++++++++++++++++++++++++++$0$0$0$0$0$A$A$0$0$0$0$A$V$0++++++++++++++++",
"++++++++++++++%f%b$o#Q$8$@%!%[@=%e@8%g++++++++++++++++++++++++++++++++++++++++++++++++++++++$A$0$0$0$0$0$0$0$0$V$0$V$V++++++++++++++",
"++++++++++++++@n$x#Q$8$@%!%[%h%i++++++++++++++++++++++++++++++++++++++++++++++++++++++++++++++++%4$0$0$0$A$A$0$0$0$V$0++++++++++++++",
"++++++++++++#e@o%j$8%k%!@6%l%e++++++++++++++++++++++++++++++++++++++++++++++++++++++++++++++++++++%0$0$0$0$A$0$0$0$0$0++++++++++++++",
"++++++++++++$M%j@E%&%!%m++++++++++++++++++++++++++++++++++++++++++++++++++++++++++++++++++++++++++++++++%n%n$0$0$0$0$A++++++++++++++",
"++++++++++++%o@p%p%q++++++++++++++++++++++++++++++++++++++++++++++++++++++++++++++++++++++++++++++++++++++$v$v$v$0$0$A%r++++++++++++",
"++++++++++++++++++++++++++++++++++++++++++++++++++++++++++++++++++++++++++++++++++++++++++++++++++++++++++++++++$0$0$A%s++++++++++++",
"++++++++++++++++++++++++++++++++++++++++++++++++++++++++++++++++++++++++++++++++++++++++++++++++++++++++++++++++++++++++++++++++++++",
"++++++++++++++++++++++++++++++++++++++++++++++++++++++++++++++++++++++++++++++++++++++++++++++++++++++++++++++++++++++++++++++++++++",
"++++++++++++++++++++++++++++++++++++++++++++++++++++++++++++++++++++++++++++++++++++++++++++++++++++++++++++++++++++++++++++++++++++",
"++++++++++++++++++++++++++++++++++++++++++++++++++++++++++++++++++++++++++++++++++++++++++++++++++++++++++++++++++++++++++++++++++++",
"++++++++++++++++++++++++++++++++++++++++++++++++++++++++++++++++++++++++++++++++++++++++++++++++++++++++++++++++++++++++++++++++++++",
"++++++++++++++++++++++++++++++++++++++++++++++++++++++++++++++++++++++++++++++++++++++++++++++++++++++++++++++++++++++++++++++++++++"};
