/* XPM */
static char * ball_red_xpm[] = {
"66 66 487 2",
"&e c #546DFF",
"&d c #7C8FFE",
"&c c #90A2FF",
"&b c #4F68FE",
"&a c #506AFE",
"&0 c #5B74FF",
"&9 c #5D76FF",
"&8 c #7288FE",
"&7 c #8294FF",
"&6 c #93A4FF",
"&5 c #566FFE",
"&4 c #5A73FE",
"&3 c #6077FF",
"&2 c #4D68FE",
"&1 c #677EFE",
"&| c #6C81FE",
"&} c #4D68FF",
"&[ c #4F69FE",
"&< c #516AFE",
"&: c #556EFF",
"&_ c #5971FE",
"&( c #667CFE",
"&/ c #7389FF",
"&^ c #4E68FE",
"&] c #4E68FF",
"&{ c #5972FF",
"&~ c #5F76FF",
"&! c #6178FF",
"&) c #687EFF",
"&' c #6A81FF",
"&, c #6C82FE",
"&> c #4E69FE",
"&; c #5069FF",
"&- c #516BFF",
"&= c #556FFF",
"&* c #5E77FE",
"&& c #637AFF",
"&% c #647CFF",
"&$ c #6D82FF",
"&# c #4E69FF",
"&@ c #4F6AFE",
"&+ c #516BFE",
"%Z c #536DFF",
"%Y c #5B73FF",
"%X c #6C83FE",
"%W c #7F93FF",
"%V c #9BA9FF",
"%U c #4F69FF",
"%T c #506AFF",
"%S c #526CFE",
"%R c #546EFE",
"%Q c #5E76FE",
"%P c #6179FE",
"%O c #7589FF",
"%N c #8C9CFE",
"%M c #9DABFF",
"%L c #526BFF",
"%K c #526CFF",
"%J c #5670FF",
"%I c #5871FE",
"%H c #5A72FE",
"%G c #6279FE",
"%F c #637AFE",
"%E c #6F85FE",
"%D c #536CFF",
"%C c #546EFF",
"%B c #566FFF",
"%A c #5C74FF",
"%z c #6078FF",
"%y c #6980FF",
"%x c #6F85FF",
"%w c #7286FE",
"%v c #758AFE",
"%u c #778BFF",
"%t c #9AA8FF",
"%s c #9CAAFF",
"%r c #A1AEFE",
"%q c #5770FF",
"%p c #5871FF",
"%o c #5A73FF",
"%n c #5C74FE",
"%m c #5E76FF",
"%l c #6078FE",
"%k c #647CFE",
"%j c #667DFF",
"%i c #687EFE",
"%h c #6B82FE",
"%g c #7187FF",
"%f c #7589FE",
"%e c #A2AFFE",
"%d c #5972FE",
"%c c #5B73FE",
"%b c #5D75FE",
"%a c #5F77FF",
"%0 c #6178FE",
"%9 c #647BFE",
"%8 c #687FFE",
"%7 c #6C82FF",
"%6 c #7488FF",
"%5 c #7D91FF",
"%4 c #5D75FF",
"%3 c #5F77FE",
"%2 c #6079FE",
"%1 c #627AFE",
"%| c #667DFE",
"%} c #697FFE",
"%[ c #6A80FE",
"%< c #6D82FE",
"%: c #8092FF",
"%_ c #8194FF",
"%( c #8D9EFE",
"%/ c #93A2FE",
"%^ c #9AAAFE",
"%] c #5F78FE",
"%{ c #6179FF",
"%~ c #637BFE",
"%! c #657CFE",
"%) c #677DFE",
"%' c #6B81FF",
"%, c #7086FE",
"%> c #8294FE",
"%; c #8396FE",
"%- c #8697FE",
"%= c #8899FE",
"%* c #8D9FFF",
"%& c #A7B3FF",
"%% c #627AFF",
"%$ c #637BFF",
"%# c #657CFF",
"%@ c #697FFF",
"%+ c #6D83FF",
"$Z c #6F84FF",
"$Y c #7086FF",
"$X c #7387FE",
"$W c #778BFE",
"$V c #7E91FE",
"$U c #8496FE",
"$T c #8598FE",
"$S c #8899FF",
"$R c #97A7FE",
"$Q c #647BFF",
"$P c #667CFF",
"$O c #677EFF",
"$N c #6D83FE",
"$M c #7C90FE",
"$L c #7E92FF",
"$K c #9FAEFF",
"$J c #687FFF",
"$I c #6A80FF",
"$H c #6B81FE",
"$G c #6E83FF",
"$F c #6F84FE",
"$E c #7186FE",
"$D c #768BFF",
"$C c #788DFE",
"$B c #7B8EFF",
"$A c #7D90FE",
"$z c #8295FF",
"$y c #A1B0FF",
"$x c #6980FE",
"$w c #6C83FF",
"$v c #6E84FF",
"$u c #7085FF",
"$t c #7388FE",
"$s c #758AFF",
"$r c #778CFF",
"$q c #798DFE",
"$p c #7B8FFE",
"$o c #8396FF",
"$n c #8497FF",
"$m c #899AFF",
"$l c #90A1FE",
"$k c #93A2FF",
"$j c #A7B5FF",
"$i c #6E84FE",
"$h c #7085FE",
"$g c #7287FE",
"$f c #768AFF",
"$e c #778CFE",
"$d c #798EFE",
"$c c #7B8FFF",
"$b c #8193FF",
"$a c #8597FF",
"$0 c #899AFE",
"$9 c #95A4FF",
"$8 c #98A8FF",
"$7 c #ADBAFE",
"$6 c #7186FF",
"$5 c #7287FF",
"$4 c #768AFE",
"$3 c #7B90FF",
"$2 c #7F93FE",
"$1 c #8F9FFF",
"$| c #91A1FE",
"$} c #7388FF",
"$[ c #7489FE",
"$< c #768BFE",
"$: c #788CFE",
"$_ c #7A8EFF",
"$( c #7C8FFF",
"$/ c #7E91FF",
"$^ c #8093FE",
"$] c #8397FF",
"${ c #899BFF",
"$~ c #8B9DFF",
"$! c #91A2FF",
"$) c #97A6FE",
"$' c #9DABFE",
"$, c #A0AFFE",
"$> c #B1BCFF",
"$; c #7489FF",
"$- c #788CFF",
"$= c #798CFF",
"$* c #7A8EFE",
"$& c #7C90FF",
"$% c #7E92FE",
"$$ c #8698FF",
"$# c #8A9BFE",
"$@ c #90A0FF",
"$+ c #B0BCFF",
"#Z c #798DFF",
"#Y c #7B8EFE",
"#X c #7D90FF",
"#W c #7F92FE",
"#V c #8094FF",
"#U c #8295FE",
"#T c #8698FE",
"#S c #8A9CFF",
"#R c #8E9FFF",
"#Q c #9FADFF",
"#P c #A2B1FE",
"#O c #7D91FE",
"#N c #7F92FF",
"#M c #8193FE",
"#L c #8395FE",
"#K c #8699FF",
"#J c #889AFE",
"#I c #8C9DFF",
"#H c #8F9FFE",
"#G c #96A5FE",
"#F c #A5B3FF",
"#E c #B5BFFF",
"#D c #8093FF",
"#C c #8194FE",
"#B c #8395FF",
"#A c #8497FE",
"#z c #889AFF",
"#y c #8A9CFE",
"#x c #8C9EFF",
"#w c #8E9FFE",
"#v c #90A1FF",
"#u c #92A3FE",
"#t c #8496FF",
"#s c #8597FE",
"#r c #8799FF",
"#q c #8B9CFE",
"#p c #8EA0FE",
"#o c #93A3FF",
"#n c #99A8FE",
"#m c #A4B1FE",
"#l c #ADBAFF",
"#k c #AFBCFE",
"#j c #B8C2FF",
"#i c #8598FF",
"#h c #8799FE",
"#g c #899BFE",
"#f c #8B9CFF",
"#e c #8FA0FF",
"#d c #90A2FE",
"#c c #92A3FF",
"#b c #94A4FE",
"#a c #96A6FF",
"#0 c #98A8FE",
"#9 c #9CABFF",
"#8 c #9EADFF",
"#7 c #A6B3FF",
"#6 c #A8B4FF",
"#5 c #AFBCFF",
"#4 c #B2BDFF",
"#3 c #B3BFFE",
"#2 c #8A9BFF",
"#1 c #8B9DFE",
"#| c #8D9FFE",
"#} c #8FA0FE",
"#[ c #92A2FE",
"#< c #93A3FE",
"#: c #95A5FF",
"#_ c #97A6FF",
"#( c #9BAAFF",
"#/ c #9DACFE",
"#^ c #9FAEFE",
"#] c #A1AEFF",
"#{ c #A5B2FE",
"#~ c #A9B5FF",
"#! c #B9C4FF",
"#) c #8C9DFE",
"#' c #8D9EFF",
"#, c #90A0FE",
"#> c #91A2FE",
"#; c #94A3FF",
"#- c #97A7FF",
"#= c #99A8FF",
"#* c #9BAAFE",
"#& c #9FADFE",
"#% c #A3B0FF",
"#$ c #A8B6FE",
"## c #ACB9FF",
"#@ c #B2BEFE",
"#+ c #B4BFFF",
"@Z c #91A1FF",
"@Y c #94A3FE",
"@X c #95A5FE",
"@W c #99A9FF",
"@V c #9BABFF",
"@U c #A0ADFE",
"@T c #A2AFFF",
"@S c #A3B1FF",
"@R c #A5B3FE",
"@Q c #BCC6FE",
"@P c #92A2FF",
"@O c #94A4FF",
"@N c #96A5FF",
"@M c #98A7FF",
"@L c #9AA9FE",
"@K c #9CAAFE",
"@J c #A1AFFF",
"@I c #A7B5FE",
"@H c #BAC5FF",
"@G c #96A6FE",
"@F c #98A7FE",
"@E c #9EACFF",
"@D c #A0AEFE",
"@C c #A3B1FE",
"@B c #AAB6FE",
"@A c #ABB8FF",
"@z c #AEB9FF",
"@y c #B9C3FE",
"@x c #C0CAFF",
"@w c #99A7FF",
"@v c #9AA9FF",
"@u c #9CABFE",
"@t c #9EACFE",
"@s c #A0AEFF",
"@r c #A2B0FF",
"@q c #A4B1FF",
"@p c #A6B3FE",
"@o c #A8B5FF",
"@n c #A9B7FF",
"@m c #ACB8FF",
"@l c #B0BBFE",
"@k c #B1BDFE",
"@j c #BFC8FE",
"@i c #C0C9FE",
"@h c #9DACFF",
"@g c #9EADFE",
"@f c #A1AFFE",
"@e c #A6B4FF",
"@d c #A8B5FE",
"@c c #B7C2FE",
"@b c #BAC4FE",
"@a c #BDC7FE",
"@0 c #BFC9FF",
"@9 c #A0AFFF",
"@8 c #A2B0FE",
"@7 c #A4B2FF",
"@6 c #A6B4FE",
"@5 c #A8B6FF",
"@4 c #AAB7FF",
"@3 c #ACB8FE",
"@2 c #AEBAFE",
"@1 c #B4BFFE",
"@| c #B6C0FE",
"@} c #B8C2FE",
"@[ c #BAC3FE",
"@< c #BCC5FE",
"@: c #C3CDFF",
"@_ c #A4B2FE",
"@( c #A5B2FF",
"@/ c #A7B4FE",
"@^ c #A9B6FF",
"@] c #AAB7FE",
"@{ c #ACB9FE",
"@~ c #B0BCFE",
"@! c #B4C0FE",
"@) c #B6C1FE",
"@' c #B8C3FF",
"@, c #C2CBFF",
"@> c #A7B4FF",
"@; c #A9B6FE",
"@- c #ABB7FE",
"@= c #ADB9FE",
"@* c #AFBAFE",
"@& c #B1BCFE",
"@% c #B2BEFF",
"@$ c #B6C1FF",
"@# c #C0CAFE",
"@@ c #C4CDFE",
"@+ c #C7CFFF",
"+Z c #ABB7FF",
"+Y c #ADB9FF",
"+X c #AFBBFE",
"+W c #B3BEFF",
"+V c #B5BFFE",
"+U c #B7C1FF",
"+T c #B8C3FE",
"+S c #BCC7FE",
"+R c #C4CDFF",
"+Q c #C6CFFE",
"+P c #AEBAFF",
"+O c #AFBBFF",
"+N c #B2BDFE",
"+M c #B3BEFE",
"+L c #B5C0FF",
"+K c #B7C1FE",
"+J c #B9C3FF",
"+I c #BEC8FE",
"+H c #C5CDFE",
"+G c #C6CFFF",
"+F c #C8D1FF",
"+E c #B1BDFF",
"+D c #B3BFFF",
"+C c #B9C4FE",
"+B c #BDC6FF",
"+A c #BFC8FF",
"+z c #C1CAFE",
"+y c #C5CDFF",
"+x c #CBD3FF",
"+w c #B5C0FE",
"+v c #B7C2FF",
"+u c #BBC5FE",
"+t c #BEC7FF",
"+s c #BFC9FE",
"+r c #C2CAFE",
"+q c #CCD3FE",
"+p c #BAC4FF",
"+o c #BCC6FF",
"+n c #BDC7FF",
"+m c #C7CFFE",
"+l c #C9D1FF",
"+k c #CDD4FF",
"+j c #BBC5FF",
"+i c #BEC8FF",
"+h c #C0C9FF",
"+g c #C1CBFE",
"+f c #C3CCFE",
"+e c #C5CEFE",
"+d c #C7D0FF",
"+c c #CAD1FF",
"+b c #CED5FF",
"+a c #C1CAFF",
"+0 c #C2CBFE",
"+9 c #C4CCFF",
"+8 c #C5CEFF",
"+7 c #C7D0FE",
"+6 c #C9D1FE",
"+5 c #CBD3FE",
"+4 c #CDD5FE",
"+3 c #D0D6FE",
"+2 c #C3CCFF",
"+1 c #C6CEFF",
"+| c #C8D0FE",
"+} c #CAD2FE",
"+[ c #CBD4FF",
"+< c #CFD7FF",
"+: c #D1D8FF",
"+_ c #D0D8FF",
"+( c #C8D1FE",
"+/ c #CAD2FF",
"+^ c #CCD4FE",
"+] c #CED5FE",
"+{ c #D2D8FF",
"+~ c #D3DAFF",
"+! c #CAD3FF",
"+) c #CCD4FF",
"+' c #CED6FE",
"+, c #D0D7FE",
"+> c #D2D8FE",
"+; c #D4DAFF",
"+- c #D0D7FF",
"+= c #D3D9FE",
"+* c #D4DBFE",
"+& c #D3D9FF",
"+% c #D5DBFF",
"+$ c #D7DCFF",
"+# c #D7DDFF",
"+@ c #D8DDFF",
"++ c None",
"++++++++++++++++++++++++++++++++++++++++++++++++++++++++++++++++++++++++++++++++++++++++++++++++++++++++++++++++++++++++++++++++++++",
"++++++++++++++++++++++++++++++++++++++++++++++++++++++++++++++++++++++++++++++++++++++++++++++++++++++++++++++++++++++++++++++++++++",
"++++++++++++++++++++++++++++++++++++++++++++++++++++++++++++++++++++++++++++++++++++++++++++++++++++++++++++++++++++++++++++++++++++",
"++++++++++++++++++++++++++++++++++++++++++++++++++++++++++++++++++++++++++++++++++++++++++++++++++++++++++++++++++++++++++++++++++++",
"++++++++++++++++++++++++++++++++++++++++++++++++++++++++++++++++++++++++++++++++++++++++++++++++++++++++++++++++++++++++++++++++++++",
"++++++++++++++++++++++++++++++++++++++++++++++++++++++++++++++++++++++++++++++++++++++++++++++++++++++++++++++++++++++++++++++++++++",
"+++++++++++++++++++++++++++++++++++++++++++++++++++++++++++++@+@++++++++++++++++++++++++++++++++++++++++++++++++++++++++++++++++++++",
"+++++++++++++++++++++++++++++++++++++++++++++++++++++++++++#+$+%+&++++++++++++++++++++++++++++++++++++++++++++++++++++++++++++++++++",
"+++++++++++++++++++++++++++++++++++++++++++++++++++++++++++%+*+=+-++++++++++++++++++++++++++++++++++++++++++++++++++++++++++++++++++",
"+++++++++++++++++++++++++++++++++++++++++++++++++++++++++++;+>+,+'+)+!++++++++++++++++++++++++++++++++++++++++++++++++++++++++++++++",
"+++++++++++++++++++++++++++++++++++++++++++++++++++++++++~+{+,+]+^+/+(++++++++++++++++++++++++++++++++++++++++++++++++++++++++++++++",
"+++++++++++++++++++++++++++++++++++++++++++++++++++++++_+:+<+]+[+}+|+1+2++++++++++++++++++++++++++++++++++++++++++++++++++++++++++++",
"+++++++++++++++++++++++++++++++++++++++++++++++++++++++-+3+4+5+6+7+8+9+0+a++++++++++++++++++++++++++++++++++++++++++++++++++++++++++",
"+++++++++++++++++++++++++++++++++++++++++++++++++++++++b+4+5+c+d+e+f+g+h+i+j++++++++++++++++++++++++++++++++++++++++++++++++++++++++",
"+++++++++++++++++++++++++++++++++++++++++++++++++++++++k+5+l+m+8+f+0+h+n+o+p++++++++++++++++++++++++++++++++++++++++++++++++++++++++",
"+++++++++++++++++++++++++++++++++++++++++++++++++++++q+/+6+m+e+2+r+s+t+u+p+v+w++++++++++++++++++++++++++++++++++++++++++++++++++++++",
"+++++++++++++++++++++++++++++++++++++++++++++++++++x+/+l+m+y+f+z+A+B+j+C+v+w+D+E++++++++++++++++++++++++++++++++++++++++++++++++++++",
"+++++++++++++++++++++++++++++++++++++++++++++++++++l+F+G+H+0+z+I+n+u+J+K+L+M+N+O+P++++++++++++++++++++++++++++++++++++++++++++++++++",
"+++++++++++++++++++++++++++++++++++++++++++++++++++|+Q+R+0+h+I+S+p+T+U+V+W+E+X+Y+Z++++++++++++++++++++++++++++++++++++++++++++++++++",
"++++++++++++++++++++++++++++++++++++++++++++++++@++8@@+0@#+I+o+p+T@$+L@%@&@*@=@-@;@>++++++++++++++++++++++++++++++++++++++++++++++++",
"+++++++++++++++++++++++++++++++++++++++++++++++++y+f@,+h+I+o+p@'@)@!@%@~+P@{@]@^@/@(@_++++++++++++++++++++++++++++++++++++++++++++++",
"++++++++++++++++++++++++++++++++++++++++++++++@:+2+a+h+n@<@[@}@|@1+E@~@2@3@4@5@6@7@8@9++++++++++++++++++++++++++++++++++++++++++++++",
"+++++++++++++++++++++++++++++++++++++++++++++++0+g@0@a@<@b@c+w@1+N@~@2@3@4@d@e@7@8@f@g@h++++++++++++++++++++++++++++++++++++++++++++",
"+++++++++++++++++++++++++++++++++++++++++++++a@i@j+n+j+J@c+L+D@k@l@=@m@n@o@p@q@r@s@t@u@v@w++++++++++++++++++++++++++++++++++++++++++",
"++++++++++++++++++++++++++++++++++++++++++++@x@j@a+u@y@c+w+W@k+O@z@A@B@/@p@C@8@D@E@u@v@F@G++++++++++++++++++++++++++++++++++++++++++",
"+++++++++++++++++++++++++++++++++++++++++++i+t+B@H+T+U+L+M@&+O+Y@-@;@I@(@q@J@D@E@K@L@M@N@O@P++++++++++++++++++++++++++++++++++++++++",
"+++++++++++++++++++++++++++++++++++++++++++B@Q@b+T+U+V@%@~@2+Y+Z@^@/@R@S@T@U@t@V@W@F@X@Y@P@Z++++++++++++++++++++++++++++++++++++++++",
"+++++++++++++++++++++++++++++++++++++++++++j@b@}@)#+#@@~+P##@]#$@e@_#%@f#&@h#*#=#-@X#;#>#,#'#)++++++++++++++++++++++++++++++++++++++",
"+++++++++++++++++++++++++++++++++++++++++j#!@}@)@1#@@~+P##@]#~@p#{#%#]#^#/#(#=#_#:#<#[#}#|#1#2++++++++++++++++++++++++++++++++++++++",
"+++++++++++++++++++++++++++++++++++++++++T@c+L#3#4#5@2@m@B#6#7@_@r@s#8#9#*#0#a#b#c#d#e#'#f#g#h#i++++++++++++++++++++++++++++++++++++",
"++++++++++++++++++++++++++++++++++++++#j+v+L#3#4#k#l@m@B@o@p#m@r@D#8@u#*#n@G@O#o@Z#p#'#q#g#r#s#t++++++++++++++++++++++++++++++++++++",
"+++++++++++++++++++++++++++++++++++++++L+L+M@k+X+Y+Z@^@>@R@S@r@s@E@u@v@F#a#b#u#v#w#x#y#z#r#A#B#C#D++++++++++++++++++++++++++++++++++",
"++++++++++++++++++++++++++++++++++++++#E+M@k+X#l@-@;#6#F@C@J@D@t@u@L#-#G@Y#[#v#H#I#y#J#K#A#L#M#N#O++++++++++++++++++++++++++++++++++",
"+++++++++++++++++++++++++++++++++++++D@%@~@2##@4@5@6#F#P@J#Q@h#(#=#-@X#;#[#,#R#I#S#J#T#t#U#V#W#X#Y#Z++++++++++++++++++++++++++++++++",
"+++++++++++++++++++++++++++++++++++N#4$++P##@]@;@/@_@C@J#Q@h#(#=#-@N#o@P$@#R#I$##J$$#A#U#D$%$&$*$=$-$;++++++++++++++++++++++++++++++",
"++++++++++++++++++++++++++++++++++$>@~+P@3@4@d@6@_@r$,#Q$'@v#n$)@X#o$!#}#'$~${#h#s$]#U$^$/$($_$:$<$[$}++++++++++++++++++++++++++++++",
"+++++++++++++++++++++++++++++++++++O+P@3@4@o#7@7@8$,@g#9#*#=$)@X#<$|$1#'#1#g#h#T#t#C$2$/$3$_$-$4$;$5$6++++++++++++++++++++++++++++++",
"++++++++++++++++++++++++++++++++++$7@A@;@I#7#m@8@D@E@u@v$8#a$9#u$|#R#I#f$0#h$a#L$b#W#X$c$d$e$f$;$g$h$i++++++++++++++++++++++++++++++",
"++++++++++++++++++++++++++++++++@A@A@^$j@R@S@f@D@E@u@L@M#a@O$k$l$1#I#f$m#r$n$o#C#N#O$p$q$r$s$t$5$u$v$w$x++++++++++++++++++++++++++++",
"+++++++++++++++++++++++++++++++Z@]#~@>#{@S$y#^#/@u@W@F@N@O#[#,#w#)#2#z#T$n$z$b#W$A$B$C$D$s$}$E$F$G$H$I$J++++++++++++++++++++++++++++",
"++++++++++++++++++++++++++++++@B@;@>#{@S@J$K#/#(@L@M#G#;@P$@#R#I#S#z$$#t$z#D$L$M$c$q$<$[$t$6$u$N$H$x$O$P$Q++++++++++++++++++++++++++",
"++++++++++++++++++++++++++++++@>@e@7#%$,#Q$'#*#n$R@X#<$!#,#'#)#g$S$T$U$z#D$V$M$B$-$W$;$X$Y$Z%+$H%@$O%#%$%%++++++++++++++++++++++++++",
"++++++++++++++++++++++++++++%&@p@_@8@J@g$'#*#n$)#:#<$|#}%*#q#g%=%-%;%>$^$V$&$*$:$<$;$g%,$F$N%'%@%)%!%~%{%]++++++++++++++++++++++++++",
"++++++++++++++++++++++++++++@(#m@8$,@g#9%^@F#a@O%/$|#H%(#q$m#h#s%;%_%:$/$p$_$r$f$[$g$h$v%<%[%}%|%!%1%2%3%4++++++++++++++++++++++++++",
"++++++++++++++++++++++++++@S@S@8@D@E@u@L#0@G@O#[$|#w#'#q#g#K#s$o#C#W%5$p#Z$e$s%6$5$h$i%7$H%8%|%9%1%0%a%b%c%d++++++++++++++++++++++++",
"++++++++++++++++++++++++++@r%e@D@E@K@v@M#a@O@P#v#R#x#f#J#h#A#L#M#W#X$c#Z$e%f%6%g$h%+%h%[%i%j%k%1%l%m%n%o%p%q++++++++++++++++++++++++",
"++++++++++++++++++++++++++%r#Q@h%s%t@M#:@O#[#e#w#)#S#J#T#A#U$b#N$A#Y$q%u%v$t%w%x$N%'%y%i%j%9%%%z%m%A%o%p%B%C%D++++++++++++++++++++++",
"++++++++++++++++++++++++++#&@h#*#n$R#:#o$!#}%(#I#2#J$$$U#U$b#W#X#Y$q%u$s$}$6%E$N%'$x$O%!%F%G%z%m%n%H%I%J%C%K%L++++++++++++++++++++++",
"++++++++++++++++++++++++%M%M#*#n#-#:#<#>#e%(%N$##r#i$U%>$^$V$M$_$:$W%O$g$6$F$N%'$x$O%#%F%P%3%Q%n%d%p%B%R%S%T%U++++++++++++++++++++++",
"++++++++++++++++++++++++#9%V#n#_#:#o$|#}#'#q$0%=#s#t%>%W$V$&$*$:$D$;$5$h$Z%X%'%8$O%!%F%0%3%4%Y%H%p%B%Z&+&@&#&#++++++++++++++++++++++",
"++++++++++++++++++++++#*@v#n#a$9#c@Z$1%(#f${#h$a$o#C%:%5$M$d$:$4$;$g$u$i&$%[%}%j&%&&%0&*%b%Y%d%q&=%Z&-&;&>&#&#++++++++++++++++++++++",
"++++++++++++++++++++++#=$8#a@O@P$l$1#x#y$m#h#s#L%_#W#O$c$q$r%v$t%g%E$v&,&'&)%|$Q%G&!&~%b%c&{%q&=%Z&+%U&]&^&#&#&#++++++++++++++++++++",
"++++++++++++++++++++++#_#:@O#[#,#w#)#y#J$$$n$z#M#N#X$p$q$:%v&/$6$h$G%7%y%i&(%9%G%l%Q%A%o&_%q&:%S&<&[&>&^&^&#&#&}++++++++++++++++++++",
"++++++++++++++++++++#a#:@O@P$@#w#I#S#z$$#A$z$b$%$A$*#Z%u%v$}$6$Z$N&|$I&1%j%~%G%z%Q%n%o%I%B%C%D%T&[&#&#&#&]&>&#&2++++++++++++++++++++",
"++++++++++++++++++++#b#o$!#}#R#1#g#z#T#t$z#D$%$M$*$-$D$;$t%,%E$N$H%@&1%!%9%{&3%b%A&4%I&5%C%K&<%U&>&>&#&^&#&#&#&>%U++++++++++++++++++",
"++++++++++++++++++&6#u@Z#}%(#)#g#r$$$U&7$^$V$M$_$:%u$[&8$E$F%X$H$x&1%!%F%{%3&9&0&4%I&5%R%K&a&[&b&^&#&#&^&#&>&^&b%U++++++++++++++++++",
"++++++++++++++++++$!&c#e#'#q#g#h$T%;#C%:$V&d$_$-$4%6$5$u$i%7%'%8&1%!%$%{&3%b&0&{%p&=&e%K%T%U%U&b&^&]&>&]&]&^&^&]&]++++++++++++++++++",
"++++++++++++++++++#v$@#w#I#2#z#K$n&7#D$/#X$*$-$f%O$}$6$F%+%'$x&1$P++++++++++++++++++++++++++++++++++++++++++++++++++++++++++++++++++",
"++++++++++++++++++++++++++++++++++++++++++++++++++++++++++++++++++++++++++++++++++++++++++++++++++++++++++++++++++++++++++++++++++++",
"++++++++++++++++++++++++++++++++++++++++++++++++++++++++++++++++++++++++++++++++++++++++++++++++++++++++++++++++++++++++++++++++++++",
"++++++++++++++++++++++++++++++++++++++++++++++++++++++++++++++++++++++++++++++++++++++++++++++++++++++++++++++++++++++++++++++++++++",
"++++++++++++++++++++++++++++++++++++++++++++++++++++++++++++++++++++++++++++++++++++++++++++++++++++++++++++++++++++++++++++++++++++",
"++++++++++++++++++++++++++++++++++++++++++++++++++++++++++++++++++++++++++++++++++++++++++++++++++++++++++++++++++++++++++++++++++++",
"++++++++++++++++++++++++++++++++++++++++++++++++++++++++++++++++++++++++++++++++++++++++++++++++++++++++++++++++++++++++++++++++++++",
"++++++++++++++++++++++++++++++++++++++++++++++++++++++++++++++++++++++++++++++++++++++++++++++++++++++++++++++++++++++++++++++++++++",
"++++++++++++++++++++++++++++++++++++++++++++++++++++++++++++++++++++++++++++++++++++++++++++++++++++++++++++++++++++++++++++++++++++"};
