/* XPM */
static char * ball_red_xpm[] = {
"66 66 377 2",
"%( c #FF5BFB",
"%/ c #FF78FB",
"%^ c #FF69FC",
"%] c #FE57FB",
"%{ c #FE51FB",
"%~ c #FF5CFC",
"%! c #FE79FB",
"%) c #FE95FC",
"%' c #FE9BFE",
"%, c #FF9FFE",
"%> c #FF7FFC",
"%; c #FE89FC",
"%- c #FE92FD",
"%= c #FE9DFE",
"%* c #FE5EFB",
"%& c #FF55FC",
"%% c #FE6BFC",
"%$ c #FF87FD",
"%# c #FF8CFC",
"%@ c #FE9FFE",
"%+ c #FEA2FE",
"$Z c #FF53FB",
"$Y c #FE74FC",
"$X c #FE76FC",
"$W c #FE78FC",
"$V c #FEA4FE",
"$U c #FF51FC",
"$T c #FF81FD",
"$S c #FE88FC",
"$R c #FFAAFE",
"$Q c #FF4FFC",
"$P c #FF56FC",
"$O c #FF5FFC",
"$N c #FE7BFD",
"$M c #FE9BFD",
"$L c #FF53FC",
"$K c #FF4FFB",
"$J c #FF56FD",
"$I c #FF59FD",
"$H c #FE4FFC",
"$G c #FE54FC",
"$F c #FE58FC",
"$E c #FF88FC",
"$D c #FE9DFD",
"$C c #FE51FC",
"$B c #FE4EFC",
"$A c #FE52FC",
"$z c #FF58FC",
"$y c #FE60FC",
"$x c #FF68FD",
"$w c #FE6AFD",
"$v c #FE77FD",
"$u c #FE99FD",
"$t c #FE9BFC",
"$s c #FE6BFB",
"$r c #FF4EFC",
"$q c #FF54FC",
"$p c #FF57FC",
"$o c #FF5BFC",
"$n c #FF5DFC",
"$m c #FF62FC",
"$l c #FE70FD",
"$k c #FF74FD",
"$j c #FE7CFD",
"$i c #FF7DFD",
"$h c #FF99FD",
"$g c #FF50FC",
"$f c #FF52FC",
"$e c #FF55FD",
"$d c #FE56FC",
"$c c #FF6EFD",
"$b c #FF71FD",
"$a c #FE72FD",
"$0 c #FE74FD",
"$9 c #FE83FD",
"$8 c #FF65FC",
"$7 c #FE55FC",
"$6 c #FE57FC",
"$5 c #FF59FC",
"$4 c #FE62FC",
"$3 c #FF67FC",
"$2 c #FF70FD",
"$1 c #FF73FD",
"$| c #FE75FD",
"$} c #FE7DFC",
"$[ c #FE7FFC",
"$< c #FF69FD",
"$: c #FF5AFC",
"$_ c #FE59FC",
"$( c #FE5BFC",
"$/ c #FE63FC",
"$^ c #FE71FC",
"$] c #FE5FFC",
"${ c #FF5EFC",
"$~ c #FE5DFC",
"$! c #FE5FFD",
"$) c #FE61FC",
"$' c #FF64FD",
"$, c #FE6DFC",
"$> c #FE72FC",
"$; c #FE78FD",
"$- c #FE7FFD",
"$= c #FE81FD",
"$* c #FE8AFD",
"$& c #FE97FD",
"$% c #FEA6FE",
"$$ c #FF60FC",
"$# c #FF61FC",
"$@ c #FF64FC",
"$+ c #FE65FC",
"#Z c #FE6EFD",
"#Y c #FF74FC",
"#X c #FE88FD",
"#W c #FF8CFD",
"#V c #FF63FC",
"#U c #FF66FC",
"#T c #FE64FC",
"#S c #FE66FC",
"#R c #FE68FC",
"#Q c #FF6AFC",
"#P c #FF6CFC",
"#O c #FE6EFC",
"#N c #FE70FC",
"#M c #FEABFE",
"#L c #FE67FC",
"#K c #FF68FC",
"#J c #FE6AFC",
"#I c #FE6CFC",
"#H c #FF6EFC",
"#G c #FF70FC",
"#F c #FF72FC",
"#E c #FE79FD",
"#D c #FF7EFC",
"#C c #FF7FFD",
"#B c #FE8BFC",
"#A c #FE8DFC",
"#z c #FE90FD",
"#y c #FFA4FE",
"#x c #FFAAFD",
"#w c #FEB1FC",
"#v c #FF6AFD",
"#u c #FF6BFC",
"#t c #FF6DFC",
"#s c #FE6FFC",
"#r c #FE77FC",
"#q c #FE79FC",
"#p c #FF7BFD",
"#o c #FE8FFC",
"#n c #FF6FFC",
"#m c #FF6FFD",
"#l c #FF71FC",
"#k c #FE75FC",
"#j c #FF77FD",
"#i c #FF7AFC",
"#h c #FF7EFD",
"#g c #FE86FD",
"#f c #FFA6FE",
"#e c #FEB1FE",
"#d c #FF82FC",
"#c c #FE73FC",
"#b c #FF73FC",
"#a c #FF75FC",
"#0 c #FF77FC",
"#9 c #FE7CFC",
"#8 c #FE85FD",
"#7 c #FE89FD",
"#6 c #FFAFFE",
"#5 c #FE7DFD",
"#4 c #FF76FC",
"#3 c #FF75FD",
"#2 c #FF78FD",
"#1 c #FF79FD",
"#| c #FE7BFC",
"#} c #FE7EFD",
"#[ c #FE84FC",
"#< c #FF8AFD",
"#: c #FE97FC",
"#_ c #FEADFD",
"#( c #FF88FD",
"#/ c #FF7AFD",
"#^ c #FE7AFC",
"#] c #FF7CFD",
"#{ c #FE80FC",
"#~ c #FF82FD",
"#! c #FE86FC",
"#) c #FEA4FD",
"#' c #FFB1FD",
"#, c #FF7BFC",
"#> c #FE7EFC",
"#; c #FF80FD",
"#- c #FE82FD",
"#= c #FE84FD",
"#* c #FF91FD",
"#& c #FF95FE",
"#% c #FEA6FD",
"#$ c #FFA9FE",
"## c #FFADFD",
"#@ c #FEB1FD",
"#+ c #FEB5FD",
"@Z c #FF84FD",
"@Y c #FF80FC",
"@X c #FE80FD",
"@W c #FE85FC",
"@V c #FE94FD",
"@U c #FF95FD",
"@T c #FF86FD",
"@S c #FF83FD",
"@R c #FF85FD",
"@Q c #FE87FD",
"@P c #FF93FD",
"@O c #FFA2FD",
"@N c #FEAFFD",
"@M c #FE87FC",
"@L c #FE8BFD",
"@K c #FF8DFD",
"@J c #FE94FC",
"@I c #FE98FE",
"@H c #FFA0FD",
"@G c #FFABFE",
"@F c #FFADFE",
"@E c #FE8CFD",
"@D c #FF89FD",
"@C c #FF8BFD",
"@B c #FE8DFD",
"@A c #FF8FFD",
"@z c #FF9CFD",
"@y c #FEADFE",
"@x c #FF8EFD",
"@w c #FE8EFD",
"@v c #FE8FFD",
"@u c #FF92FD",
"@t c #FEA5FE",
"@s c #FFAEFE",
"@r c #FF90FD",
"@q c #FE91FD",
"@p c #FF94FD",
"@o c #FEA2FD",
"@n c #FE95FD",
"@m c #FE93FD",
"@l c #FF96FD",
"@k c #FF98FD",
"@j c #FE9AFD",
"@i c #FFA0FE",
"@h c #FFA7FE",
"@g c #FFABFD",
"@f c #FFB2FD",
"@e c #FFB7FE",
"@d c #FEBCFD",
"@c c #FF97FD",
"@b c #FE96FD",
"@a c #FE98FD",
"@0 c #FF9EFD",
"@9 c #FFB4FE",
"@8 c #FFB6FE",
"@7 c #FFBAFE",
"@6 c #FEBCFE",
"@5 c #FF9AFD",
"@4 c #FF9BFD",
"@3 c #FE9CFD",
"@2 c #FE9FFD",
"@1 c #FEA1FD",
"@| c #FEA5FC",
"@} c #FFB2FE",
"@[ c #FEB6FE",
"@< c #FEB9FD",
"@: c #FEBBFE",
"@_ c #FE9EFD",
"@( c #FF9DFD",
"@/ c #FF9FFD",
"@^ c #FFA5FD",
"@] c #FFA9FD",
"@{ c #FEACFD",
"@~ c #FEBFFD",
"@! c #FFA1FD",
"@) c #FEA0FD",
"@' c #FFA1FC",
"@, c #FFA4FD",
"@> c #FEA5FD",
"@; c #FEA9FD",
"@- c #FFA3FD",
"@= c #FEA3FD",
"@* c #FFA8FD",
"@& c #FEACFE",
"@% c #FEB8FD",
"@$ c #FFBDFD",
"@# c #FFA6FD",
"@@ c #FEA7FD",
"@+ c #FEB2FE",
"+Z c #FEB4FE",
"+Y c #FFB6FD",
"+X c #FFA7FD",
"+W c #FEA8FD",
"+V c #FEAAFD",
"+U c #FEABFD",
"+T c #FEAEFD",
"+S c #FEB7FE",
"+R c #FFB8FE",
"+Q c #FEBDFD",
"+P c #FEC3FE",
"+O c #FFC1FD",
"+N c #FFACFE",
"+M c #FFACFD",
"+L c #FFAEFD",
"+K c #FFB0FD",
"+J c #FEB6FD",
"+I c #FFB9FE",
"+H c #FEBBFD",
"+G c #FEBEFE",
"+F c #FEB0FD",
"+E c #FFB3FD",
"+D c #FEB4FD",
"+C c #FEB9FE",
"+B c #FFBCFE",
"+A c #FEC1FD",
"+z c #FEC2FC",
"+y c #FFAFFD",
"+x c #FEB2FD",
"+w c #FFB5FD",
"+v c #FEB7FD",
"+u c #FEC1FE",
"+t c #FFB4FD",
"+s c #FFB7FD",
"+r c #FEB8FE",
"+q c #FEBDFE",
"+p c #FEBFFE",
"+o c #FFC1FE",
"+n c #FEC6FD",
"+m c #FFB8FD",
"+l c #FFB9FD",
"+k c #FFBBFE",
"+j c #FEC0FE",
"+i c #FEC9FD",
"+h c #FFC6FD",
"+g c #FEB3FD",
"+f c #FFBBFD",
"+e c #FFBDFE",
"+d c #FEC0FD",
"+c c #FEC2FE",
"+b c #FEC4FE",
"+a c #FFC5FE",
"+0 c #FFBFFE",
"+9 c #FFC2FE",
"+8 c #FFC3FE",
"+7 c #FEC6FE",
"+6 c #FFCBFD",
"+5 c #FFBFFD",
"+4 c #FEC2FD",
"+3 c #FFC4FE",
"+2 c #FEC5FE",
"+1 c #FEC8FE",
"+| c #FFCAFE",
"+} c #FECCFD",
"+[ c #FFBAFD",
"+< c #FFC0FD",
"+: c #FFC8FE",
"+_ c #FECAFE",
"+( c #FECCFE",
"+/ c #FFCEFD",
"+^ c #FFCDFD",
"+] c #FFB5FE",
"+{ c #FFC3FD",
"+~ c #FEC9FE",
"+! c #FECAFD",
"+) c #FFBCFD",
"+' c #FFCBFE",
"+, c #FECDFE",
"+> c #FFCEFE",
"+; c #FFC5FD",
"+- c #FFCFFE",
"+= c #FECFFE",
"+* c #FFD0FE",
"+& c #FFD2FE",
"+% c #FFCDFE",
"+$ c #FFC6FE",
"+# c #FED4FE",
"+@ c #FECEFE",
"++ c None",
"++++++++++++++++++++++++++++++++++++++++++++++++++++++++++++++++++++++++++++++++++++++++++++++++++++++++++++++++++++++++++++++++++++",
"++++++++++++++++++++++++++++++++++++++++++++++++++++++++++++++++++++++++++++++++++++++++++++++++++++++++++++++++++++++++++++++++++++",
"++++++++++++++++++++++++++++++++++++++++++++++++++++++++++++++++++++++++++++++++++++++++++++++++++++++++++++++++++++++++++++++++++++",
"++++++++++++++++++++++++++++++++++++++++++++++++++++++++++++++++++++++++++++++++++++++++++++++++++++++++++++++++++++++++++++++++++++",
"++++++++++++++++++++++++++++++++++++++++++++++++++++++++++++++++++++++++++++++++++++++++++++++++++++++++++++++++++++++++++++++++++++",
"+++++++++++++++++++++++++++++++++++++++++++++++++++++++++++++++++@+#++++++++++++++++++++++++++++++++++++++++++++++++++++++++++++++++",
"+++++++++++++++++++++++++++++++++++++++++++++++++++++++++++++++$+%+&+*++++++++++++++++++++++++++++++++++++++++++++++++++++++++++++++",
"+++++++++++++++++++++++++++++++++++++++++++++++++++++++++++++++=+*+-+;++++++++++++++++++++++++++++++++++++++++++++++++++++++++++++++",
"+++++++++++++++++++++++++++++++++++++++++++++++++++++++++++++++>+-+,+'+)++++++++++++++++++++++++++++++++++++++++++++++++++++++++++++",
"+++++++++++++++++++++++++++++++++++++++++++++++++++++++++++++>+=+,+!+~+{+]++++++++++++++++++++++++++++++++++++++++++++++++++++++++++",
"+++++++++++++++++++++++++++++++++++++++++++++++++++++++++++^+/+(+_+:+$+<+[++++++++++++++++++++++++++++++++++++++++++++++++++++++++++",
"+++++++++++++++++++++++++++++++++++++++++++++++++++++++++++^+}+|+1+2+3+4+5++++++++++++++++++++++++++++++++++++++++++++++++++++++++++",
"+++++++++++++++++++++++++++++++++++++++++++++++++++++++++++6+!+1+7+8+9+0+)++++++++++++++++++++++++++++++++++++++++++++++++++++++++++",
"+++++++++++++++++++++++++++++++++++++++++++++++++++++++++1+!+:+a+b+c+d+e+f+g++++++++++++++++++++++++++++++++++++++++++++++++++++++++",
"+++++++++++++++++++++++++++++++++++++++++++++++++++++++h+i+:+7+8+c+j+e+k+l+m++++++++++++++++++++++++++++++++++++++++++++++++++++++++",
"+++++++++++++++++++++++++++++++++++++++++++++++++++++++n+1+7+b+o+p+q+f+r+s+t+g++++++++++++++++++++++++++++++++++++++++++++++++++++++",
"+++++++++++++++++++++++++++++++++++++++++++++++++++++++h+7+8+u+p+e+k+l+v+w+x+y++++++++++++++++++++++++++++++++++++++++++++++++++++++",
"+++++++++++++++++++++++++++++++++++++++++++++++++++++z+a+b+A+p+q+B+C+s+D+E+F+y++++++++++++++++++++++++++++++++++++++++++++++++++++++",
"+++++++++++++++++++++++++++++++++++++++++++++++++++G+{+3+c+0+q+H+I+J+]+x+K+L+M+N++++++++++++++++++++++++++++++++++++++++++++++++++++",
"+++++++++++++++++++++++++++++++++++++++++++++++++++O+P+u+p+Q+k+R+S+w+E+K+T+U+V+W+X++++++++++++++++++++++++++++++++++++++++++++++++++",
"+++++++++++++++++++++++++++++++++++++++++++++++++++A+o+0+q+k+l+Y+Z@++K+T+M+V@@@#@#++++++++++++++++++++++++++++++++++++++++++++++++++",
"++++++++++++++++++++++++++++++++++++++++++++++++@$+O+0+e+H@%+v+D+g+K+T@&+V@*@#@=@-++++++++++++++++++++++++++++++++++++++++++++++++++",
"+++++++++++++++++++++++++++++++++++++++++++++++k+0+0+Q+H@%+J+D+x+F+T+U@;@*@>@,@'@)@!++++++++++++++++++++++++++++++++++++++++++++++++",
"+++++++++++++++++++++++++++++++++++++++++++++++q@~+e+k+I+v+w+E+F+T@{@]+X@^@=@!@/@(@_++++++++++++++++++++++++++++++++++++++++++++++++",
"+++++++++++++++++++++++++++++++++++++++++++++++Q+q@:@<@[+Z@}+F+L+M@]@@@|@=@1@2@3@4@5@(++++++++++++++++++++++++++++++++++++++++++++++",
"+++++++++++++++++++++++++++++++++++++++++++++k@6@7+r@8@9+x+F+L+M+V@@@>@-@!@0@3@5@a@b@c++++++++++++++++++++++++++++++++++++++++++++++",
"+++++++++++++++++++++++++++++++++++++++++++f@d+H@<@e+D@f+F+T@g@]@h@>@=@i@/@3@j@k@l@m@n++++++++++++++++++++++++++++++++++++++++++++++",
"+++++++++++++++++++++++++++++++++++++++++++H+H+r+v+t+x+F+L@g@;@@@^@o@!@_@3@5@a@l@p@q@r@p++++++++++++++++++++++++++++++++++++++++++++",
"+++++++++++++++++++++++++++++++++++++++++++[@%@[+D+x+F@s+M@;@h@t@=@!@/@3@j@k@l@p@u@v@w@x@p++++++++++++++++++++++++++++++++++++++++++",
"+++++++++++++++++++++++++++++++++++++++w+[+m+Y+D@f+y@y@g@;+X@^@o@!@0@z@5@a@b@p@q@A@B@C@D@E++++++++++++++++++++++++++++++++++++++++++",
"+++++++++++++++++++++++++++++++++++++++m+m@8+D@f+F@F@G@;@h@t@=@H@2@z@j@I@b@J@u@A@K@L@D@M@M++++++++++++++++++++++++++++++++++++++++++",
"+++++++++++++++++++++++++++++++++++++++m+Y+D+x@N@F@g@]+X@>@O@H@0@z@j@k@b@P@q@v@K@L@D@Q@R@S@T++++++++++++++++++++++++++++++++++++++++",
"+++++++++++++++++++++++++++++++++++++l+Y+Z+x+F+L@{@;+X@^@=@!@2@3@j@a@U@V@q@v@K@L@D@Q@W@S@X@Y@Z++++++++++++++++++++++++++++++++++++++",
"+++++++++++++++++++++++++++++++++++t#++E#@@N##@g#$#%@,@o@H@0@z@5@k#&@m#*@v@B@C@D@T#=#-#;#>#,@R++++++++++++++++++++++++++++++++++++++",
"++++++++++++++++++++++++++++++++#'+w+t@f+K##+U@;@@#)@=@H@/@z@5@k@l@p#*@A@K@C@D#!#=#~#{#>#]#^#/#(++++++++++++++++++++++++++++++++++++",
"+++++++++++++++++++++++++++++++++g+E#@+y#_@g@;#%#)@O@)@0@3@5#:@n@m#*@A@B#<#(@T#[#-#;#}#|#1#2#3#4#5++++++++++++++++++++++++++++++++++",
"+++++++++++++++++++++++++++++++E+t@}#6#_@g@]+X@^@=@)@_@z@j@k@n@m@q@v@K@C#7@Q#8#-#;#>#9#1#0#a#b#c#d++++++++++++++++++++++++++++++++++",
"++++++++++++++++++++++++++++++#@#e@N@F+U@;#f#)@o@)@0@3@5@k@l@P@q@v@K@C#(#g#=#~@X#h#9#i#j#k#c#l#m#n#i++++++++++++++++++++++++++++++++",
"+++++++++++++++++++++++++++K+g#'#6##@g@]#%@,@o@1@0@3@j@c@l@p#*#o@K@C#(@T@Z#~#;#>#p#q#r#k#b#l#s#t#u#t#v++++++++++++++++++++++++++++++",
"++++++++++++++++++++++++++#'#w+y#_#x@*#%#y@O@)@_@3@5@a@U@P#z@v#A#B#(@T#=#~#C#D#9#E#j#k#F#G#H#I#J#K#L#l++++++++++++++++++++++++++++++",
"+++++++++++++++++++++++++y@f@N#_#M@]@@@,@O@H@_@z@j@k@b@P#*@A@K@C@D@T@Z#~#;#h#p#^#0#k#c#N#O#P#Q#R#S#T#U#V++++++++++++++++++++++++++++",
"+++++++++++++++++++++++++K+y#_@g#$+X@,@o@H@_@3@j@a@n@m#*@v#W@L#X@T#=#-#C#h#|#E#j#Y#c#G#Z#P#Q#K$+$@$#$$#U#F++++++++++++++++++++++++++",
"+++++++++++++++++++++++F+K##@g@;$%#)@O@)@_@3@j$&@U@m@q@v@K$*#X#g#=$=$-#5#9#1$;#k$>#G#s$,#J#R#U$'$)$!$~${$]++++++++++++++++++++++++++",
"+++++++++++++++++++++++y#_+U@;@@@>@o@)@0@3@j@c@U@m@q@v@B$*#(#g#=#-#;#h#,#q#j#3#F$^#O#I#Q#R#S$/$)$]$~$($_$:$<++++++++++++++++++++++++",
"++++++++++++++++++#6+F#_+U@;@@#)@o@H@_@3@j$&@U@m@q@v@K$*#X@T#=#~$[$}#,#q#0$|$1$2#H#I#J$3#S#T$4$]$~$($5$6$7$8#c++++++++++++++++++++++",
"++++++++++++++++++@s#_+U@]#%#)@o@H@_@z@5@c@U@P#*@A#W#<#X#!$9#-$-$}#,#1#j$0$a$b$c#I#v#R#S#T$#$]$~$($5$d$e$f$g$5++++++++++++++++++++++",
"+++++++++++++++++L+L+U@]@@@,@O@H@(@z$h@c@U@m#*@v@B#<#X#g#[$=#;$i$j#E#r$k#c$l#O#P#J#K#U#T$m$]$n$o$5$p$q$f$g$r$7$s++++++++++++++++++++",
"++++++++++++++++##@g+W$%#)@O@H@_$t$u@c@U@P#z@v#W#<#X@T#=$=#C#>#p#E$v#a#F#G$c#I$w$x$+$@$)$y$~$:$z$6$7$A$g$r$r$B$C$p++++++++++++++++++",
"++++++++++++++@F@g@*#%#)@1@)$D@3$h@c@n@m@r@w@E$*$E@T#=$=$[$}#|#1#r#k#b#N#H#I#J$x#S$@$#$]$~$($F$d$G$f$g$H$B$r$B$H$4++++++++++++++++++",
"++++++++++++++@g+W#%#)@o@H@0@3$h@c@U@m#z@x@E$*#X#g@Z$=#C#5#p#E$v#3#F#G#O#P$w#K$+$@$)$]$~$($I$J$G$f$g$r$H$B$r$B$B$K$L++++++++++++++++",
"++++++++++@&@g@]#f#)@o@)@($M$h@c@U@P@r@w#W#<#X@R@Z$=#C$i$N#q#r#k#b#N#H#I#Q#R#S#V$#$O$~$($_$P$G$f$g$r$r$r$B$r$r$B$Q$5$#++++++++++++++",
"+++++++++++N$R$%#y@!@)$D@4$h@c@U@m#*@x@E#<$S#g#=$T$-#5#,#E#j#k$>#G#O#P#J#K$8#T$#$]$n$o$F$d$q$f$g$r$B$r$r$B$r$B$B$B$Q$U++++++++++++++",
"+++++++++++U@@$V@1@/@0@3$h@c@n@m#z@w@B$*#(@R@S$=#C#]#|$W$X$Y#F$2#Z#P#Q$3#S$/$)$]$~$($5$P$G$f$g$B$B$B$B$H$B$r$r$r$B$r$Z$m++++++++++++",
"++++++++@g@*#y%+%@@(@3@5@c@U@P#z@x%##<%$#8@S#~$-$}#>#C$T#-#Y$^#s#I#J#R#L$+$m$y#K%%#T$n$6$f$g$r$r$B$r$r$Q$r$B$r$r$B$B$B%&%*++++++++++",
"++++++++@;@^@1@/%=$M$u@c@U%-@r@v@w@K$*@T%;#A#z#!$i#C@Z@D#W@x++++++++++++++++++%>#q$c$/$z$U$K#Q$)$G$Q$P$G$U$r$r$B$B$B$r$Q$+++++++++++",
"+++++++++W@-%,$D%'$u#:@l@b#:%)@v@u@l@k++++++++++++++++++++++++++++++++++++++++++++++++++++++++++++++%!#P%~%{%]$4$o$7$f$G%^++++++++++",
"++++++++@*@=@-@O@!@H@l@l@k@4@(++++++++++++++++++++++++++++++++++++++++++++++++++++++++++++++++++++++++++++++%/#l$@%(%&$5$o++++++++++",
"++++++++++++++++++++++++++++++++++++++++++++++++++++++++++++++++++++++++++++++++++++++++++++++++++++++++++++++++++++++++++++++++++++",
"++++++++++++++++++++++++++++++++++++++++++++++++++++++++++++++++++++++++++++++++++++++++++++++++++++++++++++++++++++++++++++++++++++",
"++++++++++++++++++++++++++++++++++++++++++++++++++++++++++++++++++++++++++++++++++++++++++++++++++++++++++++++++++++++++++++++++++++",
"++++++++++++++++++++++++++++++++++++++++++++++++++++++++++++++++++++++++++++++++++++++++++++++++++++++++++++++++++++++++++++++++++++",
"++++++++++++++++++++++++++++++++++++++++++++++++++++++++++++++++++++++++++++++++++++++++++++++++++++++++++++++++++++++++++++++++++++",
"++++++++++++++++++++++++++++++++++++++++++++++++++++++++++++++++++++++++++++++++++++++++++++++++++++++++++++++++++++++++++++++++++++",
"++++++++++++++++++++++++++++++++++++++++++++++++++++++++++++++++++++++++++++++++++++++++++++++++++++++++++++++++++++++++++++++++++++",
"++++++++++++++++++++++++++++++++++++++++++++++++++++++++++++++++++++++++++++++++++++++++++++++++++++++++++++++++++++++++++++++++++++",
"++++++++++++++++++++++++++++++++++++++++++++++++++++++++++++++++++++++++++++++++++++++++++++++++++++++++++++++++++++++++++++++++++++"};
