/* XPM */
static char * ball_red_xpm[] = {
"50 50 517 2",
"&I c #C97987",
"&H c #F7755E",
"&G c #DC7A78",
"&F c #E87A70",
"&E c #F37B68",
"&D c #FD7F63",
"&C c #F7816A",
"&B c #EE8475",
"&A c #E38682",
"&z c #E78981",
"&y c #E38A86",
"&x c #C58FA4",
"&w c #CF757E",
"&v c #EC7364",
"&u c #F87359",
"&t c #FF7759",
"&s c #FD8B73",
"&r c #EC9086",
"&q c #F09285",
"&p c #C896AB",
"&o c #E0726C",
"&n c #ED705F",
"&m c #FE795C",
"&l c #FE7C61",
"&k c #FD8F78",
"&j c #FA9681",
"&i c #EC9890",
"&h c #D09CAC",
"&g c #DA7372",
"&f c #EB7061",
"&e c #FF7254",
"&d c #FE7B5E",
"&c c #FD8165",
"&b c #FC947C",
"&a c #FD9782",
"&0 c #F99C89",
"&9 c #E39F9F",
"&8 c #DB7370",
"&7 c #FE8166",
"&6 c #F1A298",
"&5 c #DDA5AB",
"&4 c #B87894",
"&3 c #F66F56",
"&2 c #FE7457",
"&1 c #FF7659",
"&| c #FD8368",
"&} c #FD937D",
"&[ c #F7A697",
"&< c #E4A9AB",
"&: c #BE778F",
"&_ c #FE6E4F",
"&( c #FE7A5E",
"&/ c #FD856B",
"&^ c #FD947C",
"&] c #E0AEB2",
"&{ c #B97894",
"&~ c #FD856A",
"&! c #FD8970",
"&) c #FD8D75",
"&' c #FC9C86",
"&, c #E0B1B7",
"&> c #F86E54",
"&; c #FF7658",
"&- c #FE7F63",
"&= c #FC9B87",
"&* c #FBAF9D",
"&& c #F0B5AD",
"&% c #DE726E",
"&$ c #FF7050",
"&# c #FE7254",
"&@ c #FE7659",
"&+ c #FE7E63",
"%Z c #FE8165",
"%Y c #FE8368",
"%X c #FE856B",
"%W c #FE896F",
"%V c #FC957F",
"%U c #FC9F8C",
"%T c #F5B7AC",
"%S c #DCBAC4",
"%R c #E1726B",
"%Q c #FF6E4F",
"%P c #FE7253",
"%O c #FE8268",
"%N c #FD876D",
"%M c #F5BBB0",
"%L c #EE705E",
"%K c #FE7051",
"%J c #FF7253",
"%I c #FD917A",
"%H c #FD957F",
"%G c #FCA08B",
"%F c #FCA490",
"%E c #EABFBE",
"%D c #E57168",
"%C c #FF6E4E",
"%B c #FF7051",
"%A c #FF7456",
"%z c #FE876D",
"%y c #FD8B72",
"%x c #FC937C",
"%w c #F4C1B9",
"%v c #F2705B",
"%u c #FE6F50",
"%t c #FF7153",
"%s c #FE7455",
"%r c #FD8268",
"%q c #FE856A",
"%p c #FD896F",
"%o c #FD8F77",
"%n c #FBA593",
"%m c #FBA796",
"%l c #EFC4C2",
"%k c #D77375",
"%j c #FF6F51",
"%i c #FE785B",
"%h c #FD8065",
"%g c #FD866D",
"%f c #FD8E77",
"%e c #FC957E",
"%d c #FC9984",
"%c c #FCA28E",
"%b c #FCAC9B",
"%a c #E0736F",
"%0 c #FE7153",
"%9 c #FE7456",
"%8 c #FF7558",
"%7 c #FF785A",
"%6 c #FD846A",
"%5 c #FD8A72",
"%4 c #FD937C",
"%3 c #FCA693",
"%2 c #FABBAC",
"%1 c #FABFB1",
"%| c #E2CBD4",
"%} c #FB7255",
"%[ c #FE7658",
"%< c #FE7A5D",
"%: c #FE7C60",
"%_ c #FE866C",
"%( c #FCA895",
"%/ c #FBB8AA",
"%^ c #FABAAD",
"%] c #F7CCC5",
"%{ c #D1787F",
"%~ c #FE7355",
"%! c #FE7657",
"%) c #FE7A5C",
"%' c #FE846A",
"%, c #FD8D74",
"%> c #FC937B",
"%; c #FD9781",
"%- c #FC9B86",
"%= c #FBA692",
"%* c #FBAA97",
"%& c #FCAB9A",
"%% c #FACBC0",
"%$ c #F1CFCC",
"%# c #FC7457",
"%@ c #FE7557",
"%+ c #FE785A",
"$Z c #FE7C5F",
"$Y c #FD8B71",
"$X c #FC9781",
"$W c #FD9B86",
"$V c #FC9D89",
"$U c #FBB6A7",
"$T c #DE7975",
"$S c #FE775A",
"$R c #FE795D",
"$Q c #FE7D61",
"$P c #FC927C",
"$O c #FD9681",
"$N c #FBAE9D",
"$M c #FABCAF",
"$L c #FACDC3",
"$K c #E6D5DC",
"$J c #EB796C",
"$I c #FF7A5D",
"$H c #FE8065",
"$G c #FE8469",
"$F c #FD8F76",
"$E c #FD9179",
"$D c #F9CBC0",
"$C c #EDD6D7",
"$B c #F57A64",
"$A c #FE7B5F",
"$z c #FE7E62",
"$y c #FD937B",
"$x c #FD9780",
"$w c #FD9983",
"$v c #FCA18E",
"$u c #FBA895",
"$t c #FBB2A2",
"$s c #FAC3B6",
"$r c #FAC7BB",
"$q c #F4D8D4",
"$p c #FC7B60",
"$o c #FE7D62",
"$n c #FC947E",
"$m c #FC9780",
"$l c #FC9983",
"$k c #FC9B85",
"$j c #FCA593",
"$i c #FBA998",
"$h c #FBAC9A",
"$g c #FAB6A7",
"$f c #FBB8A9",
"$e c #FAC0B4",
"$d c #FAC4B9",
"$c c #F7DAD4",
"$b c #FC7D63",
"$a c #FE8064",
"$0 c #FD8267",
"$9 c #FD8C74",
"$8 c #FD957E",
"$7 c #FC9F8B",
"$6 c #FBA795",
"$5 c #FBB1A2",
"$4 c #FBB4A4",
"$3 c #FBB5A7",
"$2 c #FAB8A9",
"$1 c #FABAAC",
"$| c #F7DCD7",
"$} c #F57F6B",
"$[ c #FE8267",
"$< c #FD8369",
"$: c #FD886F",
"$_ c #FC9D88",
"$( c #FBAD9D",
"$/ c #FAB9AC",
"$^ c #FBBCAE",
"$] c #FBBEB1",
"${ c #F9CDC3",
"$~ c #FAD1C8",
"$! c #F9D7D0",
"$) c #F9DBD5",
"$' c #F5DEDB",
"$, c #EA8277",
"$> c #FD8469",
"$; c #FD866C",
"$- c #FD886E",
"$= c #FD9883",
"$* c #FC9C88",
"$& c #FBA592",
"$% c #FBB6A6",
"$$ c #FBBAAC",
"$# c #FABEB1",
"$@ c #F9D1C8",
"$+ c #F8DBD5",
"#Z c #F0E0E1",
"#Y c #DF8583",
"#X c #FE856C",
"#W c #FD876E",
"#V c #FD9079",
"#U c #FC9982",
"#T c #FCA390",
"#S c #FBAB9A",
"#R c #F9CCC3",
"#Q c #F9D5CD",
"#P c #ECE2E7",
"#O c #FB856D",
"#N c #FE876E",
"#M c #FD8A70",
"#L c #FC9883",
"#K c #FCA18D",
"#J c #FBB09F",
"#I c #FABAAB",
"#H c #FACCC3",
"#G c #F9D9D1",
"#F c #F8E3DF",
"#E c #D28A93",
"#D c #FD8A71",
"#C c #FD8C73",
"#B c #FD9882",
"#A c #FC9F8A",
"#z c #FCA794",
"#y c #FAC8BE",
"#x c #F9D9D2",
"#w c #F8DFDA",
"#v c #F8E4DE",
"#u c #F4E5E3",
"#t c #FA8C75",
"#s c #FD8E76",
"#r c #FD947E",
"#q c #FBC4B8",
"#p c #F9CFC5",
"#o c #F9D0C8",
"#n c #F9D7CF",
"#m c #F7E6E4",
"#l c #E28E8D",
"#k c #FD9078",
"#j c #FD927B",
"#i c #FC947D",
"#h c #FD9680",
"#g c #FCA492",
"#f c #FBA794",
"#e c #FCA996",
"#d c #FBB3A4",
"#c c #FBB7A9",
"#b c #FABCAE",
"#a c #FAC2B6",
"#0 c #FAC6BB",
"#9 c #F9D5CC",
"#8 c #F9DDD7",
"#7 c #EEE8EB",
"#6 c #DB9195",
"#5 c #FD927A",
"#4 c #FD947D",
"#3 c #FC9680",
"#2 c #FC9A85",
"#1 c #FCA38F",
"#| c #FCA592",
"#} c #FBA997",
"#[ c #FCAD9C",
"#< c #FAB7A9",
"#: c #FABDB1",
"#_ c #FAC0B3",
"#( c #FAC2B5",
"#/ c #F9C8BD",
"#^ c #FACAC0",
"#] c #FAD0C7",
"#{ c #F8DDD7",
"#~ c #F5E8E8",
"#! c #F29486",
"#) c #FC967F",
"#' c #FD9A84",
"#, c #FCA08D",
"#> c #FBA996",
"#; c #FBAF9F",
"#- c #FAC4B8",
"#= c #FACEC4",
"#* c #F9D3CA",
"#& c #F9D4CD",
"#% c #F9D8D2",
"#$ c #F4EBEA",
"## c #E79792",
"#@ c #FC9882",
"#+ c #FC9A84",
"@Z c #FBAD9C",
"@Y c #F9CAC0",
"@X c #FACCC2",
"@W c #F9CEC5",
"@V c #F9DDD6",
"@U c #F9DFD9",
"@T c #F8E1DC",
"@S c #F8E9E6",
"@R c #F6EAEA",
"@Q c #EF9A8F",
"@P c #FC9C87",
"@O c #FC9E8A",
"@N c #FCA694",
"@M c #FCA897",
"@L c #FBAB99",
"@K c #FBAF9E",
"@J c #FAB9AB",
"@I c #FAC4B7",
"@H c #FAC6BA",
"@G c #F9CABF",
"@F c #F4EBEC",
"@E c #E59D9A",
"@D c #FC9E89",
"@C c #FCA08C",
"@B c #FBA491",
"@A c #FCAB99",
"@z c #FBB1A0",
"@y c #FBB9AA",
"@x c #FABBAE",
"@w c #FAC8BC",
"@v c #F9D2CA",
"@u c #F9D6CF",
"@t c #F9DCD7",
"@s c #F8E5E1",
"@r c #E4A0A0",
"@q c #FCA28F",
"@p c #FCA491",
"@o c #FBA694",
"@n c #FCA896",
"@m c #FCAA98",
"@l c #FBB5A6",
"@k c #FAC3B8",
"@j c #F9DBD4",
"@i c #F8DFD9",
"@h c #F8E1DB",
"@g c #F2EDEF",
"@f c #F7A595",
"@e c #FBA693",
"@d c #FBA896",
"@c c #FBAA98",
"@b c #FBAD9B",
"@a c #FBB1A1",
"@0 c #FABEB0",
"@9 c #FABFB3",
"@8 c #FAC7BD",
"@7 c #F9DAD4",
"@6 c #F9E2DE",
"@5 c #F7EDEB",
"@4 c #F5EDED",
"@3 c #CCA8BC",
"@2 c #F0A89F",
"@1 c #FBAA99",
"@| c #FBAC9B",
"@} c #FBB5A5",
"@[ c #FAB7A8",
"@< c #FAC8BD",
"@: c #F9CCC2",
"@_ c #F9D0C7",
"@( c #F9DED9",
"@/ c #D1ACBD",
"@^ c #F1ACA4",
"@] c #FBAE9E",
"@{ c #FBB0A0",
"@~ c #FBB2A3",
"@! c #FBB7A8",
"@) c #FBB9AB",
"@' c #FACABF",
"@, c #FACCC1",
"@> c #F9CEC4",
"@; c #F9D0C6",
"@- c #F8DCD6",
"@= c #F8DED9",
"@* c #F8E2DE",
"@& c #F8EDEA",
"@% c #F3EDEF",
"@$ c #D0B0C3",
"@# c #F6B0A4",
"@@ c #FBB3A3",
"@+ c #FBB4A5",
"+Z c #FAB6A8",
"+Y c #FAB8AB",
"+X c #FBBBAD",
"+W c #F9CFC7",
"+V c #F9D4CC",
"+U c #F9DED8",
"+T c #F8E3DE",
"+S c #F8EBE8",
"+R c #F7ECEA",
"+Q c #E7B5B6",
"+P c #FAB7A7",
"+O c #FAB8AA",
"+N c #FABBAD",
"+M c #FABDB0",
"+L c #FAC1B4",
"+K c #FAC9BF",
"+J c #FACBC2",
"+I c #FACFC6",
"+H c #F9D2C9",
"+G c #FAD4CB",
"+F c #F8DCD5",
"+E c #F8E5E0",
"+D c #F8E6E2",
"+C c #F8E8E5",
"+B c #F8EAE8",
"+A c #F6ECEB",
"+z c #F3EDEE",
"+y c #E6B9BA",
"+x c #F0BBB6",
"+w c #FABDAF",
"+v c #FABFB2",
"+u c #FAC1B5",
"+t c #FAC5BA",
"+s c #FAC9BE",
"+r c #F9CBC2",
"+q c #FAD2C9",
"+p c #F8E7E3",
"+o c #F8E9E5",
"+n c #F7EAE8",
"+m c #F3ECEC",
"+l c #EBBEBE",
"+k c #F2C1BB",
"+j c #FAC3B7",
"+i c #FAC5B9",
"+h c #FAC7BC",
"+g c #F9C9BF",
"+f c #FACBC1",
"+e c #F9CDC4",
"+d c #F9D4CB",
"+c c #F9D8D1",
"+b c #F9DCD6",
"+a c #F8E3DD",
"+0 c #F8E6E3",
"+9 c #F7E8E5",
"+8 c #F5E9E9",
"+7 c #F0EBED",
"+6 c #E5C4CA",
"+5 c #F2C7C2",
"+4 c #F7C9C0",
"+3 c #F9CBC1",
"+2 c #FACDC4",
"+1 c #F9CFC6",
"+| c #F9D1C9",
"+} c #F9D3CB",
"+[ c #F9D6CE",
"+< c #F9D8D0",
"+: c #F9DAD3",
"+_ c #F9DCD5",
"+( c #F8DED8",
"+/ c #F8E0DB",
"+^ c #F8E2DD",
"+] c #F8E4E0",
"+{ c #F5E5E4",
"+~ c #F5E7E6",
"+! c #EEE8ED",
"+) c #E6CDD3",
"+' c #F7CFC8",
"+, c #EDD1D1",
"+> c #F2D3D1",
"+; c #F5D5D0",
"+- c #F8D7D0",
"+= c #F8D9D3",
"+* c #F7DBD7",
"+& c #F4DDDB",
"+% c #F2DFDF",
"+$ c #F3E1E0",
"+# c #F3E3E3",
"+@ c #ECE4E9",
"++ c None",
"++++++++++++++++++++++++++++++++++++++++++++++++++++++++++++++++++++++++++++++++++++++++++++++++++++",
"++++++++++++++++++++++++++++++++++++++++++++++++++++++++++++++++++++++++++++++++++++++++++++++++++++",
"+++++++++++++++++++++++++++++++++++++@+#+$+%+&+*+=+-+;+>+,+'+)++++++++++++++++++++++++++++++++++++++",
"+++++++++++++++++++++++++++++++!+~+{+]+^+/+(+_+:+<+[+}+|+1+2+3+4+5+6++++++++++++++++++++++++++++++++",
"+++++++++++++++++++++++++++7+8+9+0+]+a+/+(+b+:+c+[+d+|+1+e+f+g+h+i+j+k+l++++++++++++++++++++++++++++",
"+++++++++++++++++++++++++m+n+o+p+]+^+/+(+b+:+<+[+}+q+1+e+r+s+h+t+j+u+v+w+x+y++++++++++++++++++++++++",
"+++++++++++++++++++++z+A+B+C+D+E+^+/+(+F+:+<+[+G+H+I+2+J+K+h+t+j+L+v+M+N+O+P+Q++++++++++++++++++++++",
"+++++++++++++++++++z+R+S+o+D+E+T+/+U+b+:+<+[+V+H+W+e+3+g+h+t+j+L+v+M+X+Y+Z@+@@@#@$++++++++++++++++++",
"++++++++++++++++@%@&+S+o+p+]@*+/@=@-+:+c+[+V+H@;@>@,@'+h+t+j+L+v+w+N@)@!@+@~@{@]@^@/++++++++++++++++",
"++++++++++++++@%@&+S+o+p+]+T+/@(@-+:+c+[+V+H@_@>@:+K@<+t+j+u+v+M+N@)@[@}@@@{@]@|@1@2@3++++++++++++++",
"++++++++++++@4@5+S+o+p+]@6+/+(+b@7+c+[+V+H@;@>+J+K@8+t+j+u@9@0+N@)@!@}@@@a@]@b@c@d@e@f++++++++++++++",
"++++++++++@g+A+S+o+p+]@*@h@i@-@j+c+[+V+H@_@>+3+K@8+t@k+u@9@0+N@)@!@l@@@a@]@|@m@n@o@p@q@r++++++++++++",
"+++++++++++A+S+o+p@s+T+/@=@t@7+c@u+V@v@_@>@:@'@w+t+j+u@9+M@x@y@[@l@@@z@]@|@A@d@o@B@q@C@D@E++++++++++",
"++++++++@F+S+o+p@s+T@h@i+b@7+c@u+V@v@_@>@:@G@<@H@I+u@9+M+N@J@[@l@@@z@K@|@L@M@N@p@q@C@O@P@Q++++++++++",
"++++++++@R@S+p+E+T@T@U@V@7+c@u+V+H@_@W@X@Y@<@H@k+u+v+M+N@)@!@l@@@a@K@Z@1@d@o@p@q@C@D@P#+#@##++++++++",
"++++++#$@S+p@s+T@T@i@V@7#%+[#&#*@_#=@:@G@<@H#-+u+v+M+X@)@!@l@@@a#;@Z@A#>@N@p@q#,@O@P#'#@#)#!++++++++",
"++++++#~+p@s+T@T@i#{@7#%@u+V#*#]@>@:#^#/@H#-#(#_#:@x@)#<@l@@@a#;#[@L#}@o#|#1#,@D@P#2#@#3#4#5#6++++++",
"++++#7+p@s+T@T@i#8@7+c@u#9@v@_@W@:@G@<#0#-#a#_@0#b@J#c@l#d@a@K@Z@L#e#f#g#1@C@O@P#+#@#h#i#j#k#l++++++",
"++++#m@s+T@T@i#8@j+c#n+V@v#o#p@:#^#/#0#q#a#_#:@x@)#c@l#d@a#;@Z@L#}@N@p@q@C@O@P#2#@#3#r#5#k#s#t++++++",
"++++#u#v@T#w#{@j#x#n#&@v@_@W@:@G#y#0#-#a#_@0@x@)#<@l@@@a@K@Z@L#}#z#|@q#,#A@P#2#B#3#4#j#k#s#C#D#E++++",
"++++#F@T@i#{@j#G#n+V@v@_@W#H#^@<#0#-#a#_@0@x#I#<@l#d@a#J@Z@L#}#f#g@q#K#A@P#2#L#3#i#j#k#s#C#M#N#O++++",
"++#P@T#w#{@j#x#n#Q@v@_@W#R#^@<#0#-#a#_@0#b@)#<@l#d@a#;@Z#S#}#z#|#T#K@O@P#2#U#3#r#j#V#s#C#M#W#X#Y++++",
"++#Z#w#{$+#G#n#Q#*$@@W@:@Y@<#0#-#a#_$##b$$#<$%#d@a#J@Z#S#}#z$&#1#,#A$*#2$=#3#4#j#V#s#C#D$-$;$>$,++++",
"++$'#{$)#x$!#Q#*$~@W${#^#y#0#-#a#_$]$^$/#c@l#d@a#;$(#S#}#f#|#T#K#A$_#2#@#3#r#j#k#s#C#D$:$;$<$[$}++++",
"++$|@j#x#n#Q+}$@@W#R@Y#y#0#-#a#_$##b$1$2$3$4$5#;#[#S#}$6$&#T#K$7$_#2#L#h$8#j#k#s$9#D$-$;$>$0$a$b++++",
"++$c#x$!#Q#*$@@W${#^@<#0$d#a$e$#$^$$$f$g#d@a#J#[$h$i$6$j#T#K#A$_$k$l$m$n#j#V#s#C#D$-$;$>$[$a$o$p++++",
"++$q$!#Q#*$~#p${#^#y$r#-$s#_$##b#I$2$g$4$t#;@Z#S$i$u#|#T$v#A$_$k$w$x$8$y#V#s#C#D$-$;$>$[$a$z$A$B++++",
"++$C#Q#*$@+1${$D#y#0$d#a#_$##b$$$f$g$4$t#J$(#S#}$6#|#T#K#A$_$k$l$m$n#j$E$F#C#D$-$;$G$0$H$z$A$I$J++++",
"++$K#*$@#p$L#^#y#0$d#a$e$#$M$1$2$g$4$t#J$N#S$i$6$&#T$v#A$_$k$l$O$n$P#V#s$9#D$-$;$>$[$a$Q$A$R$S$T++++",
"++++$@#p$L$D+s#0$d#a#_$##b$1$2$U$4$t#J$N#S$i$6$j#T#K$7$V$W$l$X#r$y#V#s$9$Y$:$;$G$[$a$z$Z$R%+%@%#++++",
"++++%$${%%+s#0$d+j$e$#$M$1+O$U@+$t#J$(%&%*$6%=#T#K$7$V%-$l%;$n%>$E#s%,#D$:$;%'$[$H$z$Z%)$S%!%~%{++++",
"++++%]+f+s#0+i+j+L$#$^%^%/$U@+$t#J$N#S#}%($&#T#K$7$V%-$l$X$8$y#V#s$9#D$:%_%'$[$a$z%:%<%+%[%~%}++++++",
"++++%|+s$r+i+j$e%1$M%2%/$U@+$t#J$N@|$i$6%3#T$v$7$_%-$w%;$8%4$E$F%,%5$:$;%6$[$H$z$Z%<%7%8%9%0%a++++++",
"+++++++5$d$s$e$#$M$1+O$U$4$t@{$N%b@c$6%3#T%c$7$V$W%d$X%e%4$E%f$9%5$:%g%6$[%h$z%:%<%i%[%9%0%j%k++++++",
"++++++%l$s+L$#$M$$%/$U$4$t@{$N$h@c%m%n#T$v$7@D%-%d%;$8%4$E%o$9%5%p%g%q%r%h$z%:%<%+%[%s%t%u%v++++++++",
"++++++++%w$#$M%^+O$U@+@~@{$N@|@m$u@e#T%c$7$V%-#+$X%e%x$E%o%,%y$:%z%'$[$H$z%:%<%i%[%A%0%B%C%D++++++++",
"++++++++%E$M+N%/$U@+$t@{$N@|@c%($j%F$v%G@D%-%d%;%H%4%I%o%,%y$:%z%6%r$H$z%:%<%+%[%9%J%K%C%L++++++++++",
"++++++++++%M%/@!@+$t@{$N@|@c%(%3%F%c$7$V%-#+$X%H%4%I%o%,%y$:%N%6%O$H$z%:$I%i%[%A%P%j%Q%C%R++++++++++",
"++++++++++%S%T@+$t@{$N@|@c@n@o%F%c%U$V%-%d#@%V%4%I%o%,%y%W%N%X%Y%Z&+%:%<%i&@%9&#&$%Q%Q&%++++++++++++",
"++++++++++++&&@~@{&*@|@c@d@e@p%c%G@D&=#+$X%H%4%I%o%,%y%p%g%q%r%h&-%:%<%i&;%9%P%K%Q%C&>++++++++++++++",
"++++++++++++++&,$N@|@1@d%3@p%c@C@D&'%d%;%V%x%I%o&)%y&!%z&~%r%h&+%:%<%i%[%A%P%B%Q%C%L&{++++++++++++++",
"++++++++++++++++&]@1@d%3@p%c@C@D@P%d%;#)&^%I%o&)%y%p%z&/%O%Z&+%:&(%i&;%9%P%B&_%C%L&:++++++++++++++++",
"++++++++++++++++++&<&[@p%c%G@D@P#+%;%H&}%I%o&)%y&!%N&~&|%Z&-%:%<%i&1&2&#%B%C%C&3&4++++++++++++++++++",
"++++++++++++++++++++&5&6@C@D@P#+#@%V%4%I%o&)%y&!%N%X%Y&7&-%:&(%i&@%9&#%B&_%Q&8++++++++++++++++++++++",
"++++++++++++++++++++++++&9&0%d&a#)&b%I%o&)%y&!%N&/&|&c&-$Q&d%i&@%9&e%B%Q&f&g++++++++++++++++++++++++",
"++++++++++++++++++++++++++&h&i&j&}%I&k&)%y&!%N&/%Y%Z&-&l&d&m&@%9%J%K&n&o++++++++++++++++++++++++++++",
"++++++++++++++++++++++++++++++&p&q&r&)&s&!#W&/&|&7&-&l&(&m&t%9&u&v&w++++++++++++++++++++++++++++++++",
"++++++++++++++++++++++++++++++++++++&x&y&z&A&B&C&D$b&E&F&G&H&I++++++++++++++++++++++++++++++++++++++",
"++++++++++++++++++++++++++++++++++++++++++++++++++++++++++++++++++++++++++++++++++++++++++++++++++++",
"++++++++++++++++++++++++++++++++++++++++++++++++++++++++++++++++++++++++++++++++++++++++++++++++++++"};
