/* XPM */
static char * ball_red_xpm[] = {
"50 50 623 2",
"*Z c #B86C50",
"*Y c #B66731",
"*X c #AE6644",
"*W c #B36639",
"*V c #B16832",
"*U c #AF672E",
"*T c #AB5E2C",
"*S c #AB6334",
"*R c #B26A40",
"*Q c #AB6740",
"*P c #A9613B",
"*O c #AE7061",
"*N c #B46647",
"*M c #AC6343",
"*L c #A65B29",
"*K c #BB6F3D",
"*J c #B8714B",
"*I c #BF7E6A",
"*H c #BE6F43",
"*G c #B06435",
"*F c #A6602C",
"*E c #AD693D",
"*D c #BD7B62",
"*C c #C17042",
"*B c #B56E3D",
"*A c #B97032",
"*z c #BF7C50",
"*y c #AF6540",
"*x c #AB693B",
"*w c #A96C4F",
"*v c #B46E62",
"*u c #BA6F40",
"*t c #B26D33",
"*s c #B47D63",
"*r c #B36959",
"*q c #A76236",
"*p c #B97D5A",
"*o c #A8665E",
"*n c #A35C34",
"*m c #B57B5C",
"*l c #AC623A",
"*k c #C28561",
"*j c #B4653E",
"*i c #8A5230",
"*h c #A47969",
"*g c #97584C",
"*f c #955F44",
"*e c #935332",
"*d c #C38153",
"*c c #B96F3F",
"*b c #B76E3A",
"*a c #B46C36",
"*0 c #B67348",
"*9 c #BC7347",
"*8 c #B57242",
"*7 c #B06842",
"*6 c #C29077",
"*5 c #935C64",
"*4 c #7D4323",
"*3 c #AD704C",
"*2 c #904F3F",
"*1 c #B66E30",
"*| c #BA6D31",
"*} c #BB6E30",
"*[ c #B46F43",
"*< c #B3662E",
"*: c #B0622B",
"*_ c #AC632B",
"*( c #9E5728",
"*/ c #AC6642",
"*^ c #A95D28",
"*] c #AD612A",
"*{ c #AB5E2A",
"*~ c #B3642B",
"*! c #B76C30",
"*) c #B8692D",
"*' c #B5662C",
"*, c #B1662D",
"*> c #AF632C",
"*; c #C9977C",
"*- c #B06235",
"*= c #AB632C",
"** c #AE642C",
"*& c #A55E2A",
"*% c #A45D29",
"*$ c #A25928",
"*# c #9F5929",
"*@ c #9A5829",
"*+ c #A75F2C",
"&Z c #9F5B29",
"&Y c #935327",
"&X c #995628",
"&W c #A8602A",
"&V c #B97E57",
"&U c #894B28",
"&T c #8B5028",
"&S c #7F4524",
"&R c #834825",
"&Q c #8A4E26",
"&P c #8E5127",
"&O c #8D4D24",
"&N c #975427",
"&M c #8B4D25",
"&L c #905227",
"&K c #905126",
"&J c #915328",
"&I c #8F5027",
"&H c #905228",
"&G c #8C5128",
"&F c #8B5027",
"&E c #8B4C24",
"&D c #985527",
"&C c #945428",
"&B c #965E39",
"&A c #A05D2A",
"&z c #A15D2B",
"&y c #975628",
"&x c #995828",
"&w c #9F5C29",
"&v c #9B5827",
"&u c #894E26",
"&t c #824926",
"&s c #7E4825",
"&r c #7B4726",
"&q c #7A4626",
"&p c #754224",
"&o c #7E4725",
"&n c #8E4F25",
"&m c #9E5927",
"&l c #A05E2C",
"&k c #9A592A",
"&j c #945529",
"&i c #9A582A",
"&h c #99582A",
"&g c #995A2B",
"&f c #945628",
"&e c #8F5025",
"&d c #7C4525",
"&c c #774224",
"&b c #804A27",
"&a c #894E27",
"&0 c #925126",
"&9 c #985426",
"&8 c #995427",
"&7 c #9E5A29",
"&6 c #9A5727",
"&5 c #955729",
"&4 c #955427",
"&3 c #9D5B2C",
"&2 c #93522A",
"&1 c #8A4A24",
"&| c #8C4F26",
"&} c #8C4F27",
"&[ c #8E4F27",
"&< c #824825",
"&: c #894F27",
"&_ c #8D5027",
"&( c #935328",
"&/ c #975729",
"&^ c #905329",
"&] c #945427",
"&{ c #8E4E26",
"&~ c #925026",
"&! c #905127",
"&) c #965426",
"&' c #894C25",
"&, c #945937",
"&> c #AC6437",
"&; c #AD662D",
"&- c #AC622B",
"&= c #9C592A",
"&* c #A45D2B",
"&& c #A45D2A",
"&% c #A05C2B",
"&$ c #A05A29",
"&# c #9C5426",
"&@ c #A55B29",
"&+ c #AB622D",
"%Z c #AB5F2A",
"%Y c #BC845C",
"%X c #B56D45",
"%W c #9D5928",
"%V c #B0652B",
"%U c #B3652A",
"%T c #AD622C",
"%S c #B86A2E",
"%R c #B4652B",
"%Q c #B7682F",
"%P c #B96D2F",
"%O c #B66A2D",
"%N c #B2652C",
"%M c #AB602A",
"%L c #A45A27",
"%K c #9F5A28",
"%J c #AC5F2A",
"%I c #A65C29",
"%H c #BE957E",
"%G c #A45928",
"%F c #995226",
"%E c #8B4B23",
"%D c #864A25",
"%C c #874B25",
"%B c #A15827",
"%A c #B7692C",
"%z c #B8692C",
"%y c #B6682D",
"%x c #A55F2B",
"%w c #A25E2B",
"%v c #A35C2B",
"%u c #A9612C",
"%t c #AA612B",
"%s c #965327",
"%r c #8F4E25",
"%q c #955326",
"%p c #995326",
"%o c #B76D4C",
"%n c #723D21",
"%m c #804825",
"%l c #A25626",
"%k c #B1632B",
"%j c #B6652A",
"%i c #BC6E2F",
"%h c #BC6E2E",
"%g c #AE632C",
"%f c #B86F30",
"%e c #B86E2F",
"%d c #B46D31",
"%c c #9F5B2B",
"%b c #8F5026",
"%a c #7B4423",
"%0 c #945025",
"%9 c #9F5727",
"%8 c #924F25",
"%7 c #804523",
"%6 c #855741",
"%5 c #AD7471",
"%4 c #AA602B",
"%3 c #773F21",
"%2 c #7C4423",
"%1 c #935126",
"%| c #A95F29",
"%} c #AE6029",
"%[ c #AB5E28",
"%< c #B4672C",
"%: c #BA6F30",
"%_ c #B66D2E",
"%( c #AE672D",
"%/ c #B1692E",
"%^ c #8B4F27",
"%] c #9C5A29",
"%{ c #AA5E28",
"%~ c #A45B28",
"%! c #8D4F26",
"%) c #7D4423",
"%' c #8F624B",
"%, c #A76644",
"%> c #A55D2A",
"%; c #A65E2B",
"%- c #A55F2A",
"%= c #A15B29",
"%* c #AC652D",
"%& c #AF642D",
"%% c #AE652C",
"%$ c #B1672D",
"%# c #B4692D",
"%@ c #B1652D",
"%+ c #BA6E2F",
"$Z c #B76E30",
"$Y c #B77231",
"$X c #AE6B2F",
"$W c #A9662E",
"$V c #A35F2A",
"$U c #9E5B29",
"$T c #AB622A",
"$S c #A9622C",
"$R c #C69B80",
"$Q c #B46D4A",
"$P c #B67231",
"$O c #B77232",
"$N c #B97332",
"$M c #B67131",
"$L c #B46D30",
"$K c #B1672E",
"$J c #A85F2A",
"$I c #AA622B",
"$H c #A8602B",
"$G c #A35A28",
"$F c #A35D29",
"$E c #A9612B",
"$D c #A95F2A",
"$C c #AF682E",
"$B c #A9642C",
"$A c #AA642B",
"$z c #AD672D",
"$y c #A7632C",
"$x c #A9652C",
"$w c #AE692E",
"$v c #B57231",
"$u c #BE824B",
"$t c #AD6636",
"$s c #B77432",
"$r c #BB7734",
"$q c #B66F31",
"$p c #B56E32",
"$o c #B1692F",
"$n c #AE6B30",
"$m c #AD632C",
"$l c #AA632C",
"$k c #A25D2A",
"$j c #A15C2A",
"$i c #A85E2A",
"$h c #A65C28",
"$g c #AD632B",
"$f c #AC602A",
"$e c #A15B28",
"$d c #A35E29",
"$c c #A45E29",
"$b c #A8622B",
"$a c #AB622B",
"$0 c #AF6B2F",
"$9 c #C08753",
"$8 c #BE7344",
"$7 c #B66C2F",
"$6 c #B77131",
"$5 c #BD7634",
"$4 c #B66B2E",
"$3 c #BC7534",
"$2 c #B6692D",
"$1 c #B1632C",
"$| c #B7692D",
"$} c #B3652B",
"$[ c #AE612B",
"$< c #AA5E29",
"$: c #995727",
"$_ c #975326",
"$( c #9A5627",
"$/ c #A15928",
"$^ c #A55D29",
"$] c #B1652B",
"${ c #B86D2F",
"$~ c #B86E30",
"$! c #BC7840",
"$) c #B16938",
"$' c #814926",
"$, c #824824",
"$> c #864B26",
"$; c #905428",
"$- c #A05E2B",
"$= c #A9652F",
"$* c #A8672F",
"$& c #AD672E",
"$% c #B96F2F",
"$$ c #AD622A",
"$# c #AF622A",
"$@ c #A85C27",
"$+ c #A05726",
"#Z c #A25827",
"#Y c #995728",
"#X c #9A5728",
"#W c #9B5929",
"#V c #945226",
"#U c #8B4C25",
"#T c #8A4D26",
"#S c #844C27",
"#R c #834D27",
"#Q c #996E54",
"#P c #9B675A",
"#O c #844925",
"#N c #854B26",
"#M c #834824",
"#L c #8A4E27",
"#K c #9B5A2A",
"#J c #9E5C29",
"#I c #9A5B2A",
"#H c #915227",
"#G c #834A26",
"#F c #824925",
"#E c #7F4826",
"#D c #7F4725",
"#C c #7A4424",
"#B c #844824",
"#A c #8F4D24",
"#z c #944F24",
"#y c #985124",
"#x c #9F5626",
"#w c #A25A28",
"#v c #965024",
"#u c #8C4D25",
"#t c #814824",
"#s c #7F4724",
"#r c #98684C",
"#q c #945D44",
"#p c #B1642A",
"#o c #BB7030",
"#n c #B16A2E",
"#m c #AD682F",
"#l c #AA6A31",
"#k c #A7642E",
"#j c #9F5A2A",
"#i c #8F5227",
"#h c #8C4E26",
"#g c #884C26",
"#f c #854A26",
"#e c #8B4E27",
"#d c #834B26",
"#c c #884B25",
"#b c #8A4B25",
"#a c #9A5928",
"#0 c #A15C29",
"#9 c #9E5626",
"#8 c #A25625",
"#7 c #A25927",
"#6 c #B26A36",
"#5 c #C7997C",
"#4 c #B36E43",
"#3 c #AF622B",
"#2 c #B4672D",
"#1 c #B3652C",
"#| c #B66A2E",
"#} c #BB7131",
"#[ c #B46A2D",
"#< c #B97030",
"#: c #BF7A36",
"#_ c #BC7230",
"#( c #B77031",
"#/ c #B66B30",
"#^ c #B96F31",
"#] c #AF652B",
"#{ c #A65E2A",
"#~ c #A05927",
"#! c #9D5727",
"#) c #995527",
"#' c #915026",
"#, c #975528",
"#> c #995627",
"#; c #A95E29",
"#- c #A55C29",
"#= c #C4906D",
"#* c #BC8574",
"#& c #A9663A",
"#% c #A05928",
"#$ c #A05828",
"## c #A05B28",
"#@ c #AA632B",
"#+ c #AB612C",
"@Z c #A7602A",
"@Y c #B16C30",
"@X c #B0682E",
"@W c #B77032",
"@V c #B77333",
"@U c #BD7935",
"@T c #BB7633",
"@S c #A35D28",
"@R c #A75D29",
"@Q c #A85D29",
"@P c #A55E29",
"@O c #A55B28",
"@N c #AA602A",
"@M c #A05727",
"@L c #A35C29",
"@K c #B8886A",
"@J c #BE856F",
"@I c #B67541",
"@H c #A85E28",
"@G c #A15927",
"@F c #A85E29",
"@E c #AA612A",
"@D c #B2672D",
"@C c #AD642C",
"@B c #A8612C",
"@A c #AF662C",
"@z c #B26C2F",
"@y c #B87132",
"@x c #B56F31",
"@w c #B67232",
"@v c #B67031",
"@u c #A4612C",
"@t c #B16B2E",
"@s c #B26E30",
"@r c #B0692E",
"@q c #A75E2A",
"@p c #AC642C",
"@o c #A8612B",
"@n c #A9602B",
"@m c #A95E2B",
"@l c #C28D68",
"@k c #BF8E7C",
"@j c #B07348",
"@i c #BA7030",
"@h c #B0642B",
"@g c #B56B2E",
"@f c #AF672D",
"@e c #B2652B",
"@d c #AC652C",
"@c c #AB612A",
"@b c #A45F2B",
"@a c #985628",
"@0 c #A25C29",
"@9 c #A7612C",
"@8 c #AA612C",
"@7 c #A9612A",
"@6 c #AC632C",
"@5 c #A95F2B",
"@4 c #A25B28",
"@3 c #A25E2A",
"@2 c #A05C29",
"@1 c #A6622D",
"@| c #AD6A2F",
"@} c #A8642D",
"@[ c #B06B2F",
"@< c #BA7232",
"@: c #B66A2F",
"@_ c #BC7436",
"@( c #C89675",
"@/ c #B67952",
"@^ c #AE692D",
"@] c #AB652C",
"@{ c #AE662D",
"@~ c #B76D2F",
"@! c #BA6E2E",
"@) c #B5682C",
"@' c #AE6129",
"@, c #AC622A",
"@> c #AA5E2A",
"@; c #9C5727",
"@- c #935025",
"@= c #8D4D25",
"@* c #814624",
"@& c #763F21",
"@% c #763E21",
"@$ c #7C4322",
"@# c #874C26",
"@@ c #A05827",
"@+ c #B06129",
"+Z c #AB5F29",
"+Y c #9E5928",
"+X c #9A5828",
"+W c #8B5129",
"+V c #A25F2C",
"+U c #B16C2F",
"+T c #B57643",
"+S c #BD8A64",
"+R c #C78252",
"+Q c #C07945",
"+P c #BC7332",
"+O c #B0682D",
"+N c #9C5728",
"+M c #B2662D",
"+L c #BA6C2D",
"+K c #BC7030",
"+J c #B6672A",
"+I c #B3642A",
"+H c #AA5D28",
"+G c #A15626",
"+F c #9D5828",
"+E c #935227",
"+D c #814724",
"+C c #753E21",
"+B c #804624",
"+A c #914F25",
"+z c #9D5627",
"+y c #934F25",
"+x c #7C4222",
"+w c #804724",
"+v c #8B4F26",
"+u c #9D5A29",
"+t c #B77134",
"+s c #C78C5F",
"+r c #B2724B",
"+q c #AB683C",
"+p c #AD6029",
"+o c #B7682C",
"+n c #B5662D",
"+m c #B4662C",
"+l c #B0652C",
"+k c #A65D29",
"+j c #9E5627",
"+i c #975527",
"+h c #915228",
"+g c #884C25",
"+f c #8A4A23",
"+e c #995325",
"+d c #965225",
"+c c #945327",
"+b c #914F26",
"+a c #965427",
"+0 c #AB6029",
"+9 c #A75F2D",
"+8 c #BA7A49",
"+7 c #CEA07C",
"+6 c #C38561",
"+5 c #BB7D55",
"+4 c #B16731",
"+3 c #AF662D",
"+2 c #AA5F2A",
"+1 c #B4682C",
"+| c #AF642C",
"+} c #B0632C",
"+[ c #AE612A",
"+< c #AD622B",
"+: c #9E5A28",
"+_ c #A6602A",
"+( c #A45E2A",
"+/ c #A35D2A",
"+^ c #A45C29",
"+] c #A35B28",
"+{ c #B16F42",
"+~ c #BC835C",
"+! c #C7A288",
"+) c #BC8568",
"+' c #AD6430",
"+, c #B67C56",
"+> c #AC6D43",
"+; c #B06B37",
"+- c #AF662E",
"+= c #AB662D",
"+* c #A86330",
"+& c #B26C3D",
"+% c #BA7C50",
"+$ c #BD7E4F",
"+# c #BA7A4E",
"+@ c #C79C82",
"++ c None",
"++++++++++++++++++++++++++++++++++++++++++++++++++++++++++++++++++++++++++++++++++++++++++++++++++++",
"++++++++++++++++++++++++++++++++++++++++++++++++++++++++++++++++++++++++++++++++++++++++++++++++++++",
"+++++++++++++++++++++++++++++++++++++@+#+$+%+&+*+=+-+;+>+,+'+)++++++++++++++++++++++++++++++++++++++",
"+++++++++++++++++++++++++++++++!+~+{+]+^+/+(+_+:+<+[+}+|+1+2+3+4+5+6++++++++++++++++++++++++++++++++",
"+++++++++++++++++++++++++++7+8+9+0+]+a+b+c+d+e+f+g+h+i+j+k+l+m+n+o+p+q+r++++++++++++++++++++++++++++",
"+++++++++++++++++++++++++s+t+u+v+w+x+y+z+A+B+C+D+E+F+G+H+I+J+K+L+M+N+O+P+Q+R++++++++++++++++++++++++",
"+++++++++++++++++++++S+T+U+V+W+X+Y+Z@+@@@#@$@%@&@*@=@-@;@>@,@'@)@!@~@{@]@^+U@/++++++++++++++++++++++",
"++++++++++++++++++@(@_@:@<@[@}@|@1@2@3@4@5@6@7@8@9@0@a@b@c@d@e@f+O@g@h@i@:@<@[@j@k++++++++++++++++++",
"++++++++++++++++@l@m@n@o@p@q@r@s@t@}@u@s@v@w@x@y@v@z@A@B@C@D@E@F@G@H@m@n@o@p@q@r@I@J++++++++++++++++",
"++++++++++++++@K@L@M@N@O@P@Q@R@S@L@L+<@A@z@T@U@V@W@X@Y@Z#+#@###$#%@L@M@N@O@P@Q@R@S#&#*++++++++++++++",
"++++++++++++#=#-+k#;#>#,#'#)#!#~#{#]#^#/#(#_#:#<#<#[#}#|@h#1#2#3#-+k#;#>#,#'#)#!#~#{#4++++++++++++++",
"++++++++++#5#6#;#7#8#9#9#0#a+X+c#b#c#d#e#f#g#h#i#j#k#l#m#n#o#p+[#;#7#8#9#9#0#a+X+c#b#c#q++++++++++++",
"++++++++++#r#s#t#u#v+j#w@@#x#y#z#A#B#C#D#E#F#G#H#I#J#K#L#M#N#O#s#t#u#v+j#w@@#x#y#z#A#B#C#P++++++++++",
"++++++++#Q#R#S#T#U#V#W@a#X#Y#!#Z$+$@$#$$$%@A$&$*$=$-$;$>$,$'#R#S#T#U#V#W@a#X#Y#!#Z$+$@$#$)++++++++++",
"++++++++$!$~${$]$^$/$(#)$_+i$:#{+]$<$[$}$|$1$2$3$4${@i$5$6$7$~${$]$^$/$(#)$_+i$:#{+]$<$[$}$8++++++++",
"++++++$9$0$a$b$c$d$e#w$f$g$h$i#x$/#$$j$k$l$m@b$n$o$p$q$r$s$0$a$b$c$d$e#w$f$g$h$i#x$/#$$j$k$t++++++++",
"++++++$u$v$w$x$y$z$6$A$B$C$D$E$F$G@F$H$h$I$J+3$K$L$M$N$O$P$v$w$x$y$z$6$A$B$C$D$E$F$G@F$H$h$I$Q++++++",
"++++$R$S$T@3$U$V+=$W@[$X$Y$Z%+%@%#%$%%%&%*##@b%=$j%-%;%>$S$T@3$U$V+=$W@[$X$Y$Z%+%@%#%$%%%&%*%,++++++",
"++++%'%)%!%~@+%{$e%]%^@b@t$z%/%(%_%:%<%[%}%|@@%1#U%2%3%3%)%!%~@+%{$e%]%^@b@t$z%/%(%_%:%<%[%}%4%5++++",
"++++%6%7%8%9%0%2%a%b%c%d%e%f%f%g%9+1%h%i%j%k@Q%l#%+E%m%n%7%8%9%0%2%a%b%c%d%e%f%f%g%9+1%h%i%j%k%o++++",
"++++%p%q%!%r%s$/$<%t@6%u%u%v%w%x$$%y%z%A#3@Q%B@a%C%D%E%F%q%!%r%s$/$<%t@6%u%u%v%w%x$$%y%z%A#3@Q%G++++",
"++%H%I%J$F%K%L$<@'$I%M%N%O%P@:%Q%R%S%T+($a%U%V$a+<+[%W%I%J$F%K%L$<@'$I%M%N%O%P@:%Q%R%S%T+($a%U%X++++",
"++%Y+<%Z&+@B@P&@&#$+%L&$&%&&&*%=@2&=+F$F@o&-%x@Q$m@{&;+<%Z&+@B@P&@&#$+%L&$&%&&&*%=@2&=+F$F@o&-&>++++",
"++&,&'%b&)&!#c&~%p+E%!&{&]&^&/&(#'&_&:@#&<%!&[&}&|#h&1&'%b&)&!#c&~%p+E%!&{&]&^&/&(#'&_&:@#&<%!&2++++",
"++&3&4&5&6&7&8&9&0#T%D#N&a&b#d&c&d#g&e#H&f&g&h+X&i&j&k&4&5&6&7&8&9&0#T%D#N&a&b#d&c&d#g&e#H&f&g&k++++",
"++&l&m&&&7+c&n#T&o&p&q&r&b&s&t&u+i%W&v&w#X@;#Y&x&y&z&A&m&&&7+c&n#T&o&p&q&r&b&s&t&u+i%W&v&w#X@;#X++++",
"++&B&C&D#'&E&F&G&H&I&J&K&L&0+g&M+E&N&O&P&Q+w&R&S#N#L&T&C&D#'&E&F&G&H&I&J&K&L&0+g&M+E&N&O&P&Q+w&U++++",
"++&V#0&W+0#{&X&Y&A&Z$F*+*@*#*$%9+z+k*%%>$a@6+2*&+=***=#0&W+0#{&X&Y&A&Z$F*+*@*#*$%9+z+k*%%>$a@6*-++++",
"++*;+|+1+2+3*>*,*'*)@:*!$|*~*{@7*]*^+]+^+/+(+_+:+<+[+}+|+1+2+3*>*,*'*)@:*!$|*~*{@7*]*^+]+^+/+(*/++++",
"++++*(+k+l+m+n+o+p*&*_*:*<+|@o%>+0+]+a+b+c+d+e+f+g+h+i+j+k+l+m+n+o+p*&*_*:*<+|@o%>+0+]+a+b+c+d+z++++",
"++++*[+I+J+K+L+M+N+O+P*}*|*1+u+v+w+x+y+z+A+B+C+D+E+F+G+H+I+J+K+L+M+N+O+P*}*|*1+u+v+w+x+y+z+A+B*2++++",
"++++*3@>@,@'@)@!@~@{@]@^+U+V+W+X+Y+Z@+@@@#@$@%@&@*@=@-@;@>@,@'@)@!@~@{@]@^+U+V+W+X+Y+Z@+@@@#*4*5++++",
"++++*6@c@d@e@f+O@g@h@i@:@<@[@}@|@1@2@3@4@5@6@7@8@9@0@a@b@c@d@e@f+O@g@h@i@:@<@[@}@|@1@2@3@4@5*7++++++",
"++++++*8@D@E@F@G@H@m@n@o@p@q@r@s@t@}@u@s@v@w@x@y@v@z@A@B@C@D@E@F@G@H@m@n@o@p@q@r@s@t@}@u@s@v*9++++++",
"++++++*0#@###$#%@L@M@N@O@P@Q@R@S@L@L+<@A@z@T@U@V@W@X@Y@Z#+#@###$#%@L@M@N@O@P@Q@R@S@L@L+<@A*a++++++++",
"++++++++*b#2#3#-+k#;#>#,#'#)#!#~#{#]#^#/#(#_#:#<#<#[#}#|@h#1#2#3#-+k#;#>#,#'#)#!#~#{#]#^#/*c++++++++",
"++++++++*d#p+[#;#7#8#9#9#0#a+X+c#b#c#d#e#f#g#h#i#j#k#l#m#n#o#p+[#;#7#8#9#9#0#a+X+c#b#c#d*e++++++++++",
"++++++++++*f#s#t#u#v+j#w@@#x#y#z#A#B#C#D#E#F#G#H#I#J#K#L#M#N#O#s#t#u#v+j#w@@#x#y#z#A#B#C*g++++++++++",
"++++++++++*h*i#T#U#V#W@a#X#Y#!#Z$+$@$#$$$%@A$&$*$=$-$;$>$,$'#R#S#T#U#V#W@a#X#Y#!#Z$+$@*j++++++++++++",
"++++++++++++*k$]$^$/$(#)$_+i$:#{+]$<$[$}$|$1$2$3$4${@i$5$6$7$~${$]$^$/$(#)$_+i$:#{+]*l++++++++++++++",
"++++++++++++++*m$d$e#w$f$g$h$i#x$/#$$j$k$l$m@b$n$o$p$q$r$s$0$a$b$c$d$e#w$f$g$h$i#x*n*o++++++++++++++",
"++++++++++++++++*p$6$A$B$C$D$E$F$G@F$H$h$I$J+3$K$L$M$N$O$P$v$w$x$y$z$6$A$B$C$D$E*q*r++++++++++++++++",
"++++++++++++++++++*s*t$X$Y$Z%+%@%#%$%%%&%*##@b%=$j%-%;%>$S$T@3$U$V+=$W@[$X$Y$Z*u*v++++++++++++++++++",
"++++++++++++++++++++*w*x@t$z%/%(%_%:%<%[%}%|@@%1#U%2%3%3%)%!%~@+%{$e%]%^@b@t*y++++++++++++++++++++++",
"++++++++++++++++++++++++*z*A%f%g%9+1%h%i%j%k@Q%l#%+E%m%n%7%8%9%0%2%a%b%c*B*C++++++++++++++++++++++++",
"++++++++++++++++++++++++++*D*E*F$$%y%z%A#3@Q%B@a%C%D%E%F%q%!%r%s$/$<*G*H++++++++++++++++++++++++++++",
"++++++++++++++++++++++++++++++*I*J*K%T+($a%U%V$a+<+[%W%I%J$F%K*L*M*N++++++++++++++++++++++++++++++++",
"++++++++++++++++++++++++++++++++++++*O*P*Q*R*S*T%g*U*V*W*X*Y*Z++++++++++++++++++++++++++++++++++++++",
"++++++++++++++++++++++++++++++++++++++++++++++++++++++++++++++++++++++++++++++++++++++++++++++++++++",
"++++++++++++++++++++++++++++++++++++++++++++++++++++++++++++++++++++++++++++++++++++++++++++++++++++"};
