/* XPM */
static char * ball_red_xpm[] = {
"50 50 216 2",
"#a c #FDFF4E",
"#0 c #FEFF91",
"#9 c #FEFF95",
"#8 c #FCFF55",
"#7 c #FDFF5D",
"#6 c #FCFF4E",
"#5 c #FCFF50",
"#4 c #FCFF53",
"#3 c #FCFF58",
"#2 c #FCFF5B",
"#1 c #FDFF6B",
"#| c #FCFF4F",
"#} c #FCFF51",
"#[ c #FCFF56",
"#< c #FDFF5B",
"#: c #FDFF66",
"#_ c #FCFF52",
"#( c #FCFF54",
"#/ c #FCFF59",
"#^ c #FDFF5F",
"#] c #FCFF61",
"#{ c #FDFF64",
"#~ c #FCFF57",
"#! c #FCFF5A",
"#) c #FCFF5C",
"#' c #FCFF5F",
"#, c #FDFF62",
"#> c #FCFF64",
"#; c #FCFF67",
"#- c #FCFF69",
"#= c #FDFF6E",
"#* c #FDFF71",
"#& c #FDFF5C",
"#% c #FCFF5D",
"#$ c #FCFF60",
"## c #FCFF62",
"#@ c #FCFF65",
"#+ c #FDFF68",
"@Z c #FDFF6A",
"@Y c #FCFF6D",
"@X c #FDFF6F",
"@W c #FCFF5E",
"@V c #FDFF60",
"@U c #FCFF63",
"@T c #FDFF65",
"@S c #FCFF68",
"@R c #FCFF6A",
"@Q c #FCFF72",
"@P c #FDFF75",
"@O c #FDFF63",
"@N c #FCFF66",
"@M c #FCFF6B",
"@L c #FCFF73",
"@K c #FCFF76",
"@J c #FDFF67",
"@I c #FDFF69",
"@H c #FDFF6C",
"@G c #FCFF6C",
"@F c #FCFF6E",
"@E c #FCFF71",
"@D c #FCFF74",
"@C c #FEFFA7",
"@B c #FDFF70",
"@A c #FDFF72",
"@z c #FDFF74",
"@y c #FDFF73",
"@x c #FCFF75",
"@w c #FEFFAB",
"@v c #FDFF76",
"@u c #FDFF78",
"@t c #FDFF77",
"@s c #FDFF79",
"@r c #FDFF80",
"@q c #FEFF8D",
"@p c #FEFFA0",
"@o c #FDFFA5",
"@n c #FDFF7A",
"@m c #FEFF98",
"@l c #FEFFA8",
"@k c #FEFFB5",
"@j c #FDFF7B",
"@i c #FDFF7C",
"@h c #FDFF7E",
"@g c #FDFF7D",
"@f c #FEFFA6",
"@e c #FEFFAE",
"@d c #FEFF7F",
"@c c #FDFF7F",
"@b c #FDFFA2",
"@a c #FDFF81",
"@0 c #FDFF82",
"@9 c #FEFFA2",
"@8 c #FEFF82",
"@7 c #FDFF83",
"@6 c #FEFFA5",
"@5 c #FDFFB7",
"@4 c #FDFF84",
"@3 c #FDFF86",
"@2 c #FDFF9B",
"@1 c #FDFFA0",
"@| c #FDFFA3",
"@} c #FDFFA8",
"@[ c #FDFFAB",
"@< c #FEFFB0",
"@: c #FDFF85",
"@_ c #FDFF87",
"@( c #FDFF89",
"@/ c #FDFF94",
"@^ c #FDFF96",
"@] c #FDFF99",
"@{ c #FDFF9E",
"@~ c #FEFFA4",
"@! c #FDFFA6",
"@) c #FDFFA9",
"@' c #FDFFB1",
"@, c #FDFF8F",
"@> c #FEFFA1",
"@; c #FEFFA9",
"@- c #FEFFAC",
"@= c #FDFFAE",
"@* c #FEFFB1",
"@& c #FEFFB6",
"@% c #FEFFDD",
"@$ c #FDFF88",
"@# c #FDFF8A",
"@@ c #FDFF92",
"@+ c #FDFF97",
"+Z c #FDFF9D",
"+Y c #FDFF9F",
"+X c #FDFFA1",
"+W c #FDFFA4",
"+V c #FDFFA7",
"+U c #FEFFAA",
"+T c #FDFFAC",
"+S c #FDFFAF",
"+R c #FDFFB2",
"+Q c #FDFFB4",
"+P c #FFFFCC",
"+O c #FEFFD4",
"+N c #FEFFDB",
"+M c #FFFFDE",
"+L c #FEFFE3",
"+K c #FDFF8B",
"+J c #FDFF9A",
"+I c #FDFF9C",
"+H c #FEFF9F",
"+G c #FDFFAA",
"+F c #FDFFAD",
"+E c #FEFFAF",
"+D c #FEFFB2",
"+C c #FEFFB4",
"+B c #FEFFB7",
"+A c #FFFFD4",
"+z c #FFFFD9",
"+y c #FEFFDE",
"+x c #FEFFE6",
"+w c #FDFF8C",
"+v c #FEFF8E",
"+u c #FDFF91",
"+t c #FDFF93",
"+s c #FDFF95",
"+r c #FDFF98",
"+q c #FDFFB0",
"+p c #FDFFB3",
"+o c #FDFFB5",
"+n c #FEFFBA",
"+m c #FFFFE0",
"+l c #FEFFE1",
"+k c #FEFFE4",
"+j c #FEFFE7",
"+i c #FDFF8D",
"+h c #FDFF8E",
"+g c #FDFF90",
"+f c #FEFFB3",
"+e c #FDFFB6",
"+d c #FEFFB8",
"+c c #FEFFBB",
"+b c #FEFFC0",
"+a c #FEFFC8",
"+0 c #FFFFEA",
"+9 c #FFFFEC",
"+8 c #FEFFEF",
"+7 c #FFFFF2",
"+6 c #FEFFB9",
"+5 c #FEFFBC",
"+4 c #FEFFBE",
"+3 c #FEFFC3",
"+2 c #FFFFF5",
"+1 c #FEFFBD",
"+| c #FEFFBF",
"+} c #FEFFC1",
"+[ c #FEFFC6",
"+< c #FEFFCB",
"+: c #FEFFC2",
"+_ c #FEFFC4",
"+( c #FEFFC9",
"+/ c #FEFFCC",
"+^ c #FEFFD1",
"+] c #FEFFC5",
"+{ c #FEFFC7",
"+~ c #FEFFCF",
"+! c #FEFFD2",
"+) c #FEFFCA",
"+' c #FEFFCD",
"+, c #FEFFCE",
"+> c #FEFFD0",
"+; c #FEFFD5",
"+- c #FFFFD7",
"+= c #FEFFD3",
"+* c #FEFFD6",
"+& c #FEFFD8",
"+% c #FEFFD7",
"+$ c #FEFFD9",
"+# c #FFFFDB",
"+@ c #FEFFDC",
"++ c None",
"++++++++++++++++++++++++++++++++++++++++++++++++++++++++++++++++++++++++++++++++++++++++++++++++++++",
"++++++++++++++++++++++++++++++++++++++++++++++++++++++++++++++++++++++++++++++++++++++++++++++++++++",
"+++++++++++++++++++++++++++++++++++++++++++++++++@++++++++++++++++++++++++++++++++++++++++++++++++++",
"+++++++++++++++++++++++++++++++++++++++++++++++#+$+%++++++++++++++++++++++++++++++++++++++++++++++++",
"+++++++++++++++++++++++++++++++++++++++++++++++&+*+=++++++++++++++++++++++++++++++++++++++++++++++++",
"+++++++++++++++++++++++++++++++++++++++++++++-+;+=+>+,++++++++++++++++++++++++++++++++++++++++++++++",
"+++++++++++++++++++++++++++++++++++++++++++++;+=+>+'+)++++++++++++++++++++++++++++++++++++++++++++++",
"+++++++++++++++++++++++++++++++++++++++++++=+!+~+'+)+{+]++++++++++++++++++++++++++++++++++++++++++++",
"+++++++++++++++++++++++++++++++++++++++++++^+~+/+(+{+_+:++++++++++++++++++++++++++++++++++++++++++++",
"+++++++++++++++++++++++++++++++++++++++++++,+<+(+[+_+}+|+1++++++++++++++++++++++++++++++++++++++++++",
"+++++++++++2+++++++++++++++++++++++++++++'+<+(+[+3+}+4+5+6++++++++++++++++++++++++++++++++++++++++++",
"+++++++++++7+8+9+0+++++++++++++++++++++++<+a+[+3+b+1+c+d+e+f+++++++++++++++++++++++++g+h+i++++++++++",
"+++++++++++++9+0+j+k+l+m+++++++++++++++)+a+]+3+|+1+n+d+o+p+q+++++++++++++++++r+s+t+u+v+w++++++++++++",
"+++++++++++++0+x+k+l+y+@+z+*+A+++++++++{+_+:+|+5+n+B+C+D+E+F+G+++++++H+I+J+r+s+t+g+i+K++++++++++++++",
"+++++++++++++++L+l+M+N+$+*+O+^+~+P+)+[+_+}+|+5+6+B+Q+R+S+T+U+V+W+X+Y+Z+J@++s@@+g+i@#@$++++++++++++++",
"++++++++++++++++@%+N+&+*+=+>+,+<+(+[+_+}+4+c+6@&+C@*@=@-@;+V+W@>+Y+I+J@++s@@@,+i@#@$++++++++++++++++",
"+++++++++++++++++#+&+;+!+>+'+<+a+]+3+b+4+c+d@&+p@'@=+T@)@!@~+X@{+I@]@^@/+u@,+w@(@_@:++++++++++++++++",
"+++++++++++++++++++;+!+~+'+)+a+]+3+b+1+c+d+o+p@<@=@[@}@!@|@1@{@2@]@^+t+u+h+K@(@3@4++++++++++++++++++",
"+++++++++++++++++++++~+/+)+{+]+:+|+1+n@5+o+f+S+F+G@}@6@|@1+Z@2+r+s+t+g+h+K@$@3@7@8++++++++++++++++++",
"+++++++++++++++++++++/+(+{+_+}+|+1+n+B+C+R+E+F+G+V@6@9+Y+Z+J+r+s@@+g+i@#@$@:@0@a++++++++++++++++++++",
"+++++++++++++++++++++++[+_+}+4+5+6+B+C@*+S+T+G+V@~@b+H+Z+J@+@/@@@,+i@#@$@:@0@c@d++++++++++++++++++++",
"+++++++++++++++++++++++++}+4+c+6@&+f@'@e+T@;@f+W+X@{+I@]@+@/@@@,+w@(@_@4@0@c@g++++++++++++++++++++++",
"+++++++++++++++++++++++++4+c+d@&+f+q@e@[@}@!+W+X@{@2@]@^+t+u+h+K@(@3@4@a@h@i@j++++++++++++++++++++++",
"+++++++++++++++++++++++++++B@k+R@<+F@[@l@!@|@1@{@2@m@^+t+g+h+w@(@3@7@a@h@j@n++++++++++++++++++++++++",
"+++++++++++++++++++++++++++++D+S+F+G+V@o@b@p+Z+J+r+s+t+g@q+K@$@3@7@r@g@j@s@t++++++++++++++++++++++++",
"+++++++++++++++++++++++++++++E+T+G+V@o@9+Y+Z+J@++s@@@,+i@#@$@:@7@c@g@j@u@v++++++++++++++++++++++++++",
"++++++++++++++++++++++++++++@w@)+V+W+X+Y+I@]@+@/+u@,+w@#@_@:@0@c@g@n@u@x@y++++++++++++++++++++++++++",
"++++++++++++++++++++++++++++@}@!+W+X@{@2@]@^@/+u+h+w@(@_@4@a@c@i@n@t@z@A@B++++++++++++++++++++++++++",
"++++++++++++++++++++++++++@C@f@|@1@{@2@]@^+t+u+h+K@(@3@4@a@h@i@s@t@D@E@F@G++++++++++++++++++++++++++",
"++++++++++++++++++++++++++@~@|+Y+Z@2+r+s+t+g+i+K@$@3@7@r@h@j@u@v@y@E@F@H@I@J++++++++++++++++++++++++",
"++++++++++++++++++++++++@~@b+Y+I+J+r+s@@@,+i@#@$@:@0@r@g@j@u@K@L@B@F@M@I@N@O++++++++++++++++++++++++",
"++++++++++++++++++++++++@b+Y+I+J@+@/@@@,+w@#@_@:@0@c@g@j@u@P@Q@B@F@R@S@T@U@V@W++++++++++++++++++++++",
"++++++++++++++++++++++@1@{+I@]@+@/@@+h+w@(@_@4@a@c@i@n@t@P@Q@X@Y@Z#+#@###$#%#&++++++++++++++++++++++",
"++++++++++++++++++++++@{@2+r@^+t+u+h+w@$@_@4@a@c@i@s@v@D#*#=@H#-#;#>#,#'#)#!#~++++++++++++++++++++++",
"+++++++++++++++++++++Z@2+r@^+t+g+h+K@(@:@7@a@h@j@s@K@y#*#=@H#-#;#{#]#^#)#/#~#(#_++++++++++++++++++++",
"+++++++++++++++++++++J+r+s@@+g+i@#@$@:@7@r@h@j@u@v@y@B@F@M#-#:#>#]@W#<#/#[#(#}#|++++++++++++++++++++",
"++++++++++++++++++@]@++s@@+g+i@#@$@:@0@r@g@j@u@K++++#=#1#+@T@U#$#%#2#3#[#4#5#6#6++++++++++++++++++++",
"++++++++++++++++++@+@/@@@,+w@#@_@:@0@c@g@n@u++++++++++#+@T@U@V#7#2#3#8#4#5#6#6#6#|++++++++++++++++++",
"++++++++++++++++@^@/+u+h+w@(@3@4@a@c@i@n++++++++++++++++++@V#&#!#~#8#_#5#6#6#6#6#6++++++++++++++++++",
"++++++++++++++#9+t+g+h+K@(@3@4@a@h@g++++++++++++++++++++++++++#3#(#_#|#6#|#6#6#6#6#6++++++++++++++++",
"++++++++++++++@@+g+h+K@$@3@7@r@c++++++++++++++++++++++++++++++++++#5#6#6#6#6#6#6#6#6++++++++++++++++",
"++++++++++++#0+g+i@#@$@:@7@a++++++++++++++++++++++++++++++++++++++++++#6#6#6#6#6#6#6++++++++++++++++",
"++++++++++++@,+w@#@_@:@4++++++++++++++++++++++++++++++++++++++++++++++++++#|#6#6#6#6#|++++++++++++++",
"+++++++++++i+w@(@_@3++++++++++++++++++++++++++++++++++++++++++++++++++++++++#a#6#6#6#6++++++++++++++",
"+++++++++++K@#@$++++++++++++++++++++++++++++++++++++++++++++++++++++++++++++++++#|#6#6#|++++++++++++",
"++++++++++@#++++++++++++++++++++++++++++++++++++++++++++++++++++++++++++++++++++++++#a#|++++++++++++",
"++++++++++++++++++++++++++++++++++++++++++++++++++++++++++++++++++++++++++++++++++++++++++++++++++++",
"++++++++++++++++++++++++++++++++++++++++++++++++++++++++++++++++++++++++++++++++++++++++++++++++++++",
"++++++++++++++++++++++++++++++++++++++++++++++++++++++++++++++++++++++++++++++++++++++++++++++++++++",
"++++++++++++++++++++++++++++++++++++++++++++++++++++++++++++++++++++++++++++++++++++++++++++++++++++"};
