/* XPM */
static char * ball_red_xpm[] = {
"50 50 301 2",
"$7 c #50FF60",
"$6 c #84FF8E",
"$5 c #52FF62",
"$4 c #5AFF68",
"$3 c #6CFF79",
"$2 c #75FF82",
"$1 c #4EFF5F",
"$| c #57FF67",
"$} c #65FF73",
"$[ c #6AFF77",
"$< c #6EFF7C",
"$: c #55FF64",
"$_ c #82FF8C",
"$( c #83FF8F",
"$/ c #4EFF5E",
"$^ c #4FFF5F",
"$] c #58FF66",
"${ c #5EFF6D",
"$~ c #7FFF8A",
"$! c #4FFF5E",
"$) c #51FF60",
"$' c #53FF62",
"$, c #7DFF88",
"$> c #52FF60",
"$; c #56FF65",
"$- c #73FF80",
"$= c #7AFF86",
"$* c #A6FFAF",
"$& c #53FF63",
"$% c #55FF65",
"$$ c #68FF75",
"$# c #79FF84",
"$@ c #92FF9B",
"$+ c #56FF66",
"#Z c #58FF67",
"#Y c #5CFF6B",
"#X c #64FF71",
"#W c #66FF73",
"#V c #6AFF78",
"#U c #6CFF7A",
"#T c #7BFF86",
"#S c #81FF8D",
"#R c #ABFFB3",
"#Q c #58FF68",
"#P c #71FF7E",
"#O c #A5FFAC",
"#N c #5AFF69",
"#M c #5DFF6B",
"#L c #63FF71",
"#K c #78FF84",
"#J c #8FFF9A",
"#I c #A4FFAD",
"#H c #5DFF6C",
"#G c #61FF6F",
"#F c #76FF82",
"#E c #8DFF98",
"#D c #96FFA0",
"#C c #B3FFB9",
"#B c #5FFF6D",
"#A c #61FF70",
"#z c #63FF72",
"#y c #78FF85",
"#x c #7FFF8B",
"#w c #87FF91",
"#v c #8CFF95",
"#u c #B2FFBA",
"#t c #62FF70",
"#s c #68FF76",
"#r c #86FF91",
"#q c #9BFFA5",
"#p c #B1FFB7",
"#o c #B6FFBB",
"#n c #64FF72",
"#m c #6BFF79",
"#l c #77FF82",
"#k c #7DFF89",
"#j c #BCFFC1",
"#i c #66FF74",
"#h c #74FF80",
"#g c #76FF83",
"#f c #89FF93",
"#e c #9AFFA2",
"#d c #A2FFAB",
"#c c #69FF76",
"#b c #72FF7E",
"#a c #84FF90",
"#0 c #6BFF78",
"#9 c #6DFF7A",
"#8 c #70FF7C",
"#7 c #85FF8F",
"#6 c #9CFFA4",
"#5 c #ACFFB3",
"#4 c #AEFFB5",
"#3 c #B7FFBE",
"#2 c #BEFFC4",
"#1 c #C3FFC8",
"#| c #6EFF7B",
"#} c #6FFF7C",
"#[ c #82FF8D",
"#< c #84FF8F",
"#: c #8BFF96",
"#_ c #99FFA3",
"#( c #A7FFB0",
"#/ c #A9FFB1",
"#^ c #B0FFB8",
"#] c #C5FFCA",
"#{ c #70FF7D",
"#~ c #72FF7F",
"#! c #A0FFAA",
"#) c #A7FFAF",
"#' c #A9FFB2",
"#, c #BFFFC4",
"#> c #C1FFC6",
"#; c #73FF7F",
"#- c #74FF81",
"#= c #7AFF85",
"#* c #7BFF88",
"#& c #80FF8B",
"#% c #AEFFB6",
"#$ c #BDFFC2",
"## c #C5FFCB",
"#@ c #75FF81",
"#+ c #7BFF87",
"@Z c #89FF95",
"@Y c #8FFF98",
"@X c #90FF9A",
"@W c #A5FFAD",
"@V c #B5FFBC",
"@U c #BCFFC2",
"@T c #77FF83",
"@S c #79FF86",
"@R c #7CFF88",
"@Q c #82FF8E",
"@P c #91FF9A",
"@O c #A0FFA9",
"@N c #AAFFB1",
"@M c #BAFFC0",
"@L c #BCFFC3",
"@K c #79FF85",
"@J c #7EFF89",
"@I c #81FF8C",
"@H c #89FF94",
"@G c #93FF9C",
"@F c #95FF9E",
"@E c #CFFFD3",
"@D c #7CFF87",
"@C c #97FFA1",
"@B c #9EFFA7",
"@A c #A5FFAE",
"@z c #A8FFAF",
"@y c #B3FFBA",
"@x c #BAFFC1",
"@w c #C3FFC9",
"@v c #CAFFCF",
"@u c #D1FFD6",
"@t c #7EFF8A",
"@s c #90FF9B",
"@r c #BBFFC0",
"@q c #80FF8C",
"@p c #87FF92",
"@o c #95FF9F",
"@n c #D0FFD3",
"@m c #83FF8E",
"@l c #8EFF98",
"@k c #A3FFAB",
"@j c #A6FFAD",
"@i c #ACFFB4",
"@h c #B8FFBE",
"@g c #85FF90",
"@f c #88FF92",
"@e c #C8FFCD",
"@d c #CDFFD1",
"@c c #8AFF95",
"@b c #8CFF96",
"@a c #A1FFA9",
"@0 c #CFFFD4",
"@9 c #D6FFDA",
"@8 c #DDFFE1",
"@7 c #88FF93",
"@6 c #8AFF94",
"@5 c #8EFF99",
"@4 c #B4FFBA",
"@3 c #B6FFBC",
"@2 c #C1FFC7",
"@1 c #C6FFCB",
"@| c #DBFFDE",
"@} c #DDFFE0",
"@[ c #E0FFE2",
"@< c #8BFF95",
"@: c #8CFF97",
"@_ c #9CFFA5",
"@( c #A3FFAC",
"@/ c #AFFFB6",
"@^ c #B1FFB8",
"@] c #B8FFBF",
"@{ c #8DFF97",
"@~ c #9FFFA7",
"@! c #B1FFB9",
"@) c #DEFFE0",
"@' c #8FFF99",
"@, c #91FF9B",
"@> c #94FF9D",
"@; c #C6FFCC",
"@- c #92FF9C",
"@= c #93FF9D",
"@* c #99FFA1",
"@& c #9AFFA3",
"@% c #AFFFB7",
"@$ c #B2FFB8",
"@# c #DBFFDF",
"@@ c #E2FFE5",
"@+ c #94FF9E",
"+Z c #96FF9F",
"+Y c #98FFA2",
"+X c #9DFFA5",
"+W c #B0FFB6",
"+V c #D9FFDC",
"+U c #97FFA0",
"+T c #98FFA1",
"+S c #9BFFA3",
"+R c #C0FFC5",
"+Q c #D4FFD8",
"+P c #E9FFEB",
"+O c #ECFFED",
"+N c #99FFA2",
"+M c #9AFFA4",
"+L c #ADFFB4",
"+K c #C3FFC7",
"+J c #CCFFD0",
"+I c #D3FFD6",
"+H c #D7FFDA",
"+G c #D9FFDD",
"+F c #E3FFE6",
"+E c #E5FFE7",
"+D c #E7FFE9",
"+C c #EAFFEC",
"+B c #ECFFEE",
"+A c #EEFFF0",
"+z c #F1FFF2",
"+y c #F3FFF4",
"+x c #9BFFA4",
"+w c #9DFFA6",
"+v c #ACFFB2",
"+u c #B6FFBD",
"+t c #B9FFC0",
"+s c #BBFFC1",
"+r c #BDFFC3",
"+q c #C0FFC6",
"+p c #C2FFC8",
"+o c #C4FFCA",
"+n c #C7FFCC",
"+m c #C9FFCE",
"+l c #CBFFD0",
"+k c #CEFFD2",
"+j c #D0FFD5",
"+i c #D5FFD8",
"+h c #D7FFDB",
"+g c #DAFFDD",
"+f c #DCFFDF",
"+e c #DEFFE1",
"+d c #E0FFE3",
"+c c #E3FFE5",
"+b c #E5FFE8",
"+a c #E7FFEA",
"+0 c #EAFFEB",
"+9 c #EBFFED",
"+8 c #EEFFEF",
"+7 c #F0FFF2",
"+6 c #F3FFF3",
"+5 c #F5FFF6",
"+4 c #9EFFA6",
"+3 c #9FFFA8",
"+2 c #A2FFAA",
"+1 c #A4FFAC",
"+| c #A9FFB0",
"+} c #ABFFB2",
"+[ c #ADFFB5",
"+< c #B0FFB7",
"+: c #B2FFB9",
"+_ c #B4FFBB",
"+( c #B7FFBD",
"+/ c #B9FFBF",
"+^ c #BBFFC2",
"+] c #BEFFC3",
"+{ c #BFFFC5",
"+~ c #C2FFC7",
"+! c #C4FFC9",
"+) c #C7FFCB",
"+' c #C9FFCD",
"+, c #CBFFCF",
"+> c #CDFFD2",
"+; c #D0FFD4",
"+- c #D2FFD6",
"+= c #D4FFD7",
"+* c #A0FFA8",
"+& c #A1FFAA",
"+% c #A4FFAB",
"+$ c #A6FFAE",
"+# c #A8FFB0",
"+@ c #AAFFB2",
"++ c None",
"++++++++++++++++++++++++++++++++++++++++++++++++++++++++++++++++++++++++++++++++++++++++++++++++++++",
"++++++++++++++++++++++++++++++++++++++++++++++++++++++++++++++++++++++++++++++++++++++++++++++++++++",
"++++++++++++++++++++++++++++++++++++++++++++++++++++++++++++++++++++++++++++++++++++++++++++++++++++",
"+++++++++++++++++++++++++++++++++++++++++++++++++++++++++++++++++++++++++++++++@+#+$+%+&+*++++++++++",
"+++++++++++++++++++++++++++++++++++++++++=+-+;+>+,+'+)+!+~+{+]+^+/+(+_+:+<+[+}+|+$+1+2+3+4++++++++++",
"+++++++++++5+6+7+8+9+0+a+b+c+d+e+f+g+h+i+-+j+k+l+m+n+o+p+q+r+s+t+u+_+:+<+[+v+#+$+1+&+3+w+x++++++++++",
"+++++++++++y+z+A+B+C+D+E+F+d+e+f+G+H+i+I+;+k+J+m+n+o+K+q+]+s+/+u+_+:+<+L+}+|+$+1+2+*+w+M+N++++++++++",
"+++++++++++z+A+O+P+a+E+c+d+e+f+G+h+Q+I+;+>+J+m+n+!+~+R+r+s+/+u+_+:+<+L+}+#+$+1+2+3+w+S+T+U++++++++++",
"+++++++++++A+O+P+D+E+c+d+e+f+V+H+Q+-+;+k+l+m+n+o+~+R+r+s+/+(+_+:+W+L+}+#+$+1+2+3+X+x+Y+Z@+++++++++++",
"+++++++++++B+P+D+E@@+d+e@#+V+H+Q+-+;+k+l+m+)+o+~+{+r+s+/+u+_@$@%+[+}+#+$+1+&+3+w@&@*+Z@=@-++++++++++",
"+++++++++++P+D+E+c+d+e@#+V+h+Q+-+;+k+l+m@;+!+~+R+r+s+/+u+_+:+W+L+}+#+$+1+&+3+X+x+T+Z@>@,@'++++++++++",
"+++++++++++D+E@@+d@)+f+V+H+Q+-+;+k+l+m@;+!+~+R+r+s+/+u+_@!+W+L+@+#+$+1+&@~+w@&+T+Z@>@,@'@{++++++++++",
"+++++++++++E@@+d+e@#+V+H+Q+-+;+k+l+m+)+!+p+{+r+s@]+u+_@^@/+L+@+#+$@(+&+3@_@&+T+Z@=@,@'@:@<++++++++++",
"++++++++++@@@[@}@|+V+H+Q+-+;+>+l+'@1+!@2+{+r+s+/@3@4@$@/+L+@+#+$@(+&+3+X@&+T+Z@>@,@5@:@6@7++++++++++",
"+++++++++++d@8@|+G@9+Q+-@0+>+l+'@1+!+~+{+r+s+/@3+_@!@/+L+@+#+$+1@a+3+X@&+T+Z@=@,@5@b@c@7++++++++++++",
"++++++++++@}@|+V@9+Q+-@0@d+,@e@1+!@2+{+r+s@]@3+_@^@%+L+@+#+$@(+&+3+X@&+T+Z@=@,@5@b@6@f@g++++++++++++",
"++++++++++@|+V@9+Q+-@0@d+,+'@1+!+~+{+r+s@h@3@4@$@/@i+@+#@j@k@a@~@_@&+T+Z@=@,@l@:@6@f@g@m++++++++++++",
"+++++++++++V@9+Q+-@n+>+,@e@1+!@2+{+r+s@h+u@4@^@/@i+}+#@j@k@a+3@_@&+T@o@=@,@5@:@6@p@g@m@q++++++++++++",
"++++++++++@9+Q+-+;@d+,@e@1+!@2+{+r@r@h@3@4@^@/+L+@+#+$@(@a@~@_@&+T@o@=@s@l@b@6@p@g@m@q@t++++++++++++",
"+++++++++++Q@u@0+>@v@e@1@w@2+{+r@x@h@3@y@^@/@i+@@z@A@k@a@B@_@&@C+Z@=@,@l@b@6@p@g@m@q@t@D++++++++++++",
"+++++++++++-@E@d@v@e@1+!@2+{+r+s@h@3@y@^@/@i+@@z+$@(@a@B@_@&@C@F@G@s@l@b@H@p@g@m@I@J@D@K++++++++++++",
"++++++++++@E@d@v@e@1@w@2+{@L@M@h+u@y@^@/@i@N+#@j+%@O@B@_@&+T@o@=@P@l@b@H@p@g@Q@q@t@R@S@T++++++++++++",
"++++++++++@d+,@e@1@w@2+{@U@M@h@V@y@^@/@i+@+#@W@k@a@B@_@&+U@o@G@X@Y@b@Z@p@g@Q@q@J#+@K@T#@++++++++++++",
"++++++++++@v@e##@w@2+{#$@x@h@V@y@^#%@i@N@z@W@k@O@B@_@&+U@F@G@X@l@b@H@p@g@Q#&@J#*#=@T#-#;++++++++++++",
"++++++++++@e##@w#>#,@U@M@h@V@y@^#%@i#'#)@W@k#!@B@_@&+T@F@G@P@l@b@H@p@g@m@q@J#*@K@T#-#~#{++++++++++++",
"++++++++++#]@w@2#,@U@M@h@3@y#^#%@i#/#(@W@k@a@B@_#_+U@o@-@X@l#:@H@p#<#[#&@J#+@K@T#-#~#}#|++++++++++++",
"++++++++++#1#>#2@U@M#3@V@y#^#4#5@N#(@W@k@O@B#6@&+U@F@-@X@l#:@H@p#7#[#&@J#+@K@T#@#~#8#9#0++++++++++++",
"+++++++++++R#,@U@M#3@V@y@^#4@i@N#)@W@k@a@B@_+N+U@o@G@X@l#:@H@p#a#[#&@J#+@K@T#-#b#8#9#0#c++++++++++++",
"+++++++++++]@U@M#3@V@y@^#4#5#/#)@W#d@O+4#6#e+U@F@-@X@l#:#f@p#<#[@q@J#+@K#g#h#b#}#9#0#c#i++++++++++++",
"++++++++++#j+t#3@V@y#^#4#5@N#)@W@k@O@B#6#_+U@F@-@X@l#:@H@p#<#[#&#k#+@K#l#h#b#}#9#m#c#i#n++++++++++++",
"+++++++++++t#3#o@y#p#%#5#/#)@W@k@O@B#q+N+U@F@-@X@l#:@H#r#<#[#&#k#+@K#g#-#b#}#9#0#s#i#n#t++++++++++++",
"+++++++++++u@V#u+<#4#5#/#)@W+2@O+4+x+N+U@+@-@X@l#v#f#w#a#[#x#k#+#y#g#h#b#}#9#0#s#i#z#A#B++++++++++++",
"+++++++++++_#C+<#4#5@N#)@W#d@O+4+x+N#D@+@-@X#E@<#f#w#<#[#&#k#+#y#F#-#b#}#9#0#s#i#z#G#B#H++++++++++++",
"+++++++++++:+<#4#5@N#)#I#d@O+4#6+N+U@F@-#J#E#:#f#r#<@Q#x#k#+#K#F#h#b#}#9#0#s#i#L#G#B#M#N++++++++++++",
"+++++++++++W#4#5#/#)#O#d+*+4+x+N+U@+@-@X@{@<@7#r#<#[#x#k#+#y#g#-#P#}#9#0#s#i#L#G#B#M#N#Q++++++++++++",
"+++++++++++L#R#/#)+1+2+*+w+x+N+U@+@-#J@{@<#f#r#<#S#x#k#T#K#F#h#P#}#U#V#s#W#X#G#B#Y#N#Z$+++++++++++++",
"+++++++++++}#/#)+1+2+*@B+x+N#D@+$@@X@{@<@7#r#<#[#x#k#+$##F#h#P#}#9#V$$#i#L#G#B#M#N#Z$%$&++++++++++++",
"+++++++++++#$*+1+2+*+w+x+N#D@+$@@'@{@<#f#r#<#[#&#k$=#K#F$-#P#}#9#V$$#W#L#G#B#Y#N#Z$;$&$>++++++++++++",
"+++++++++++$+1+2+*+w+x+N#D@+$@#J@{@<#f#r#<#S#x$,$=#K#F#h#P#}#9#V$$#W#L#G#B#Y#N#Z$;$'$)$!++++++++++++",
"++++++++++@(+2+*+w+x+N#D@>@-#J@{@<@7#r#<#S$~@R$=#K#F$-#P#}#U#V#s#W#L#G${#Y#N$]$%$&$)$^$/++++++++++++",
"+++++++++++2+*+w+x+Y#D@>@,@'@{@<@7#r$($_#x$,$=#K#F$-#P#}#9#V$$#W#L#G${#Y#N$]$:$'$)$/$/$!++++++++++++",
"++++++++++@~+w+x+Y+Z@>@,#J@{@<@7#r#<#S$~$,$=#K#F#h#P$<#9$[#s$}#L#G#B#Y#N$|$:$'$)$!$1$!$!++++++++++++",
"++++++++++@_+x+N#D@+$@@'@{@c@7#r@m@I$~@R$=#K$2$-#P#}$3$[$$$}#L#G#B#Y$4$]$:$5$)$/$/$/$/$/++++++++++++",
"+++++++++++x+N+U@+$@@X@l@<@7#w$6@I$~$,$=#K$2$-#P#|$3$[$$$}#L#G${#Y#N$|$;$'$7$^$/$/$/$/$/++++++++++++",
"++++++++++++++++++++++++++++++++++++++++++++++++++++++++++++++++++++$;$&$)$^$/$/$/$!$!$/++++++++++++",
"++++++++++++++++++++++++++++++++++++++++++++++++++++++++++++++++++++++++++++++++++++++++++++++++++++",
"++++++++++++++++++++++++++++++++++++++++++++++++++++++++++++++++++++++++++++++++++++++++++++++++++++",
"++++++++++++++++++++++++++++++++++++++++++++++++++++++++++++++++++++++++++++++++++++++++++++++++++++",
"++++++++++++++++++++++++++++++++++++++++++++++++++++++++++++++++++++++++++++++++++++++++++++++++++++",
"++++++++++++++++++++++++++++++++++++++++++++++++++++++++++++++++++++++++++++++++++++++++++++++++++++"};
