/* XPM */
static char * ball_red_xpm[] = {
"50 50 332 2",
"$B c #51FF60",
"$A c #8CFF95",
"$z c #53FF63",
"$y c #4EFF5F",
"$x c #5BFF69",
"$w c #91FF9A",
"$v c #58FF68",
"$u c #5FFF6E",
"$t c #4FFF5F",
"$s c #56FF65",
"$r c #59FF67",
"$q c #77FF84",
"$p c #51FF61",
"$o c #54FF63",
"$n c #56FF66",
"$m c #5DFF6C",
"$l c #4FFF5E",
"$k c #52FF61",
"$j c #54FF64",
"$i c #5BFF6A",
"$h c #63FF70",
"$g c #60FF6E",
"$f c #6EFF7C",
"$e c #70FF7E",
"$d c #4EFF5E",
"$c c #50FF5F",
"$b c #52FF62",
"$a c #59FF69",
"$0 c #5EFF6C",
"$9 c #50FF60",
"$8 c #59FF68",
"$7 c #5CFF6A",
"$6 c #65FF73",
"$5 c #53FF62",
"$4 c #55FF64",
"$3 c #57FF66",
"$2 c #5AFF68",
"$1 c #5EFF6D",
"$| c #6CFF7A",
"$} c #76FF83",
"$[ c #55FF65",
"$< c #57FF67",
"$: c #61FF6F",
"$_ c #63FF71",
"$( c #65FF74",
"$/ c #68FF75",
"$^ c #79FF84",
"$] c #6EFF7A",
"${ c #58FF67",
"$~ c #5CFF6B",
"$! c #63FF72",
"$) c #6AFF78",
"$' c #5AFF69",
"$, c #61FF70",
"$> c #68FF76",
"$; c #72FF7E",
"$- c #74FF80",
"$= c #85FF8F",
"$* c #5DFF6B",
"$& c #6BFF78",
"$% c #6FFF7D",
"$$ c #8FFF98",
"$# c #5FFF6D",
"$@ c #6DFF7A",
"$+ c #7BFF88",
"#Z c #7EFF89",
"#Y c #B2FFB8",
"#X c #6FFF7C",
"#W c #62FF70",
"#V c #64FF72",
"#U c #66FF74",
"#T c #69FF76",
"#S c #6BFF79",
"#R c #6DFF7B",
"#Q c #72FF7F",
"#P c #74FF81",
"#O c #70FF7C",
"#N c #65FF72",
"#M c #67FF74",
"#L c #79FF86",
"#K c #9DFFA5",
"#J c #67FF75",
"#I c #69FF77",
"#H c #73FF7F",
"#G c #78FF83",
"#F c #85FF91",
"#E c #BBFFC2",
"#D c #6AFF77",
"#C c #6EFF7B",
"#B c #70FF7D",
"#A c #75FF82",
"#z c #92FF9B",
"#y c #75FF81",
"#x c #6CFF79",
"#w c #71FF7D",
"#v c #7CFF88",
"#u c #7FFF8A",
"#t c #83FF8F",
"#s c #88FF93",
"#r c #B2FFBA",
"#q c #77FF83",
"#p c #6FFF7B",
"#o c #7CFF89",
"#n c #84FF8E",
"#m c #9BFFA5",
"#l c #B0FFB8",
"#k c #C4FFC8",
"#j c #7AFF85",
"#i c #71FF7E",
"#h c #78FF84",
"#g c #7AFF86",
"#f c #7DFF88",
"#e c #88FF94",
"#d c #8DFF98",
"#c c #90FF99",
"#b c #7CFF87",
"#a c #73FF80",
"#0 c #7BFF86",
"#9 c #86FF91",
"#8 c #7FFF8B",
"#7 c #76FF82",
"#6 c #78FF85",
"#5 c #89FF93",
"#4 c #81FF8D",
"#3 c #79FF85",
"#2 c #87FF91",
"#1 c #84FF90",
"#| c #7BFF87",
"#} c #7DFF89",
"#[ c #80FF8B",
"#< c #82FF8D",
"#: c #84FF8F",
"#_ c #89FF94",
"#( c #8BFF96",
"#/ c #7EFF8A",
"#^ c #80FF8C",
"#] c #82FF8E",
"#{ c #C6FFCC",
"#~ c #D2FFD7",
"#! c #81FF8C",
"#) c #87FF93",
"#' c #8CFF96",
"#, c #90FF9B",
"#> c #9FFFA7",
"#; c #A4FFAB",
"#- c #BDFFC4",
"#= c #C0FFC5",
"#* c #C4FFCA",
"#& c #83FF8E",
"#% c #93FF9D",
"#$ c #95FF9F",
"## c #9AFFA3",
"#@ c #9CFFA6",
"#+ c #A1FFAA",
"@Z c #A3FFAC",
"@Y c #B4FFBB",
"@X c #BEFFC3",
"@W c #C2FFC8",
"@V c #CEFFD2",
"@U c #D0FFD5",
"@T c #90FF9A",
"@S c #85FF90",
"@R c #87FF92",
"@Q c #8AFF94",
"@P c #8DFF96",
"@O c #8EFF99",
"@N c #9AFFA4",
"@M c #A9FFB0",
"@L c #ABFFB2",
"@K c #ADFFB5",
"@J c #BCFFC1",
"@I c #CCFFD0",
"@H c #D5FFDA",
"@G c #93FF9C",
"@F c #88FF92",
"@E c #8CFF97",
"@D c #98FFA1",
"@C c #A6FFAE",
"@B c #C0FFC6",
"@A c #C7FFCC",
"@z c #CEFFD3",
"@y c #D4FFD7",
"@x c #D6FFD9",
"@w c #DCFFE0",
"@v c #8AFF95",
"@u c #91FF9B",
"@t c #94FF9D",
"@s c #A4FFAC",
"@r c #B7FFBD",
"@q c #B9FFC0",
"@p c #C5FFCA",
"@o c #CAFFCE",
"@n c #CCFFD1",
"@m c #DAFFDE",
"@l c #8BFF95",
"@k c #8DFF97",
"@j c #8FFF99",
"@i c #96FFA0",
"@h c #98FFA2",
"@g c #A4FFAD",
"@f c #ABFFB3",
"@e c #B5FFBB",
"@d c #C3FFC8",
"@c c #D1FFD5",
"@b c #D3FFD7",
"@a c #8EFF98",
"@0 c #8FFF9A",
"@9 c #9DFFA6",
"@8 c #A0FFA8",
"@7 c #B0FFB7",
"@6 c #B3FFB9",
"@5 c #BEFFC4",
"@4 c #C5FFCB",
"@3 c #CFFFD3",
"@2 c #DDFFE0",
"@1 c #E2FFE4",
"@| c #96FF9F",
"@} c #92FF9C",
"@[ c #95FF9E",
"@< c #9CFFA4",
"@: c #A2FFAB",
"@_ c #A9FFB1",
"@( c #B5FFBC",
"@/ c #B7FFBE",
"@^ c #BDFFC2",
"@] c #C1FFC6",
"@{ c #CAFFCF",
"@~ c #E0FFE2",
"@! c #E6FFE7",
"@) c #9EFFA6",
"@' c #94FF9E",
"@, c #97FFA0",
"@> c #99FFA3",
"@; c #9BFFA4",
"@- c #A8FFAF",
"@= c #AAFFB1",
"@* c #BFFFC4",
"@& c #C3FFC9",
"@% c #C8FFCE",
"@$ c #D1FFD6",
"@# c #DDFFE1",
"@@ c #E4FFE7",
"@+ c #97FFA1",
"+Z c #99FFA2",
"+Y c #9CFFA5",
"+X c #9EFFA7",
"+W c #A1FFA9",
"+V c #A5FFAD",
"+U c #A7FFAF",
"+T c #AEFFB6",
"+S c #BAFFC0",
"+R c #BCFFC3",
"+Q c #CFFFD4",
"+P c #D6FFDA",
"+O c #D9FFDC",
"+N c #DEFFE0",
"+M c #A5FFAC",
"+L c #9FFFA8",
"+K c #A0FFA9",
"+J c #A2FFAA",
"+I c #A3FFAB",
"+H c #A5FFAE",
"+G c #AAFFB2",
"+F c #B1FFB8",
"+E c #B3FFBA",
"+D c #B8FFBE",
"+C c #C9FFCD",
"+B c #D4FFD8",
"+A c #D7FFDB",
"+z c #DBFFDF",
"+y c #E2FFE5",
"+x c #E5FFE8",
"+w c #E7FFEA",
"+v c #E9FFEB",
"+u c #ECFFED",
"+t c #A7FFAE",
"+s c #A8FFB0",
"+r c #ACFFB3",
"+q c #ADFFB4",
"+p c #AEFFB5",
"+o c #B6FFBC",
"+n c #B8FFBF",
"+m c #BBFFC1",
"+l c #BFFFC5",
"+k c #C2FFC7",
"+j c #C6FFCB",
"+i c #C9FFCE",
"+h c #CBFFD0",
"+g c #D3FFD6",
"+f c #D5FFD8",
"+e c #D9FFDD",
"+d c #E0FFE3",
"+c c #EAFFEB",
"+b c #ACFFB4",
"+a c #B2FFB9",
"+0 c #C1FFC7",
"+9 c #B9FFBF",
"+8 c #BDFFC3",
"+7 c #C4FFC9",
"+6 c #CBFFCF",
"+5 c #CDFFD2",
"+4 c #D5FFD9",
"+3 c #D8FFDB",
"+2 c #DAFFDD",
"+1 c #DCFFDF",
"+| c #DEFFE1",
"+} c #E1FFE3",
"+[ c #E3FFE5",
"+< c #E5FFE7",
"+: c #E8FFEA",
"+_ c #EAFFEC",
"+( c #EEFFF0",
"+/ c #F3FFF4",
"+^ c #AFFFB6",
"+] c #B4FFBA",
"+{ c #BCFFC2",
"+~ c #C8FFCD",
"+! c #D7FFDA",
"+) c #DBFFDE",
"+' c #D0FFD4",
"+, c #CDFFD1",
"+> c #D2FFD6",
"+; c #D8FFDC",
"+- c #DFFFE2",
"+= c #E7FFE9",
"+* c #ECFFEE",
"+& c #EFFFF0",
"+% c #F1FFF3",
"+$ c #F4FFF5",
"+# c #F1FFF2",
"+@ c #B6FFBD",
"++ c None",
"++++++++++++++++++++++++++++++++++++++++++++++++++++++++++++++++++++++++++++++++++++++++++++++++++++",
"++++++++++++++++++++++++++++++++++++++++++++++++++++++++++++++++++++++++++++++++++++++++++++++++++++",
"++++++++++++++++++++++++++++++++++++++++++++++++++++++++++++++++++++++++++++++++++++++++++++++++++++",
"+++++++++++++++@+#+$+%+&+*+=+-+;+>+,+'+)+!+~+{+]+^++++++++++++++++++++++++++++++++++++++++++++++++++",
"+++++++++++++++++/+#+(+*+_+:+<+[+}+|+1+2+3+4+>+'+5+6+7+8+9+0+{+a+b++++++++++++++++++++++++++++++++++",
"+++++++++++++++++#+&+*+c+=+<+[+d+|+1+e+!+f+g+'+5+h+i+j+7+k+l+8+m+n+o+a+p+q+r+s+t++++++++++++++++++++",
"+++++++++++++++++&+u+v+w+x+y+d+|+z+e+A+B+>+'+5+h+C+j+7+0+l+8+m+D+o+E+F+^+b+G+s+H+I+J+K+L+M++++++++++",
"+++++++++++++++++v+v+=+<+y+d+N+)+O+P+B+>+Q+5+6+C+j+7+0+l+R+S+n+o+E+F+T+r+G+U+V+I+W+X+Y+Z@++I++++++++",
"+++++++++++++++++<+=@@+y+d@#+z+O+P+B@$+Q+,+6@%+j@&+0@*+{+S+D+o+E+F+T+b@=@-+V+I+K+X@;@>@,@'@)++++++++",
"++++++++++++++++@!@@+y@~+N+)+O+P+B@$+Q+,@{+~+j@&@]@*@^+S@/@(+E+F+p+r@_+U+V@:+K+X@<+Z@,@[@}@|++++++++",
"++++++++++++++++@@@1@~@2+)+;+P+B+>@3+,@{+~@4@&+0@5+{+S+D@(@6@7+p+r@_+U+V+J@8@9@;+Z@,@'@}@0@a++++++++",
"+++++++++++++++++y+-@2+)+;+P@b@c@3+,@{+~@4@d@]@5+{+S@/@e+a@7+p@f@_+U@g+J@8@9@;@h@i@'@}@j@k@l++++++++",
"+++++++++++++++++-@2@m+;+P@b@c@3@n@o+~@p@d@]@5+{@q@r@e+a@7+p@f@_+U@s+J@8@9@;@h@i@t@u@j@k@v@u++++++++",
"++++++++++++++++@w@m+;@x@y@c@z@n@o@A@p@d@B@5+{+9@r@e+a@7+p@f@_@C@s+J+L@9@;@D@|@t@u@j@E@v@F@G++++++++",
"+++++++++++++++a+2+3@H@b@c@3@I+i@A@p@d@B@5@J+9@r@e+a@7@K@L@M@C@s+J+L@9@N@h@|@t@u@O@P@Q@R@S@T++++++++",
"++++++++++++++@(+3+4@b@U@V@I+i@A@p@W@B@X@J@q+@@Y+a@7+q@f+s@C@Z#++L#@##@D#$#%@u@O@E@Q@R@S#&@k++++++++",
"+++++++++++++++9+4+g+'@V@I+i@A#*@W#=#-+m+9+@@Y+a+^@K@L+s@C#;+J#>+Y##@D#$#%#,@O#'@Q#)@S#&#!@Q++++++++",
"++++++++++++++@X#~@U@z@I+i#{+7+k#=+8+m+n+@@Y+F+^+q+G+s@C+I#+#>+Y##@+#$#%@T@O#'@Q@R@S#]#^#/@R++++++++",
"+++++++++++++++k+'@V+h+i#{+7+k+l+8+m+n+@+]+F+^+q+G+s+V+I+W#>+Y@>@+@[@G@T@a#(#_@R#:#<#[#}#|#1++++++++",
"+++++++++++++++~+5+h+C+j+7+k+l+8+m+D+o+]+F+^+b+G+s+H+I+K+X+Y@>@+@[@}@T@a#'#_#2#1#]#[#}#|#3#4++++++++",
"++++++++++++++@I+h+~+j+7+0+l@^+S+D+o+E+F+^+b+G+s+V+I+K+X@<+Z@,@[@}@T@a#(#5@R#:#<#[#}#|#6#7#8++++++++",
"++++++++++++++@{+~+j@&+0+l+8+S+D@(+E+F+T+b+G+U+V+I+W+X@;+Z@,@[@}@T@a@l#5#9#:#<#8#}#0#6#7#a#b++++++++",
"+++++++++++++++l@4@&@]+l+{+S@/@(+E+F+p+r@_+U@g+I+K@)@;+Z@,@'@}#c#d@l#e#9#:#4#8#f#g#h#7#a#i#j++++++++",
"+++++++++++++++S#k+0@*+{+S+D@(@6#l+p+r@_+U+V@:@8@)#m+Z@,@'@}#c@k@l#5#9#n#4#8#o#g#h#7#a#i#p#q++++++++",
"+++++++++++++++S@]@5+{+S+D@(#r#l+p+r@=+U@g+J+L@9@;+Z@i@t@}@T@k@l#s#9#t#!#u#v#g#h#7#a#w#p#x#y++++++++",
"+++++++++++++++S@5+{@q@/@e+a@7+p@f@_+U+V+J@8@)@;@h@i@t#z@j@k@v#s#9#&#!#/#v#g#h#A#a#B#C#x#D#a++++++++",
"+++++++++++++++S#E@q@r@e+a@7+p@f@M+U@s+J+L@9@;+Z@|@t@u@j@E@v#s#F#&#!#u#v#g#G#A#H#B#C#x#I#J#i++++++++",
"+++++++++++++++S+9@/@e+a@7+q@f@M@C@s#++L#K@N@D@|@t@u@j@E@v#s@S#&#!#/#v#L#q#y#H#B#C#x#I#M#N#O++++++++",
"+++++++++++++++9+@@Y+a@7+q@L@M@C@s#++L#K##@D#$#%@u@j@E@Q@F@S#&#^#/#v#3#q#P#Q#B#R#S#T#U#V#W#X++++++++",
"+++++++++++++++@@Y#Y+^@K+G+s@C@s#+#>#K##@D#$#%@u@a#'@Q@R@S#&#[#Z$+#3#q#P#Q#B$@#S#I#U#V#W$##C++++++++",
"+++++++++++++G@Y+F+^+q@L+s@C@Z+W#>+Y##@D#$#%#,$$#'#_@R@S#&#^#Z#|#3#q#P#Q$%$@$&#T#U#V#W$#$*$@++++++++",
"++++++++++++@L+F+^+q+G+s+V+I+W#>+Y##@D@[#%@T@a#'@Q@R$=#<#[#}#|#3#q$-$;#O$@$&$>#U#V$,$#$*$'$@++++++++",
"++++++++++++@f+^+b+G@-+V+I+W+X+Y@>@+@[@}@T@a#(#_@R#1#<#^#}#|#3#7#P#i#O$@$)$>#U$!$,$#$~$'${$]++++++++",
"+++++++++++++r+b+G@-+V+I+W+X+Y+Z@,@'@G@T@a#(#5@R$=#]#^#}#|$^#7$-$;#X$@$)$/$($_$:$#$~$'$<$[#C++++++++",
"+++++++++++++G@=@-+V+I+K@)#m+Z@,@[@}@T#d@l#s#9#:#<#[#}#0#6$}$-#i#X$|$)$/$($_$:$1$~$2$3$4$5#p++++++++",
"++++++++++++@M+U+V+I+W@)@;+Z@,@'@}#c#d@l#5#9#:#<#8#}#g#6#7#a#i#X#x#D$/$6$_$:$1$7$8$3$4$5$9#X++++++++",
"+++++++++++++t+V@:+K@)@;+Z@,@[@}@0@k@l#s#9#:#4#u#f#g#h#7$-#i#C#x#D#J$6$_$:$0$7$a$3$4$b$c$d$;++++++++",
"++++++++++++@s+J+L@9@;+Z@i@'@}@j#d@l#s#9#:#!#8#v#g#h#A#a$e$f#x#D#J$6$_$g$1$7$8$3$4$b$c$d$d$d++++++++",
"++++++++++++@s@8@9@;@h@i@'#z@j@k@l#s#9#:#!#u#v#g#h#A#H#w#C#x#I#J$6$h$g$0$i$2$3$j$k$c$d$d$l$d++++++++",
"+++++++++++++J@9@N@h@i@t@u@j@E@v#s#F#&#!#u#v#g#h#y#a#B#C#x#I#J#V#W$g$m$i$8$n$o$p$c$l$d$d$d$p++++++++",
"+++++++++++++K@;@h@|@t@u@j@k@Q@F@S#&#!#/#v#g$q#y#H#B#C#x#I#M#V#W$g$m$i$r$s$o$p$t$d$d$d$d$d#W++++++++",
"++++++++++++@)@D@|#%@u@O@E@v@F@S#&#^#/#v#j#q#y#Q#B#C$&#I#M#V#W$u$m$i$v$s$o$k$t$d$d$d$d$d$d#a++++++++",
"+++++++++++++Y@|#%$w@a@E@Q@R@S#&#^#/#b#3#q#y#Q#B#R$&#T#M#V#W$g$m$x${$s$o$p$t$d$d$l$y$d$d$d@S++++++++",
"++++++++++++###%@T@a@E#_@R@S#&#[#Z#b#3#q#P#Q#B#R$&$>#U#V$,$#$*$'${$s$z$p$t$l$d$d$d$l$d$d$d#%++++++++",
"+++++++++++++Y@u@j#'@Q@F@S#]#!@a$A@R#<#v#P#X$@$&$>#U$!#W$#$*$x${$s$z$B$t$d$d$d$d$d$d$d$d$k++++++++++",
"++++++++++++++++++++++++++++++++++++++++++++++@D@j#:#P$_$m#p#a#x#V$8$l$d$d$d$d$d$d$l$l$d$&++++++++++",
"++++++++++++++++++++++++++++++++++++++++++++++++++++++++++++++++++++++++@[@j@F#^#0#H#|#&@|++++++++++",
"++++++++++++++++++++++++++++++++++++++++++++++++++++++++++++++++++++++++++++++++++++++++++++++++++++",
"++++++++++++++++++++++++++++++++++++++++++++++++++++++++++++++++++++++++++++++++++++++++++++++++++++",
"++++++++++++++++++++++++++++++++++++++++++++++++++++++++++++++++++++++++++++++++++++++++++++++++++++"};
