/* XPM */
static char * ball_red_xpm[] = {
"50 50 249 2",
"#H c #F8F68D",
"#G c #F7F697",
"#F c #F2EE43",
"#E c #F7F58D",
"#D c #F9F8A3",
"#C c #F3EF42",
"#B c #F9F6A1",
"#A c #F7F585",
"#z c #F8F8A4",
"#y c #F9F8A7",
"#x c #F7F57C",
"#w c #FAF8AB",
"#v c #F6F57B",
"#u c #F9F8A4",
"#t c #F9F8AD",
"#s c #F3F148",
"#r c #F6F16B",
"#q c #F5F476",
"#p c #F6F586",
"#o c #F7F68B",
"#n c #F8F69A",
"#m c #F9F8A9",
"#l c #F4F152",
"#k c #F4F058",
"#j c #F5F26C",
"#i c #F7F581",
"#h c #F9F79F",
"#g c #FAF9B2",
"#f c #F2F049",
"#e c #F4F15D",
"#d c #F5F266",
"#c c #F9F7A4",
"#b c #FAF8B3",
"#a c #F5F367",
"#0 c #F5F371",
"#9 c #F7F481",
"#8 c #F8F79A",
"#7 c #F8F7A5",
"#6 c #FAF8B6",
"#5 c #F3F153",
"#4 c #F8F690",
"#3 c #F7F696",
"#2 c #F8F79F",
"#1 c #FBFABB",
"#| c #F2F041",
"#} c #F3F041",
"#[ c #F2EF44",
"#< c #F3F14F",
"#: c #F4F158",
"#_ c #FAF8AF",
"#( c #FAFABD",
"#/ c #F2EE44",
"#^ c #F4F153",
"#] c #F3F158",
"#{ c #F5F262",
"#~ c #F7F58B",
"#! c #FAF8AA",
"#) c #F9F8AF",
"#' c #FAF8B4",
"#, c #FAF9B9",
"#> c #FBFABC",
"#; c #F2EF42",
"#- c #F2EF41",
"#= c #F3F04A",
"#* c #F4F262",
"#& c #F8F591",
"#% c #F8F695",
"#$ c #FBFAC1",
"## c #F2F043",
"#@ c #F2F044",
"#+ c #F3F14E",
"@Z c #F4F154",
"@Y c #F6F372",
"@X c #F6F481",
"@W c #FBFABE",
"@V c #F3F049",
"@U c #F3F04F",
"@T c #F3F159",
"@S c #F4F363",
"@R c #F6F36D",
"@Q c #F7F586",
"@P c #FAF9AF",
"@O c #FBF9C5",
"@N c #F3F04E",
"@M c #F6F581",
"@L c #F7F690",
"@K c #FAF9B4",
"@J c #FBF9BA",
"@I c #FBFAC3",
"@H c #FCFBC7",
"@G c #F4EF51",
"@F c #F4F368",
"@E c #F5F372",
"@D c #FCFACE",
"@C c #FBFBD0",
"@B c #F3F154",
"@A c #F6F477",
"@z c #F9F9AF",
"@y c #FCFBD8",
"@x c #FDFCDB",
"@w c #F4F155",
"@v c #F5F478",
"@u c #F9F7A0",
"@t c #F9F8A5",
"@s c #FAF9BF",
"@r c #FCFCDD",
"@q c #FCFCDF",
"@p c #F4F25A",
"@o c #F7F482",
"@n c #F6F587",
"@m c #F8F696",
"@l c #F8F69B",
"@k c #FDFCD8",
"@j c #FDFDE7",
"@i c #F4F159",
"@h c #F9F79B",
"@g c #FCFCD8",
"@f c #FFFFF5",
"@e c #F4F25D",
"@d c #F5F263",
"@c c #F5F268",
"@b c #F5F473",
"@a c #F9F7A1",
"@0 c #FAF8B0",
"@9 c #FEFEFA",
"@8 c #F4F25E",
"@7 c #F4F264",
"@6 c #F5F36D",
"@5 c #F5F472",
"@4 c #F8F691",
"@3 c #F8F79B",
"@2 c #F9F7A6",
"@1 c #FBFABF",
"@| c #FAFAC4",
"@} c #FCFBCE",
"@[ c #FEFEFC",
"@< c #F5F361",
"@: c #F5F264",
"@_ c #F6F482",
"@( c #F7F68C",
"@/ c #F8F69C",
"@^ c #FBF9BF",
"@] c #FBFBCE",
"@{ c #FCFBD3",
"@~ c #F4F263",
"@! c #F7F582",
"@) c #F8F58D",
"@' c #F8F697",
"@, c #FAF9B0",
"@> c #FAFABF",
"@; c #FBFAC4",
"@- c #FBFAC9",
"@= c #FEFEED",
"@* c #FFFEF7",
"@& c #F5F364",
"@% c #F5F369",
"@$ c #F6F373",
"@# c #F6F47D",
"@@ c #F7F691",
"@+ c #F8F79C",
"+Z c #F8F7A1",
"+Y c #F9F8A6",
"+X c #F9F8AB",
"+W c #F9F8B0",
"+V c #FAFAC0",
"+U c #FEFEF7",
"+T c #F5F368",
"+S c #F6F473",
"+R c #F6F47E",
"+Q c #F6F582",
"+P c #F7F687",
"+O c #F7F58C",
"+N c #F7F692",
"+M c #F8F796",
"+L c #F8F698",
"+K c #F8F7A0",
"+J c #F9F7A5",
"+I c #F9F8AA",
"+H c #F9F9B0",
"+G c #FAF9B5",
"+F c #FBFAC0",
"+E c #FBFACF",
"+D c #FDFDEA",
"+C c #FEFEFD",
"+B c #F5F36A",
"+A c #F5F36E",
"+z c #F5F373",
"+y c #F6F478",
"+x c #F6F47C",
"+w c #F7F480",
"+v c #F7F587",
"+u c #F7F68A",
"+t c #F7F58A",
"+s c #FAF8B2",
"+r c #FAF9BA",
"+q c #FDFDED",
"+p c #FDFDE4",
"+o c #FFFEFC",
"+n c #F5F26B",
"+m c #F5F26E",
"+l c #FAF8B5",
"+k c #FBF9C0",
"+j c #FBFACA",
"+i c #FDFDE3",
"+h c #FEFDE8",
"+g c #FDFDEB",
"+f c #FBFAC5",
"+e c #FBFBCA",
"+d c #FCFBD9",
"+c c #FDFCDE",
"+b c #FEFDED",
"+a c #FDFBE3",
"+0 c #FBFAC8",
"+9 c #FBFBCF",
"+8 c #FDFCE3",
"+7 c #FEFDF0",
"+6 c #FCFBCF",
"+5 c #FCFBD4",
"+4 c #FDFDE8",
"+3 c #FEFCE9",
"+2 c #FBFBC9",
"+1 c #FCFCD9",
"+| c #FCFCDE",
"+} c #FEFDE9",
"+[ c #FDFDEE",
"+< c #FEFEF6",
"+: c #FDFCDD",
"+_ c #FDFCE4",
"+( c #FEFDF2",
"+/ c #FEFCEB",
"+^ c #FDFCE5",
"+] c #FDFDE9",
"+{ c #FEFEEE",
"+~ c #FFFEFD",
"+! c #FEFDF7",
"+) c #FDFCE2",
"+' c #FEFDEE",
"+, c #FEFEF3",
"+> c #FEFEF2",
"+; c #FEFEF8",
"+- c #FEFFFD",
"+= c #FFFFFB",
"+* c #FEFDF1",
"+& c #FFFFFD",
"+% c #FEFEF1",
"+$ c #FFFFFA",
"+# c #FFFFFF",
"+@ c #FFFFFE",
"++ c None",
"++++++++++++++++++++++++++++++++++++++++++++++++++++++++++++++++++++++++++++++++++++++++++++++++++++",
"++++++++++++++++++++++++++++++++++++++++++++++++++++++++++++++++++++++++++++++++++++++++++++++++++++",
"++++++++++++++++++++++++++++++++++++++++++++++++++++++++++++++++++++++++++++++++++++++++++++++++++++",
"+++++++++++++++++++++++++++++++++++++++++++++++++@+#++++++++++++++++++++++++++++++++++++++++++++++++",
"+++++++++++++++++++++++++++++++++++++++++++++++$+@+@+%++++++++++++++++++++++++++++++++++++++++++++++",
"+++++++++++++++++++++++++++++++++++++++++++++++@+#+&+*++++++++++++++++++++++++++++++++++++++++++++++",
"+++++++++++++++++++++++++++++++++++++++++++++=+#+-+;+>++++++++++++++++++++++++++++++++++++++++++++++",
"+++++++++++++++++++++++++++++++++++++++++++++@+&+;+,+'+)++++++++++++++++++++++++++++++++++++++++++++",
"+++++++++++++++++++++++++++++++++++++++++++!+~+;+,+{+]+^++++++++++++++++++++++++++++++++++++++++++++",
"+++++++++++++++++++++++++++++++++++++++++/+~+;+(+'+]+_+:++++++++++++++++++++++++++++++++++++++++++++",
"+++++++++++++++++++++++++++++++++++++++++<+;+,+[+}+_+|+1+2++++++++++++++++++++++++++++++++++++++++++",
"+++++++++++++++++++++++++++++++++++++++3+;+,+[+4+_+|+1+5+6++++++++++++++++++++++++++++++++++++++++++",
"+++++++++++++++++++++++++++++++++++++++7+,+'+]+8+|+1+5+9+0++++++++++++++++++++++++++++++++++++++++++",
"+++++++++++++++++++++++++++++++++++++a+>+b+]+8+c+d+5+9+e+f++++++++++++++++++++++++++++++++++++++++++",
"+++++++++++++++++++++++++++++++++++++g+'+h+i+c+1+5+6+j+f+k+l+++++++++++++++++++++++++++m+n++++++++++",
"+++++++++++@+@+~+o+#+#+=+(+++++++++p+q+4+8+c+1+5+6+j+f+k+r+s+++++++++++++t+u+v+w+x+y+z+A+B++++++++++",
"+++++++++++o+#+#+#+#+#+#+#+#+C+<+[+D+4+8+c+1+5+E+j+f+F+r+G+H+I+J+K+L+M+N+O+P+Q+R+y+S+A+T++++++++++++",
"+++++++++++++@+#+#+#+#+#+#+-+U+>+q+4+i+|+1+5+9+j+f+V+r+G+W+X+Y+Z@++M@@+O+v+Q@#+y@$+A@%@&++++++++++++",
"++++++++++++@*+@+#+#+#+#+~+U+>@=+4+i+c+1+5+E@-@;@>+r+G@,+X+Y+Z@+@'@@@)+v@!@#+y@$+A+T@~++++++++++++++",
"+++++++++++++++!+#+#+#+o+U+>+b+4+8+:+d@{@]@-@;@^+r+G+W+X+Y+Z@/@'@@@(+v@_@#+y+z+A+T@:@<++++++++++++++",
"+++++++++++++++++o+#@[@*+>+b+4+8+c+d@{@}@-@|@1+r+G+W+X@2+Z@3+M@4+O+v@!@#+y@5@6+T@7@8++++++++++++++++",
"++++++++++++++++++@9+U+>+b+4+8+|+1+5+6@-@;@1+r+G@0+X@2@a@3@'@@@(+v@_@#+y@b@6@c@d@e++++++++++++++++++",
"++++++++++++++++++@f+>+q+4+8+|@g@{@]@-@;@>+r+G+W+X+Y+Z@h@'@@+O+v@_@#+y@b@6+T@7@8@i++++++++++++++++++",
"++++++++++++++++++++@j+4+i+:@k@{@]@-@;@^+r+G@0+X+J+Z@l@m@4+O@n@o@#+y@b@6+T@~@8@p++++++++++++++++++++",
"++++++++++++++++++++++@q@r@g@{+9@-@;@s+r+G+W+X@t@u@+@m@4@(+v+Q@#@v+z@6+T@~@8@i@w++++++++++++++++++++",
"++++++++++++++++++++++@x@y@{@]+2@;@>+r+G@z+X+J+K@3@m@@+O+v+Q@#@A+z@6@c@~@8@i@B++++++++++++++++++++++",
"++++++++++++++++++++++++@C@D+2@;@1+r+G@0+X+J+K@3@m@4+O+v@o@#@A@E@6@F@~@8@i@B@G++++++++++++++++++++++",
"++++++++++++++++++++++++@H+2@I@^@J@K@0+I@t@u@3@m@L@(+v@M+x@A@E@6@c@~@8@i@B@N++++++++++++++++++++++++",
"++++++++++++++++++++++++@O@;@s+r+G@P+I@t+K@l@m@4+O@Q@M+x+y@E@R@c@S@8@T@B@U@V++++++++++++++++++++++++",
"++++++++++++++++++++++@W@I@s+r@K+H+I+J@u@l@m@4+O@Q@X+x@A@Y@6+T@~@8@i@Z#+@V#@##++++++++++++++++++++++",
"++++++++++++++++++++++#$@>+r@K@P+I+J+K@3#%#&+O+v@M+x@A@E@6+T#*@8@i@Z@N#=#@#-#;++++++++++++++++++++++",
"++++++++++++++++++++#>@>#,#'#)#!@t+K@h@m@@#~@Q@M+x@A@E@6+T#{@e#]#^@N@V#@#-#-#-#/++++++++++++++++++++",
"++++++++++++++++++++#(#,@K#_+I+J@u@h+M@L#~@Q@M+x@A@5@6@c#*@8#:@B#<@V#[#-#-#}#-#|++++++++++++++++++++",
"++++++++++++++++++#1#,@K#)+I+J#2@3#3#4#~@Q@X+x@A@E@6@c@d@8#:#5@N@V#[#-#-#-#|#|#|#}++++++++++++++++++",
"++++++++++++++++++#6#'#_+I#7+K#8@m@L#~@Q#9+x@A#0@6#a@d@e#:#^#+@V#[#-#|#-#-#-#-#|#|++++++++++++++++++",
"++++++++++++++++#b@K#)+I#c+K#8#%@L#~@Q@M+x@A@E@6#d#*#e#:#5@N#f###-#-#-#-#-#-#-#-#|#}++++++++++++++++",
"++++++++++++++++#g#_+I#c#h#8#%@L#~@Q#i+x@A#0#j#a++++#k#l#+@V#@#-#-#|#-#|#-#-#|#-#-#|++++++++++++++++",
"++++++++++++++@P#)#m+J#2#n#%@L#o#p#9+x#q+S#r++++++++++++#s#@#-#|#|#-#-#|#-#}#-#-#-#-#|++++++++++++++",
"++++++++++++++#t#m#u#2#8#%@L#~@Q@X#v@A++++++++++++++++++++++#-#;#-#-#|#|#-#-#-#|#|#|#-++++++++++++++",
"++++++++++++#w#m#c#2#8#%@L#~@Q+w#x++++++++++++++++++++++++++++++#;#|#-#|#-#-#-#-#-#-#-#|++++++++++++",
"++++++++++++#y#z#h#8#%@L#o#A@X++++++++++++++++++++++++++++++++++++++#-#-#-#|#|#-#-#-#|#-++++++++++++",
"++++++++++#B#c#2#n#%@L+u#A++++++++++++++++++++++++++++++++++++++++++++++#C#-#-#|#-#-#-#-++++++++++++",
"++++++++++#D#2#8#%#E+t++++++++++++++++++++++++++++++++++++++++++++++++++++#F#-#|#|#-#-#-#-++++++++++",
"++++++++++@++L#G#H++++++++++++++++++++++++++++++++++++++++++++++++++++++++++++#;#-#-#-#-#|++++++++++",
"++++++++++++++++++++++++++++++++++++++++++++++++++++++++++++++++++++++++++++++++++#F#;#-#}++++++++++",
"++++++++++++++++++++++++++++++++++++++++++++++++++++++++++++++++++++++++++++++++++++++++++++++++++++",
"++++++++++++++++++++++++++++++++++++++++++++++++++++++++++++++++++++++++++++++++++++++++++++++++++++",
"++++++++++++++++++++++++++++++++++++++++++++++++++++++++++++++++++++++++++++++++++++++++++++++++++++",
"++++++++++++++++++++++++++++++++++++++++++++++++++++++++++++++++++++++++++++++++++++++++++++++++++++",
"++++++++++++++++++++++++++++++++++++++++++++++++++++++++++++++++++++++++++++++++++++++++++++++++++++"};
