/* XPM */
static char * ball_red_xpm[] = {
"50 50 168 2",
"@P c #FF78FC",
"@O c #FF99FD",
"@N c #FF96FD",
"@M c #FF6EFC",
"@L c #FF9DFE",
"@K c #FF5AFC",
"@J c #FF63FC",
"@I c #FF65FC",
"@H c #FF9FFE",
"@G c #FFA2FE",
"@F c #FF4FFC",
"@E c #FF58FD",
"@D c #FF5EFD",
"@C c #FF55FC",
"@B c #FF69FC",
"@A c #FF9CFD",
"@z c #FF9FFD",
"@y c #FF56FD",
"@x c #FF59FD",
"@w c #FF6CFC",
"@v c #FF8EFD",
"@u c #FF58FC",
"@t c #FF7DFD",
"@s c #FF91FD",
"@r c #FF94FE",
"@q c #FF98FE",
"@p c #FFA5FD",
"@o c #FFA8FE",
"@n c #FF57FC",
"@m c #FF4EFC",
"@l c #FF50FD",
"@k c #FF53FC",
"@j c #FF62FC",
"@i c #FF5DFC",
"@h c #FF50FC",
"@g c #FF53FD",
"@f c #FF64FD",
"@e c #FF56FC",
"@d c #FF59FC",
"@c c #FF5EFC",
"@b c #FF6AFD",
"@a c #FF6FFD",
"@0 c #FF5BFC",
"@9 c #FF5CFC",
"@8 c #FF5FFD",
"@7 c #FF61FD",
"@6 c #FFB0FE",
"@5 c #FF72FC",
"@4 c #FF60FC",
"@3 c #FF61FC",
"@2 c #FF67FC",
"@1 c #FF6CFD",
"@| c #FF64FC",
"@} c #FF67FD",
"@[ c #FF6DFD",
"@< c #FF6FFC",
"@: c #FF72FD",
"@_ c #FF83FD",
"@( c #FFABFE",
"@/ c #FF68FD",
"@^ c #FF6AFC",
"@] c #FF6DFC",
"@{ c #FF70FC",
"@~ c #FF75FD",
"@! c #FF97FD",
"@) c #FFA5FE",
"@' c #FFABFD",
"@, c #FFB0FD",
"@> c #FF7AFC",
"@; c #FF6EFD",
"@- c #FF70FD",
"@= c #FF73FC",
"@* c #FF75FC",
"@& c #FF7DFC",
"@% c #FF73FD",
"@$ c #FF76FD",
"@# c #FF78FD",
"@@ c #FF79FD",
"@+ c #FFA0FE",
"+Z c #FFA8FD",
"+Y c #FF86FD",
"+X c #FF7BFD",
"+W c #FF7EFD",
"+V c #FF95FE",
"+U c #FFAEFD",
"+T c #FFB1FD",
"+S c #FF80FD",
"+R c #FF81FD",
"+Q c #FF8CFD",
"+P c #FFB4FE",
"+O c #FF89FD",
"+N c #FF84FD",
"+M c #FF87FD",
"+L c #FF8FFD",
"+K c #FFB1FE",
"+J c #FFB4FD",
"+I c #FF8BFD",
"+H c #FF8AFD",
"+G c #FF9BFE",
"+F c #FFAEFE",
"+E c #FFB9FD",
"+D c #FF94FD",
"+C c #FF8DFD",
"+B c #FF90FD",
"+A c #FFA9FE",
"+z c #FFBAFD",
"+y c #FF93FD",
"+x c #FF92FD",
"+w c #FF9DFD",
"+v c #FFA3FD",
"+u c #FFBCFD",
"+t c #FF95FD",
"+s c #FF98FD",
"+r c #FFA4FE",
"+q c #FFA6FE",
"+p c #FFBCFE",
"+o c #FF9AFD",
"+n c #FF9BFD",
"+m c #FFB7FE",
"+l c #FFA0FD",
"+k c #FF9EFD",
"+j c #FFA1FD",
"+i c #FFA7FE",
"+h c #FFA9FD",
"+g c #FFA2FD",
"+f c #FFA4FD",
"+e c #FFA7FD",
"+d c #FFAAFE",
"+c c #FFB7FD",
"+b c #FFBAFE",
"+a c #FFBFFE",
"+0 c #FFA6FD",
"+9 c #FFACFE",
"+8 c #FFB2FE",
"+7 c #FFAAFD",
"+6 c #FFACFD",
"+5 c #FFC2FE",
"+4 c #FFAFFE",
"+3 c #FFAFFD",
"+2 c #FFBDFE",
"+1 c #FFC4FD",
"+| c #FFADFD",
"+} c #FFB2FD",
"+[ c #FFB8FD",
"+< c #FFC6FD",
"+: c #FFB8FE",
"+_ c #FFC0FE",
"+( c #FFC8FE",
"+/ c #FFB5FD",
"+^ c #FFBBFE",
"+] c #FFBEFE",
"+{ c #FFBDFD",
"+~ c #FFC1FE",
"+! c #FFC3FE",
"+) c #FFCBFD",
"+' c #FFC1FD",
"+, c #FFC4FE",
"+> c #FFCDFE",
"+; c #FFB5FE",
"+- c #FFC7FE",
"+= c #FFC9FE",
"+* c #FFC6FE",
"+& c #FFCCFE",
"+% c #FFBFFD",
"+$ c #FFCFFE",
"+# c #FFD4FE",
"+@ c #FFCEFE",
"++ c None",
"++++++++++++++++++++++++++++++++++++++++++++++++++++++++++++++++++++++++++++++++++++++++++++++++++++",
"++++++++++++++++++++++++++++++++++++++++++++++++++++++++++++++++++++++++++++++++++++++++++++++++++++",
"++++++++++++++++++++++++++++++++++++++++++++++++++++++++++++++++++++++++++++++++++++++++++++++++++++",
"++++++++++++++++++++++++++++++++++++++++++++++++++++++++++++++++++++++++++++++++++++++++++++++++++++",
"+++++++++++++++++++++++++++++++++++++++++++++++++@+#++++++++++++++++++++++++++++++++++++++++++++++++",
"+++++++++++++++++++++++++++++++++++++++++++++++++$+$+%++++++++++++++++++++++++++++++++++++++++++++++",
"+++++++++++++++++++++++++++++++++++++++++++++++@+$+&+*++++++++++++++++++++++++++++++++++++++++++++++",
"+++++++++++++++++++++++++++++++++++++++++++++++@+&+=+-+;++++++++++++++++++++++++++++++++++++++++++++",
"+++++++++++++++++++++++++++++++++++++++++++++>+&+=+*+,+'++++++++++++++++++++++++++++++++++++++++++++",
"+++++++++++++++++++++++++++++++++++++++++++++)+=+*+!+~+{++++++++++++++++++++++++++++++++++++++++++++",
"+++++++++++++++++++++++++++++++++++++++++++=+=+*+!+~+]+^+/++++++++++++++++++++++++++++++++++++++++++",
"+++++++++++++++++++++++++++++++++++++++++++(+*+!+_+]+^+:+/++++++++++++++++++++++++++++++++++++++++++",
"+++++++++++++++++++++++++++++++++++++++++<+*+!+_+]+^+[+;+}+|++++++++++++++++++++++++++++++++++++++++",
"+++++++++++++++++++++++++++++++++++++++++1+,+_+2+^+:+;+}+3+4++++++++++++++++++++++++++++++++++++++++",
"+++++++++++++++++++++++++++++++++++++++5+!+_+2+^+:+/+}+3+6+7++++++++++++++++++++++++++++++++++++++++",
"+++++++++++++++++++++++++++++++++++++++'+_+2+^+[+;+8+3+9+7+0+0++++++++++++++++++++++++++++++++++++++",
"+++++++++++++++++++++++++++++++++++++a+_+2+b+c+;+}+3+9+d+e+f+g++++++++++++++++++++++++++++++++++++++",
"+++++++++++++++++++++++++++++++++++++a+]+^+:+/+8+4+6+h+i+f+j+k+l++++++++++++++++++++++++++++++++++++",
"+++++++++++++++++++++++++++++++++++2+2+b+m+;+8+3+6+h+e+f+j+k+n+o++++++++++++++++++++++++++++++++++++",
"+++++++++++++++++++++++++++++++++++p+b+:+;+}+3+6+h+q+r+j+k+n+s+t+o++++++++++++++++++++++++++++++++++",
"+++++++++++++++++++++++++++++++++u+^+:+/+}+4+6+h+0+v+j+w+n+s+t+x+y++++++++++++++++++++++++++++++++++",
"+++++++++++++++++++++++++++++++++z+m+/+8+4+6+A+q+v+j+k+n+s+t+x+B+C+D++++++++++++++++++++++++++++++++",
"+++++++++++++++++++++++++++++++E+m+/+}+F+6+A+0+v+j+k+G+s+t+y+B+C+H+I++++++++++++++++++++++++++++++++",
"+++++++++++++++++++++++++++++E+[+J+K+4+6+h+0+f+j+k+n+s+t+x+L+C+H+M+N+O++++++++++++++++++++++++++++++",
"+++++++++++++++++++++++++++++c+P+}+3+6+h+0+f+j+k+n+s+t+x+L+Q+H+M+N+R+S++++++++++++++++++++++++++++++",
"+++++++++++++++++++++++++++/+P+T+U+6+A+0+v+l+k+n+s+V+x+B+Q+H+M+N+R+W+X+Y++++++++++++++++++++++++++++",
"+++++++++++++++++++++++++T+J+}+4+6+Z+0+v@++k+o+s+t+x+L+Q+O+M+N+R+W+X@@+X++++++++++++++++++++++++++++",
"+++++++++++++++++++++++++/+K+3+6+h+q+v+l+w+n+s+t+x+L+Q+O+M+N+R+W+X@#@$@%@&++++++++++++++++++++++++++",
"+++++++++++++++++++++++}+K+4+9+h+q+v+l+w+n+s+t+x+L+Q+O+M+N+R+W+X@@@*@=@-@;@>++++++++++++++++++++++++",
"++++++++++++++++++++@,+T+F@'+A@)+v+l+w+n@!+t+x+L+Q+O+Y+N+R+W+X@#@~@=@{@]@^@/++++++++++++++++++++++++",
"+++++++++++++++++++++}+U@(+h+0+v+l+w+o+s+t+x+L+Q+O+Y@_+R+W+X@#@~@:@<@[@^@}@|@1++++++++++++++++++++++",
"++++++++++++++++++@,+U@'+A+0+v+l+w+o+s+t+x+L+Q+O+Y+N+R+W+X@@@~@%@-@[@^@2@|@3@4@5++++++++++++++++++++",
"++++++++++++++++@6+3@'+h+q+v+l+w+n+s+t+x+L+Q+O+Y+N+R+W+X@#@$@:@<@]@^@2@|@7@8@9@0++++++++++++++++++++",
"+++++++++++++++++3@'+h+0+v+l+w+o@!+V+x+L+Q+O+Y+N+R+W+X@#@~@:@a@[@b@2@|@3@c@9@d@e@2++++++++++++++++++",
"+++++++++++++++F@'+h@)+v+l+w+n@!+t+x+L+Q+O+Y@_+R+W+X@#@~@:@-@[@b@}@f@3@c@9@d@e@g@h@i++++++++++++++++",
"+++++++++++++U+6+Z+q+g+l+w+o@!+D+x+L+Q+O+Y@_+R+W+X@#@~@:@a@]@^@2@|@j@c@0@d@e@k@l@m@n++++++++++++++++",
"+++++++++++++6@o@p+g+l+w+o@q@r@s+L+Q+O+Y@_+S@t+X@#@*@:@<@[@b@}@f@3@c@9@u@e@k@l@m@m@m@0++++++++++++++",
"+++++++++++6+Z+0+v+l+w+o@!+D+x@v+Q+O+Y@_+S@t+X@#@~@5@<@w@b@2@|@3@c@9@x@y@k@h@m@m@m@m@m@k++++++++++++",
"+++++++++9+h@)+g@z@A+o@!+D+x+L+Q+O+Y@_+S+W+X@#@~@5@<@]@B@2@|@3@c@9@d@e@k@h@m@m@m@m@m@m@C++++++++++++",
"+++++++++7@)+g+l+w+o@!+t@s+L+Q+O+Y@_+S@t+X@#@~@:@a@]@B@}@|@3@D@9@E@e@k@h@m@m@m@F@m@m@m@m@u++++++++++",
"++++++@'+0@G@H+w+o@!+D@s@v+Q+O+Y@_+S+W+W+S+R@=@-@[@b@/@I@j@8@w@J@K@k@h@m@m@m@m@m@m@m@m@m@m@c++++++++",
"+++++++A+g@z@L+o@!+D@s+L+L+B+M+H+B+D++++++++++++++++++++++++++++++++++@M@K@F@j@u@F@m@m@m@m@d++++++++",
"+++++++Z+g+l+k+n@N@O@A++++++++++++++++++++++++++++++++++++++++++++++++++++++++++++@P@B@0@C@9++++++++",
"++++++++++++++++++++++++++++++++++++++++++++++++++++++++++++++++++++++++++++++++++++++++++++++++++++",
"++++++++++++++++++++++++++++++++++++++++++++++++++++++++++++++++++++++++++++++++++++++++++++++++++++",
"++++++++++++++++++++++++++++++++++++++++++++++++++++++++++++++++++++++++++++++++++++++++++++++++++++",
"++++++++++++++++++++++++++++++++++++++++++++++++++++++++++++++++++++++++++++++++++++++++++++++++++++",
"++++++++++++++++++++++++++++++++++++++++++++++++++++++++++++++++++++++++++++++++++++++++++++++++++++",
"++++++++++++++++++++++++++++++++++++++++++++++++++++++++++++++++++++++++++++++++++++++++++++++++++++",
"++++++++++++++++++++++++++++++++++++++++++++++++++++++++++++++++++++++++++++++++++++++++++++++++++++"};
