/* XPM */
static char * ball_red_xpm[] = {
"50 50 260 2",
"#S c #5971FF",
"#R c #5D76FF",
"#Q c #5069FF",
"#P c #516CFF",
"#O c #667CFF",
"#N c #7387FF",
"#M c #4F6AFF",
"#L c #546EFF",
"#K c #5F76FF",
"#J c #6C81FF",
"#I c #6D84FF",
"#H c #7185FF",
"#G c #7F93FF",
"#F c #526CFF",
"#E c #556EFF",
"#D c #5A72FF",
"#C c #6B82FF",
"#B c #99A7FF",
"#A c #4F69FF",
"#z c #526DFF",
"#y c #556FFF",
"#x c #788DFF",
"#w c #8697FF",
"#v c #4E69FF",
"#u c #506AFF",
"#t c #5B73FF",
"#s c #5D75FF",
"#r c #6077FF",
"#q c #6279FF",
"#p c #6C83FF",
"#o c #7187FF",
"#n c #8094FF",
"#m c #516BFF",
"#l c #536DFF",
"#k c #566FFF",
"#j c #5871FF",
"#i c #6078FF",
"#h c #677FFF",
"#g c #546DFF",
"#f c #5670FF",
"#e c #5B74FF",
"#d c #6079FF",
"#c c #637AFF",
"#b c #687EFF",
"#a c #748AFF",
"#0 c #9BA9FF",
"#9 c #5770FF",
"#8 c #5972FF",
"#7 c #5C74FF",
"#6 c #5E76FF",
"#5 c #6178FF",
"#4 c #637BFF",
"#3 c #687FFF",
"#2 c #6B81FF",
"#1 c #8497FF",
"#| c #5A73FF",
"#} c #5C75FF",
"#[ c #667DFF",
"#< c #6E83FF",
"#: c #7086FF",
"#_ c #93A4FF",
"#( c #5F77FF",
"#/ c #6179FF",
"#^ c #647BFF",
"#] c #677DFF",
"#{ c #697FFF",
"#~ c #7388FF",
"#! c #768AFF",
"#) c #8899FF",
"#' c #627AFF",
"#, c #647CFF",
"#> c #6F84FF",
"#; c #7186FF",
"#- c #7488FF",
"#= c #7C8FFF",
"#* c #657CFF",
"#& c #677EFF",
"#% c #6A80FF",
"#$ c #6C82FF",
"## c #6F85FF",
"#@ c #7489FF",
"#+ c #768BFF",
"@Z c #98A7FF",
"@Y c #9AAAFF",
"@X c #6A81FF",
"@W c #6D83FF",
"@V c #7589FF",
"@U c #778BFF",
"@T c #8396FF",
"@S c #6E84FF",
"@R c #7085FF",
"@Q c #7287FF",
"@P c #778CFF",
"@O c #7C90FF",
"@N c #8294FF",
"@M c #8798FF",
"@L c #7288FF",
"@K c #788CFF",
"@J c #7A8EFF",
"@I c #7D90FF",
"@H c #7F92FF",
"@G c #92A1FF",
"@F c #A0AFFF",
"@E c #758AFF",
"@D c #798CFF",
"@C c #7A8FFF",
"@B c #7D91FF",
"@A c #8295FF",
"@z c #8799FF",
"@y c #8C9EFF",
"@x c #798DFF",
"@w c #7B8FFF",
"@v c #7E91FF",
"@u c #8093FF",
"@t c #8598FF",
"@s c #879AFF",
"@r c #8A9CFF",
"@q c #8FA0FF",
"@p c #99A9FF",
"@o c #A8B6FF",
"@n c #7E92FF",
"@m c #8193FF",
"@l c #8395FF",
"@k c #8597FF",
"@j c #8B9CFF",
"@i c #8D9EFF",
"@h c #90A0FF",
"@g c #93A2FF",
"@f c #95A4FF",
"@e c #B1BCFF",
"@d c #8194FF",
"@c c #8496FF",
"@b c #8698FF",
"@a c #889AFF",
"@0 c #8B9DFF",
"@9 c #8D9FFF",
"@8 c #92A3FF",
"@7 c #9DABFF",
"@6 c #9FAEFF",
"@5 c #AEBBFF",
"@4 c #8699FF",
"@3 c #899BFF",
"@2 c #90A1FF",
"@1 c #93A3FF",
"@| c #95A5FF",
"@} c #AAB6FF",
"@[ c #8A9BFF",
"@< c #8C9DFF",
"@: c #8E9FFF",
"@_ c #91A1FF",
"@( c #94A3FF",
"@/ c #96A5FF",
"@^ c #98A8FF",
"@] c #9DACFF",
"@{ c #A3B0FF",
"@~ c #8F9FFF",
"@! c #91A2FF",
"@) c #96A6FF",
"@' c #9BAAFF",
"@, c #9EACFF",
"@> c #A5B3FF",
"@; c #B0BBFF",
"@- c #92A2FF",
"@= c #94A4FF",
"@* c #97A6FF",
"@& c #99A8FF",
"@% c #9EADFF",
"@$ c #A1AFFF",
"@# c #A6B3FF",
"@@ c #ABB7FF",
"@+ c #ADBAFF",
"+Z c #97A7FF",
"+Y c #9AA9FF",
"+X c #A1B0FF",
"+W c #A3B1FF",
"+V c #A6B4FF",
"+U c #A9B5FF",
"+T c #B3BEFF",
"+S c #B6C0FF",
"+R c #9CABFF",
"+Q c #9FADFF",
"+P c #A2AFFF",
"+O c #A4B1FF",
"+N c #A7B4FF",
"+M c #A9B6FF",
"+L c #ABB8FF",
"+K c #B3BFFF",
"+J c #A0AEFF",
"+I c #A2B0FF",
"+H c #A4B2FF",
"+G c #ACB8FF",
"+F c #B4BFFF",
"+E c #B6C1FF",
"+D c #B9C3FF",
"+C c #A5B2FF",
"+B c #A7B5FF",
"+A c #ACB9FF",
"+z c #B1BDFF",
"+y c #B4C0FF",
"+x c #B7C1FF",
"+w c #BBC6FF",
"+v c #BEC8FF",
"+u c #A8B5FF",
"+t c #AAB7FF",
"+s c #ADB9FF",
"+r c #AFBBFF",
"+q c #B2BDFF",
"+p c #B5BFFF",
"+o c #B9C4FF",
"+n c #BFC8FF",
"+m c #C6CEFF",
"+l c #AEBAFF",
"+k c #B0BCFF",
"+j c #B7C2FF",
"+i c #BAC4FF",
"+h c #BCC6FF",
"+g c #C1CBFF",
"+f c #C4CDFF",
"+e c #C6CFFF",
"+d c #C9D1FF",
"+c c #B2BEFF",
"+b c #B5C0FF",
"+a c #B8C3FF",
"+0 c #BAC5FF",
"+9 c #BDC6FF",
"+8 c #BFC9FF",
"+7 c #C5CDFF",
"+6 c #B8C2FF",
"+5 c #BDC7FF",
"+4 c #C0CAFF",
"+3 c #C2CBFF",
"+2 c #C7D0FF",
"+1 c #CCD3FF",
"+| c #BBC5FF",
"+} c #BEC7FF",
"+[ c #C0C9FF",
"+< c #C3CBFF",
"+: c #CAD2FF",
"+_ c #CCD4FF",
"+( c #CFD5FF",
"+/ c #C1CAFF",
"+^ c #C3CCFF",
"+] c #C5CEFF",
"+{ c #CBD2FF",
"+~ c #C7CFFF",
"+! c #C8D0FF",
"+) c #CBD3FF",
"+' c #CDD5FF",
"+, c #D0D7FF",
"+> c #D2D9FF",
"+; c #CBD4FF",
"+- c #CED5FF",
"+= c #D1D7FF",
"+* c #D3D9FF",
"+& c #D1D8FF",
"+% c #D3DAFF",
"+$ c #D5DBFF",
"+# c #D7DCFF",
"+@ c #D8DEFF",
"++ c None",
"++++++++++++++++++++++++++++++++++++++++++++++++++++++++++++++++++++++++++++++++++++++++++++++++++++",
"++++++++++++++++++++++++++++++++++++++++++++++++++++++++++++++++++++++++++++++++++++++++++++++++++++",
"++++++++++++++++++++++++++++++++++++++++++++++++++++++++++++++++++++++++++++++++++++++++++++++++++++",
"++++++++++++++++++++++++++++++++++++++++++++++++++++++++++++++++++++++++++++++++++++++++++++++++++++",
"++++++++++++++++++++++++++++++++++++++++++++++++++++++++++++++++++++++++++++++++++++++++++++++++++++",
"+++++++++++++++++++++++++++++++++++++++++++++@+#++++++++++++++++++++++++++++++++++++++++++++++++++++",
"+++++++++++++++++++++++++++++++++++++++++++++$+%+&++++++++++++++++++++++++++++++++++++++++++++++++++",
"+++++++++++++++++++++++++++++++++++++++++++++*+=+-+;++++++++++++++++++++++++++++++++++++++++++++++++",
"+++++++++++++++++++++++++++++++++++++++++++>+,+'+)+!+~++++++++++++++++++++++++++++++++++++++++++++++",
"+++++++++++++++++++++++++++++++++++++++++++,+'+{+!+]+^+/++++++++++++++++++++++++++++++++++++++++++++",
"+++++++++++++++++++++++++++++++++++++++++(+_+:+!+]+<+[+}+|++++++++++++++++++++++++++++++++++++++++++",
"+++++++++++++++++++++++++++++++++++++++++1+:+2+]+3+4+5+|+6++++++++++++++++++++++++++++++++++++++++++",
"+++++++++++++++++++++++++++++++++++++++)+:+~+7+3+8+9+0+a+b+c++++++++++++++++++++++++++++++++++++++++",
"+++++++++++++++++++++++++++++++++++++++d+e+f+g+8+h+i+j+b+c+k+l++++++++++++++++++++++++++++++++++++++",
"+++++++++++++++++++++++++++++++++++++2+m+f+g+n+h+o+j+p+q+r+s+t+u++++++++++++++++++++++++++++++++++++",
"+++++++++++++++++++++++++++++++++++++7+^+/+v+w+o+x+y+z+r+A+t+B+C++++++++++++++++++++++++++++++++++++",
"+++++++++++++++++++++++++++++++++++++^+/+v+|+D+E+F+z+l+G+t+B+H+I+J++++++++++++++++++++++++++++++++++",
"+++++++++++++++++++++++++++++++++++3+[+5+|+D+E+K+z+l+L+M+N+O+P+Q+R++++++++++++++++++++++++++++++++++",
"+++++++++++++++++++++++++++++++++++[+5+|+a+S+T+k+l+L+U+V+W+X+Q+R+Y+Z++++++++++++++++++++++++++++++++",
"+++++++++++++++++++++++++++++++++v+5+i+j+b+c+k@+@@+u@#+O@$@%+R@&@*@=@-++++++++++++++++++++++++++++++",
"+++++++++++++++++++++++++++++++++h+i+j+b+c@;+s+t+u@>+W+J@,@'@&@)@=@!@~++++++++++++++++++++++++++++++",
"+++++++++++++++++++++++++++++++|+o+j+y+q+r+s+t+N+C@{+J@]@'@^@/@(@_@:@<@[++++++++++++++++++++++++++++",
"+++++++++++++++++++++++++++++++a+E+F+z+r+A@}+N+H+I+J@]@'@^@|@1@2@:@<@3@4++++++++++++++++++++++++++++",
"+++++++++++++++++++++++++++++++E+K+z@5+G@}+N+H+I@6@7+Y@^@|@8@2@9@0@a@b@c@d++++++++++++++++++++++++++",
"+++++++++++++++++++++++++++++b+F@e@5+L+M+N+H@$+Q+R+Y+Z@f@g@h@i@j@a@k@l@m@n++++++++++++++++++++++++++",
"+++++++++++++++++++++++++++++c+k+l+L@o@#+W@$@%+R@p+Z@=@-@q@i@r@s@t@l@u@v@w@x++++++++++++++++++++++++",
"+++++++++++++++++++++++++++q+k@++L+u@#+W@$@,@'@&@)@=@!@q@y@[@z@k@A@u@B@C@D@E++++++++++++++++++++++++",
"+++++++++++++++++++++++++++r+s+t+u@>+W@F@,@'@&@)@(@G@~@<@3@z@k@A@H@I@J@K@E@L++++++++++++++++++++++++",
"+++++++++++++++++++++++++++A+t+B+C@{+J@]@'@^@)@1@_@:@<@3@M@c@N@H@O@J@P@E@Q@R@S++++++++++++++++++++++",
"+++++++++++++++++++++++++L@}+N+C+I@6@]+Y@^@|@1@2@:@j@3@b@T@d@H@O@x@U@V@Q@R@W@X++++++++++++++++++++++",
"+++++++++++++++++++++++++M+N+H+X@6+R@Y@Z@|@8@2@i@j@a@b@T@d@v@w@x#+#@@Q###$#%#&#*++++++++++++++++++++",
"+++++++++++++++++++++++u+V+H@$+Q+R+Y+Z@|@-@2@i@r@a@t@T@u@v#=@x@U#-#;#>#$#%#&#,#'++++++++++++++++++++",
"++++++++++++++++++++++@#+W@$@%+R@&@*@=@-@q@i@[#)@k@A@u@B@w@K#!#~#;#>#$#{#]#^#/#(++++++++++++++++++++",
"+++++++++++++++++++++++W@F@,@'@&@)#_@!@q@y@[@z@k@A@u@I@J@K@E#~#:#<#$#{#[#^#/#(#}#|++++++++++++++++++",
"+++++++++++++++++++++I+J@,@'@^@)@1@_@:@<@3@z#1@N@H@I@J@K@V#~#:@W#2#3#[#4#5#6#7#8#9++++++++++++++++++",
"+++++++++++++++++++++J@,#0@Z@|@1@2@:@0@3@b@c@N@H@I@J@P#a@L@R@W@X#b#*#c#d#6#e#8#f#g++++++++++++++++++",
"++++++++++++++++++@,@7+Y@^@|@1@2@9@j@a@b@c@d@H@O@x@U#@@Q##@W@X#h#*#'#i#6#e#j#k#l#m++++++++++++++++++",
"+++++++++++++++++++R+Y+Z@|@g@h@i@r@a@b@T#n@n@O@x#+#@#o#>#p#%#&#*#q#r#s#t#j#k#l#u#v#v++++++++++++++++",
"+++++++++++++++++++Y+Z@f@-@q@i@j@a#w@T@u@v@w#x#!#~#;@S#$#%#&#^#q#(#s#|#j#y#z#u#v#v#A++++++++++++++++",
"++++++++++++++++#B@)@=@-@q@i@r@z@k@A@u@B@C@x@E#~#;@S#C#{#]#^#q#(#}#D#j#E#F#u#v#A#A#v++++++++++++++++",
"++++++++++++++++@/@=@!@q@<@[@z@k@A#G@B@J@K@E#~#H#I#J#{#[#4#/#K#7#8#9#L#F#M#v#v#v#v#v++++++++++++++++",
"++++++++++++++++@1@_@:@<@3@z@c@A@H@I@J@K@E#N@R@W#2#3#O#c#5#6#7#8#9#L#P#Q#v#v#v#v#v#v#A++++++++++++++",
"++++++++++++++@8@2@:@0@3@4@c@d@H@O@J@U@V@Q##@W#2#3#[#c#i#R#e#S#k#g#m#A#A#v#v#v#v#v#v#v++++++++++++++",
"++++++++++++++@2@~@<@[@4#1@N@H@I@J@U@V#~@R@W#2#3#[++++++++++++++++++++++++++++++++++++++++++++++++++",
"++++++++++++++++++++++++++++++++++++++++++++++++++++++++++++++++++++++++++++++++++++++++++++++++++++",
"++++++++++++++++++++++++++++++++++++++++++++++++++++++++++++++++++++++++++++++++++++++++++++++++++++",
"++++++++++++++++++++++++++++++++++++++++++++++++++++++++++++++++++++++++++++++++++++++++++++++++++++",
"++++++++++++++++++++++++++++++++++++++++++++++++++++++++++++++++++++++++++++++++++++++++++++++++++++",
"++++++++++++++++++++++++++++++++++++++++++++++++++++++++++++++++++++++++++++++++++++++++++++++++++++",
"++++++++++++++++++++++++++++++++++++++++++++++++++++++++++++++++++++++++++++++++++++++++++++++++++++"};
