/* XPM */
static char * ball_red_xpm[] = {
"44 44 493 2",
"&k c #B77D9A",
"&j c #CA7C8A",
"&i c #E37B74",
"&h c #F77C65",
"&g c #FB7E64",
"&f c #EE8272",
"&e c #D88589",
"&d c #C088A0",
"&c c #CE777F",
"&b c #E97468",
"&a c #EB7668",
"&0 c #F67761",
"&9 c #F37965",
"&8 c #F87B63",
"&7 c #FD7D62",
"&6 c #FD8064",
"&5 c #FA8269",
"&4 c #F68571",
"&3 c #F18777",
"&2 c #F68976",
"&1 c #E68D87",
"&| c #E1908F",
"&} c #CD92A2",
"&[ c #D87374",
"&< c #DD726E",
"&: c #E97265",
"&_ c #FC7255",
"&( c #FD7356",
"&/ c #FE795B",
"&^ c #FE8267",
"&] c #FD876D",
"&{ c #FD8D76",
"&~ c #FA907A",
"&! c #F59282",
"&) c #E69691",
"&' c #D699A2",
"&, c #D09CAC",
"&> c #D77374",
"&; c #F06F5C",
"&- c #FE7153",
"&= c #FE7B5E",
"&* c #FD7F64",
"&& c #FD876C",
"&% c #F69989",
"&$ c #E79D9A",
"&# c #E1A0A2",
"&@ c #D37479",
"&+ c #EA7162",
"%Z c #FA6E53",
"%Y c #F5A193",
"%X c #DFA4A7",
"%W c #CD747E",
"%V c #F66F56",
"%U c #FE7356",
"%T c #FD8970",
"%S c #FBA38F",
"%R c #F7A595",
"%Q c #EAA8A4",
"%P c #CEABBF",
"%O c #CC7480",
"%N c #FE6E4E",
"%M c #FE6F50",
"%L c #FE7455",
"%K c #FE7C61",
"%J c #FD846A",
"%I c #FD8E75",
"%H c #FC957E",
"%G c #E5ADAE",
"%F c #D4B1C1",
"%E c #CE747E",
"%D c #F36F5A",
"%C c #FF6F50",
"%B c #FE7F64",
"%A c #FD8267",
"%z c #FD896F",
"%y c #FC9780",
"%x c #FC9984",
"%w c #FC9C86",
"%v c #FCA38F",
"%u c #E7B1B2",
"%t c #D77375",
"%s c #F76E55",
"%r c #FF6E4E",
"%q c #FF6F4F",
"%p c #FE7658",
"%o c #FE7D61",
"%n c #FD866D",
"%m c #FD9078",
"%l c #FD927B",
"%k c #FC9B87",
"%j c #EEB6B0",
"%i c #EB7060",
"%h c #FBAA97",
"%g c #F5B8AD",
"%f c #EBBAB7",
"%e c #DB7270",
"%d c #FB6E52",
"%c c #FD8167",
"%b c #FC927B",
"%a c #FD947E",
"%0 c #FC9781",
"%9 c #FCA592",
"%8 c #FBB1A0",
"%7 c #FAB8A9",
"%6 c #F0BCB7",
"%5 c #E2BFC5",
"%4 c #DD726F",
"%3 c #F36F59",
"%2 c #FE6F4F",
"%1 c #FE785B",
"%| c #FE7A5E",
"%} c #FE7D60",
"%[ c #FD8B72",
"%< c #FD8D75",
"%: c #FC8F78",
"%_ c #FC917B",
"%( c #FC947E",
"%/ c #FBA28F",
"%^ c #FBA592",
"%] c #FBA998",
"%{ c #FAB0A1",
"%~ c #EDC1C0",
"%! c #E57167",
"%) c #FE6E4F",
"%' c #FE7052",
"%, c #FE7354",
"%> c #FD8469",
"%; c #FC927A",
"%- c #FC9983",
"%= c #FC9E89",
"%* c #FBA795",
"%& c #F5C3BC",
"%% c #B57999",
"%$ c #ED7060",
"%# c #FE7152",
"%@ c #FE785A",
"%+ c #FE7F63",
"$Z c #FD8F78",
"$Y c #FBAC9A",
"$X c #FBAE9E",
"$W c #FBB3A3",
"$V c #FABCAF",
"$U c #FABEB2",
"$T c #EAC8CA",
"$S c #C97684",
"$R c #FA7056",
"$Q c #FE7558",
"$P c #FD886F",
"$O c #FD8A72",
"$N c #FCA492",
"$M c #FABFB1",
"$L c #EECAC9",
"$K c #ED7363",
"$J c #FE7355",
"$I c #FD866C",
"$H c #FCA28F",
"$G c #FAB7A9",
"$F c #FABAAC",
"$E c #F7CCC4",
"$D c #E6CFD6",
"$C c #F07562",
"$B c #FE7557",
"$A c #FBA492",
"$z c #FAB3A3",
"$y c #FAB5A6",
"$x c #F9C8BD",
"$w c #F7CFC7",
"$v c #F0D0CD",
"$u c #BB7B95",
"$t c #F6765E",
"$s c #FE775A",
"$r c #FD8369",
"$q c #FD856C",
"$p c #FC947D",
"$o c #FD9680",
"$n c #FC9B86",
"$m c #FC9D89",
"$l c #FCA08C",
"$k c #FBA591",
"$j c #FBB5A6",
"$i c #EFD3D3",
"$h c #CF7A83",
"$g c #F47862",
"$f c #FE7A5D",
"$e c #FD8165",
"$d c #FD8D74",
"$c c #FC9883",
"$b c #FBAE9D",
"$a c #F9C7BD",
"$0 c #F9CCC3",
"$9 c #F9D1C9",
"$8 c #F9D4CB",
"$7 c #F0D5D4",
"$6 c #E8796E",
"$5 c #FA7A61",
"$4 c #FE7C60",
"$3 c #FE7E63",
"$2 c #FE8165",
"$1 c #FD927A",
"$| c #FD947D",
"$} c #FCA08B",
"$[ c #FCA28E",
"$< c #FBA794",
"$: c #FBAE9C",
"$_ c #FBB0A0",
"$( c #FBB2A3",
"$/ c #FAB5A5",
"$^ c #FAC1B4",
"$] c #FAC3B7",
"${ c #FAC8BD",
"$~ c #F9CAC0",
"$! c #F9CFC5",
"$) c #F5D7D3",
"$' c #F97A61",
"$, c #FD7B60",
"$> c #FE7E62",
"$; c #FE8166",
"$- c #FC917A",
"$= c #FC9B85",
"$* c #FABCAE",
"$& c #F7DAD3",
"$% c #F97D65",
"$$ c #FD7E63",
"$# c #FD8166",
"$@ c #FD8F76",
"$+ c #FC937D",
"#Z c #FAC5BA",
"#Y c #FAC8BC",
"#X c #F7DCD6",
"#W c #E88076",
"#V c #F98069",
"#U c #FD8368",
"#T c #FD886E",
"#S c #FC9179",
"#R c #FC9680",
"#Q c #FBA28E",
"#P c #FBA997",
"#O c #FBAD9D",
"#N c #F9D6CE",
"#M c #F8DDD7",
"#L c #F5DEDB",
"#K c #D0838E",
"#J c #F48370",
"#I c #FD856B",
"#H c #FD8F77",
"#G c #FBA491",
"#F c #FBA996",
"#E c #FAC3B6",
"#D c #F8DCD7",
"#C c #F1E0E0",
"#B c #BD86A1",
"#A c #F68572",
"#z c #FD876E",
"#y c #FD8A70",
"#x c #FD8C73",
"#w c #FD917A",
"#v c #FBAB9A",
"#u c #FAB7A8",
"#t c #FAC9BF",
"#s c #F8D8D0",
"#r c #F8DDD6",
"#q c #F2E2E2",
"#p c #EF8879",
"#o c #FD8A71",
"#n c #FD8C74",
"#m c #FD8E76",
"#l c #FC9D88",
"#k c #FB9F8B",
"#j c #FCA491",
"#i c #FBA694",
"#h c #FBB09F",
"#g c #FABEB1",
"#f c #FAC0B4",
"#e c #FAC2B7",
"#d c #F9D5CE",
"#c c #F9D8D1",
"#b c #F8DAD4",
"#a c #F7E3E0",
"#0 c #F3E4E3",
"#9 c #ED8B7E",
"#8 c #FC8C74",
"#7 c #FC8E76",
"#6 c #FD937C",
"#5 c #FC967F",
"#4 c #FBA18E",
"#3 c #FBB6A8",
"#2 c #F9CABF",
"#1 c #F9D3CB",
"#| c #F7E5E2",
"#} c #EFE6E8",
"#[ c #CE8E9D",
"#< c #F98E79",
"#: c #FD9179",
"#_ c #FD957F",
"#( c #FBA391",
"#/ c #FAB4A5",
"#^ c #FAB9AB",
"#] c #FABEB0",
"#{ c #F9D0C8",
"#~ c #F8E6E1",
"#! c #F3E7E7",
"#) c #BC90AE",
"#' c #EE9186",
"#, c #FC937C",
"#> c #FC9C88",
"#; c #FCA490",
"#- c #FAB2A2",
"#= c #FABBAE",
"#* c #FABDB1",
"#& c #F9CCC2",
"#% c #F9D1C8",
"#$ c #F9D7D1",
"## c #F8DAD3",
"#@ c #F8E6E2",
"#+ c #F7E8E5",
"@Z c #F2E8EA",
"@Y c #E8948E",
"@X c #FC957F",
"@W c #FC9882",
"@V c #FC9A85",
"@U c #FC9F8B",
"@T c #FCA18E",
"@S c #FBAB99",
"@R c #FBB2A2",
"@Q c #FAB6A8",
"@P c #FAC5B9",
"@O c #F9C7BC",
"@N c #F8DFD9",
"@M c #F8E5E2",
"@L c #F8E8E5",
"@K c #F6EAE8",
"@J c #E19797",
"@I c #F39889",
"@H c #FC9A84",
"@G c #FC9C87",
"@F c #FC9F8A",
"@E c #FCA18D",
"@D c #FBA693",
"@C c #FBB1A2",
"@B c #F9C9BF",
"@A c #F9CBC2",
"@z c #F9CEC5",
"@y c #F8E1DC",
"@x c #F8E3DF",
"@w c #F3EAEB",
"@v c #E09B9C",
"@u c #F99C89",
"@t c #FC9E8A",
"@s c #FBA18D",
"@r c #FBA390",
"@q c #FCA693",
"@p c #FBA896",
"@o c #FBAA99",
"@n c #FBAC9C",
"@m c #FBB4A5",
"@l c #FAB9AA",
"@k c #F8D7D0",
"@j c #F7E8E4",
"@i c #F5EBEB",
"@h c #F2EBED",
"@g c #EE9F96",
"@f c #FBA08E",
"@e c #FCA390",
"@d c #FBA796",
"@c c #FBAD9C",
"@b c #FAC7BC",
"@a c #F9DAD3",
"@0 c #F8DED9",
"@9 c #F8E1DB",
"@8 c #F5EDED",
"@7 c #DFA2A6",
"@6 c #F6A394",
"@5 c #FBA593",
"@4 c #FBA895",
"@3 c #FBAD9B",
"@2 c #FBAF9F",
"@1 c #FAB4A4",
"@| c #FAC0B3",
"@} c #FAC6BC",
"@[ c #F9D3CA",
"@< c #F8D4CD",
"@: c #F9D9D3",
"@_ c #F4EDEC",
"@( c #DBA7AF",
"@/ c #F3A89C",
"@^ c #FBAA98",
"@] c #FBAC9B",
"@{ c #FBB4A4",
"@~ c #FAC2B6",
"@! c #FAC7BB",
"@) c #F9D5CD",
"@' c #F8D9D3",
"@, c #F8DCD5",
"@> c #DAABB4",
"@; c #F3ACA2",
"@- c #FBAF9E",
"@= c #FBB1A1",
"@* c #FBB3A4",
"@& c #FABDAF",
"@% c #FABFB3",
"@$ c #FAC4B9",
"@# c #FAC9BE",
"@@ c #FACBC1",
"@+ c #F9CEC4",
"+Z c #F9D5CC",
"+Y c #F9D7D0",
"+X c #F8E8E4",
"+W c #F4EDEE",
"+V c #F1EDF1",
"+U c #DDAFB8",
"+T c #F6B1A5",
"+S c #FAB3A4",
"+R c #FAB6A7",
"+Q c #FAB8AA",
"+P c #FABBAD",
"+O c #F9C8BE",
"+N c #F9D0C7",
"+M c #F9D2CA",
"+L c #F8DCD6",
"+K c #F8EAE7",
"+J c #F7ECEA",
"+I c #F4EDED",
"+H c #F0EDF1",
"+G c #E2B4B9",
"+F c #EFB6B0",
"+E c #F8B8AC",
"+D c #FABAAD",
"+C c #FABDB0",
"+B c #FAC2B5",
"+A c #FAD0C7",
"+z c #F9D4CD",
"+y c #F8E2DE",
"+x c #F7EAE7",
"+w c #F6ECEA",
"+v c #F3EDEE",
"+u c #E5BABD",
"+t c #F2BDB5",
"+s c #FABFB2",
"+r c #FAC1B5",
"+q c #FAC4B8",
"+p c #FAC6BB",
"+o c #FAC8BE",
"+n c #F9CDC4",
"+m c #F8E4E1",
"+l c #F8E7E4",
"+k c #F6E9E7",
"+j c #F4EBEB",
"+i c #F3ECED",
"+h c #E6BEC1",
"+g c #EBC1C1",
"+f c #F0C3BF",
"+e c #F9C6BB",
"+d c #F9C9BE",
"+c c #F9CBC1",
"+b c #F9CDC3",
"+a c #F9CFC7",
"+0 c #F9D2C9",
"+9 c #F9D4CC",
"+8 c #F9D7CF",
"+7 c #F9D9D2",
"+6 c #F8DBD5",
"+5 c #F8DED8",
"+4 c #F8E0DB",
"+3 c #F8E3DE",
"+2 c #F8E5E1",
"+1 c #F6E6E5",
"+| c #F3E8E9",
"+} c #F1E9EC",
"+[ c #F0EBED",
"+< c #E6C8CD",
"+: c #F1CAC7",
"+_ c #F2CDC9",
"+( c #F6CFC9",
"+/ c #F5D2CC",
"+^ c #F7D4CD",
"+] c #F8D6CF",
"+{ c #F8D9D2",
"+~ c #F8DBD6",
"+! c #F7DDD9",
"+) c #F6E0DD",
"+' c #F7E2DE",
"+, c #F3E3E3",
"+> c #F3E5E5",
"+; c #EEE6E9",
"+- c #E0D1DB",
"+= c #E8D2D7",
"+* c #F1D5D3",
"+& c #F7D7D1",
"+% c #F7D9D3",
"+$ c #F4DBD9",
"+# c #EFDEE0",
"+@ c #EAE0E6",
"++ c None",
"++++++++++++++++++++++++++++++++++++++++++++++++++++++++++++++++++++++++++++++++++++++++",
"+++++++++++++++++++++++++++++++++++++@+#+$+%+&+*+=+-++++++++++++++++++++++++++++++++++++",
"+++++++++++++++++++++++++++++;+>+,+'+)+!+~+{+]+^+/+(+_+:+<++++++++++++++++++++++++++++++",
"+++++++++++++++++++++++[+}+|+1+2+3+4+5+6+7+8+9+0+a+b+c+d+e+f+g+h++++++++++++++++++++++++",
"+++++++++++++++++++++i+j+k+l+m+3+4+5+6+{+8+9+0+a+n+c+o+p+q+r+s+t+u++++++++++++++++++++++",
"+++++++++++++++++++v+w+x+l+2+y+4+5+6+{+8+z+0+A+n+c+d+p+q+B+s+C+D+E+F+G++++++++++++++++++",
"+++++++++++++++H+I+J+K+l+2+3+4+5+L+{+8+z+M+N+n+c+O+p+q+B+s+C+P+Q+R+S+T+U++++++++++++++++",
"+++++++++++++V+W+J+K+X+2+3+4+5+6+7+Y+Z+M+N@+@@@#+p@$+r@%@&+P+Q+R@*@=@-@;@>++++++++++++++",
"+++++++++++++W+J+K+X+2+3+4+5@,@'+Y@)+M+N@++c+d@!+q@~@%+C+P+Q+R@{@=@-@]@^@/@(++++++++++++",
"++++++++++@_+J+K+X+2+3+4+5+L@:+Y@<@[+N@++c+d@}+q@~@|+C+P+Q+R@1@=@2@3@^@4@5@6@7++++++++++",
"++++++++@8+w+K+X+2+3@9@0+L@a+Y@)@[+N@++c+d@b@$@~@%+C+P+Q+R@{@=@2@c@^@d@5@e@f@g++++++++++",
"++++++@h@i+x@j+2+3@9@0+L@a@k@)+M+N@++c+d@!@$@~@%+C+D@l+R@m@=@-@n@o@p@q@r@s@t@u@v++++++++",
"++++++@w+x+X+2@x@y@0+L@:+Y@)+M+N@z@A@B@b@$@~@|+C+P@l+R@{@C@-@c@o@p@D@e@E@F@G@H@I@J++++++",
"++++++@K@L@M@x@y@N+L@a+Y@)@[+N@z@A@B@O@P@~@|+C+P@l@Q@m@R@2@c@S@p@5@e@T@U@G@V@W@X@Y++++++",
"++++@Z#+#@@x@y@N+L###$@)@[#%@+#&@B@O@P@~@|#*#=@l@Q@m#-@2@c@S@p@D#;@s@F#>@V@W@X#,#'#)++++",
"++++#!#~@x@y@0+L##+Y@)@[#{@z@A@B@b@P@~@|#]+P#^@Q#/@C@2@c@S@p@D#(@T@F#>@H@W#_#,#:#<#[++++",
"++#}#|@x@y@N+L##+Y@)#1#{@z#&#2@O@P@~@|+C#=#^#3@m@R@2@c@S@p@D@e#4@U#>@V@W#5#6#:#7#8#9++++",
"++#0#a@y@N+L#b#c#d#1#%@z#&@B@b@P#e#f#g+P#^@Q#/@R#h@c@S@p#i#j@T#k#l@V@W#5#,#:#m#n#o#p++++",
"++#q@y@N#r###s#d#1#{@z@A#t@b@P@~@|#g#=#^#u@m@R#h@c#v@p@D#j@T@U#>@V@W#5#,#w#m#x#y#z#A#B++",
"++#C@N#D###c#d#1#%@z#&@B@b@P#E#f#g#=#^#u@m@R#h@c@S#F#i#G#4@U#>@V@W#5#,#w#H#n#o#z#I#J#K++",
"++#L#M#b#c#N#1#%@z#&#2@b@P#e#f#g#=#^#u@m#-#h#O@S#P#i#G#Q@U#l@V@W#R#6#S#H#n#o#T#I#U#V#W++",
"++#X#b#c#d#1#%@z#&#2#Y#Z#e#f#g#=#^#u@m@R#h@c#v#P#i#G#4@U#l@V@W#R$+#:$@#n#o#z#I#U$#$$$%++",
"++$&#c#N#1#%@z#&#2@b#Z#e#f#g$*#^#u#/@R#h#O#v#P#i#G@T@U#l$=@W#5$+$-#H#n#o#z#I#U$;$>$,$'++",
"++$)#N#1#%$!#&$~${#Z$]$^#g$*#^#u$/$($_$:#v#P$<#j$[$}#l$=@W#5$|$1#H#n#o#z#I#U$2$3$4$5$6++",
"++$7$8$9$!$0$~$a#Z$]#f#g$*#^#u$/$($_$b#v#P#i#j$[@U#l$=$c#R$+#w#H$d#o#T#I#U$e$3$4$f$g$h++",
"++$i#%$!$0$~${#Z$]$^#g#=#^#u$j@R$_$b#v#P$<$k$[$l$m$n$c$o$p$-#H#n#o#T$q$r$e$>$4$f$s$t$u++",
"++$v$w$0$~$x#Z$]#f#g$*#^#u$y$z$_$b#v#P$<$A$[$l$m$n$c#R$p$1#H$d#o#T$q$r$;$3$4$f$s$B$C++++",
"++$D$E$~${#Z$]$^#g$*$F$G$j$($_$b#v#P$<#G$H$}$m$n$c#R$|$-#H$d#o#T$I$r$;$3$4$f$s$B$J$K++++",
"++++$L${#Z$]$^$M$*$F$G$j$($_$b#v#P$<$N$H$l$m$n$c$o$|$1#H$d$O$P$q$r$;$3$4$f$s$Q$J$R$S++++",
"++++$T+e$]$^$U$V$F$G$j$W$_$X$Y#P$<#j$[$l$m$n$c#R$p$1$Z#n$O$P$I$r$#%+$4$f%@$B$J%#%$%%++++",
"++++++%&$^#g$V$F$G$j$W$_$b$Y#P%*$A$H$l%=$n%-#R$p%;#H$d$O$P$I%>$#%+$4$f$s$B%,%'%)%!++++++",
"++++++%~+s$V$F$G$j$(%{$b$Y%]%*%^%/$l$m$n%-#R%(%_%:%<%[$P$I$r$;%+%}%|%1$Q$J%#%2%3%4++++++",
"++++++%5%6$F%7$j$W%8$b$Y%]%*%9%/$l$m$n%-%0%a%b$Z%<%[$P$I%>%c%+$4$f%1$Q$J%#%)%d%e++++++++",
"++++++++%f%g$j$W%8$b@]%h%*%^$H$l%=$n%-%0%(%b$Z%<%[$P$I%>$;%+$4$f%1$Q$J%#%)%)%i++++++++++",
"++++++++++%j+S%8$b$Y%]%*%9$H$l%=%k%-%0%(%l%m%<%[$P%n%>%c%+%o%|%1%p$J%#%q%r%s%t++++++++++",
"++++++++++++%u$X@]@^%*%^%v$l%=%w%x%y%(%l%m%<%[%z%n%>%A%B%o%|%1%p$J%#%C%r%D%E++++++++++++",
"++++++++++++%F%G@o%*%^$H$l%=@G%x%0%H%l%m%I%[$P$I%J%c%B%K%|%1%p%L%#%M%N%D%O++++++++++++++",
"++++++++++++++%P%Q%R%S$l%=@G%-#R%a%l$Z%<%[%T%n%>%A%B%o%|%1%p%U%#%2%)%V%W++++++++++++++++",
"++++++++++++++++++%X%Y%=@G%x%0%H%l%m%<%[%z%n%>%A%B%o%|%1$Q$J%#%2%Z&+&@++++++++++++++++++",
"++++++++++++++++++++&#&$&%%0%H%b%m%<%[%z&&%J%A&*%o&=%1%p$J&-%M&;&>++++++++++++++++++++++",
"++++++++++++++++++++++&,&'&)&!&~&{%[%T&]%J&^%B%o&=&/%p&(&_&:&<&[++++++++++++++++++++++++",
"++++++++++++++++++++++++++++&}&|&1&2&3&4&5&6&7&8&9&0&a&b&c++++++++++++++++++++++++++++++",
"++++++++++++++++++++++++++++++++++++&d&e&f&g&h&i&j&k++++++++++++++++++++++++++++++++++++",
"++++++++++++++++++++++++++++++++++++++++++++++++++++++++++++++++++++++++++++++++++++++++"};
