/* XPM */
static char * ball_red_xpm[] = {
"44 44 570 2",
"*9 c #B16E64",
"*8 c #B56A4D",
"*7 c #B06235",
"*6 c #AD622C",
"*5 c #AF642D",
"*4 c #B46A44",
"*3 c #B27262",
"*2 c #B0716D",
"*1 c #B46B57",
"*| c #A85F36",
"*} c #AD6336",
"*[ c #AC6232",
"*< c #AE6232",
"*: c #A8612E",
"*_ c #A95F2B",
"*( c #B16630",
"*/ c #B06736",
"*^ c #AA612E",
"*] c #AB663F",
"*{ c #BE7347",
"*~ c #B88077",
"*! c #BE6F48",
"*) c #AA623E",
"*' c #AF6337",
"*, c #A95F2D",
"*> c #A55C28",
"*; c #B5662E",
"*- c #B66934",
"*= c #B46F45",
"** c #B37355",
"*& c #BD7B62",
"*% c #BA7049",
"*$ c #B36937",
"*# c #B36A35",
"*@ c #BC7647",
"*+ c #C27B4E",
"&Z c #B46541",
"&Y c #AF693A",
"&X c #B36B31",
"&W c #B56E37",
"&V c #A86B4E",
"&U c #B56E59",
"&T c #B96E39",
"&S c #AF6B33",
"&R c #B47A58",
"&Q c #BA897A",
"&P c #AF664E",
"&O c #A86133",
"&N c #B36D30",
"&M c #B57851",
"&L c #B58170",
"&K c #AA6654",
"&J c #A15B30",
"&I c #B67852",
"&H c #C59384",
"&G c #BB683F",
"&F c #AC6032",
"&E c #A5602E",
"&D c #A96E49",
"&C c #9C6266",
"&B c #9A593C",
"&A c #814C2F",
"&z c #A1776B",
"&y c #94553D",
"&x c #804726",
"&w c #AF6C40",
"&v c #C78C67",
"&u c #B86C41",
"&t c #B06633",
"&s c #BC774B",
"&r c #B86F3E",
"&q c #B26C39",
"&p c #AE6D67",
"&o c #B8713A",
"&n c #B26930",
"&m c #BA7D57",
"&l c #AD6650",
"&k c #A8602D",
"&j c #B4764E",
"&i c #81493B",
"&h c #B46D2F",
"&g c #AA6436",
"&f c #C09280",
"&e c #94512D",
"&d c #B96E31",
"&c c #BA6C31",
"&b c #B4682D",
"&a c #AD622E",
"&0 c #B06D45",
"&9 c #B06D5E",
"&8 c #A05B2E",
"&7 c #A95F29",
"&6 c #AA602A",
"&5 c #AF622B",
"&4 c #B2652D",
"&3 c #B2672C",
"&2 c #B3652A",
"&1 c #B1642B",
"&| c #B57954",
"&} c #B26546",
"&[ c #AD6331",
"&< c #AB622C",
"&: c #AF652C",
"&_ c #AA642C",
"&( c #AB612B",
"&/ c #AD642C",
"&^ c #A45D29",
"&] c #AC6029",
"&{ c #A95D29",
"&~ c #A65B28",
"&! c #B0662D",
"&) c #9E5A29",
"&' c #AC622B",
"&, c #AD622A",
"&> c #B5784F",
"&; c #96512F",
"&- c #8C4E28",
"&= c #915328",
"&* c #8D5027",
"&& c #884B25",
"&% c #8A4D26",
"&$ c #955226",
"&# c #8F4F25",
"&@ c #8C4E25",
"&+ c #8E4E26",
"%Z c #905127",
"%Y c #945427",
"%X c #955529",
"%W c #8F5329",
"%V c #905228",
"%U c #9A5627",
"%T c #985628",
"%S c #9B5F37",
"%R c #9A5729",
"%Q c #9E5C2A",
"%P c #975627",
"%O c #9D5B29",
"%N c #9B5827",
"%M c #975527",
"%L c #824A25",
"%K c #814925",
"%J c #7E4826",
"%I c #7D4826",
"%H c #774324",
"%G c #7E4725",
"%F c #894D25",
"%E c #8D4F25",
"%D c #965427",
"%C c #A05B29",
"%B c #9F5A28",
"%A c #9E5B2B",
"%z c #995729",
"%y c #945428",
"%x c #995829",
"%w c #985728",
"%v c #98582A",
"%u c #935528",
"%t c #8C4F26",
"%s c #7D4625",
"%r c #7B4525",
"%q c #854C27",
"%p c #844B27",
"%o c #884D26",
"%n c #874C26",
"%m c #8C4E26",
"%l c #9D5A29",
"%k c #975628",
"%j c #955528",
"%i c #9A592B",
"%h c #9D5932",
"%g c #97552A",
"%f c #8F4E25",
"%e c #925227",
"%d c #935428",
"%c c #935328",
"%b c #905027",
"%a c #8F5127",
"%0 c #915428",
"%9 c #905227",
"%8 c #965629",
"%7 c #915127",
"%6 c #8E4E25",
"%5 c #925127",
"%4 c #965225",
"%3 c #8E4F26",
"%2 c #915126",
"%1 c #975A35",
"%| c #B26A4B",
"%} c #B16632",
"%[ c #A6602B",
"%< c #AE652D",
"%: c #A75E2A",
"%_ c #AE632B",
"%( c #A7602A",
"%/ c #A7602C",
"%^ c #AA612A",
"%] c #AC612C",
"%{ c #AF652E",
"%~ c #B1662D",
"%! c #A9602B",
"%) c #A75C28",
"%' c #A75B28",
"%, c #A7602B",
"%> c #AB602B",
"%; c #AC602B",
"%- c #B57A51",
"%= c #B37364",
"%* c #AB6230",
"%& c #9A5628",
"%% c #9F5929",
"%$ c #A85F29",
"%# c #A75D28",
"%@ c #AF632B",
"%+ c #B4662C",
"$Z c #B4662B",
"$Y c #A8612C",
"$X c #A45F2A",
"$W c #AB6029",
"$V c #9D5828",
"$U c #995527",
"$T c #B07855",
"$S c #AF6333",
"$R c #874924",
"$Q c #7A4222",
"$P c #975427",
"$O c #A35927",
"$N c #B4652C",
"$M c #BB6D2E",
"$L c #B86B2D",
"$K c #B2672E",
"$J c #B86B2F",
"$I c #B66B2F",
"$H c #B3692F",
"$G c #8D4E25",
"$F c #804523",
"$E c #924F25",
"$D c #915025",
"$C c #8B4F2B",
"$B c #936044",
"$A c #AD6847",
"$z c #733C20",
"$y c #7D4423",
"$x c #945226",
"$w c #995426",
"$v c #A55B28",
"$u c #AF622A",
"$t c #B5682C",
"$s c #B86D2E",
"$r c #AF652B",
"$q c #B26B2F",
"$p c #8F5227",
"$o c #915227",
"$n c #955427",
"$m c #AB5E28",
"$l c #975326",
"$k c #7C4A31",
"$j c #B29487",
"$i c #AF6E57",
"$h c #A7622E",
"$g c #A15B2A",
"$f c #9D5829",
"$e c #9D5928",
"$d c #9A5829",
"$c c #9F5A29",
"$b c #A6602A",
"$a c #AD622B",
"$0 c #B2672D",
"$9 c #B56A2E",
"$8 c #B4692E",
"$7 c #B86D2F",
"$6 c #B26D30",
"$5 c #AB682F",
"$4 c #A9662D",
"$3 c #AA652D",
"$2 c #A35E29",
"$1 c #A35D29",
"$| c #A8612B",
"$} c #B17952",
"$[ c #AF7971",
"$< c #AF6739",
"$: c #B67331",
"$_ c #B57131",
"$( c #B77131",
"$/ c #B36C2F",
"$^ c #AA622B",
"$] c #A65D28",
"${ c #A95E29",
"$~ c #A45B29",
"$! c #A55E29",
"$) c #A9612C",
"$' c #AB622B",
"$, c #AE672D",
"$> c #A7622B",
"$; c #B36D2F",
"$- c #AC672D",
"$= c #A6632B",
"$* c #A9642C",
"$& c #B06C2F",
"$% c #B77535",
"$$ c #C28F63",
"$# c #B36D41",
"$@ c #B57032",
"$+ c #BC7834",
"#Z c #B87232",
"#Y c #B56D30",
"#X c #B2692F",
"#W c #AF6B30",
"#V c #A55F2B",
"#U c #A05928",
"#T c #AD612A",
"#S c #A65F29",
"#R c #AB632B",
"#Q c #AF672D",
"#P c #B97941",
"#O c #BE7549",
"#N c #B76A34",
"#M c #A7622C",
"#L c #A8632D",
"#K c #AE692F",
"#J c #B46C2E",
"#I c #B76D2F",
"#H c #B86D30",
"#G c #BC7433",
"#F c #B66A2E",
"#E c #B6672B",
"#D c #B0622A",
"#C c #AA5E29",
"#B c #A55A28",
"#A c #A45C29",
"#z c #935226",
"#y c #9C5728",
"#x c #995627",
"#w c #9D5727",
"#v c #A45D2A",
"#u c #A9652D",
"#t c #A8632C",
"#s c #C18657",
"#r c #AD6B49",
"#q c #9A572A",
"#p c #7C4725",
"#o c #864B25",
"#n c #844925",
"#m c #8C5127",
"#l c #985929",
"#k c #995A2B",
"#j c #95572A",
"#i c #925428",
"#h c #9B5A29",
"#g c #985828",
"#f c #985527",
"#e c #995325",
"#d c #9F5626",
"#c c #9F5827",
"#b c #9B5526",
"#a c #9B5729",
"#0 c #9D5728",
"#9 c #915026",
"#8 c #894B25",
"#7 c #824825",
"#6 c #7B4524",
"#5 c #8D5F42",
"#4 c #A37F6B",
"#3 c #A57879",
"#2 c #8A5641",
"#1 c #834825",
"#| c #9F5928",
"#} c #A25D2A",
"#[ c #995929",
"#< c #915429",
"#: c #995B2B",
"#_ c #9D5C2B",
"#( c #9A592A",
"#/ c #874C25",
"#^ c #814724",
"#] c #834A26",
"#{ c #7F4725",
"#~ c #7D4624",
"#! c #824724",
"#) c #8B4C25",
"#' c #905026",
"#, c #995526",
"#> c #9E5928",
"#; c #9F5727",
"#- c #A15625",
"#= c #9C5526",
"#* c #A36235",
"#& c #B9917A",
"#% c #9B6248",
"#$ c #A26137",
"## c #A75D29",
"#@ c #B0632B",
"#+ c #B5672D",
"@Z c #B5682D",
"@Y c #B76C2F",
"@X c #BB7232",
"@W c #B56B2E",
"@V c #B56D2F",
"@U c #B56E30",
"@T c #AF682E",
"@S c #AA622C",
"@R c #AA642E",
"@Q c #A15D2A",
"@P c #9A5527",
"@O c #9C5627",
"@N c #9B5627",
"@M c #955327",
"@L c #9A5727",
"@K c #A35A27",
"@J c #A55C29",
"@I c #A9612F",
"@H c #BC7F53",
"@G c #BB8066",
"@F c #AA6536",
"@E c #A25B28",
"@D c #AE642C",
"@C c #AA612B",
"@B c #B16B30",
"@A c #B1682E",
"@z c #B67031",
"@y c #BE7A36",
"@x c #B97433",
"@w c #B16A2E",
"@v c #AF642B",
"@u c #A9602A",
"@t c #A65E29",
"@s c #A45D28",
"@r c #A45C28",
"@q c #A25A28",
"@p c #A25C2A",
"@o c #B57F5C",
"@n c #D4B19B",
"@m c #B87D60",
"@l c #B3713B",
"@k c #AA5F2A",
"@j c #A85E28",
"@i c #A35B28",
"@h c #B0672D",
"@g c #A8602B",
"@f c #AE652C",
"@e c #B26C2E",
"@d c #B67032",
"@c c #B66F31",
"@b c #B57031",
"@a c #B67131",
"@0 c #B26D2F",
"@9 c #A8642D",
"@8 c #AF6A2E",
"@7 c #AF6B2F",
"@6 c #AD652D",
"@5 c #A85F2A",
"@4 c #A9612B",
"@3 c #AA602C",
"@2 c #BD845C",
"@1 c #CAA189",
"@| c #BA866C",
"@} c #AE6D3D",
"@[ c #B56F31",
"@< c #B66C2E",
"@: c #B3682D",
"@_ c #B66B2E",
"@( c #B1672C",
"@/ c #AF662D",
"@^ c #B0632A",
"@] c #AA632B",
"@{ c #975528",
"@~ c #A05C2B",
"@! c #A05B2A",
"@) c #A75F2A",
"@' c #A55D29",
"@, c #A45E29",
"@> c #A25D29",
"@; c #A6622C",
"@- c #AA672E",
"@= c #A5622C",
"@* c #B46E30",
"@& c #B56B2F",
"@% c #B97136",
"@$ c #C58E67",
"@# c #D2AB93",
"@@ c #B47756",
"@+ c #B77645",
"+Z c #B57033",
"+Y c #B26C2F",
"+X c #AE662D",
"+W c #AF662C",
"+V c #B76B2D",
"+U c #B6682C",
"+T c #B2642A",
"+S c #AE622B",
"+R c #985325",
"+Q c #955126",
"+P c #7D4322",
"+O c #723C20",
"+N c #7A4323",
"+M c #935126",
"+L c #AB5D28",
"+K c #A45A27",
"+J c #945327",
"+I c #8E5127",
"+H c #905329",
"+G c #B06A2F",
"+F c #B5743B",
"+E c #BF8B63",
"+D c #C4835A",
"+C c #BA723D",
"+B c #A8612A",
"+A c #A15A28",
"+z c #B76B2E",
"+y c #BA6C2E",
"+x c #B3652B",
"+w c #AA5E28",
"+v c #A25927",
"+u c #965428",
"+t c #834925",
"+s c #7C4222",
"+r c #894B24",
"+q c #904F25",
"+p c #864924",
"+o c #834622",
"+n c #914F25",
"+m c #A35D2A",
"+l c #B36E38",
"+k c #C38756",
"+j c #CB8F5F",
"+i c #B67854",
"+h c #BB7B50",
"+g c #BA7243",
"+f c #B26730",
"+e c #B0632C",
"+d c #AB612A",
"+c c #A75E29",
"+b c #A65E2A",
"+a c #A25928",
"+0 c #A25B29",
"+9 c #A35C29",
"+8 c #9C5727",
"+7 c #9E5827",
"+6 c #9B5828",
"+5 c #A45B28",
"+4 c #A65C28",
"+3 c #AA612C",
"+2 c #AF6B39",
"+1 c #A9724D",
"+| c #BA8A6A",
"+} c #CEA07C",
"+[ c #CAA091",
"+< c #C59075",
"+: c #B67345",
"+_ c #B57041",
"+( c #B16A35",
"+/ c #AF6A37",
"+^ c #AE6631",
"+] c #B0652D",
"+{ c #AB642C",
"+~ c #A35D2C",
"+! c #AF6835",
"+) c #B4703E",
"+' c #AE6733",
"+, c #B1754C",
"+> c #BD7F54",
"+; c #D3AD98",
"+- c #C49986",
"+= c #BD8769",
"+* c #B37447",
"+& c #AE6731",
"+% c #AA652E",
"+$ c #AC683A",
"+# c #BA815B",
"+@ c #C39B84",
"++ c None",
"++++++++++++++++++++++++++++++++++++++++++++++++++++++++++++++++++++++++++++++++++++++++",
"+++++++++++++++++++++++++++++++++++++@+#+$+%+&+*+=+-++++++++++++++++++++++++++++++++++++",
"+++++++++++++++++++++++++++++;+>+,+'+)+!+~+{+]+^+/+(+_+:+<+[++++++++++++++++++++++++++++",
"+++++++++++++++++++++++}+|+1+2+3+4+5+6+7+8+9+0+a+b+c+d+e+f+g+h+i++++++++++++++++++++++++",
"+++++++++++++++++++++j+k+l+m+n+o+p+q+n+r+s+t+u+v+w+x+y+y+z+A+B+C+D++++++++++++++++++++++",
"+++++++++++++++++++E+F+G+H+I+J+K+L+M+N+O+P+r+Q+R+K+S+T+U+V+W+X+Y+Z@+@@++++++++++++++++++",
"++++++++++++++@#@$@%@&@*@=@-@;@>@,@'@)+m@!@~+6@{@)@]@^@/@(@_@:@<@&@[@}@|++++++++++++++++",
"++++++++++++@1@2@3@4+{@5@6@7@8@;@9@0@a@b@c@d@e@f@g@h+d+c@i@j@k@4+{@5@6@l@m++++++++++++++",
"++++++++++@n@o@p+a@q@r+9+4@s@t@u@v@w@x@y@x@z@A@B@C@D+B@q+A@E+a@q@r+9+4@s@F@G++++++++++++",
"++++++++++@H@I@J@K@L@M+6@N@O@P@Q@R@S@T@U@V@W@W@X@Y@Z#+#@##@J@K@L@M+6@N@O@P#$#%++++++++++",
"++++++++#&#*@P#=#-#;#;#>#,#'#)#!#~#{#]#^#/#(#_#:#<#[#}#|@P#=#-#;#;#>#,#'#)#1#2#3++++++++",
"++++++#4#5#6#7#8#9#0#a#b#c#d#e#b#f#g#h#i#j#k#l#m#n#o#p#6#7#8#9#0#a#b#c#d#e#b#q#r++++++++",
"++++++#s#t#u#v@N#w#x#y#z@L#A#B#C#D#E+U#F#G#H#I#J#K#L#M#u#v@N#w#x#y#z@L#A#B#C#D#N#O++++++",
"++++++#P#Q#R+B#S@i@q#T@J+A#c#U#U#V@g@/@5#W#X#Y#Z$+$@#Q#R+B#S@i@q#T@J+A#c#U#U#V@g$#++++++",
"++++$$$%$&$*$=$-$;$>$,$'$)$!$~${+b$]$^$^@A$/@b$($_$:$&$*$=$-$;$>$,$'$)$!$~${+b$]$<$[++++",
"++++$}@)$|$1$2$3$4$5$6$/$7$8$9$0@f$a$b@>$c$d$e$f$g@)$|$1$2$3$4$5$6$/$7$8$9$0@f$a$h$i++++",
"++$j$k+s$l$m@i$n$o$p$q$6$;+X$r$s$t#D$u$v$w$x+p$y$z+s$l$m@i$n$o$p$q$6$;+X$r$s$t#D$u$A++++",
"++$B$C$D$E#8$F$G#v$H$I$J$K+b+0$L$M+y$N#C$O$P#n$Q$R$D$E#8$F$G#v$H$I$J$K+b+0$L$M+y$N$S++++",
"++$T@q$U$V$v${$W$X+b@g@C$Y$K$Z%+%@@u%#%$%%%&@q#w@q$U$V$v${$W$X+b@g@C$Y$K$Z%+%@@u%#%*%=++",
"++%-%;%>%,@'#C%'%)%'%!%~%{%]%^%/+0%(%_@v%:%_%<%[%;%>%,@'#C%'%)%'%!%~%{%]%^%/+0%(%_%}%|++",
"++%1%2$P$n%3+M%4%5%6%7$o%8@M$x%9%0%a%b$n%c%d%e%f%2$P$n%3+M%4%5%6%7$o%8@M$x%9%0%a%b%g%h++",
"++%i%j%k%l$U$l+M%m%n%o%p%q%r%s#o%t%a%u%v%w%x%y%z%j%k%l$U$l+M%m%n%o%p%q%r%s#o%t%a%u%v#q++",
"++%A%B%C%D%E%F%G%H%I%J%K%L%o%M#>%N%O#x%M%P%j%Q%l%B%C%D%E%F%G%H%I%J%K%L%o%M#>%N%O#x#f%R++",
"++%S%T%U%D%V%W%X%e%Y%a%Z&+&@&#&$&#%a&%&%&&&*&=%u%T%U%D%V%W%X%e%Y%a%Z&+&@&#&$&#%a&%&-&;++",
"++&>$^&,&'#v&)$|@C+X&!%:&~&~&{&]&^@5&/&(@E&_&:&<$^&,&'#v&)$|@C+X&!%:&~&~&{&]&^@5&/&[&}++",
"++&|%:+c+d#@&1&2$8&3&4&5##$c&6&7+4+5+6+7+8+9+0+a+b+c+d#@&1&2$8&3&4&5##$c&6&7+4+5+6&8&9++",
"++&0&a+x+y+y+z+A+B&b&c&d@h+m+n+o+p+q+n+r+s+t+u+v+w+x+y+y+z+A+B&b&c&d@h+m+n+o+p+q+n&e++++",
"++&f&g+S+T+U+V+W+X+Y&h+G+H+I+J+K+L+M+N+O+P+r+Q+R+K+S+T+U+V+W+X+Y&h+G+H+I+J+K+L+M+N&i++++",
"++++&j@]@^@/@(@_@:@<@&@*@=@-@;@>@,@'@)+m@!@~+6@{@)@]@^@/@(@_@:@<@&@*@=@-@;@>@,@'&k&l++++",
"++++&m&n+d+c@i@j@k@4+{@5@6@7@8@;@9@0@a@b@c@d@e@f@g@h+d+c@i@j@k@4+{@5@6@7@8@;@9@0&o&p++++",
"++++++&q+B@q+A@E+a@q@r+9+4@s@t@u@v@w@x@y@x@z@A@B@C@D+B@q+A@E+a@q@r+9+4@s@t@u@v@w&r++++++",
"++++++&s#+#@##@J@K@L@M+6@N@O@P@Q@R@S@T@U@V@W@W@X@Y@Z#+#@##@J@K@L@M+6@N@O@P@Q@R&t&u++++++",
"++++++&v&w#|@P#=#-#;#;#>#,#'#)#!#~#{#]#^#/#(#_#:#<#[#}#|@P#=#-#;#;#>#,#'#)#!&x&y++++++++",
"++++++++&z&A#7#8#9#0#a#b#c#d#e#b#f#g#h#i#j#k#l#m#n#o#p#6#7#8#9#0#a#b#c#d#e#b&B&C++++++++",
"++++++++++&D&E@N#w#x#y#z@L#A#B#C#D#E+U#F#G#H#I#J#K#L#M#u#v@N#w#x#y#z@L#A#B&F&G++++++++++",
"++++++++++&H&I$b@i@q#T@J+A#c#U#U#V@g@/@5#W#X#Y#Z$+$@#Q#R+B#S@i@q#T@J+A#c&J&K++++++++++++",
"++++++++++++&L&M&N$>$,$'$)$!$~${+b$]$^$^@A$/@b$($_$:$&$*$=$-$;$>$,$'$)&O&P++++++++++++++",
"++++++++++++++&Q&R&S$6$/$7$8$9$0@f$a$b@>$c$d$e$f$g@)$|$1$2$3$4$5$6$/&T&U++++++++++++++++",
"++++++++++++++++++&V&W$6$;+X$r$s$t#D$u$v$w$x+p$y$z+s$l$m@i$n$o$p&X&Y&Z++++++++++++++++++",
"++++++++++++++++++++*+*@*#+b+0$L$M+y$N#C$O$P#n$Q$R$D$E#8$F$G#v*$*%++++++++++++++++++++++",
"++++++++++++++++++++++*&***=*-*;%@@u%#%$%%%&@q#w@q$U$V*>*,*'*)*!++++++++++++++++++++++++",
"++++++++++++++++++++++++++++*~*{*]*^*/*(*_%_+X*:*<*[*}*|*1*2++++++++++++++++++++++++++++",
"++++++++++++++++++++++++++++++++++++*3*4*<*5*6*7*8*9++++++++++++++++++++++++++++++++++++",
"++++++++++++++++++++++++++++++++++++++++++++++++++++++++++++++++++++++++++++++++++++++++"};
