/* XPM */
static char * ball_red_xpm[] = {
"44 44 422 2",
"%C c #50FF60",
"%B c #52FF62",
"%A c #55FE64",
"%z c #56FF65",
"%y c #7CFF87",
"%x c #84FF8E",
"%w c #4FFE5F",
"%v c #57FE65",
"%u c #5CFF6A",
"%t c #63FF71",
"%s c #6BFE78",
"%r c #71FF7D",
"%q c #73FE80",
"%p c #78FF85",
"%o c #4EFE5E",
"%n c #56FF66",
"%m c #63FF72",
"%l c #69FE76",
"%k c #7EFF89",
"%j c #8DFE98",
"%i c #4FFE5E",
"%h c #56FE65",
"%g c #5BFE6B",
"%f c #5EFF6D",
"%e c #6BFE79",
"%d c #7BFF87",
"%c c #83FF8E",
"%b c #8BFF95",
"%a c #98FFA2",
"%0 c #4EFF5E",
"%9 c #4FFF5F",
"%8 c #51FF61",
"%7 c #73FF80",
"%6 c #76FF82",
"%5 c #7BFE87",
"%4 c #83FF8F",
"%3 c #9EFFA6",
"%2 c #50FF5F",
"%1 c #51FE61",
"%| c #54FE63",
"%} c #57FE66",
"%[ c #59FE68",
"%< c #5EFE6D",
"%: c #66FE74",
"%_ c #6EFE7B",
"%( c #74FE80",
"%/ c #76FE82",
"%^ c #78FE85",
"%] c #83FE8E",
"%{ c #8BFE95",
"%~ c #91FE9A",
"%! c #98FEA2",
"%) c #9EFEA6",
"%' c #53FF62",
"%, c #54FF63",
"%> c #5AFE68",
"%; c #5CFF6B",
"%- c #91FF9A",
"%= c #93FE9D",
"%* c #96FF9F",
"%& c #55FF65",
"%% c #57FF66",
"%$ c #5CFE6A",
"%# c #69FF76",
"%@ c #6EFF7B",
"%+ c #93FF9D",
"$Z c #9BFFA4",
"$Y c #58FF67",
"$X c #59FF68",
"$W c #5FFE6D",
"$V c #61FE6F",
"$U c #64FE72",
"$T c #67FE74",
"$S c #69FE77",
"$R c #6EFF7C",
"$Q c #7CFE87",
"$P c #7EFE8A",
"$O c #86FE91",
"$N c #89FE93",
"$M c #8BFF96",
"$L c #9BFEA4",
"$K c #A3FEAB",
"$J c #5AFF69",
"$I c #5CFE6B",
"$H c #61FF6F",
"$G c #66FF74",
"$F c #74FF80",
"$E c #7EFF8A",
"$D c #86FF91",
"$C c #96FE9F",
"$B c #B2FFB8",
"$A c #5DFE6C",
"$z c #5FFF6D",
"$y c #71FF7E",
"$x c #76FF83",
"$w c #9BFFA5",
"$v c #5FFF6E",
"$u c #61FF70",
"$t c #67FF74",
"$s c #76FE83",
"$r c #81FF8C",
"$q c #87FF91",
"$p c #8EFE98",
"$o c #A3FFAC",
"$n c #A6FFAE",
"$m c #A9FFB0",
"$l c #AEFFB5",
"$k c #B1FEB7",
"$j c #62FE70",
"$i c #64FF72",
"$h c #67FE75",
"$g c #69FF77",
"$f c #6CFE79",
"$e c #6FFE7B",
"$d c #79FF85",
"$c c #94FF9D",
"$b c #96FFA0",
"$a c #ABFFB3",
"$0 c #B6FFBC",
"$9 c #B8FFBF",
"$8 c #65FF73",
"$7 c #67FF75",
"$6 c #74FF81",
"$5 c #79FE85",
"$4 c #97FE9F",
"$3 c #9CFFA4",
"$2 c #9EFFA7",
"$1 c #A6FEAE",
"$| c #ABFEB3",
"$} c #68FE75",
"$[ c #6AFF77",
"$< c #6CFE7A",
"$: c #7CFF88",
"$_ c #81FF8D",
"$( c #99FFA2",
"$/ c #A7FEAE",
"$^ c #AEFEB5",
"$] c #B3FEBA",
"${ c #B6FFBD",
"$~ c #BCFFC1",
"$! c #6AFE77",
"$) c #6CFF79",
"$' c #6FFF7C",
"$, c #77FF83",
"$> c #7AFF85",
"$; c #7FFF8A",
"$- c #82FF8C",
"$= c #89FF94",
"$* c #91FF9B",
"$& c #A1FFA9",
"$% c #A6FFAF",
"$$ c #B3FFBA",
"$# c #BBFFC1",
"$@ c #6DFF7A",
"$+ c #6FFE7C",
"#Z c #71FE7E",
"#Y c #74FE81",
"#X c #79FE86",
"#W c #81FE8C",
"#V c #84FE8F",
"#U c #89FE94",
"#T c #8CFE96",
"#S c #96FEA0",
"#R c #9EFEA7",
"#Q c #A1FEA9",
"#P c #A6FEAF",
"#O c #A9FEB0",
"#N c #AEFEB6",
"#M c #BBFEC2",
"#L c #C3FEC9",
"#K c #70FE7D",
"#J c #72FF7E",
"#I c #77FE83",
"#H c #7AFF86",
"#G c #94FE9D",
"#F c #BBFEC1",
"#E c #C1FFC6",
"#D c #73FF7F",
"#C c #75FF81",
"#B c #99FEA2",
"#A c #ACFEB3",
"#z c #AEFFB6",
"#y c #B9FFBF",
"#x c #75FF82",
"#w c #7CFE88",
"#v c #7FFE8A",
"#u c #82FE8D",
"#t c #84FE90",
"#s c #87FE92",
"#r c #99FEA3",
"#q c #A4FEAC",
"#p c #B6FEBD",
"#o c #B9FEBF",
"#n c #BEFEC4",
"#m c #C1FEC7",
"#l c #CDFFD2",
"#k c #77FF84",
"#j c #7AFE86",
"#i c #7DFF88",
"#h c #92FF9B",
"#g c #9FFFA7",
"#f c #A1FFAA",
"#e c #A5FFAC",
"#d c #A7FFAE",
"#c c #B4FEBA",
"#b c #BEFFC4",
"#a c #D0FFD5",
"#0 c #7BFE86",
"#9 c #8CFF97",
"#8 c #99FFA3",
"#7 c #9CFFA5",
"#6 c #D3FFD7",
"#5 c #7DFF89",
"#4 c #7FFF8B",
"#3 c #84FF8F",
"#2 c #8AFF94",
"#1 c #94FE9E",
"#| c #B1FEB8",
"#} c #80FE8B",
"#[ c #82FF8D",
"#< c #87FF92",
"#: c #A4FFAC",
"#_ c #ACFFB3",
"#( c #B1FFB8",
"#/ c #B9FFC0",
"#^ c #C6FECC",
"#] c #D8FFDC",
"#{ c #82FF8E",
"#~ c #85FF90",
"#! c #88FE92",
"#) c #8FFE99",
"#' c #97FEA0",
"#, c #A5FEAC",
"#> c #BFFFC4",
"#; c #C7FECB",
"#- c #C9FECE",
"#= c #CCFFD0",
"#* c #CEFED3",
"#& c #D6FFDA",
"#% c #DBFFDE",
"#$ c #85FE90",
"## c #88FF92",
"#@ c #8AFE94",
"#+ c #8FFF99",
"@Z c #9DFEA5",
"@Y c #A4FFAD",
"@X c #AFFEB7",
"@W c #BCFFC3",
"@V c #C7FFCB",
"@U c #C9FFCE",
"@T c #88FE93",
"@S c #88FF93",
"@R c #8AFF95",
"@Q c #90FF99",
"@P c #9DFFA5",
"@O c #9FFFA8",
"@N c #BCFFC2",
"@M c #C4FFC9",
"@L c #CEFFD3",
"@K c #D1FFD5",
"@J c #D9FFDD",
"@I c #DEFFE1",
"@H c #E0FFE3",
"@G c #89FF93",
"@F c #8AFE95",
"@E c #8DFE97",
"@D c #92FE9C",
"@C c #A2FEAA",
"@B c #AAFEB1",
"@A c #ACFEB4",
"@z c #AFFEB6",
"@y c #B4FEBB",
"@x c #B7FEBD",
"@w c #C1FFC7",
"@v c #C4FEC9",
"@u c #CCFED1",
"@t c #D2FED5",
"@s c #DFFFE1",
"@r c #E3FFE6",
"@q c #8CFF96",
"@p c #8DFF97",
"@o c #90FF9A",
"@n c #95FE9E",
"@m c #97FFA1",
"@l c #BDFEC2",
"@k c #CFFED3",
"@j c #D1FFD6",
"@i c #E6FFE8",
"@h c #8EFF98",
"@g c #90FE9A",
"@f c #95FF9F",
"@e c #A2FFAA",
"@d c #BCFEC3",
"@c c #C4FFCA",
"@b c #CAFECE",
"@a c #D1FED5",
"@0 c #E9FFEA",
"@9 c #91FE9B",
"@8 c #92FF9C",
"@7 c #98FEA1",
"@6 c #9DFEA6",
"@5 c #9FFEA8",
"@4 c #A7FEAF",
"@3 c #AAFFB1",
"@2 c #BAFEC0",
"@1 c #C2FEC7",
"@| c #C4FECA",
"@} c #D9FEDD",
"@[ c #DCFEDF",
"@< c #DFFEE2",
"@: c #EBFFED",
"@_ c #94FF9E",
"@( c #95FF9E",
"@/ c #97FEA1",
"@^ c #CCFFD1",
"@] c #EEFFF0",
"@{ c #97FFA0",
"@~ c #98FFA1",
"@! c #9AFFA3",
"@) c #A0FFA9",
"@' c #A3FFAB",
"@, c #A7FFAF",
"@> c #AAFFB2",
"@; c #CAFFCF",
"@- c #CFFFD3",
"@= c #D4FFD8",
"@* c #D7FFDB",
"@& c #DDFFDF",
"@% c #E4FFE7",
"@$ c #ECFFEE",
"@# c #EFFFF1",
"@@ c #F1FFF2",
"@+ c #9AFFA2",
"+Z c #9AFEA3",
"+Y c #A2FFAB",
"+X c #A8FFAF",
"+W c #ABFFB2",
"+V c #ADFEB4",
"+U c #B0FFB7",
"+T c #B2FEB9",
"+S c #B5FEBB",
"+R c #B7FEBE",
"+Q c #BAFFC0",
"+P c #BDFFC3",
"+O c #BFFFC5",
"+N c #C2FFC7",
"+M c #C5FFCA",
"+L c #C7FFCC",
"+K c #CAFECF",
"+J c #CDFFD1",
"+I c #CFFED4",
"+H c #D2FED6",
"+G c #D5FED8",
"+F c #D7FFDA",
"+E c #DAFFDD",
"+D c #DDFFE0",
"+C c #E2FFE4",
"+B c #E5FFE7",
"+A c #E7FEE9",
"+z c #EAFFEC",
"+y c #ECFEEE",
"+x c #EFFEF0",
"+w c #F2FEF3",
"+v c #F4FFF4",
"+u c #9CFEA5",
"+t c #9DFFA6",
"+s c #A0FFA8",
"+r c #A2FEAB",
"+q c #A5FFAD",
"+p c #A8FEAF",
"+o c #AAFEB2",
"+n c #ADFFB4",
"+m c #B0FEB7",
"+l c #B5FFBB",
"+k c #B7FFBE",
"+j c #BAFFC1",
"+i c #BDFFC2",
"+h c #C2FFC8",
"+g c #C5FECA",
"+f c #C7FECC",
"+e c #CAFFCE",
"+d c #CDFED1",
"+c c #CFFFD4",
"+b c #D2FFD6",
"+a c #D4FED8",
"+0 c #D7FEDA",
"+9 c #D9FFDC",
"+8 c #DCFFDF",
"+7 c #DFFFE2",
"+6 c #E1FEE4",
"+5 c #E4FFE6",
"+4 c #E7FFE9",
"+3 c #E9FFEB",
"+2 c #EBFEEC",
"+1 c #EEFFEF",
"+| c #F0FFF2",
"+} c #F3FFF4",
"+[ c #F5FEF6",
"+< c #9FFEA7",
"+: c #A0FEA8",
"+_ c #A3FFAA",
"+( c #A5FEAD",
"+/ c #A8FFB0",
"+^ c #A9FFB1",
"+] c #ACFFB4",
"+{ c #AFFFB6",
"+~ c #B2FFB9",
"+! c #B4FFBB",
"+) c #B7FFBD",
"+' c #BAFFBF",
"+, c #BCFEC2",
"+> c #BFFEC5",
"+; c #C0FEC6",
"+- c #C3FFC8",
"+= c #C6FFCB",
"+* c #C8FFCD",
"+& c #CBFFCF",
"+% c #CEFFD2",
"+$ c #D0FED4",
"+# c #D3FFD6",
"+@ c #D5FED7",
"++ c None",
"++++++++++++++++++++++++++++++++++++++++++++++++++++++++++++++++++++++++++++++++++++++++",
"++++++++++++++++++++++++++++++++++++++++++++++++++++++++++++++++++++++++++++++++++++++++",
"++++++++++++++++++++++++++++++++++++++++++++++++++++++++++++++++++++++++++++++++++++++++",
"+++++++++++++++++++++++++++++++++++@+#+$+%+&+*+=+-+;+>+,+'+)+!+~+{+]+^+/+(+_+:+<++++++++",
"+++++++++[+}+|+1+2+3+4+5+6+7+8+9+0+a+b+c+d+e+f+g+h+>+i+j+k+l+~+m+n+o+p+q+r+s+t+u++++++++",
"+++++++++v+w+x+y+z+A+B+C+7+D+E+F+G+H+I+J+K+L+M+N+O+P+Q+R+S+T+U+V+W+X+q+Y+s+t+Z@+++++++++",
"++++++++@@@#@$+3+4@%+C+7@&+E@*@=+b@-+J@;+L+M+N+O+P+Q+k+l+~+U+n@>@,+q@'@)+t@!@~@{++++++++",
"++++++++@]@$+3+4@%+C+7+8+E@*@=+H+c@^@;+L+M+N+O+i+Q+k+S+~+U+n@>@,+q+Y+s+t@!@/@(@_++++++++",
"++++++++@:+z+4@%+6@<@[@}+0+a+H@-+J@;+L@|@1+>+,@2+R+S+~+{+n@3@4+(+r@5@6+Z@7@(@8@9++++++++",
"++++++++@0+A@%+C+7+8@}@*+a@a@-@^@b+L@c+N+O@d+Q+R+S+~+{+V@>+X+q@e+:+t+Z@7@f@8@g@h++++++++",
"++++++++@i+5+C+7+8@}+F+a@j@k@^+e+L@c+N+O@l+Q+R+!+T+{+n@>@,+q@e+:+t+Z@m@n@8@o@p@q++++++++",
"++++++++@r+6@s@[@}+0+a@t@k@u@b+f@v@w+>+,@2@x@y+T@z@A@B@4+q@C@5@6+Z@/@n@D@g@E@F@G++++++++",
"++++++++@H@I+8@J+F+a@K@L@^+e+L@M+N+O@N+Q@x+!+~+{+n@>@,+q@e@O@P+Z@m@(@8@Q@p@R@S@T++++++++",
"++++++++@I+8@J+0@=@a@-@u@U@V@v@w+O@W@2+)+S+~@X+n@>@4@Y@e@O@Z@!@/@(@D#+@p#@###$++++++++++",
"++++++++#%@J#&+a@a#*#=#-#;@|@1#>@N+Q@x@y+T+{@A@B@4#,@e@O@P+Z#'@n@8#)@E@F#!#~#{++++++++++",
"++++++++#]#&@=@K@-@u@U#^@v@w+>@N#/+)+!#(@z#_@B@4#:@C@O@P@!@{@_@D#+@E#@#<#$#[#}++++++++++",
"++++++++#&+a@a@k#=#-+L@M@w#>@N+'@x@y#|+{@A@3@,#:@e@O@P+Z#'#1@8#)@p#2#<#3#[#4#5++++++++++",
"++++++++#6@K@L#=@U+L@M@w#>@N#/+)+!#(+{#_@3@,@Y@e@O#7#8@{@(@8#+#9#2#<#~#[#4#5#0++++++++++",
"++++++++#a@L#=@U+=@M@w#b@N+Q+)#c#(+{#_+^#d#e#f#g#7@!#'@_#h#+#9#2#<#3#[#4#i#j#k++++++++++",
"++++++++#l#=@U+=@v#m#n+,#o#p@y#(+{#_+^@4#q@C+<+u#r#'@_#h#+#9@F#s#t#u#v#w#j#k#x++++++++++",
"+++++++++&#-+=@M@w#b+,#y#p#c#(#z#A+^#d#:#f+<#7#B#'@_#h#)@p#2#<#3#u#4#w#j#k#C#D++++++++++",
"+++++++++*+=@M#E#b#F#y@x+!#|#z#_+^@,#:#f@5#7+Z@{#G#h#+@q#2#<#3#u#4#w#H#I#C#J#K++++++++++",
"++++++++@c#L@w#n#M#o#p#c#|#N#A#O#P#:#Q#R+u#B#S#1@9#)#T#U#<#V#W#v#w#X#I#Y#Z$+$@++++++++++",
"+++++++++N#E#b$##y#p$$#(#z#_+^$%#:$&#g#7#B@{@_$*#+@q$=#<#3$-$;#w$>$,#C#J$'$)$!++++++++++",
"++++++++#>#b$~#o${$]#($^#_+^$/#:#f#g+u$(#S@_@9#+@q#@#<#3$_#v$:#X$,#Y#J$'$<$[$}++++++++++",
"++++++++@l$##y#p$]#|#z$|#O$1#q$&$2$3#B$4#G$*#)#T#U#s#3$_$;#w$5#I$6#Z$+$<$!$7$8++++++++++",
"++++++++@2$9$0$$#(#N$a#O$1#:#Q$2#7$($b$c@9#+#T#U#<#V$_$;$:$d$,#Y#J$e$f$g$h$i$j++++++++++",
"+++++++++k#p#c$k$l$|$m$n$o$&$2#7#B#S#G$*$p@q$=$q#3$r$;#w$5$s$6#Z$'$)$[$t$i$u$v++++++++++",
"+++++++++!$$#($l$a$m$n$o$&$2$w$($b$c$*@h@q$=$q#3$_$;$:$d$x$6$y$'$)$g$t$i$u$z$A++++++++++",
"++++++++$B#($l$a$m$n$o$&$2$3$($C$c$*@h@q@G$D#3$_$E$:$5$x$F$y$'$)$g$G$i$H$z$I$J++++++++++",
"++++++++@z$l$a+/$1$K#Q#R$L#B$C$c$*@h$M$N$O#V#W$P$Q$5$,$F$y$R$f$S$T$U$V$W$I$X$Y++++++++++",
"++++++++#_$|+/$n@'@)#R$Z#B$C%+$*$p$M@G$D#3#W$E$Q$5$x$F#Z%@$)%#$G$U$H$W%$$X%%%&++++++++++",
"+++++++++^+/$n@'@)#R$w#B%*%=%-@h$M@G$D#3#W$E$Q$d$s$F$y$R$)$g$G$U$H$W%;%>%%%,%'++++++++++",
"++++++++@,$1@'+:%)$L%!$C%=%~$p%{$N$D%]#W$P$Q%^%/%(#Z%_$f$g%:$U$V%<%$%[%}%|%1%2++++++++++",
"++++++++#:@'@)%3$Z#B%*%+$*@h$M@S$D%4$r$E%5$d%6%7$y%@$)$g$G$i$H%<%;$X%%%,%8%9%0++++++++++",
"++++++++@e@)$2$L%a$C%+@g@h%b$N$D%c$r$P%d%^$x%($y%@%e%#$G$i$V%f%g$X%h%,%8%i%0%0++++++++++",
"+++++++++<%3$Z%!$C%=@o%j%{@T$O%c$r%k%5$5%/$F#K%_$f%l$G%m$H%<%$%[%n%|%1%i%o%0%0++++++++++",
"+++++++++u$Z$(%*%+@g@h%{@T$D%]$r%k%d%p%6%q%r%_%s%#%:%t$H%f%u$X%v%,%1%w%0%o%0%0++++++++++",
"++++++++$Z@!@{#1$*#+#9$=#<%x$r$E%y$5$s$F$y%@$)$S$T$i$H$z$I%[%z%|%8%9%0%0%0%0%0++++++++++",
"++++++++++++++++++++++++++++++++++++++++++++++++++++++++++%}%A%B%C%0%0%0%o%o%0++++++++++",
"++++++++++++++++++++++++++++++++++++++++++++++++++++++++++++++++++++++++++++++++++++++++",
"++++++++++++++++++++++++++++++++++++++++++++++++++++++++++++++++++++++++++++++++++++++++",
"++++++++++++++++++++++++++++++++++++++++++++++++++++++++++++++++++++++++++++++++++++++++",
"++++++++++++++++++++++++++++++++++++++++++++++++++++++++++++++++++++++++++++++++++++++++"};
