/* XPM */
static char * ball_red_xpm[] = {
"44 44 219 2",
"#d c #F1EE42",
"#c c #F7F68D",
"#b c #F8F699",
"#a c #F7F58D",
"#0 c #F8F79F",
"#9 c #F2EF42",
"#8 c #F7F581",
"#7 c #F9F7A4",
"#6 c #F8F6A1",
"#5 c #F7F57C",
"#4 c #F7F588",
"#3 c #F2EE44",
"#2 c #F6F579",
"#1 c #FAF8AA",
"#| c #F2EF40",
"#} c #F2F041",
"#[ c #F5F374",
"#< c #F7F68E",
"#: c #F9F8AB",
"#_ c #F9F8AE",
"#( c #F4F057",
"#/ c #F3EE5A",
"#^ c #F4F369",
"#] c #F5F26C",
"#{ c #F5F371",
"#~ c #F7F694",
"#! c #FAF9AE",
"#) c #F3F15A",
"#' c #F5F378",
"#, c #F8F79A",
"#> c #F9F8B1",
"#; c #F1F040",
"#- c #F3F14F",
"#= c #F8F69A",
"#* c #FAF8B5",
"#& c #FAF8B1",
"#% c #F3F049",
"#$ c #F6F483",
"## c #FAF9BA",
"#@ c #FAF7AF",
"#+ c #F3F041",
"@Z c #F3F04A",
"@Y c #F3F150",
"@X c #FAFABC",
"@W c #FBFABC",
"@V c #F2EE42",
"@U c #F2F044",
"@T c #F2F049",
"@S c #F4F260",
"@R c #F5F266",
"@Q c #F9F8A6",
"@P c #FAF8AC",
"@O c #FAF9B7",
"@N c #FBFABE",
"@M c #F2EF41",
"@L c #F2EF44",
"@K c #F3F04F",
"@J c #F4F266",
"@I c #F5F36C",
"@H c #F6F378",
"@G c #F9F7A6",
"@F c #FAF9BD",
"@E c #FAFAC1",
"@D c #FBFABD",
"@C c #F2F045",
"@B c #F2F04A",
"@A c #F6F583",
"@z c #F3F04B",
"@y c #F3F050",
"@x c #F3F156",
"@w c #FBFAC8",
"@v c #F3F051",
"@u c #F3F155",
"@t c #F5F372",
"@s c #FBF9BE",
"@r c #FBFBCE",
"@q c #FBFACD",
"@p c #F3F152",
"@o c #F4F156",
"@n c #F4F15B",
"@m c #F4F267",
"@l c #F5F478",
"@k c #FAFABD",
"@j c #FCFBD8",
"@i c #F4F157",
"@h c #F4F25B",
"@g c #F7F695",
"@f c #F9F7A1",
"@e c #FBFAC3",
"@d c #FCFCE0",
"@c c #FCFCDF",
"@b c #F3F158",
"@a c #F3F25C",
"@0 c #F4F367",
"@9 c #F6F58A",
"@8 c #F7F58F",
"@7 c #F8F69B",
"@6 c #FAF8B2",
"@5 c #F3F25A",
"@4 c #F4F15C",
"@3 c #F5F367",
"@2 c #F7F696",
"@1 c #F9F8B2",
"@| c #FDFCE0",
"@} c #FEFEF5",
"@[ c #F4F25E",
"@< c #F4F261",
"@: c #F7F68F",
"@_ c #F8F79B",
"@( c #FDFDE6",
"@/ c #F5F260",
"@^ c #F6F585",
"@] c #F8F69C",
"@{ c #F9F8A8",
"@~ c #FAF8B3",
"@! c #FEFCF3",
"@) c #F4F262",
"@' c #F6F47E",
"@, c #F8F696",
"@> c #F9F8A7",
"@; c #FBFAC9",
"@- c #FBFBCF",
"@= c #FFFEF7",
"@* c #F5F364",
"@& c #F5F267",
"@% c #F5F479",
"@$ c #F7F690",
"@# c #F8F79C",
"@@ c #F8F7A1",
"@+ c #F9F7A7",
"+Z c #F9F8AD",
"+Y c #FCFBD5",
"+X c #FEFEF2",
"+W c #F5F268",
"+V c #F5F368",
"+U c #F5F36D",
"+T c #F6F479",
"+S c #F6F47F",
"+R c #F6F584",
"+Q c #F7F590",
"+P c #F8F695",
"+O c #F8F698",
"+N c #F8F7A0",
"+M c #F8F7A6",
"+L c #F9F8AC",
"+K c #F9F8B3",
"+J c #FAF9B8",
"+I c #FAF9BE",
"+H c #FBFAD0",
"+G c #FDFDEA",
"+F c #FDFDEE",
"+E c #FEFEF7",
"+D c #FFFEFE",
"+C c #FEFEFC",
"+B c #F5F36A",
"+A c #F5F26D",
"+z c #F5F373",
"+y c #F6F478",
"+x c #F6F47D",
"+w c #F6F482",
"+v c #F7F589",
"+u c #F7F58A",
"+t c #FAF6A8",
"+s c #FAF9B9",
"+r c #FAF9BF",
"+q c #FBFAC4",
"+p c #FDFDEC",
"+o c #FEFCEF",
"+n c #FFFFFF",
"+m c #FFFEFC",
"+l c #FFFEFD",
"+k c #F4F26B",
"+j c #F4F26D",
"+i c #F4F170",
"+h c #FAF9BC",
"+g c #FBFAC5",
"+f c #FEFDED",
"+e c #FCFAE1",
"+d c #FBF9C3",
"+c c #FBFACA",
"+b c #FBFBD0",
"+a c #FCFBDC",
"+0 c #FDFCE1",
"+9 c #FDFCE7",
"+8 c #FDFCEC",
"+7 c #FCFBCE",
"+6 c #FCFBD0",
"+5 c #FCFBD6",
"+4 c #FCFCDB",
"+3 c #FCFCE2",
"+2 c #FBFACB",
"+1 c #FBFBD4",
"+| c #FCFCDC",
"+} c #FCFCE1",
"+[ c #FDFDE8",
"+< c #FEFDF1",
"+: c #FDFCDC",
"+_ c #FDFCE2",
"+( c #FEFDF3",
"+/ c #FEFEF8",
"+^ c #FDFCE3",
"+] c #FDFDE7",
"+{ c #FDFDED",
"+~ c #FEFCF1",
"+! c #FDFBE1",
"+) c #FDFDEB",
"+' c #FEFEF3",
"+, c #FFFFFD",
"+> c #FEFDF0",
"+; c #FEFEF9",
"+- c #FEFFFD",
"+= c #FFFFFA",
"+* c #FEFDF2",
"+& c #FEFEFD",
"+% c #FEFEF1",
"+$ c #FEFEFE",
"+# c #FFFFFE",
"+@ c #FEFEFA",
"++ c None",
"++++++++++++++++++++++++++++++++++++++++++++++++++++++++++++++++++++++++++++++++++++++++",
"++++++++++++++++++++++++++++++++++++++++++++++++++++++++++++++++++++++++++++++++++++++++",
"++++++++++++++++++++++++++++++++++++++++++++++++++++++++++++++++++++++++++++++++++++++++",
"+++++++++++++++++++++++++++++++++++++++++@+#+$+%++++++++++++++++++++++++++++++++++++++++",
"+++++++++++++++++++++++++++++++++++++++++&+#+&+*++++++++++++++++++++++++++++++++++++++++",
"+++++++++++++++++++++++++++++++++++++++=+$+-+;+>++++++++++++++++++++++++++++++++++++++++",
"+++++++++++++++++++++++++++++++++++++++&+,+;+'+)+!++++++++++++++++++++++++++++++++++++++",
"+++++++++++++++++++++++++++++++++++++~+&+;+'+{+]+^++++++++++++++++++++++++++++++++++++++",
"+++++++++++++++++++++++++++++++++++++/+;+(+{+]+_+:++++++++++++++++++++++++++++++++++++++",
"+++++++++++++++++++++++++++++++++++<+/+'+{+[+}+|+1+2++++++++++++++++++++++++++++++++++++",
"+++++++++++++++++++++++++++++++++++(+'+{+]+3+4+5+6+7++++++++++++++++++++++++++++++++++++",
"+++++++++++++++++++++++++++++++++8+<+{+9+0+a+5+b+c+d++++++++++++++++++++++++++++++++++++",
"+++++++++++++++++++++++++++++++e+{+f+]+0+4+5+b+c+g+h+++++++++++++++++++++++i+j+k++++++++",
"+++++++++#+$+l+m+n+$+/+o+++++++]+p+]+0+4+5+6+c+q+r+s+t+++++++++++u+v+w+x+y+z+A+B++++++++",
"+++++++++C+D+n+$+$+$+$+$+&+E+F+G+]+0+4+5+H+c+q+I+J+K+L+M+N+O+P+Q+u+R+S+T+z+U+V+W++++++++",
"+++++++++++&+D+n+n+$+n+&+/+X+{+]+0+4+Y+b+c+q+I+J+K+Z@+@@@#+P@$+u+R+S@%+z+U@&@*++++++++++",
"++++++++++@=+D+$+n+$+&+/+*+{+]+0+4+Y@-@;+q+I+J+K+Z@>@@@#@,@$+u+R@'+T+z+U@&@)++++++++++++",
"++++++++++++@!+&+n+l+/+X+p+]+0+4+Y@-+c+q+I+J@~+Z@{@@@]@,@$+u@^+S+T+z+U+W@)@/++++++++++++",
"+++++++++++++++&+&+/+*+p@(+}+4+Y@-+c+q+I+J@~+L@+@@@_+P@:+u+R@'+y+z+U@&@<@[++++++++++++++",
"+++++++++++++++X@}+X+p+]@|+4+Y@-+c+q+I+J@1+Z@+@@@_@2@$+u+R@'+T+z+U@3@<@4@5++++++++++++++",
"+++++++++++++++++]+G+9+0+4+Y@-@;+q+I+J@6+Z@+@@@7@,@8@9+R@'+T+z+U@0@<@a@b++++++++++++++++",
"++++++++++++++++++@c@d+4+Y+b+c@e+I+J@6+Z@+@f@_@g@$+u+R@'@%+z+U@0@<@h@i++++++++++++++++++",
"++++++++++++++++++++@j+Y@-@;@e@k+J@1+L+M@@@7@g@$+u+R@'@l+z+U@m@<@n@o@p++++++++++++++++++",
"++++++++++++++++++++@q@r@;+q@s+J@6+Z@++N@_+P@:+u+R@'@l@t+U@m@<@n@u@v++++++++++++++++++++",
"++++++++++++++++++++++@w@e+I+J@1+L@>@@@7+P@:+v+R@'+y@t+U@m@<@n@x@y@z++++++++++++++++++++",
"+++++++++++++++++++++d+d+I+J@1+L@+@@@7+P@:+v@A@'+y@t+U@&@<@h@x@y@B@C++++++++++++++++++++",
"++++++++++++++++++@D@E@F+J@6+L@G@@@7+P@8+v+R@'@H@t@I@J@<@n@u@K@B@L@M@L++++++++++++++++++",
"++++++++++++++++++@N@k@O@6@P@Q+N@7+P@8+v+R@'+y@t+U@R@S@n@u@K@T@U@M@M@V++++++++++++++++++",
"++++++++++++++++@W@X+J@6+L@G@f@_+P@8+v@A@'+y@t@I@J@<@n@u@Y@Z@L@M@M@M@M#+++++++++++++++++",
"++++++++++++++#@##@O@1+L@G+N@7@g@:+v#$+x+y@t@I@R@<@n@u@K#%@L@M@M@M@M@M@M++++++++++++++++",
"++++++++++++++#&#*@6+L@G+N#=@g@8+v@A+x+y@t@I@J@<@n@u#-@T@L@M@M@M@M@M@M@M#;++++++++++++++",
"++++++++++++++@~#>+L@G+N#,+P@8+v#$+x#'@t@I@J@S#)@u#-@T@U@M@M@M@M@M@M@M@M@M++++++++++++++",
"++++++++++++#!#&+L@G+N#,#~@:+v@A@'@l#{#]#^++#/#(#-@T@L@M@M@M@M@M@M@M@M@M@M++++++++++++++",
"++++++++++++#_#:@G+N#=#~#<+v#$+x@H#[++++++++++++++#}@M@M@M@M@M@M@M#|@M@M@M@M++++++++++++",
"++++++++++#1#:+M+N#,#~#<+v@A@'#2++++++++++++++++++++++#3@M@M@M@M@M@M@M@M@M@M#}++++++++++",
"++++++++++@+@Q+N#,#~@:#4@A+S#5++++++++++++++++++++++++++++@M@M@M@M#|@M@M@M@M@M++++++++++",
"++++++++#6#7+N#=#~#<+v@A#8++++++++++++++++++++++++++++++++++#}@M@M@M@M@M@M@M@M#9++++++++",
"+++++++++N#0#=#~#a#4++++++++++++++++++++++++++++++++++++++++++++++@M@M@M@M@M@M@M++++++++",
"++++++++@_#b@2#c++++++++++++++++++++++++++++++++++++++++++++++++++++#9@M@M@M@M#}++++++++",
"++++++++++++++++++++++++++++++++++++++++++++++++++++++++++++++++++++++++#d@M@M#}++++++++",
"++++++++++++++++++++++++++++++++++++++++++++++++++++++++++++++++++++++++++++++++++++++++",
"++++++++++++++++++++++++++++++++++++++++++++++++++++++++++++++++++++++++++++++++++++++++",
"++++++++++++++++++++++++++++++++++++++++++++++++++++++++++++++++++++++++++++++++++++++++",
"++++++++++++++++++++++++++++++++++++++++++++++++++++++++++++++++++++++++++++++++++++++++"};
