/* XPM */
static char * ball_red_xpm[] = {
"44 44 503 2",
"&u c #64FF71",
"&t c #6EFE7A",
"&s c #60FE6E",
"&r c #52FF61",
"&q c #58FF66",
"&p c #83FF8F",
"&o c #8FFF98",
"&n c #50FE5F",
"&m c #52FF62",
"&l c #55FE64",
"&k c #58FE66",
"&j c #6AFF78",
"&i c #87FE92",
"&h c #55FF65",
"&g c #57FF67",
"&f c #63FE70",
"&e c #68FE75",
"&d c #6AFE78",
"&c c #7BFF86",
"&b c #8DFE98",
"&a c #50FE60",
"&0 c #5AFE6A",
"&9 c #5DFF6C",
"&8 c #65FE73",
"&7 c #6DFE7B",
"&6 c #75FE82",
"&5 c #86FE90",
"&4 c #55FF64",
"&3 c #53FE62",
"&2 c #58FE67",
"&1 c #5BFF6A",
"&| c #66FF73",
"&} c #80FF8C",
"&[ c #50FF60",
"&< c #53FF62",
"&: c #58FF67",
"&_ c #5EFF6C",
"&( c #60FF6F",
"&/ c #91FF9A",
"&^ c #4EFE5E",
"&] c #4FFE5E",
"&{ c #53FE63",
"&~ c #5EFE6C",
"&! c #63FE71",
"&) c #68FE76",
"&' c #6BFE79",
"&, c #7EFE89",
"&> c #89FE93",
"&; c #4EFF5E",
"&- c #4FFF5E",
"&= c #56FE65",
"&* c #59FF68",
"&& c #5BFE6A",
"&% c #63FF71",
"&$ c #74FE80",
"&# c #91FE9B",
"&@ c #4FFF5F",
"&+ c #51FE60",
"%Z c #56FF65",
"%Y c #5CFE6A",
"%X c #5EFF6D",
"%W c #66FF74",
"%V c #69FF76",
"%U c #6EFE7B",
"%T c #76FE83",
"%S c #7BFF88",
"%R c #51FF61",
"%Q c #56FF66",
"%P c #5CFE6B",
"%O c #5EFE6D",
"%N c #61FE6F",
"%M c #67FE74",
"%L c #69FE77",
"%K c #71FF7E",
"%J c #7FFE8A",
"%I c #81FE8D",
"%H c #86FE91",
"%G c #9CFEA5",
"%F c #9FFEA7",
"%E c #A1FEAA",
"%D c #54FF63",
"%C c #59FE68",
"%B c #61FF6F",
"%A c #67FF74",
"%z c #6EFF7C",
"%y c #ABFEB3",
"%x c #57FF66",
"%w c #5AFF69",
"%v c #5CFF6B",
"%u c #64FF72",
"%t c #69FF77",
"%s c #6CFF79",
"%r c #72FF7E",
"%q c #74FF81",
"%p c #84FF90",
"%o c #5AFE69",
"%n c #5DFE6B",
"%m c #65FF72",
"%l c #6AFF77",
"%k c #74FE81",
"%j c #77FE83",
"%i c #A4FFAD",
"%h c #AFFEB7",
"%g c #5DFF6B",
"%f c #5FFF6D",
"%e c #64FE72",
"%d c #67FF75",
"%c c #6AFE77",
"%b c #6CFE79",
"%a c #6FFF7C",
"%0 c #72FE7F",
"%9 c #75FF81",
"%8 c #7DFF88",
"%7 c #82FE8D",
"%6 c #88FE92",
"%5 c #9DFFA5",
"%4 c #B0FFB6",
"%3 c #7BFE88",
"%2 c #60FF6E",
"%1 c #62FF70",
"%| c #67FE75",
"%} c #6FFE7C",
"%[ c #72FF7F",
"%< c #75FE81",
"%: c #78FE83",
"%_ c #7AFE86",
"%( c #82FF8E",
"%/ c #85FE90",
"%^ c #92FE9C",
"%] c #9BFFA3",
"%{ c #7BFF87",
"%~ c #63FF70",
"%! c #68FF75",
"%) c #73FE7F",
"%' c #9BFEA3",
"%, c #7AFF86",
"%> c #65FF73",
"%; c #6BFF78",
"%- c #6DFF7A",
"%= c #70FF7D",
"%* c #73FF7F",
"%& c #75FF82",
"%% c #78FF84",
"%$ c #7DFF89",
"%# c #80FF8B",
"%@ c #88FF93",
"%+ c #95FF9F",
"$Z c #BAFEC0",
"$Y c #68FF76",
"$X c #6BFE78",
"$W c #6DFE7A",
"$V c #70FE7D",
"$U c #73FE80",
"$T c #78FE84",
"$S c #7DFE89",
"$R c #83FE8E",
"$Q c #88FE93",
"$P c #8BFE95",
"$O c #91FE9A",
"$N c #95FE9F",
"$M c #A9FEB0",
"$L c #ABFEB2",
"$K c #B3FEBA",
"$J c #6BFF79",
"$I c #76FE82",
"$H c #78FF85",
"$G c #7EFF89",
"$F c #81FE8B",
"$E c #B0FEB8",
"$D c #80FE8C",
"$C c #6EFF7B",
"$B c #71FE7D",
"$A c #7BFE87",
"$z c #7EFF8A",
"$y c #83FF8E",
"$x c #89FF93",
"$w c #8BFF96",
"$v c #8EFE98",
"$u c #BBFEC2",
"$t c #BAFFBF",
"$s c #71FF7D",
"$r c #73FF80",
"$q c #76FF83",
"$p c #7CFE87",
"$o c #7EFE8A",
"$n c #81FE8C",
"$m c #84FE8F",
"$l c #87FE91",
"$k c #96FEA0",
"$j c #99FEA2",
"$i c #A1FEA9",
"$h c #A4FEAC",
"$g c #B6FEBD",
"$f c #BCFEC2",
"$e c #BFFEC4",
"$d c #C6FFCC",
"$c c #C4FEC9",
"$b c #74FF80",
"$a c #76FF82",
"$0 c #79FE85",
"$9 c #7CFF87",
"$8 c #81FF8C",
"$7 c #86FF91",
"$6 c #89FF94",
"$5 c #97FE9F",
"$4 c #99FFA2",
"$3 c #9CFFA4",
"$2 c #A1FFAA",
"$1 c #A7FFAE",
"$| c #AEFFB6",
"$} c #BEFFC5",
"$[ c #89FE94",
"$< c #77FF83",
"$: c #7AFF85",
"$_ c #87FF91",
"$( c #8CFF96",
"$/ c #8EFF99",
"$^ c #94FF9D",
"$] c #97FFA0",
"${ c #99FFA3",
"$~ c #ACFFB4",
"$! c #B2FFB8",
"$) c #B7FFBD",
"$' c #7AFE85",
"$, c #7CFE88",
"$> c #7FFF8A",
"$; c #81FF8D",
"$- c #84FF8F",
"$= c #8AFF94",
"$* c #8CFF97",
"$& c #91FF9B",
"$% c #94FE9E",
"$$ c #97FEA0",
"$# c #99FEA3",
"$@ c #AAFFB1",
"$+ c #ACFEB4",
"#Z c #AFFFB6",
"#Y c #B1FEB8",
"#X c #B9FFC0",
"#W c #C5FFC9",
"#V c #CAFECE",
"#U c #7CFF88",
"#T c #85FE8F",
"#S c #8CFE96",
"#R c #8FFF99",
"#Q c #92FE9B",
"#P c #94FF9E",
"#O c #97FFA1",
"#N c #9FFFA7",
"#M c #A2FEAA",
"#L c #B5FFBB",
"#K c #B7FFBE",
"#J c #BFFEC5",
"#I c #C2FFC7",
"#H c #C4FECA",
"#G c #CFFFD4",
"#F c #BEFFC3",
"#E c #93FE9D",
"#D c #7FFF8B",
"#C c #87FE93",
"#B c #8CFE97",
"#A c #8FFE99",
"#z c #9AFEA3",
"#y c #9FFFA8",
"#x c #A5FEAD",
"#w c #A7FEAF",
"#v c #AAFEB1",
"#u c #AFFFB7",
"#t c #B2FEB9",
"#s c #BAFFC0",
"#r c #BFFFC5",
"#q c #C2FEC8",
"#p c #C8FECC",
"#o c #CAFECF",
"#n c #CDFFD1",
"#m c #D4FED7",
"#l c #82FF8D",
"#k c #85FF8F",
"#j c #8AFE94",
"#i c #8FFF9A",
"#h c #A0FFA8",
"#g c #A2FFAB",
"#f c #A8FEAF",
"#e c #B2FFB9",
"#d c #B5FEBB",
"#c c #B8FFBE",
"#b c #C0FFC5",
"#a c #C5FECA",
"#0 c #CDFED1",
"#9 c #D2FED6",
"#8 c #D5FFD9",
"#7 c #D6FEDA",
"#6 c #B4FEBB",
"#5 c #85FF90",
"#4 c #87FF92",
"#3 c #8AFF95",
"#2 c #93FF9C",
"#1 c #95FF9E",
"#| c #A0FFA9",
"#} c #A5FFAD",
"#[ c #AAFFB2",
"#< c #B3FFB9",
"#: c #BBFFC0",
"#_ c #C5FFCA",
"#( c #CDFFD2",
"#/ c #D0FFD4",
"#^ c #D8FFDB",
"#] c #88FF92",
"#{ c #8AFE95",
"#~ c #8DFE97",
"#! c #93FE9C",
"#) c #95FE9E",
"#' c #97FEA1",
"#, c #9AFEA4",
"#> c #9DFEA6",
"#; c #A2FEAB",
"#- c #A5FFAE",
"#= c #AAFEB2",
"#* c #ADFEB4",
"#& c #B0FEB7",
"#% c #B5FEBC",
"#$ c #B8FEBE",
"## c #BBFEC1",
"#@ c #BDFEC3",
"#+ c #C0FEC6",
"@Z c #C8FECD",
"@Y c #CBFECF",
"@X c #CDFED2",
"@W c #D0FED4",
"@V c #D5FED9",
"@U c #D8FEDC",
"@T c #DDFEE0",
"@S c #89FF95",
"@R c #8BFF95",
"@Q c #8EFF97",
"@P c #90FF9A",
"@O c #96FE9F",
"@N c #9EFFA6",
"@M c #A0FEA8",
"@L c #ADFFB5",
"@K c #B3FEB9",
"@J c #B5FFBC",
"@I c #C3FFC8",
"@H c #CBFFCF",
"@G c #D0FED5",
"@F c #D3FFD7",
"@E c #D8FFDC",
"@D c #DBFEDE",
"@C c #8DFF97",
"@B c #8EFF98",
"@A c #90FE9A",
"@z c #98FEA1",
"@y c #A3FFAB",
"@x c #A8FFB0",
"@w c #ABFFB2",
"@v c #AEFEB5",
"@u c #B0FFB7",
"@t c #B8FEBF",
"@s c #BEFEC3",
"@r c #C0FFC6",
"@q c #CBFED0",
"@p c #CEFFD2",
"@o c #DBFEDF",
"@n c #E0FFE3",
"@m c #94FE9D",
"@l c #92FF9C",
"@k c #93FF9D",
"@j c #9BFEA4",
"@i c #9EFEA7",
"@h c #A6FEAE",
"@g c #A8FEB0",
"@f c #ABFFB3",
"@e c #B3FFBA",
"@d c #B9FEBF",
"@c c #BCFEC1",
"@b c #C1FEC6",
"@a c #C3FEC9",
"@0 c #C6FECB",
"@9 c #C8FFCD",
"@8 c #CBFFD0",
"@7 c #D0FFD5",
"@6 c #D6FED9",
"@5 c #D9FEDC",
"@4 c #DCFEDF",
"@3 c #DEFEE1",
"@2 c #E1FEE3",
"@1 c #E3FEE6",
"@| c #9DFFA6",
"@} c #98FFA1",
"@[ c #96FF9F",
"@< c #98FEA2",
"@: c #9BFFA4",
"@_ c #A3FFAC",
"@( c #A9FFB0",
"@/ c #B6FEBC",
"@^ c #BBFFC1",
"@] c #C1FFC6",
"@{ c #C3FFC9",
"@~ c #C6FFCB",
"@! c #D3FED7",
"@) c #D9FFDC",
"@' c #E3FFE6",
"@, c #E6FFE9",
"@> c #E5FFE7",
"@; c #A3FEAB",
"@- c #9AFFA4",
"@= c #9AFFA3",
"@* c #9CFFA5",
"@& c #9EFFA7",
"@% c #A4FFAC",
"@$ c #AEFFB5",
"@# c #BBFFC2",
"@@ c #C7FFCB",
"@+ c #CCFFD0",
"+Z c #CEFFD3",
"+Y c #D1FFD5",
"+X c #D6FFDA",
"+W c #DEFFE1",
"+V c #E4FFE7",
"+U c #EAFFEC",
"+T c #A5FFAC",
"+S c #A1FFA9",
"+R c #A0FEA9",
"+Q c #A2FFAA",
"+P c #A3FEAC",
"+O c #A6FFAE",
"+N c #AFFEB6",
"+M c #B4FEBA",
"+L c #B7FEBD",
"+K c #B9FEC0",
"+J c #BCFFC2",
"+I c #BFFFC4",
"+H c #C1FFC7",
"+G c #C7FFCC",
"+F c #C9FFCE",
"+E c #CCFED1",
"+D c #CFFFD3",
"+C c #D1FED5",
"+B c #D4FED8",
"+A c #D7FEDA",
"+z c #D9FFDD",
"+y c #DFFFE1",
"+x c #E4FFE6",
"+w c #E7FFE9",
"+v c #E9FEEB",
"+u c #ECFFED",
"+t c #EFFEF0",
"+s c #A7FEAE",
"+r c #A7FFAF",
"+q c #A9FFB1",
"+p c #ACFFB3",
"+o c #B1FFB8",
"+n c #B9FFBF",
"+m c #BEFFC4",
"+l c #C1FEC7",
"+k c #C7FECC",
"+j c #C9FECE",
"+i c #CCFFD1",
"+h c #CFFED3",
"+g c #D1FFD6",
"+f c #D4FFD8",
"+e c #D7FFDA",
"+d c #DFFEE1",
"+c c #E1FFE4",
"+b c #E4FEE7",
"+a c #E7FEE9",
"+0 c #EAFFEB",
"+9 c #ECFEEE",
"+8 c #EFFFF0",
"+7 c #F1FEF3",
"+6 c #ACFEB3",
"+5 c #ADFFB4",
"+4 c #BEFEC4",
"+3 c #B0FFB8",
"+2 c #B4FFBA",
"+1 c #BDFFC3",
"+| c #CAFFCE",
"+} c #C4FFC9",
"+[ c #CAFFCF",
"+< c #D3FFD6",
"+: c #DAFFDD",
"+_ c #DBFFDF",
"+( c #DCFFDF",
"+/ c #DFFEE2",
"+^ c #E3FEE5",
"+] c #E6FEE8",
"+{ c #EAFEEC",
"+~ c #ECFFEE",
"+! c #EFFEF1",
"+) c #F2FEF3",
"+' c #B6FFBD",
"+, c #B4FFBB",
"+> c #B8FFBF",
"+; c #C2FFC8",
"+- c #CEFED2",
"+= c #DAFEDE",
"+* c #E9FFEB",
"+& c #EEFFF0",
"+% c #F1FEF2",
"+$ c #F4FFF5",
"+# c #EBFFEC",
"+@ c #B6FFBC",
"++ c None",
"++++++++++++++++++++++++++++++++++++++++++++++++++++++++++++++++++++++++++++++++++++++++",
"++++++++++++++++++++++++++++++++++++++++++++++++++++++++++++++++++++++++++++++++++++++++",
"+++++++++++++@+#+$+%+&+*+=+-+;+>+,++++++++++++++++++++++++++++++++++++++++++++++++++++++",
"+++++++++++++'+)+)+!+~+{+]+^+/+(+_+:+<+[+}+}+|+1+2+3+4+,+5+6++++++++++++++++++++++++++++",
"+++++++++++++++7+8+9+0+a+b+c+d+(+:+e+f+g+h+i+j+k+}+l+m+n+,+@+o+p+6+q+r+s++++++++++++++++",
"+++++++++++++++t+u+v+w+x+c+y+(+z+A+B+C+D+E+F+G+}+H+I+J+K+L+M+o+N+p+q+O+P+Q+R+S+T++++++++",
"+++++++++++++++U+*+w+V+c+W+(+z+X+f+Y+Z@++F@@+}+H+m@#+n+'+2+o@$+p+q+O@%+S@&@*@=@-@;++++++",
"++++++++++++++@>@,@'+c+W+(@)+X@!+Y+Z@++F@~@{@]+m@^+n@/+2+o@$+p@(+O@_+S@&@:@<@[@}@|++++++",
"++++++++++++++@>@1@2@3@4@5@6@!@7+Z@8@9@0@a@b+4@c@d@/@e+o@$@f@g@h@;+R@i@j@<@[@k@l@m++++++",
"++++++++++++++@'@n+W@o@)@6@!+Y@p@q@9@~@{@r@s@^@t@/@e@u@v@w@x+O@y+R@|@j@z@[@k@A@B@C++++++",
"++++++++++++++@n+W@D@E@6@F@G@p@H@9@~@I@r+4@^@t@J@K@u@L@w@x+O@y@M@N@j@}@O@k@P@Q@R@S++++++",
"++++++++++++++@T@D@U@V@!@W@X@Y@Z@0@I#+#@###$#%@K#&#*#=@g#-#;@M#>#,#'#)#!@A#~#{#]@&++++++",
"+++++++++++++o+z#^@V+<#/#(+[@9#_@I@r+1#:#$@J#<@u+5#[@x#}@y#|@|#,@}#1#2@P@C#3#4#5@:++++++",
"++++++++++++#6#7#8#9#/#0+[@9#a+;#b+1###c#d#e#&+5#[#f#}#g#h#>@=@z#1#!#i@C#j#4#k#l@}++++++",
"+++++++++++++>#m#9@W#n#o#p#a#q#r+1#s#$#d#t#u#*#v#w#x+Q#y@|#z#'#)@l#A#B#j#C#5#l#D#E++++++",
"++++++++++++#F+Y#G#0+[+k#H#I#J+1#s#K#L#e+N+5#=#w#}#M#N@*@=#O#P#Q#R#S#j#4#T#l#D#U@A++++++",
"++++++++++++@I+h+i#V+G#W#I#r+J#X+L#6#Y#Z$+$@+r@%+Q#N@*$#$$$%$&#A$*$=#4$-$;$>$,$'$*++++++",
"+++++++++++++F+i+F+G+}+H+I+J#s$)+,$!#Z$~$@+r@%+S#N@*${$]$^$&$/$($=$_$-$;$>#U$:$<$[++++++",
"++++++++++++@H+F+G+}+H$}+J+n$)#6+o$|+p+q$1@%$2@&$3$4$5#P$&#R$($6$7$-$8$>$9$0$a$b$7++++++",
"++++++++++++$c$d$c@b$e$f@d$g+M+o$|+p+q@h$h$i@i@j$j$k$^$&@B$($[$l$m$n$o$p$0$q$r$s#l++++++",
"++++++++++++$t+}+H+m$u+n$g+M+o@$+6@(+O@_+S@i@*$j$k@k$&$v$w$x$7$y$n$z$A$0$a$r$B$C$D++++++",
"++++++++++++#X@]+m##+n$g+2$E$|@f@(+O@y#|@i@:$j@[#E$&@B$w$x$7$y$F$G$A$H$I$r$s$C$J$G++++++",
"+++++++++++++K@s##@t@/$K$E@v$L$M@h@_+R@i@j@z$N#E$O$v$P$Q$7$R$D$S$A$T$I$U$V$W$X$Y#U++++++",
"++++++++++++$Z@^+>@/#<@u@$@f@x+O@y#|@|@:@z%+#2@P@Q@R%@#5$y%#%$$A%%%&%*%=%-%;$Y%>%,++++++",
"++++++++++++#s#$+@@K@u#*@w@x#x@y#h@|%'@}$N@k@A@C@R$Q#5$y%#$S%,$T%&%)%=%-$X%!%>%~%{++++++",
"++++++++++++#c#%#t#&@L#=@g#x@;#h@|%]@z$N%^@P#~#{$Q%/%(%#%$%_%:%<%[%}$W$X%|%>%1%2%3++++++",
"++++++++++#[+,#e%4#*#[#w#x+Q@M%5@=#O#1@l@A@C#j%6#5%7#D%8%,%%%9%0%a%b%c%d%e%1%f%g$p++++++",
"++++++++++@w#Y%h+5#=+r%i+Q#y@*@=#'#)%^#R#~$=#4#5#l%#%8%_%j%k%[%}%-%l%d%m%1%f%n%o$G++++++",
"++++++++++@w@$$~#[+r+T+Q#y@|@=#O#1@l#R$($=#4%p#l#D%8%,$<%q%r%a%s%t%d%u%1%f%v%w%x$n++++++",
"++++++++++%y+p$@+r@%+Q#y@*@=$]$%@l#R$*$6#4#k$;#D#U$:%j%q%r%z%s%t%A%u%B%f%v%C%x%D#k++++++",
"++++++++++$@+q+r$h%E%F%G$j$$@m$&#R$($6%H$m%I%J$,$0%j%q%K%z%s%L%M%e%N%O%P%C%Q%D%R#]++++++",
"++++++++++@x+r@%$2#N%G$4$$$%$&@B#S$6$7$-$8%J%S$0%T%q%K%U%s%V%W%u%N%X%Y%C%Z%D&+&@#S++++++",
"++++++++++#}@%$2@&%G$4$$$^&#$/$($6$7$-$8$o$9$0$q&$%K$C%s%V%W&%%N%X&&&*&=%D%R&-&;$(++++++",
"++++++++++@%+S@i@j$j@O#E&#$v#S&>%H$-$n&,$A$0%T$U$B%U&'&)%W&!%N&~&&%C&=&{&+&]&^&;&;++++++",
"++++++++++@y@&@:$4$k@k&/@B$w$x$7$y$8$G%{$0$a$r%=$C$J%V%W&%&(&_&&&:%Z&<&[&-&;&;&-&[++++++",
"++++++++++%E@:@<@[#E&/$v@R%@%H$y&}$G$A$H$I%*$V$C%;&)&|&%%2&~&1&2%Z&3&[&;&^&;&;&4%X++++++",
"++++++++++#N@}$N#!@A@B$P$Q&5$R%#$G%{$T&6%)%=&7$X&)&8&%%2&9&0&2&=&<&a&^&^&^&;&;%g%0++++++",
"++++++++++#>%+@l@P&b@R$Q%/$y$D%$&c%%%9%[$V%-&d&e%>&f%2&9%w&g&h&3&[&^&^&;&^&;&;%>&i++++++",
"++++++++++@:#!@A@C#{#]#5%(%#%$&c$T%<%)%=$W&j%!%>%1%2%g%o&k&l&m&n&-&;&;&;&;&;&^%C@k++++++",
"++++++++++%F$$&o#S$x$_&p$;#1#2@C#5%{$s$C%,%%%K$Y%2%g%w&q&4&r&@&;&;&;&;&;&;&;&;&s++++++++",
"++++++++++++++++++++++++++++++++++++++++@z@P#l%=%2&t$v$;$U%f&;&^%-%;%d&u%2%e%l$m++++++++",
"++++++++++++++++++++++++++++++++++++++++++++++++++++++++++++++++++++++++++++++++++++++++",
"++++++++++++++++++++++++++++++++++++++++++++++++++++++++++++++++++++++++++++++++++++++++",
"++++++++++++++++++++++++++++++++++++++++++++++++++++++++++++++++++++++++++++++++++++++++"};
