/* XPM */
static char * ball_red_xpm[] = {
"44 44 325 2",
"$u c #FBFF4F",
"$t c #FDFF4E",
"$s c #FDFF4F",
"$r c #FDFE4F",
"$q c #FBFE4F",
"$p c #FDFF53",
"$o c #FCFF53",
"$n c #FCFF55",
"$m c #FDFE5B",
"$l c #FCFF7F",
"$k c #FEFF95",
"$j c #FCFE50",
"$i c #FCFE53",
"$h c #FCFE5C",
"$g c #FCFF63",
"$f c #FCFE7D",
"$e c #FDFE88",
"$d c #FDFE8B",
"$c c #FCFE4F",
"$b c #FCFF4E",
"$a c #FCFE4E",
"$0 c #FCFF50",
"$9 c #FCFF59",
"$8 c #FCFE68",
"$7 c #FDFE6F",
"$6 c #FBFE75",
"$5 c #FEFE98",
"$4 c #FCFF4F",
"$3 c #FCFF51",
"$2 c #FCFE54",
"$1 c #FCFF57",
"$| c #FCFF5A",
"$} c #FCFF5D",
"$[ c #FCFF60",
"$< c #FCFE63",
"$: c #FCFF7A",
"$_ c #FCFF81",
"$( c #FCFF52",
"$/ c #FCFE55",
"$^ c #FCFE58",
"$] c #FCFE5B",
"${ c #FCFE5E",
"$~ c #FDFE6C",
"$! c #FDFE72",
"$) c #FCFE75",
"$' c #FCFE79",
"$, c #FCFE56",
"$> c #FCFF58",
"$; c #FCFF5B",
"$- c #FCFF5E",
"$= c #FCFF61",
"$* c #FCFF64",
"$& c #FCFF67",
"$% c #FCFF6A",
"$$ c #FCFF70",
"$# c #FCFF73",
"$@ c #FCFF5C",
"$+ c #FCFF5F",
"#Z c #FCFF65",
"#Y c #FCFF6B",
"#X c #FCFF6E",
"#W c #FDFF70",
"#V c #FCFF82",
"#U c #FCFF85",
"#T c #FDFEA0",
"#S c #FCFE60",
"#R c #FCFF62",
"#Q c #FCFE65",
"#P c #FCFF68",
"#O c #FCFE6B",
"#N c #FCFE6E",
"#M c #FCFE71",
"#L c #FCFF74",
"#K c #FDFF77",
"#J c #FDFE62",
"#I c #FCFF66",
"#H c #FCFE69",
"#G c #FCFF6C",
"#F c #FCFF6F",
"#E c #FCFF72",
"#D c #FCFF75",
"#C c #FCFF78",
"#B c #FDFF7D",
"#A c #FDFF95",
"#z c #FCFF69",
"#y c #FCFE6C",
"#x c #FCFE6F",
"#w c #FCFE72",
"#v c #FCFF7B",
"#u c #FEFFA5",
"#t c #FCFE6D",
"#s c #FCFE70",
"#r c #FDFF73",
"#q c #FDFE76",
"#p c #FCFF79",
"#o c #FDFE82",
"#n c #FDFFA5",
"#m c #FDFF72",
"#l c #FCFE73",
"#k c #FDFF76",
"#j c #FDFF79",
"#i c #FDFF7C",
"#h c #FDFF75",
"#g c #FCFE76",
"#f c #FDFE7A",
"#e c #FCFE83",
"#d c #FCFE85",
"#c c #FDFE89",
"#b c #FCFE8E",
"#a c #FDFEA3",
"#0 c #FDFEA6",
"#9 c #FEFFAF",
"#8 c #FDFF78",
"#7 c #FCFE7A",
"#6 c #FCFF7D",
"#5 c #FDFF80",
"#4 c #FCFF84",
"#3 c #FDFF98",
"#2 c #FEFFB2",
"#1 c #FDFF7A",
"#| c #FDFE7B",
"#} c #FDFF7E",
"#[ c #FDFF81",
"#< c #FEFFA8",
"#: c #FDFFB0",
"#_ c #FEFEB6",
"#( c #FEFFB9",
"#/ c #FDFE7C",
"#^ c #FDFE7E",
"#] c #FDFE84",
"#{ c #FDFF87",
"#~ c #FDFF8A",
"#! c #FDFF8D",
"#) c #FDFE9C",
"#' c #FDFE9F",
"#, c #FDFEA2",
"#> c #FDFFA8",
"#; c #FDFEB7",
"#- c #FEFEBD",
"#= c #FDFE7D",
"#* c #FDFF7F",
"#& c #FDFE94",
"#% c #FDFFAB",
"#$ c #FEFFB7",
"## c #FDFE81",
"#@ c #FDFE80",
"#+ c #FDFF9D",
"@Z c #FDFFA0",
"@Y c #FDFFA9",
"@X c #FEFFB5",
"@W c #FEFFB8",
"@V c #FEFFC1",
"@U c #FDFF82",
"@T c #FDFF83",
"@S c #FDFF86",
"@R c #FDFF89",
"@Q c #FDFF8F",
"@P c #FDFE92",
"@O c #FDFE98",
"@N c #FDFFA1",
"@M c #FDFFA7",
"@L c #FDFFAA",
"@K c #FDFEB3",
"@J c #FDFEB5",
"@I c #FEFEB8",
"@H c #FEFFBB",
"@G c #FEFFC2",
"@F c #FEFFC7",
"@E c #FDFFCF",
"@D c #FDFE83",
"@C c #FDFF84",
"@B c #FDFE86",
"@A c #FCFE8A",
"@z c #FDFF8C",
"@y c #FDFF96",
"@x c #FDFF99",
"@w c #FDFF9B",
"@v c #FDFF9E",
"@u c #FDFFA4",
"@t c #FDFEA7",
"@s c #FDFEAA",
"@r c #FDFFAD",
"@q c #FDFEB0",
"@p c #FDFFB6",
"@o c #FEFFBC",
"@n c #FDFEC8",
"@m c #FEFECB",
"@l c #FEFED1",
"@k c #FDFF85",
"@j c #FDFE87",
"@i c #FDFE8A",
"@h c #FDFF90",
"@g c #FDFE93",
"@f c #FDFE96",
"@e c #FDFE99",
"@d c #FDFF9C",
"@c c #FDFFA2",
"@b c #FDFEA8",
"@a c #FDFEAB",
"@0 c #FDFEAE",
"@9 c #FDFFB1",
"@8 c #FDFEB4",
"@7 c #FEFFC3",
"@6 c #FEFEC5",
"@5 c #FEFEC8",
"@4 c #FEFFDA",
"@3 c #FDFF88",
"@2 c #FDFE90",
"@1 c #FDFE97",
"@| c #FDFFA3",
"@} c #FDFFA6",
"@[ c #FDFFAE",
"@< c #FDFEB1",
"@: c #FDFFB4",
"@_ c #FDFFBA",
"@( c #FDFEBD",
"@/ c #FEFFC0",
"@^ c #FEFFDE",
"@] c #FCFF89",
"@{ c #FDFF8E",
"@~ c #FDFF91",
"@! c #FDFF94",
"@) c #FDFE9A",
"@' c #FDFE9D",
"@, c #FDFF9F",
"@> c #FDFEA1",
"@; c #FDFEA5",
"@- c #FDFEA9",
"@= c #FDFFAC",
"@* c #FDFFAF",
"@& c #FDFFB2",
"@% c #FDFFB5",
"@$ c #FDFFB8",
"@# c #FEFEBB",
"@@ c #FEFFBE",
"@+ c #FDFFC1",
"+Z c #FEFFCC",
"+Y c #FEFFD6",
"+X c #FEFFD8",
"+W c #FEFEDB",
"+V c #FEFFDF",
"+U c #FEFFE2",
"+T c #FEFEE4",
"+S c #FDFF8B",
"+R c #FDFE8C",
"+Q c #FDFE91",
"+P c #FDFE95",
"+O c #FDFF97",
"+N c #FDFF9A",
"+M c #FDFE9B",
"+L c #FDFE9E",
"+K c #FDFEAD",
"+J c #FDFEAF",
"+I c #FDFEB2",
"+H c #FEFEB5",
"+G c #FDFEB8",
"+F c #FDFEBB",
"+E c #FEFEBE",
"+D c #FDFEC2",
"+C c #FEFEC4",
"+B c #FEFFD9",
"+A c #FEFEDF",
"+z c #FEFEE2",
"+y c #FEFEE5",
"+x c #FEFEE8",
"+w c #FEFEEB",
"+v c #FCFE8D",
"+u c #FDFE8F",
"+t c #FDFF92",
"+s c #FEFF94",
"+r c #FDFFB3",
"+q c #FDFEB6",
"+p c #FDFFB9",
"+o c #FDFECA",
"+n c #FEFFE5",
"+m c #FEFFE8",
"+l c #FEFFEB",
"+k c #FEFFEE",
"+j c #FEFEF1",
"+i c #FDFE8D",
"+h c #FDFE8E",
"+g c #FEFEB7",
"+f c #FEFEBA",
"+e c #FEFEBC",
"+d c #FEFFBF",
"+c c #FEFEC2",
"+b c #FEFFC8",
"+a c #FEFECD",
"+0 c #FEFEF0",
"+9 c #FFFFF1",
"+8 c #FEFEF3",
"+7 c #FDFEBC",
"+6 c #FEFFBD",
"+5 c #FEFEC0",
"+4 c #FEFEC3",
"+3 c #FEFEC6",
"+2 c #FEFEC9",
"+1 c #FEFECC",
"+| c #FEFFCE",
"+} c #FEFEC1",
"+[ c #FEFFC4",
"+< c #FEFFC6",
"+: c #FEFFC9",
"+_ c #FEFFCF",
"+( c #FEFED0",
"+/ c #FEFFC5",
"+^ c #FEFEC7",
"+] c #FEFFCA",
"+{ c #FEFFCD",
"+~ c #FEFFD0",
"+! c #FEFFD2",
"+) c #FEFED2",
"+' c #FEFFCB",
"+, c #FDFFCE",
"+> c #FEFED4",
"+; c #FEFECE",
"+- c #FEFFD1",
"+= c #FEFFD4",
"+* c #FEFED6",
"+& c #FEFED7",
"+% c #FEFFD5",
"+$ c #FEFED8",
"+# c #FEFED9",
"+@ c #FEFFDB",
"++ c None",
"++++++++++++++++++++++++++++++++++++++++++++++++++++++++++++++++++++++++++++++++++++++++",
"++++++++++++++++++++++++++++++++++++++++++++++++++++++++++++++++++++++++++++++++++++++++",
"+++++++++++++++++++++++++++++++++++++++++++@++++++++++++++++++++++++++++++++++++++++++++",
"+++++++++++++++++++++++++++++++++++++++++#+$+%++++++++++++++++++++++++++++++++++++++++++",
"+++++++++++++++++++++++++++++++++++++++&+*+=+-+;++++++++++++++++++++++++++++++++++++++++",
"+++++++++++++++++++++++++++++++++++++++%+>+-+,+'++++++++++++++++++++++++++++++++++++++++",
"+++++++++++++++++++++++++++++++++++++)+!+~+{+]+^+/++++++++++++++++++++++++++++++++++++++",
"+++++++++++++++++++++++++++++++++++++(+_+{+:+<+[+}++++++++++++++++++++++++++++++++++++++",
"+++++++++++++++++++++++++++++++++++++|+1+2+3+4+5+6+7++++++++++++++++++++++++++++++++++++",
"+++++++++8+9+0+++++++++++++++++++++a+'+b+/+c+d+e+f+g+++++++++++++++++++++++++h+i++++++++",
"+++++++++j+k+l+m+n+++++++++++++++++o+b+/+c+d+7+p+q+r+++++++++++++++++++s+t+u+i+v++++++++",
"+++++++++++w+x+y+z+A+@+B+=+++++++b+^+C+D+E+F+G+H+I+J+K+++++++L+M+N+O+P+Q+u+R+S++++++++++",
"+++++++++++++T+U+V+W+X+Y+)+_+Z+]+3+[@+@@@#@$@%@&@*@=@-@;@>@,@'@)+O@!@~@{+S@]++++++++++++",
"+++++++++++++U@^+@+$+%+)+_+Z+2+3+4@/@(@_+g@:@<@[@=@-@}@|@,@'+N@1@!@2@{+S@3@3++++++++++++",
"++++++++++++++@4+&+>+-+;+1@5@6@7+d+6+f+g@8@9@0@a@b@;@c@,@d@e@f@g@h+i@i@j@k++++++++++++++",
"+++++++++++++++*+=@l+,@m@n+/+c+d@o+p@p+r@q@r@s@t@u@>@v@w@x@y+t@2@z@A@B@C@D++++++++++++++",
"++++++++++++++++@E+a+]@F+/@G+d@H@I@J@K@*+K@L@M@u@N@v@w@O+P@P@Q+R@R@S@T@U++++++++++++++++",
"+++++++++++++++++++2@F+[@V@@@H@W@X@&@*@=@Y@}@|@Z#++N+O@!@~@Q+S@3@S@U#@##++++++++++++++++",
"++++++++++++++++++@5+4@V+6@H#$@8@&@*#%@Y@}@|@Z#++N+O#&@~@{+S@3@k@U#*#=++++++++++++++++++",
"++++++++++++++++++++@V#-+f#;@8@9@[#%#>@;#,#'#)@e@f@g@h#!#~#{#]###^#/++++++++++++++++++++",
"++++++++++++++++++++++#(#_@K#:@r@a#<@u@c@,#)@x@f@g@h#!@i#{@C#[#}#|#1++++++++++++++++++++",
"++++++++++++++++++++++#_#2@q@r@L@M@u@N@v+M#3+P+t+u@z@R#{#4#5#6#7#8++++++++++++++++++++++",
"++++++++++++++++++++++++#9@=@-#0#a@N@'+M@1+P@P#b+R#c#d#e#*#/#f#g#h++++++++++++++++++++++",
"++++++++++++++++++++++++@s#>@}@|@Z#++N+O#&@~@{+S@3@k@U#*#i#j#k#l#m++++++++++++++++++++++",
"++++++++++++++++++++++++@M#n#,@,@d@x@f@!+Q@{@i@3@k#o#*#i#p#q#r#s#t++++++++++++++++++++++",
"++++++++++++++++++++++#u#n#,#'@d@x@y@g@2+i#~@j#]###^#v#8#h#w#x#y#z++++++++++++++++++++++",
"++++++++++++++++++++++@|@>@v+M#3#A+t@Q@z#c@S@D#@#B#7#C#D#E#F#G#H#I#J++++++++++++++++++++",
"++++++++++++++++++++#,@N@v@w#3#A@P+u+R@R@B@T#5#B#1#K#L#M#N#O#P#Q#R#S++++++++++++++++++++",
"++++++++++++++++++++#T#++N+O@!@~@{@z@3#U#V#*#i#1#K#L#W#X#Y#P#Z#R$+$@++++++++++++++++++++",
"+++++++++++++++++++L#+@x@y@!@~+i+S@3@k@U#*#i#j#k$#$$#t$%$&$*$=$-$;$>$,++++++++++++++++++",
"++++++++++++++++@d@d@e@f@g@2+i#~#{#4#[#^#|$'$)$!#x$~$%$&$*$=${$]$^$/$(++++++++++++++++++",
"++++++++++++++++@)#3+P+t@2+i#~@S#]$_#}$:#C#D#m#x#y#z#I$<$[$}$|$1$2$3$4$4++++++++++++++++",
"++++++++++++++$5#3+P+t+u@z#c@S@T#5#B#1#8#g$6$7#G$8#Z#R$+$@$9$1$2$0$a$b$c++++++++++++++++",
"++++++++++++++@y#&+Q+u$d$e@B@D#@$f#1#j++++++++++++$g$+$h$9$,$i$j$a$a$a$a$c++++++++++++++",
"++++++++++++$k@!@~+h+S@3@k#V$l#=#|++++++++++++++++++$m$9$n$o$0$a$b$b$b$b$b++++++++++++++",
"+++++++++++++t@2#!@i#{#]@U#*#}++++++++++++++++++++++++++$p$0$b$a$b$a$b$b$b++++++++++++++",
"++++++++++@2@h+i@i@j@C#o#5#@++++++++++++++++++++++++++++++$q$a$a$b$a$a$a$b$r++++++++++++",
"+++++++++++h@z@R#{@k@C++++++++++++++++++++++++++++++++++++++++++$s$a$a$b$a$b++++++++++++",
"+++++++++R$d#c@j@S++++++++++++++++++++++++++++++++++++++++++++++++$t$b$a$b$b++++++++++++",
"++++++++#~@i$e++++++++++++++++++++++++++++++++++++++++++++++++++++++++$q$b$b$u++++++++++",
"++++++++@i++++++++++++++++++++++++++++++++++++++++++++++++++++++++++++++++$a$4++++++++++",
"++++++++++++++++++++++++++++++++++++++++++++++++++++++++++++++++++++++++++++++++++++++++",
"++++++++++++++++++++++++++++++++++++++++++++++++++++++++++++++++++++++++++++++++++++++++",
"++++++++++++++++++++++++++++++++++++++++++++++++++++++++++++++++++++++++++++++++++++++++"};
