/* XPM */
static char * ball_red_xpm[] = {
"44 44 232 2",
"#q c #FF59FB",
"#p c #FF77FC",
"#o c #FE99FC",
"#n c #FF96FD",
"#m c #FF9CFD",
"#l c #FF68FC",
"#k c #FF5CFC",
"#j c #FE64FC",
"#i c #FE61FC",
"#h c #FF70FD",
"#g c #FE7DFC",
"#f c #FE8FFC",
"#e c #FF8FFD",
"#d c #FFA6FD",
"#c c #FE5EFB",
"#b c #FF50FC",
"#a c #FF62FC",
"#0 c #FF65FC",
"#9 c #FF6DFD",
"#8 c #FF78FC",
"#7 c #FE7EFD",
"#6 c #FE83FD",
"#5 c #FFA0FD",
"#4 c #FF4FFC",
"#3 c #FF56FC",
"#2 c #FF63FC",
"#1 c #FF66FC",
"#| c #FE73FD",
"#} c #FF76FD",
"#[ c #FF83FD",
"#< c #FF9DFD",
"#: c #FF58FC",
"#_ c #FE4EFB",
"#( c #FE50FB",
"#/ c #FE53FC",
"#^ c #FE63FC",
"#] c #FE8DFD",
"#{ c #FE90FD",
"#~ c #FE9DFD",
"#! c #FEACFE",
"#) c #FF4EFC",
"#' c #FF54FC",
"#, c #FF6AFD",
"#> c #FF7DFC",
"#; c #FF80FD",
"#- c #FEADFE",
"#= c #FE52FC",
"#* c #FE4EFC",
"#& c #FF53FC",
"#% c #FE57FC",
"#$ c #FF7EFC",
"## c #FF80FC",
"#@ c #FE8AFD",
"#+ c #FF9AFD",
"@Z c #FFA4FE",
"@Y c #FEADFD",
"@X c #FF5BFC",
"@W c #FE50FC",
"@V c #FE54FC",
"@U c #FE56FC",
"@T c #FE5AFC",
"@S c #FE5DFC",
"@R c #FE77FD",
"@Q c #FE7AFC",
"@P c #FE97FD",
"@O c #FE73FC",
"@N c #FE60FC",
"@M c #FF57FC",
"@L c #FF5AFC",
"@K c #FF60FC",
"@J c #FE70FC",
"@I c #FF97FD",
"@H c #FEAFFE",
"@G c #FF5CFD",
"@F c #FE5CFC",
"@E c #FF5DFC",
"@D c #FF60FD",
"@C c #FF7DFD",
"@B c #FFB0FD",
"@A c #FE66FC",
"@z c #FF61FC",
"@y c #FF64FC",
"@x c #FE67FC",
"@w c #FF6AFC",
"@v c #FE6DFC",
"@u c #FE74FD",
"@t c #FF84FD",
"@s c #FEB0FD",
"@r c #FF67FC",
"@q c #FE6AFC",
"@p c #FF6DFC",
"@o c #FF70FC",
"@n c #FF74FD",
"@m c #FF94FD",
"@l c #FEA7FD",
"@k c #FEAAFD",
"@j c #FE6AFD",
"@i c #FE6EFC",
"@h c #FE71FC",
"@g c #FE74FC",
"@f c #FE81FD",
"@e c #FE87FD",
"@d c #FEA4FD",
"@c c #FEB3FD",
"@b c #FE72FC",
"@a c #FF74FC",
"@0 c #FE77FC",
"@9 c #FF7BFC",
"@8 c #FE85FD",
"@7 c #FE7DFD",
"@6 c #FF79FD",
"@5 c #FF77FD",
"@4 c #FF7AFD",
"@3 c #FF7EFD",
"@2 c #FF84FC",
"@1 c #FF87FD",
"@| c #FF8AFD",
"@} c #FF9EFD",
"@[ c #FFA1FD",
"@< c #FFA7FD",
"@: c #FFAEFD",
"@_ c #FF85FD",
"@( c #FE7CFC",
"@/ c #FE7EFC",
"@^ c #FE84FD",
"@] c #FE88FD",
"@{ c #FE8EFD",
"@~ c #FE94FD",
"@! c #FFA4FD",
"@) c #FEB1FD",
"@' c #FEB4FD",
"@, c #FF81FD",
"@> c #FF85FC",
"@; c #FE91FD",
"@- c #FE89FD",
"@= c #FF86FD",
"@* c #FF88FD",
"@& c #FE8BFD",
"@% c #FEAEFD",
"@$ c #FEB9FC",
"@# c #FF8DFD",
"@@ c #FF8BFD",
"@+ c #FF8EFD",
"+Z c #FE98FD",
"+Y c #FE9BFD",
"+X c #FEA1FD",
"+W c #FEA5FD",
"+V c #FFAFFE",
"+U c #FFB8FD",
"+T c #FF92FD",
"+S c #FF90FD",
"+R c #FF91FD",
"+Q c #FE95FD",
"+P c #FF95FD",
"+O c #FF98FD",
"+N c #FFABFD",
"+M c #FFB5FD",
"+L c #FEBBFD",
"+K c #FE9AFD",
"+J c #FE99FD",
"+I c #FF9BFD",
"+H c #FFA2FD",
"+G c #FFA8FD",
"+F c #FFB2FE",
"+E c #FEB5FE",
"+D c #FFBDFD",
"+C c #FE9EFD",
"+B c #FF9FFD",
"+A c #FFA5FD",
"+z c #FEA8FD",
"+y c #FEABFD",
"+x c #FFB9FE",
"+w c #FFBCFE",
"+v c #FFBEFE",
"+u c #FEBDFE",
"+t c #FFA3FD",
"+s c #FEA2FD",
"+r c #FEACFD",
"+q c #FEB8FD",
"+p c #FEBBFE",
"+o c #FEA6FD",
"+n c #FEA9FD",
"+m c #FFBCFD",
"+l c #FFC2FE",
"+k c #FFC0FD",
"+j c #FFAAFD",
"+i c #FFACFD",
"+h c #FFAFFD",
"+g c #FFB2FD",
"+f c #FFC3FE",
"+e c #FEAFFD",
"+d c #FEB5FD",
"+c c #FEBFFE",
"+b c #FEC2FC",
"+a c #FFB3FD",
"+0 c #FEB6FD",
"+9 c #FFB9FD",
"+8 c #FEBCFD",
"+7 c #FFBFFE",
"+6 c #FEC2FE",
"+5 c #FFC6FD",
"+4 c #FFB6FD",
"+3 c #FEB9FD",
"+2 c #FEBCFE",
"+1 c #FFC0FE",
"+| c #FEC3FE",
"+} c #FEC7FD",
"+[ c #FEB2FD",
"+< c #FFBBFD",
"+: c #FEC0FE",
"+_ c #FEC2FD",
"+( c #FEC6FE",
"+/ c #FEC9FE",
"+^ c #FFCBFD",
"+] c #FEC8FE",
"+{ c #FFBFFD",
"+~ c #FFC3FD",
"+! c #FFC6FE",
"+) c #FFB5FE",
"+' c #FEC4FD",
"+, c #FFC9FE",
"+> c #FFCDFE",
"+; c #FFC4FD",
"+- c #FFCCFE",
"+= c #FFD0FE",
"+* c #FECDFE",
"+& c #FEBFFD",
"+% c #FED0FD",
"+$ c #FECDFD",
"+# c #FED4FE",
"+@ c #FECEFE",
"++ c None",
"++++++++++++++++++++++++++++++++++++++++++++++++++++++++++++++++++++++++++++++++++++++++",
"++++++++++++++++++++++++++++++++++++++++++++++++++++++++++++++++++++++++++++++++++++++++",
"++++++++++++++++++++++++++++++++++++++++++++++++++++++++++++++++++++++++++++++++++++++++",
"+++++++++++++++++++++++++++++++++++++++++++@+#++++++++++++++++++++++++++++++++++++++++++",
"+++++++++++++++++++++++++++++++++++++++++++$+%+&++++++++++++++++++++++++++++++++++++++++",
"+++++++++++++++++++++++++++++++++++++++++*+=+-+;++++++++++++++++++++++++++++++++++++++++",
"+++++++++++++++++++++++++++++++++++++++++@+>+,+'+)++++++++++++++++++++++++++++++++++++++",
"+++++++++++++++++++++++++++++++++++++++>+-+,+!+~+{++++++++++++++++++++++++++++++++++++++",
"+++++++++++++++++++++++++++++++++++++]+^+/+(+_+:+<+[++++++++++++++++++++++++++++++++++++",
"+++++++++++++++++++++++++++++++++++++}+,+!+|+1+2+3+4++++++++++++++++++++++++++++++++++++",
"+++++++++++++++++++++++++++++++++++++5+!+6+7+8+9+0+a++++++++++++++++++++++++++++++++++++",
"+++++++++++++++++++++++++++++++++++b+(+_+c+8+3+d+[+e++++++++++++++++++++++++++++++++++++",
"+++++++++++++++++++++++++++++++++++~+f+7+2+9+4+g+h+i+j++++++++++++++++++++++++++++++++++",
"+++++++++++++++++++++++++++++++++k+l+&+m+3+4+[+h+i+n+o++++++++++++++++++++++++++++++++++",
"+++++++++++++++++++++++++++++++p+k+{+2+q+d+g+e+r+n+o+s+t++++++++++++++++++++++++++++++++",
"+++++++++++++++++++++++++++++++u+v+w+x+4+[+h+y+z+A+s+B+C++++++++++++++++++++++++++++++++",
"+++++++++++++++++++++++++++++x+D+2+q+E+F+e+i+G+A+H+B+I+J+K++++++++++++++++++++++++++++++",
"+++++++++++++++++++++++++++++L+w+x+M+g+h+N+G+A+H+B+I+O+P+P++++++++++++++++++++++++++++++",
"+++++++++++++++++++++++++++++<+q+M+g+h+N+G+A+H+B+I+O+Q+R+S+T++++++++++++++++++++++++++++",
"+++++++++++++++++++++++++++9+U+M+g+V+N+z+W+X+C+Y+Z+Q+R@+@@@#++++++++++++++++++++++++++++",
"++++++++++++++++++++++++@$+U+M+g@%+N+G+A+H+C+I+Z+Q+R@+@&@*@=@-++++++++++++++++++++++++++",
"+++++++++++++++++++++++++U+d+g+h+N+G+A+H+C+I+Z+P@;@+@@@*@>@,@,++++++++++++++++++++++++++",
"+++++++++++++++++++++++d@'@)@%+y+z@!+X+C+Y+Z@~@;@{@&@]@^@,@/@(@_++++++++++++++++++++++++",
"+++++++++++++++++++++++a+g@:+N@<@!@[@}+I+Z+P+R@+@|@1@2@,@3@4@5@6@7++++++++++++++++++++++",
"+++++++++++++++++++++g+[@:+N+z@!@[@}+Y+O@~+R@{@@@*@8@,@3@9@0@a@b@9++++++++++++++++++++++",
"++++++++++++++++++@c@)@%+y+z@d@[@}+I+Z+Q@;@+@&@e@^@f@3@4@5@g@h@i@i@j++++++++++++++++++++",
"++++++++++++++++@c@)@:@k@l@!+X@}+I+O@m+R@{@@@e@^@,@/@4@5@n@o@p@q@r@q++++++++++++++++++++",
"++++++++++++++++@s@%+N+G@!@[@}+I+Z@~@;@+@&@1@t@,@3@4@5@u@h@v@w@x@y@z@A++++++++++++++++++",
"++++++++++++++@B@:+N+G@!@[@}+I+O@m+R@+@|@1@t@,@C@4@5@n@o@p@w@r@y@D@E@F@G++++++++++++++++",
"++++++++++++@H@:+j+G@!@[@}+I@I@~+R@+@|@1@t@,@C@4@5@n@J@p@w@r@y@K@E@L@M@N@O++++++++++++++",
"++++++++++++@%+N@l@d+X+C+Y@P@~+R@+@|@1@^@f@/@Q@R@O@J@p@w@r@y@N@S@T@U@V@W@X++++++++++++++",
"++++++++++@Y+N@<@Z@[+C#+@P@~+R@##@@1@t###$@Q@5@O@J@p@w@x@y@z@E@L#%#&@W#*#=#%++++++++++++",
"++++++++#-+N@<@!@[+C+I@P@m@;@#@|@1@t#;#>@Q@5@g@o@v#,@r@y@K@E@L@U#'@W#)#*#)@U++++++++++++",
"++++++#!+N@l@!+X#~+K@P@~#{#]#@@e@^#;@7@Q@0@O@J@v@q@A#^@N@E@T@U#/#(#*#*#*#*#_#:++++++++++",
"+++++++y+G@!@[#<#+@P@m+R@#@|@1#[#;@C@4#}#|@o@p@w#1#2@K@E@L#3#&@W#)#)#)#)#)#)#4@F++++++++",
"+++++++n@!#5#<+Y@I@~+S#]@|@1#6#;@C#>#7#8@h#9#,@r@y@z#0#a@L#/#b#*#)#*#)#)#*#)#)#'#c++++++",
"++++++#d#5#<#+@P@~@;#e#f@@@]@##]@C#[@|@{++++++++++++#g#h@K#&#i#j#&#k@T@W#4#4#)#4#l++++++",
"++++++@!@[+B#m#n#o#m++++++++++++++++++++++++++++++++++++++++++++++++++++#p@r#q@M@F++++++",
"++++++++++++++++++++++++++++++++++++++++++++++++++++++++++++++++++++++++++++++++++++++++",
"++++++++++++++++++++++++++++++++++++++++++++++++++++++++++++++++++++++++++++++++++++++++",
"++++++++++++++++++++++++++++++++++++++++++++++++++++++++++++++++++++++++++++++++++++++++",
"++++++++++++++++++++++++++++++++++++++++++++++++++++++++++++++++++++++++++++++++++++++++",
"++++++++++++++++++++++++++++++++++++++++++++++++++++++++++++++++++++++++++++++++++++++++",
"++++++++++++++++++++++++++++++++++++++++++++++++++++++++++++++++++++++++++++++++++++++++"};
