/* XPM */
static char * ball_red_xpm[] = {
"44 44 356 2",
"$Z c #6B82FF",
"$Y c #7286FF",
"$X c #7589FF",
"$W c #8C9CFF",
"$V c #4F68FF",
"$U c #516BFF",
"$T c #546DFF",
"$S c #5C75FE",
"$R c #6B81FE",
"$Q c #768AFF",
"$P c #8A9CFE",
"$O c #92A3FF",
"$N c #546DFE",
"$M c #5C75FF",
"$L c #687EFE",
"$K c #6E84FE",
"$J c #8597FE",
"$I c #90A1FE",
"$H c #4E68FF",
"$G c #4E68FE",
"$F c #516BFE",
"$E c #546EFF",
"$D c #5770FE",
"$C c #5A73FF",
"$B c #6078FF",
"$A c #637AFE",
"$z c #667CFF",
"$y c #6C81FE",
"$x c #7186FE",
"$w c #778BFE",
"$v c #7D90FF",
"$u c #7F93FF",
"$t c #8395FE",
"$s c #4F69FF",
"$r c #526CFF",
"$q c #556EFE",
"$p c #5871FF",
"$o c #5B73FF",
"$n c #5E75FF",
"$m c #637AFF",
"$l c #7187FF",
"$k c #97A7FF",
"$j c #99A7FE",
"$i c #4E69FF",
"$h c #4E69FE",
"$g c #526CFE",
"$f c #556FFE",
"$e c #5871FE",
"$d c #5B73FE",
"$c c #5E76FE",
"$b c #647BFE",
"$a c #667DFE",
"$0 c #6F84FE",
"$9 c #7589FE",
"$8 c #7D91FE",
"$7 c #8193FF",
"$6 c #95A4FE",
"$5 c #4F69FE",
"$4 c #506AFE",
"$3 c #566FFE",
"$2 c #5E76FF",
"$1 c #6178FF",
"$| c #6A80FF",
"$} c #7085FE",
"$[ c #7387FF",
"$< c #788CFF",
"$: c #8A9BFF",
"$_ c #526BFE",
"$( c #536DFF",
"$/ c #5670FE",
"$^ c #5972FF",
"$] c #6279FF",
"${ c #6A80FE",
"$~ c #7388FE",
"$! c #7C8FFE",
"$) c #8294FF",
"$' c #A0ADFE",
"$, c #5770FF",
"$> c #5972FE",
"$; c #5C74FE",
"$- c #5F77FE",
"$= c #627AFE",
"$* c #657CFE",
"$& c #687EFF",
"$% c #6D83FF",
"$$ c #768BFE",
"$# c #7C90FE",
"$@ c #7F92FE",
"$+ c #8294FE",
"#Z c #8497FE",
"#Y c #9CAAFE",
"#X c #5A73FE",
"#W c #5D75FF",
"#V c #5F78FF",
"#U c #627AFF",
"#T c #657CFF",
"#S c #687FFF",
"#R c #6B81FF",
"#Q c #6E84FF",
"#P c #7488FE",
"#O c #798EFF",
"#N c #93A3FE",
"#M c #5F77FF",
"#L c #6078FE",
"#K c #637BFF",
"#J c #697FFF",
"#I c #6C82FF",
"#H c #7186FF",
"#G c #7489FF",
"#F c #778BFF",
"#E c #8697FF",
"#D c #8B9CFF",
"#C c #9FAEFF",
"#B c #A7B3FE",
"#A c #647BFF",
"#z c #667DFF",
"#y c #6980FF",
"#x c #6C82FE",
"#w c #6F84FF",
"#v c #7287FE",
"#u c #7489FE",
"#t c #788CFE",
"#s c #8093FF",
"#r c #8E9FFF",
"#q c #92A2FE",
"#p c #97A7FE",
"#o c #9AA9FF",
"#n c #A3B0FF",
"#m c #677EFF",
"#l c #697FFE",
"#k c #6D82FF",
"#j c #6F85FE",
"#i c #7287FF",
"#h c #758AFF",
"#g c #778CFF",
"#f c #7B8EFF",
"#e c #8193FE",
"#d c #8396FF",
"#c c #8698FE",
"#b c #8F9FFE",
"#a c #98A7FF",
"#0 c #9AAAFF",
"#9 c #A0AFFE",
"#8 c #6980FE",
"#7 c #6D83FE",
"#6 c #7085FF",
"#5 c #7387FE",
"#4 c #758AFE",
"#3 c #788DFE",
"#2 c #7B8FFF",
"#1 c #7E91FF",
"#| c #8496FE",
"#} c #8C9DFE",
"#[ c #90A0FF",
"#< c #92A3FE",
"#: c #95A5FE",
"#_ c #A6B4FE",
"#( c #A9B6FE",
"#/ c #7086FF",
"#^ c #768AFE",
"#] c #798DFF",
"#{ c #7B8FFE",
"#~ c #7E92FF",
"#! c #8194FF",
"#) c #8496FF",
"#' c #8799FE",
"#, c #90A0FE",
"#> c #96A5FE",
"#; c #9EADFF",
"#- c #A7B4FE",
"#= c #AAB6FF",
"#* c #AEBBFF",
"#& c #7388FF",
"#% c #768BFF",
"#$ c #798DFE",
"## c #7C90FF",
"#@ c #7F92FF",
"#+ c #8295FF",
"@Z c #8597FF",
"@Y c #8A9CFF",
"@X c #90A1FF",
"@W c #9CAAFF",
"@V c #A7B5FF",
"@U c #B0BBFF",
"@T c #B1BCFE",
"@S c #7A8EFF",
"@R c #7D90FE",
"@Q c #7F93FE",
"@P c #8295FE",
"@O c #889AFE",
"@N c #8B9CFE",
"@M c #8E9FFE",
"@L c #91A1FE",
"@K c #93A4FE",
"@J c #96A6FE",
"@I c #9FADFE",
"@H c #A2B0FE",
"@G c #A5B2FF",
"@F c #A7B5FE",
"@E c #ADBAFE",
"@D c #7D91FF",
"@C c #8093FE",
"@B c #8395FF",
"@A c #8598FF",
"@z c #889AFF",
"@y c #8B9DFF",
"@x c #8F9FFF",
"@w c #91A2FF",
"@v c #94A4FE",
"@u c #97A6FF",
"@t c #9DABFF",
"@s c #ABB8FF",
"@r c #B4BFFE",
"@q c #8194FE",
"@p c #8396FE",
"@o c #8698FF",
"@n c #899AFF",
"@m c #8FA0FE",
"@l c #94A4FF",
"@k c #9AA9FE",
"@j c #9DACFF",
"@i c #A6B3FF",
"@h c #A9B5FF",
"@g c #AEBBFE",
"@f c #8799FF",
"@e c #899BFE",
"@d c #8C9DFF",
"@c c #92A2FF",
"@b c #95A4FF",
"@a c #9BAAFE",
"@0 c #A0AEFE",
"@9 c #A3B1FE",
"@8 c #A9B5FE",
"@7 c #B4C0FF",
"@6 c #B7C2FE",
"@5 c #B9C4FF",
"@4 c #8A9BFE",
"@3 c #8D9EFF",
"@2 c #8FA0FF",
"@1 c #93A2FF",
"@| c #95A5FF",
"@} c #98A7FE",
"@[ c #9BAAFF",
"@< c #9EACFF",
"@: c #A1AFFF",
"@_ c #A3B1FF",
"@( c #A6B4FF",
"@/ c #ACB9FF",
"@^ c #91A1FF",
"@] c #93A3FF",
"@{ c #96A5FF",
"@~ c #9BABFF",
"@! c #A2AFFF",
"@) c #B2BEFF",
"@' c #B6C0FF",
"@, c #B8C3FF",
"@> c #96A6FF",
"@; c #99A8FE",
"@- c #9CABFE",
"@= c #A4B2FF",
"@* c #A7B4FF",
"@& c #AAB7FF",
"@% c #ADB9FF",
"@$ c #B0BCFE",
"@# c #B3BEFF",
"@@ c #B6C1FE",
"@+ c #BCC6FE",
"+Z c #99A8FF",
"+Y c #9CABFF",
"+X c #9FADFF",
"+W c #A5B2FE",
"+V c #A8B5FF",
"+U c #AAB7FE",
"+T c #B1BCFF",
"+S c #B3BFFE",
"+R c #B6C1FF",
"+Q c #B9C3FF",
"+P c #9DACFE",
"+O c #A0AEFF",
"+N c #A2B0FF",
"+M c #A5B3FF",
"+L c #A8B6FE",
"+K c #AEBAFE",
"+J c #B1BDFE",
"+I c #B4BFFF",
"+H c #B7C1FE",
"+G c #BDC6FE",
"+F c #C2CBFE",
"+E c #C3CDFE",
"+D c #A4B2FE",
"+C c #A6B3FE",
"+B c #ABB8FE",
"+A c #AEBAFF",
"+z c #B1BDFF",
"+y c #B4C0FE",
"+x c #BDC7FF",
"+w c #C0C9FE",
"+v c #C5CDFE",
"+u c #A9B6FF",
"+t c #ACB8FF",
"+s c #B2BDFF",
"+r c #B5BFFF",
"+q c #B7C2FF",
"+p c #BAC5FF",
"+o c #C0C9FF",
"+n c #C3CCFF",
"+m c #C6CFFF",
"+l c #C7D0FF",
"+k c #AFBBFF",
"+j c #B3BEFE",
"+i c #B5C0FE",
"+h c #B8C2FE",
"+g c #BBC5FE",
"+f c #BDC7FE",
"+e c #C1CAFE",
"+d c #C4CCFE",
"+c c #C6CFFE",
"+b c #C9D1FE",
"+a c #C9D1FF",
"+0 c #B5C0FF",
"+9 c #B9C3FE",
"+8 c #BBC5FF",
"+7 c #BEC8FE",
"+6 c #C1CAFF",
"+5 c #CCD3FF",
"+4 c #BAC4FE",
"+3 c #BCC6FF",
"+2 c #BFC8FE",
"+1 c #C2CAFF",
"+| c #C7CFFF",
"+} c #CAD2FF",
"+[ c #CDD4FF",
"+< c #BFC8FF",
"+: c #C2CBFF",
"+_ c #C4CDFE",
"+( c #C7D0FE",
"+/ c #CAD2FE",
"+^ c #CDD5FE",
"+] c #CFD6FF",
"+{ c #C6CEFE",
"+~ c #C8D0FF",
"+! c #CBD3FF",
"+) c #CED5FF",
"+' c #D0D7FF",
"+, c #D1D8FE",
"+> c #CBD4FE",
"+; c #CED6FF",
"+- c #D1D8FF",
"+= c #D4DAFE",
"+* c #D2D8FF",
"+& c #D5DBFE",
"+% c #D6DCFF",
"+$ c #D6DCFE",
"+# c #D7DDFF",
"+@ c #D7DEFE",
"++ c None",
"++++++++++++++++++++++++++++++++++++++++++++++++++++++++++++++++++++++++++++++++++++++++",
"++++++++++++++++++++++++++++++++++++++++++++++++++++++++++++++++++++++++++++++++++++++++",
"++++++++++++++++++++++++++++++++++++++++++++++++++++++++++++++++++++++++++++++++++++++++",
"++++++++++++++++++++++++++++++++++++++++++++++++++++++++++++++++++++++++++++++++++++++++",
"+++++++++++++++++++++++++++++++++++++++@+#+$++++++++++++++++++++++++++++++++++++++++++++",
"+++++++++++++++++++++++++++++++++++++++%+&+*++++++++++++++++++++++++++++++++++++++++++++",
"+++++++++++++++++++++++++++++++++++++++=+-+;+>++++++++++++++++++++++++++++++++++++++++++",
"+++++++++++++++++++++++++++++++++++++,+'+)+!+~+{++++++++++++++++++++++++++++++++++++++++",
"+++++++++++++++++++++++++++++++++++++]+^+/+(+_+:+<++++++++++++++++++++++++++++++++++++++",
"+++++++++++++++++++++++++++++++++++++[+}+|+_+1+2+3+4++++++++++++++++++++++++++++++++++++",
"+++++++++++++++++++++++++++++++++++5+}+|+_+6+7+8+9+0++++++++++++++++++++++++++++++++++++",
"+++++++++++++++++++++++++++++++++a+b+c+d+e+f+g+h+i+j+k++++++++++++++++++++++++++++++++++",
"+++++++++++++++++++++++++++++++++l+m+n+o+f+p+q+r+s+k+t+u++++++++++++++++++++++++++++++++",
"+++++++++++++++++++++++++++++++++v+n+w+x+4+q+y+z+A+B+u+C+D++++++++++++++++++++++++++++++",
"+++++++++++++++++++++++++++++++E+F+o+G+4+H+I+J+K+B+L+M+N+O+P++++++++++++++++++++++++++++",
"+++++++++++++++++++++++++++++e+6+<+3+Q+R+S+T+K+U+V+W+N+X+Y+Z++++++++++++++++++++++++++++",
"+++++++++++++++++++++++++++++o+<@++9@@@#@$@%@&@*@=+N+X@-@;@>++++++++++++++++++++++++++++",
"+++++++++++++++++++++++++++++G+8@,@'@)+k@%@&@*@=@!+X@~+Z@{@]@^++++++++++++++++++++++++++",
"+++++++++++++++++++++++++++g+p+h+0@)+k@/+u@(@_@:@<@[@}@|@1@2@3@4++++++++++++++++++++++++",
"++++++++++++++++++++++++++@5@6@7+s+k+t@8+C@9@0+P@a@}@b@c@2@d@e@f++++++++++++++++++++++++",
"+++++++++++++++++++++++++++R+I+z@g+t@h@i@_@0@j@k@}@l@c@m@d@n@o@p@q++++++++++++++++++++++",
"+++++++++++++++++++++++++0@r+z+A@s+V+M+N@0@t@k@u@v@w@x@y@z@A@B@C@D++++++++++++++++++++++",
"++++++++++++++++++++++++@)@$@E+U@F@G@H@I@-@;@J@K@L@M@N@O@A@P@Q@R@S++++++++++++++++++++++",
"++++++++++++++++++++++@T@U@%@&@V@=@:+X@W@;@>@]@X@3@Y@f@Z#+#@###$#%#&++++++++++++++++++++",
"++++++++++++++++++++++#*@%#=#-@=@:#;@a+Z#>@]#,@3@Y#'#)#!#~#{#]#^#&#/++++++++++++++++++++",
"++++++++++++++++++++++@s#(#_@9@:@<@[@}#:#<#[#}@4#'#|#!#1#2#3#4#5#6#7#8++++++++++++++++++",
"+++++++++++++++++++++U@8+C@_#9@j#0#a@|@c#b@d@e#c#d#e#1#f#g#h#i#j#k#l#m++++++++++++++++++",
"++++++++++++++++++++@F+M#n+O@j#o#p@v#q#r#}@n@o#d#s@D@S#t#u#v#w#x#y#z#A++++++++++++++++++",
"++++++++++++++++++#B@G+N#C+Y#o@u@l@^#r#D@z#E#+#s@D@S#F#G#H#w#I#J#z#K#L#M++++++++++++++++",
"++++++++++++++++++@_+N+X+Y+Z@>#N@X#r#D@z@Z#+#@###O#%#P#H#Q#R#S#T#U#V#W#X++++++++++++++++",
"++++++++++++++++@!@:@I#Y@;@J#N#[@3#D@f#Z$+$@$##$$$#P#/$%#R$&$*$=$-$;$>$,++++++++++++++++",
"++++++++++++++++$'@<@a#a#:#<@2@3@4@f#)$)#@$!#]$$$~#/$%${#m#A$]#M$;$^$/$($_++++++++++++++",
"++++++++++++++++@t@a#a#:@c@m@d$:@o#)#!#1#{$<#^$[$}$%$|#m#A$1$2$;$^$3$($4$5++++++++++++++",
"++++++++++++++@a@k@}$6#q#b#}@e#c@p$7$8#{#t$9#v$0#x#8$a$b$1$c$d$e$f$g$4$h$i++++++++++++++",
"++++++++++++++$j$k@v@w#r@y@n@o@B#s@D@S#g#u$l#w#I#J#z$m$1$n$o$p$q$r$s$i$i$i++++++++++++++",
"++++++++++++++@{@l@L#r@N@z@A$t$u$v@S$w#G$x#Q$y#S$z$A$B#W$C$D$E$F$s$G$i$i$H++++++++++++++",
"++++++++++++@K@]$I@M@Y@O$J@P$@###]#%#P$x$K#R$L$*$=$-$M$C$,$N$F$5$i$h$h$G$h$s++++++++++++",
"++++++++++++$O@X@3$P@f#Z$+#@$!#]$Q#&#/$%$R$&$*$=#M$S$^$,$T$U$s$V$i$G$G$H$G$i++++++++++++",
"++++++++++++@X@M$W@z@A@B#s$v@S#F$X$Y$K$Z#J#z++++++++++++++++++++++++++++++++++++++++++++",
"++++++++++++++++++++++++++++++++++++++++++++++++++++++++++++++++++++++++++++++++++++++++",
"++++++++++++++++++++++++++++++++++++++++++++++++++++++++++++++++++++++++++++++++++++++++",
"++++++++++++++++++++++++++++++++++++++++++++++++++++++++++++++++++++++++++++++++++++++++",
"++++++++++++++++++++++++++++++++++++++++++++++++++++++++++++++++++++++++++++++++++++++++",
"++++++++++++++++++++++++++++++++++++++++++++++++++++++++++++++++++++++++++++++++++++++++"};
