/* XPM */
static char * ball_red_xpm[] = {
"66 66 464 2",
"&^ c #767676",
"&] c #4A4A4A",
"&{ c #E5E5E5",
"&~ c #636363",
"&! c #8E8E8E",
"&) c #F7F7F7",
"&' c #323232",
"&, c #191919",
"&> c #4F4F4F",
"&; c #251500",
"&- c #75600C",
"&= c #755901",
"&* c #756508",
"&& c #755000",
"&% c #755201",
"&$ c #756B11",
"&# c #755A00",
"&@ c #755200",
"&+ c #6B5803",
"%Z c #151515",
"%Y c #160A00",
"%X c #563E0B",
"%W c #CC9B1A",
"%V c #DCA116",
"%U c #FEC21A",
"%T c #FEB10B",
"%S c #FFB40B",
"%R c #FFCA28",
"%Q c #FBB313",
"%P c #FEB90F",
"%O c #FEB50D",
"%N c #FE9600",
"%M c #FA9501",
"%L c #CC7907",
"%K c #CC8103",
"%J c #815707",
"%I c #1F1100",
"%H c #0D0D0D",
"%G c #734109",
"%F c #CC7613",
"%E c #FF8B0E",
"%D c #FE880B",
"%C c #FF7D05",
"%B c #FEA826",
"%A c #FC901E",
"%z c #FE7F0B",
"%y c #FE7E07",
"%x c #F26D06",
"%w c #FE8C08",
"%v c #FF8807",
"%u c #FE961C",
"%t c #FE991E",
"%s c #FF9E21",
"%r c #FE850A",
"%q c #FEAB29",
"%p c #E07506",
"%o c #B6B6B6",
"%n c #0A0601",
"%m c #8D480B",
"%l c #FC8115",
"%k c #FEA337",
"%j c #FD760C",
"%i c #FE7406",
"%h c #FD6608",
"%g c #FE7B0D",
"%f c #FE7E15",
"%e c #FE8013",
"%d c #FE8415",
"%c c #FE7007",
"%b c #FB5302",
"%a c #FC6203",
"%0 c #FE7A14",
"%9 c #FE7D11",
"%8 c #FF7106",
"%7 c #FE7806",
"%6 c #FE8113",
"%5 c #E07713",
"%4 c #BABABA",
"%3 c #0F0F0F",
"%2 c #96480D",
"%1 c #FE6208",
"%| c #FF6407",
"%} c #FE7D14",
"%[ c #FB6A11",
"%< c #FE760C",
"%: c #F9731E",
"%_ c #FF660E",
"%( c #FF7A19",
"%/ c #FE6202",
"%^ c #FE5A00",
"%] c #FF7817",
"%{ c #FA5C06",
"%~ c #FB6404",
"%! c #FD620A",
"%) c #FE811D",
"%' c #FE6C09",
"%, c #FE6B07",
"%> c #FA5B0A",
"%; c #DF4700",
"%- c #F5F5F5",
"%= c #606060",
"%* c #0B0200",
"%& c #871F03",
"%% c #FA610B",
"%$ c #FF5E04",
"%# c #FE5E05",
"%@ c #FE791B",
"%+ c #F0490A",
"$Z c #FE6E14",
"$Y c #D2500A",
"$X c #C13004",
"$W c #280D00",
"$V c #280F00",
"$U c #280E00",
"$T c #281304",
"$S c #281202",
"$R c #281101",
"$Q c #281303",
"$P c #A54204",
"$O c #D1671A",
"$N c #D54B07",
"$M c #FE5206",
"$L c #E04907",
"$K c #747474",
"$J c #942700",
"$I c #FE520A",
"$H c #EF2F01",
"$G c #FE6413",
"$F c #EF2E02",
"$E c #F43900",
"$D c #FF5006",
"$C c #AA2600",
"$B c #0C0501",
"$A c #7A3007",
"$z c #C35A1A",
"$y c #E4E4E4",
"$x c #1C1C1C",
"$w c #1A0100",
"$v c #E82900",
"$u c #FB4A10",
"$t c #F63A05",
"$s c #F64709",
"$r c #F22702",
"$q c #D31B00",
"$p c #290A00",
"$o c #0C0200",
"$n c #170901",
"$m c #181818",
"$l c #DADADA",
"$k c #7A7A7A",
"$j c #BD0E00",
"$i c #EE1802",
"$h c #F63105",
"$g c #F42D03",
"$f c #EC2100",
"$e c #F62504",
"$d c #600D00",
"$c c #232323",
"$b c #131313",
"$a c #0E0E0E",
"$0 c #DE0400",
"$9 c #EC0C00",
"$8 c #E40800",
"$7 c #FC2103",
"$6 c #EA0D02",
"$5 c #900200",
"$4 c #0B0100",
"$3 c #363636",
"$2 c #A7A7A7",
"$1 c #E0E0E0",
"$| c #CFCFCF",
"$} c #383838",
"$[ c #C80000",
"$< c #E80400",
"$: c #F60500",
"$_ c #F30300",
"$( c #F51306",
"$/ c #EA0A05",
"$^ c #FCFCFC",
"$] c #393939",
"${ c #CA0000",
"$~ c #DB0000",
"$! c #E30000",
"$) c #F20000",
"$' c #D70000",
"$, c #121212",
"$> c #C1C1C1",
"$; c #600000",
"$- c #D20000",
"$= c #C10000",
"$* c #B80000",
"$& c #BA0000",
"$% c #D60000",
"$$ c #590000",
"$# c #242424",
"$@ c #6B6B6B",
"$+ c #A6A6A6",
"#Z c #898989",
"#Y c #B10000",
"#X c #A60000",
"#W c #B70000",
"#V c #AE0000",
"#U c #9E0000",
"#T c #980000",
"#S c #C3C3C3",
"#R c #8A0000",
"#Q c #830000",
"#P c #8C0000",
"#O c #970000",
"#N c #9A0000",
"#M c #960606",
"#L c #656565",
"#K c #DDDDDD",
"#J c #5B5B5B",
"#I c #940000",
"#H c #AB1616",
"#G c #7B0000",
"#F c #5D0000",
"#E c #7E0D0D",
"#D c #760000",
"#C c #5B0000",
"#B c #880000",
"#A c #790000",
"#z c #160000",
"#y c #D8D8D8",
"#x c #6A0000",
"#w c #5F0000",
"#v c #680000",
"#u c #7D0000",
"#t c #6B0000",
"#s c #690000",
"#r c #730000",
"#q c #670000",
"#p c #6D0000",
"#o c #8C0505",
"#n c #750000",
"#m c #DFDFDF",
"#l c #610000",
"#k c #650000",
"#j c #6E0101",
"#i c #220000",
"#h c #750404",
"#g c #660404",
"#f c #680303",
"#e c #500000",
"#d c #5A0000",
"#c c #D7D7D7",
"#b c #530000",
"#a c #640000",
"#0 c #380101",
"#9 c #360000",
"#8 c #620000",
"#7 c #440000",
"#6 c #390000",
"#5 c #700000",
"#4 c #4A0000",
"#3 c #4C0000",
"#2 c #4E0000",
"#1 c #5E0000",
"#| c #4B0000",
"#} c #2C2C2C",
"#[ c #E1E1E1",
"#< c #4D0101",
"#: c #680202",
"#_ c #340000",
"#( c #310000",
"#/ c #550101",
"#^ c #450000",
"#] c #3E0000",
"#{ c #300101",
"#~ c #510101",
"#! c #4D0000",
"#) c #3B0000",
"#' c #2F0000",
"#, c #9B9B9B",
"#> c #570000",
"#; c #540000",
"#- c #4F0000",
"#= c #3F0000",
"#* c #100101",
"#& c #200101",
"#% c #620202",
"#$ c #490000",
"## c #510000",
"#@ c #350000",
"#+ c #400000",
"@Z c #460000",
"@Y c #260000",
"@X c #410000",
"@W c #2E0000",
"@V c #2B0000",
"@U c #570606",
"@T c #370000",
"@S c #4D0202",
"@R c #440101",
"@Q c #1D0000",
"@P c #3D0303",
"@O c #2C0000",
"@N c #380000",
"@M c #480000",
"@L c #4F0202",
"@K c #370101",
"@J c #3C0000",
"@I c #590808",
"@H c #420000",
"@G c #1E0000",
"@F c #595959",
"@E c #C7C7C7",
"@D c #C4C4C4",
"@C c #585858",
"@B c #1F0000",
"@A c #460202",
"@z c #4D0303",
"@y c #4B0E0E",
"@x c #270000",
"@w c #1C0000",
"@v c #290000",
"@u c #320000",
"@t c #2D0000",
"@s c #3A0000",
"@r c #727272",
"@q c #FDFDFD",
"@p c #FBFBFB",
"@o c #6E6E6E",
"@n c #2A0000",
"@m c #300000",
"@l c #240000",
"@k c #3D0000",
"@j c #430F0F",
"@i c #260101",
"@h c #330000",
"@g c #C6C6C6",
"@f c #C2C2C2",
"@e c #1B1B1B",
"@d c #100000",
"@c c #430707",
"@b c #310101",
"@a c #969696",
"@0 c #230000",
"@9 c #2C0404",
"@8 c #360909",
"@7 c #130000",
"@6 c #070000",
"@5 c #320404",
"@4 c #4F0F0F",
"@3 c #250101",
"@2 c #1A0000",
"@1 c #8F8F8F",
"@| c #8A8A8A",
"@} c #2A0101",
"@[ c #250000",
"@< c #0D0000",
"@: c #110000",
"@_ c #D9D9D9",
"@( c #180000",
"@/ c #280000",
"@^ c #0A0303",
"@] c #311313",
"@{ c #1B0000",
"@~ c #0C0000",
"@! c #F4F4F4",
"@) c #EFEFEF",
"@' c #190000",
"@, c #200000",
"@> c #0B0202",
"@; c #200404",
"@- c #0E0000",
"@= c #090000",
"@* c #120000",
"@& c #E3E3E3",
"@% c #6F6F6F",
"@$ c #180202",
"@# c #210C0C",
"@@ c #210000",
"@+ c #230E0E",
"+Z c #0C0404",
"+Y c #4C4C4C",
"+X c #0B0000",
"+W c #140000",
"+V c #170000",
"+U c #050101",
"+T c #120303",
"+S c #2D2D2D",
"+R c #E2E2E2",
"+Q c #0F0000",
"+P c #0F0101",
"+O c #1E0202",
"+N c #110707",
"+M c #060202",
"+L c #434343",
"+K c #F3F3F3",
"+J c #282828",
"+I c #A3A3A3",
"+H c #9E9E9E",
"+G c #AFAFAF",
"+F c #202020",
"+E c #686868",
"+D c #F2F2F2",
"+C c #D4D4D4",
"+B c #1F1F1F",
"+A c #D6D6D6",
"+z c #D1D1D1",
"+y c #080000",
"+x c #060000",
"+w c #575757",
"+v c #848484",
"+u c #545454",
"+t c #0A0000",
"+s c #020000",
"+r c #050000",
"+q c #040000",
"+p c #E9E9E9",
"+o c #F6F6F6",
"+n c #646464",
"+m c #030000",
"+l c #040101",
"+k c #7F7F7F",
"+j c #BCBCBC",
"+i c #040202",
"+h c #BFBFBF",
"+g c #414141",
"+f c #020101",
"+e c #010000",
"+d c #474747",
"+c c #E6E6E6",
"+b c #3C3C3C",
"+a c #0C0C0C",
"+0 c #111111",
"+9 c #3F3F3F",
"+8 c #E8E8E8",
"+7 c #909090",
"+6 c #141414",
"+5 c #010101",
"+4 c #070707",
"+3 c #949494",
"+2 c #797979",
"+1 c #1D1D1D",
"+| c #7E7E7E",
"+} c #828282",
"+[ c #0A0A0A",
"+< c #060606",
"+: c #858585",
"+_ c #F8F8F8",
"+( c #3B3B3B",
"+/ c #3E3E3E",
"+^ c #B9B9B9",
"+] c #030303",
"+{ c #040404",
"+~ c #3D3D3D",
"+! c #BDBDBD",
"+) c #F0F0F0",
"+' c #9A9A9A",
"+, c #050505",
"+> c #000000",
"+; c #080808",
"+- c #939393",
"+= c #9C9C9C",
"+* c #424242",
"+& c #454545",
"+% c #EAEAEA",
"+$ c #EBEBEB",
"+# c #FFFFFF",
"+@ c #FEFEFE",
"++ c None",
"++++++++++++++++++++++++++++++++++++++++++++++++++++++++++++++++++++++++++++++++++++++++++++++++++++++++++++++++++++++++++++++++++++",
"++++++++++++++++++++++++++++++++++++++++++++++++++++++++++++++++++++++++++++++++++++++++++++++++++++++++++++++++++++++++++++++++++++",
"+++++++++++++++++++++++++++++++++++++++++++++++++++++++++++++++++++++++++@+#+#++++++++++++++++++++++++++++++++++++++++++++++++++++++",
"+++++++++++++++++++++++++++++++++++++++++++++++++++@+#+#+#+#+#+#+#+#+@+#+@+@+@+#+#++++++++++++++++++++++++++++++++++++++++++++++++++",
"+++++++++++++++++++++++++++++++++++++++++++++++#+#+#+@+#+#+#+#+@+@+#+#+#+@+@+#+@+#+#+#++++++++++++++++++++++++++++++++++++++++++++++",
"+++++++++++++++++++++++++++++++++++++++++++++#+@+#+@+@+#+#+#+#+@+#+#+#+#+#+#+#+@+#+@+@+#++++++++++++++++++++++++++++++++++++++++++++",
"+++++++++++++++++++++++++++++++++++++++++++@+#+@+@+#+@+#+#+@+@+@+@+#+#+@+#+#+#+@+@+#+@+#+#++++++++++++++++++++++++++++++++++++++++++",
"+++++++++++++++++++++++++++++++++++++++#+#+#+@+#+@+#+@+$+%+%+%+&+*+%+%+%+$+#+#+@+#+@+@+@+#+@+#++++++++++++++++++++++++++++++++++++++",
"+++++++++++++++++++++++++++++++++++++#+#+#+@+@+@+@+=+-+;+>+>+>+>+>+>+>+>+,+-+'+#+#+@+#+@+#+#+#+#+#++++++++++++++++++++++++++++++++++",
"+++++++++++++++++++++++++++++++++++#+#+@+@+@+)+!+~+{+>+>+>+>+>+>+>+>+>+>+>+>+]+~+^+)+@+@+@+@+#+#+#+#++++++++++++++++++++++++++++++++",
"+++++++++++++++++++++++++++++++++#+@+@+#+@+=+/+>+>+>+>+>+>+>+>+>+>+>+>+>+>+>+>+>+>+(+'+#+@+@+@+@+@+@+#++++++++++++++++++++++++++++++",
"+++++++++++++++++++++++++++++++#+#+#+@+_+:+<+>+>+>+>+>+>+>+>+>+<+>+[+>+>+>+>+>+>+>+>+,+}+_+@+@+@+@+@+@++++++++++++++++++++++++++++++",
"+++++++++++++++++++++++++++++#+@+#+@+#+|+>+>+>+>+>+>+>+>+>+>+>+1+>+>+]+>+>+>+>+>+>+>+>+>+2+#+@+@+@+#+@++++++++++++++++++++++++++++++",
"+++++++++++++++++++++++++++#+@+#+#+#+3+4+>+>+>+5+]+>+>+>+6+5+>+>+>+]+5+>+>+>+>+>+>+>+>+>+<+7+#+#+#+#+@++++++++++++++++++++++++++++++",
"+++++++++++++++++++++++++++#+#+@+@+8+9+>+>+>+>+>+>+>+>+>+>+>+0+>+>+>+>+a+]+>+>+>+>+>+>+>+>+b+c+#+@+@+#+@++++++++++++++++++++++++++++",
"+++++++++++++++++++++++++++@+@+@+#+d+>+>+>+>+e+>+>+>+>+>+f+>+<+>+>+>+>+{+5+>+>+>+>+>+>+>+>+>+g+@+@+#+#+#+#++++++++++++++++++++++++++",
"+++++++++++++++++++++++++#+#+@+#+h+6+>+>+>+>+i+>+>+>+>+>+>+>+>+>+>+>+>+>+>+>+>+>+>+e+>+>+>+>+0+j+#+#+#+@+#++++++++++++++++++++++++++",
"+++++++++++++++++++++++++#+@+#+#+k+>+>+>+e+>+>+>+e+e+e+>+>+>+>+>+>+>+>+>+>+l+m+>+>+e+>+>+>+>+>+n+o+#+#+#+#+#++++++++++++++++++++++++",
"+++++++++++++++++++++++++@+#+#+p+~+>+>+>+q+r+s+t+q+>+>+>+>+>+u+v+v+w+>+>+>+>+>+>+>+x+e+>+y+>+>+>+z+@+#+#+@+@++++++++++++++++++++++++",
"+++++++++++++++++++++++#+#+#+@+A+>+>+>+>+>+s+x+s+>+>+>+>+B+C+D+#+@+D+E+F+>+>+>+r+m+>+s+y+s+>+>+>+G+@+@+@+@+#+#++++++++++++++++++++++",
"+++++++++++++++++++++++#+#+#+#+A+>+>+>+>+>+>+>+>+>+>+>+>+H+#+#+#+@+@+#+I+>+>+>+>+>+>+q+s+e+>+>+>+J+#+#+#+#+@+#++++++++++++++++++++++",
"+++++++++++++++++++++++#+#+@+#+*+>+>+s+>+>+r+>+e+>+>+>+/+K+@+@+@+@+#+@+K+L+>+>+M+N+r+m+O+P+Q+>+>+B+R+#+@+#+#+@++++++++++++++++++++++",
"+++++++++++++++++++++#+@+@+@+@+S+>+>+T+U+s+V+r+W+X+>+>+d+@+@+@+@+@+@+@+@+Y+>+>+Z@+@@+r+s+s+X+>+>+>+k+#+@+#+@+#++++++++++++++++++++++",
"+++++++++++++++++++++#+#+#+@+@+S+>+>+y+X+y+V@#@$+e+>+>@%+@+#+#+@+@+@+#+#@&+>+>+>+s@*@=@-+q@;@>+>+>+k+@+@+#+@+@++++++++++++++++++++++",
"+++++++++++++++++++++@+@+@+#+#+S+>+>@=@*+>@,@=@'+>+>+>@)+@+#+@+#+#+#+@+@@!+>+>+>+t@'+y+y+q+X+q+>+>+k+#+#+#+@+#++++++++++++++++++++++",
"+++++++++++++++++++++#+@+#+@+@+S+>+>+Q+y@~@{@]@^+>+>+>@)+@+@+#+#+@+@+@+#@!+>+>+>@/+x+y+V+q+m@(+>+>+[@_+@+#+@+#++++++++++++++++++++++",
"+++++++++++++++++++++#+#+#+@+@+S+>+>@:@<@[@}@:+e+>+>+>@|+@+@+#+#+#+@+@+#@1+>+>+>+W@2+x+q@(@'@:+>+>+>+A+@+@+#+#++++++++++++++++++++++",
"+++++++++++++++++++++#+@+#+@+#+S+>+>+t@[+W@3@4@5@6+>+>+d+#+#+@+@+#+@+#+@+Y+>+>@-@7+V+Q@8@9@0@-+>+>+>+A+@+@+#+#++++++++++++++++++++++",
"+++++++++++++++++++++++#+@+#+@@a+>+>+W+W@-@b@c@[@d+>+>@e@f+@+#+@+@+#+#@g+1+>+>+x@[@:@h@(+q@i@j+>+>+>+A+#+#+@+#++++++++++++++++++++++",
"+++++++++++++++++++++++@+@+@+#+A+>+>+>@k@l@m@d@n+V+e+>+>@o@p+#+@+#+#@q@r+>+>+>+r@s@t@u@v@w@x@t+>+>+>+A+#+#+@+#++++++++++++++++++++++",
"+++++++++++++++++++++++#+#+@+@+A+>+>+>@,@y@z@0@A@B+s+>+>+>@C@D+#+@@E@F+>+>+>+>@*@t@G@n@h@G@H@I+>+>+>+A+@+@+#+@+#++++++++++++++++++++",
"+++++++++++++++++++++++#+#+#+#@&+J+>+>+y@J@K@L@0@M@(+q+>+>+>+]+,+,+]+>+>+>+t@t@w@u@N@*@N@O@P@*+>+>+>+A+#+#+#+@+#++++++++++++++++++++",
"+++++++++++++++++++++++++@+@+#+#+k+>+>+m@Q@R@S@n@T@B@v+e+>+>+>+>+>+>+>+>+m@U@V@W@X@Y+Q@n@Z@u@(+>+>+>+A+#+@+@+@+@+#++++++++++++++++++",
"+++++++++++++++++++++++++@+@+#+@+#+J+>+>@*@m#+#@@M###$#%@[#&#*+>+>+q+r@:@B@Y@T@3@k#=#-#$#-#;#>+>+>+>+A+@+#+@+@+#+#++++++++++++++++++",
"+++++++++++++++++++++++++#+#+@+#+##,+>+>+>+W#'@s#'#)@s@Z#!#~#{#'@m@l+W#]#+#^#^#/@/#(#_#:#<@X@k+>+>+>+A+#+#+#+#+@+#++++++++++++++++++",
"+++++++++++++++++++++++++++#+@+@+@#[#}+>+>+>@B#=#|@H@T#1#2@V#3@M#4@V#5#$#6#7##@~+m#=#8#9#0#a#b+>+>+>+A+@+#+@+#+#++++++++++++++++++++",
"+++++++++++++++++++++++++++#+@+#+#+##c+B+>+>+>@B#d#^#e#f#g#h#d#3#d#^#+#$#!#|#i+>+y@M@u#-#j#k#l+>+>+>+A+#+@+#+#+#++++++++++++++++++++",
"+++++++++++++++++++++++++++#+#+@+@+@+##m#}+>+>+>+>@W#3#b#n#o#p#q#r#s#t#u#$@@+>+>#4#t#v#e#w#x#d+>+>+>+A+#+@+@+#++++++++++++++++++++++",
"+++++++++++++++++++++++++++++#+#+#+#+#+##y+F+>+>+>+>+Q@Q#z#A#B#C#D#x@B@/@~+>+>+>#E#F#n#G#H#I@T+>+>#J+K+#+#+@+@++++++++++++++++++++++",
"+++++++++++++++++++++++++++++++#+@+#+#+@+##K#L+[+>+>+>+>+>+>+>+>+>+>+>+>+>+>+>+>#M#N#O#P#Q#R@,+>+>+k+#+#+@+#+#++++++++++++++++++++++",
"+++++++++++++++++++++++++++++++@+#+#+@+#+#+#+@#S#J+6+;+>+>+>+>+>+>+>+>+>+>+>+>@6#T#U#V#W#X#Y@@+>+]#Z+#+@+#+#+@++++++++++++++++++++++",
"+++++++++++++++++++++++++++++++++@+#+#+@+#+@+@+@+@+@$+$@$@+{+>+>+>$#$@$@+F+>+>$$$%$&$*$=$-$;+>+>+J+#+#+#+@+#+#++++++++++++++++++++++",
"+++++++++++++++++++++++++++++++#+@+@+#+@+@+@+@+@+#+@+@+@+#@D$>$>$>+A+@+^$,+>+e#l$'$)$!$~${#!+>+>$]+@+@+#+@+#++++++++++++++++++++++++",
"+++++++++++++++++++++++++++++++@+@+@+@+#+@+@+#+#+@+@+@+@+@+#+@+@+@+#$^#J+>+>@<$/$($_$:$<$[+>+>+>+z+@+@+@+#+@++++++++++++++++++++++++",
"+++++++++++++++++++++++++++#+@+#+@+#+@#S$}$}$}$|$1+8+#+@+@+#+@+#+@$2$3+>+>$4$5$6$7$8$9$0##+>+>$a+A+@+#+@+@+#++++++++++++++++++++++++",
"+++++++++++++++++++++++++++#+@+@+#+@@f$b+>+>+>+>+>$c#Z#Z#Z#Z#Z#Z#Z+>+>+>+>$d$e$f$g$h$i$j@2+>+>$k+@+#+@+#+#+#++++++++++++++++++++++++",
"+++++++++++++++++++++++++++@+#+#+#$l$m+>+>$n+>+>+>+>+>+>+>+>+>+>+>+>+>$o$p$q$r$s$t$u$v$w+>+>$x$y+#+#+#+#+@++++++++++++++++++++++++++",
"+++++++++++++++++++++++++#+#+#+@+@+z+>+>+>$z$A$B+>+>+>+>+>+>+>+>+>+>+s$C$D$E$F$G$H$I$J+>+>+>$K+#+@+@+@+#+@++++++++++++++++++++++++++",
"+++++++++++++++++++++++++@+@+@+@+#+z+>+>+>$L$M$N$O$P$Q$R$S$T$U$V$W$X$Y$Z%+%@%#%$%%%&%*+>+>%=%-+@+@+#+#+@+@++++++++++++++++++++++++++",
"+++++++++++++++++++++++++#+#+@+#+#+z+>+>+>%;%>%,%'%)%!%~%{%]%^%/%(%_%:%<%[%}%|%1%2+>+>+>%3%4+#+@+#+#+#+@+#++++++++++++++++++++++++++",
"+++++++++++++++++++++++++#+@+#+#+#+z+>+>+>%5%6%7%8%9%0%a%b%c%d%e%f%g%h%i%j%k%l%m%n+>+>+6%o+#+@+#+#+#+#+@++++++++++++++++++++++++++++",
"+++++++++++++++++++++++++@+#+#+#+@+z+>+>+>%p%q%r%s%t%u%v%w%x%y%z%A%B%C%D%E%F%G+>+>+>%H%4+@+#+#+#+#+@+#++++++++++++++++++++++++++++++",
"+++++++++++++++++++++++++#+@+@+@+@$l$m+>+>%I%J%K%L%M%N%O%P%Q%R%S%T%U%V%W%X%Y+>+>+>%Z%o+#+@+#+#+@+@+#+#++++++++++++++++++++++++++++++",
"+++++++++++++++++++++++++++#+#+@+#+#$k+>+>+>+>+>+>&+&@&#&$&%&&&*&=&-&;+>+>+>+>+>#L%4+#+@+#+#+#+#+#+#++++++++++++++++++++++++++++++++",
"+++++++++++++++++++++++++++#+@+@+@+#@)&>&,+>+>+>+>+>+>+>+>+>+>+>+>+>+>+>+>+>&'$1&)+@+@+@+#+#+@+#+@++++++++++++++++++++++++++++++++++",
"+++++++++++++++++++++++++++++#+@+#+#+@+#@f&!+/+>+>+>+>+>+>+>+>+>+>+>+>+>&~&!#m+#+@+@+@+@+#+@+@+#++++++++++++++++++++++++++++++++++++",
"+++++++++++++++++++++++++++++++@+#+@+@+#+@+@+)&{&{&]+~+~+~+~+~+~+~&^&{&{&)+@+#+#+#+@+@+#+#+#+#++++++++++++++++++++++++++++++++++++++",
"+++++++++++++++++++++++++++++++++#+#+#+#+@+@+#+@+@+@+@+@+@+#+@+#+#+#+@+@+@+@+@+@+#+@+#+@+@+#++++++++++++++++++++++++++++++++++++++++",
"+++++++++++++++++++++++++++++++++++#+#+@+@+#+#+#+#+@+#+#+@+@+#+#+@+@+@+#+#+#+@+#+@+@+#+#+@++++++++++++++++++++++++++++++++++++++++++",
"+++++++++++++++++++++++++++++++++++++++#+#+@+@+@+@+#+@+#+@+@+#+#+#+@+@+#+#+@+@+#+#+#+#+#++++++++++++++++++++++++++++++++++++++++++++",
"+++++++++++++++++++++++++++++++++++++++++++#+#+@+@+#+@+@+#+#+@+@+#+@+#+@+@+#+#+#+@++++++++++++++++++++++++++++++++++++++++++++++++++",
"+++++++++++++++++++++++++++++++++++++++++++++++++#+#+@+#+#+@+#+@+@+#+#+@+#+#++++++++++++++++++++++++++++++++++++++++++++++++++++++++",
"+++++++++++++++++++++++++++++++++++++++++++++++++++#+#+#+#+#+#+@+@+@+@+#+#++++++++++++++++++++++++++++++++++++++++++++++++++++++++++",
"++++++++++++++++++++++++++++++++++++++++++++++++++++++++++++++++++++++++++++++++++++++++++++++++++++++++++++++++++++++++++++++++++++",
"++++++++++++++++++++++++++++++++++++++++++++++++++++++++++++++++++++++++++++++++++++++++++++++++++++++++++++++++++++++++++++++++++++",
"++++++++++++++++++++++++++++++++++++++++++++++++++++++++++++++++++++++++++++++++++++++++++++++++++++++++++++++++++++++++++++++++++++"};
