/* XPM */
static char * ball_red_xpm[] = {
"66 66 483 2",
"&a c #120B00",
"&0 c #1E1A03",
"&9 c #1E1500",
"&8 c #1E1400",
"&7 c #1E1600",
"&6 c #1E1300",
"&5 c #1E1B03",
"&4 c #1E1901",
"&3 c #120E00",
"&2 c #1E1501",
"&1 c #755A0D",
"&| c #73500A",
"&} c #C88710",
"&[ c #FFDD29",
"&< c #FEB306",
"&: c #FFA400",
"&_ c #FEAD02",
"&( c #FCA800",
"&/ c #FC9A00",
"&^ c #FAAE0F",
"&] c #FFB906",
"&{ c #CA9708",
"&~ c #744306",
"&! c #463102",
"&) c #853A02",
"&' c #D97408",
"&, c #FE920D",
"&> c #FE9F15",
"&; c #FEA21A",
"&- c #FE9814",
"&= c #FE9E15",
"&* c #FEA51A",
"&& c #FFBC2F",
"&% c #FEA920",
"&$ c #FE870B",
"&# c #FD850C",
"&@ c #FD991A",
"&+ c #FEA91C",
"%Z c #FE930C",
"%Y c #EAA428",
"%X c #CC7A10",
"%W c #854904",
"%V c #080501",
"%U c #BEBEBE",
"%T c #421200",
"%S c #994B06",
"%R c #FF7F0A",
"%Q c #FE7807",
"%P c #FF9B21",
"%O c #FEA02C",
"%N c #FF7503",
"%M c #FF8817",
"%L c #FC7C17",
"%K c #F96D09",
"%J c #FE8612",
"%I c #FF931A",
"%H c #FEB63D",
"%G c #FE7708",
"%F c #F86402",
"%E c #FE800A",
"%D c #FF870E",
"%C c #FE7100",
"%B c #FE8714",
"%A c #FB891C",
"%z c #8C4004",
"%y c #2E1906",
"%x c #E9650E",
"%w c #FD7717",
"%v c #FC5B00",
"%u c #FE7C0F",
"%t c #FF6707",
"%s c #FC5609",
"%r c #FE791A",
"%q c #FF7211",
"%p c #FE811F",
"%o c #FC5B04",
"%n c #FE7A17",
"%m c #FF6C05",
"%l c #F95507",
"%k c #FB5A03",
"%j c #FE770C",
"%i c #FE8117",
"%h c #FF7207",
"%g c #FF760D",
"%f c #FE6709",
"%e c #FC5C07",
"%d c #F9841F",
"%c c #D15C06",
"%b c #2E1602",
"%a c #8C3B07",
"%0 c #FE8625",
"%9 c #FE4D05",
"%8 c #EF3300",
"%7 c #FD781E",
"%6 c #FE7B1E",
"%5 c #EE3800",
"%4 c #F74400",
"%3 c #D85306",
"%2 c #7F2700",
"%1 c #7F2C00",
"%| c #7F3806",
"%} c #7F2D00",
"%[ c #7F2B00",
"%< c #7F3405",
"%: c #D85D0A",
"%_ c #FE6404",
"%( c #FF6E0E",
"%/ c #FE5100",
"%^ c #FE6105",
"%] c #F23A00",
"%{ c #F94E01",
"%~ c #FE6506",
"%! c #851F00",
"%) c #732204",
"%' c #F43F05",
"%, c #FD671C",
"%> c #FE6110",
"%; c #FA4D03",
"%- c #FE590A",
"%= c #FD6513",
"%* c #B91F04",
"%& c #662305",
"%% c #1C0C02",
"%$ c #1C0C01",
"%# c #682D08",
"%@ c #CC3C09",
"%+ c #F23900",
"$Z c #F6510D",
"$Y c #FB5E1A",
"$X c #FA4801",
"$W c #FB4C05",
"$V c #EE5820",
"$U c #5F0300",
"$T c #212121",
"$S c #1A0400",
"$R c #C63A0D",
"$Q c #FD4A0C",
"$P c #F72600",
"$O c #F73C04",
"$N c #FE4703",
"$M c #FF4904",
"$L c #AB2F06",
"$K c #070100",
"$J c #AF3907",
"$I c #FE4804",
"$H c #FC4407",
"$G c #F83804",
"$F c #F53002",
"$E c #EF1F00",
"$D c #B20D00",
"$C c #170100",
"$B c #F6F6F6",
"$A c #666666",
"$z c #4D0C02",
"$y c #F82E05",
"$x c #F82A00",
"$w c #F31F00",
"$v c #F72000",
"$u c #F52200",
"$t c #C52700",
"$s c #0E0400",
"$r c #323232",
"$q c #0E0501",
"$p c #BB2600",
"$o c #FE3902",
"$n c #FD440C",
"$m c #F84C18",
"$l c #FB370B",
"$k c #D90600",
"$j c #A80100",
"$i c #CF0400",
"$h c #F31C00",
"$g c #EE0900",
"$f c #F71700",
"$e c #F21B00",
"$d c #601100",
"$c c #848484",
"$b c #4A0200",
"$a c #FB2500",
"$0 c #FB320F",
"$9 c #F01400",
"$8 c #FD380D",
"$7 c #EE341A",
"$6 c #810A05",
"$5 c #B90300",
"$4 c #D50800",
"$3 c #B50400",
"$2 c #D50401",
"$1 c #EE2615",
"$| c #E70F0A",
"$} c #130101",
"$[ c #130100",
"$< c #E90A00",
"$: c #DD0803",
"$_ c #E80300",
"$( c #DD0701",
"$/ c #F81706",
"$^ c #C50B02",
"$] c #E10000",
"${ c #E00000",
"$~ c #E40902",
"$! c #D70501",
"$) c #AB1E16",
"$' c #080302",
"$, c #272727",
"$> c #D70905",
"$; c #C50000",
"$- c #E50400",
"$= c #D40802",
"$* c #C60303",
"$& c #D40101",
"$% c #C00000",
"$$ c #C60000",
"$# c #B70000",
"$@ c #F5F5F5",
"$+ c #404040",
"#Z c #610101",
"#Y c #E50202",
"#X c #E90202",
"#W c #D00000",
"#V c #D10000",
"#U c #A10000",
"#T c #C70505",
"#S c #C90202",
"#R c #B50505",
"#Q c #D00A0A",
"#P c #BB0000",
"#O c #474747",
"#N c #500000",
"#M c #CC0C0C",
"#L c #D20000",
"#K c #B20000",
"#J c #B30000",
"#I c #900000",
"#H c #970000",
"#G c #8E0101",
"#F c #A90000",
"#E c #6C0000",
"#D c #343434",
"#C c #B40101",
"#B c #C20707",
"#A c #940303",
"#z c #C90606",
"#y c #820303",
"#x c #A70202",
"#w c #A00000",
"#v c #8F0000",
"#u c #830000",
"#t c #960000",
"#s c #740000",
"#r c #A20000",
"#q c #920000",
"#p c #9B0000",
"#o c #7D0000",
"#n c #5D0000",
"#m c #770000",
"#l c #6F0000",
"#k c #560000",
"#j c #C6C6C6",
"#i c #930000",
"#h c #8A0101",
"#g c #8E0000",
"#f c #640000",
"#e c #690000",
"#d c #520000",
"#c c #777777",
"#b c #610000",
"#a c #650000",
"#0 c #680000",
"#9 c #600000",
"#8 c #FBFBFB",
"#7 c #606060",
"#6 c #1D1D1D",
"#5 c #490000",
"#4 c #710000",
"#3 c #760101",
"#2 c #680404",
"#1 c #5C0101",
"#| c #6B0202",
"#} c #3C0404",
"#[ c #5A0000",
"#< c #620000",
"#: c #1F0000",
"#_ c #0C0C0C",
"#( c #A5A5A5",
"#/ c #550202",
"#^ c #650505",
"#] c #5F0000",
"#{ c #410000",
"#~ c #5E5E5E",
"#! c #440000",
"#) c #430000",
"#' c #4D0000",
"#, c #5E0101",
"#> c #420000",
"#; c #590000",
"#- c #4A0000",
"#= c #CDCDCD",
"#* c #350000",
"#& c #4C0000",
"#% c #380000",
"#$ c #240000",
"## c #3A0000",
"#@ c #3C0000",
"#+ c #3D0909",
"@Z c #580606",
"@Y c #470000",
"@X c #505050",
"@W c #EFEFEF",
"@V c #232323",
"@U c #4B0707",
"@T c #460000",
"@S c #530000",
"@R c #3D0000",
"@Q c #450000",
"@P c #2F0000",
"@O c #400000",
"@N c #5C5C5C",
"@M c #969696",
"@L c #260000",
"@K c #480000",
"@J c #270000",
"@I c #4B0000",
"@H c #600707",
"@G c #2B0101",
"@F c #5B1212",
"@E c #2C0000",
"@D c #4F4F4F",
"@C c #8F8F8F",
"@B c #1A0606",
"@A c #1D0000",
"@z c #250000",
"@y c #210000",
"@x c #3F0000",
"@w c #180505",
"@v c #ECECEC",
"@u c #A2A2A2",
"@t c #0A0A0A",
"@s c #2B0505",
"@r c #2B0000",
"@q c #4B0303",
"@p c #320000",
"@o c #280000",
"@n c #250404",
"@m c #F9F9F9",
"@l c #EDEDED",
"@k c #4B4B4B",
"@j c #2D0909",
"@i c #2D0000",
"@h c #360000",
"@g c #200000",
"@f c #310000",
"@e c #0C0000",
"@d c #1D0505",
"@c c #240303",
"@b c #220000",
"@a c #340606",
"@0 c #7A7A7A",
"@9 c #C7C7C7",
"@8 c #1A0000",
"@7 c #290000",
"@6 c #180000",
"@5 c #222222",
"@4 c #DDDDDD",
"@3 c #1E0000",
"@2 c #1B0000",
"@1 c #140000",
"@| c #252525",
"@} c #300000",
"@[ c #464646",
"@< c #808080",
"@: c #090000",
"@_ c #0A0000",
"@( c #110000",
"@/ c #170000",
"@^ c #0E0000",
"@] c #0C0101",
"@{ c #1E0808",
"@~ c #545454",
"@! c #160000",
"@) c #0D0000",
"@' c #150000",
"@, c #0F0000",
"@> c #190000",
"@; c #070101",
"@- c #120000",
"@= c #130000",
"@* c #787878",
"@& c #FCFCFC",
"@% c #CCCCCC",
"@$ c #100000",
"@# c #170303",
"@@ c #160202",
"@+ c #210606",
"+Z c #160606",
"+Y c #060202",
"+X c #9E9E9E",
"+W c #F4F4F4",
"+V c #0B0000",
"+U c #070000",
"+T c #080000",
"+S c #8B8B8B",
"+R c #FDFDFD",
"+Q c #717171",
"+P c #120404",
"+O c #030000",
"+N c #A7A7A7",
"+M c #D4D4D4",
"+L c #292929",
"+K c #110808",
"+J c #7F7F7F",
"+I c #0D0202",
"+H c #0F0F0F",
"+G c #333333",
"+F c #D7D7D7",
"+E c #DBDBDB",
"+D c #686868",
"+C c #202020",
"+B c #050000",
"+A c #040000",
"+z c #090303",
"+y c #BCBCBC",
"+x c #131313",
"+w c #030101",
"+v c #090202",
"+u c #070202",
"+t c #060000",
"+s c #797979",
"+r c #282828",
"+q c #040101",
"+p c #070303",
"+o c #020000",
"+n c #D1D1D1",
"+m c #7C7C7C",
"+l c #010000",
"+k c #050404",
"+j c #030202",
"+i c #020101",
"+h c #E8E8E8",
"+g c #D9D9D9",
"+f c #161616",
"+e c #0D0D0D",
"+d c #070707",
"+c c #929292",
"+b c #121212",
"+a c #090909",
"+0 c #7B7B7B",
"+9 c #454545",
"+8 c #171717",
"+7 c #D6D6D6",
"+6 c #E7E7E7",
"+5 c #3F3F3F",
"+4 c #060606",
"+3 c #010101",
"+2 c #101010",
"+1 c #EEEEEE",
"+| c #4C4C4C",
"+} c #181818",
"+[ c #050505",
"+< c #383838",
"+: c #BFBFBF",
"+_ c #C0C0C0",
"+( c #6C6C6C",
"+/ c #3B3B3B",
"+^ c #E5E5E5",
"+] c #4A4A4A",
"+{ c #030303",
"+~ c #2C2C2C",
"+! c #3D3D3D",
"+) c #B9B9B9",
"+' c #F0F0F0",
"+, c #9A9A9A",
"+> c #020202",
"+; c #000000",
"+- c #646464",
"+= c #939393",
"+* c #E1E1E1",
"+& c #EBEBEB",
"+% c #EAEAEA",
"+$ c #F8F8F8",
"+# c #FEFEFE",
"+@ c #FFFFFF",
"++ c None",
"++++++++++++++++++++++++++++++++++++++++++++++++++++++++++++++++++++++++++++++++++++++++++++++++++++++++++++++++++++++++++++++++++++",
"++++++++++++++++++++++++++++++++++++++++++++++++++++++++++++++++++++++++++++++++++++++++++++++++++++++++++++++++++++++++++++++++++++",
"++++++++++++++++++++++++++++++++++++++++++++++++++++++++++++++++++++++++++++++++++++++++++++++++++++++++++++++++++++++++++++++++++++",
"+++++++++++++++++++++++++++++++++++++++++++++++++++++@+@+@+@+@+@+@+@+#+@+@++++++++++++++++++++++++++++++++++++++++++++++++++++++++++",
"+++++++++++++++++++++++++++++++++++++++++++++++++@+#+@+@+@+@+@+#+#+@+@+@+#+@+@+#+@++++++++++++++++++++++++++++++++++++++++++++++++++",
"+++++++++++++++++++++++++++++++++++++++++++++@+@+@+#+#+@+@+@+@+#+@+@+@+@+@+@+@+#+#+@+#+@++++++++++++++++++++++++++++++++++++++++++++",
"+++++++++++++++++++++++++++++++++++++++++++#+@+#+#+@+#+@+@+#+#+#+#+@+@+#+@+@+@+#+#+@+#+@+#++++++++++++++++++++++++++++++++++++++++++",
"+++++++++++++++++++++++++++++++++++++@+@+#+@+#+@+#+@+#+@+@+@+@+$+%+%+&+@+@+@+@+#+@+#+#+#+@+@+@++++++++++++++++++++++++++++++++++++++",
"+++++++++++++++++++++++++++++++++++@+#+#+@+#+#+#+#+#+#+*+=+=+=+-+;+;+>+=+=+=+,+@+@+#+@+#+@+@+@+@++++++++++++++++++++++++++++++++++++",
"+++++++++++++++++++++++++++++++++@+@+@+#+#+#+#+#+'+)+!+~+;+;+;+;+;+;+;+;+;+;+{+!+]+^+$+#+#+#+@+#+#+@++++++++++++++++++++++++++++++++",
"+++++++++++++++++++++++++++++++@+#+#+#+@+#+#+@+,+/+;+;+;+;+;+;+;+;+;+;+;+;+;+;+;+;+;+(+_+#+#+#+#+#+#+@++++++++++++++++++++++++++++++",
"+++++++++++++++++++++++++++++++@+#+@+#+#+#+:+<+[+;+;+;+;+;+;+;+;+;+;+;+;+;+;+;+;+;+;+;+}+|+1+#+#+#+#+#++++++++++++++++++++++++++++++",
"+++++++++++++++++++++++++++++++@+@+#+@+@+:+2+;+;+;+;+;+3+>+4+;+;+;+;+;+;+;+;+;+;+;+;+;+;+;+5+6+#+#+@+@+@++++++++++++++++++++++++++++",
"+++++++++++++++++++++++++++++++#+@+@+@+7+8+;+;+;+>+;+;+;+;+{+;+>+;+;+;+;+;+;+;+;+;+;+;+;+;+;+9+@+@+@+@+@+@++++++++++++++++++++++++++",
"+++++++++++++++++++++++++++++++@+#+#+@+0+;+;+;+;+a+3+;+;+;+;+;+;+;+;+;+;+;+;+;+;+;+;+;+;+;+;+b+:+#+#+#+@+@++++++++++++++++++++++++++",
"+++++++++++++++++++++++++++++#+@+@+@+c+4+;+;+;+;+;+;+;+;+;+;+;+3+;+;+;+;+;+;+d+;+;+;+>+e+;+;+;+f+g+@+@+#+@++++++++++++++++++++++++++",
"+++++++++++++++++++++++++++@+#+@+@+h+!+;+;+;+;+i+j+;+;+;+;+;+;+k+;+;+;+;+;+;+8+;+;+l+l+l+;+;+;+;+m+@+@+#+@+@++++++++++++++++++++++++",
"+++++++++++++++++++++++++++#+@+@+@+n+;+;+;+;+;+;+l+o+;+;+;+;+;+;+;+;+;+;+;+;+;+;+p+;+;+q+o+;+;+;+r+@+@+@+#+@+#++++++++++++++++++++++",
"+++++++++++++++++++++++++++@+@+@+#+s+;+;+;+;+t+l+;+u+o+;+;+;+;+;+;+;+;+;+;+;+;+;+;+;+;+v+w+;+;+;+x+y+@+@+#+@+@++++++++++++++++++++++",
"+++++++++++++++++++++++++@+#+#+#+#+r+;+;+o+z+A+B+;+;+;+;+;+;+C+D+E+E+F+G+H+;+;+;+l+;+;+o+I+;+;+;+;+J+#+#+#+@+@++++++++++++++++++++++",
"+++++++++++++++++++++++#+#+@+@+#+@+r+;+;+;+K+o+;+;+;+;+;+;+L+M+@+#+#+@+#+N+;+;+;+O+;+;+l+;+;+;+;+;+J+@+@+@+#+@++++++++++++++++++++++",
"+++++++++++++++++++++++#+@+#+@+#+#+r+;+;+;+O+;+;+P+o+;+;+;+Q+#+#+#+@+#+#+R+S+;+;+;+v+w+;+;+o+;+;+;+J+@+#+@+@+@++++++++++++++++++++++",
"+++++++++++++++++++++++@+#+#+#+#+@+r+;+;+T+U+V+;+;+;+;+;+;+W+#+#+#+#+#+#+@+X+;+;+;+P+Y+l+l+Z+u+;+;+J+@+#+@+#+#++++++++++++++++++++++",
"+++++++++++++++++++++++#+@+#+#+#+#+r+;+;+l+l@+@@@#@$+;+;+;@%+@+#+#+#+@+@@&@*+;+;+;+l@=@-+l@;+l+;+;+J+#+#+@+#+#++++++++++++++++++++++",
"+++++++++++++++++++++++++@+@+@+@+#+r+;+;+O+B@>@,@'+O+;+;+;+|+#+@+@+@+#+#+W+;+;+;@)+V@!@=+B+T+;+;+;+J+@+@+@+#+@++++++++++++++++++++++",
"+++++++++++++++++++++++++#+#+#+#+@@~+;+;@{@]@^@/@(@_@:+;+;+4@<+y+y+y+y+y@[+;+;+;@:@}@/@/@$@-+;+;@|+W+#+#+@+#+@++++++++++++++++++++++",
"+++++++++++++++++++++++++@+@+#+#+@+n+;+;+;+o+A@1@>@-@2+l+;+;+;+;+;+;+;+;+;+;+;+;@:+V@_@1@3@'+;+;+r+@+@+#+#+@+@++++++++++++++++++++++",
"+++++++++++++++++++++++++++@+@+@+@@4@5+;+;+;+o@^@6+U+A@)+;+;+;+;+;+;+;+;+;+t+V@7@>@_@/@8+A+;+;+;@9+@+@+#+#+@++++++++++++++++++++++++",
"+++++++++++++++++++++++++++@+#+#+#+#@0+;+;+;+;@a@b@:@1@c@d@e+A+;+;+;+;+;@6@f@g@h@i@,@j@$+O+;+;@k@l+#+#+@+@+@++++++++++++++++++++++++",
"+++++++++++++++++++++++++++@+@+@+@+@@m@~+;+;+;+O@n@2@}@o@g@p@2@i@'@(@6@)@6@i@q@r@1@s@!+;+;+;@t@u+@+@+@+@+@+@++++++++++++++++++++++++",
"+++++++++++++++++++++++++++@+#+@+#+#+#@v@k+;+;+;@w@/@f@r@g@i@x@y@'@z@8@6@h@A@n@8@_@B+;+;+;+;@C+#+@+#+#+#+@++++++++++++++++++++++++++",
"+++++++++++++++++++++++++++@+@+@+@+@+@+1@D+;+;+;+;@!@)@E@F@G@>@H@z@I@p@J@K@p@L@>+A+;+;+;+;+;@M+@+@+@+@+@+@+@++++++++++++++++++++++++",
"+++++++++++++++++++++++++++@+@+@+@+@+@@N+;+;+;+U@)@O@g@P@i@i@f@Q@R@S@T@8@U@f@x@h@O@-@_+;+;+;@V+@+@+@+@+@+#+#++++++++++++++++++++++++",
"+++++++++++++++++++++++++++#+@+#+@@W@X+;+;+;+U@o@Y@Z#+#@##@K@O#$#%@z@J@A@J@b@I#%@J@}#&#*+B+;+;@X@W+@+@+#+@+#++++++++++++++++++++++++",
"+++++++++++++++++++++++++@+@+#+@+@#=+;+;+;@e@x@7#-#;@g#>#,@$+V+;+;+;+;@e@3#'#-#%#)@i#!#)@R+;+;+;#~+@+@+@+@+@+@++++++++++++++++++++++",
"+++++++++++++++++++++++++#+@+#+#+#+r+;+;@e@O@z#{@L@Q#]@2+;+;+;+;+;+;+;+;+;+;@L#^#!#/#{@z@2@6+;+;+r+#+@+#+@+#+@++++++++++++++++++++++",
"+++++++++++++++++++++++++#+@+#+@#(#_+;+;#:#<@O@J#*#[#*+o+;+;+;+a@t@t+a+;+;+;+o#}#'#|@T@3#1#2@e+;#_#(+@+@+#+@+@++++++++++++++++++++++",
"+++++++++++++++++++++++++@+@+@+#+J+;+;@/#<#&#'#3#4#5+;+;+;#6#7#8+#+@#8#7#6+;+;+;#)#9#0#a#<#b@=+;+;+J+#+@+#+#+#++++++++++++++++++++++",
"+++++++++++++++++++++++++#+#+@@&#c+;+;#d#e#f#g#h#i@7+;+;+a#j+@+#+@+@+@+@#j+a+;+;@:#4#9#k#l#m#n+;+;@V+*+@+@+#+#++++++++++++++++++++++",
"+++++++++++++++++++++++@+@+#+#+7+;+;+;#o#p#q#r#s#t+V+;+;+X+#+#+#+#+@+@+#+@+X+;+;@)#r#u#v#w#x#h+;+;+;+7+@+#+@+#++++++++++++++++++++++",
"+++++++++++++++++++++++#+@+@+#+7+;+;+;#y#z#A#B#C#n+O+;+[#(+@+@+@+@+@+@+@+@+^#D+;+A#E#F#G#q#H#I+;+;+;+7+#+@+@+#+@++++++++++++++++++++",
"+++++++++++++++++++++++@+@+@+#+7+;+;+;#J#K#K#L#M#N+;+;#O+#+@+#+#+@+#+#+@+@+##O+;+;#[#P#Q#R#S#T+;+;+;+7+@+#+@+#+#++++++++++++++++++++",
"+++++++++++++++++++++++#+#+@+@+7+;+;+;#U#V#W#X#Y#Z+;+;$+$@+#+#+#+#+#+#+#+#+@#O+;+;#;$#$$$%$&$*+;+;+;+7+@+#+#+#+#++++++++++++++++++++",
"+++++++++++++++++++++++@+#+#+#+7+;+;+;$=$-$;$;$>#g+t+;+;+X+@+#+#+#+@+@+@+#+M$,+;$'$)$!$~${$]#F+;+;+;+7+#+@+#+#+@++++++++++++++++++++",
"+++++++++++++++++++++++@+#+#+#+E+H+;+;$^$/$($_$:$<$[+;+;+S+R+#+@+#+#+@+#+R+S+;+;$}$|$1$2$3$4$5+;+;+;+7+#+#+#+#+@++++++++++++++++++++",
"+++++++++++++++++++++++@+@+#+#+#+J+;+;$6$7$8$9$0$a$b+;+;+;$c+M+#+#+@+@+M$c+;+;+;$d$e$f$g$h$i$j+;+;+;+7+@+@+@+@+#++++++++++++++++++++",
"+++++++++++++++++++++++@+#+@+@+@+J+;+;@o$k$l$m$n$o$p$q+;+;+;+C+G+G+G$r+C+;+;+;$s$t$u$v$w$x$y$z+;+;$A$B+@+@+@+@+#++++++++++++++++++++",
"+++++++++++++++++++++++@+#+@+@+#+J+;+;$C$D$E$F$G$H$I$J$K+;+;+;+;+;+;+;+;+;+;+t$L$M$N$O$P$Q$R$S+;+;+J+#+@+@+@+#++++++++++++++++++++++",
"+++++++++++++++++++++++#+#+#+#+#+h$T+;+;$U$V$W$X$Y$Z%+%@%#%$+;+;+;+;+;+;%%%&%*%=%-%;%>%,%'%)+;+;$T+h+@+#+#+@+#++++++++++++++++++++++",
"+++++++++++++++++++++++++@+@+#+@+@+m+;+;+;%!%~%{%]%^%/%(%_%:%<%[%}%|%1%2%3%4%5%6%7%8%9%0%a+;+;+;+m+@+@+#+#+@+@++++++++++++++++++++++",
"+++++++++++++++++++++++++@+@+@+@+@+g+f+;+;%b%c%d%e%f%g%h%i%j%k%l%m%n%o%p%q%r%s%t%u%v%w%x%y+;+;+f+g+@+@+@+#+@+#++++++++++++++++++++++",
"+++++++++++++++++++++++++++@+@+@+#+@+:+b+;+;+;%z%A%B%C%D%E%F%G%H%I%J%K%L%M%N%O%P%Q%R%S%T+;+;+b+:+@+#+@+@+#+@+#++++++++++++++++++++++",
"+++++++++++++++++++++++++++@+@+#+#+#+#%U+8+;+;%V%W%X%Y%Z&+&@&#&$&%&&&*&=&-&;&>&,&'&)%V+;+;+8%U+#+#+#+#+#+@+@++++++++++++++++++++++++",
"+++++++++++++++++++++++++++++@+#+@+@+@+@+:+2+;+;+;+;&!&~&{&]&^&/&(&_&:&<&[&}&|&1&2+;+;+;+2+:+@+@+#+@+@+@+@++++++++++++++++++++++++++",
"+++++++++++++++++++++++++++++++@+#+@+#+@+@+:+<+[+;+;+;+;&3&4&5&6&7&8&8&9&0&a+;+;+;+;+[+<+:+@+#+@+#+#+@+#+@++++++++++++++++++++++++++",
"+++++++++++++++++++++++++++++++@+@+@+#+@+#+#+##c+;+;+;+;+;+;+;+;+;+;+;+;+;+;+;+;+;+;#c+#+@+#+#+#+#+@+@++++++++++++++++++++++++++++++",
"+++++++++++++++++++++++++++++++@+@+#+#+@+#+#+@+$+^+^@<+!+8+;+;+;+;+;+;+;+;+8+!@<+^+^+$+@+@+@+#+#+#+@+@++++++++++++++++++++++++++++++",
"+++++++++++++++++++++++++++++++++++@+@+@+#+#+@+#+#+#+#+#+y+=+=+=+=+=+=+=+=+y+#+#+@+#+@+#+#+#+@+@+@+@++++++++++++++++++++++++++++++++",
"+++++++++++++++++++++++++++++++++++++@+@+@+@+@+@+@+#+@+@+#+#+@+@+#+#+#+@+@+@+#+@+#+#+@+@+#+@+#+#+@++++++++++++++++++++++++++++++++++",
"+++++++++++++++++++++++++++++++++++++++++@+#+#+#+#+@+#+@+#+#+@+@+@+#+#+@+@+#+#+@+@+#+#+#+@+@+#+@+#++++++++++++++++++++++++++++++++++",
"+++++++++++++++++++++++++++++++++++++++++++#+@+@+#+@+#+#+@+@+#+#+@+#+@+#+#+@+#+@+@+#+@+#+@+@+#++++++++++++++++++++++++++++++++++++++",
"+++++++++++++++++++++++++++++++++++++++++++++++@+@+#+#+@+@+#+@+#+#+@+@+#+#+@+@+@+@+@+@+#+@++++++++++++++++++++++++++++++++++++++++++",
"+++++++++++++++++++++++++++++++++++++++++++++++++@+#+@+#+++@+@+#+#+#+#+@+#+#+#+@+@+@++++++++++++++++++++++++++++++++++++++++++++++++",
"+++++++++++++++++++++++++++++++++++++++++++++++++++++++++++++++++++++@+@+#+@+@++++++++++++++++++++++++++++++++++++++++++++++++++++++",
"++++++++++++++++++++++++++++++++++++++++++++++++++++++++++++++++++++++++++++++++++++++++++++++++++++++++++++++++++++++++++++++++++++",
"++++++++++++++++++++++++++++++++++++++++++++++++++++++++++++++++++++++++++++++++++++++++++++++++++++++++++++++++++++++++++++++++++++"};
