/* XPM */
static char * ball_red_xpm[] = {
"66 66 374 2",
"%] c #F8F8F8",
"%{ c #C0C0C0",
"%~ c #6C6C6C",
"%! c #898989",
"%) c #BFBFBF",
"%' c #181818",
"%, c #232323",
"%> c #E6E6E6",
"%; c #909090",
"%- c #301C02",
"%= c #CB8F14",
"%* c #C7830E",
"%& c #C46D02",
"%% c #CB810C",
"%$ c #C97D12",
"%# c #080300",
"%@ c #101010",
"%+ c #B9B9B9",
"$Z c #3D2509",
"$Y c #FFA92B",
"$X c #FE9619",
"$W c #FFA423",
"$V c #FE7B07",
"$U c #FF9112",
"$T c #0A0601",
"$S c #381101",
"$R c #F68A2C",
"$Q c #FF992B",
"$P c #FF7209",
"$O c #FE6001",
"$N c #FE7A07",
"$M c #0A0500",
"$L c #3D2108",
"$K c #FE690E",
"$J c #FF6809",
"$I c #FE6708",
"$H c #FE7B17",
"$G c #FE700E",
"$F c #0A0400",
"$E c #3C1803",
"$D c #E83705",
"$C c #F03501",
"$B c #FD5003",
"$A c #FE5806",
"$z c #F63C02",
"$y c #090200",
"$x c #3A0800",
"$w c #F93C02",
"$v c #FF5307",
"$u c #FE5D0A",
"$t c #F53602",
"$s c #F93C03",
"$r c #090100",
"$q c #F5F5F5",
"$p c #5D5D5D",
"$o c #3C0D00",
"$n c #FC3800",
"$m c #E92E0B",
"$l c #EB3710",
"$k c #EB3C0B",
"$j c #EA3607",
"$i c #0A0200",
"$h c #868686",
"$g c #CBCBCB",
"$f c #CCCCCC",
"$e c #E4E4E4",
"$d c #3B0800",
"$c c #F01600",
"$b c #F72907",
"$a c #FA2D07",
"$0 c #EC2403",
"$9 c #FD2C03",
"$8 c #0A0100",
"$7 c #383838",
"$6 c #8B8B8B",
"$5 c #3A0700",
"$4 c #E70C00",
"$3 c #F11F06",
"$2 c #FB1B01",
"$1 c #F71E04",
"$| c #F10800",
"$} c #F6F6F6",
"$[ c #BABABA",
"$< c #141414",
"$: c #380805",
"$_ c #EA1409",
"$( c #D90702",
"$/ c #E80C03",
"$^ c #DB0400",
"$] c #D6D6D6",
"${ c #DB0602",
"$~ c #CC0100",
"$! c #BA0100",
"$) c #BE0301",
"$' c #E80705",
"$, c #E70B08",
"$> c #CE1712",
"$; c #C90200",
"$- c #D20000",
"$= c #C90101",
"$* c #D90600",
"$& c #DA0602",
"$% c #AF0301",
"$$ c #AF0403",
"$# c #C51612",
"$@ c #C20101",
"$+ c #D40D07",
"#Z c #C80E09",
"#Y c #6C0000",
"#X c #3E3E3E",
"#W c #DE0000",
"#V c #D40000",
"#U c #F80000",
"#T c #C40000",
"#S c #DA0000",
"#R c #BA0000",
"#Q c #B10000",
"#P c #C10000",
"#O c #C70000",
"#N c #B60000",
"#M c #BF0000",
"#L c #DB0000",
"#K c #D50000",
"#J c #CC0000",
"#I c #F70909",
"#H c #EB0000",
"#G c #D60000",
"#F c #C90000",
"#E c #E50000",
"#D c #CB0000",
"#C c #CE0000",
"#B c #D10000",
"#A c #C50000",
"#z c #A20000",
"#y c #BE0000",
"#x c #B00202",
"#w c #B00000",
"#v c #CA0000",
"#u c #AB0000",
"#t c #D10404",
"#s c #C50707",
"#r c #B80000",
"#q c #AA0808",
"#p c #BC0808",
"#o c #BB0000",
"#n c #A60101",
"#m c #C30000",
"#l c #B70000",
"#k c #C00000",
"#j c #A70000",
"#i c #B40000",
"#h c #AE0000",
"#g c #970000",
"#f c #BD0000",
"#e c #848484",
"#d c #B10202",
"#c c #AC0000",
"#b c #9D0000",
"#a c #BB0404",
"#0 c #9C0000",
"#9 c #A50000",
"#8 c #A40000",
"#7 c #9F0000",
"#6 c #CB1111",
"#5 c #B90000",
"#4 c #990000",
"#3 c #930000",
"#2 c #780000",
"#1 c #820000",
"#| c #A80000",
"#} c #A30000",
"#[ c #A90000",
"#< c #950000",
"#: c #A30101",
"#_ c #A6A6A6",
"#( c #4C0000",
"#/ c #4E0101",
"#^ c #890202",
"#] c #860000",
"#{ c #8D0000",
"#~ c #760000",
"#! c #980000",
"#) c #8F0606",
"#' c #A50808",
"#, c #640000",
"#> c #5B0101",
"#; c #570000",
"#- c #740000",
"#= c #650000",
"#* c #910000",
"#& c #730000",
"#% c #8A0000",
"#$ c #840606",
"## c #880000",
"#@ c #5D0000",
"#+ c #5E0000",
"@Z c #890000",
"@Y c #6E0000",
"@X c #5C0000",
"@W c #750000",
"@V c #620000",
"@U c #6F0404",
"@T c #610F0F",
"@S c #2D2D2D",
"@R c #6F0909",
"@Q c #510101",
"@P c #470000",
"@O c #560000",
"@N c #540000",
"@M c #040101",
"@L c #CFCFCF",
"@K c #D1D1D1",
"@J c #320000",
"@I c #520000",
"@H c #5F0000",
"@G c #500000",
"@F c #530000",
"@E c #3E0000",
"@D c #515151",
"@C c #F0F0F0",
"@B c #727272",
"@A c #510000",
"@z c #3F0000",
"@y c #4A0000",
"@x c #4A4A4A",
"@w c #3B0303",
"@v c #7A1818",
"@u c #400000",
"@t c #4F0606",
"@s c #670505",
"@r c #4D0000",
"@q c #610000",
"@p c #C2C2C2",
"@o c #4A0101",
"@n c #5A0909",
"@m c #210000",
"@l c #260000",
"@k c #440000",
"@j c #330000",
"@i c #F9F9F9",
"@h c #410000",
"@g c #2A0000",
"@f c #292929",
"@e c #E0E0E0",
"@d c #160000",
"@c c #270000",
"@b c #410303",
"@a c #FDFDFD",
"@0 c #858585",
"@9 c #1F0000",
"@8 c #200000",
"@7 c #7D7D7D",
"@6 c #280000",
"@5 c #2B0000",
"@4 c #460000",
"@3 c #340000",
"@2 c #3B0000",
"@1 c #1D0000",
"@| c #380000",
"@} c #A8A8A8",
"@[ c #323232",
"@< c #360000",
"@: c #310000",
"@_ c #390000",
"@( c #CECECE",
"@/ c #300000",
"@^ c #380A0A",
"@] c #1C0000",
"@{ c #230000",
"@~ c #686868",
"@! c #2F0000",
"@) c #0F0000",
"@' c #0B0B0B",
"@, c #A9A9A9",
"@> c #250000",
"@; c #240000",
"@- c #150000",
"@= c #282828",
"@* c #320505",
"@& c #140000",
"@% c #120000",
"@$ c #0D0000",
"@# c #2E0000",
"@@ c #2C2C2C",
"@+ c #DDDDDD",
"+Z c #0F0303",
"+Y c #190000",
"+X c #0E0000",
"+W c #1A0000",
"+V c #180000",
"+U c #7B7B7B",
"+T c #070101",
"+S c #0F0101",
"+R c #0B0000",
"+Q c #1B0000",
"+P c #1E0000",
"+O c #191919",
"+N c #100404",
"+M c #1F0707",
"+L c #220000",
"+K c #0C0000",
"+J c #060000",
"+I c #130000",
"+H c #110000",
"+G c #170000",
"+F c #0A0A0A",
"+E c #9F9F9F",
"+D c #070000",
"+C c #140707",
"+B c #130404",
"+A c #100000",
"+z c #6B6B6B",
"+y c #050000",
"+x c #0A0303",
"+w c #050202",
"+v c #090202",
"+u c #242424",
"+t c #DEDEDE",
"+s c #040000",
"+r c #0A0000",
"+q c #1D0C0C",
"+p c #030000",
"+o c #BCBCBC",
"+n c #0C0101",
"+m c #090000",
"+l c #0B0303",
"+k c #080000",
"+j c #676767",
"+i c #F1F1F1",
"+h c #130B0B",
"+g c #020000",
"+f c #010000",
"+e c #0F0F0F",
"+d c #A4A4A4",
"+c c #040303",
"+b c #070505",
"+a c #606060",
"+0 c #010101",
"+9 c #040404",
"+8 c #020101",
"+7 c #050404",
"+6 c #262626",
"+5 c #E5E5E5",
"+4 c #050505",
"+3 c #0C0C0C",
"+2 c #B2B2B2",
"+1 c #030303",
"+| c #4E4E4E",
"+} c #F4F4F4",
"+[ c #757575",
"+< c #020202",
"+: c #B3B3B3",
"+_ c #939393",
"+( c #060606",
"+/ c #0D0D0D",
"+^ c #999999",
"+] c #1E1E1E",
"+{ c #303030",
"+~ c #DBDBDB",
"+! c #1A1A1A",
"+) c #131313",
"+' c #3D3D3D",
"+, c #EEEEEE",
"+> c #C3C3C3",
"+; c #707070",
"+- c #000000",
"+= c #5E5E5E",
"+* c #B6B6B6",
"+& c #FAFAFA",
"+% c #EAEAEA",
"+$ c #F7F7F7",
"+# c #FEFEFE",
"+@ c #FFFFFF",
"++ c None",
"++++++++++++++++++++++++++++++++++++++++++++++++++++++++++++++++++++++++++++++++++++++++++++++++++++++++++++++++++++++++++++++++++++",
"++++++++++++++++++++++++++++++++++++++++++++++++++++++++++++++++++++++++++++++++++++++++++++++++++++++++++++++++++++++++++++++++++++",
"++++++++++++++++++++++++++++++++++++++++++++++++++++++++++++++++++++++++++++++++++++++++++++++++++++++++++++++++++++++++++++++++++++",
"++++++++++++++++++++++++++++++++++++++++++++++++++++++++++++++++++++++++++++++++++++++++++++++++++++++++++++++++++++++++++++++++++++",
"+++++++++++++++++++++++++++++++++++++++++++++++++++++++++++++++++++++@+@+@+@+@+#+#++++++++++++++++++++++++++++++++++++++++++++++++++",
"+++++++++++++++++++++++++++++++++++++++++++++++++++++++++++++++@+#+@+#+@+@+@+@+#+@+@+#+@+@++++++++++++++++++++++++++++++++++++++++++",
"+++++++++++++++++++++++++++++++++++++++++++++++++++++++++++++@+@+#+@+@+#+@+@+@+#+#+@+#+@+@+@+@++++++++++++++++++++++++++++++++++++++",
"+++++++++++++++++++++++++++++++++++++++++++++++++++++++++++#+@+@+@+@+@+$+%+%+%+%+%+%+&+#+#+@+#+@+#++++++++++++++++++++++++++++++++++",
"+++++++++++++++++++++++++++++++++++++++++++++++++++++++++@+@+#+#+@+#+*+=+-+-+-+-+-+-+;+>+@+@+@+#+@++++++++++++++++++++++++++++++++++",
"+++++++++++++++++++++++++++++++++++++++++++++++++++++++@+#+#+#+#+,+'+)+-+-+-+-+-+-+-+-+!+>+#+@+@+@+@++++++++++++++++++++++++++++++++",
"+++++++++++++++++++++++++++++++++++++++++++++++++++++++@+#+@+#+~+{+-+-+-+-+-+-+-+-+-+-+-+]+#+#+#+#+#++++++++++++++++++++++++++++++++",
"+++++++++++++++++++++++++++++++++++++++++++++++++++++@+@+#+@+#+^+-+-+-+-+-+-+-+-+/+-+-+-+(+_+#+#+#+@+@++++++++++++++++++++++++++++++",
"+++++++++++++++++++++++++++++++++++++++++++++++++++#+@+#+#+#+:+<+-+-+-+-+-+-+-+-+-+-+-+-+-+[+#+#+#+@+@++++++++++++++++++++++++++++++",
"+++++++++++++++++++++++++++++++++++++++++++++++++++@+#+#+#+}+|+-+-+-+-+1+-+-+-+-+-+-+-+-+-+[+@+@+@+@+#++++++++++++++++++++++++++++++",
"+++++++++++++++++++++++++++++++++++++++++++++++++@+@+@+#+#+2+-+-+-+-+-+3+-+-+-+-+-+4+-+-+-+[+@+@+#+#+@++++++++++++++++++++++++++++++",
"+++++++++++++++++++++++++++++++++++++++++++++++@+#+@+#+#+5+6+-+-+-+7+-+8+-+-+-+-+-+9+0+-+-+[+#+#+#+@+@++++++++++++++++++++++++++++++",
"+++++++++++++++++++++++++++++++++++++++++++++++@+#+@+#+@+a+-+-+-+-+-+-+-+-+-+-+-+-+b+c+-+-+[+@+#+@+@+@++++++++++++++++++++++++++++++",
"+++++++++++++++++++++++++++++++++++++++++++++@+#+@+#+@+d+e+-+-+-+f+-+-+-+-+g+g+-+-+-+-+-+-+[+#+@+@+@+#++++++++++++++++++++++++++++++",
"+++++++++++++++++++++++++++++++++++++++++++@+#+#+@+#+#+e+-+-+-+-+-+-+-+g+g+-+h+-+-+-+-+-+-+[+@+@+@+#+@++++++++++++++++++++++++++++++",
"+++++++++++++++++++++++++++++++++++++++++++#+@+#+@+i+j+<+-+f+f+-+-+-+-+-+-+k+l+k+m+n+-+-+-+[+@+#+#+#+#++++++++++++++++++++++++++++++",
"+++++++++++++++++++++++++++++++++++++++++@+@+@+#+#+o+-+-+-+p+q+p+g+f+f+-+-+r+-+s+-+p+f+-+-+[+@+@+#+@+#++++++++++++++++++++++++++++++",
"+++++++++++++++++++++++++++++++++++++++@+@+@+#+#+t+u+-+-+-+v+w+-+-+x+-+-+-+g+-+-+-+y+p+-+-+[+#+@+#+#+#++++++++++++++++++++++++++++++",
"+++++++++++++++++++++++++++++++++++++@+#+#+#+#+@+z+-+-+-+A+B+-+-+A+C+-+-+-+-+r+-+-+D+s+-+-+[+#+#+#+@+@+@++++++++++++++++++++++++++++",
"+++++++++++++++++++++++++++++++++++#+@+@+#+#+@+E+F+-+-+f+G+H+D+I+J+-+-+-+-+K+L+k+p+M+N+-+-+[+#+#+#+#+#+#++++++++++++++++++++++++++++",
"+++++++++++++++++++++++++++++++++++@+@+@+#+#+@+O+-+-+-+P+Q+R+y+H+J+-+-+-+-+p+y+A+D+S+T+-+-+[+@+@+@+#+@+@++++++++++++++++++++++++++++",
"+++++++++++++++++++++++++++++++++++@+#+@+#+@+U+<+-+f+m+V+R+W+X+f+-+-+-+-+-+r+Y+Z+r+m+-+-+-+[+#+#+#+@+#+@++++++++++++++++++++++++++++",
"+++++++++++++++++++++++++++++++++@+@+#+#+@@+@@+-+-+R@#+m+p@$@%+-+-+-+-+-+-@&+Y@*@%+X+-+-+-+[+#+#+#+@+@+@++++++++++++++++++++++++++++",
"+++++++++++++++++++++++++++++++#+@+@+#+#+@@=+-+-+-@-+G@;+Y+Q+-+-+-+-+-+-+f+Y+k+R+s@>+H+-+-+[+#+@+@+@+@+@++++++++++++++++++++++++++++",
"+++++++++++++++++++++++++++++++@+#+#+@+@@,@'+-+-@)@!+W@&+W@&+-+-+-@~+-+-+f@{@-@]@^@/+J+-+-+[+@+#+#+#+@+@++++++++++++++++++++++++++++",
"+++++++++++++++++++++++++++@+#+#+@+@+@@(+9+-+-@-@_@/@!@:@<+g+-+-@[@}+-+-+f@;@|@1@{@2@$+-+-+[+#+@+@+@+#++++++++++++++++++++++++++++++",
"+++++++++++++++++++++++++++#+#+@+#+#+#+a+-+-+-@3@4@5@6@6+k+-+-+-@}@}+-+-+-+y@-@2@|@/+J+-+-+[+#+#+@+#+#++++++++++++++++++++++++++++++",
"+++++++++++++++++++++++++@+@+@+@+@+@@7+-+-+p@$@8@_@5@<@9+-+-+-@0@a@}+-+-+g@!@b@/@c@d+J+-+-+[+@+@+@+@+#+@++++++++++++++++++++++++++++",
"+++++++++++++++++++++++++#+#+@+@+@@e@f+-+-+H@6+H@g@h@<+s+-+-+-@i+#@}+-+-+f@j@k@l@m@g+H+-+-+[+#+@+@+@+@+#+@++++++++++++++++++++++++++",
"+++++++++++++++++++++++@+#+#+@+#+@@=+-+-+-@!@n@o@2@|+K+-+-+!@p+@+@@}+-+-+s@q@r@<@s@t+k+-+-+[+#+@+#+@+@+#+@+@++++++++++++++++++++++++",
"+++++++++++++++++++++++@+#+@+#+@@}+/+-+-+Y@3@3@u@v@w+-+-+-@x@i@i@i+d+-+-+g@r@{@y@z@A+A+-+-@B@i@i+#+@+@+@+@+@+#+@++++++++++++++++++++",
"+++++++++++++++++++++++@+@+@+#@C@D+-+-+J@|+L+Y@E@F+J+-+-+-+-+-+-+-+-+-+-+p@G@H@#@I@J@$+-+-+-+-+-@0@K+@+#+@+#+@+@+#++++++++++++++++++",
"+++++++++++++++++++++++@+@+@+#@L+-+-@M@g@N@O@I@z@E+g+-+-+-+-+-+-+-+-+-+-+g@I@r@P@Q@R+H+-+-+-+-+-+-+6+~+@+#+@+@+@+@++++++++++++++++++",
"+++++++++++++++++++++++@+#+@+@@S+-+-@T@U@V@W@X@Y+-+-+-+-+-+-+-+-+-+-+-+-+J@Z#+#@###$@&+-+-+-+-+-+-+-@S+@+#+#+@+#+#+#++++++++++++++++",
"+++++++++++++++++++++++@+@+#+@@S+-+-@G@W#%#&#*#%#=#-@H@r@A#+@O@F@X#;#>#,@Y#'#)#!#~#{#]#^#/@/#(@A+X+-+3#_+@+#+@+#+#+#++++++++++++++++",
"+++++++++++++++++++++++#+@+#+#@S+-+-@F#:#<#[#!#}#|#1#2#3#[#4#<#4#5#[#6#7#8#5#9#7#0#*#a#b#4###c#d+Y+-+-#e+#+@+@+#+#+@++++++++++++++++",
"+++++++++++++++++++++++@+@+@+#@S+-+-#=#f#g###g#h#i#j#k#l#m#n#o#h#j#p#q#r#8#s#t#u#v#w#x#y#}#z#A#l+Y+-+-#e+@+@+@+#+@+@++++++++++++++++",
"+++++++++++++++++++++++#+@+@+#@S+-+-@W#y#B#C#D#f#E#B#F#G#H#I#J#K#L#M#c#N#O#P#Q#P#k#R#8#S#T#U#V#W@l+-+-#e+#+@+#+#+#+@++++++++++++++++",
"+++++++++++++++++++++++@+#+@+@#X+-+-#Y#Z$+$@$#$$#m$%$&$*#}$=#v#k#A$-#O$;$>#y#S$,$'$)$!#k$~${#T#T@m+-+-#e+#+#+#+#+#+@++++++++++++++++",
"+++++++++++++++++++++++@+#+#+#$]+-+-+-+-+-+-+-+-+-+-+-+-+-+-+-+-+-+-+-+-+m#H$^$/$($_$:+-+-+-+-+-+-+-$<$[+@+#+#+@+@++++++++++++++++++",
"+++++++++++++++++++++++@+@+#+#$}@B+9+-+-+-+-+-+-+-+-+-+-+-+-+-+-+-+-+-+-+m$|$1$2$3$4$5+-+-+-+-+-+-+e+*+#+#+#+#+@+#++++++++++++++++++",
"+++++++++++++++++++++++++@+#+#+#+@$6$7+-+-+-+-+-+-+-+-+-+-+-+-+-+-+-+-+-$8$9$0$a$b$c$d+-+-+-+-+-+a$[+#+@+@+@+@+@+@++++++++++++++++++",
"+++++++++++++++++++++++++++#+@+@+@+@$e$f$f$f$f$g$f$f$g$g$g$g$f$f$f$h+-+-$i$j$k$l$m$n$o+-+-$p$f$f$q+@+@+@+@+@+@+@++++++++++++++++++++",
"+++++++++++++++++++++++++++@+@+#+#+#+@+@+@+#+#+@+@+#+@+#+#+@+#+@+#@}+-+-$r$s$t$u$v$w$x+-+-+[+@+@+#+#+#+@+@+@+@++++++++++++++++++++++",
"+++++++++++++++++++++++++++++#+@+@+@+#+#+@+#+#+#+@+@+#+#+#+#+#+@+#@}+-+-$y$z$A$B$C$D$E+-+-+[+#+#+#+@+@+#+@+@+#++++++++++++++++++++++",
"+++++++++++++++++++++++++++++++@+@+@+#+#+@+#+#+#+#+@+#+@+#+@+#+#+@@}+-+-$F$G$H$I$J$K$L+-+-+[+@+#+@+@+@+#+@++++++++++++++++++++++++++",
"+++++++++++++++++++++++++++++++++@+@+@+#+@+@+#+@+#+@+@+#+@+#+#+#+@@}+-+-$M$N$O$P$Q$R$S+-+-+[+#+@+@+@+@+@+@++++++++++++++++++++++++++",
"+++++++++++++++++++++++++++++++++++#+@+@+@+#+++++++++++++@+@+#+#+@@}+-+-$T$U$V$W$X$Y$Z+-+-+[+@+@+@+#+@+#++++++++++++++++++++++++++++",
"+++++++++++++++++++++++++++++++++++++++++++++++++++++++++++#+@+@+#%+%@+-%#%$%%%&%*%=%-+-+(%;+@+#+#+#+@++++++++++++++++++++++++++++++",
"+++++++++++++++++++++++++++++++++++++++++++++++++++++++++++@+@+@+#+#@D+-+-+-+-+-+-+-+-+-+]+@+@+@+#+@+@++++++++++++++++++++++++++++++",
"+++++++++++++++++++++++++++++++++++++++++++++++++++++++++++@+#+#+#+@%>%,+-+-+-+-+-+-+-%'%)+@+#+@+#+@+@++++++++++++++++++++++++++++++",
"+++++++++++++++++++++++++++++++++++++++++++++++++++++++++++++@+#+#+#+#$]%!+-+-+-+-+-%~%{+@+#+#+#+#+#++++++++++++++++++++++++++++++++",
"+++++++++++++++++++++++++++++++++++++++++++++++++++++++++++++@+#+#+#+@+@@a+5+5+5+5+5%]+@+@+@+#+#+#+@++++++++++++++++++++++++++++++++",
"+++++++++++++++++++++++++++++++++++++++++++++++++++++++++++++++#+@+@+#+#+#+#+#+#+@+#+@+#+#+#+@+@+@++++++++++++++++++++++++++++++++++",
"+++++++++++++++++++++++++++++++++++++++++++++++++++++++++++++++#+#+#+#+@+@+@+#+@+#+#+@+@+#+@+#+@+#++++++++++++++++++++++++++++++++++",
"+++++++++++++++++++++++++++++++++++++++++++++++++++++++++++++++++++@+#+@+@+#+#+@+@+#+#+#+@+@+@++++++++++++++++++++++++++++++++++++++",
"+++++++++++++++++++++++++++++++++++++++++++++++++++++++++++++++++++@+@+@+@+@+#+@+@+#+@+#+@+@+@++++++++++++++++++++++++++++++++++++++",
"+++++++++++++++++++++++++++++++++++++++++++++++++++++++++++++++++++++++++++@+@+#+#+@+@+#++++++++++++++++++++++++++++++++++++++++++++",
"++++++++++++++++++++++++++++++++++++++++++++++++++++++++++++++++++++++++++++++++++++++++++++++++++++++++++++++++++++++++++++++++++++",
"++++++++++++++++++++++++++++++++++++++++++++++++++++++++++++++++++++++++++++++++++++++++++++++++++++++++++++++++++++++++++++++++++++",
"++++++++++++++++++++++++++++++++++++++++++++++++++++++++++++++++++++++++++++++++++++++++++++++++++++++++++++++++++++++++++++++++++++",
"++++++++++++++++++++++++++++++++++++++++++++++++++++++++++++++++++++++++++++++++++++++++++++++++++++++++++++++++++++++++++++++++++++"};
