/* XPM */
static char * ball_red_xpm[] = {
"66 66 488 2",
"&f c #F8F8F8",
"&e c #4A4A4A",
"&d c #161616",
"&c c #C0C0C0",
"&b c #6C6C6C",
"&a c #080808",
"&0 c #EEEEEE",
"&9 c #1C1300",
"&8 c #1E1A04",
"&7 c #1E1B03",
"&6 c #1E1500",
"&5 c #1E1901",
"&4 c #1E1700",
"&3 c #130E00",
"&2 c #7E7E7E",
"&1 c #E7E7E7",
"&| c #1E1200",
"&} c #754B00",
"&[ c #F6A502",
"&< c #FECC20",
"&: c #FFCD13",
"&_ c #FECC12",
"&( c #FFBC0F",
"&/ c #FEC510",
"&^ c #FED71C",
"&] c #FFC00A",
"&{ c #CB930E",
"&~ c #734F0B",
"&! c #461F00",
"&) c #747474",
"&' c #ECECEC",
"&, c #404040",
"&> c #1F0D00",
"&; c #835E1D",
"&- c #D9901F",
"&= c #FE990D",
"&* c #FE8403",
"&& c #FE9006",
"&% c #FEA014",
"&$ c #FFAB22",
"&# c #FF9D1C",
"&@ c #FFAE23",
"&+ c #FEAB22",
"%Z c #FE9108",
"%Y c #FEA21D",
"%X c #FEA822",
"%W c #EA800F",
"%V c #522C08",
"%U c #130500",
"%T c #7D7D7D",
"%S c #E8E8E8",
"%R c #3F3F3F",
"%Q c #442707",
"%P c #ED861D",
"%O c #F87612",
"%N c #FE7206",
"%M c #FF780A",
"%L c #FE7D05",
"%K c #FF7B05",
"%J c #FC851F",
"%I c #FC5100",
"%H c #FF780D",
"%G c #FE9621",
"%F c #FC6000",
"%E c #FC8519",
"%D c #FE6100",
"%C c #FF6902",
"%B c #FEA82F",
"%A c #FE9923",
"%z c #C14205",
"%y c #1F1103",
"%x c #767676",
"%w c #482407",
"%v c #EA7E1C",
"%u c #FE8319",
"%t c #FF8018",
"%s c #FB5905",
"%r c #EF5108",
"%q c #F87212",
"%p c #FD7A11",
"%o c #F9680E",
"%n c #FE7E1F",
"%m c #F95D05",
"%l c #F9791D",
"%k c #F44A00",
"%j c #FE6006",
"%i c #FE5B02",
"%h c #FE6E08",
"%g c #FE9A30",
"%f c #FA6A08",
"%e c #FE7516",
"%d c #CF4001",
"%c c #170C02",
"%b c #8E8E8E",
"%a c #BFBFBF",
"%0 c #410C00",
"%9 c #EE5D07",
"%8 c #FE6009",
"%7 c #FE7017",
"%6 c #FE5F0F",
"%5 c #FF5603",
"%4 c #FC6211",
"%3 c #ED3B09",
"%2 c #AB3F0A",
"%1 c #701A03",
"%| c #7F3103",
"%} c #7C2700",
"%[ c #7C2900",
"%< c #7F2800",
"%: c #D55910",
"%_ c #F44906",
"%( c #FD5607",
"%/ c #FE6109",
"%^ c #EE4601",
"%] c #F65205",
"%{ c #FF6006",
"%~ c #C96315",
"%! c #1E0E02",
"%) c #686868",
"%' c #2A0F02",
"%, c #EB590F",
"%> c #FE5C0B",
"%; c #FE5206",
"%- c #F54208",
"%= c #F83900",
"%* c #FE590A",
"%& c #E2671D",
"%% c #321103",
"%$ c #0F0903",
"%# c #1B0F05",
"%@ c #621400",
"%+ c #D23902",
"$Z c #F94002",
"$Y c #FA4501",
"$X c #F95B1A",
"$W c #FD6012",
"$V c #F73E06",
"$U c #C32802",
"$T c #8A2A07",
"$S c #F53A0B",
"$R c #FC6D26",
"$Q c #FE5D12",
"$P c #F23303",
"$O c #FC3902",
"$N c #DC3A00",
"$M c #300E00",
"$L c #040100",
"$K c #AA2800",
"$J c #FB4204",
"$I c #E81600",
"$H c #F02900",
"$G c #F4470F",
"$F c #EE3B04",
"$E c #454545",
"$D c #C11602",
"$C c #FB4A12",
"$B c #FE5215",
"$A c #FE4E11",
"$z c #F7330B",
"$y c #E03D0E",
"$x c #270800",
"$w c #303030",
"$v c #0D0300",
"$u c #A70A00",
"$t c #D70E00",
"$s c #F32B00",
"$r c #EE2D04",
"$q c #F43E0F",
"$p c #9F1E03",
"$o c #0B0301",
"$n c #8C8C8C",
"$m c #7E1306",
"$l c #E30E01",
"$k c #F31A00",
"$j c #E22B14",
"$i c #FC1D02",
"$h c #F4290A",
"$g c #6B1703",
"$f c #555555",
"$e c #FAFAFA",
"$d c #ACACAC",
"$c c #560500",
"$b c #E41A00",
"$a c #DE0300",
"$0 c #F72808",
"$9 c #E51902",
"$8 c #EE2B06",
"$7 c #300903",
"$6 c #E4E4E4",
"$5 c #900A05",
"$4 c #D50401",
"$3 c #D70200",
"$2 c #E2110B",
"$1 c #E70600",
"$| c #AD0702",
"$} c #0C0300",
"$[ c #636363",
"$< c #8F8F8F",
"$: c #CD0600",
"$_ c #F01204",
"$( c #FA0800",
"$/ c #D50300",
"$^ c #F10500",
"$] c #AF0000",
"${ c #280201",
"$~ c #CA120A",
"$! c #D80302",
"$) c #E41C16",
"$' c #D20000",
"$, c #AA0000",
"$> c #2A2A2A",
"$; c #580000",
"$- c #EE0000",
"$= c #DF0000",
"$* c #DC1814",
"$& c #E20000",
"$% c #D00601",
"$$ c #D30100",
"$# c #CB0000",
"$@ c #CD0000",
"$+ c #850000",
"#Z c #242424",
"#Y c #F3F3F3",
"#X c #D70000",
"#W c #C80000",
"#V c #B50403",
"#U c #DB0101",
"#T c #8E0000",
"#S c #AE0000",
"#R c #BA0000",
"#Q c #A00000",
"#P c #999999",
"#O c #480000",
"#N c #C50000",
"#M c #C10000",
"#L c #CF0000",
"#K c #BE0000",
"#J c #B70000",
"#I c #650000",
"#H c #AD0000",
"#G c #9A0000",
"#F c #CC0000",
"#E c #B20000",
"#D c #430000",
"#C c #A40000",
"#B c #9F0000",
"#A c #9C0000",
"#z c #870000",
"#y c #7B0000",
"#x c #770000",
"#w c #800000",
"#v c #990000",
"#u c #8B0000",
"#t c #900000",
"#s c #690000",
"#r c #880000",
"#q c #7A0000",
"#p c #4E0000",
"#o c #7D0000",
"#n c #6A0000",
"#m c #820000",
"#l c #810000",
"#k c #989898",
"#j c #440101",
"#i c #8A0000",
"#h c #790000",
"#g c #900303",
"#f c #730000",
"#e c #7F0000",
"#d c #660000",
"#c c #680000",
"#b c #6E0000",
"#a c #550000",
"#0 c #4C4C4C",
"#9 c #750000",
"#8 c #6B0000",
"#7 c #860404",
"#6 c #5B0000",
"#5 c #7C0000",
"#4 c #848484",
"#3 c #5C0000",
"#2 c #BDBDBD",
"#1 c #A6A6A6",
"#| c #530000",
"#} c #5A0303",
"#[ c #4D0000",
"#< c #560101",
"#: c #D2D2D2",
"#_ c #450000",
"#( c #4A0000",
"#/ c #460000",
"#^ c #4F0000",
"#] c #474747",
"#{ c #FBFBFB",
"#~ c #500404",
"#! c #650404",
"#) c #350808",
"#' c #4E0202",
"#, c #5C0101",
"#> c #5F0000",
"#; c #410000",
"#- c #6D6D6D",
"#= c #E1E1E1",
"#* c #3A3A3A",
"#& c #3C0000",
"#% c #4B0000",
"#$ c #5C0707",
"## c #130303",
"#@ c #2D2D2D",
"#+ c #420000",
"@Z c #3D0000",
"@Y c #373737",
"@X c #3F0000",
"@W c #4B0707",
"@V c #3A0404",
"@U c #340101",
"@T c #440000",
"@S c #D6D6D6",
"@R c #220000",
"@Q c #5D0707",
"@P c #2C0000",
"@O c #F1F1F1",
"@N c #565656",
"@M c #4F0101",
"@L c #290000",
"@K c #380000",
"@J c #320000",
"@I c #1F0000",
"@H c #250101",
"@G c #461616",
"@F c #340606",
"@E c #2E0000",
"@D c #3A0000",
"@C c #390000",
"@B c #ADADAD",
"@A c #0E0E0E",
"@z c #280000",
"@y c #130000",
"@x c #2A0000",
"@w c #2F0000",
"@v c #360000",
"@u c #360707",
"@t c #410404",
"@s c #2F0101",
"@r c #240000",
"@q c #3B0000",
"@p c #2D0000",
"@o c #110000",
"@n c #270000",
"@m c #200505",
"@l c #290101",
"@k c #350000",
"@j c #E2E2E2",
"@i c #120000",
"@h c #2B0000",
"@g c #230000",
"@f c #060000",
"@e c #0F0000",
"@d c #300101",
"@c c #330000",
"@b c #1D0000",
"@a c #2E0101",
"@0 c #310000",
"@9 c #2C0202",
"@8 c #090101",
"@7 c #7F7F7F",
"@6 c #D9D9D9",
"@5 c #180101",
"@4 c #200000",
"@3 c #250000",
"@2 c #1A0000",
"@1 c #290909",
"@| c #240707",
"@} c #260000",
"@[ c #130101",
"@< c #210000",
"@: c #200202",
"@_ c #878787",
"@( c #E0E0E0",
"@/ c #2E2E2E",
"@^ c #1C0000",
"@] c #140000",
"@{ c #280303",
"@~ c #1F0101",
"@! c #100000",
"@) c #2C0505",
"@' c #380606",
"@, c #979797",
"@> c #1E0000",
"@; c #1B0303",
"@- c #260101",
"@= c #170000",
"@* c #797979",
"@& c #190000",
"@% c #0D0000",
"@$ c #160000",
"@# c #150000",
"@@ c #0B0000",
"@+ c #C1C1C1",
"+Z c #5C5C5C",
"+Y c #111111",
"+X c #191919",
"+W c #090000",
"+V c #0E0000",
"+U c #A8A8A8",
"+T c #D4D4D4",
"+S c #CECECE",
"+R c #A3A3A3",
"+Q c #1B0000",
"+P c #180000",
"+O c #0C0000",
"+N c #353535",
"+M c #E6E6E6",
"+L c #232323",
"+K c #0A0000",
"+J c #080000",
"+I c #050000",
"+H c #7A7A7A",
"+G c #C2C2C2",
"+F c #CDCDCD",
"+E c #898989",
"+D c #2C2C2C",
"+C c #040000",
"+B c #101010",
"+A c #DADADA",
"+z c #181818",
"+y c #1D1D1D",
"+x c #323232",
"+w c #D1D1D1",
"+v c #DBDBDB",
"+u c #333333",
"+t c #070000",
"+s c #3B3B3B",
"+r c #808080",
"+q c #030000",
"+p c #030101",
"+o c #0E0A0A",
"+n c #020000",
"+m c #CBCBCB",
"+l c #050303",
"+k c #606060",
"+j c #F5F5F5",
"+i c #030202",
"+h c #010000",
"+g c #141414",
"+f c #B6B6B6",
"+e c #707070",
"+d c #0F0F0F",
"+c c #020202",
"+b c #151515",
"+a c #434343",
"+0 c #EBEBEB",
"+9 c #282828",
"+8 c #0A0A0A",
"+7 c #050505",
"+6 c #040404",
"+5 c #0B0B0B",
"+4 c #BABABA",
"+3 c #C7C7C7",
"+2 c #1A1A1A",
"+1 c #010101",
"+| c #030303",
"+} c #383838",
"+[ c #B7B7B7",
"+< c #C4C4C4",
"+: c #131313",
"+_ c #363636",
"+( c #959595",
"+/ c #E9E9E9",
"+^ c #E5E5E5",
"+] c #515151",
"+{ c #060606",
"+~ c #292929",
"+! c #3D3D3D",
"+) c #B3B3B3",
"+' c #EFEFEF",
"+, c #9E9E9E",
"+> c #6A6A6A",
"+; c #000000",
"+- c #5E5E5E",
"+= c #939393",
"+* c #DCDCDC",
"+& c #F9F9F9",
"+% c #EAEAEA",
"+$ c #F7F7F7",
"+# c #FEFEFE",
"+@ c #FFFFFF",
"++ c None",
"++++++++++++++++++++++++++++++++++++++++++++++++++++++++++++++++++++++++++++++++++++++++++++++++++++++++++++++++++++++++++++++++++++",
"++++++++++++++++++++++++++++++++++++++++++++++++++++++++++++++++++++++++++++++++++++++++++++++++++++++++++++++++++++++++++++++++++++",
"++++++++++++++++++++++++++++++++++++++++++++++++++++++++++++++++++++++++++++++++++++++++++++++++++++++++++++++++++++++++++++++++++++",
"+++++++++++++++++++++++++++++++++++++++++++++++++++++++++++++++@+@+#+#+@+@+@+@+#+#+@++++++++++++++++++++++++++++++++++++++++++++++++",
"+++++++++++++++++++++++++++++++++++++++++++++++++++++++++++#+@+@+#+@+@+@+#+#+@+#+@+@+@+#+#+@+@+@++++++++++++++++++++++++++++++++++++",
"+++++++++++++++++++++++++++++++++++++++++++++++++++@+@+@+@+@+@+#+@+@+@+@+@+@+@+#+@+#+#+#+@+@+#+#+#++++++++++++++++++++++++++++++++++",
"+++++++++++++++++++++++++++++++++++++++++++++++++@+@+#+@+@+#+#+#+#+@+@+#+@+@+@+#+#+@+#+@+@+@+#+#+#+@++++++++++++++++++++++++++++++++",
"+++++++++++++++++++++++++++++++++++++++++++++++#+@+@+#+@+@+@+@+@+@+@+@+$+%+%+&+#+@+#+#+#+#+@+@+#+#+@+#++++++++++++++++++++++++++++++",
"+++++++++++++++++++++++++++++++++++++++++++++@+#+#+#+#+@+#+@+#+*+=+=+=+-+;+;+>+=+=+=+,+#+@+@+@+#+@+@+#++++++++++++++++++++++++++++++",
"+++++++++++++++++++++++++++++++++++++++++++@+#+#+@+#+#+#+'+)+!+~+;+;+;+;+;+;+;+;+;+;+{+!+]+^+/+@+#+#+#+#+@++++++++++++++++++++++++++",
"+++++++++++++++++++++++++++++++++++++++++@+#+@+@+#+#+#+(+_+;+;+;+;+;+;+;+;+;+;+;+;+;+;+;+;+;+:+<+#+#+#+#+@++++++++++++++++++++++++++",
"+++++++++++++++++++++++++++++++++++++++@+@+#+@+#+#+[+}+|+;+;+;+;+;+;+;+;+;+1+1+;+;+;+;+;+;+;+;+2+3+#+@+#+@+@++++++++++++++++++++++++",
"+++++++++++++++++++++++++++++++++++++++#+@+@+@+@+4+5+;+;+;+;+;+6+;+7+;+;+;+6+7+;+;+;+;+;+8+;+;+;+9+@+#+@+@+@++++++++++++++++++++++++",
"+++++++++++++++++++++++++++++++++++@+@+@+@+#+0+a+b+;+;+;+;+;+;+1+;+c+;+;+8+;+;+1+;+;+d+;+6+;+;+;+9+@+@+@+@+@++++++++++++++++++++++++",
"+++++++++++++++++++++++++++++++++++@+@+@+@+#+e+;+;+;+;+;+;+;+;+;+;+;+;+;+;+;+;+6+;+1+;+;+;+;+;+;+9+#+#+@+@+@+#++++++++++++++++++++++",
"+++++++++++++++++++++++++++++++++@+@+#+#+@+f+g+;+;+;+;+;+;+;+;+;+;+;+;+;+;+;+;+;+;+;+;+;+;+;+;+;+9+@+@+#+#+@+@++++++++++++++++++++++",
"+++++++++++++++++++++++++++++++@+@+@+#+#+4+d+;+;+h+;+;+i+|+;+;+;+;+;+;+;+;+;+;+;+;+;+;+;+;+;+;+;+9+@+@+#+#+@+@++++++++++++++++++++++",
"+++++++++++++++++++++++++++++++@+@+@+@+j+k+;+;+;+h+;+l+1+h+;+;+;+;+;+;+;+;+;+;+;+;+;+;+;+;+;+;+;+9+@+@+@+#+@++++++++++++++++++++++++",
"+++++++++++++++++++++++++++++@+@+#+@+@+m+;+;+;+h+n+;+o+p+q+;+;+;+;+;+;+;+;+;+;+;+;+;+;+;+;+;+;+;+r+#+@+@+@+@++++++++++++++++++++++++",
"+++++++++++++++++++++++++++@+@+#+#+#+#+s+;+;+;+;+;+;+;+t+t+;+;+;+;+u+_+v+v+v+w+x+u+y+;+;+;+;+;+z+A+#+#+#+@++++++++++++++++++++++++++",
"+++++++++++++++++++++++++++@+@+#+@+@+[+B+;+;+;+;+;+;+;+C+;+;+;+D+E+#+@+#+@+#+#+@+#+F+E+E+E+E+E+G+#+@+@+@+@++++++++++++++++++++++++++",
"+++++++++++++++++++++++++++#+@+#+#+@+H+;+;+n+I+n+q+J+K+h+;+;+L+M+#+@+#+#+#+@+@+#+@+#+#+#+@+@+#+@+#+#+#+#++++++++++++++++++++++++++++",
"+++++++++++++++++++++++++++@+#+#+@+^+N+;+;+n+C+O+P+Q+;+;+;+;+R+#+#+S+e+e+T+#+@+@+#+#+#+#+@+#+#+#+#+@+@++++++++++++++++++++++++++++++",
"+++++++++++++++++++++++++@+#+#+#+#+U+;+;+;+C+C+O+C+V+W+;+;+;+B+X+X+B+;+;+Y+X+X+Z@++v+#+@+@+@+#+#+#+@+#++++++++++++++++++++++++++++++",
"+++++++++++++++++++++++++@+@+@+@+#+9+;+;@@@#@$+O@%@&+h+;+;+;+;+;+;+;+;+;+;+;+;+;+;+D@*+#+#+#+@+@+@+#+@++++++++++++++++++++++++++++++",
"+++++++++++++++++++++++++#+#+#+#+@+9+;+;@=@-@;@@@>+K+;+;+;+;+;+;+;+I+q+q+;+;+;+;+;+;+c+g@,+v+#+#+#+@+@+#++++++++++++++++++++++++++++",
"+++++++++++++++++++++++++#+#+#+#+@+9+;+;+J@'@)@!+t@~+;+;+;+;@%+;+n@{+P@@@$@]@^+J+;+;+;+;+;@/@(+#+#+@+@+@+@++++++++++++++++++++++++++",
"+++++++++++++++++++++++++@+#+@+@@_+c+;@@@:@<@[@}@!+W+;+;+h@|@1+I+J@2@3@]@4@#@&@5+P+h+K+;+;+;+L@6+@+@+@+#+@++++++++++++++++++++++++++",
"+++++++++++++++++++++++@+@+@+#+#@7+;+;@8@9@0@a@b@c@@+;@$@d@^@e@2@f@#@g@2@h@i@%@e@h+W@^+;+;+;+;@/@j+#+#+@+@++++++++++++++++++++++++++",
"+++++++++++++++++++++++#+#+#+@+@@7+;+;+J@k@&@=@]@%+I@l@2@=@m+Q@n+O@e+Q@}+V@b@o+Q@o@p+O@#@e+;+;+;+,+@+@+@+@+#++++++++++++++++++++++++",
"+++++++++++++++++++++++@+@+#+#+@@7+;+;+K@q@^+Q@4@0@r@s@t+Q@u@v@w@x+J@]+O@y@h@<+;@h@<@z@0@n+J+;+;@A@B+#+#+#+#+@++++++++++++++++++++++",
"+++++++++++++++++++++++@+#+@+@+@@7+;+;+W@C+P@v@D@q@E@D@F@G@H@y+h+h+;+;+;+;+h+h@I@J@K@L@C@M@p+W+;+;@N@O+@+@+@+@++++++++++++++++++++++",
"+++++++++++++++++++++++@+#+#+@+@@7+;+;+J@P@e+K@q@]@w@E@Q@h@e+;+;+;+;+;+;+;+;+;+K@E@R@4@n@g@r+q+;+;+;@S+@+#+#+@+@++++++++++++++++++++",
"+++++++++++++++++++++++#+@+#+@+#@7+;+;+J@g@T@U@V@W@T@X@#+I+;+;+;+;@N@N@Y+;+;+;+;+C@T@c@Z#+@q@^+h+;+;#@+#+@+#+#+#++++++++++++++++++++",
"+++++++++++++++++++++++@+#+@+#+@@7+;+;###$#%@c@>@w#&@q+t+;+;+;#*@B+@+@#=@B#-+1+;+n@L@=#;#>#,#'#)+;+;#@+@+@+@+@+@+#++++++++++++++++++",
"+++++++++++++++++++++++@+@+@+#+#@7+;+;+W@K#!@K#~@q@c@k+q+;+;#*#{+#+@+@+#+@+@#]+;+;+h@n#^#/#(#_@J+C+;+y#:+@+#+@+#+@++++++++++++++++++",
"+++++++++++++++++++++++@+@+@+#+@@7+;+;@##<#^#[#}@b#|@]+h+;+|#1+#+#+#+@+@+#+##2+;+;+;@k@r#3@X@c@p+q+;+;#4+#+@+@+@+@++++++++++++++++++",
"+++++++++++++++++++++++@+#+@+@+#@7+;+;@^#5#6#^#7#8#9@d+;+;#0+@+#+#+@+@+@+#+#+j#*+;+;#(#a#b#c#d@X+K+;+;#4+#+#+@+#+#++++++++++++++++++",
"+++++++++++++++++++++++#+@+#+@+@@_+c+;@>#e#f#c#g#h#i#j+;+;#0+@+#+@+@+@+@+@+@+@#k+;+;@I#8#l#m#n#o@&+;+;#4+@+#+@+#+#++++++++++++++++++",
"+++++++++++++++++++++++@+@+#+#+@+#+9+;@%#p#q#m#r#s#t@w+;+;#0+#+#+#+@+@+#+@+@+@#k+;+;@@#u#v#w#x#y@$+;+;#4+#+@+@+#+@++++++++++++++++++",
"+++++++++++++++++++++++#+@+@+#+#+#+9+;+;@T#w#z#A#B#C#D+;+;#0+@+@+@+@+@+@+@+@+@#k+;+;@e#E#F#G#t#H+Q+;+;#4+@+@+@+#+@++++++++++++++++++",
"+++++++++++++++++++++++@+@+@+#+@+@+9+;+;#I#J#K#L#M#N#O+;+;#0+#+#+@+#+#+@+@+#+##P+;+;@]#Q#R#S#B#T@&+;+;#4+#+@+#+#+#++++++++++++++++++",
"+++++++++++++++++++++++#+#+@+@+#+#+U+;+;#a#U#L#V#W#X#>+;+;#0+#+#+#+#+#+#+#+@#Y#Z+;+;$+$@$#$@#K$$@z+;+;#4+#+#+#+#+@++++++++++++++++++",
"+++++++++++++++++++++++++#+#+#+#+#+w+;+;+;$%$&$*$=$-$;+;+;$>@S+#+#+@+@+@+#+@+'+;+;+;$,$'$)#X$!$~${+;+;#4+@+#+#+@+@++++++++++++++++++",
"+++++++++++++++++++++++++@+#+#+#+#+w+;+;+;$]$^$/$($_$:@@+;+;$<+#+#+#+@+#+@#Y$[+;+;$}$|$1$2$3$4$5+t+;+L$6+#+#+#+@+@++++++++++++++++++",
"+++++++++++++++++++++++++@+#+#+#+@+M+}+;+;$7$8$9$0$a$b$c+;+;+;$d+#+@+@+@$e$f+;+;+;$g$h$i$j$k$l$m+;+;#@+@+@+@+@+@+@++++++++++++++++++",
"+++++++++++++++++++++++++++#+@+@+@+@$n+6+;$o$p$q$r$s$t$u$v+;+;+B+u+u+x+u$w+;+;+;$x$y$z$A$B$C$D@=+;+;$E+@+@+@+#+@+@++++++++++++++++++",
"+++++++++++++++++++++++++++@+@+#+#+#+@+L+;+;@v$F$G$H$I$J$K$L+;+;+;+;+;+;+;+;+;$M$N$O$P$Q$R$S$T+;+;+;@S+@+@+@+#+#+@++++++++++++++++++",
"+++++++++++++++++++++++++++@+@+#+@+@+#@B+;+;+;$U$V$W$X$Y$Z%+%@%#+;+;+;+;+;%$%%%&%*%=%-%;%>%,%'+;+;%)+$+#+#+@+#+#++++++++++++++++++++",
"+++++++++++++++++++++++++++++@+@+@+@+#+^#*+;+;%!%~%{%]%^%/%(%_%:%<%[%}%|%1%2%3%4%5%6%7%8%9%0+;+;+g%a+@+#+#+@+@++++++++++++++++++++++",
"+++++++++++++++++++++++++++++++#+@+@+@+#%b+7+;+;%c%d%e%f%g%h%i%j%k%l%m%n%o%p%q%r%s%t%u%v%w+;+;+;#]+@+@+@+#+@+#++++++++++++++++++++++",
"+++++++++++++++++++++++++++++++++#+@+@+#+@%x+;+;+;%y%z%A%B%C%D%E%F%G%H%I%J%K%L%M%N%O%P%Q+;+;+;%R%S+#+@+@+#+#++++++++++++++++++++++++",
"+++++++++++++++++++++++++++++++++@+@+#+#+@+$%T+7+;+;%U%V%W%X%Y%Z&+&@&#&$&%&&&*&=&-&;&>+;+;+;&,&'+#+#+#+#+@+@++++++++++++++++++++++++",
"+++++++++++++++++++++++++++++++++++@+@+@+#+@+@&)+;+;+;+;&!&~&{&]&^&/&(&_&:&<&[&}&|+;+;+;+;%R&1+@+#+@+@+@+@++++++++++++++++++++++++++",
"+++++++++++++++++++++++++++++++++++#+@+@+@+@+#+$&2+~+;+;+;+;&3&4&5&4&6&7&5&8&9+;+;+;+;+z#0&0+#+@+#+#+@+#+@++++++++++++++++++++++++++",
"+++++++++++++++++++++++++++++++++++++++#+#+#+#+@+##=%b&a+;+;+;+;+;+;+;+;+;+;+;+;+;+;&b&c+@+#+#+#+#+@+@+@++++++++++++++++++++++++++++",
"+++++++++++++++++++++++++++++++++++++++@+@+@+@+@+#+@+@&1%T+!&d+;+;+;+;+;+;+;+D+!&e+^&f+@+@+@+#+#+#+@+@++++++++++++++++++++++++++++++",
"+++++++++++++++++++++++++++++++++++++++++++@+@+#+#+#+#+#+#+@+4+=+=+=+=+=+=+=#=+#+@+#+@+#+#+#+@+@+@++++++++++++++++++++++++++++++++++",
"+++++++++++++++++++++++++++++++++++++++++++@+@+@+@+#+@+@+#+#+@+@+#+#+#+@+@+@+#+@+#+#+@+@+#+@+#+@+#++++++++++++++++++++++++++++++++++",
"+++++++++++++++++++++++++++++++++++++++++++++++@+@+@+#+@+#+#+@+@+@+#+#+@+@+#+#+@+@+#+#+#+@+@+@++++++++++++++++++++++++++++++++++++++",
"+++++++++++++++++++++++++++++++++++++++++++++++++++@+@+#+@+@+#+#+@+#+@+#+#+@+#+@+@+#+@+@+@++++++++++++++++++++++++++++++++++++++++++",
"+++++++++++++++++++++++++++++++++++++++++++++++++++++#+@+@+#+@+#+#+@+@+#+#+@+@+#+#+@++++++++++++++++++++++++++++++++++++++++++++++++",
"+++++++++++++++++++++++++++++++++++++++++++++++++++++++@+@+#+@+#+#+#+#+@+@+@+@++++++++++++++++++++++++++++++++++++++++++++++++++++++",
"++++++++++++++++++++++++++++++++++++++++++++++++++++++++++++++++++++++++++++++++++++++++++++++++++++++++++++++++++++++++++++++++++++",
"++++++++++++++++++++++++++++++++++++++++++++++++++++++++++++++++++++++++++++++++++++++++++++++++++++++++++++++++++++++++++++++++++++",
"++++++++++++++++++++++++++++++++++++++++++++++++++++++++++++++++++++++++++++++++++++++++++++++++++++++++++++++++++++++++++++++++++++"};
