/* XPM */
static char * ball_red_xpm[] = {
"66 66 432 2",
"%M c #3D3D3D",
"%L c #4A4A4A",
"%K c #E5E5E5",
"%J c #E1E1E1",
"%I c #666666",
"%H c #6F6F6F",
"%G c #F7F7F7",
"%F c #7E7E7E",
"%E c #292929",
"%D c #BDBDBD",
"%C c #686868",
"%B c #4B3F04",
"%A c #754D02",
"%z c #755E02",
"%y c #755500",
"%x c #755700",
"%w c #755404",
"%v c #756A0D",
"%u c #756005",
"%t c #755604",
"%s c #756106",
"%r c #6B4C03",
"%q c #161616",
"%p c #150D01",
"%o c #523806",
"%n c #CB7402",
"%m c #C8961F",
"%l c #ECA10A",
"%k c #FF9D03",
"%j c #FFC524",
"%i c #FEC71F",
"%h c #FEA70C",
"%g c #FEB717",
"%f c #FEBB19",
"%e c #FEB713",
"%d c #FEA605",
"%c c #FEB70F",
"%b c #FAC826",
"%a c #CC9512",
"%0 c #CB7108",
"%9 c #CC8D0E",
"%8 c #482C04",
"%7 c #231704",
"%6 c #070501",
"%5 c #BCBCBC",
"%4 c #0F0F0F",
"%3 c #70450E",
"%2 c #C96C0C",
"%1 c #FF8906",
"%| c #F26A08",
"%} c #FEAD2A",
"%[ c #FF8408",
"%< c #FE7D06",
"%: c #FF9110",
"%_ c #FE9110",
"%( c #FE7B0A",
"%/ c #FFA222",
"%^ c #FE7900",
"%] c #FF8D0D",
"%{ c #F37715",
"%~ c #F7941F",
"%! c #FFA21F",
"%) c #FE8C11",
"%' c #FEA427",
"%, c #FE7D0A",
"%> c #FF9817",
"%; c #322207",
"%- c #BABABA",
"%= c #151515",
"%* c #090500",
"%& c #8A4003",
"%% c #F98117",
"%$ c #FB6305",
"%# c #FC891F",
"%@ c #FE6703",
"%+ c #FF7708",
"$Z c #FE6F08",
"$Y c #FF8613",
"$X c #FE8614",
"$W c #FF7805",
"$V c #FE7105",
"$U c #FE740A",
"$T c #FEA02F",
"$S c #FE8714",
"$R c #FF8B19",
"$Q c #FA7A0E",
"$P c #FC8516",
"$O c #FF8211",
"$N c #FF8B1B",
"$M c #FE790E",
"$L c #FE7D0E",
"$K c #FB6807",
"$J c #321902",
"$I c #914C15",
"$H c #FE6D0E",
"$G c #FF942A",
"$F c #F8650E",
"$E c #F35108",
"$D c #F84D00",
"$C c #FE6C09",
"$B c #FE630C",
"$A c #FF7511",
"$z c #FF780F",
"$y c #FF6D10",
"$x c #FE8D22",
"$w c #FE7415",
"$v c #FF7C1C",
"$u c #FE8218",
"$t c #FF6E0E",
"$s c #FE680B",
"$r c #FF6D0B",
"$q c #FE7A15",
"$p c #FA630F",
"$o c #FE5600",
"$n c #FA5903",
"$m c #FF6E08",
"$l c #321500",
"$k c #797979",
"$j c #0A0200",
"$i c #8A2503",
"$h c #FA7920",
"$g c #FF640B",
"$f c #FE6B0D",
"$e c #FC6511",
"$d c #FE5E09",
"$c c #FC5A08",
"$b c #EE3F03",
"$a c #C62600",
"$0 c #9A450C",
"$9 c #281403",
"$8 c #281103",
"$7 c #281909",
"$6 c #280E01",
"$5 c #281505",
"$4 c #281606",
"$3 c #281404",
"$2 c #6C1C00",
"$1 c #D1540B",
"$| c #D17B2C",
"$} c #F15E0E",
"$[ c #FB5807",
"$< c #F96418",
"$: c #F95909",
"$_ c #310E00",
"$( c #8C2F0A",
"$/ c #F95312",
"$^ c #FF5F10",
"$] c #FE4E0E",
"${ c #FF4E01",
"$~ c #FC4000",
"$! c #FE6013",
"$) c #FE5F12",
"$' c #5A1A01",
"$, c #5B1300",
"$> c #701C04",
"$; c #D11D00",
"$- c #ED2B00",
"$= c #2C0300",
"$* c #AFAFAF",
"$& c #1A0200",
"$% c #D01702",
"$$ c #FD460A",
"$# c #F5330A",
"$@ c #EA1A03",
"$+ c #FD3D01",
"#Z c #FF4C07",
"#Y c #8B1304",
"#X c #230D02",
"#W c #1A0400",
"#V c #701500",
"#U c #280600",
"#T c #EDEDED",
"#S c #850C00",
"#R c #EF2502",
"#Q c #FE4308",
"#P c #FD440F",
"#O c #F82301",
"#N c #FE3203",
"#M c #FF3608",
"#L c #0F0300",
"#K c #898989",
"#J c #838383",
"#I c #E2E2E2",
"#H c #0B0100",
"#G c #8D0400",
"#F c #ED1001",
"#E c #CC1A03",
"#D c #D90500",
"#C c #E50D00",
"#B c #E71000",
"#A c #610D00",
"#z c #101010",
"#y c #383838",
"#x c #E6E6E6",
"#w c #E8E8E8",
"#v c #E0E0E0",
"#u c #606060",
"#t c #1F1F1F",
"#s c #888888",
"#r c #320200",
"#q c #F50500",
"#p c #C40501",
"#o c #E00A03",
"#n c #D30000",
"#m c #C10000",
"#l c #A60000",
"#k c #4C4C4C",
"#j c #CDCDCD",
"#i c #8E8E8E",
"#h c #EB0200",
"#g c #E50400",
"#f c #E40202",
"#e c #DB0000",
"#d c #C90000",
"#c c #AD0000",
"#b c #E3E3E3",
"#a c #A80000",
"#0 c #CF0000",
"#9 c #E90303",
"#8 c #E50000",
"#7 c #BC0000",
"#6 c #450000",
"#5 c #5B5B5B",
"#4 c #A90000",
"#3 c #BF0000",
"#2 c #BD0000",
"#1 c #970000",
"#| c #200000",
"#} c #880000",
"#[ c #890000",
"#< c #B50000",
"#: c #AF0000",
"#_ c #B30000",
"#( c #7C0000",
"#/ c #A00000",
"#^ c #A30000",
"#] c #9F0000",
"#{ c #A00606",
"#~ c #9E9E9E",
"#! c #8F0202",
"#) c #830000",
"#' c #660000",
"#, c #7E0000",
"#> c #890808",
"#; c #300101",
"#- c #3C3C3C",
"#= c #F8F8F8",
"#* c #7F7F7F",
"#& c #550000",
"#% c #6A0101",
"#$ c #4B0000",
"## c #710000",
"#@ c #750303",
"#+ c #C2C2C2",
"@Z c #1A1A1A",
"@Y c #5C0101",
"@X c #650000",
"@W c #630000",
"@V c #750404",
"@U c #560000",
"@T c #1B1B1B",
"@S c #C4C4C4",
"@R c #360000",
"@Q c #510000",
"@P c #470101",
"@O c #320000",
"@N c #030303",
"@M c #ADADAD",
"@L c #303030",
"@K c #525252",
"@J c #EEEEEE",
"@I c #282828",
"@H c #3F0000",
"@G c #3B0101",
"@F c #2A0000",
"@E c #565656",
"@D c #353535",
"@C c #5C5C5C",
"@B c #3E0404",
"@A c #3D0000",
"@z c #3E0000",
"@y c #390000",
"@x c #171717",
"@w c #D1D1D1",
"@v c #F0F0F0",
"@u c #535353",
"@t c #380000",
"@s c #3D0404",
"@r c #330000",
"@q c #230000",
"@p c #AAAAAA",
"@o c #0C0C0C",
"@n c #2A0505",
"@m c #390101",
"@l c #440A0A",
"@k c #340000",
"@j c #440000",
"@i c #430000",
"@h c #400000",
"@g c #270000",
"@f c #370000",
"@e c #2E0000",
"@d c #999999",
"@c c #240000",
"@b c #1A0000",
"@a c #310101",
"@0 c #1C0000",
"@9 c #220000",
"@8 c #3B0000",
"@7 c #310000",
"@6 c #2F0000",
"@5 c #4A0000",
"@4 c #280000",
"@3 c #DFDFDF",
"@2 c #2C2C2C",
"@1 c #0F0000",
"@| c #340404",
"@} c #1D0000",
"@[ c #260000",
"@< c #210000",
"@: c #120000",
"@_ c #0B0101",
"@( c #1B0101",
"@/ c #290000",
"@^ c #320606",
"@] c #180000",
"@{ c #D8D8D8",
"@~ c #140000",
"@! c #180101",
"@) c #1E0000",
"@' c #300000",
"@, c #080000",
"@> c #250000",
"@; c #DDDDDD",
"@- c #656565",
"@= c #190000",
"@* c #110000",
"@& c #210101",
"@% c #2F0909",
"@$ c #160000",
"@# c #0C0000",
"@@ c #1B0000",
"@+ c #0A0000",
"+Z c #270101",
"+Y c #060000",
"+X c #9A9A9A",
"+W c #141414",
"+V c #090000",
"+U c #120606",
"+T c #1F0000",
"+S c #0A0101",
"+R c #0E0000",
"+Q c #2F0606",
"+P c #0F0202",
"+O c #767676",
"+N c #2A2A2A",
"+M c #260808",
"+L c #190404",
"+K c #170000",
"+J c #150000",
"+I c #DADADA",
"+H c #C1C1C1",
"+G c #202020",
"+F c #191919",
"+E c #130000",
"+D c #0B0000",
"+C c #040000",
"+B c #0D0000",
"+A c #707070",
"+z c #474747",
"+y c #1E0B0B",
"+x c #140707",
"+w c #0F0404",
"+v c #090202",
"+u c #040202",
"+t c #100000",
"+s c #A3A3A3",
"+r c #050000",
"+q c #0F0101",
"+p c #140909",
"+o c #EBEBEB",
"+n c #DBDBDB",
"+m c #8C8C8C",
"+l c #020000",
"+k c #3A3A3A",
"+j c #060202",
"+i c #040101",
"+h c #070000",
"+g c #070202",
"+f c #150909",
"+e c #F6F6F6",
"+d c #7B7B7B",
"+c c #020101",
"+b c #030000",
"+a c #030202",
"+0 c #0F0808",
"+9 c #060303",
"+8 c #CCCCCC",
"+7 c #0B0606",
"+6 c #010000",
"+5 c #3E3E3E",
"+4 c #050404",
"+3 c #060606",
"+2 c #111111",
"+1 c #040404",
"+| c #050505",
"+} c #121212",
"+[ c #7A7A7A",
"+< c #B7B7B7",
"+: c #0A0A0A",
"+_ c #010101",
"+( c #020202",
"+/ c #979797",
"+^ c #CBCBCB",
"+] c #232323",
"+{ c #F9F9F9",
"+~ c #8A8A8A",
"+! c #070707",
"+) c #1C1C1C",
"+' c #C7C7C7",
"+, c #A0A0A0",
"+> c #939393",
"+; c #0E0E0E",
"+- c #000000",
"+= c #737373",
"+* c #C5C5C5",
"+& c #ECECEC",
"+% c #EAEAEA",
"+$ c #FAFAFA",
"+# c #FEFEFE",
"+@ c #FFFFFF",
"++ c None",
"++++++++++++++++++++++++++++++++++++++++++++++++++++++++++++++++++++++++++++++++++++++++++++++++++++++++++++++++++++++++++++++++++++",
"++++++++++++++++++++++++++++++++++++++++++++++++++++++++++++++++++++++++++++++++++++++++++++++++++++++++++++++++++++++++++++++++++++",
"+++++++++++++++++++++++++++++++++++++++++++++++++++++@+@+@+@+@+@+@+@++++++++++++++++++++++++++++++++++++++++++++++++++++++++++++++++",
"+++++++++++++++++++++++++++++++++++++++++++@+@+@+@+@+#+@+#+@+#+#+#+#+#+@+@+@+@+#+#+@+@++++++++++++++++++++++++++++++++++++++++++++++",
"+++++++++++++++++++++++++++++++++++++@+@+@+@+#+#+#+@+#+@+@+@+@+#+#+@+@+@+#+#+@+#+@+#+#+#+#+@++++++++++++++++++++++++++++++++++++++++",
"+++++++++++++++++++++++++++++++++@+#+@+@+#+@+#+#+@+#+#+@+@+@+@+#+@+@+@+@+@+@+@+#+@+#+#+#+@+@+@+@+#++++++++++++++++++++++++++++++++++",
"+++++++++++++++++++++++++++++++@+#+@+@+#+@+@+#+#+#+@+#+@+@+#+#+#+#+@+@+#+@+@+@+#+#+@+#+@+@+@+#+#+#+@++++++++++++++++++++++++++++++++",
"+++++++++++++++++++++++++++++@+@+#+@+#+@+@+$+%+%+%+%+%+%+%+%+%+%+%+%+%+%+%+%+%+%+%+%+&+#+#+@+@+#+#+@+#++++++++++++++++++++++++++++++",
"+++++++++++++++++++++++++++++@+@+@+@+@+#+*+=+-+-+-+-+-+-+-+-+-+-+-+-+-+-+-+-+-+-+-+-+;+>+,+@+@+#+@+@+@++++++++++++++++++++++++++++++",
"+++++++++++++++++++++++++++++#+#+#+#+@+'+)+-+-+-+-+-+-+-+-+-+-+-+-+-+-+-+-+-+-+-+-+-+-+-+!+~+{+@+#+#+#+@++++++++++++++++++++++++++++",
"+++++++++++++++++++++++++++@+#+#+#+#+#+]+-+-+-+-+-+-+-+-+-+-+-+-+-+-+-+-+-+-+-+-+-+-+-+-+-+-+^+#+#+#+#+@++++++++++++++++++++++++++++",
"+++++++++++++++++++++++++++@+#+#+#+@+/+!+-+-+(+-+!+_+:+:+-+-+-+-+-+-+-+-+-+-+-+(+_+-+-+-+-+-+<+#+#+#+@+@++++++++++++++++++++++++++++",
"+++++++++++++++++++++++++++@+#+#+@+#+[+-+-+-+}+|+1+-+-+-+-+-+-+(+(+-+-+-+-+-+-+-+-+-+-+-+-+-+]+#+#+@+#+@++++++++++++++++++++++++++++",
"+++++++++++++++++++++++++++@+@+@+@+@+[+-+-+-+(+_+_+-+-+-+-+-+(+-+-+-+-+-+_+-+-+_+-+-+2+-+-+-+]+@+@+@+@+@++++++++++++++++++++++++++++",
"+++++++++++++++++++++++++++@+@+#+#+#+[+-+-+-+-+-+-+-+-+-+-+-+!+-+-+-+-+-+|+(+-+|+-+-+-+-+-+-+]+@+#+#+#+@++++++++++++++++++++++++++++",
"+++++++++++++++++++++++++++@+@+#+@+@+[+-+-+-+-+-+-+-+-+-+-+-+-+-+-+-+3+-+-+4+-+-+-+-+-+-+-+-+5+#+#+@+@+#++++++++++++++++++++++++++++",
"+++++++++++++++++++++++++++++@+@+@+@+[+-+-+-+6+7+-+6+6+-+-+-+-+-+-+-+-+-+-+-+-+-+-+-+-+-+-+-+8+#+@+@+@++++++++++++++++++++++++++++++",
"+++++++++++++++++++++++++++@+#+@+@+@+[+-+-+9+0+a+b+6+c+-+-+-+-+-+-+-+-+-+-+-+-+-+-+-+-+-+|+d+e+@+@+@+#++++++++++++++++++++++++++++++",
"+++++++++++++++++++++++++++@+@+@+#+@+[+-+-+-+f+g+h+i+j+-+-+-+-+-+-+-+-+-+-+-+-+-+-+-+-+k+>+@+@+@+@+@++++++++++++++++++++++++++++++++",
"+++++++++++++++++++++++++++@+#+#+#+#+[+-+-+-+a+l+b+6+-+-+-+-+m+n+n+n+n+n+n+n+n+n+n+n+n+o+#+@+@+#+#++++++++++++++++++++++++++++++++++",
"+++++++++++++++++++++++++++@+@+#+@+@+[+-+-+-+-+-+p+q+r+-+-+-+s+@+#+#+@+#+@+#+#+@+#+#+@+#+@+@+@+@+@++++++++++++++++++++++++++++++++++",
"+++++++++++++++++++++++++++@+@+#+#+@+[+-+-+-+h+t+u+v+w+-+-+-+s+#+#+@+#+#+#+@+@+#+@+#+#+#+@+@+#+@++++++++++++++++++++++++++++++++++++",
"+++++++++++++++++++++++++++@+#+#+@+@+[+-+-+-+-+-+b+x+y+-+-+-+z+A+A+#+#+#+@+#+@+@+#+#+#+#+@+#+#++++++++++++++++++++++++++++++++++++++",
"+++++++++++++++++++++++++++@+#+#+#+#+[+-+-+-+B+C+C+D+E+-+-+-+-+-+-+F+F+F+G+H+H+I+@+#+#+@+@+@+#+@++++++++++++++++++++++++++++++++++++",
"+++++++++++++++++++++++++++@+@+@+#+@+[+-+-+C+J+K+L+M+-+-+-+-+-+-+-+-+-+-+-+-+-+N+O+#+@+#+#+#+@+@+@++++++++++++++++++++++++++++++++++",
"+++++++++++++++++++++++++++@+#+#+@+#+[+-+-+P+Q+D+R+S+T+l+-+l+C+U+-+V+-+-+-+-+-+-+_+W+X+@+#+@+#+#+@+@++++++++++++++++++++++++++++++++",
"+++++++++++++++++++++++++++@+#+#+@+@+[+-+-+Y+Z@+@@+V+E+K@#@+@$@%@&@*@$@=@++-+-+-+-+-+:@-@;+@+#+#+#+@+@++++++++++++++++++++++++++++++",
"+++++++++++++++++++++++++++@+@+@+@+@+[+-+-+B@>@,+h+T@++E@'@)+B@#@$@!@~@)+J+J@,@,+6+-+-+-+G@{+#+@+@+@+#++++++++++++++++++++++++++++++",
"+++++++++++++++++++++++++++@+#+#+#+#+[+-+-@#@]@*+Z+E@*+J@^+K+J@/+T@(@_@:@<@[+J@}@|@1+-+-+-@2@3+#+#+#+@+@++++++++++++++++++++++++++++",
"+++++++++++++++++++++++++++@+@+@+@+@+[+-+-@+@4@)@5@6+D@'@7@=@/@8@9@@@0@a@a+K@b@c@0@0+t+-+-+-@d+@+@+@+@+#+@++++++++++++++++++++++++++",
"+++++++++++++++++++++++++++@+#+@+#+#+[+-+-+-@*@e@f@<@g@9@]+B@,@1+C@h@i@j@<@k@l+t+R@h@m@n+-+-@o@p+@+#+#+#+@++++++++++++++++++++++++++",
"+++++++++++++++++++++++++++@+@+@+@+@+[+-+-+D@q@:+Y+-+-+-+-+-+-+-+-+6+6+D@[@[@q@r@e@7@s@t+b+-+-@u@v+@+@+@+@++++++++++++++++++++++++++",
"+++++++++++++++++++++++++++@+@+@+@+@@w@x+-+C@~+l+-+-+-+-+-+-+-+-+-+-+-+-+-+R@y@'@z@A@B@/+R+-+-+-@w+@+@+@+@+#++++++++++++++++++++++++",
"+++++++++++++++++++++++++++++@+#+@+@+#@C+-+-+-+-+-+-+-+-@D@E@E@E@E+-+-+-+-+-+t@F@t@G@c@H@8+r+-+-@I+@+@+#+@+#++++++++++++++++++++++++",
"+++++++++++++++++++++++++++++@+#+@+@+@@J@K+|+|+|+|@L@M@M@3+@+@+@+@@M@p@N+-+-+-@~@O@P@Q@6@R@c+-+-@I+@+@+@+@+@+@++++++++++++++++++++++",
"+++++++++++++++++++++++++++++++#+#+@+#+@+#+@+#+#+#+@+#+@+#+@+#+#+#+@+@@S@T+-+-+E@U@V@W@X@Y@]+6+-@Z@w+@+#+@+#+@++++++++++++++++++++++",
"+++++++++++++++++++++++++++++++@+@+@+@+#+@+@+@+@+#+#+#+@+#+@+#+#+#+#+@+@#++-+-+-@z#@###$#%#&@#+-+-#*+@+@+#+@+@++++++++++++++++++++++",
"+++++++++++++++++++++++++++++++++++@+@+#+#+@+#+#+#+@+#+@+@+@+@+#+#+@+@+@#=#-+-+-#;#>#,#'#)#!@$+-+-#*+#+@+#+#+@++++++++++++++++++++++",
"+++++++++++++++++++++++++++++++++++@+@+@+#+@+#+#+@+#+#+@+@+@+@+#+@+@+@+@+@#~+-+-+B#{#]#^#/#(+D+-+-#*+@+@+@+#+#++++++++++++++++++++++",
"+++++++++++++++++++++++++++++++++++++@+#+@+@+#+#+#+@+#+@+@+@+@+@+#+@+@+#+@#~+-+-+R#_#:#<#[#}#|+-+-#*+@+@+#+@+#++++++++++++++++++++++",
"+++++++++++++++++++++++++++++++++@+@+#+@+@+@+#+@+#+@+#+@+@+@+#+@+@+@+@+@+@#~+-+-@+#1#2#3#4#3@[+-+-#*+@+#+@+@+#++++++++++++++++++++++",
"+++++++++++++++++++++++++++++++@+@+@+@+#+@+#+#+#+#+#+#+@+#+@+#+#+@+#+#+@+$#5+-+-#6#7#8#9#0#a@[+-+-#*+@+@+#+@+#++++++++++++++++++++++",
"+++++++++++++++++++++++++++++@+#+#+#+@+#+#+#+#+#+@+#+#+#+@+#+#+#+#+#+#+##b+-+-+-#c#d#e#f#g#h@O+-+-#*+#+@+#+#+#++++++++++++++++++++++",
"+++++++++++++++++++++++++++@+#+#+#+#+##~#i#i#j+@+#+#+#+#+#+@+#+#+#+@+@+@#k+-+-+-#l#m#n#o#p#q#r+-+-#*+#+#+@+#+@++++++++++++++++++++++",
"+++++++++++++++++++++++++++#+#+#+#+{#s+!+-+-#t#u#v#w+@+#+#+@+#+@+#+##x#y#z+-+6#A#B#C#D#E#F#G#H+-#t#I+@+#+#+#+@++++++++++++++++++++++",
"+++++++++++++++++++++++++++@+#+#+@#J+-+-+-+-+-+-+-+]#K#K#K#K#K#K#K#K@2+-+-+-#L#M#N#O#P#Q#R#S+-+-@I+@+#+@+@+@+@++++++++++++++++++++++",
"+++++++++++++++++++++++++@+@+@+@#T+]+-#U#V#W+-+-+-+-+-+-+-+-+-+-+-+-+-+-+6#X#Y#Z$+$@$#$$$%$&+-+-$*+@+@+@+@+@+@++++++++++++++++++++++",
"+++++++++++++++++++++++#+@+@+@+##*+-+-$=$-$;$>$,+-+-+-+-+-+-+-+-+-+-+-+-$'$)$!$~${$]$^$/$(+-+-+-@w+#+#+@+@+#++++++++++++++++++++++++",
"+++++++++++++++++++++++@+#+#+#+##*+-+-$_$:$<$[$}$|$1$2$3$4$5$6$7$8$9$0$a$b$c$d$e$f$g$h$i$j+-+|$k+e+@+@+#+@+#++++++++++++++++++++++++",
"+++++++++++++++++++++++@+@+@+#+@#*+-+-$l$m$n$o$p$q$r$s$t$u$v$w$x$y$z$A$B$C$D$E$F$G$H$I+-+-+-+]+#+@+@+@+#+@++++++++++++++++++++++++++",
"+++++++++++++++++++++++#+@+#+@+@#*+-+-$J$K$L$M$N$O$P$Q$R$S$T$U$V$W$X$Y$Z%+%@%#%$%%%&%*+-+-%=%-+@+@+@+@+@+#++++++++++++++++++++++++++",
"+++++++++++++++++++++++#+@+@+@+@+H%=+-%;%>%,%'%)%!%~%{%]%^%/%(%_%:%<%[%}%|%1%)%2%3+-+-+-%4%5+@+@+@+#+@+@+@++++++++++++++++++++++++++",
"+++++++++++++++++++++++@+@+@+#+#+#@I+-%6%7%8%9%0%a%b%c%d%e%f%g%h%i%j%k%l%m%n%o%p+-+-+-%q%-+@+@+#+#+#+#+@++++++++++++++++++++++++++++",
"+++++++++++++++++++++++@+@+@+@+#+@#J+-+-+-+-+-+-+-%r%s%t%u%v%w%x%y%z%A%B+-+-+-+-+-+-%C%D+@+@+@+@+#+@+@++++++++++++++++++++++++++++++",
"+++++++++++++++++++++++#+@+#+@+#+#+{#s@2+-+-+-+-+-+-+-+-+-+-+-+-+-+-+-+-+-+-+-+-%E%F%G+#+@+@+#+@+#+@++++++++++++++++++++++++++++++++",
"+++++++++++++++++++++++++@+@+#+#+@+@+##w#i%H+-+-+-+-+-+-+-+-+-+-+-+-+-+-+-+-%I#i%J+#+#+#+@+#+#+#+#++++++++++++++++++++++++++++++++++",
"+++++++++++++++++++++++++++#+#+#+#+#+#+@+#+{%K%K%K%L%M%M%M%M%M%M%M%M%M$k%K%K%G+@+@+#+#+@+@+@+#+#+#++++++++++++++++++++++++++++++++++",
"+++++++++++++++++++++++++++++@+@+#+@+@+@+#+#+@+#+#+#+#+#+#+@+#+@+@+@+#+#+#+#+#+#+@+#+@+#+#+#+#++++++++++++++++++++++++++++++++++++++",
"+++++++++++++++++++++++++++++++@+@+#+#+@+#+@+@+@+@+#+@+@+#+#+@+@+#+#+#+@+@+@+#+@+#+#+@+@+@+#++++++++++++++++++++++++++++++++++++++++",
"+++++++++++++++++++++++++++++++++@+@+#+#+@+#+#+#+#+@+#+@+#+#+@+@+@+#+#+@+@+#+#+@+@+#+@++++++++++++++++++++++++++++++++++++++++++++++",
"+++++++++++++++++++++++++++++++++++#+@+@+@+#+#+#+#+@+#+#+@+@+#+#+@+#+@+#+#+@+#+@+@+@++++++++++++++++++++++++++++++++++++++++++++++++",
"+++++++++++++++++++++++++++++++++++++++++++#+#+#+#+#+#+@+@+#+@+#+#+@+@+#+#+@+@+#++++++++++++++++++++++++++++++++++++++++++++++++++++",
"+++++++++++++++++++++++++++++++++++++++++++++++#+@+#+@+@+@+@+@+@+@+@+#+@+@++++++++++++++++++++++++++++++++++++++++++++++++++++++++++",
"++++++++++++++++++++++++++++++++++++++++++++++++++++++++++++++++++++++++++++++++++++++++++++++++++++++++++++++++++++++++++++++++++++",
"++++++++++++++++++++++++++++++++++++++++++++++++++++++++++++++++++++++++++++++++++++++++++++++++++++++++++++++++++++++++++++++++++++",
"++++++++++++++++++++++++++++++++++++++++++++++++++++++++++++++++++++++++++++++++++++++++++++++++++++++++++++++++++++++++++++++++++++"};
