/* XPM */
static char * ball_red_xpm[] = {
"66 66 537 2",
"*# c #A1A1A1",
"*@ c #F6F6F6",
"*+ c #050505",
"&Z c #919191",
"&Y c #7A7A7A",
"&X c #F3F3F3",
"&W c #131101",
"&V c #141000",
"&U c #141201",
"&T c #120B00",
"&S c #140D00",
"&R c #141202",
"&Q c #141100",
"&P c #141302",
"&O c #141101",
"&N c #121101",
"&M c #363636",
"&L c #969696",
"&K c #404015",
"&J c #6B4603",
"&I c #6A4102",
"&H c #F9CE0C",
"&G c #FEE421",
"&F c #FEBA01",
"&E c #FFD20B",
"&D c #F3A002",
"&C c #FFAE00",
"&B c #FEE11C",
"&A c #EFBD16",
"&z c #FEC504",
"&y c #FEC711",
"&x c #FECD18",
"&w c #F3DB1D",
"&v c #694200",
"&u c #602F01",
"&t c #3B3409",
"&s c #8D8D8D",
"&r c #160B00",
"&q c #7B3E01",
"&p c #C17805",
"&o c #E6B82B",
"&n c #FF9206",
"&m c #FE8802",
"&l c #FE9803",
"&k c #FFA50F",
"&j c #F26C00",
"&i c #FE9C06",
"&h c #FE9A03",
"&g c #FEA106",
"&f c #FFBB1F",
"&e c #F59509",
"&d c #FEA60A",
"&c c #FF9801",
"&b c #FF9F0D",
"&a c #FEA50F",
"&0 c #FDAE17",
"&9 c #F8A71B",
"&8 c #E4B82C",
"&7 c #C18918",
"&6 c #C19926",
"&5 c #3B2A09",
"&4 c #191003",
"&3 c #040300",
"&2 c #878787",
"&1 c #3E2C0E",
"&| c #F08C15",
"&} c #FE8F12",
"&[ c #FEA323",
"&< c #FF9B1B",
"&: c #FF860A",
"&_ c #FE8F14",
"&( c #FF790A",
"&/ c #FE860F",
"&^ c #FE7F13",
"&] c #FE8211",
"&{ c #F2700C",
"&~ c #F37F12",
"&! c #FE981E",
"&) c #FE8710",
"&' c #FE7604",
"&, c #FE7E03",
"&> c #FE9E22",
"&; c #FE7C09",
"&- c #FD760C",
"&= c #FD6406",
"&* c #FE8718",
"&& c #FC6004",
"&% c #FC7D14",
"&$ c #FE891D",
"&# c #FE911A",
"&@ c #080808",
"&+ c #100700",
"%Z c #992704",
"%Y c #E3841F",
"%X c #FE7D15",
"%W c #FE8610",
"%V c #FF840F",
"%U c #FD7609",
"%T c #FE8015",
"%S c #FF750A",
"%R c #FE9B2A",
"%Q c #FD8A1A",
"%P c #FE8417",
"%O c #FF9421",
"%N c #F16010",
"%M c #F97410",
"%L c #FE790E",
"%K c #FE7108",
"%J c #FE7804",
"%I c #FC7001",
"%H c #D13E08",
"%G c #EB6407",
"%F c #FE6608",
"%E c #FE7005",
"%D c #FE8614",
"%C c #FE7006",
"%B c #FD9022",
"%A c #FD7A0F",
"%z c #FE7F0D",
"%y c #2D1703",
"%x c #0A0A0A",
"%w c #9F9F9F",
"%v c #170600",
"%u c #BF5208",
"%t c #EC5508",
"%s c #F15706",
"%r c #FC7B1C",
"%q c #FEAA3D",
"%p c #FD5E04",
"%o c #F85300",
"%n c #FE6507",
"%m c #FE9126",
"%l c #FF8B23",
"%k c #F84A03",
"%j c #FE750A",
"%i c #FE6600",
"%h c #FE891F",
"%g c #FF7B14",
"%f c #FD7012",
"%e c #FE7314",
"%d c #FE760D",
"%c c #FC5A02",
"%b c #FF8114",
"%a c #FA6A11",
"%0 c #FC6911",
"%9 c #FE7F15",
"%8 c #FF9327",
"%7 c #FC690B",
"%6 c #F44C03",
"%5 c #F75203",
"%4 c #FF760C",
"%3 c #2D1501",
"%2 c #494949",
"%1 c #120500",
"%| c #BE4D0E",
"%} c #FD6B18",
"%[ c #FE9C38",
"%< c #FF7513",
"%: c #FC4803",
"%_ c #F75010",
"%( c #E72F01",
"%/ c #FD5F0A",
"%^ c #FE690A",
"%] c #FD6210",
"%{ c #DB4001",
"%~ c #DA4D05",
"%! c #DB4C00",
"%) c #6C2300",
"%' c #331501",
"%, c #331401",
"%> c #321705",
"%; c #321A08",
"%- c #321501",
"%= c #AC4504",
"%* c #CE3302",
"%& c #B81500",
"%% c #E95E0B",
"%$ c #FE600B",
"%# c #FF7814",
"%@ c #FE7312",
"%+ c #FB721B",
"$Z c #FD741A",
"$Y c #FE5B05",
"$X c #2D0E00",
"$W c #BE2D00",
"$V c #F43201",
"$U c #F94D04",
"$T c #FE630F",
"$S c #FE5805",
"$R c #FF5304",
"$Q c #FD6519",
"$P c #F64104",
"$O c #FA4703",
"$N c #8B2B01",
"$M c #843404",
"$L c #050200",
"$K c #371703",
"$J c #842E02",
"$I c #843D0C",
"$H c #E44706",
"$G c #F33F04",
"$F c #FA3900",
"$E c #FF4900",
"$D c #2D0F00",
"$C c #461102",
"$B c #E92E05",
"$A c #F63804",
"$z c #F9480C",
"$y c #EC2500",
"$x c #F43400",
"$w c #FE3F01",
"$v c #EE3909",
"$u c #D33C05",
"$t c #712A06",
"$s c #230800",
"$r c #7A2A06",
"$q c #D42F03",
"$p c #E53504",
"$o c #2D0D00",
"$n c #C21504",
"$m c #F5370A",
"$l c #FB3700",
"$k c #FC4009",
"$j c #FE4505",
"$i c #F92200",
"$h c #EF2A06",
"$g c #B5360A",
"$f c #0A0200",
"$e c #110903",
"$d c #7F2F0E",
"$c c #160500",
"$b c #CB0A00",
"$a c #E81B00",
"$0 c #DB1400",
"$9 c #F01500",
"$8 c #F82A01",
"$7 c #FA2200",
"$6 c #ED2201",
"$5 c #550E03",
"$4 c #8F8F8F",
"$3 c #4C4C4C",
"$2 c #6F0000",
"$1 c #F51400",
"$| c #DB0A00",
"$} c #EA0F00",
"$[ c #F01600",
"$< c #E40D03",
"$: c #FD2807",
"$_ c #690A00",
"$( c #7C7C7C",
"$/ c #C9C9C9",
"$^ c #151515",
"$] c #770600",
"${ c #F60B00",
"$~ c #DE0300",
"$! c #F31909",
"$) c #EE170A",
"$' c #E00703",
"$, c #E00602",
"$> c #838383",
"$; c #FCFCFC",
"$- c #EEEEEE",
"$= c #E1E1E1",
"$* c #BFBFBF",
"$& c #9A0000",
"$% c #D50100",
"$$ c #E50400",
"$# c #F31C16",
"$@ c #D80000",
"$+ c #D40000",
"#Z c #E40501",
"#Y c #232323",
"#X c #D0D0D0",
"#W c #AB0000",
"#V c #CA0000",
"#U c #E50000",
"#T c #D00000",
"#S c #EC0000",
"#R c #B00000",
"#Q c #610100",
"#P c #960000",
"#O c #A70000",
"#N c #D60000",
"#M c #CD0000",
"#L c #D70000",
"#K c #AD0000",
"#J c #540000",
"#I c #898989",
"#H c #A40000",
"#G c #9F0000",
"#F c #BA0000",
"#E c #B60000",
"#D c #C60000",
"#C c #B50000",
"#B c #370000",
"#A c #CDCDCD",
"#z c #8E0000",
"#y c #A10000",
"#x c #880000",
"#w c #7E0000",
"#v c #A00000",
"#u c #7A0000",
"#t c #1B1B1B",
"#s c #C3C3C3",
"#r c #333333",
"#q c #910000",
"#p c #9E0202",
"#o c #8F0000",
"#n c #740000",
"#m c #970000",
"#l c #710000",
"#k c #717171",
"#j c #A70D0D",
"#i c #770000",
"#h c #9E0303",
"#g c #940707",
"#f c #830000",
"#e c #810000",
"#d c #5D0101",
"#c c #680000",
"#b c #7F0000",
"#a c #5C0000",
"#0 c #6C0000",
"#9 c #460000",
"#8 c #777777",
"#7 c #B7B7B7",
"#6 c #E5E5E5",
"#5 c #600000",
"#4 c #6B0E0E",
"#3 c #650000",
"#2 c #550000",
"#1 c #5A0000",
"#| c #5E0000",
"#} c #550202",
"#[ c #3E3E3E",
"#< c #606060",
"#: c #A0A0A0",
"#_ c #190707",
"#( c #5D1414",
"#/ c #5A0505",
"#^ c #610909",
"#] c #530000",
"#{ c #420000",
"#~ c #490000",
"#! c #171717",
"#) c #D2D2D2",
"#' c #1D1D1D",
"#, c #510000",
"#> c #610404",
"#; c #470000",
"#- c #450C0C",
"#= c #300202",
"#* c #3A0303",
"#& c #610000",
"#% c #440000",
"#$ c #4E1313",
"## c #510101",
"#@ c #240303",
"#+ c #270707",
"@Z c #8B8B8B",
"@Y c #180303",
"@X c #670000",
"@W c #5A0303",
"@V c #2E0000",
"@U c #4B0606",
"@T c #380000",
"@S c #3F0000",
"@R c #4B0303",
"@Q c #430000",
"@P c #3B0808",
"@O c #4F0000",
"@N c #626262",
"@M c #410202",
"@L c #4E0000",
"@K c #330000",
"@J c #370101",
"@I c #0B0000",
"@H c #505050",
"@G c #2A0000",
"@F c #340202",
"@E c #310000",
"@D c #260000",
"@C c #4D0000",
"@B c #1D0101",
"@A c #1B0000",
"@z c #949494",
"@y c #200000",
"@x c #360000",
"@w c #1D0000",
"@v c #450000",
"@u c #3C0000",
"@t c #210000",
"@s c #272727",
"@r c #170000",
"@q c #290000",
"@p c #410606",
"@o c #230000",
"@n c #3D0000",
"@m c #320000",
"@l c #270000",
"@k c #180000",
"@j c #340000",
"@i c #3E0000",
"@h c #160000",
"@g c #250000",
"@f c #202020",
"@e c #4F4F4F",
"@d c #230202",
"@c c #2F0000",
"@b c #3B0000",
"@a c #2A0505",
"@0 c #1E0000",
"@9 c #1A0000",
"@8 c #C1C1C1",
"@7 c #CCCCCC",
"@6 c #120202",
"@5 c #120000",
"@4 c #280000",
"@3 c #1F0000",
"@2 c #2D0D0D",
"@1 c #100101",
"@| c #555555",
"@} c #2B0000",
"@[ c #2C0000",
"@< c #130000",
"@: c #300000",
"@_ c #140000",
"@( c #1C0000",
"@/ c #282828",
"@^ c #727272",
"@] c #A4A4A4",
"@{ c #0B0B0B",
"@~ c #0E0000",
"@! c #200101",
"@) c #2E0202",
"@' c #150000",
"@, c #100000",
"@> c #131313",
"@; c #141414",
"@- c #B9B9B9",
"@= c #BCBCBC",
"@* c #D7D7D7",
"@& c #1A0101",
"@% c #1C0303",
"@$ c #170101",
"@# c #1D0202",
"@@ c #F9F9F9",
"@+ c #090202",
"+Z c #0B0101",
"+Y c #E7E7E7",
"+X c #190000",
"+W c #110000",
"+V c #090000",
"+U c #0A0000",
"+T c #060000",
"+S c #0F0000",
"+R c #0D0000",
"+Q c #A2A2A2",
"+P c #E0E0E0",
"+O c #121212",
"+N c #020000",
"+M c #130404",
"+L c #120808",
"+K c #DBDBDB",
"+J c #ECECEC",
"+I c #070000",
"+H c #110707",
"+G c #080000",
"+F c #525252",
"+E c #4A4A4A",
"+D c #3F3F3F",
"+C c #E8E8E8",
"+B c #030000",
"+A c #060202",
"+z c #2C2C2C",
"+y c #636363",
"+x c #CFCFCF",
"+w c #2D2D2D",
"+v c #2A2A2A",
"+u c #404040",
"+t c #848484",
"+s c #050000",
"+r c #EBEBEB",
"+q c #262626",
"+p c #040202",
"+o c #080303",
"+n c #858585",
"+m c #E9E9E9",
"+l c #DEDEDE",
"+k c #191919",
"+j c #0F0E0E",
"+i c #020101",
"+h c #010000",
"+g c #C4C4C4",
"+f c #161616",
"+e c #010101",
"+d c #D6D6D6",
"+c c #4D4D4D",
"+b c #060606",
"+a c #040404",
"+0 c #707070",
"+9 c #FAFAFA",
"+8 c #EAEAEA",
"+7 c #444444",
"+6 c #7F7F7F",
"+5 c #F1F1F1",
"+4 c #545454",
"+3 c #1C1C1C",
"+2 c #020202",
"+1 c #090909",
"+| c #9E9E9E",
"+} c #C5C5C5",
"+[ c #111111",
"+< c #030303",
"+: c #8A8A8A",
"+_ c #EDEDED",
"+( c #8C8C8C",
"+/ c #323232",
"+^ c #070707",
"+] c #424242",
"+{ c #939393",
"+~ c #E6E6E6",
"+! c #999999",
"+) c #3D3D3D",
"+' c #000000",
"+, c #747474",
"+> c #989898",
"+; c #A5A5A5",
"+- c #F5F5F5",
"+= c #4E4E4E",
"+* c #474747",
"+& c #C0C0C0",
"+% c #EFEFEF",
"+$ c #FBFBFB",
"+# c #FEFEFE",
"+@ c #FFFFFF",
"++ c None",
"+++++++++++++++++++++++++++++++++++++++++++++++++++++++++++++++@+#+#+@+@+@++++++++++++++++++++++++++++++++++++++++++++++++++++++++++",
"+++++++++++++++++++++++++++++++++++++++++#+@+@+@+@+@+@+@+@+@+@+#+@+@+@+@+@+@+#+@+@+@+@+@+@++++++++++++++++++++++++++++++++++++++++++",
"+++++++++++++++++++++++++++++++++++++++#+@+@+#+#+#+@+#+@+#+@+#+#+#+@+@+#+@+@+@+#+#+@+#+#+@+@+#++++++++++++++++++++++++++++++++++++++",
"+++++++++++++++++++++++++++++++++++#+@+@+@+@+@+@+#+#+#+@+#+@+#+#+#+#+@+@+#+#+#+#+@+#+#+@+@+@+#+@++++++++++++++++++++++++++++++++++++",
"+++++++++++++++++++++++++++++++++++@+@+#+#+@+#+#+#+@+#+@+@+@+@+#+#+@+@+@+#+#+@+#+@+#+@+@+#+#+@+@+@++++++++++++++++++++++++++++++++++",
"+++++++++++++++++++++++++++++++@+#+@+@+@+#+@+#+$+%+%+%+&+*+*+*+*+*+*+*+*+=+%+%+-+@+#+#+#+@+@+#+@+@++++++++++++++++++++++++++++++++++",
"+++++++++++++++++++++++++++++++@+#+@+@+#+@+;+>+,+'+'+'+'+'+'+'+'+'+'+'+'+'+'+'+)+>+!+~+@+@+@+#+#+#+@++++++++++++++++++++++++++++++++",
"+++++++++++++++++++++++++++@+#+#+#+$+{+]+]+^+'+'+'+'+'+'+'+'+'+'+'+'+'+'+'+'+'+'+'+'+/+(+_+@+@+#+#+@+@+@++++++++++++++++++++++++++++",
"+++++++++++++++++++++++++++@+#+@+@+:+'+'+'+'+'+'+'+'+'+'+'+<+'+'+'+'+'+'+'+'+'+'+'+'+'+'+[+}+@+#+@+@+@+@+@++++++++++++++++++++++++++",
"+++++++++++++++++++++++++#+@+@+#+|+1+'+'+'+'+'+'+'+'+'+'+'+2+'+'+'+'+'+'+<+'+'+'+'+'+'+'+'+3+4+5+#+#+#+@+#+@++++++++++++++++++++++++",
"+++++++++++++++++++++++@+@+#+#+#+6+'+'+'+'+'+'+'+'+'+'+2+<+2+2+'+'+'+'+'+'+'+'+'+'+'+'+'+'+'+'+7+8+#+#+#+@+@+@++++++++++++++++++++++",
"+++++++++++++++++++++++@+#+#+#+9+0+'+'+'+'+'+'+a+^+'+'+'+'+b+^+'+'+'+'+'+'+'+'+'+'+'+'+'+'+'+'+'+c+#+@+#+#+#+#++++++++++++++++++++++",
"+++++++++++++++++++++++@+@+#+#+d+'+'+'+'+'+'+'+'+'+'+'+<+2+'+'+e+<+'+'+'+'+'+'+'+'+'+'+'+'+'+'+'+f+g+#+@+@+@+@+@++++++++++++++++++++",
"+++++++++++++++++++++++@+#+@+@+d+'+'+'+'+'+'+'+'+'+h+i+'+'+'+'+'+e+'+'+'+'+'+e+j+'+'+'+h+'+'+'+'+'+k+l+@+@+@+#+#+@++++++++++++++++++",
"+++++++++++++++++++++++#+#+@+@+m+)+'+'+'+'+'+'+'+'+'+'+'+'+'+'+'+'+'+'+'+'+'+'+'+'+'+'+'+'+'+'+'+'+'+n+@+@+@+#+#+@++++++++++++++++++",
"+++++++++++++++++++++++@+#+#+#+#+6+'+'+'+'+'+h+'+'+'+'+'+'+'+'+'+'+'+'+'+'+'+'+'+'+o+p+'+'+'+'+'+'+'+q+r+#+@+#+#+#++++++++++++++++++",
"+++++++++++++++++++++++@+@+@+#+@+6+'+'+'+'+'+'+'+'+'+'+'+'+'+'+'+'+'+'+'+'+'+'+'+s+'+'+'+'+h+'+h+'+'+'+t+#+@+#+#+@++++++++++++++++++",
"+++++++++++++++++++++++#+@+#+@+@+8+u+'+'+'+'+'+'+'+v+w+w+w+x+d+d+d+d+y+w+z+'+'+'+h+'+'+'+A+'+'+B+h+'+'+t+#+@+@+#+#++++++++++++++++++",
"+++++++++++++++++++++++++@+@+@+@+#+C+D+'+'+'+E+t+t+-+#+@+#+@+#+#+@+#+@+#+9+F+'+'+'+'+G+'+H+'+I+G+'+'+'+t+#+@+#+#+#++++++++++++++++++",
"+++++++++++++++++++++++++++@+@+#+#+#+J+K+K+K+%+#+@+@+#+#+#+#+@+@+#+@+@+@+#+5+)+'+'+L+M+'+s+'+N+B+'+'+'+O+P+@+@+@+#++++++++++++++++++",
"+++++++++++++++++++++++++++++@+#+@+@+@+@+#+@+@+#+#+#+@+@+#+@+@+@+#+#+@+#+@+#+Q+'+'+'+R+N+'+'+S+h+N+'+'+'+K+#+@+@+#++++++++++++++++++",
"+++++++++++++++++++++++++++++++@+@+@+#+@+@+@+#+#+#+@+@+@+#+#+#+#+#+@+#+#+#+@+%+'+'+'+G+T+h+U+s+T+V+'+'+'+K+@+@+#+#++++++++++++++++++",
"+++++++++++++++++++++++++++++++++@+#+#+@+#+#+#+@+#+@+#+#+#+#+#+#+#+#+#+#+@+#+%+'+'+'+W+X+'+V+I+N+h+'+'+E+%+#+#+#+@++++++++++++++++++",
"+++++++++++++++++++++++++++++++++++#+@+@+@+#+@+@+#+@+@+@+#+@+@+#+#+#+@+@+@+Y+*+'+'+'+h+Z+B@++V+'+'+'+'+t+@+#+#+@+@++++++++++++++++++",
"+++++++++++++++++++++++++++++++++++++++++@+#+@+#+#+#+#+#+#+@+#+@+@+@+#+#@@+]+'+'+'+'+h@#@$@%@&+R+'+'+'+t+@+#+#+@+@++++++++++++++++++",
"+++++++++++++++++++++++++++++++++++++++++@+#+@+@+@+#@*@=@=@=@=@=@=@=@-@;@>+'+'+'+V@,@'@)@!+V@~+T+'+'@{@]+@+#+@+@+@++++++++++++++++++",
"+++++++++++++++++++++++++++++++++++++++++@+#+#+#+#@^@/+'+'+'+'+'+'+'+'+'+'+'+'+h@(@_@:@_@<@[@}+T+'+'+w+#+#+@+#+@++++++++++++++++++++",
"+++++++++++++++++++++++++++++++++++++++#+@+@+#+_@|+e+'+'+'+'+'+'+'+'+'+'+'+'@1@2@3@4@5+I+W@6+V+'+'+'@7+#+#+@+#++++++++++++++++++++++",
"+++++++++++++++++++++++++++++++++++++++@+#+@+#@8+'+'+'+'+'+'+'+'+'+'+'+'@9@,@0@a@b@3+G@_@c@d+'+'+'@e+%+@+@+#+#++++++++++++++++++++++",
"+++++++++++++++++++++++++++++++++++++@+@+#+#+@@f+'+'@g@h@h@i@j@k@l@m@:@n@i@o@p@q+G@(@r+X+s+'+'+'@s@@+@+@+@+#+#++++++++++++++++++++++",
"+++++++++++++++++++++++++++++++++++++@+#+@+@+#+k+'+'@,@:@(@t@u@v@w@w@x@:@m@w@m@}@0@y@'+R+'+'+'+'@z+#+#+#+#+@+@++++++++++++++++++++++",
"+++++++++++++++++++++++++++++++++++++@+@+@+#+#+k+'+'@0@~@,@A@B@t@C@}@r@D@y@r@E@F@G@A+R+'+'+'+'@H+%+@+@+@+@+@+#++++++++++++++++++++++",
"+++++++++++++++++++++++++++++++++++++@+#+#+#+#+k+'+'@(@I@l@J@J@K@n@'@t@L@G@[@A@M@E@j@j+R+T+'+'+'@N+@+@+@+#+#+#++++++++++++++++++++++",
"+++++++++++++++++++++++++++++++++++++@+@+#+#+@+k+'+'@o@O@l@G@_@P@Q@R@S@T@m@b@U@j@l@V@W@X@i@Y+'+'+'+4+5+#+@+#+#+#++++++++++++++++++++",
"+++++++++++++++++++++++++++++++++++++@+@+@+@+#@Z+'+'+U@w@9@h+I#+@'#@@A@r###$@0@T#%#&#*@Q@C#=@A+'+'+'+y+@+@+@+@+@++++++++++++++++++++",
"+++++++++++++++++++++++++++++++++++++++@+#+@+#@*+q+'+'+'+'+'+'+'+'+'+'+'+'+'#-@K#;@[#;#>@i@C#,@g+'+'#'#)+@+#+@+@+#++++++++++++++++++",
"+++++++++++++++++++++++++++++++++++++++#+@+@+@+@#)#!+a+'+'+'+'+'+'+'+'+'+'+'+'+s#~@L#{#%#]#^#/#(#_+'+'@s+~+@+@+@+@++++++++++++++++++",
"+++++++++++++++++++++++++++++++++++++++#+@+@+#+#+#+@#:#<#<#<#<#<#<#<#<#[+'+'+'+'+I#}#|#1#2#3#4#5@S+'+'+'+K+#+@+#+#++++++++++++++++++",
"+++++++++++++++++++++++++++++++++++++++++@+@+#+#+@+#+#+@+@+@+@+#+@+@+@#6#7#8+a+'+'+S#9#0#a#b#3#c#d+B+'+'@N+#+@+#+@+#++++++++++++++++",
"+++++++++++++++++++++++++++++++++++++++++++++@+@+#+@+#+@+@+#+#+#+#+@+@+#+@+@+:+'+'+'@b#e#f#g#h#i#j@K+'+'+/+@+@+#+#+@+@++++++++++++++",
"+++++++++++++++++++++++++++++++++++++++++++++++@+@+@+@+@+@+@+@+@+@+@+@+@+@+@+$#k+'+'+R#l#m#n#o#p#q#;+N+'#r+@+@+#+@+#+#++++++++++++++",
"+++++++++++++++++++++++++++++++++++++++++++++++++++++#+#+@+@+#+#+@+#+#+@+@+#+##s#t+'+G#u#v#w#x#y#v#z@r+'#'#A+#+#+#+#+@++++++++++++++",
"+++++++++++++++++++++++++++++++++++#+@+#+@+#+@+@+++++++++@+#+@+#+#+#+#+#+#+@+#+#+]+'+'#B#C#D#E#F#G#H@(+'+'#I+#+#+#+@+@++++++++++++++",
"+++++++++++++++++++++++++++++++++@+#+#+@+#+#+@+@+#+@+++++++++++@+@+@+@+@+#+@+@+@+]+'+'#J#K#L#M#N#O#P@r+'+'#I+#+@+@+#+@++++++++++++++",
"+++++++++++++++++++++++++++++#+@+@+@+#+#+#+#+@+#+#+@+@+#+@+#+@+@+@+#+@+#+@+#+@+@+]+'+B#Q#R#S#T#U#V#W@k+'+'#I+#+@+#+#+@++++++++++++++",
"+++++++++++++++++++++++++++@+@+#+@+#+@+@+@+@+@+@+@+@+@+#+#+#+#+#+#+@+@+@+#+#+@#X#Y+'@r#Z$+$@$#$$$%$&@5+'#!$*+@+@+@+@+@++++++++++++++",
"+++++++++++++++++++++++++++#+@+@+@$=+K+K$-+#+@+#+#+@+#+#+#+#+@+@+#+#+#+@+#+#$;$>+'+'@r$,$'$)$!$~${$]+'+'#r+@+#+@+#+#+@++++++++++++++",
"+++++++++++++++++++++++++@+@+@+r+t$^+'+'+*+t$/+@+@+#+@+#+#+@+#+@+#+#+@+@+@#X$(+'+'+'$_$:$<$[$}$|$1$2+'+'#r+@+#+#+@+@++++++++++++++++",
"+++++++++++++++++++++++#+@+#+#$3+'+'+'+'+'+'+k+w$4+d+d$;+#+#+#+@+#+#+#+d+x+3+'+'+'$5$6$7$8$9$0$a$b@_+'+'+c+@+#+#+#+@++++++++++++++++",
"+++++++++++++++++++++++@+@+@+#+w+'$c$d$e+'+'+'+'+'+'+'#8+6+6+6+6+6+6$(+'+'+'+'+'$f$g$h$i$j$k$l$m$n+'+'+'+K+@+#+#+#+@++++++++++++++++",
"+++++++++++++++++++++#+@+@+#+>+^+'$o$p$q$r$s+'+'+'+'+'+'+'+'+'+'+'+'+'+'+'+'+N$t$u$v$w$x$y$z$A$B$C+'+'#!$=+@+@+#+@+@++++++++++++++++",
"+++++++++++++++++++++@+#+@+@+t+'+'$D$E$F$G$H$I$J$K+'+'+'+'+'+'+'+'+'+'+'$L$M$N$O$P$Q$R$S$T$U$V$W$c+'+'+t+#+@+#+#+#++++++++++++++++++",
"+++++++++++++++++++@+#+#+@+@+t+'+'$X$Y$Z%+%@%#%$%%%&%*%=%-%;%>%,%'%)%!%~%{%]%^%/%(%_%:%<%[%}%|%1+'+'%2+_+#+@+@+@+#++++++++++++++++++",
"+++++++++++++++++++@+#+@+@+@+t+'+'%3%4%5%6%7%8%9%0%a%b%c%d%e%f%g%h%i%j%k%l%m%n%o%p%q%r%s%t%u%v+'+'+'+d+@+@+#+@+@+@++++++++++++++++++",
"+++++++++++++++++++#+#+@+@+#%w%x+'%y%z%A%B%C%D%E%F%G%H%I%J%K%L%M%N%O%P%Q%R%S%T%U%V%W%X%Y%Z&++'+'&@+(+9+#+@+@+@+@+@++++++++++++++++++",
"+++++++++++++++++++@+#+@+#+#+#+w+'%y&#&$&%&&&*&=&-&;&>&,&'&)&!&~&{&]&^&/&(&_&:&<&[&}&|&1+'+'+'+'&2+@+@+#+@+#+#+@++++++++++++++++++++",
"+++++++++++++++++++@+@+@+@+#+#+w+'&3&4&5&6&7&8&9&0&a&b&c&d&e&f&g&h&i&j&k&l&m&n&o&p&q&r+'+'+'&@&s+9+#+#+#+@+#+#++++++++++++++++++++++",
"+++++++++++++++++++++#+#+#+@+@$4+'+'+'+'+'+'&t&u&v&w&x&y&z&A&B&C&D&E&F&G&H&I&J&K+'+'+'+'+'+7+Q+@+@+#+@+@+@+#+@++++++++++++++++++++++",
"+++++++++++++++++++++@+@+@+#+#+$&L&M+'+'+'+'+'+'+'&N&O&P&Q&R&Q&S&T&U&V&U&W+'+'+'+'+'+'#'+}&X+#+#+#+@+#+#+#+#++++++++++++++++++++++++",
"+++++++++++++++++++++++@+@+#+#+#+@+J+>&Y+'+'+'+'+'+'+'+'+'+'+'+'+'+'+'+'+'+'+'+'+'+u+>+}+@+@+#+#+#+@+@+#+@++++++++++++++++++++++++++",
"+++++++++++++++++++++++#+@+#+@+@+@+@+#+$+%+%&Z+*+**++'+'+'+'+'+'+'+'+'+'+2+*+*+:+%*@+@+#+#+@+#+@+@+@+@+@+@++++++++++++++++++++++++++",
"+++++++++++++++++++++++++++@+#+#+#+#+@+@+#+@+#+#+#+;+|+|+|+|+|+|+|+|+|+|*#+@+@+@+@+#+#+#+#+#+@+#+#+#+@++++++++++++++++++++++++++++++",
"+++++++++++++++++++++++++++@+#+@+@+@+@+@+#+#+@+#+@+@+#+@+#+@+@+#+@+@+@+@+#+#+@+#+@+#+@+@+@+#+@+@+@+@+@++++++++++++++++++++++++++++++",
"+++++++++++++++++++++++++++++++#+#+#+#+#+@+@+#+@+#+@+@+#+@+#+#+@+#+@+#+#+#+#+@+@+@+#+@+#+@+@+#++++++++++++++++++++++++++++++++++++++",
"+++++++++++++++++++++++++++++++@+@+@+@+@+@+@+#+#+@+@+@+@+#+@+@+@+@+#+@+#+@+#+#+@+#+@+@+@+@++++++++++++++++++++++++++++++++++++++++++",
"+++++++++++++++++++++++++++++++++++++++++++#+@+@+#+#+@+@+#+@+#+#+#+#+@+#+#+#+@+#+@+#+@++++++++++++++++++++++++++++++++++++++++++++++"};
