/* XPM */
static char * ball_red_xpm[] = {
"66 66 289 2",
"$_ c #FCFCFC",
"$( c #939393",
"$/ c #EEEEEE",
"$^ c #3B3B3B",
"$] c #2D2D2D",
"${ c #DBDBDB",
"$~ c #303030",
"$! c #777777",
"$) c #999999",
"$' c #141101",
"$, c #1E1A02",
"$> c #1A0E00",
"$; c #1E1700",
"$- c #1E1500",
"$= c #1E1600",
"$* c #070600",
"$& c #EDEDED",
"$% c #AD8606",
"$$ c #FFCB13",
"$# c #EC9E0E",
"$@ c #FDB813",
"$+ c #FFC015",
"#Z c #FFAD03",
"#Y c #422B00",
"#X c #7C7C7C",
"#W c #0C0802",
"#V c #B87E17",
"#U c #FFAA1D",
"#T c #FEBD30",
"#S c #FE9C19",
"#R c #FE950B",
"#Q c #F08B10",
"#P c #391700",
"#O c #848484",
"#N c #DADADA",
"#M c #2F2F2F",
"#L c #563B12",
"#K c #FE9421",
"#J c #FE9920",
"#I c #FF9E28",
"#H c #FE9420",
"#G c #FF820E",
"#F c #985610",
"#E c #D63B03",
"#D c #F44803",
"#C c #FE7B17",
"#B c #FE8B24",
"#A c #FD6D12",
"#z c #FC861B",
"#y c #803500",
"#x c #343434",
"#w c #5E5E5E",
"#v c #FB5C0B",
"#u c #FE630B",
"#t c #FB6C1C",
"#s c #F84708",
"#r c #FE7515",
"#q c #EF7218",
"#p c #C1C1C1",
"#o c #8D3B0B",
"#n c #F44006",
"#m c #FF5907",
"#l c #FD681F",
"#k c #F42D00",
"#j c #FE5E0E",
"#i c #C83005",
"#h c #131313",
"#g c #ACACAC",
"#f c #2A0600",
"#e c #C71D00",
"#d c #FC490E",
"#c c #FC5716",
"#b c #FE3E02",
"#a c #F92B01",
"#0 c #F44A10",
"#9 c #3F0700",
"#8 c #F0F0F0",
"#7 c #4F0C01",
"#6 c #F92501",
"#5 c #F42002",
"#4 c #FE3A0A",
"#3 c #F72601",
"#2 c #E61300",
"#1 c #A61F02",
"#| c #888888",
"#} c #8F1303",
"#[ c #FA1F03",
"#< c #F51B04",
"#: c #FE4715",
"#_ c #F53D14",
"#( c #D50900",
"#/ c #990F00",
"#^ c #929292",
"#] c #D20100",
"#{ c #F30D00",
"#~ c #F12310",
"#! c #D40701",
"#) c #D61005",
"#' c #D50A01",
"#, c #120200",
"#> c #A8A8A8",
"#; c #430000",
"#- c #D90B07",
"#= c #CF0000",
"#* c #F00400",
"#& c #EF0000",
"#% c #DC0200",
"#$ c #EC0600",
"## c #880000",
"#@ c #E40605",
"#+ c #E51212",
"@Z c #B50000",
"@Y c #CC0000",
"@X c #CD0000",
"@W c #666666",
"@V c #C50000",
"@U c #CA0000",
"@T c #CE0000",
"@S c #BE0000",
"@R c #920000",
"@Q c #BEBEBE",
"@P c #C2C2C2",
"@O c #4C0000",
"@N c #9E0000",
"@M c #BC0000",
"@L c #970000",
"@K c #B60000",
"@J c #0F0F0F",
"@I c #BCBCBC",
"@H c #810000",
"@G c #8A0000",
"@F c #800000",
"@E c #950000",
"@D c #930000",
"@C c #747474",
"@B c #2C0000",
"@A c #7E0606",
"@z c #5B0000",
"@y c #780000",
"@x c #7F0000",
"@w c #5F0000",
"@v c #B7B7B7",
"@u c #A3A3A3",
"@t c #680909",
"@s c #480000",
"@r c #7A0000",
"@q c #7D0000",
"@p c #640000",
"@o c #3C3C3C",
"@n c #E3E3E3",
"@m c #6B6B6B",
"@l c #330000",
"@k c #5A0000",
"@j c #360000",
"@i c #5D0000",
"@h c #6C0000",
"@g c #1E0000",
"@f c #909090",
"@e c #D7D7D7",
"@d c #262626",
"@c c #190000",
"@b c #3D0000",
"@a c #310000",
"@0 c #500000",
"@9 c #6D1111",
"@8 c #0A0A0A",
"@7 c #8B8B8B",
"@6 c #3E0000",
"@5 c #3C0000",
"@4 c #300000",
"@3 c #4B0000",
"@2 c #404040",
"@1 c #191919",
"@| c #340000",
"@} c #200000",
"@[ c #510000",
"@< c #450000",
"@: c #680000",
"@_ c #B2B2B2",
"@( c #101010",
"@/ c #3B0F0F",
"@^ c #350101",
"@] c #600202",
"@{ c #410202",
"@~ c #580303",
"@! c #310101",
"@) c #1C0101",
"@' c #5B5B5B",
"@, c #707070",
"@> c #2E0000",
"@; c #490202",
"@- c #2A0000",
"@= c #470000",
"@* c #430404",
"@& c #270404",
"@% c #5F5F5F",
"@$ c #474747",
"@# c #400000",
"@@ c #250000",
"@+ c #150000",
"+Z c #440505",
"+Y c #050505",
"+X c #C0C0C0",
"+W c #280000",
"+V c #220000",
"+U c #350000",
"+T c #0B0B0B",
"+S c #240000",
"+R c #230000",
"+Q c #1B0000",
"+P c #1C0000",
"+O c #390000",
"+N c #ADADAD",
"+M c #F6F6F6",
"+L c #1C1C1C",
"+K c #180000",
"+J c #0B0000",
"+I c #170000",
"+H c #3E3E3E",
"+G c #E8E8E8",
"+F c #757575",
"+E c #0D0000",
"+D c #0F0000",
"+C c #565656",
"+B c #D9D9D9",
"+A c #1E1E1E",
"+z c #140000",
"+y c #120000",
"+x c #0E0000",
"+w c #D3D3D3",
"+v c #CCCCCC",
"+u c #100000",
"+t c #0C0000",
"+s c #080000",
"+r c #4C4C4C",
"+q c #110000",
"+p c #1C0707",
"+o c #090000",
"+n c #0A0000",
"+m c #070000",
"+l c #232323",
"+k c #CECECE",
"+j c #979797",
"+i c #070707",
"+h c #160E0E",
"+g c #231616",
"+f c #515151",
"+e c #E9E9E9",
"+d c #424242",
"+c c #060000",
"+b c #050000",
"+a c #040000",
"+0 c #2C2C2C",
"+9 c #898989",
"+8 c #E7E7E7",
"+7 c #D1D1D1",
"+6 c #020000",
"+5 c #838383",
"+4 c #F8F8F8",
"+3 c #060202",
"+2 c #808080",
"+1 c #282828",
"+| c #030000",
"+} c #222222",
"+[ c #BFBFBF",
"+< c #141414",
"+: c #040303",
"+_ c #030202",
"+( c #090909",
"+/ c #010000",
"+^ c #0E0E0E",
"+] c #080808",
"+{ c #020202",
"+~ c #7F7F7F",
"+! c #010101",
"+) c #030303",
"+' c #040404",
"+, c #161616",
"+> c #C4C4C4",
"+; c #4D4D4D",
"+- c #000000",
"+= c #444444",
"+* c #EAEAEA",
"+& c #3D3D3D",
"+% c #C3C3C3",
"+$ c #F1F1F1",
"+# c #FEFEFE",
"+@ c #FFFFFF",
"++ c None",
"++++++++++++++++++++++++++++++++++++++++++++++++++++++++++++++++++++++++++++++++++++++++++++++++++++++++++++++++++++++++++++++++++++",
"++++++++++++++++++++++++++++++++++++++++++++++++++++++++++++++++++++++++++++++++++++++++++++++++++++++++++++++++++++++++++++++++++++",
"++++++++++++++++++++++++++++++++++++++++++++++++++++++++++++++++++++++++++++++++++++++++++++++++++++++++++++++++++++++++++++++++++++",
"+++++++++++++++++++++++++++++++++++++++++++++++++@+#+@+@+@+@+@+@+@+@+#+@+@+@+@+@+@++++++++++++++++++++++++++++++++++++++++++++++++++",
"+++++++++++++++++++++++++++++++++++++++++++#+#+@+@+@+#+@+@+@+@+#+#+@+@+@+#+#+@+#+@+@+@+#++++++++++++++++++++++++++++++++++++++++++++",
"+++++++++++++++++++++++++++++++++@+#+@+@+@+@+#+#+@+#+#+@+@+@+@+#+@+@+@+@+@+@+@+#+@+#+#+#+@+@+@+@+@+@+@++++++++++++++++++++++++++++++",
"+++++++++++++++++++++++++++++++@+#+@+@+#+@+@+#+#+#+@+#+@+@+#+#+#+#+@+@+#+@+@+@+#+#+@+#+@+@+@+#+#+@+#+@++++++++++++++++++++++++++++++",
"+++++++++++++++++++++++++++++@+@+#+@+#+@+@+@+#+@+#+@+#+@+@+@+@+@+@+@+@+@+@+@+@+#+@+#+#+#+#+@+@+#+#+#+#+@++++++++++++++++++++++++++++",
"+++++++++++++++++++++++++++@+@+@+@+@+@+#+@+#+#+#+#+#+#+@+#+@+#+#+@+#+#+@+@+#+#+@+@+#+@+#+@+@+@+#+@+@+@+@+@++++++++++++++++++++++++++",
"+++++++++++++++++++++++++++@+@+#+#+#+$+%+&+&+&+&+&+&+&+&+&+&+&+&+&+&+&+&+&+&+&+&+&+&+&+&+&+&+%+$+#+#+#+@+@++++++++++++++++++++++++++",
"+++++++++++++++++++++++++++@+#+#+#+*+=+-+-+-+-+-+-+-+-+-+-+-+-+-+-+-+-+-+-+-+-+-+-+-+-+-+-+-+-+=+*+#+#+#+@++++++++++++++++++++++++++",
"+++++++++++++++++++++++++@+@+#+#+#+;+-+-+-+-+-+-+-+-+-+-+-+-+-+-+-+-+-+-+-+-+-+-+-+-+-+-+-+-+-+-+;+#+@+#+#++++++++++++++++++++++++++",
"+++++++++++++++++++++++++@+#+#+#+>+,+-+-+-+-+-+-+-+-+-+-+-+-+-+'+'+-+-+-+-+-+-+'+)+-+-+-+-+)+!+-+,+>+#+@+#++++++++++++++++++++++++++",
"+++++++++++++++++++++++++@+@+@+@+~+-+-+-+-+-+-+{+)+-+-+-+-+-+-+!+{+-+-+-+-+-+-+{+!+)+{+-+!+]+-+-+-+~+@+@+#++++++++++++++++++++++++++",
"+++++++++++++++++++++++++#+@+@+#+~+-+-+-+-+-+-+]+^+-+-+-+-+-+-+-+-+-+-+-+-+-+-+-+-+-+-+-+-+-+-+-+-+~+#+@+@++++++++++++++++++++++++++",
"+++++++++++++++++++++++++#+#+#+#+~+-+-+-+-+-+-+-+-+-+-+/+-+-+-+-+-+-+-+-+-+-+-+-+-+-+-+(+'+-+-+-+-+~+@+#+#++++++++++++++++++++++++++",
"+++++++++++++++++++++++++@+@+#+@+~+-+-+-+-+-+-+-+-+-+-+_+-+-+-+:+:+-+-+-+-+-+-+-+-+-+_+-+-+-+-+-+<+[+@+#+@++++++++++++++++++++++++++",
"+++++++++++++++++++++++++++@+@+@+*+}+-+-+-+-+-+-+-+-+-+-+-+-+-+!+!+-+-+-+-+-+-+-+-+-+|+-+-+-+-+-+1+@+@+@+@++++++++++++++++++++++++++",
"+++++++++++++++++++++++++++@+@+@+#+2+-+-+-+-+-+-+-+-+-+-+-+-+-+-+-+-+-+-+-+-+-+-+-+-+3+-+-+-+-+-+2+#+@+@+@++++++++++++++++++++++++++",
"+++++++++++++++++++++++++++@+@+#+#+4+5+1+-+-+-+-+-+-+-+-+-+-+-+-+-+-+-+-+-+-+-+6+-+-+-+-+-+-+-+-+7+#+#+#+#++++++++++++++++++++++++++",
"+++++++++++++++++++++++++++++@+#+@+@+@+8+9+9+9+9+9+9+9+9+9+9+9+9+9+9+0+-+-+-+-+a+-+b+a+c+|+-+-+d+e+@+@+@+@++++++++++++++++++++++++++",
"+++++++++++++++++++++++++++++#+#+#+@+#+@+@+@+#+#+#+@+@+@+#+#+#+#+#+@+f+-+-+-+6+g+h+/+-+/+-+-+i+j+#+#+@+#+#++++++++++++++++++++++++++",
"+++++++++++++++++++++++++++++++@+@+@+#+@+#+#+#+@+#+@+#+#+#+#+#+#+#+k+l+-+-+m+n+o+a+-+b+-+-+-+l+#+#+@+@+#+@++++++++++++++++++++++++++",
"+++++++++++++++++++++++++++++++@+@+#+#+@+#+#+@+@+#+@+@+@+#+@+@+#+#+~+-+-+-+6+a+p+-+n+q+-+-+-+r+#+#+#+#+#+#++++++++++++++++++++++++++",
"+++++++++++++++++++++++++++++++++++@+@+@+#+#+@+#+#+#+#+#+#+@+#+@+@+-+-+-+-+n+/+s+s+t+u+-+-+-+v+@+@+#+@+@+@++++++++++++++++++++++++++",
"+++++++++++++++++++++++++++++++++++++++@+@+@+@+@+@+#+@+@+#+#+@+@+w+-+-+-+o+x+y+c+z+y+s+-+-+A+B+#+#+@+#+#+@++++++++++++++++++++++++++",
"+++++++++++++++++++++++++++++++++++++++++++++@+@+@+@+@+#+#+#+@+@+C+-+-+-+D+s+m+-+D+E+6+-+-+F+#+#+#+@+@+@++++++++++++++++++++++++++++",
"+++++++++++++++++++++++++++++++++++++++++++++++++++++++@+@+@+#+G+H+-+-+I+J+t+u+K+m+z+-+-+L+M+#+@+@+@+@++++++++++++++++++++++++++++++",
"+++++++++++++++++++++++++++++++++++++++++++++++++++++++@+@+#+@+N+-+-+/+O+P+Q+R+S+b+o+-+-+A+#+@+#+#+#+@++++++++++++++++++++++++++++++",
"+++++++++++++++++++++++++++++++++++++++++++++++++++++++@+#+@+@+T+-+-+/+U+V+a+W+I+q+-+-+-+X+#+#+@+@+@++++++++++++++++++++++++++++++++",
"+++++++++++++++++++++++++++++++++++++++++++++++++++++@+#+@+#+#+Y+-+-+m+W+Z@+@@@#+y+-+-@$+*+@+#+#+#++++++++++++++++++++++++++++++++++",
"+++++++++++++++++++++++++++++++++++++++++++++++++++@+@+@+#+@@%+-+-@&@*@=@-@;+V@>+o+-+-@,+@+#+@+@+#++++++++++++++++++++++++++++++++++",
"+++++++++++++++++++++++++++++++++++++++++++++++++@+#+@+@+#+@@'+-+-@)@!@~@{@]@^@/+-+-@(+k+#+#+#+@+@++++++++++++++++++++++++++++++++++",
"+++++++++++++++++++++++++++++++++++++++++++++++@+@+#+@+#+@@_+-+-+-@:@<@[+O@}@|+V+-+-@1+@+#+@+#+@+@++++++++++++++++++++++++++++++++++",
"+++++++++++++++++++++++++++++++++++++++++++++++@+#+#+#+@+@@2+-+-+D@3@4@5@6@=@|+-+-+-@7+#+@+#+@+#+#++++++++++++++++++++++++++++++++++",
"+++++++++++++++++++++++++++++++++++++++++++++++#+#+@+#+@+#@8+-+-+W@9@0@a@b@:@c+-+-@d@e+#+@+@+@+#+@++++++++++++++++++++++++++++++++++",
"+++++++++++++++++++++++++++++++++++++++++++++@+#+#+#+#+@@f+)+-@g@h@|@i@j@k@l+z+-+-@m+#+@+@+@+@+#+@++++++++++++++++++++++++++++++++++",
"+++++++++++++++++++++++++++++++++++++++++++++@+#+#+@+#@n@o+-+-+V@p@q@r@s@t@j+-+-+i@u+@+@+#+#+@+@++++++++++++++++++++++++++++++++++++",
"+++++++++++++++++++++++++++++++++++++++++++++@+#+@+#+#@v+-+-+-@w@x@y@p@z@A@B+-+-+A+#+#+#+@+@+#++++++++++++++++++++++++++++++++++++++",
"+++++++++++++++++++++++++++++++++++++++++++++@+#+#+@+#@C+-+-@B@D@E@F@G@H@y+-+-+-@I+@+#+@+@+@+#++++++++++++++++++++++++++++++++++++++",
"+++++++++++++++++++++++++++++++++++++++++++@+@+@+#+@+#@J+-+-@x@K@L@M@N@E@O+-+-+]@P+#+#+#+#+@+@++++++++++++++++++++++++++++++++++++++",
"+++++++++++++++++++++++++++++++++++++++++++#+#+#+#+#@Q+]+-@c@R@S@T@U@R@V@5+-+-@W+@+#+@+#+@+@+@++++++++++++++++++++++++++++++++++++++",
"+++++++++++++++++++++++++++++++++++++++++++#+#+#+@+4@'+-+-@[@X@Y@Z#+#@##+E+-+!+F+#+@+#+#+#+@+@++++++++++++++++++++++++++++++++++++++",
"+++++++++++++++++++++++++++++++++++++++++@+#+@+@+#@I+-+-+-#$#%#&#*#=#-#;+-+-@J+@+#+#+#+@+#+@++++++++++++++++++++++++++++++++++++++++",
"+++++++++++++++++++++++++++++++++++++++@+@+#+@+#+##>+-+-#,#'#)#!#~#{#]+-+-+-#^+@+@+#+#+@+@++++++++++++++++++++++++++++++++++++++++++",
"+++++++++++++++++++++++++++++++++++++++@+@+@+@+@+@+<+-+-#/#(#_#:#<#[#}+-+-+-@v+@+#+@+#+#+#++++++++++++++++++++++++++++++++++++++++++",
"+++++++++++++++++++++++++++++++++++++++@+@+#+@+##|+'+-+m#1#2#3#4#5#6#7+-+-+;#8+@+#+@+@+@+@++++++++++++++++++++++++++++++++++++++++++",
"+++++++++++++++++++++++++++++++++++++++@+@+#+#+@@m+-+-#9#0#a#b#c#d#e#f+-+'#g+#+#+@+#+@+@++++++++++++++++++++++++++++++++++++++++++++",
"+++++++++++++++++++++++++++++++++++++++@+@+#+#+v#h+-+-#i#j#k#l#m#n#o+-+-@8+#+#+@+#+@+#++++++++++++++++++++++++++++++++++++++++++++++",
"+++++++++++++++++++++++++++++++++++++++#+@+#+##p+-+-+-#q#r#s#t#u#v+-+-+-#w+#+@+#+@+#+@++++++++++++++++++++++++++++++++++++++++++++++",
"+++++++++++++++++++++++++++++++++++++@+@+@+@+##x+-+-#y#z#A#B#C#D#E+-+-+-@_+#+#+@+@+#+@++++++++++++++++++++++++++++++++++++++++++++++",
"+++++++++++++++++++++++++++++++++++++@+#+@+#+#@1+-+-#F#G#H#I#J#K#L+-+-#M#N+@+#+@+@+@++++++++++++++++++++++++++++++++++++++++++++++++",
"+++++++++++++++++++++++++++++++++++++@+#+@+@#O+)+-#P#Q#R#S#T#U#V#W+-+!#X+#+#+#+#+#++++++++++++++++++++++++++++++++++++++++++++++++++",
"+++++++++++++++++++++++++++++++++++++@+@+#+@@,+-+-#Y#Z$+$@$#$$$%+-+-+Y+#+@+#+#+@+@++++++++++++++++++++++++++++++++++++++++++++++++++",
"+++++++++++++++++++++++++++++++++++++@+@+@+@$&+,+-$*$=$-$;$>$,$'+-+-$)+#+#+@+@+@+@++++++++++++++++++++++++++++++++++++++++++++++++++",
"+++++++++++++++++++++++++++++++++++++#+@+#+#+#$!+-+-+-+-+-+-+-+-+-$~${+#+@+#+@+@++++++++++++++++++++++++++++++++++++++++++++++++++++",
"+++++++++++++++++++++++++++++++++++++@+#+#+#+@+4+5$]+-+-+-+-+-$^+&$/+@+@+@+#+@++++++++++++++++++++++++++++++++++++++++++++++++++++++",
"+++++++++++++++++++++++++++++++++++++++#+#+#+@+#+#@n$($($($($($_+@+@+#+#+#+@+@++++++++++++++++++++++++++++++++++++++++++++++++++++++",
"+++++++++++++++++++++++++++++++++++++++@+@+@+@+@+@+#+@+@+#+#+@+@+#+#+#+@+@+#++++++++++++++++++++++++++++++++++++++++++++++++++++++++",
"+++++++++++++++++++++++++++++++++++++++++@+#+#+#+#+@+#+@+#+#+@+@+@+#+@+@+@++++++++++++++++++++++++++++++++++++++++++++++++++++++++++",
"+++++++++++++++++++++++++++++++++++++++++++@+@+#+@+@+#+#+@+@+#+#+@+#+@++++++++++++++++++++++++++++++++++++++++++++++++++++++++++++++",
"+++++++++++++++++++++++++++++++++++++++++++++++++++#+@+@+@+#+@+@++++++++++++++++++++++++++++++++++++++++++++++++++++++++++++++++++++",
"+++++++++++++++++++++++++++++++++++++++++++++++++++++@+@+@+@+#++++++++++++++++++++++++++++++++++++++++++++++++++++++++++++++++++++++",
"++++++++++++++++++++++++++++++++++++++++++++++++++++++++++++++++++++++++++++++++++++++++++++++++++++++++++++++++++++++++++++++++++++",
"++++++++++++++++++++++++++++++++++++++++++++++++++++++++++++++++++++++++++++++++++++++++++++++++++++++++++++++++++++++++++++++++++++",
"++++++++++++++++++++++++++++++++++++++++++++++++++++++++++++++++++++++++++++++++++++++++++++++++++++++++++++++++++++++++++++++++++++"};
