/* XPM */
static char * ball_red_xpm[] = {
"66 66 339 2",
"$I c #8A8A8A",
"$H c #C0C0C0",
"$G c #F1F1F1",
"$F c #C4C4C4",
"$E c #414141",
"$D c #C7C7C7",
"$C c #1A1A1A",
"$B c #484848",
"$A c #3F2B00",
"$z c #754900",
"$y c #754F05",
"$x c #754902",
"$w c #754800",
"$v c #754700",
"$u c #754001",
"$t c #755002",
"$s c #755709",
"$r c #756C1E",
"$q c #756214",
"$p c #755E11",
"$o c #754400",
"$n c #743D00",
"$m c #755407",
"$l c #75590C",
"$k c #743900",
"$j c #753D01",
"$i c #756011",
"$h c #754F06",
"$g c #756114",
"$f c #755103",
"$e c #754C02",
"$d c #190F00",
"$c c #894704",
"$b c #FE9007",
"$a c #FF8909",
"$0 c #FEA018",
"$9 c #FD940E",
"$8 c #FEA91F",
"$7 c #FE8606",
"$6 c #FEA21E",
"$5 c #FE8B04",
"$4 c #FE7D09",
"$3 c #FF8C0F",
"$2 c #FE9711",
"$1 c #FF810A",
"$| c #F86903",
"$} c #FE7500",
"$[ c #FF970C",
"$< c #FEB92F",
"$: c #FE8B07",
"$_ c #FE7E00",
"$( c #FE9A15",
"$/ c #FA9A17",
"$^ c #FFA51E",
"$] c #FE9008",
"${ c #FB7701",
"$~ c #381D00",
"$! c #894F0E",
"$) c #FE8213",
"$' c #FC710F",
"$, c #FC740D",
"$> c #FA6902",
"$; c #FE7E0D",
"$- c #FF7809",
"$= c #FE7C08",
"$* c #FE710A",
"$& c #FEA22B",
"$% c #FE921C",
"$$ c #FD6C0C",
"$# c #FA7810",
"$@ c #FB7A0F",
"$+ c #FC6100",
"#Z c #FE8A11",
"#Y c #FD6809",
"#X c #FE9822",
"#W c #FF7A04",
"#V c #FE6F02",
"#U c #EE6510",
"#T c #FF8B15",
"#S c #FE8D16",
"#R c #FE951E",
"#Q c #382108",
"#P c #862E04",
"#O c #FE6104",
"#N c #F94A01",
"#M c #FD7008",
"#L c #FF7E10",
"#K c #FF6805",
"#J c #FF8A21",
"#I c #FE7C0E",
"#H c #FE6701",
"#G c #FF9229",
"#F c #FC8821",
"#E c #FE6802",
"#D c #F74D02",
"#C c #FD8D23",
"#B c #ED4B09",
"#A c #FE730A",
"#z c #FE6D08",
"#y c #FD750F",
"#x c #FD740E",
"#w c #FF7410",
"#v c #FE7B13",
"#u c #FF7C13",
"#t c #FE851C",
"#s c #FC720F",
"#r c #381E05",
"#q c #894812",
"#p c #FC5A0C",
"#o c #F64905",
"#n c #FE5B02",
"#m c #FE6F0E",
"#l c #FD5101",
"#k c #FE5900",
"#j c #FF690A",
"#i c #FE5306",
"#h c #FF600C",
"#g c #F55A0E",
"#f c #FE640D",
"#e c #FA5005",
"#d c #FD650B",
"#c c #EA3500",
"#b c #FE7819",
"#a c #FF7213",
"#0 c #F94F00",
"#9 c #F83B00",
"#8 c #FE6307",
"#7 c #FF670D",
"#6 c #FE7917",
"#5 c #FD7E1F",
"#4 c #F65507",
"#3 c #381500",
"#2 c #160A01",
"#1 c #271003",
"#| c #260600",
"#} c #280A00",
"#[ c #280E00",
"#< c #280E02",
"#: c #69300C",
"#_ c #FE540E",
"#( c #FF4C05",
"#/ c #FE6C1E",
"#^ c #F43B06",
"#] c #FA590C",
"#{ c #280E01",
"#~ c #280D00",
"#! c #280C00",
"#) c #270800",
"#' c #280D01",
"#, c #281202",
"#> c #281001",
"#; c #080300",
"#- c #1D1D1D",
"#= c #E9E9E9",
"#* c #E8E8E8",
"#& c #3F3F3F",
"#% c #4C1B04",
"#$ c #FF4505",
"## c #E33905",
"#@ c #F23702",
"#+ c #FA3E09",
"@Z c #F53603",
"@Y c #7B7B7B",
"@X c #4A4A4A",
"@W c #171717",
"@V c #390400",
"@U c #E41D00",
"@T c #F7400E",
"@S c #F62503",
"@R c #E51F06",
"@Q c #F84006",
"@P c #272727",
"@O c #808080",
"@N c #BFBFBF",
"@M c #373737",
"@L c #4A0800",
"@K c #F51300",
"@J c #FC1E01",
"@I c #FF390C",
"@H c #E10D04",
"@G c #F02303",
"@F c #636363",
"@E c #898989",
"@D c #430100",
"@C c #F40E00",
"@B c #F81B05",
"@A c #FD1F06",
"@z c #EE0D03",
"@y c #F00E03",
"@x c #490000",
"@w c #D70300",
"@v c #E3100C",
"@u c #FB120D",
"@t c #D90400",
"@s c #D10500",
"@r c #D80101",
"@q c #EE0201",
"@p c #DC0000",
"@o c #B10000",
"@n c #D20000",
"@m c #BE0000",
"@l c #C00000",
"@k c #7C0000",
"@j c #AB0000",
"@i c #A40000",
"@h c #A50000",
"@g c #8C0000",
"@f c #2A0000",
"@e c #840000",
"@d c #B60000",
"@c c #AD0000",
"@b c #950000",
"@a c #AC0505",
"@0 c #270000",
"@9 c #8B0101",
"@8 c #840101",
"@7 c #980000",
"@6 c #8F0000",
"@5 c #200000",
"@4 c #700000",
"@3 c #5C0101",
"@2 c #650101",
"@1 c #610000",
"@| c #770000",
"@} c #3F0000",
"@[ c #510000",
"@< c #460000",
"@: c #5E0000",
"@_ c #6D0A0A",
"@( c #4F0000",
"@/ c #1C0000",
"@^ c #660000",
"@] c #260000",
"@{ c #170000",
"@~ c #350000",
"@! c #700B0B",
"@) c #410A0A",
"@' c #3A0909",
"@, c #3A0808",
"@> c #280000",
"@; c #3E0000",
"@- c #4D0000",
"@= c #1E0000",
"@* c #470000",
"@& c #340000",
"@% c #430000",
"@$ c #450000",
"@# c #450101",
"@@ c #1A0000",
"@+ c #130000",
"+Z c #4E0000",
"+Y c #0D0000",
"+X c #5C2525",
"+W c #370101",
"+V c #2C0000",
"+U c #310000",
"+T c #490505",
"+S c #160000",
"+R c #1B0000",
"+Q c #2B0000",
"+P c #0E0000",
"+O c #370000",
"+N c #240000",
"+M c #2D0000",
"+L c #150000",
"+K c #2F0000",
"+J c #190000",
"+I c #140000",
"+H c #220000",
"+G c #120000",
"+F c #090000",
"+E c #110000",
"+D c #060000",
"+C c #290101",
"+B c #2B0505",
"+A c #070000",
"+z c #2B0D0D",
"+y c #170303",
"+x c #331010",
"+w c #210101",
"+v c #2B0A0A",
"+u c #0B0000",
"+t c #160505",
"+s c #0F0000",
"+r c #B7B7B7",
"+q c #CFCFCF",
"+p c #0A0000",
"+o c #282828",
"+n c #202020",
"+m c #191919",
"+l c #4F4F4F",
"+k c #EFEFEF",
"+j c #070202",
"+i c #0A0303",
"+h c #080000",
"+g c #7A7A7A",
"+f c #100505",
"+e c #170B0B",
"+d c #050000",
"+c c #080303",
"+b c #030000",
"+a c #040000",
"+0 c #020000",
"+9 c #656565",
"+8 c #0A0808",
"+7 c #010000",
"+6 c #070707",
"+5 c #030303",
"+4 c #D1D1D1",
"+3 c #696969",
"+2 c #F8F8F8",
"+1 c #666666",
"+| c #020202",
"+} c #131313",
"+[ c #C2C2C2",
"+< c #ECECEC",
"+: c #0D0D0D",
"+_ c #060606",
"+( c #383838",
"+/ c #C3C3C3",
"+^ c #6D6D6D",
"+] c #3B3B3B",
"+{ c #8E8E8E",
"+~ c #9C9C9C",
"+! c #F7F7F7",
"+) c #7D7D7D",
"+' c #2A2A2A",
"+, c #000000",
"+> c #010101",
"+; c #3D3D3D",
"+- c #B6B6B6",
"+= c #E5E5E5",
"+* c #F0F0F0",
"+& c #DEDEDE",
"+% c #939393",
"+$ c #969696",
"+# c #FEFEFE",
"+@ c #FFFFFF",
"++ c None",
"++++++++++++++++++++++++++++++++++++++++++++++++++++++++++++++++++++++++++++++++++++++++++++++++++++++++++++++++++++++++++++++++++++",
"++++++++++++++++++++++++++++++++++++++++++++++++++++++++++++++++++++++++++++++++++++++++++++++++++++++++++++++++++++++++++++++++++++",
"++++++++++++++++++++++++++++++++++++++++++++++++++++++++++++++++++++++++++++++++++++++++++++++++++++++++++++++++++++++++++++++++++++",
"+++++++++++++++++++++++++++++++++++++++++++++++++@+#+@+@+@+@+@+@+@+@+@+@+@++++++++++++++++++++++++++++++++++++++++++++++++++++++++++",
"+++++++++++++++++++++++++++++++++++++++++++++#+@+@+@+#+@+@+@+@+#+#+@+@+@+@++++++++++++++++++++++++++++++++++++++++++++++++++++++++++",
"+++++++++++++++++++++++++++++++++++++++@+@+#+#+#+@+#+#+@+@+@+@+#+@+@+@+@+@+@+@++++++++++++++++++++++++++++++++++++++++++++++++++++++",
"+++++++++++++++++++++++++++++++++++++@+@+@+@+#+#+#+@+#+@+@+#+#+#+#+@+@+#+@+@+@+@++++++++++++++++++++++++++++++++++++++++++++++++++++",
"+++++++++++++++++++++++++++++++++++#+#+@+@+@+#+@+#+@+#+@+@+@+@+@+@+@+@+@+@+@+@+@+@+@++++++++++++++++++++++++++++++++++++++++++++++++",
"+++++++++++++++++++++++++++++++++@+@+@+#+@+#+#+#+#+#+#+@+#+@+#+$+%+%+%+%+&+#+#+@+@+@+@++++++++++++++++++++++++++++++++++++++++++++++",
"+++++++++++++++++++++++++++++++@+@+#+@+#+#+#+#+#+*+=+=+-+;+;+;+>+,+,+,+,+'+)+!+#+#+@+#+@++++++++++++++++++++++++++++++++++++++++++++",
"+++++++++++++++++++++++++++++@+#+#+#+#+@+#+~+{+{+]+,+,+,+,+,+,+,+,+,+,+,+,+,+^+@+#+#+#+@+@++++++++++++++++++++++++++++++++++++++++++",
"+++++++++++++++++++++++++++@+@+#+#+@+#+/+(+_+,+,+,+,+,+,+,+,+,+,+,+,+,+,+,+,+:+<+@+#+#+@+#++++++++++++++++++++++++++++++++++++++++++",
"+++++++++++++++++++++++++++@+#+#+@+#+[+}+,+,+,+,+,+,+,+,+,+,+,+|+|+,+,+,+,+,+,+1+#+@+#+#+#++++++++++++++++++++++++++++++++++++++++++",
"+++++++++++++++++++++++++++#+@+@+@+2+3+,+,+,+,+,+,+,+,+,+,+,+,+>+,+>+,+|+,+,+,+1+#+@+@+#+#++++++++++++++++++++++++++++++++++++++++++",
"+++++++++++++++++++++++++++#+@+#+#+4+,+,+,+,+>+,+,+,+,+>+,+|+5+5+,+_+,+6+,+,+,+1+@+#+@+#+@++++++++++++++++++++++++++++++++++++++++++",
"+++++++++++++++++++++++++++#+#+#+@+4+,+,+,+,+,+,+,+,+,+,+,+,+,+,+,+,+,+,+,+,+,+1+#+@+@+#+#++++++++++++++++++++++++++++++++++++++++++",
"+++++++++++++++++++++++++++@+#+@+@+4+,+,+,+7+,+,+,+,+,+,+,+,+,+,+,+,+7+8+,+,+,+9+@+#+#+#+@++++++++++++++++++++++++++++++++++++++++++",
"+++++++++++++++++++++++++++#+@+@+@+4+,+,+,+,+0+,+,+,+a+,+,+,+,+,+b+,+,+c+,+,+,+1+@+@+#+#+@++++++++++++++++++++++++++++++++++++++++++",
"+++++++++++++++++++++++++++@+@+@+#+4+,+,+,+7+d+,+,+,+,+,+,+,+,+,+,+,+,+,+,+,+,+9+#+@+@+#+@++++++++++++++++++++++++++++++++++++++++++",
"+++++++++++++++++++++++++++@+@+#+#+2+3+,+,+,+,+,+,+,+,+,+,+,+,+,+,+,+e+f+,+,+,+9+#+#+@+@+@++++++++++++++++++++++++++++++++++++++++++",
"+++++++++++++++++++++++++++++@+#+@+@+g+,+,+,+,+,+,+,+,+,+,+,+,+h+,+,+b+i+j+,+,+1+#+#+@+#+@++++++++++++++++++++++++++++++++++++++++++",
"+++++++++++++++++++++++++++++#+#+#+@+k+l+m+,+,+,+n+(+(+o+,+,+,+7+p+,+,+0+7+,+,+1+@+#+#+#+#++++++++++++++++++++++++++++++++++++++++++",
"+++++++++++++++++++++++++++++++@+@+@+#+@+[+{+{+{+q+@+#+r+,+,+,+d+s+d+t+,+,+,+,+9+#+#+#+#+@++++++++++++++++++++++++++++++++++++++++++",
"+++++++++++++++++++++++++++++++@+@+#+#+@+#+#+@+@+#+@+@+r+,+,+,+u+b+7+v+a+0+,+,+9+@+#+#+@+#++++++++++++++++++++++++++++++++++++++++++",
"+++++++++++++++++++++++++++++++++@+@+@+@+#+#+@+#+#+#+#+r+,+,+,+w+p+p+x+a+,+,+,+9+@+#+@+#+#++++++++++++++++++++++++++++++++++++++++++",
"+++++++++++++++++++++++++++++++++++@+#+@+#+@+@+@+@+#+@+r+,+,+,+y+d+z+h+A+d+,+,+1+#+#+@+@+@++++++++++++++++++++++++++++++++++++++++++",
"+++++++++++++++++++++++++++++++++++++@+#+@+#+#+#+#+@+#+r+,+,+,+B+C+D+E+F+,+,+,+9+@+#+#+#+@++++++++++++++++++++++++++++++++++++++++++",
"+++++++++++++++++++++++++++++++++++++++@+@+#+@+@+#+@+#+r+,+,+,+G+H+I+J+s+d+,+,+1+@+#+@+#+#++++++++++++++++++++++++++++++++++++++++++",
"+++++++++++++++++++++++++++++++++++++++++++++++@+#+#+#+r+,+,+,+K+L+M+N+O+P+,+,+1+@+#+#+#+#++++++++++++++++++++++++++++++++++++++++++",
"+++++++++++++++++++++++++++++++++++++++++++++++@+@+@+#+r+,+,+,+Q+R+S+T+U+F+,+,+9+@+#+@+@+#++++++++++++++++++++++++++++++++++++++++++",
"+++++++++++++++++++++++++++++++++++++++++++++++@+#+@+@+r+,+,+,+V+P+L+W+X+Y+,+,+1+@+#+@+#+@++++++++++++++++++++++++++++++++++++++++++",
"+++++++++++++++++++++++++++++++++++++++++++++++@+@+@+@+r+,+,+,+N+Z@+@@@#+S+,+,+1+#+@+#+@+@++++++++++++++++++++++++++++++++++++++++++",
"+++++++++++++++++++++++++++++++++++++++++++++++@+#+#+@+r+,+,+,@$@%@&+R+H+u+,+,+9+@+#+#+@+#++++++++++++++++++++++++++++++++++++++++++",
"+++++++++++++++++++++++++++++++++++++++++++++++@+@+#+@+r+,+,+,@*@=@-@;@>+E+,+,+1+@+#+#+@+#++++++++++++++++++++++++++++++++++++++++++",
"+++++++++++++++++++++++++++++++++++++++++++++++@+#+#+#+r+,+,+,@,@'@)@!@~@{+,+,+9+#+@+#+#+@+#++++++++++++++++++++++++++++++++++++++++",
"+++++++++++++++++++++++++++++++++++++++++++++++#+#+@+#+r+,+,+,@]@^@/@(@$+G+,+,+9+#+@+#+#+@+#++++++++++++++++++++++++++++++++++++++++",
"+++++++++++++++++++++++++++++++++++++++++++++@+@+#+#+#+r+,+,+,@_@:@<@[@}+I+,+,+9+@+#+#+@+@+#++++++++++++++++++++++++++++++++++++++++",
"+++++++++++++++++++++++++++++++++++++++++++++@+#+#+@+#+r+,+,+,@|@1@2@3@4@5+,+,+1+@+#+@+@+#+#++++++++++++++++++++++++++++++++++++++++",
"+++++++++++++++++++++++++++++++++++++++++++++@+#+@+#+#+r+,+,+,@6@7@8@9@|@0+,+,+9+@+#+#+#+@+@++++++++++++++++++++++++++++++++++++++++",
"+++++++++++++++++++++++++++++++++++++++++++++@+#+#+@+#+r+,+,+,@a@b@c@d@e@f+,+,+9+#+@+#+@+@+@++++++++++++++++++++++++++++++++++++++++",
"+++++++++++++++++++++++++++++++++++++++++++++@+@+#+@+#+r+,+,+,@g@h@i@j@k+N+,+,+9+@+#+#+#+#+@+@++++++++++++++++++++++++++++++++++++++",
"+++++++++++++++++++++++++++++++++++++++++++@+@+#+#+#+#+r+,+,+,@i@l@m@n@o@&+,+,+1+@+#+@+#+@+@+#++++++++++++++++++++++++++++++++++++++",
"+++++++++++++++++++++++++++++++++++++++++@+#+#+#+@+#+#+r+,+,+,@l@p@q@r@c+M+,+,+9+#+@+#+#+#+#+#+@+#++++++++++++++++++++++++++++++++++",
"+++++++++++++++++++++++++++++++++++++@+@+@+#+@+@+#+#+#+r+,+,+,@s@t@u@v@w@x+,+,+9+#+#+#+@+#+#+#+#+#+@++++++++++++++++++++++++++++++++",
"+++++++++++++++++++++++++++++++++++#+#+#+#+#+@+#+#+#+@+r+,+,+,@y@z@A@B@C@D+,+,+1+@+#+#+@+#+#+#+#+#+@+@++++++++++++++++++++++++++++++",
"+++++++++++++++++++++++++++++++++@+@+@+@+@+=@E@E@E@E@E@F+,+,+,@G@H@I@J@K@L+,+,@M@E@E@E@E@E@N+#+#+#+@+@+@++++++++++++++++++++++++++++",
"+++++++++++++++++++++++++++++++@+#+@+@+!@O@P+,+,+,+,+,+,+,+,+,@Q@R@S@T@U@V+,+,+,+,+,+,+,+,@W@X+<+@+@+@+@+@++++++++++++++++++++++++++",
"+++++++++++++++++++++++++++++++@+#+#+@@Y+,+,+,+,+,+,+,+,+,+,+,@Z#+#@###$#%+,+,+,+,+,+,+,+,+,+,#&#*+#+#+@+@++++++++++++++++++++++++++",
"+++++++++++++++++++++++++++++#+@+@+@#=#-+,#;#>#>#,#'#>#)#!#~#{#]#^#/#(#_#:#<#,#[#}#>#!#|#1#2+,+,+-+@+@+#+#++++++++++++++++++++++++++",
"+++++++++++++++++++++++++++++@+@+@+@+g+,+,#3#4#5#6#7#8#9#0#a#b#c#d#e#f#g#h#i#j#k#l#m#n#o#p#q+,+,+o+@+@+#+@+@++++++++++++++++++++++++",
"+++++++++++++++++++++++++++@+@+@+@+@+g+,+,#r#s#t#u#v#w#x#y#z#A#B#C#D#E#F#G#H#I#J#K#L#M#N#O#P+,+,+o+@+@+@+#+@++++++++++++++++++++++++",
"+++++++++++++++++++++++++++@+@+@+#+@+g+,+,#Q#R#S#T#U#V#W#X#Y#Z$+$@$#$$$%$&$*$=$-$;$>$,$'$)$!+,+,+o+#+@+@+#+#++++++++++++++++++++++++",
"+++++++++++++++++++++++++++@+@+#+#+#+g+,+,$~${$]$^$/$($_$:$<$[$}$|$1$2$3$4$5$6$7$8$9$0$a$b$c+,+,+o+#+#+#+#+@++++++++++++++++++++++++",
"+++++++++++++++++++++++++++++@+#+@+@+[+}+,$d$e$f$g$h$i$j$k$l$m$n$o$p$q$r$s$t$u$v$w$x$t$y$z$A+,+,+o+@+@+@+@+@++++++++++++++++++++++++",
"+++++++++++++++++++++++++++++#+@+#+@+#$B+,+,+,+,+,+,+,+,+,+,+,+,+,+,+,+,+,+,+,+,+,+,+,+,+,+,+,$C$D+#+@+#+#++++++++++++++++++++++++++",
"+++++++++++++++++++++++++++++++#+@+@+##*$E+,+,+,+,+,+,+,+,+,+,+,+,+,+,+,+,+,+,+,+,+,+,+,+,+,+}$F+#+@+@+#+@++++++++++++++++++++++++++",
"+++++++++++++++++++++++++++++++@+@+#+#+@$G$H+;+;+;+;+;+;+;+;+;+;+;+;+;+;+;+;+;+;+;+;+;+;+;$I#=+#+#+#+#+#+@++++++++++++++++++++++++++",
"+++++++++++++++++++++++++++++++++@+@+@+@+#+#+@+#+#+#+#+#+#+@+#+@+@+@+#+#+#+#+#+#+@+#+@+#+#+#+@+@+@+#+@+@++++++++++++++++++++++++++++",
"+++++++++++++++++++++++++++++++++++@+#+@+#+@+@+@+@+#+@+@+#+#+@+@+#+#+#+@+@+@+#+@+#+#+@+@+#+@+#+#+#+@+@++++++++++++++++++++++++++++++",
"+++++++++++++++++++++++++++++++++++++@+#+@+#+#+#+#+@+#+@+#+#+@+@+@+#+#+@+@+#+#+@+@+#+#+#+@+@+#+#+#+@++++++++++++++++++++++++++++++++",
"+++++++++++++++++++++++++++++++++++++++@+@+@+@+@+#+@+#+#+@+@+#+#+@+#+@+#+#+@+#+@+@+#+@+#+#+@+@+@+#++++++++++++++++++++++++++++++++++",
"+++++++++++++++++++++++++++++++++++++++++++++++@+@+#+#+@+@+#+@+@+#+@+@+#+#+@+@+@+@+#+#+#+#+@+@++++++++++++++++++++++++++++++++++++++",
"+++++++++++++++++++++++++++++++++++++++++++++++++++++++++++++++#+@+@+@+@+@+#+#+@+#+@+@++++++++++++++++++++++++++++++++++++++++++++++",
"++++++++++++++++++++++++++++++++++++++++++++++++++++++++++++++++++++++++++++++++++++++++++++++++++++++++++++++++++++++++++++++++++++",
"++++++++++++++++++++++++++++++++++++++++++++++++++++++++++++++++++++++++++++++++++++++++++++++++++++++++++++++++++++++++++++++++++++",
"++++++++++++++++++++++++++++++++++++++++++++++++++++++++++++++++++++++++++++++++++++++++++++++++++++++++++++++++++++++++++++++++++++"};
