/* XPM */
static char * ball_red_xpm[] = {
"66 66 434 2",
"%O c #515151",
"%N c #545454",
"%M c #818181",
"%L c #878787",
"%K c #888888",
"%J c #9B9B9B",
"%I c #674606",
"%H c #756215",
"%G c #754907",
"%F c #75500A",
"%E c #75560D",
"%D c #753B00",
"%C c #755307",
"%B c #754C02",
"%A c #756114",
"%z c #754F00",
"%y c #754400",
"%x c #75570A",
"%w c #734300",
"%v c #734100",
"%u c #755408",
"%t c #75560A",
"%s c #754D00",
"%r c #754100",
"%q c #755C12",
"%p c #754C05",
"%o c #755003",
"%n c #754901",
"%m c #754A05",
"%l c #643B00",
"%k c #ECECEC",
"%j c #E09E26",
"%i c #FFAF21",
"%h c #FF910B",
"%g c #FEA71D",
"%f c #FEB027",
"%e c #FE9D1B",
"%d c #FE9C17",
"%c c #FA8D19",
"%b c #FEA217",
"%a c #FFB729",
"%0 c #FFAF27",
"%9 c #FFA81C",
"%8 c #FEA219",
"%7 c #FEAC24",
"%6 c #FE8813",
"%5 c #FEBC33",
"%4 c #FE8A03",
"%3 c #FE9008",
"%2 c #FE920D",
"%1 c #FE9A11",
"%| c #FFA119",
"%} c #FEB024",
"%[ c #FFA821",
"%< c #FFAF25",
"%: c #FF950D",
"%_ c #DB8D17",
"%( c #E05A00",
"%/ c #FE8C19",
"%^ c #FF951C",
"%] c #FD891C",
"%{ c #FC7C0D",
"%~ c #FB7510",
"%! c #FE7B06",
"%) c #FF8913",
"%' c #FD6D07",
"%, c #FE7408",
"%> c #FF8211",
"%; c #FE7E12",
"%- c #FF8112",
"%= c #FE901B",
"%* c #FE8F26",
"%& c #FF770C",
"%% c #FE710B",
"%$ c #FE7605",
"%# c #FD7310",
"%@ c #FE7507",
"%+ c #FF931D",
"$Z c #FE8610",
"$Y c #FE8A1A",
"$X c #FE8510",
"$W c #FF750E",
"$V c #DB7A15",
"$U c #E04800",
"$T c #FC5605",
"$S c #FE7E13",
"$R c #FE6904",
"$Q c #FE871F",
"$P c #FE851E",
"$O c #FE5E01",
"$N c #FE7004",
"$M c #FE7209",
"$L c #FE7A12",
"$K c #FC740F",
"$J c #FD7811",
"$I c #F94900",
"$H c #FE710D",
"$G c #FE7113",
"$F c #FE8217",
"$E c #FE5900",
"$D c #FE8C28",
"$C c #FE740E",
"$B c #FE7D12",
"$A c #FF6C0C",
"$z c #FF7710",
"$y c #FE9B2D",
"$x c #FE8D25",
"$w c #F75B09",
"$v c #D74D07",
"$u c #E04501",
"$t c #FE6B0A",
"$s c #FC761D",
"$r c #F53A00",
"$q c #FC5406",
"$p c #FC5000",
"$o c #FE5607",
"$n c #F65209",
"$m c #FC6308",
"$l c #FD5B07",
"$k c #F73B00",
"$j c #F85A09",
"$i c #F24C08",
"$h c #FE6F1D",
"$g c #F53E00",
"$f c #FC5906",
"$e c #FE5600",
"$d c #F14803",
"$c c #FC5D08",
"$b c #FD6A11",
"$a c #FE630A",
"$0 c #FE6D14",
"$9 c #F96B16",
"$8 c #FA4E07",
"$7 c #FF7016",
"$6 c #DB590B",
"$5 c #F7F7F7",
"$4 c #666666",
"$3 c #230C00",
"$2 c #281203",
"$1 c #271306",
"$| c #250600",
"$} c #280E00",
"$[ c #281002",
"$< c #260B03",
"$: c #280D00",
"$_ c #280D01",
"$( c #280B00",
"$/ c #280E01",
"$^ c #281102",
"$] c #281809",
"${ c #260600",
"$~ c #280F02",
"$! c #280C00",
"$) c #270600",
"$' c #9A3201",
"$, c #FC671A",
"$> c #FF4D04",
"$; c #FC4E09",
"$- c #FD6B1A",
"$= c #F84A03",
"$* c #E83E03",
"$& c #441100",
"$% c #6B6B6B",
"$$ c #F8F8F8",
"$# c #BFBFBF",
"$@ c #121212",
"$+ c #600B00",
"#Z c #F6450B",
"#Y c #F73F06",
"#X c #F95413",
"#W c #F63204",
"#V c #FE3D00",
"#U c #E0491C",
"#T c #421702",
"#S c #BEBEBE",
"#R c #711101",
"#Q c #F24211",
"#P c #FB2F02",
"#O c #FE2E01",
"#N c #FD3801",
"#M c #FE561C",
"#L c #FE5116",
"#K c #A71F0C",
"#J c #979797",
"#I c #5D5D5D",
"#H c #550100",
"#G c #FC1E03",
"#F c #F72B11",
"#E c #F51401",
"#D c #EA1400",
"#C c #FB2700",
"#B c #EC2107",
"#A c #C0280E",
"#z c #180100",
"#y c #424242",
"#x c #6D0000",
"#w c #C10000",
"#v c #D10500",
"#u c #E50402",
"#t c #F72B1A",
"#s c #DE0000",
"#r c #EA0C00",
"#q c #870500",
"#p c #110100",
"#o c #444444",
"#n c #D4D4D4",
"#m c #F70601",
"#l c #CA0101",
"#k c #EB190F",
"#j c #D60000",
"#i c #F90600",
"#h c #D90000",
"#g c #9D0000",
"#f c #D9D9D9",
"#e c #181818",
"#d c #540000",
"#c c #B90000",
"#b c #C70000",
"#a c #B40000",
"#0 c #C60302",
"#9 c #D30000",
"#8 c #D80000",
"#7 c #B50000",
"#6 c #8A8A8A",
"#5 c #D5D5D5",
"#4 c #282828",
"#3 c #BE0000",
"#2 c #AB0000",
"#1 c #C80000",
"#| c #BC0000",
"#} c #B80000",
"#[ c #C00000",
"#< c #9E0101",
"#: c #120000",
"#_ c #1C1C1C",
"#( c #4E0000",
"#/ c #B80606",
"#^ c #920000",
"#] c #9C0000",
"#{ c #960000",
"#~ c #A00000",
"#! c #C80101",
"#) c #8B0000",
"#' c #8C8C8C",
"#, c #FAFAFA",
"#> c #2D0000",
"#; c #8B0404",
"#- c #B90E0E",
"#= c #950000",
"#* c #5D0000",
"#& c #840000",
"#% c #680000",
"#$ c #7E7E7E",
"## c #830000",
"#@ c #700000",
"#+ c #630000",
"@Z c #530000",
"@Y c #510000",
"@X c #690000",
"@W c #6A0000",
"@V c #8E8E8E",
"@U c #070707",
"@T c #620000",
"@S c #470000",
"@R c #5C0000",
"@Q c #3C0000",
"@P c #7C7C7C",
"@O c #440000",
"@N c #4D0000",
"@M c #390000",
"@L c #5E0000",
"@K c #520000",
"@J c #040404",
"@I c #090909",
"@H c #2C0000",
"@G c #780808",
"@F c #460000",
"@E c #4A0000",
"@D c #2E0000",
"@C c #7B7B7B",
"@B c #C8C8C8",
"@A c #3A0000",
"@z c #250000",
"@y c #300101",
"@x c #4C0101",
"@w c #350000",
"@v c #450000",
"@u c #919191",
"@t c #FDFDFD",
"@s c #575757",
"@r c #330505",
"@q c #620707",
"@p c #4C0000",
"@o c #280000",
"@n c #310000",
"@m c #3D0000",
"@l c #210303",
"@k c #210000",
"@j c #410000",
"@i c #290000",
"@h c #DCDCDC",
"@g c #252525",
"@f c #170000",
"@e c #340000",
"@d c #4F0303",
"@c c #160000",
"@b c #4A0B0B",
"@a c #200000",
"@0 c #797979",
"@9 c #370000",
"@8 c #2A0000",
"@7 c #2B0000",
"@6 c #1C0000",
"@5 c #565656",
"@4 c #222222",
"@3 c #0D0000",
"@2 c #070000",
"@1 c #080000",
"@| c #400404",
"@} c #260000",
"@[ c #1A0000",
"@< c #CCCCCC",
"@: c #380000",
"@_ c #300000",
"@( c #190202",
"@/ c #220303",
"@^ c #1F1F1F",
"@] c #737373",
"@{ c #0A0000",
"@~ c #320000",
"@! c #1E0000",
"@) c #0C0000",
"@' c #130202",
"@, c #210202",
"@> c #5B5B5B",
"@; c #140000",
"@- c #220000",
"@= c #1F0000",
"@* c #431111",
"@& c #414141",
"@% c #FBFBFB",
"@$ c #030000",
"@# c #100000",
"@@ c #110000",
"@+ c #170404",
"+Z c #150000",
"+Y c #A3A3A3",
"+X c #200202",
"+W c #0E0000",
"+V c #050000",
"+U c #0B0000",
"+T c #202020",
"+S c #C9C9C9",
"+R c #130000",
"+Q c #1C0101",
"+P c #060000",
"+O c #0E0303",
"+N c #180A0A",
"+M c #4C4C4C",
"+L c #180404",
"+K c #0A0101",
"+J c #110505",
"+I c #090000",
"+H c #101010",
"+G c #B7B7B7",
"+F c #969696",
"+E c #383838",
"+D c #C7C7C7",
"+C c #D1D1D1",
"+B c #100404",
"+A c #020000",
"+z c #585858",
"+y c #FCFCFC",
"+x c #A8A8A8",
"+w c #898989",
"+v c #212121",
"+u c #161616",
"+t c #F5F5F5",
"+s c #616161",
"+r c #030101",
"+q c #313131",
"+p c #A2A2A2",
"+o c #DBDBDB",
"+n c #626262",
"+m c #323232",
"+l c #0D0D0D",
"+k c #7A7A7A",
"+j c #0B0505",
"+i c #010000",
"+h c #040000",
"+g c #8F8F8F",
"+f c #060303",
"+e c #040101",
"+d c #232323",
"+c c #BABABA",
"+b c #151515",
"+a c #757575",
"+0 c #030303",
"+9 c #060606",
"+8 c #D6D6D6",
"+7 c #3B3B3B",
"+6 c #050505",
"+5 c #6D6D6D",
"+4 c #F9F9F9",
"+3 c #3C3C3C",
"+2 c #010101",
"+1 c #7F7F7F",
"+| c #EDEDED",
"+} c #484848",
"+[ c #1A1A1A",
"+< c #535353",
"+: c #EFEFEF",
"+_ c #BDBDBD",
"+( c #0B0B0B",
"+/ c #131313",
"+^ c #C4C4C4",
"+] c #E7E7E7",
"+{ c #808080",
"+~ c #171717",
"+! c #191919",
"+) c #3D3D3D",
"+' c #E5E5E5",
"+, c #E9E9E9",
"+> c #BCBCBC",
"+; c #020202",
"+- c #000000",
"+= c #080808",
"+* c #939393",
"+& c #C0C0C0",
"+% c #EAEAEA",
"+$ c #EBEBEB",
"+# c #FFFFFF",
"+@ c #FEFEFE",
"++ c None",
"++++++++++++++++++++++++++++++++++++++++++++++++++++++++++++++++++++++++++++++++++++++++++++++++++++++++++++++++++++++++++++++++++++",
"++++++++++++++++++++++++++++++++++++++++++++++++++++++++++++++++++++++++++++++++++++++++++++++++++++++++++++++++++++++++++++++++++++",
"++++++++++++++++++++++++++++++++++++++++++++++++++++++++++++++++++++++++++++++++++++++++++++++++++++++++++++++++++++++++++++++++++++",
"+++++++++++++++++++++++++++++++++++++++++++++++@+#+#+#+#+#+#+#+#+@+#+@+#+#+#+#+@+@++++++++++++++++++++++++++++++++++++++++++++++++++",
"+++++++++++++++++++++++++++++++++++++++++++@+@+@+@+#+@+#+#+#+#+@+@+#+#+#+@+@+#+@+#+#+#++++++++++++++++++++++++++++++++++++++++++++++",
"+++++++++++++++++++++++++++++++++++++++#+#+#+@+@+#+@+@+#+#+#+#+@+#+#+#+#+#+#+#+@+#+@+@+#+#++++++++++++++++++++++++++++++++++++++++++",
"+++++++++++++++++++++++++++++++++++++#+#+#+#+@+@+@+#+@+#+#+@+@+@+@+#+#+@+#+#+#+@+@+#+@+#+#++++++++++++++++++++++++++++++++++++++++++",
"+++++++++++++++++++++++++++++++++++@+@+#+#+#+@+#+@+#+@+$+%+%+%+%+%+%+$+#+#+#+#+@+#+@+@+@+#+@+#++++++++++++++++++++++++++++++++++++++",
"+++++++++++++++++++++++++++++++++#+#+#+@+#+@+@+@+&+*+*+=+-+-+-+-+-+-+;+*+*+>+@+#+#+@+#+@+#+#+@++++++++++++++++++++++++++++++++++++++",
"+++++++++++++++++++++++++++++++#+#+@+#+,+'+&+)+)+!+-+-+-+-+-+-+-+-+-+-+-+-+~+)+{+]+#+@+@+@+@+@+#+@++++++++++++++++++++++++++++++++++",
"+++++++++++++++++++++++++++++#+@+@+@+^+/+-+-+-+-+-+-+-+-+-+-+-+-+-+-+-+-+-+-+-+-+(+_+@+#+@+@+@+@+#++++++++++++++++++++++++++++++++++",
"+++++++++++++++++++++++++++@+@+@+:+<+[+-+-+-+-+-+-+-+-+-+-+-+-+-+-+-+-+-+-+-+-+-+-+~+}+|+@+@+@+@+#+#++++++++++++++++++++++++++++++++",
"+++++++++++++++++++++++++#+#+@+@+1+-+-+-+-+-+-+-+-+-+2+-+-+-+-+-+-+-+-+-+-+-+-+-+-+-+-+3+'+#+@+@+@+#+#++++++++++++++++++++++++++++++",
"+++++++++++++++++++++++#+#+#+#+4+5+-+-+-+-+-+-+-+-+-+-+-+-+-+-+-+2+-+-+-+2+6+-+2+-+-+-+-+7+$+#+#+#+#+#++++++++++++++++++++++++++++++",
"+++++++++++++++++++++++#+@+#+#+8+-+-+-+-+-+-+-+-+-+-+-+-+-+-+-+-+9+-+-+;+0+/+-+-+-+-+-+-+-+a+#+#+@+@+#+@++++++++++++++++++++++++++++",
"+++++++++++++++++++++++#+@+@+@+8+-+-+-+-+-+-+-+-+-+-+-+-+-+-+-+-+-+-+-+-+-+-+-+-+-+-+-+-+-+b+c+@+@+#+#+#++++++++++++++++++++++++++++",
"+++++++++++++++++++++++@+#+#+@+8+-+-+-+-+-+-+-+-+-+-+-+-+-+-+-+-+-+-+-+-+-+-+-+-+-+-+-+-+-+-+d+@+#+#+#+#++++++++++++++++++++++++++++",
"+++++++++++++++++++++++#+#+@+#+8+-+-+-+e+f+-+-+-+-+-+-+-+-+-+-+-+-+-+-+-+-+-+-+-+-+-+-+-+-+-+6+g+#+#+#+#+#++++++++++++++++++++++++++",
"+++++++++++++++++++++++@+#+#+#+8+-+-+-+h+-+-+-+-+-+-+-+-+-+-+-+-+-+-+-+-+-+-+i+j+-+i+-+-+-+-+-+k+#+@+#+#+#++++++++++++++++++++++++++",
"+++++++++++++++++++++++#+#+#+@+4+5+-+-+-+-+-+-+-+-+l+m+n+o+o+o+o+o+p+q+-+-+-+-+r+-+i+-+-+-+-+-+s+t+@+@+@+#++++++++++++++++++++++++++",
"+++++++++++++++++++++++#+#+#+#+@+^+u+-+-+-+-+-+v+w+x+#+#+@+#+#+#+@+@+y+z+-+-+-+A+-+-+-+-+B+-+-+-+C+#+#+#+#++++++++++++++++++++++++++",
"+++++++++++++++++++++++@+#+@+#+@+@+D+E+E+E+E+F+]+@+#+#+#+@+@+@+@+@+#+@+G+H+-+-+h+A+I+J+K+L+-+-+-+C+@+#+@+#+#++++++++++++++++++++++++",
"+++++++++++++++++++++++++++#+@+@+#+#+@+#+@+@+@+#+@+#+@+@+@+@+@+@+@+@+@+@+M+-+-+K+I+-+N+O+-+-+-+-+C+#+#+@+#+@++++++++++++++++++++++++",
"+++++++++++++++++++++++++++#+#+@+@+@+@+#+@+@+#+#+@+#+#+#+@+#+#+@+@+@+#+#+M+-+-+P+P+A+Q+R+A+-+-+-+C+@+@+@+#+@++++++++++++++++++++++++",
"+++++++++++++++++++++++++++++++#+#+#+#+#+@+@+#+@+@+#+#+@+#+#+@+#+#+#+@+S+T+-+-+U+U+V+W+X+-+-+-+-+C+@+#+#+#+#+#++++++++++++++++++++++",
"+++++++++++++++++++++++++++++++++++#+#+#+@+@+#+@+#+@+++++++#+#+#+@+@+@+Y+-+-+i+Z@+@@+V@#@$+-+-+-+C+#+@+@+#+@+#++++++++++++++++++++++",
"+++++++++++++++++++++++++++++++++++++++++++++++++++++++++++@+#+#+#+@@%@&+-+-+-+W@*+P@=@-@;+-+-+-+C+#+#+@+@+#+#++++++++++++++++++++++",
"+++++++++++++++++++++++++++++++++++++++++++++++++++++++++#+#+@+@+#+@@>+-+-+-+i@,@'@)@!@~@{+-+-@]+y+#+#+@+@+#+@++++++++++++++++++++++",
"+++++++++++++++++++++++++++++++++++++++++++++++++++++++#+@+@+#+@+@+S@^+-+-+-+-@/@(@_@:@@+-+-+-+k+@+@+@+#+#+#++++++++++++++++++++++++",
"+++++++++++++++++++++++++++++++++++++++++++++++++++#+@+#+@+#+#+@@<+9+-+-+i@[@}@@@|@1@2@3+-+-@4+4+#+#+#+#+#+#++++++++++++++++++++++++",
"+++++++++++++++++++++++++++++++++++++++++++++++++++@+#+@+#+@+@+#@5+-+-+-+i@6@7@8@9@:+U+-+-+-+g+@+#+@+@+@+@+#++++++++++++++++++++++++",
"+++++++++++++++++++++++++++++++++++++++++++++++++#+#+#+#+@+#+#@0+2+-+-@!@a@b@c@d@e@f+A+-+-@g@h+#+#+#+#+#+#++++++++++++++++++++++++++",
"+++++++++++++++++++++++++++++++++++++++++++++++@+#+@+#+#+@+#+*+2+-+-@i@j@k@#@3@l@!@7+-+-+-+a+@+#+#+#+#+#+#++++++++++++++++++++++++++",
"+++++++++++++++++++++++++++++++++++++++++++++++@+#+@+#+@+#@0+-+-+-@6@m@n@o@8@p@q@r+-+-+-@s+#+@+#+@+#+#+#+#++++++++++++++++++++++++++",
"+++++++++++++++++++++++++++++++++++++++++++#+#+#+@+@+@@t@u+0+-+-+-@v@w@x@y@z@w@A+P+-+-+;@B+@+#+@+#+#+#+#++++++++++++++++++++++++++++",
"+++++++++++++++++++++++++++++++++++++++++#+@+@+@+@+#+@@C+-+-+-+P@D@9@E@F@G@:@H+-+-+-@I+Y+#+#+#+@+@+@+@++++++++++++++++++++++++++++++",
"+++++++++++++++++++++++++++++++++++++++#+#+#+#+#+@+y+g@J+-+-+A@m@K@L@M@N@O+R+h+-+-@J@u+#+#+#+#+@+#+#+@++++++++++++++++++++++++++++++",
"+++++++++++++++++++++++++++++++++++++#+@+@+#+@+@+@@P+-+-+-@3@E@Q@R@p@S@T@R+R+-+-@U+Y+#+#+@+@+#+#+@+#+@++++++++++++++++++++++++++++++",
"+++++++++++++++++++++++++++++++++++@+#+#+@+#+@@%@V+6+-+-+h@W@X@Y@Z#+#@##@A+-+-+9@u+@+@+@+#+#+@+#+#+#++++++++++++++++++++++++++++++++",
"+++++++++++++++++++++++++++++++++++#+#+@+#+#+@#$+-+-+-+Z#%#&#*#=#%#-#;#>+-+-+9+Y+@+#+@+#+#+#+@+@+#++++++++++++++++++++++++++++++++++",
"+++++++++++++++++++++++++++++++#+#+#+@+#+##,#'+9+-+-+U#)#!#~#{#]#^#/#(+-+-+-#_+@+#+@+@+@+@+#+#+#+#++++++++++++++++++++++++++++++++++",
"+++++++++++++++++++++++++++++++#+#+#+#+@+#+{+-+-+-#:#<#[#}#|#1#2#3#(+-+-+-#4#5+#+#+@+#+@+#+#+#+#++++++++++++++++++++++++++++++++++++",
"+++++++++++++++++++++++++++++#+@+@+@+#+4#6@U+-+-@)#7#8#9#0#a#b#c#d+-+-+-#e#f+@+@+@+#+@+@+@+@+#+@+#+@+@++++++++++++++++++++++++++++++",
"+++++++++++++++++++++++++++#+@+@+@+@+@@<+-+-+-@##g#h#i#j#k#l#m@O+-+-+-#4#n+#+#+#+@+@+@+#+@+@+@+@+@+@+@+#++++++++++++++++++++++++++++",
"+++++++++++++++++++++++++++@+@+@+@+#+:#o+-+-#p#q#r#s#t#u#v#w#x+i+-+-#e+o+#+@+#+#+#+@+@+#+@+@+@+@+@+@+#+@+#++++++++++++++++++++++++++",
"+++++++++++++++++++++++++#+#+@+@+#+,#y+-+-#z#A#B#C#D#E#F#G#H+-+-+-+-#I+w+w+w+w+w+w+w+w+w#J+#+@+@+@+#+@+#+@++++++++++++++++++++++++++",
"+++++++++++++++++++++++#+#+#+#+#+|#o+-+-+-#K#L#M#N#O#P#Q#R+A+-+-+-+-+-+-+-+-+-+-+-+-+-+-+9+m#S+#+#+#+#+#+#+#++++++++++++++++++++++++",
"+++++++++++++++++++++++#+@+#+#+@+1+-+-+-#T#U#V#W#X#Y#Z$++-+-+-+-+-+-+-+-+-+-+-+-+-+-+-+-+-+-$@$#+@+@+@+#+#+@++++++++++++++++++++++++",
"+++++++++++++++++++++++#+@+@+@$$$%+-+-$&$*$=$-$;$>$,$'$)$!$~${$]$^$/$($_$:$<$[$}$~$|$1$2$3+-+-$4$5+#+#+@+@+@++++++++++++++++++++++++",
"+++++++++++++++++++++++#+#+#+@+8+-+-+-$6$7$8$9$0$a$b$c$d$e$f$g$h$i$j$k$l$m$n$o$p$q$r$s$t$u+-+-+-+C+#+#+@+@+#++++++++++++++++++++++++",
"+++++++++++++++++++++++@+#+@+#+8+-+-+-$v$w$x$y$z$A$B$C$D$E$F$G$H$I$J$K$L$M$N$O$P$Q$R$S$T$U+-+-+-+C+#+#+#+@+#++++++++++++++++++++++++",
"+++++++++++++++++++++++#+#+#+#+8+-+-+-$V$W$X$Y$Z%+%@%#%$%%%&%*%=%-%;%>%,%'%)%!%~%{%]%^%/%(+-+-+-+C+@+#+#+@+@++++++++++++++++++++++++",
"+++++++++++++++++++++++#+#+#+@+8+-+-+-%_%:%<%[%}%|%1%2%3%4%5%6%7%8%9%0%a%b%c%d%e%f%g%h%i%j+-+-+-+C+@+@+@+@+#++++++++++++++++++++++++",
"+++++++++++++++++++++++#+@+#+#%k#o+-+-%l%m%n%n%o%p%q%r%s%s%t%u%v%w%x%y%z%A%B%C%D%E%F%G%H%I+-+-+-+C+#+#+#+#+#++++++++++++++++++++++++",
"+++++++++++++++++++++++++@+@+#+@%J+=+-+-+-+-+-+-+-+-+-+-+-+-+-+-+-+-+-+-+-+-+-+-+-+-+-+-+-+-@U%K+4+@+#+@+@++++++++++++++++++++++++++",
"+++++++++++++++++++++++++@+@+@+@+#%L+-+-+-+-+-+-+-+-+-+-+-+-+-+-+-+-+-+-+-+-+-+-+-+-+-+-+-+-%M+@+@+#+#+@+#++++++++++++++++++++++++++",
"+++++++++++++++++++++++++#+#+@+@+@#,+'%N+)+)+)+)+)+)+)+)+)+)+)+)+)+)+)+)+)+)+)+)+)+)+)+)%O+'+4+@+@+@+@+@+#++++++++++++++++++++++++++",
"+++++++++++++++++++++++++++#+#+#+@+#+#+#+@+@+#+@+@+@+@+@+@+#+@+#+#+#+@+@+@+@+@+@+#+@+#+@+@+@+#+#+#+@+#+#++++++++++++++++++++++++++++",
"+++++++++++++++++++++++++++#+@+#+#+@+@+#+@+#+#+#+#+@+#+#+@+@+#+#+@+@+@+#+#+#+@+#+@+@+#+#+@+#+@+@+@+#+#+#++++++++++++++++++++++++++++",
"+++++++++++++++++++++++++++++++#+#+#+@+@+#+@+@+@+@+#+@+#+@+@+#+#+#+@+@+#+#+@+@+#+#+@+@+@+#+#+@+@+@+#+#++++++++++++++++++++++++++++++",
"+++++++++++++++++++++++++++++++++++@+#+#+#+@+#+@+@+#+@+@+#+#+@+@+#+@+#+@+@+#+@+#+#+@+#+@+@+#+@+#+#+#+#++++++++++++++++++++++++++++++",
"+++++++++++++++++++++++++++++++++++++++++++++++++#+@+#+#+#+@+#+@+@+#+#+@+@+#+#+#+#+@+@+@+@+@+#+#++++++++++++++++++++++++++++++++++++",
"+++++++++++++++++++++++++++++++++++++++++++++++++++++#+#+@+@+#+@+@+#+#+#+#+@+#+@+#+@+#+#+#+#+#++++++++++++++++++++++++++++++++++++++",
"+++++++++++++++++++++++++++++++++++++++++++++++++++++++++++++++++++++++++++#+#+#+#+#+#+#++++++++++++++++++++++++++++++++++++++++++++",
"++++++++++++++++++++++++++++++++++++++++++++++++++++++++++++++++++++++++++++++++++++++++++++++++++++++++++++++++++++++++++++++++++++",
"++++++++++++++++++++++++++++++++++++++++++++++++++++++++++++++++++++++++++++++++++++++++++++++++++++++++++++++++++++++++++++++++++++"};
