/* XPM */
static char * ball_red_xpm[] = {
"50 50 202 2",
"#< c #7F5A04",
"#: c #7F6804",
"#_ c #7F5E00",
"#( c #7F5600",
"#/ c #7F730E",
"#^ c #7F6B08",
"#] c #7F5B00",
"#{ c #7F6208",
"#~ c #7F5510",
"#! c #FF9304",
"#) c #F6A01E",
"#' c #FFA60F",
"#, c #FFA318",
"#> c #FFB31C",
"#; c #FE8904",
"#- c #FFB420",
"#= c #FF990A",
"#* c #FF9C0A",
"#& c #FFCB32",
"#% c #FFB820",
"#$ c #FE9511",
"## c #BF720D",
"#@ c #7F5611",
"#+ c #3F1E01",
"@Z c #FB8217",
"@Y c #FF7406",
"@X c #FF7504",
"@W c #FF8816",
"@V c #FF7B0D",
"@U c #FF850E",
"@T c #FF7104",
"@S c #FF9F29",
"@R c #FF810D",
"@Q c #FF8511",
"@P c #EF7213",
"@O c #FF8711",
"@N c #FF7F10",
"@M c #FF911A",
"@L c #FC7209",
"@K c #3F270D",
"@J c #FF6C0E",
"@I c #FF942A",
"@H c #F34F06",
"@G c #F84D00",
"@F c #FF6707",
"@E c #FF6D11",
"@D c #FF7A11",
"@C c #FF7818",
"@B c #FF710F",
"@A c #FF8624",
"@z c #FF8016",
"@y c #FF650A",
"@x c #FF700E",
"@w c #FF7A16",
"@v c #FB5607",
"@u c #FB5A01",
"@t c #FF6D07",
"@s c #3F1000",
"@r c #FE6B1A",
"@q c #FF5705",
"@p c #FF5B04",
"@o c #FD590C",
"@n c #FE5D0C",
"@m c #BE2D00",
"@l c #792605",
"@k c #7F2A03",
"@j c #7F4C1C",
"@i c #FD5C0B",
"@h c #EE430C",
"@g c #EE3E06",
"@f c #F02D08",
"@e c #FB4A0C",
"@d c #F23810",
"@c c #FF4500",
"@b c #F3460C",
"@a c #7F2F06",
"@0 c #3C0800",
"@9 c #BC2900",
"@8 c #7B0B00",
"@7 c #F32C02",
"@6 c #FF5013",
"@5 c #F82101",
"@4 c #FF3102",
"@3 c #7F2107",
"@2 c #AD0700",
"@1 c #F11905",
"@| c #C30000",
"@} c #D30500",
"@[ c #B70B00",
"@< c #F60100",
"@: c #CE0200",
"@_ c #DD0000",
"@( c #CA0000",
"@/ c #AE0000",
"@^ c #DE0000",
"@] c #F20404",
"@{ c #BB0000",
"@~ c #300000",
"@! c #B00000",
"@) c #A30000",
"@' c #C00000",
"@, c #A20000",
"@> c #830000",
"@; c #A00000",
"@- c #A60000",
"@= c #A50000",
"@* c #870202",
"@& c #810000",
"@% c #790000",
"@$ c #8B0909",
"@# c #460000",
"@@ c #5E0202",
"@+ c #700000",
"+Z c #780505",
"+Y c #4A0000",
"+X c #4E0000",
"+W c #540000",
"+V c #3A0000",
"+U c #310000",
"+T c #410101",
"+S c #2E0000",
"+R c #200000",
"+Q c #460505",
"+P c #390000",
"+O c #410000",
"+N c #380000",
"+M c #100000",
"+L c #510404",
"+K c #340000",
"+J c #290606",
"+I c #330000",
"+H c #320000",
"+G c #0C0000",
"+F c #250000",
"+E c #180000",
"+D c #320202",
"+C c #290000",
"+B c #230000",
"+A c #210000",
"+z c #2A0000",
"+y c #240000",
"+x c #470101",
"+w c #1C0000",
"+v c #2B0202",
"+u c #280000",
"+t c #220000",
"+s c #070000",
"+r c #210202",
"+q c #1E0000",
"+p c #1B0000",
"+o c #270404",
"+n c #110000",
"+m c #1D0000",
"+l c #130000",
"+k c #260000",
"+j c #1F0101",
"+i c #160000",
"+h c #1F0000",
"+g c #2D0000",
"+f c #0F0000",
"+e c #140000",
"+d c #0E0000",
"+c c #010000",
"+b c #1C0808",
"+a c #0A0000",
"+0 c #170202",
"+9 c #1F0404",
"+8 c #170505",
"+7 c #130303",
"+6 c #170000",
"+5 c #1C0303",
"+4 c #060000",
"+3 c #080000",
"+2 c #180B0B",
"+1 c #0D0000",
"+| c #040000",
"+} c #090000",
"+[ c #100707",
"+< c #080101",
"+: c #0C0606",
"+_ c #080303",
"+( c #030000",
"+/ c #060101",
"+^ c #0A0606",
"+] c #080505",
"+{ c #020000",
"+~ c #030202",
"+! c #040303",
"+) c #090909",
"+' c #010101",
"+, c #030303",
"+> c #050505",
"+; c #101010",
"+- c #020202",
"+= c #0B0B0B",
"+* c #040404",
"+& c #7F7F7F",
"+% c #000000",
"+$ c #3F3F3F",
"+# c #BFBFBF",
"+@ c #FFFFFF",
"++ c None",
"++++++++++++++++++++++++++++++++++++++++++++++++++++++++++++++++++++++++++++++++++++++++++++++++++++",
"++++++++++++++++++++++++++++++++++++++++++++++++++++++++++++++++++++++++++++++++++++++++++++++++++++",
"+++++++++++++++++++++++++++++++++++++++@+@+@+@+@+@+@+@+@+@+@++++++++++++++++++++++++++++++++++++++++",
"+++++++++++++++++++++++++++++@+@+@+@+@+@+@+@+@+@+@+@+@+@+@+@+@+@+@+@+@++++++++++++++++++++++++++++++",
"+++++++++++++++++++++++++@+@+@+@+@+@+@+@+@+@+@+@+@+@+@+@+@+@+@+@+@+@+@+@+@++++++++++++++++++++++++++",
"+++++++++++++++++++++++@+@+@+@+@+@+@+@+@+@+@+@+@+@+@+@+@+@+@+@+@+@+@+@+@+@+@++++++++++++++++++++++++",
"+++++++++++++++++++++++@+@+@+@+#+$+%+%+%+%+%+%+%+%+%+%+%+%+%+%+%+$+&+@+@+@+@+@++++++++++++++++++++++",
"+++++++++++++++++++++++@+@+@+#+%+%+%+%+%+%+%+%+%+%+%+%+%+%+%+%+%+%+%+$+@+@+@+@++++++++++++++++++++++",
"+++++++++++++++++++++@+@+@+@+$+%+%+%+*+%+=+%+%+%+%+%+%+%+%+%+-+%+%+%+%+@+@+@+@++++++++++++++++++++++",
"+++++++++++++++++++++@+@+@+@+%+%+%+;+>+%+%+%+%+%+,+%+%+%+%+%+%+'+%+%+%+&+@+@+@++++++++++++++++++++++",
"+++++++++++++++++++++@+@+@+@+%+%+%+%+%+%+%+%+%+>+%+%+%+*+'+*+%+%+)+%+%+&+@+@+@++++++++++++++++++++++",
"+++++++++++++++++++++@+@+@+@+%+%+%+%+%+%+%+%+%+%+%+%+!+%+~+%+%+%+%+%+%+&+@+@+@++++++++++++++++++++++",
"+++++++++++++++++++++++@+@+@+%+%+{+]+%+{+%+%+%+%+%+%+%+%+%+%+%+%+%+%+%+@+@+@+@++++++++++++++++++++++",
"+++++++++++++++++++++@+@+@+@+%+%+^+/+(+_+%+%+%+%+%+%+%+%+%+%+%+%+%+%+#+@+@+@++++++++++++++++++++++++",
"+++++++++++++++++++++@+@+@+@+%+%+%+:+<+%+%+%+%+&+&+&+&+&+&+&+&+&+&+@+@+@+@++++++++++++++++++++++++++",
"+++++++++++++++++++++@+@+@+@+%+%+%+%+[+}+|+%+%+@+@+@+@+@+@+@+@+@+@+@+@+@+@++++++++++++++++++++++++++",
"+++++++++++++++++++++@+@+@+@+%+%+%+1+%+2+{+%+%+@+@+@+@+@+@+@+@+@+@+@+@+@++++++++++++++++++++++++++++",
"+++++++++++++++++++++@+@+@+@+%+%+%+3+4+5+{+%+%+%+%+&+&+&+@+@+@+@+@+@+@+@++++++++++++++++++++++++++++",
"+++++++++++++++++++++@+@+@+@+%+%+}+6+7+8+%+%+%+%+%+%+%+%+%+%+&+@+@+@+@+@+@++++++++++++++++++++++++++",
"+++++++++++++++++++++@+@+@+@+%+%+9+0+a+3+6+%+3+b+c+d+%+%+%+%+%+%+#+@+@+@+@+@++++++++++++++++++++++++",
"+++++++++++++++++++++@+@+@+@+%+%+e+f+e+6+1+g+h+i+j+}+k+l+3+%+%+%+%+$+@+@+@+@++++++++++++++++++++++++",
"+++++++++++++++++++++@+@+@+@+%+%+m+}+j+f+n+o+d+p+q+r+s+t+u+n+v+a+%+%+$+@+@+@+@++++++++++++++++++++++",
"+++++++++++++++++++++@+@+@+@+%+%+n+w+x+y+y+z+A+g+A+B+C+D+E+p+t+F+}+%+%+#+@+@+@+@++++++++++++++++++++",
"+++++++++++++++++++++@+@+@+@+%+%+1+w+m+G+n+d+%+%+%+t+F+H+I+J+i+K+L+%+%+%+@+@+@+@++++++++++++++++++++",
"+++++++++++++++++++++@+@+@+@+$+%+1+M+%+%+%+%+%+%+%+%+%+%+6+N+O+P+Q+i+%+%+&+@+@+@+@++++++++++++++++++",
"+++++++++++++++++++++++@+@+@+#+%+%+%+%+%+%+$+&+&+&+%+%+%+%+R+S+T+U+V+s+%+%+@+@+@+@++++++++++++++++++",
"+++++++++++++++++++++++@+@+@+@+#+&+&+&+#+@+@+@+@+@+@+#+%+%+%+O+W+X+Y+p+%+%+@+@+@+@++++++++++++++++++",
"+++++++++++++++++++++++++@+@+@+@+@+@+@+@+@+@+@+@+@+@+@+#+%+%+u+Z@+@@@#+%+%+&+@+@+@++++++++++++++++++",
"+++++++++++++++++++++++++++@+@+@+@+@+@+@+@+@+@+@+@+@+@+@+$+%+i@$@%@&@*+%+%+&+@+@+@++++++++++++++++++",
"+++++++++++++++++++++++++++++@+@+@+@+@+@+@+@+@+@+@+@+@+@+&+%+%@=@-@;@>+%+%+&+@+@+@+@++++++++++++++++",
"+++++++++++++++++++++++++++@+@+@+@+@+@+@+@+@+@+@+@+@+@+@+&+%+%@,@'@)@!+%+%+&+@+@+@+@++++++++++++++++",
"+++++++++++++++++++++++++@+@+@+@+@+@+@+@+@+@+@+@+@+@+@+@+$+%@~@{@]@^@/+%+%+&+@+@+@+@++++++++++++++++",
"+++++++++++++++++++++++@+@+@+@+@+@+@+@+@+@+@+@+@+@+@+@+#+%+%@%@(@_@:@<+%+%+&+@+@+@+@++++++++++++++++",
"+++++++++++++++++++++@+@+@+@+$+%+%+&+@+@+@+@+@+@+@+@+#+$+%+%@[@}@|@1@2+%+%+#+@+@+@++++++++++++++++++",
"+++++++++++++++++++++@+@+@+$+%+%+%+%+%+$+&+&+&+&+&+&+%+%+%@3@4@5@6@7@8+%+%+@+@+@+@++++++++++++++++++",
"+++++++++++++++++++@+@+@+#+%+%@9@0+%+%+%+%+%+%+%+%+%+%+%@a@b@c@d@e@f+%+%+&+@+@+@+@++++++++++++++++++",
"+++++++++++++++++++@+@+@+&+%+%@g@h@i@j@k+%+%+%+%+%+%@l@m@n@o@p@q@r@s+%+%+#+@+@+@+@++++++++++++++++++",
"+++++++++++++++++++@+@+@+&+%+%@t@u@v@w@x@y@z@A@B@C@D@E@F@G@H@I@J@K+%+%+&+@+@+@+@++++++++++++++++++++",
"+++++++++++++++++@+@+@+@+&+%+%@L@M@N@O@P@Q@R@S@T@U@V@W@X@Y@D@Z#++%+%+$+@+@+@+@+@++++++++++++++++++++",
"+++++++++++++++++@+@+@+@+@+%+%#@###$#%#&#*#=#-#;#>#,#'#)#!#~+%+%+%+$+@+@+@+@+@++++++++++++++++++++++",
"+++++++++++++++++++@+@+@+@+$+%+%+%+%+%#{#]#^#/#(#_#:#<+%+%+%+%+%+&+@+@+@+@+@++++++++++++++++++++++++",
"+++++++++++++++++++@+@+@+@+@+&+%+%+%+%+%+%+%+%+%+%+%+%+%+%+%+$+#+@+@+@+@+@++++++++++++++++++++++++++",
"+++++++++++++++++++++@+@+@+@+@+@+#+&+&+%+%+%+%+%+%+%+%+&+&+@+@+@+@+@+@+@+@++++++++++++++++++++++++++",
"+++++++++++++++++++++++@+@+@+@+@+@+@+@+@+@+@+@+@+@+@+@+@+@+@+@+@+@+@+@+@++++++++++++++++++++++++++++",
"+++++++++++++++++++++++++@+@+@+@+@+@+@+@+@+@+@+@+@+@+@+@+@+@+@+@+@+@++++++++++++++++++++++++++++++++",
"+++++++++++++++++++++++++++@+@+@+@+@+@+@+@+@+@+@+@+@+@+@+@+@+@+@++++++++++++++++++++++++++++++++++++",
"+++++++++++++++++++++++++++++++++@+@+@+@+@+@+@+@+@+@+@+@+@+@++++++++++++++++++++++++++++++++++++++++",
"++++++++++++++++++++++++++++++++++++++++++++++++++++++++++++++++++++++++++++++++++++++++++++++++++++",
"++++++++++++++++++++++++++++++++++++++++++++++++++++++++++++++++++++++++++++++++++++++++++++++++++++",
"++++++++++++++++++++++++++++++++++++++++++++++++++++++++++++++++++++++++++++++++++++++++++++++++++++"};
