/* XPM */
static char * ball_red_xpm[] = {
"50 50 175 2",
"@W c #3F2B01",
"@V c #7F4E00",
"@U c #7F5A05",
"@T c #7F5102",
"@S c #7F4800",
"@R c #7F5703",
"@Q c #7F6611",
"@P c #7F701B",
"@O c #7F6612",
"@N c #7F4C00",
"@M c #7F4902",
"@L c #7F610D",
"@K c #7F3F00",
"@J c #7F530A",
"@I c #7F5909",
"@H c #7F6915",
"@G c #7F5702",
"@F c #3F2600",
"@E c #7F470C",
"@D c #FF9C1A",
"@C c #FF7E0A",
"@B c #FA7A0B",
"@A c #FF9819",
"@z c #FF9116",
"@y c #FE800C",
"@x c #FF8314",
"@w c #FD7403",
"@v c #FF820F",
"@u c #FB700A",
"@t c #FF8005",
"@s c #FFA025",
"@r c #FF9816",
"@q c #FF7600",
"@p c #F37612",
"@o c #FF8E13",
"@n c #FC7E09",
"@m c #7F3D00",
"@l c #7D2D01",
"@k c #FF6002",
"@j c #F9600A",
"@i c #FF7D0C",
"@h c #FF6A06",
"@g c #FF8C1A",
"@f c #FF6C02",
"@e c #FFA736",
"@d c #FF780D",
"@c c #F95B06",
"@b c #FA7B19",
"@a c #F95B01",
"@0 c #FD6602",
"@9 c #FF7F13",
"@8 c #FF7104",
"@7 c #FF871A",
"@6 c #FF7E12",
"@5 c #FF8B1D",
"@4 c #7F5118",
"@3 c #7F4311",
"@2 c #F84B06",
"@1 c #FC5705",
"@| c #FF6E0D",
"@} c #FD5000",
"@[ c #FF6404",
"@< c #FF5809",
"@: c #FF620A",
"@_ c #F75910",
"@( c #FB5808",
"@/ c #FD5F08",
"@^ c #F04D07",
"@] c #FF771B",
"@{ c #F84900",
"@~ c #FD4B00",
"@! c #FF690D",
"@) c #FF7815",
"@' c #F76C1A",
"@, c #7F3101",
"@> c #7F380E",
"@; c #FF4202",
"@- c #FF6013",
"@= c #F94007",
"@* c #7F3309",
"@& c #681503",
"@% c #EB3108",
"@$ c #F32401",
"@# c #EC2605",
"@@ c #7F1B00",
"@+ c #7B0E00",
"+Z c #F71300",
"+Y c #FF370B",
"+X c #E21506",
"+W c #7F1200",
"+V c #710000",
"+U c #F41202",
"+T c #FB1907",
"+S c #F61305",
"+R c #7B0100",
"+Q c #620000",
"+P c #C10000",
"+O c #F80F0D",
"+N c #D90000",
"+M c #550000",
"+L c #C30000",
"+K c #C60000",
"+J c #B90000",
"+I c #520000",
"+H c #8E0000",
"+G c #AD0000",
"+F c #460000",
"+E c #410000",
"+D c #920000",
"+C c #990000",
"+B c #A30000",
"+A c #580303",
"+z c #390000",
"+y c #600000",
"+x c #6F0303",
"+w c #670000",
"+v c #450000",
"+u c #1B0000",
"+t c #4E0000",
"+s c #400000",
"+r c #5E0000",
"+q c #280505",
"+p c #2B0000",
"+o c #4E0101",
"+n c #3B0B0B",
"+m c #620A0A",
"+l c #1D0000",
"+k c #2E0000",
"+j c #490000",
"+i c #270000",
"+h c #2D0000",
"+g c #3D0000",
"+f c #250000",
"+e c #260000",
"+d c #531717",
"+c c #120000",
"+b c #380000",
"+a c #0C0000",
"+0 c #0B0000",
"+9 c #460303",
"+8 c #190000",
"+7 c #350000",
"+6 c #210000",
"+5 c #1E0000",
"+4 c #160000",
"+3 c #140000",
"+2 c #270101",
"+1 c #070000",
"+| c #190808",
"+} c #080000",
"+[ c #170404",
"+< c #260F0F",
"+: c #0D0000",
"+_ c #0F0101",
"+( c #1B0404",
"+/ c #0A0000",
"+^ c #090000",
"+] c #0C0404",
"+{ c #050000",
"+~ c #150A0A",
"+! c #020000",
"+) c #030000",
"+' c #090606",
"+, c #010000",
"+> c #050505",
"+; c #020202",
"+- c #040404",
"+= c #010101",
"+* c #030303",
"+& c #3F3F3F",
"+% c #000000",
"+$ c #7F7F7F",
"+# c #BFBFBF",
"+@ c #FFFFFF",
"++ c None",
"++++++++++++++++++++++++++++++++++++++++++++++++++++++++++++++++++++++++++++++++++++++++++++++++++++",
"++++++++++++++++++++++++++++++++++++++++++++++++++++++++++++++++++++++++++++++++++++++++++++++++++++",
"+++++++++++++++++++++++++++++++++++++++++++++++@+@+@++++++++++++++++++++++++++++++++++++++++++++++++",
"+++++++++++++++++++++++++++++++++++@+@+@+@+@+@+@+@+@+@+@++++++++++++++++++++++++++++++++++++++++++++",
"+++++++++++++++++++++++++++++++@+@+@+@+@+@+@+@+@+@+@+@+@+@++++++++++++++++++++++++++++++++++++++++++",
"+++++++++++++++++++++++++++@+@+@+@+@+@+@+@+@+@+@+@+@+@+@+@+@+@++++++++++++++++++++++++++++++++++++++",
"+++++++++++++++++++++++++@+@+@+@+@+@+@+@+@+@+@+#+$+$+$+#+@+@+@+@+@++++++++++++++++++++++++++++++++++",
"+++++++++++++++++++++++@+@+@+@+@+@+@+#+$+$+%+%+%+%+%+%+%+&+@+@+@+@++++++++++++++++++++++++++++++++++",
"+++++++++++++++++++++++@+@+@+@+$+%+%+%+%+%+%+%+%+%+%+%+%+%+$+@+@+@+@++++++++++++++++++++++++++++++++",
"+++++++++++++++++++++@+@+@+@+&+%+%+%+%+%+%+%+%+%+*+%+%+%+%+%+@+@+@+@++++++++++++++++++++++++++++++++",
"+++++++++++++++++++++@+@+@+#+%+%+%+=+%+%+%+%+-+;+%+-+>+%+%+%+@+@+@+@++++++++++++++++++++++++++++++++",
"+++++++++++++++++++++@+@+@+$+%+%+%+%+%+%+=+%+%+%+=+%+%+%+%+%+@+@+@+@++++++++++++++++++++++++++++++++",
"+++++++++++++++++++++@+@+@+$+%+%+,+%+%+%+%+%+%+%+%+%+'+%+%+%+@+@+@+@++++++++++++++++++++++++++++++++",
"+++++++++++++++++++++@+@+@+$+%+%+)+!+%+%+!+%+%+%+,+%+)+%+%+%+@+@+@+@++++++++++++++++++++++++++++++++",
"+++++++++++++++++++++@+@+@+#+%+%+%+%+%+%+%+%+%+%+%+%+~+%+%+%+@+@+@+@++++++++++++++++++++++++++++++++",
"+++++++++++++++++++++++@+@+@+%+%+%+%+%+%+%+%+%+{+%+,+)+]+%+%+@+@+@+@++++++++++++++++++++++++++++++++",
"+++++++++++++++++++++++@+@+@+#+&+%+%+&+$+$+%+%+%+{+%+%+%+%+%+@+@+@+@++++++++++++++++++++++++++++++++",
"+++++++++++++++++++++++++@+@+@+@+@+@+@+@+@+%+%+^+/+)+(+)+%+%+@+@+@+@++++++++++++++++++++++++++++++++",
"+++++++++++++++++++++++++@+@+@+@+@+@+@+@+@+%+%+_+:+:+<+%+%+%+@+@+@+@++++++++++++++++++++++++++++++++",
"+++++++++++++++++++++++++++@+@+@+@+@+@+@+@+%+%+[+}+|+^+1+%+%+@+@+@+@++++++++++++++++++++++++++++++++",
"+++++++++++++++++++++++++++++++@+@+@+@+@+@+%+%+/+2+/+3+%+%+%+@+@+@+@++++++++++++++++++++++++++++++++",
"+++++++++++++++++++++++++++++++++++@+@+@+@+%+%+4+5+6+7+8+%+%+@+@+@+@++++++++++++++++++++++++++++++++",
"+++++++++++++++++++++++++++++++++++@+@+@+@+%+%+3+5+6+9+0+%+%+@+@+@+@++++++++++++++++++++++++++++++++",
"+++++++++++++++++++++++++++++++++++@+@+@+@+%+%+a+b+c+d+e+%+%+@+@+@+@++++++++++++++++++++++++++++++++",
"+++++++++++++++++++++++++++++++++++@+@+@+@+%+%+f+g+h+3+3+%+%+@+@+@+@++++++++++++++++++++++++++++++++",
"+++++++++++++++++++++++++++++++++++@+@+@+@+%+%+e+i+j+k+l+%+%+@+@+@+@++++++++++++++++++++++++++++++++",
"+++++++++++++++++++++++++++++++++++@+@+@+@+%+%+^+m+n+o+p+%+%+@+@+@+@+@++++++++++++++++++++++++++++++",
"+++++++++++++++++++++++++++++++++++@+@+@+@+%+%+q+r+s+t+u+%+%+@+@+@+@+@++++++++++++++++++++++++++++++",
"+++++++++++++++++++++++++++++++++++@+@+@+@+%+%+v+w+x+y+z+%+%+@+@+@+@+@++++++++++++++++++++++++++++++",
"+++++++++++++++++++++++++++++++++++@+@+@+@+%+%+A+B+C+D+E+%+%+@+@+@+@+@++++++++++++++++++++++++++++++",
"+++++++++++++++++++++++++++++++++++@+@+@+@+%+%+F+D+G+H+s+%+%+@+@+@+@+@++++++++++++++++++++++++++++++",
"+++++++++++++++++++++++++++++++++@+@+@+@+@+%+%+I+J+K+L+M+%+%+@+@+@+@+@+@++++++++++++++++++++++++++++",
"+++++++++++++++++++++++++++++++@+@+@+@+@+@+%+%+r+N+O+P+Q+%+%+@+@+@+@+@+@+@++++++++++++++++++++++++++",
"+++++++++++++++++++++++++++@+@+@+@+@+@+@+@+%+%+R+S+T+U+V+%+%+@+@+@+@+@+@+@+@++++++++++++++++++++++++",
"+++++++++++++++++++++++++@+@+@+@+#+$+$+$+$+%+%+W+X+Y+Z@++%+%+$+$+$+$+#+@+@+@+@++++++++++++++++++++++",
"+++++++++++++++++++++++@+@+@+@+&+%+%+%+%+%+%+%@@@#@$@%@&+%+%+%+%+%+%+%+&+@+@+@+@++++++++++++++++++++",
"+++++++++++++++++++++++@+@+@+$+%+%+%+%+%+%+%+%@*@=@-@;@>+%+%+%+%+%+%+%+%+$+@+@+@++++++++++++++++++++",
"+++++++++++++++++++++++@+@+@+%+%@,@'@)@!@~@{@]@^@/@(@_@:@<@[@}@|@1@2@3+%+%+@+@+@+@++++++++++++++++++",
"+++++++++++++++++++++@+@+@+@+%+%@4@5@6@7@8@9@0@a@b@c@d@e@f@g@h@i@j@k@l+%+%+@+@+@+@++++++++++++++++++",
"+++++++++++++++++++++@+@+@+@+%+%@m@n@o@p@q@r@s@t@u@v@w@x@y@z@A@B@C@D@E+%+%+@+@+@+@++++++++++++++++++",
"+++++++++++++++++++++++@+@+@+&+%@F@G@H@I@J@K@L@M@N@O@P@Q@R@S@N@T@U@V@W+%+%+@+@+@+@++++++++++++++++++",
"+++++++++++++++++++++++@+@+@+#+%+%+%+%+%+%+%+%+%+%+%+%+%+%+%+%+%+%+%+%+%+#+@+@+@++++++++++++++++++++",
"+++++++++++++++++++++++@+@+@+@+#+&+%+%+%+%+%+%+%+%+%+%+%+%+%+%+%+%+%+&+#+@+@+@+@++++++++++++++++++++",
"+++++++++++++++++++++++++@+@+@+@+@+@+@+@+@+@+@+@+@+@+@+@+@+@+@+@+@+@+@+@+@+@+@++++++++++++++++++++++",
"+++++++++++++++++++++++++++@+@+@+@+@+@+@+@+@+@+@+@+@+@+@+@+@+@+@+@+@+@+@+@+@++++++++++++++++++++++++",
"+++++++++++++++++++++++++++++@+@+@+@+@+@+@+@+@+@+@+@+@+@+@+@+@+@+@+@+@+@+@++++++++++++++++++++++++++",
"+++++++++++++++++++++++++++++++++++@+@+@+@+@+@+@+@+@+@+@+@+@+@+@+@+@+@+@++++++++++++++++++++++++++++",
"+++++++++++++++++++++++++++++++++++++++++++++++++++++@+@+@+@++++++++++++++++++++++++++++++++++++++++",
"++++++++++++++++++++++++++++++++++++++++++++++++++++++++++++++++++++++++++++++++++++++++++++++++++++",
"++++++++++++++++++++++++++++++++++++++++++++++++++++++++++++++++++++++++++++++++++++++++++++++++++++"};
