/* XPM */
static char * ball_red_xpm[] = {
"50 50 239 2",
"#x c #3F2600",
"#w c #BF8402",
"#v c #FFC019",
"#u c #FFC910",
"#t c #FFC311",
"#s c #FFC613",
"#r c #FFD41B",
"#q c #FFC30F",
"#p c #7C4E09",
"#o c #3E1C00",
"#n c #3F2001",
"#m c #B76619",
"#l c #FF9217",
"#k c #FF8609",
"#j c #FF8605",
"#i c #FF961B",
"#h c #FF7D13",
"#g c #FFAA29",
"#f c #FB7D0F",
"#e c #FF8D11",
"#d c #FF8511",
"#c c #FF8F15",
"#b c #7A4011",
"#a c #3F260B",
"#0 c #FF9725",
"#9 c #FF8116",
"#8 c #FD6503",
"#7 c #F55E06",
"#6 c #FF800F",
"#5 c #FB5F07",
"#4 c #FF7612",
"#3 c #FA8121",
"#2 c #F95800",
"#1 c #FF6B0E",
"#| c #FF6C03",
"#} c #FFA938",
"#[ c #FD700C",
"#< c #BF4806",
"#: c #3C0B00",
"#_ c #FF6D0C",
"#( c #FF6A11",
"#/ c #FF5C0D",
"#^ c #FF5702",
"#] c #F2470C",
"#{ c #B9460E",
"#~ c #742305",
"#! c #7F2D00",
"#) c #7A2500",
"#' c #7F2800",
"#, c #F86011",
"#> c #FC5005",
"#; c #FF6309",
"#- c #EC3F02",
"#= c #FF6005",
"#* c #BF5E14",
"#& c #FF6013",
"#% c #FF5A11",
"#$ c #F94B08",
"## c #FB3F02",
"#@ c #FF5E0E",
"#+ c #3F1E08",
"@Z c #7F1F00",
"@Y c #F73300",
"@X c #FA4203",
"@W c #FE5F18",
"@V c #F33808",
"@U c #7B1400",
"@T c #711705",
"@S c #F63E0D",
"@R c #FF5310",
"@Q c #F63D0F",
"@P c #FD420D",
"@O c #3F0F00",
"@N c #3F1000",
"@M c #D61000",
"@L c #F22200",
"@K c #F23C07",
"@J c #EE3408",
"@I c #E41105",
"@H c #F41C00",
"@G c #EC2A11",
"@F c #F52407",
"@E c #7F1C04",
"@D c #BA1800",
"@C c #D20000",
"@B c #F52709",
"@A c #F02100",
"@z c #6E1608",
"@y c #E80E08",
"@x c #D70000",
"@w c #F21C13",
"@v c #D00000",
"@u c #3F0200",
"@t c #E60A02",
"@s c #F70300",
"@r c #D90100",
"@q c #E50000",
"@p c #7F0502",
"@o c #BB0000",
"@n c #D60000",
"@m c #D50000",
"@l c #DB0000",
"@k c #ED0000",
"@j c #C80000",
"@i c #C9100D",
"@h c #E80401",
"@g c #300000",
"@f c #460000",
"@e c #990000",
"@d c #AC0000",
"@c c #9F0000",
"@b c #C60000",
"@a c #C30000",
"@0 c #C10000",
"@9 c #5A0000",
"@8 c #4E0000",
"@7 c #9B0000",
"@6 c #920000",
"@5 c #CE0000",
"@4 c #4A0000",
"@3 c #980000",
"@2 c #970000",
"@1 c #870000",
"@| c #930000",
"@} c #3D0000",
"@[ c #6E0000",
"@< c #890000",
"@: c #880000",
"@_ c #290000",
"@( c #940000",
"@/ c #610000",
"@^ c #8F0000",
"@] c #6F0000",
"@{ c #790000",
"@~ c #580000",
"@! c #650000",
"@) c #670000",
"@' c #660000",
"@, c #7C0202",
"@> c #710000",
"@; c #7A0404",
"@- c #7D0000",
"@= c #450000",
"@* c #4C0000",
"@& c #350000",
"@% c #5E0404",
"@$ c #560000",
"@# c #490101",
"@@ c #580606",
"@+ c #5B0101",
"+Z c #570000",
"+Y c #410000",
"+X c #400000",
"+W c #360000",
"+V c #500202",
"+U c #600606",
"+T c #3A0000",
"+S c #510000",
"+R c #270000",
"+Q c #480000",
"+P c #260000",
"+O c #3C0000",
"+N c #410606",
"+M c #400101",
"+L c #210000",
"+K c #1F0000",
"+J c #280000",
"+I c #450808",
"+H c #110000",
"+G c #310000",
"+F c #230000",
"+E c #470101",
"+D c #330000",
"+C c #2F0000",
"+B c #370D0D",
"+A c #3E0202",
"+z c #3F0000",
"+y c #380000",
"+x c #3B0000",
"+w c #2B0000",
"+v c #0B0000",
"+u c #1C0000",
"+t c #2E0606",
"+s c #160000",
"+r c #2F0101",
"+q c #170000",
"+p c #320000",
"+o c #240000",
"+n c #100000",
"+m c #340000",
"+l c #120000",
"+k c #1B0000",
"+j c #200000",
"+i c #260101",
"+h c #2E0000",
"+g c #2E0101",
"+f c #2A0000",
"+e c #2D0404",
"+d c #170101",
"+c c #1D0000",
"+b c #190000",
"+a c #1A0000",
"+0 c #260202",
"+9 c #050000",
"+8 c #1C0909",
"+7 c #130101",
"+6 c #220000",
"+5 c #210202",
"+4 c #0C0000",
"+3 c #180000",
"+2 c #0D0000",
"+1 c #2E0707",
"+| c #150000",
"+} c #0E0000",
"+[ c #1E0000",
"+< c #130000",
"+: c #0F0000",
"+_ c #060000",
"+( c #090000",
"+/ c #070000",
"+^ c #030000",
"+] c #080000",
"+{ c #040000",
"+~ c #0A0000",
"+! c #0C0909",
"+) c #020000",
"+' c #050404",
"+, c #010000",
"+> c #080808",
"+; c #010101",
"+- c #060606",
"+= c #040404",
"+* c #030303",
"+& c #3F3F3F",
"+% c #BFBFBF",
"+$ c #000000",
"+# c #7F7F7F",
"+@ c #FFFFFF",
"++ c None",
"++++++++++++++++++++++++++++++++++++++++++++++++++++++++++++++++++++++++++++++++++++++++++++++++++++",
"++++++++++++++++++++++++++++++++++++++++++++++++++++++++++++++++++++++++++++++++++++++++++++++++++++",
"+++++++++++++++++++++++++++++++++++++++++++++++++++@+@+@+@+@++++++++++++++++++++++++++++++++++++++++",
"+++++++++++++++++++++++++++++++++++++++++++++@+@+@+@+@+@+@+@+@+@+@+@+@+@++++++++++++++++++++++++++++",
"+++++++++++++++++++++++++++++++++++++++@+@+@+@+@+@+@+@+@+@+@+@+@+@+@+@+@+@++++++++++++++++++++++++++",
"+++++++++++++++++++++++++++++++++++++@+@+@+@+@+@+@+@+@+@+@+@+@+@+@+@+@+@+@+@++++++++++++++++++++++++",
"+++++++++++++++++++++++++++++++++++@+@+@+@+@+@+@+#+#+#+$+$+#+#+#+%+@+@+@+@+@+@++++++++++++++++++++++",
"+++++++++++++++++++++++++++++++++@+@+@+@+@+%+&+$+$+$+$+$+$+$+$+$+$+$+#+%+@+@+@+@++++++++++++++++++++",
"+++++++++++++++++++++++++++++++@+@+@+@+%+&+$+$+$+$+$+$+$+$+$+$+$+$+$+$+$+%+@+@+@++++++++++++++++++++",
"+++++++++++++++++++++++++++++@+@+@+@+%+$+$+$+$+*+$+=+$+$+-+;+$+$+$+>+$+$+$+@+@+@+@++++++++++++++++++",
"+++++++++++++++++++++++++++@+@+@+@+&+$+$+$+$+$+$+$+$+$+-+$+*+$+$+>+$+$+$+$+@+@+@+@++++++++++++++++++",
"+++++++++++++++++++++++++++@+@+@+%+$+$+$+$+$+$+$+$+$+$+$+$+$+$+;+$+$+$+$+$+@+@+@+@++++++++++++++++++",
"+++++++++++++++++++++++++@+@+@+%+$+$+,+$+$+'+$+$+$+;+$+$+$+$+$+$+$+$+$+$+$+@+@+@+@++++++++++++++++++",
"+++++++++++++++++++++++@+@+@+@+&+$+$+)+$+!+$+$+$+$+$+$+$+$+$+$+$+$+$+$+$+$+@+@+@+@++++++++++++++++++",
"+++++++++++++++++++++++@+@+@+%+$+$+$+$+$+$+~+$+$+$+$+&+#+#+&+$+$+$+$+$+$+#+@+@+@++++++++++++++++++++",
"+++++++++++++++++++++@+@+@+@+&+$+$+$+$+$+{+$+$+$+#+@+@+@+@+@+@+%+#+#+#+#+@+@+@+@++++++++++++++++++++",
"+++++++++++++++++++++@+@+@+@+$+$+]+^+/+(+_+$+$+%+@+@+@+@+@+@+@+@+@+@+@+@+@+@+@++++++++++++++++++++++",
"+++++++++++++++++++@+@+@+@+#+$+$+$+_+:+<+$+$+$+#+#+&+$+&+#+#+@+@+@+@+@+@+@+@++++++++++++++++++++++++",
"+++++++++++++++++++@+@+@+@+$+$+(+[+_+}+<+$+$+$+$+$+$+$+$+$+$+$+&+%+@+@+@+@+@+@++++++++++++++++++++++",
"+++++++++++++++++++@+@+@+@+$+$+|+1+2+3+^+$+$+$+$+,+4+{+$+$+$+$+$+$+&+%+@+@+@+@++++++++++++++++++++++",
"+++++++++++++++++++@+@+@+%+$+$+:+5+6+]+7+$+$+8+(+9+0+a+b+c+c+d+$+$+$+$+%+@+@+@+@++++++++++++++++++++",
"+++++++++++++++++++@+@+@+#+$+$+e+f+g+h+_+]+i+j+<+(+k+l+m+n+(+o+~+<+$+$+$+%+@+@+@++++++++++++++++++++",
"+++++++++++++++++++@+@+@+#+$+$+p+q+q+}+2+r+s+t+f+:+}+h+s+b+u+v+w+n+b+$+$+&+@+@+@+@++++++++++++++++++",
"+++++++++++++++++++@+@+@+#+$+$+x+u+y+z+m+A+B+g+s+a+$+$+,+|+}+C+D+x+E+F+$+$+#+@+@+@++++++++++++++++++",
"+++++++++++++++++++@+@+@+#+$+$+G+H+o+a+p+I+J+:+$+$+$+$+$+$+$+w+b+J+K+K+$+$+$+@+@+@+@++++++++++++++++",
"+++++++++++++++++@+@+@+@+#+$+$+L+M+F+N+O+P+9+$+$+$+#+#+$+$+$+$+Q+R+S+T+2+$+$+#+@+@+@++++++++++++++++",
"+++++++++++++++++@+@+@+@+#+$+$+U+V+W+X+Y+K+$+$+&+@+@+@+@+%+$+$+}+w+Z@+@@+$+$+#+@+@+@+@++++++++++++++",
"+++++++++++++++++++@+@+@+#+$+$@#@$@%+K+O+:+$+$+@+@+@+@+@+@+&+$+$@&@*@=+z+:+$+$+@+@+@+@++++++++++++++",
"+++++++++++++++++++@+@+@+#+$+$@-+S@;@>@,+$+$+#+@+@+@+@+@+@+%+$+$@'@)@!@~+P+$+$+@+@+@+@++++++++++++++",
"+++++++++++++++++++@+@+@+%+$+$@{@]@^@/@(+$+$+#+@+@+@+@+@+@+@+$+$@_@:@<@[@}+$+$+@+@+@+@++++++++++++++",
"+++++++++++++++++++@+@+@+@+$+$+D@|@1@2@3+$+$+#+@+@+@+@+@+@+@+$+$@4@5@6@7@8+$+$+@+@+@+@++++++++++++++",
"+++++++++++++++++++@+@+@+@+$+$@9@0@a@b@0+$+$+#+@+@+@+@+@+@+@+$+$@'@c@d@e@f+$+$+@+@+@+@++++++++++++++",
"+++++++++++++++++++@+@+@+@+#+$@g@h@i@j@k+$+$+#+@+@+@+@+@+@+#+$+$@l@m@n@o@p+$+$+@+@+@+@++++++++++++++",
"+++++++++++++++++++@+@+@+@+#+$+$@q@r@s@t@u+$+$+@+@+@+@+@+@+&+$+$@v@w@x@y+C+$+&+@+@+@+@++++++++++++++",
"+++++++++++++++++++@+@+@+@+%+$+$@z@A@B@C@D+$+$+&+@+@+@+@+&+$+$@E@F@G@H@I+$+$+#+@+@+@+@++++++++++++++",
"+++++++++++++++++++++@+@+@+@+&+$+$@J@K@L@M@N+$+$+$+$+$+$+$+$@O@P@Q@R@S@T+$+$+%+@+@+@+@++++++++++++++",
"+++++++++++++++++++++@+@+@+@+%+$+$@U@V@W@X@Y@Z+$+$+$+$+$+$#+#@###$#%#&+$+$+&+@+@+@+@++++++++++++++++",
"+++++++++++++++++++++++@+@+@+@+&+$+$#*#=#-#;#>#,#'#)#!#~#{#]#^#/#(#_#:+$+$+%+@+@+@+@++++++++++++++++",
"+++++++++++++++++++++++++@+@+@+%+$+$+$#<#[#}#|#1#2#3#4#5#6#7#8#9#0#a+$+$+&+@+@+@+@++++++++++++++++++",
"+++++++++++++++++++++++++@+@+@+@+%+$+$+$#b#c#d#e#f#g#h#i#j#k#l#m#n+$+$+&+@+@+@+@+@++++++++++++++++++",
"+++++++++++++++++++++++++++@+@+@+@+%+$+$+$#o#p#q#r#s#t#u#v#w#x+$+$+$+&+@+@+@+@+@++++++++++++++++++++",
"+++++++++++++++++++++++++++++@+@+@+@+%+&+$+$+$+$+$+$+$+$+$+$+$+$+$+#+@+@+@+@+@++++++++++++++++++++++",
"+++++++++++++++++++++++++++++++@+@+@+@+@+%+&+$+$+$+$+$+$+$+$+$+#+@+@+@+@+@+@+@++++++++++++++++++++++",
"+++++++++++++++++++++++++++++++++@+@+@+@+@+@+@+#+#+#+#+#+#+@+@+@+@+@+@+@+@++++++++++++++++++++++++++",
"+++++++++++++++++++++++++++++++++++@+@+@+@+@+@+@+@+@+@+@+@+@+@+@+@+@+@+@++++++++++++++++++++++++++++",
"+++++++++++++++++++++++++++++++++++++++@+@+@+@+@+@+@+@+@+@+@+@+@+@+@++++++++++++++++++++++++++++++++",
"+++++++++++++++++++++++++++++++++++++++++@+@+@+@+@+@+@+@+@+@+@+@++++++++++++++++++++++++++++++++++++",
"+++++++++++++++++++++++++++++++++++++++++++@+@+@+@+@+@+@+@++++++++++++++++++++++++++++++++++++++++++",
"++++++++++++++++++++++++++++++++++++++++++++++++++++++++++++++++++++++++++++++++++++++++++++++++++++",
"++++++++++++++++++++++++++++++++++++++++++++++++++++++++++++++++++++++++++++++++++++++++++++++++++++"};
