/* XPM */
static char * ball_red_xpm[] = {
"50 50 216 2",
"#a c #7F600A",
"#0 c #7F6302",
"#9 c #7F6605",
"#8 c #7F5600",
"#7 c #7F710F",
"#6 c #7F5A00",
"#5 c #7F6702",
"#4 c #3F1E00",
"#3 c #BF770E",
"#2 c #FFA712",
"#1 c #FFB920",
"#| c #FFAE17",
"#} c #FFA218",
"#[ c #F6900B",
"#< c #FFA309",
"#: c #FF9005",
"#_ c #FF8700",
"#( c #FFA012",
"#/ c #FFA816",
"#^ c #7F4803",
"#] c #BF670E",
"#{ c #FFA031",
"#~ c #FF810E",
"#! c #FF6A01",
"#) c #FF8F18",
"#' c #FD7813",
"#, c #FF8412",
"#> c #FF800D",
"#; c #FD6705",
"#- c #FF8915",
"#= c #FF8E1E",
"#* c #FF790E",
"#& c #FF8109",
"#% c #FF921D",
"#$ c #BF5B10",
"## c #FF5600",
"#@ c #FF7E16",
"#+ c #FC6F12",
"@Z c #FB6C10",
"@Y c #FF7015",
"@X c #FF7714",
"@W c #FF5F00",
"@V c #FF6D11",
"@U c #F95A07",
"@T c #FF6805",
"@S c #FD7819",
"@R c #FF6E0A",
"@Q c #FC650A",
"@P c #FD5100",
"@O c #BA3609",
"@N c #FF5704",
"@M c #FF5F0B",
"@L c #FF6B12",
"@K c #F64D09",
"@J c #BF4309",
"@I c #761A00",
"@H c #3F1700",
"@G c #7F4111",
"@F c #BF3E06",
"@E c #FF610F",
"@D c #7F1C00",
"@C c #FF4A0A",
"@B c #F33303",
"@A c #F43B08",
"@z c #EB1E00",
"@y c #7F2000",
"@x c #3F1804",
"@w c #360000",
"@v c #F21600",
"@u c #F32F06",
"@t c #E82602",
"@s c #F72803",
"@r c #7F1100",
"@q c #A40000",
"@p c #ED0A00",
"@o c #E10100",
"@n c #FD2609",
"@m c #AD0000",
"@l c #D60000",
"@k c #E70200",
"@j c #FE0300",
"@i c #DA0000",
"@h c #5B0000",
"@g c #D30000",
"@f c #C40000",
"@e c #BC0000",
"@d c #DC0000",
"@c c #AE0000",
"@b c #B00000",
"@a c #A50000",
"@0 c #A10000",
"@9 c #640000",
"@8 c #9A0000",
"@7 c #980C0C",
"@6 c #800000",
"@5 c #710B0B",
"@4 c #3C0000",
"@3 c #470000",
"@2 c #620000",
"@1 c #580000",
"@| c #150000",
"@} c #750000",
"@[ c #660000",
"@< c #710000",
"@: c #680000",
"@_ c #840303",
"@( c #6D0000",
"@/ c #590000",
"@^ c #260000",
"@] c #3B0000",
"@{ c #5D0000",
"@~ c #680101",
"@! c #3E0000",
"@) c #3F0000",
"@' c #5E0000",
"@, c #660202",
"@> c #670404",
"@; c #5F0000",
"@- c #5A0000",
"@= c #370202",
"@* c #440000",
"@& c #480000",
"@% c #450000",
"@$ c #3A0000",
"@# c #350000",
"@@ c #560000",
"@+ c #4A0000",
"+Z c #310000",
"+Y c #0F0000",
"+X c #330000",
"+W c #4F0000",
"+V c #4E0000",
"+U c #3B0101",
"+T c #2D0000",
"+S c #350303",
"+R c #570101",
"+Q c #500000",
"+P c #400000",
"+O c #380000",
"+N c #340000",
"+M c #430000",
"+L c #460000",
"+K c #4C0404",
"+J c #280000",
"+I c #390000",
"+H c #520404",
"+G c #250505",
"+F c #440202",
"+E c #2F0000",
"+D c #130000",
"+C c #370000",
"+B c #320101",
"+A c #4B0000",
"+z c #410A0A",
"+y c #290000",
"+x c #1E0000",
"+w c #2A0000",
"+v c #320000",
"+u c #230000",
"+t c #300000",
"+s c #1F0909",
"+r c #280101",
"+q c #2C0000",
"+p c #140000",
"+o c #1C0000",
"+n c #370606",
"+m c #370303",
"+l c #200000",
"+k c #250000",
"+j c #350808",
"+i c #110000",
"+h c #370707",
"+g c #250101",
"+f c #220000",
"+e c #1A0000",
"+d c #090000",
"+c c #1F0000",
"+b c #1E0D0D",
"+a c #0D0000",
"+0 c #1B0000",
"+9 c #170000",
"+8 c #190000",
"+7 c #160404",
"+6 c #0C0000",
"+5 c #180000",
"+4 c #0B0000",
"+3 c #220808",
"+2 c #160000",
"+1 c #0F0303",
"+| c #120000",
"+} c #0F0202",
"+[ c #0A0000",
"+< c #261010",
"+: c #080000",
"+_ c #030000",
"+( c #060000",
"+/ c #070000",
"+^ c #040101",
"+] c #050000",
"+{ c #020000",
"+~ c #040000",
"+! c #010000",
"+) c #040202",
"+' c #070707",
"+, c #0E0E0E",
"+> c #010101",
"+; c #0C0C0C",
"+- c #020202",
"+= c #141414",
"+* c #050505",
"+& c #000000",
"+% c #3F3F3F",
"+$ c #7F7F7F",
"+# c #BFBFBF",
"+@ c #FFFFFF",
"++ c None",
"++++++++++++++++++++++++++++++++++++++++++++++++++++++++++++++++++++++++++++++++++++++++++++++++++++",
"++++++++++++++++++++++++++++++++++++++++++++++++++++++++++++++++++++++++++++++++++++++++++++++++++++",
"+++++++++++++++++++++++++++++++++++++++++++++++++@+@+@+@+@+@+@++++++++++++++++++++++++++++++++++++++",
"+++++++++++++++++++++++++++++++++++++@+@+@+@+@+@+@+@+@+@+@+@+@+@++++++++++++++++++++++++++++++++++++",
"+++++++++++++++++++++++++++++++++++@+@+@+@+@+@+@+@+@+@+@+@+@+@+@+@++++++++++++++++++++++++++++++++++",
"+++++++++++++++++++++++++++++++@+@+@+@+@+@+@+@+#+$+@+@+@+@+@+@+@+@+@+@++++++++++++++++++++++++++++++",
"+++++++++++++++++++++++++++++@+@+@+@+@+$+%+&+&+&+&+&+&+&+$+#+@+@+@+@+@+@+@++++++++++++++++++++++++++",
"+++++++++++++++++++++++++++@+@+@+@+$+&+&+&+&+&+&+&+&+&+&+&+&+%+#+@+@+@+@+@+@++++++++++++++++++++++++",
"+++++++++++++++++++++++++@+@+@+#+&+&+&+&+&+&+&+&+&+*+&+&+&+&+&+&+%+@+@+@+@+@++++++++++++++++++++++++",
"+++++++++++++++++++++++@+@+@+#+&+&+&+&+&+&+&+&+=+&+&+-+&+&+&+&+&+&+%+@+@+@+@+@++++++++++++++++++++++",
"+++++++++++++++++++++@+@+@+@+&+&+&+&+-+&+&+;+&+&+&+>+&+&+&+&+&+&+&+&+$+@+@+@+@++++++++++++++++++++++",
"+++++++++++++++++++++@+@+@+%+&+&+&+&+&+&+&+>+&+,+&+&+'+*+&+&+&+&+&+&+&+#+@+@+@++++++++++++++++++++++",
"+++++++++++++++++++@+@+@+#+&+&+&+&+)+&+&+&+&+&+&+&+&+&+&+&+&+&+!+&+&+&+%+@+@+@+@++++++++++++++++++++",
"+++++++++++++++++++@+@+@+$+&+&+~+{+&+]+!+&+&+&+&+&+&+&+&+^+&+&+{+&+&+&+&+#+@+@+@+@++++++++++++++++++",
"+++++++++++++++++++@+@+@+&+&+&+&+]+/+&+&+&+&+$+@+@+#+&+&+&+&+~+~+]+(+&+&+$+@+@+@+@++++++++++++++++++",
"+++++++++++++++++@+@+@+@+&+&+&+&+&+&+&+&+&+$+@+@+@+@+@+&+&+&+&+&+_+{+&+&+&+@+@+@+@++++++++++++++++++",
"+++++++++++++++++@+@+@+$+&+&+{+&+:+{+&+&+&+@+@+@+@+@+@+$+&+&+<+[+[+}+|+&+&+#+@+@+@++++++++++++++++++",
"+++++++++++++++++@+@+@+$+&+&+1+:+2+3+4+&+&+@+@+@+@+@+@+#+&+&+&+5+6+!+7+&+&+$+@+@+@++++++++++++++++++",
"+++++++++++++++++@+@+@+$+&+&+8+&+8+9+&+&+$+@+@+@+@+@+@+@+&+&+(+0+~+(+a+&+&+$+@+@+@++++++++++++++++++",
"+++++++++++++++++@+@+@+$+&+&+4+6+9+b+&+&+$+@+@+@+@+@+@+@+&+&+c+:+|+d+]+|+&+&+@+@+@++++++++++++++++++",
"+++++++++++++++++@+@+@+$+&+&+e+f+g+h+~+&+&+@+@+@+@+@+@+$+&+&+i+e+[+j+k+_+&+&+@+@+@++++++++++++++++++",
"+++++++++++++++++@+@+@+#+&+&+l+i+m+n+i+&+&+#+@+@+@+@+@+%+&+&+o+p+q+~+r+s+&+&+@+@+@+@++++++++++++++++",
"+++++++++++++++++++@+@+@+&+&+q+t+u+l+o+&+&+%+@+@+@+@+#+&+&+&+v+w+t+x+y+c+&+&+@+@+@+@++++++++++++++++",
"+++++++++++++++++++@+@+@+&+&+!+z+A+B+C+_+&+&+&+$+$+%+&+&+&+D+o+E+E+u+F+G+&+&+@+@+@+@++++++++++++++++",
"+++++++++++++++++++@+@+@+$+&+&+u+H+q+I+J+4+&+&+&+&+&+&+&+K+u+L+f+p+M+N+/+&+&+@+@+@+@+@++++++++++++++",
"+++++++++++++++++++@+@+@+@+&+&+a+I+O+P+Q+R+E+S+&+&+:+/+J+T+U+C+M+V+V+W+X+&+&+@+@+@+@+@++++++++++++++",
"+++++++++++++++++++++@+@+@+$+&+&+Y+Z+O+M@+@@@#@$@%+O@@+X@&@*+D+E+Q@=@-+k+&+&+@+@+@+@++++++++++++++++",
"+++++++++++++++++++++@+@+@+@+%+&+&+D@;@$@+@>@,+W@'@)@+@)+V+i+&@+@!@~@{@]+&+&+@+@+@+@++++++++++++++++",
"+++++++++++++++++++++@+@+@+@+@+%+&+&+&@^@/@(@_@:@<@[@}@-@|+&+E@(@1@2@:+C+&+&+@+@+@+@++++++++++++++++",
"+++++++++++++++++++++++@+@+@+@+@+%+&+&+&+&+&@3@4@)+q+&+&+&+&@5@}@6@7@8+&+&+$+@+@+@+@++++++++++++++++",
"+++++++++++++++++++++++++@+@+@+@+@+#+%+&+&+&+&+&+&+&+&+&+&+&@9@0@a@b@c+&+&+$+@+@+@++++++++++++++++++",
"+++++++++++++++++++++++++@+@+@+@+@+@+@+@+$+$+&+&+&+%+$+%+&+&@d@e@f@g@h+&+&+@+@+@+@++++++++++++++++++",
"+++++++++++++++++++++++++@+@+@+@+@+@+@+@+@+@+@+@+@+@+@+&+&+O@i@j@k@l+u+&+%+@+@+@+@++++++++++++++++++",
"+++++++++++++++++++++++@+@+@+@+$+$+#+@+@+@+@+@+@+@+#+%+&+&@m@n@o@p@q+&+&+$+@+@+@+@++++++++++++++++++",
"+++++++++++++++++++++@+@+@+@+%+&+&+&+&+%+$+$+$+$+$+&+&+&@r@s@t@u@v@w+&+&+@+@+@+@+@++++++++++++++++++",
"+++++++++++++++++++++@+@+@+$+&+&@x+&+&+&+&+&+&+&+&+&+&@y@z@A@B@C@D+&+&+$+@+@+@+@++++++++++++++++++++",
"+++++++++++++++++++@+@+@+@+$+&+&@E@F@G@H+&+&+&+&+&@I@J@K@L@M@N@O+&+&+%+@+@+@+@+@++++++++++++++++++++",
"+++++++++++++++++++@+@+@+@+$+&+&@P@Q@R@S@T@U@V@W@X@Y@Z#+#@###$+&+&+&+#+@+@+@+@+@++++++++++++++++++++",
"+++++++++++++++++++@+@+@+@+$+&+&#%#&#*#=#-#;#>#,#'#)#!#~#{#]+&+&+&+#+@+@+@+@+@++++++++++++++++++++++",
"+++++++++++++++++++@+@+@+@+$+&+&#^#/#(#_#:#<#[#}#|#1#2#3#4+&+&+&+#+@+@+@+@+@++++++++++++++++++++++++",
"+++++++++++++++++++++@+@+@+@+&+&+&+&+&#5#6#7#8#9#0#a+&+&+&+&+%+#+@+@+@+@+@+@++++++++++++++++++++++++",
"+++++++++++++++++++++@+@+@+@+#+%+&+&+&+&+&+&+&+&+&+&+&+&+&+#+@+@+@+@+@+@+@++++++++++++++++++++++++++",
"+++++++++++++++++++++++@+@+@+@+@+@+$+$+&+&+&+&+&+&+%+$+#+@+@+@+@+@+@+@+@++++++++++++++++++++++++++++",
"+++++++++++++++++++++++++@+@+@+@+@+@+@+@+@+@+@+@+@+@+@+@+@+@+@+@+@+@+@++++++++++++++++++++++++++++++",
"+++++++++++++++++++++++++++++@+@+@+@+@+@+@+@+@+@+@+@+@+@+@+@+@+@+@+@++++++++++++++++++++++++++++++++",
"+++++++++++++++++++++++++++++++++@+@+@+@+@+@+@+@+@+@+@+@+@+@+@++++++++++++++++++++++++++++++++++++++",
"+++++++++++++++++++++++++++++++++++++@+@+@+@+@+@+@+@+@+@+@++++++++++++++++++++++++++++++++++++++++++",
"+++++++++++++++++++++++++++++++++++++++++++++@+@+@+@++++++++++++++++++++++++++++++++++++++++++++++++",
"++++++++++++++++++++++++++++++++++++++++++++++++++++++++++++++++++++++++++++++++++++++++++++++++++++",
"++++++++++++++++++++++++++++++++++++++++++++++++++++++++++++++++++++++++++++++++++++++++++++++++++++"};
