/* XPM */
static char * ball_red_xpm[] = {
"50 50 189 2",
"#> c #7F6110",
"#; c #7F5207",
"#- c #7F5A0D",
"#= c #7F580A",
"#* c #7F4C04",
"#& c #7F5504",
"#% c #7F6511",
"#$ c #7F5D08",
"## c #7D4500",
"#@ c #7F5907",
"#+ c #7F5908",
"@Z c #7F5501",
"@Y c #7F4D00",
"@X c #7F5D0F",
"@W c #7F5507",
"@V c #7F5401",
"@U c #7F4C00",
"@T c #7F4F05",
"@S c #3F2700",
"@R c #FF9115",
"@Q c #FF9B1A",
"@P c #FFA11E",
"@O c #FB8915",
"@N c #FF8E10",
"@M c #FC901E",
"@L c #FF8E0E",
"@K c #FFAC2A",
"@J c #FF941B",
"@I c #FFAD2C",
"@H c #FE7B0F",
"@G c #FFA128",
"@F c #FF8509",
"@E c #FF9411",
"@D c #FD7D08",
"@C c #FF9618",
"@B c #FFA224",
"@A c #FF981B",
"@z c #FF8409",
"@y c #7F5312",
"@x c #FF5800",
"@w c #FD811B",
"@v c #FE730D",
"@u c #FF9C2B",
"@t c #FF6906",
"@s c #FF7E0C",
"@r c #FE740D",
"@q c #FF7508",
"@p c #FE5800",
"@o c #FF861D",
"@n c #FF8F1E",
"@m c #FE5200",
"@l c #FF7F19",
"@k c #FF8313",
"@j c #FF7E17",
"@i c #FF9523",
"@h c #FF9625",
"@g c #F8630E",
"@f c #7F3303",
"@e c #FF5704",
"@d c #FF7E1B",
"@c c #F53A00",
"@b c #FE5704",
"@a c #FC4C00",
"@0 c #F8570D",
"@9 c #FC6008",
"@8 c #FE5103",
"@7 c #F54E07",
"@6 c #F5520A",
"@5 c #F95D11",
"@4 c #FB4F05",
"@3 c #FF5600",
"@2 c #F45809",
"@1 c #FC5E0D",
"@| c #FF650D",
"@} c #FF7617",
"@[ c #F74806",
"@< c #FF6E14",
"@: c #7F3708",
"@_ c #3F1703",
"@( c #F9510D",
"@/ c #FF590E",
"@^ c #FA4D0F",
"@] c #F33E01",
"@{ c #BE3202",
"@~ c #3E0700",
"@! c #F42B05",
"@) c #FE4209",
"@' c #F83705",
"@, c #FF4F12",
"@> c #F24F1C",
"@; c #FC2205",
"@- c #F8210C",
"@= c #EC1601",
"@* c #FA2600",
"@& c #F33512",
"@% c #3D0400",
"@$ c #3F0100",
"@# c #C30000",
"@@ c #D10601",
"@+ c #F61E11",
"+Z c #DE0000",
"+Y c #DC0800",
"+X c #C00301",
"+W c #D80000",
"+V c #DA0C0A",
"+U c #DB0000",
"+T c #F00000",
"+S c #330000",
"+R c #BB0000",
"+Q c #BC0000",
"+P c #BE0000",
"+O c #B70000",
"+N c #CC0101",
"+M c #200000",
"+L c #BB0808",
"+K c #850000",
"+J c #940000",
"+I c #900000",
"+H c #BD0101",
"+G c #1F0000",
"+F c #860000",
"+E c #8B0606",
"+D c #610000",
"+C c #760000",
"+B c #770000",
"+A c #0D0000",
"+z c #600000",
"+y c #5A0000",
"+x c #4E0000",
"+w c #570000",
"+v c #450000",
"+u c #1D0000",
"+t c #1E0000",
"+s c #420000",
"+r c #530000",
"+q c #4B0000",
"+p c #130000",
"+o c #310000",
"+n c #600606",
"+m c #3D0000",
"+l c #440707",
"+k c #500000",
"+j c #390000",
"+i c #2B0000",
"+h c #270000",
"+g c #220000",
"+f c #240404",
"+e c #140000",
"+d c #3A0000",
"+c c #290000",
"+b c #320000",
"+a c #340000",
"+0 c #2F0606",
"+9 c #350202",
"+8 c #280000",
"+7 c #1A0000",
"+6 c #350000",
"+5 c #2C0000",
"+4 c #270505",
"+3 c #1C0000",
"+2 c #2A0000",
"+1 c #260606",
"+| c #0C0000",
"+} c #1E0606",
"+[ c #0E0000",
"+< c #210101",
"+: c #050000",
"+_ c #0F0000",
"+( c #160101",
"+/ c #0E0101",
"+^ c #200C0C",
"+] c #080000",
"+{ c #040000",
"+~ c #0B0303",
"+! c #020000",
"+) c #090404",
"+' c #010000",
"+, c #050202",
"+> c #030000",
"+; c #0F0F0F",
"+- c #040404",
"+= c #050505",
"+* c #010101",
"+& c #000000",
"+% c #3F3F3F",
"+$ c #7F7F7F",
"+# c #BFBFBF",
"+@ c #FFFFFF",
"++ c None",
"++++++++++++++++++++++++++++++++++++++++++++++++++++++++++++++++++++++++++++++++++++++++++++++++++++",
"++++++++++++++++++++++++++++++++++++++++++++++++++++++++++++++++++++++++++++++++++++++++++++++++++++",
"+++++++++++++++++++++++++++++++++++++++@+@+@+@+@+@+++++@+@+@++++++++++++++++++++++++++++++++++++++++",
"+++++++++++++++++++++++++++++++++@+@+@+@+@+@+@+@+@+@+@+@+@+@+@+@++++++++++++++++++++++++++++++++++++",
"+++++++++++++++++++++++++++++@+@+@+@+@+@+@+@+@+@+@+@+@+@+@+@+@+@+@+@++++++++++++++++++++++++++++++++",
"+++++++++++++++++++++++++++@+@+@+@+@+@+@+@+@+@+@+@+@+@+@+@+@+@+@+@+@+@++++++++++++++++++++++++++++++",
"+++++++++++++++++++++++++@+@+@+@+@+@+#+$+%+&+&+&+&+&+%+$+#+@+@+@+@+@+@+@++++++++++++++++++++++++++++",
"+++++++++++++++++++++++@+@+@+#+$+%+&+&+&+&+&+&+&+&+&+&+&+&+&+$+@+@+@+@+@+@++++++++++++++++++++++++++",
"+++++++++++++++++++++@+@+@+$+&+&+&+&+&+&+&+&+&+&+&+&+&+&+&+&+&+%+#+@+@+@+@++++++++++++++++++++++++++",
"+++++++++++++++++++@+@+@+$+&+&+&+&+&+&+&+*+&+&+&+&+&+&+&+&+&+&+&+&+#+@+@+@+@++++++++++++++++++++++++",
"+++++++++++++++++++@+@+@+%+&+&+&+&+&+&+&+&+&+&+&+=+&+&+-+;+*+&+&+&+&+#+@+@+@+@++++++++++++++++++++++",
"+++++++++++++++++@+@+@+@+&+&+&+&+&+&+&+&+&+&+&+&+&+&+&+&+&+&+&+&+&+&+%+@+@+@+@++++++++++++++++++++++",
"+++++++++++++++++@+@+@+@+&+&+&+&+&+&+&+&+&+&+&+&+&+&+&+&+&+&+&+&+&+&+&+$+@+@+@++++++++++++++++++++++",
"+++++++++++++++++@+@+@+@+&+&+>+,+&+&+&+&+&+&+&+&+&+&+&+&+&+&+&+&+&+&+&+&+@+@+@+@++++++++++++++++++++",
"+++++++++++++++++@+@+@+@+%+&+&+'+&+&+&+&+&+$+$+$+$+%+&+&+&+)+&+!+&+&+&+&+@+@+@+@++++++++++++++++++++",
"+++++++++++++++++++@+@+@+#+&+&+&+&+&+$+#+@+@+@+@+@+@+#+&+&+'+&+&+&+~+&+&+$+@+@+@++++++++++++++++++++",
"+++++++++++++++++++@+@+@+@+#+$+$+$+@+@+@+@+@+@+@+@+@+@+%+&+&+{+]+^+/+&+&+$+@+@+@+@++++++++++++++++++",
"+++++++++++++++++++++@+@+@+@+@+@+@+@+@+@+@+@+@+@+@+@+@+$+&+&+/+&+(+!+&+&+$+@+@+@+@++++++++++++++++++",
"+++++++++++++++++++++++@+@+@+@+@+@+@+@+@+@+@+@+@+@+@+@+%+&+!+_+:+<+'+&+&+$+@+@+@+@++++++++++++++++++",
"+++++++++++++++++++++++++++++@+@+@+@+++++++++@+@+@+@+@+&+&+[+}+_+|+[+&+&+$+@+@+@+@++++++++++++++++++",
"+++++++++++++++++++++++++++++++++++++++++++++@+@+@+@+%+&+&+:+1+>+2+3+&+&+#+@+@+@+@++++++++++++++++++",
"+++++++++++++++++++++++++++++++++++++++++++@+@+@+@+#+&+&+&+]+4+5+6+&+&+&+@+@+@+@+@++++++++++++++++++",
"+++++++++++++++++++++++++++++++++++++++@+@+@+@+@+#+&+&+&+7+8+9+|+]+&+&+$+@+@+@+@+@++++++++++++++++++",
"+++++++++++++++++++++++++++++++++++++++@+@+@+@+@+%+&+&+_+0+a+b+c+&+&+&+@+@+@+@+@++++++++++++++++++++",
"+++++++++++++++++++++++++++++++++++++@+@+@+@+@+%+&+&+d+8+e+f+g+h+&+&+$+@+@+@+@+@++++++++++++++++++++",
"+++++++++++++++++++++++++++++++++++@+@+@+@+@+%+&+&+i+j+8+b+k+l+&+&+%+@+@+@+@+@+@++++++++++++++++++++",
"+++++++++++++++++++++++++++++++++@+@+@+@+@+%+&+&+_+m+m+n+8+o+&+&+&+#+@+@+@+@+@++++++++++++++++++++++",
"+++++++++++++++++++++++++++++++@+@+@+@+@+%+&+&+p+q+r+s+k+t+&+&+&+#+@+@+@+@+@+@++++++++++++++++++++++",
"+++++++++++++++++++++++++++++@+@+@+@+@+%+&+&+u+v+w+x+y+z+A+&+&+#+@+@+@+@+@+@++++++++++++++++++++++++",
"+++++++++++++++++++++++++++@+@+@+@+@+%+&+&+u+B+C+D+E+F+G+&+&+#+@+@+@+@+@+@++++++++++++++++++++++++++",
"+++++++++++++++++++++++++@+@+@+@+@+%+&+&+c+H+I+J+K+L+M+&+&+$+@+@+@+@+@+@+@++++++++++++++++++++++++++",
"+++++++++++++++++++++++++@+@+@+@+%+&+&+i+N+O+P+Q+R+S+&+&+%+@+@+@+@+@+@+@++++++++++++++++++++++++++++",
"+++++++++++++++++++++++@+@+@+@+%+&+&+a+T+U+V+W+X+5+&+&+%+@+@+@+@+@+@+@+@+@+@+@++++++++++++++++++++++",
"+++++++++++++++++++++@+@+@+@+#+&+&+g+Y+Z@+@@@#@$+&+&+%+@+@+@+@+@+@+@+@+@+@+@+@+@++++++++++++++++++++",
"+++++++++++++++++++@+@+@+@+#+&+&@%@&@*@=@-@;+6+&+&+&+$+$+$+$+$+$+$+$+@+@+@+@+@+@++++++++++++++++++++",
"+++++++++++++++++++@+@+@+#+&+&+&@>@,@'@)@!@~+&+&+&+&+&+&+&+&+&+&+&+&+&+#+@+@+@+@+@++++++++++++++++++",
"+++++++++++++++++++@+@+@+$+&+&@{@]@^@/@(@_+&+&+&+&+&+&+&+&+&+&+&+&+&+&+&+@+@+@+@+@++++++++++++++++++",
"+++++++++++++++++++@+@+@+&+&@:@<@[@}@|@1@2@3@4@5@6@7@8@9@0@a@b@c@d@e+&+&+$+@+@+@+@++++++++++++++++++",
"+++++++++++++++++++@+@+@+&+&@f@g@h@i@j@k@l@m@n@o@p@q@j@r@s@t@u@v@w@x+&+&+$+@+@+@+@++++++++++++++++++",
"+++++++++++++++++++@+@+@+&+&@y@z@A@B@C@D@E@F@G@H@I@J@K@L@M@N@O@P@Q@R+&+&+$+@+@+@+@++++++++++++++++++",
"+++++++++++++++++++@+@+@+%+&@S@T@U@V@W@X@Y@Z#+#@###$@U#%#&#*#=#-#;#>+&+&+$+@+@+@+@++++++++++++++++++",
"+++++++++++++++++++@+@+@+#+&+&+&+&+&+&+&+&+&+&+&+&+&+&+&+&+&+&+&+&+&+&+%+@+@+@+@++++++++++++++++++++",
"+++++++++++++++++++@+@+@+@+#+%+&+&+&+&+&+&+&+&+&+&+&+&+&+&+&+&+&+&+&+$+@+@+@+@+@++++++++++++++++++++",
"+++++++++++++++++++++@+@+@+@+@+@+@+@+@+@+@+@+@+@+@+@+@+@+@+@+@+@+@+@+@+@+@+@+@++++++++++++++++++++++",
"+++++++++++++++++++++++@+@+@+@+@+@+@+@+@+@+@+@+@+@+@+@+@+@+@+@+@+@+@+@+@+@+@+@++++++++++++++++++++++",
"+++++++++++++++++++++++++++@+@+@+@+@+@+@+@+@+@+@+@+@+@+@+@+@+@+@+@+@+@+@+@+@++++++++++++++++++++++++",
"+++++++++++++++++++++++++++++++++++++@+@+@+@+@+@+@+@+@+@+@+@+@+@+@+@+@+@++++++++++++++++++++++++++++",
"+++++++++++++++++++++++++++++++++++++++++++@+@+@+@+++@+@+@+@+@+@+@+@++++++++++++++++++++++++++++++++",
"++++++++++++++++++++++++++++++++++++++++++++++++++++++++++++++++++++++++++++++++++++++++++++++++++++",
"++++++++++++++++++++++++++++++++++++++++++++++++++++++++++++++++++++++++++++++++++++++++++++++++++++"};
