/* XPM */
static char * ball_red_xpm[] = {
"50 50 245 2",
"#D c #3F2C02",
"#C c #7F6712",
"#B c #BC7A0E",
"#A c #FFD423",
"#z c #FFAA01",
"#y c #FFAB01",
"#x c #FBA000",
"#w c #FBA408",
"#v c #FFB407",
"#u c #BF910C",
"#t c #7E4902",
"#s c #BF610C",
"#r c #FF820C",
"#q c #FFA421",
"#p c #FF8E0F",
"#o c #FF9618",
"#n c #FD8B14",
"#m c #FFA223",
"#l c #FFB02E",
"#k c #FF8B17",
"#j c #FA7E10",
"#i c #FF9514",
"#h c #FF9B1A",
"#g c #FF8F13",
"#f c #BF7010",
"#e c #3F2408",
"#d c #FD6C0D",
"#c c #FD6400",
"#b c #FF7E0D",
"#a c #FE7517",
"#0 c #FE7210",
"#9 c #FF6809",
"#8 c #FB7B1B",
"#7 c #FE7E19",
"#6 c #FF7307",
"#5 c #F96911",
"#4 c #FF7406",
"#3 c #FF8113",
"#2 c #FF7A0A",
"#1 c #FF730D",
"#| c #FA660C",
"#} c #BF6411",
"#[ c #3F2004",
"#< c #BF540C",
"#: c #FF6C19",
"#_ c #F13600",
"#( c #FF8C2C",
"#/ c #F64C01",
"#^ c #F53F00",
"#] c #BF4705",
"#{ c #7F2900",
"#~ c #7F3604",
"#! c #7F2A00",
"#) c #7F2F00",
"#' c #BF560B",
"#, c #FF6606",
"#> c #FF6108",
"#; c #FE5E04",
"#- c #F13900",
"#= c #FF6106",
"#* c #BA3600",
"#& c #7F300C",
"#% c #FB4407",
"#$ c #FB5D16",
"## c #FF5205",
"#@ c #FF5508",
"#+ c #B02606",
"@Z c #3F1B05",
"@Y c #3F1C06",
"@X c #BB2D00",
"@W c #F34006",
"@V c #FD5011",
"@U c #FA4A04",
"@T c #ED3B12",
"@S c #6B0400",
"@R c #FF3604",
"@Q c #F32500",
"@P c #FA2800",
"@O c #F62D00",
"@N c #BF2F00",
"@M c #BF3906",
"@L c #FF4608",
"@K c #FF470A",
"@J c #FE4210",
"@I c #DE0B00",
"@H c #5B0000",
"@G c #D30400",
"@F c #FA1900",
"@E c #F01000",
"@D c #F51D00",
"@C c #3F0D00",
"@B c #FC2700",
"@A c #F1200A",
"@z c #FD3007",
"@y c #ED3119",
"@x c #6C0200",
"@w c #DE0500",
"@v c #C50000",
"@u c #EE1E0E",
"@t c #EB1A15",
"@s c #DE0400",
"@r c #CA0000",
"@q c #DF0000",
"@p c #FA0C00",
"@o c #740702",
"@n c #710000",
"@m c #D10000",
"@l c #D20100",
"@k c #750301",
"@j c #780101",
"@i c #EF0806",
"@h c #CC0000",
"@g c #D50000",
"@f c #780404",
"@e c #CD0202",
"@d c #CA0A0A",
"@c c #6A0000",
"@b c #D60808",
"@a c #B50000",
"@0 c #6B0000",
"@9 c #500000",
"@8 c #9E0000",
"@7 c #980000",
"@6 c #900000",
"@5 c #770000",
"@4 c #B10000",
"@3 c #980606",
"@2 c #BE0505",
"@1 c #8F0202",
"@| c #890000",
"@} c #660000",
"@[ c #840000",
"@< c #950000",
"@: c #730000",
"@_ c #960000",
"@( c #870000",
"@/ c #620000",
"@^ c #650000",
"@] c #680000",
"@{ c #570000",
"@~ c #370000",
"@! c #790000",
"@) c #6F0101",
"@' c #460000",
"@, c #5E0000",
"@> c #5A0303",
"@; c #430000",
"@- c #250000",
"@= c #6C0303",
"@* c #440000",
"@& c #5D0000",
"@% c #5C0000",
"@$ c #1B0000",
"@# c #4B0000",
"@@ c #470000",
"@+ c #310000",
"+Z c #390101",
"+Y c #550000",
"+X c #4A0000",
"+W c #3A0000",
"+V c #2F0000",
"+U c #4E0000",
"+T c #220000",
"+S c #1D0000",
"+R c #3D0000",
"+Q c #390000",
"+P c #290000",
"+O c #5D0909",
"+N c #4D0000",
"+M c #3B0000",
"+L c #3A0101",
"+K c #350404",
"+J c #560000",
"+I c #3E0000",
"+H c #400000",
"+G c #410000",
"+F c #420101",
"+E c #380000",
"+D c #340404",
"+C c #4A0B0B",
"+B c #210000",
"+A c #320808",
"+z c #440505",
"+y c #300000",
"+x c #170000",
"+w c #320000",
"+v c #2D0000",
"+u c #1C0000",
"+t c #230000",
"+s c #270606",
"+r c #210505",
"+q c #360000",
"+p c #1E0000",
"+o c #2C0000",
"+n c #1D0505",
"+m c #1A0000",
"+l c #1F0000",
"+k c #190404",
"+j c #270000",
"+i c #070000",
"+h c #120000",
"+g c #240000",
"+f c #130000",
"+e c #0B0000",
"+d c #2E0000",
"+c c #110000",
"+b c #0E0000",
"+a c #0A0000",
"+0 c #150505",
"+9 c #0D0000",
"+8 c #090000",
"+7 c #150000",
"+6 c #180000",
"+5 c #050000",
"+4 c #120606",
"+3 c #100000",
"+2 c #0F0202",
"+1 c #140404",
"+| c #0C0000",
"+} c #060000",
"+[ c #040000",
"+< c #160505",
"+: c #0C0303",
"+_ c #0E0707",
"+( c #0F0404",
"+/ c #080000",
"+^ c #030101",
"+] c #040101",
"+{ c #050202",
"+~ c #010000",
"+! c #020000",
"+) c #111111",
"+' c #040303",
"+, c #040202",
"+> c #090909",
"+; c #010101",
"+- c #080808",
"+= c #050505",
"+* c #030303",
"+& c #BFBFBF",
"+% c #3F3F3F",
"+$ c #000000",
"+# c #7F7F7F",
"+@ c #FFFFFF",
"++ c None",
"++++++++++++++++++++++++++++++++++++++++++++++++++++++++++++++++++++++++++++++++++++++++++++++++++++",
"++++++++++++++++++++++++++++++++++++++++++++++++++++++++++++++++++++++++++++++++++++++++++++++++++++",
"++++++++++++++++++++++++++++++++++++++++++++++++++++++++++++++++++++++++++++++++++++++++++++++++++++",
"+++++++++++++++++++++++++++++++++++++@+@+@+@+@+@+@+@+@+@+@+@+@++++++++++++++++++++++++++++++++++++++",
"+++++++++++++++++++++++++++++++++++@+@+@+@+@+@+@+@+@+@+@+@+@+@+@+@++++++++++++++++++++++++++++++++++",
"+++++++++++++++++++++++++++++++@+@+@+@+@+@+@+@+@+@+@+@+@+@+@+@+@+@+@+@++++++++++++++++++++++++++++++",
"+++++++++++++++++++++++++++@+@+@+@+@+@+@+@+#+#+#+$+$+%+#+#+&+@+@+@+@+@+@++++++++++++++++++++++++++++",
"+++++++++++++++++++++++++@+@+@+@+@+@+&+%+$+$+$+$+$+$+$+$+$+$+$+#+@+@+@+@+@+@++++++++++++++++++++++++",
"+++++++++++++++++++++++++@+@+@+@+&+%+$+$+$+$+$+$+$+$+$+$+$+$+$+$+$+#+@+@+@+@++++++++++++++++++++++++",
"+++++++++++++++++++++++@+@+@+@+&+$+$+$+$+$+*+=+$+$+$+$+$+$+$+$+$+$+$+%+@+@+@+@++++++++++++++++++++++",
"+++++++++++++++++++++++@+@+@+@+$+$+$+-+$+$+$+$+;+$+$+$+$+$+$+$+$+$+$+$+#+@+@+@+@++++++++++++++++++++",
"+++++++++++++++++++++++@+@+@+%+$+$+$+$+$+$+$+$+$+$+$+$+$+$+$+$+$+>+$+$+$+&+@+@+@++++++++++++++++++++",
"+++++++++++++++++++++@+@+@+&+$+$+$+$+,+$+$+$+$+'+$+$+$+$+$+)+$+!+~+$+$+$+%+@+@+@+@++++++++++++++++++",
"+++++++++++++++++++++@+@+@+#+$+$+$+$+$+{+$+$+$+$+$+$+$+$+$+$+]+$+$+^+$+$+$+@+@+@+@++++++++++++++++++",
"+++++++++++++++++++@+@+@+@+$+$+~+~+/+$+$+~+$+$+$+#+#+%+$+$+$+$+$+!+(+$+$+$+#+@+@+@++++++++++++++++++",
"+++++++++++++++++++@+@+@+@+$+$+$+_+!+$+$+$+$+%+@+@+@+@+&+$+$+!+$+~+$+$+$+$+#+@+@+@++++++++++++++++++",
"+++++++++++++++++++@+@+@+@+$+$+$+~+$+:+$+$+$+&+@+@+@+@+@+#+$+$+<+$+$+[+$+$+#+@+@+@+@++++++++++++++++",
"+++++++++++++++++++@+@+@+@+$+$+}+|+1+2+/+$+$+@+@+@+@+@+@+#+$+$+$+3+~+4+$+$+#+@+@+@++++++++++++++++++",
"+++++++++++++++++++@+@+@+@+$+$+!+5+6+7+~+$+$+#+@+@+@+@+@+$+$+8+9+7+8+8+$+$+#+@+@+@++++++++++++++++++",
"+++++++++++++++++++@+@+@+@+%+$+0+/+a+b+c+|+$+$+#+#+#+#+%+$+$+5+d+e+f+7+$+$+@+@+@+@++++++++++++++++++",
"+++++++++++++++++++++@+@+@+#+$+$+[+a+g+5+|+$+$+$+$+$+$+$+$+e+h+i+j+8+i+$+%+@+@+@+@++++++++++++++++++",
"+++++++++++++++++++++@+@+@+@+$+$+$+k+l+i+m+n+a+$+$+$+$+9+o+p+q+a+r+a+$+$+&+@+@+@+@++++++++++++++++++",
"+++++++++++++++++++++@+@+@+@+&+$+$+$+s+g+t+u+v+w+m+x+l+6+y+z+l+A+[+$+$+%+@+@+@+@+@++++++++++++++++++",
"+++++++++++++++++++++@+@+@+@+@+#+$+$+$+c+B+C+d+D+l+E+h+F+p+e+~+$+$+$+$+@+@+@+@+@++++++++++++++++++++",
"+++++++++++++++++++++@+@+@+@+&+$+$+$+e+G+g+y+j+H+I+J+y+K+L+M+q+3+$+$+$+#+@+@+@+@+@++++++++++++++++++",
"+++++++++++++++++++++@+@+@+&+$+$+$+u+N+O+P+Q+R+P+P+u+S+y+T+U+V+W+X+c+$+$+&+@+@+@+@++++++++++++++++++",
"+++++++++++++++++++@+@+@+@+%+$+$+V+V+Q+Y+V+Z+$+$+$+$+$+$@+@@@#@++R+E+$+$+$+@+@+@+@++++++++++++++++++",
"+++++++++++++++++++@+@+@+&+$+$@$@%+j@+@&+u+$+$+$+$+$+$+$+$+s@*@=@-@;@>+$+$+&+@+@+@++++++++++++++++++",
"+++++++++++++++++++@+@+@+#+$+$@,@'@)@!@~+$+$+%+&+@+@+&+%+$+$+g@{@]@^@/+$+$+#+@+@+@+@++++++++++++++++",
"+++++++++++++++++++@+@+@+%+$+G@(@_@:@<+$+$+%+@+@+@+@+@+@+%+$+$@[@}@|@1@@+$+$+@+@+@+@++++++++++++++++",
"+++++++++++++++++++@+@+@+$+$@;@2@3@4@5+$+$+#+@+@+@+@+@+@+&+$+$@6@7@|@8@9+$+$+@+@+@+@++++++++++++++++",
"+++++++++++++++++@+@+@+@+$+$@0@a@a@b@,+$+$+@+@+@+@+@+@+@+@+$+$@c@4@d@e@f+$+$+@+@+@+@++++++++++++++++",
"+++++++++++++++++@+@+@+@+$+$@}@g@h@i@j+$+$+&+@+@+@+@+@+@+@+$+$@k@4@l@m@n+$+$+@+@+@+@++++++++++++++++",
"+++++++++++++++++@+@+@+@+$+$@o@p@q@r@s+$+$+#+@+@+@+@+@+@+#+$+$@t@u@v@w@x+$+$+@+@+@+@++++++++++++++++",
"+++++++++++++++++@+@+@+@+#+$+W@y@z@A@B+o+$+$+#+@+@+@+@+#+$+$@C@D@E@F@G@H+$+$+@+@+@+@++++++++++++++++",
"+++++++++++++++++@+@+@+@+#+$+$@I@J@K@L@M+$+$+$+$+$+$+$+$+$+$@N@O@P@Q@R+$+$+#+@+@+@+@++++++++++++++++",
"+++++++++++++++++++@+@+@+&+$+$@S@T@U@V@W@X@Y+$+$+$+$+$+$@Z#+#@###$#%#&+$+$+&+@+@+@+@++++++++++++++++",
"+++++++++++++++++++@+@+@+@+%+$+$#*#=#-#;#>#,#'#)#!#~#{#]#^#/#(#_#:#<+$+$+%+@+@+@+@+@++++++++++++++++",
"+++++++++++++++++++++@+@+@+&+$+$#[#}#|#1#2#3#4#5#6#7#8#9#0#a#b#c#d#e+$+$+&+@+@+@+@++++++++++++++++++",
"+++++++++++++++++++++@+@+@+@+&+$+$+$#f#g#h#i#j#k#l#m#n#o#p#q#r#s+$+$+$+&+@+@+@+@+@++++++++++++++++++",
"+++++++++++++++++++++++@+@+@+@+&+$+$+$+$#t#u#v#w#x#y#z#A#B#C#D+$+$+$+&+@+@+@+@+@++++++++++++++++++++",
"+++++++++++++++++++++++@+@+@+@+@+&+%+$+$+$+$+$+$+$+$+$+$+$+$+$+$+%+&+@+@+@+@+@++++++++++++++++++++++",
"+++++++++++++++++++++++++@+@+@+@+@+@+#+#+$+$+$+$+$+$+$+$+$+$+#+#+@+@+@+@+@+@++++++++++++++++++++++++",
"+++++++++++++++++++++++++++@+@+@+@+@+@+@+@+&+#+#+#+#+#+#+&+@+@+@+@+@+@+@+@+@++++++++++++++++++++++++",
"+++++++++++++++++++++++++++++@+@+@+@+@+@+@+@+@+@+@+@+@+@+@+@+@+@+@+@+@+@+@++++++++++++++++++++++++++",
"+++++++++++++++++++++++++++++++++@+@+@+@+@+@+@+@+@+@+@+@+@+@+@+@+@+@+@+@++++++++++++++++++++++++++++",
"+++++++++++++++++++++++++++++++++++@+@+@+@+@+@+@+@+@+@+@+@+@+@+@+@+@++++++++++++++++++++++++++++++++",
"+++++++++++++++++++++++++++++++++++++++++++++++@+@+@+@+@+@+@+@++++++++++++++++++++++++++++++++++++++",
"++++++++++++++++++++++++++++++++++++++++++++++++++++++++++++++++++++++++++++++++++++++++++++++++++++",
"++++++++++++++++++++++++++++++++++++++++++++++++++++++++++++++++++++++++++++++++++++++++++++++++++++"};
