/* XPM */
static char * ball_red_xpm[] = {
"50 50 248 2",
"#G c #7F6415",
"#F c #7F5203",
"#E c #FFCE09",
"#D c #FFD31D",
"#C c #FFCC08",
"#B c #F7A602",
"#A c #FFCA10",
"#z c #F0BF18",
"#y c #FFC103",
"#x c #FFB60B",
"#w c #FFEE2C",
"#v c #7C4C00",
"#u c #764F09",
"#t c #3F2000",
"#s c #BF6507",
"#r c #FFA718",
"#q c #FFA218",
"#p c #FF8906",
"#o c #FF8001",
"#n c #F77303",
"#m c #FF7C03",
"#l c #FF930A",
"#k c #FFA91A",
"#j c #FF9E12",
"#i c #FF8D07",
"#h c #FF9608",
"#g c #FF920E",
"#f c #FE8E10",
"#e c #FEAC28",
"#d c #FD8C13",
"#c c #FDA825",
"#b c #7F5918",
"#a c #3F2A09",
"#0 c #732B07",
"#9 c #FF9A28",
"#8 c #FF870F",
"#7 c #FF8C13",
"#6 c #FF8A15",
"#5 c #FF750B",
"#4 c #FFA12E",
"#3 c #FF7503",
"#2 c #FFA632",
"#1 c #E64F0B",
"#| c #FF790A",
"#} c #FF740A",
"#[ c #FF7A04",
"#< c #F56F0A",
"#: c #E25601",
"#_ c #FF760D",
"#( c #FE7C0E",
"#/ c #FF6500",
"#^ c #FE8B1E",
"#] c #FF7D0D",
"#{ c #7F3906",
"#~ c #BF5108",
"#! c #F2610B",
"#) c #F35608",
"#' c #FFAC3F",
"#, c #FD5C00",
"#> c #F95101",
"#; c #FF8E24",
"#- c #FF7E1B",
"#= c #FA5B07",
"#* c #FF6700",
"#& c #FF851B",
"#% c #FF8018",
"#$ c #FD660F",
"## c #FF710A",
"#@ c #FD6C0C",
"#+ c #FB7010",
"@Z c #FC6E14",
"@Y c #FF8319",
"@X c #FF7C16",
"@W c #F54E03",
"@V c #FA5D06",
"@U c #7F3B05",
"@T c #BF4208",
"@S c #F9560F",
"@R c #FF9130",
"@Q c #FF4F00",
"@P c #F83D01",
"@O c #F23A00",
"@N c #FB5406",
"@M c #FE600B",
"@L c #7E1E00",
"@K c #7F3102",
"@J c #3F1100",
"@I c #7F2B02",
"@H c #650300",
"@G c #BF510A",
"@F c #FF5A04",
"@E c #FF7215",
"@D c #F66014",
"@C c #FF5D0E",
"@B c #7F2700",
"@A c #7F2401",
"@z c #EB2100",
"@y c #FB530C",
"@x c #EF2C00",
"@w c #FE4801",
"@v c #F45717",
"@u c #F84B08",
"@t c #3F1500",
"@s c #3F0D00",
"@r c #BC3C08",
"@q c #EC2E00",
"@p c #7F2800",
"@o c #F02E0B",
"@n c #F62F00",
"@m c #FC3E08",
"@l c #FE3A02",
"@k c #EF1D00",
"@j c #BF3B0D",
"@i c #3F200E",
"@h c #3F0E00",
"@g c #ED0D00",
"@f c #D51500",
"@e c #F21600",
"@d c #F51900",
"@c c #FE2700",
"@b c #3D0500",
"@a c #750500",
"@0 c #F71100",
"@9 c #E50700",
"@8 c #F01407",
"@7 c #E01208",
"@6 c #7C0600",
"@5 c #960000",
"@4 c #E80500",
"@3 c #E31712",
"@2 c #DA0000",
"@1 c #D90000",
"@| c #740401",
"@} c #A70000",
"@[ c #D40000",
"@< c #ED0000",
"@: c #AA0000",
"@_ c #9E0000",
"@( c #CE0000",
"@/ c #C90000",
"@^ c #A10000",
"@] c #8D0000",
"@{ c #A50000",
"@~ c #950000",
"@! c #870000",
"@) c #AB0000",
"@' c #970000",
"@, c #970202",
"@> c #830000",
"@; c #1E0000",
"@- c #8E0808",
"@= c #7C0000",
"@* c #860606",
"@& c #6F0000",
"@% c #740000",
"@$ c #4F0000",
"@# c #630909",
"@@ c #6A0000",
"@+ c #640101",
"+Z c #510101",
"+Y c #311010",
"+X c #4A0808",
"+W c #540000",
"+V c #500000",
"+U c #4B0000",
"+T c #4E0000",
"+S c #380303",
"+R c #3F0000",
"+Q c #410000",
"+P c #5F0707",
"+O c #2E0C0C",
"+N c #220404",
"+M c #6F0303",
"+L c #400404",
"+K c #2E0000",
"+J c #390000",
"+I c #3D0000",
"+H c #4C0404",
"+G c #440000",
"+F c #270909",
"+E c #340000",
"+D c #330000",
"+C c #4D0000",
"+B c #1B0000",
"+A c #370000",
"+z c #320303",
"+y c #2F0000",
"+x c #380000",
"+w c #430202",
"+v c #1C0000",
"+u c #4A0000",
"+t c #1A0000",
"+s c #140000",
"+r c #3B0000",
"+q c #2C0000",
"+p c #0D0000",
"+o c #060000",
"+n c #220000",
"+m c #300303",
"+l c #430000",
"+k c #3C0000",
"+j c #240000",
"+i c #360000",
"+h c #3A0000",
"+g c #190000",
"+f c #260000",
"+e c #240303",
"+d c #280000",
"+c c #2D0000",
"+b c #2E0404",
"+a c #100000",
"+0 c #200000",
"+9 c #130000",
"+8 c #110000",
"+7 c #1C0808",
"+6 c #150000",
"+5 c #230101",
"+4 c #2B0000",
"+3 c #160000",
"+2 c #1F0505",
"+1 c #1F0202",
"+| c #080000",
"+} c #0E0000",
"+[ c #090000",
"+< c #120000",
"+: c #0B0000",
"+_ c #0C0000",
"+( c #030000",
"+/ c #0A0000",
"+^ c #100707",
"+] c #020000",
"+{ c #0D0606",
"+~ c #040000",
"+! c #070303",
"+) c #010000",
"+' c #020101",
"+, c #090909",
"+> c #060606",
"+; c #020202",
"+- c #010101",
"+= c #040404",
"+* c #BFBFBF",
"+& c #030303",
"+% c #3F3F3F",
"+$ c #000000",
"+# c #7F7F7F",
"+@ c #FFFFFF",
"++ c None",
"+++++++++++++++++++++++++++++++++++++++++++++++++@+@+@+@++++++++++++++++++++++++++++++++++++++++++++",
"+++++++++++++++++++++++++++++++@+@+@+@+@+@+@+@+@+@+@+@+@+@+@+@+@+@+@++++++++++++++++++++++++++++++++",
"+++++++++++++++++++++++++++++@+@+@+@+@+@+@+@+@+@+@+@+@+@+@+@+@+@+@+@+@+@++++++++++++++++++++++++++++",
"+++++++++++++++++++++++++++@+@+@+@+@+@+@+@+@+@+@+@+@+@+@+@+@+@+@+@+@+@+@+@++++++++++++++++++++++++++",
"+++++++++++++++++++++++++@+@+@+@+@+@+#+#+#+$+$+$+$+$+$+$+#+#+@+@+@+@+@+@+@++++++++++++++++++++++++++",
"+++++++++++++++++++++++@+@+@+#+#+$+$+$+$+$+$+$+$+$+$+$+$+$+$+$+$+#+@+@+@+@+@+@++++++++++++++++++++++",
"+++++++++++++++++++++@+@+@+%+$+$+$+$+$+$+$+$+&+$+$+$+$+$+$+$+$+$+$+$+*+@+@+@+@+@++++++++++++++++++++",
"+++++++++++++++++++@+@+@+#+$+$+$+$+$+$+$+$+=+$+-+$+$+$+;+$+$+$+$+$+$+$+%+@+@+@+@+@++++++++++++++++++",
"+++++++++++++++++++@+@+@+#+$+$+$+$+$+>+$+$+$+,+$+$+$+$+$+$+$+$+$+$+$+$+$+%+@+@+@+@++++++++++++++++++",
"+++++++++++++++++@+@+@+@+$+$+$+$+$+$+$+$+-+&+$+-+&+$+$+$+$+$+$+$+$+$+$+$+$+*+@+@+@+@++++++++++++++++",
"+++++++++++++++++@+@+@+@+$+$+$+$+$+$+$+'+$+$+$+$+$+$+$+$+$+,+$+$+$+)+$+$+$+$+@+@+@+@+@++++++++++++++",
"+++++++++++++++++@+@+@+@+#+$+$+$+)+$+$+$+$+$+$+$+$+$+$+$+$+$+$+!+$+$+$+$+$+$+#+@+@+@+@++++++++++++++",
"+++++++++++++++++++@+@+@+#+$+$+$+$+$+$+$+$+$+$+$+$+$+$+$+$+$+~+$+$+)+)+)+$+$+$+@+@+@+@++++++++++++++",
"+++++++++++++++++++@+@+@+@+%+$+$+$+$+$+#+#+#+@+@+@+@+#+#+$+$+$+$+$+{+$+$+]+$+$+@+@+@+@++++++++++++++",
"+++++++++++++++++++++@+@+@+@+#+#+#+@+@+@+@+@+@+@+@+@+@+@+*+$+$+^+/+(+$+_+$+$+$+*+@+@+@++++++++++++++",
"+++++++++++++++++++++++@+@+@+@+@+@+@+@+@+@+@+@+@+@+@+@+@+@+%+$+$+:+$+$+_+)+$+$+#+@+@+@++++++++++++++",
"+++++++++++++++++++++++++@+@+@+@+@+@+@+@+@+@+@+@+@+@+@+@+@+#+$+$+<+$+_+$+[+$+$+#+@+@+@++++++++++++++",
"+++++++++++++++++++++++++++@+@+@+@+@+@+@+@+@+@+@+@+@+@+@+@+%+$+$+}+$+~+]+]+$+$+@+@+@+@++++++++++++++",
"+++++++++++++++++++++++++++++++@+@+@+@+@+@+@+@+@+@+@+@+@+%+$+$+$+|+1+2+3+$+$+$+@+@+@+@++++++++++++++",
"+++++++++++++++++++++++++++++++@+@+@+@+@+#+#+#+#+#+#+%+$+$+$+:+3+4+5+[+6+$+$+%+@+@+@++++++++++++++++",
"+++++++++++++++++++++++++++++++@+@+@+*+$+$+$+$+$+$+$+$+$+$+7+8+9+6+)+0+8+$+$+*+@+@+@++++++++++++++++",
"+++++++++++++++++++++++++++++@+@+@+@+$+$+$+$+$+$+$+$+$+a+_+b+c+d+|+d+e+$+$+%+@+@+@+@++++++++++++++++",
"+++++++++++++++++++++++++++++@+@+@+#+$+$+f+g+h+i+j+c+k+l+0+m+[+j+n+o+$+$+$+@+@+@+@++++++++++++++++++",
"+++++++++++++++++++++++++++++@+@+@+#+$+$+n+8+p+q+r+c+s+n+t+u+v+:+$+$+$+$+*+@+@+@+@+@++++++++++++++++",
"+++++++++++++++++++++++++++++@+@+@+#+$+$+0+j+w+4+x+8+h+k+y+z+A+r+B+:+$+$+%+@+@+@+@+@++++++++++++++++",
"+++++++++++++++++++++++++++++@+@+@+#+$+$+C+D+E+F+G+H+I+J+K+L+j+A+M+G+N+$+$+%+@+@+@+@++++++++++++++++",
"+++++++++++++++++++++++++++++@+@+@+@+$+$+$+$+$+$+$+$+$+f+O+P+Q+R+S+T+U+4+$+$+#+@+@+@++++++++++++++++",
"+++++++++++++++++++++++++++++@+@+@+@+*+$+$+$+$+$+$+$+$+$+$+$+J+V+k+W+X+V+Y+$+$+*+@+@+@++++++++++++++",
"+++++++++++++++++++++++++++++++@+@+@+@+@+#+#+#+#+#+#+#+$+$+$+$+Z+T@+@@@#@$+$+$+#+@+@+@++++++++++++++",
"+++++++++++++++++++++++++++++++++@+@+@+@+@+@+@+@+@+@+@+@+*+$+$+$@%@&@*@=@-@;+$+$+@+@+@+@++++++++++++",
"+++++++++++++++++++++++++++++++++++@+@+@+@+@+@+@+@+@+@+@+@+*+$+$+k@>@>@,@'+x+$+$+@+@+@+@++++++++++++",
"+++++++++++++++++++++++++++++++++++++++++@+@+@+@+@+@+@+@+@+@+%+$+f@)@!@~@{@]+$+$+*+@+@+@++++++++++++",
"+++++++++++++++++++++++++++@+@+@+@+@+++++++++++@+@+@+@+@+@+@+#+$+$@^@/@(@_@_+$+$+#+@+@+@++++++++++++",
"+++++++++++++++++++++++@+@+@+@+@+@+@+@+@+@+++++@+@+@+@+@+@+@+#+$+$@:@<@[@(@}+$+$+#+@+@+@++++++++++++",
"+++++++++++++++++++++@+@+@+@+@+@+@+@+@+@+@+@+@+@+@+@+@+@+@+@+%+$@|@1@2@3@4@5+$+$+*+@+@+@++++++++++++",
"+++++++++++++++++++++@+@+@+#+#+*+@+@+@+@+@+@+@+@+@+@+@+@+@+*+$+$@6@7@8@9@0@a+$+$+@+@+@+@++++++++++++",
"+++++++++++++++++++@+@+*+$+$+$+$+$+#+*+@+@+@+@+@+@+@+@+@+%+$+$@b@c@d@e@f@g+h+$+$+@+@+@+@++++++++++++",
"+++++++++++++++++@+@+@+#+$@h@i+$+$+$+$+$+%+#+#+#+#+#+%+$+$+$+$@j@k@l@m@n@o+$+$+#+@+@+@+@++++++++++++",
"+++++++++++++++++@+@+@+$+$@p@q@r@s+$+$+$+$+$+$+$+$+$+$+$+$@t@u@v@w@x@y@z@A+$+$+*+@+@+@+@++++++++++++",
"+++++++++++++++@+@+@+@+$+$@B@C@D@E@F@G@H@I+$+$+$+$@J@K@L@M@N@O@P@Q@R@S@T+$+$+%+@+@+@+@++++++++++++++",
"+++++++++++++++@+@+@+@+$+$@U@V@W@X@Y@Z#+#@###$#%#&#*#=#-#;#>#,#'#)#!#~+$+$+$+@+@+@+@+@++++++++++++++",
"+++++++++++++++@+@+@+@+%+$#{#]#^#/#(#_#:#<#[#}#|#1#2#3#4#5#6#7#8#9#0+$+$+$+*+@+@+@+@++++++++++++++++",
"+++++++++++++++@+@+@+@+#+$#a#b#c#d#e#f#g#h#i#j#k#l#m#n#o#p#q#r#s#t+$+$+$+*+@+@+@+@+@++++++++++++++++",
"+++++++++++++++++@+@+@+*+$+$+$+$+$#u#v#w#x#y#z#A#B#C#D#E#F#G+$+$+$+$+%+*+@+@+@+@+@++++++++++++++++++",
"+++++++++++++++++@+@+@+@+*+%+$+$+$+$+$+$+$+$+$+$+$+$+$+$+$+$+$+$+$+*+@+@+@+@+@+@+@++++++++++++++++++",
"+++++++++++++++++++@+@+@+@+@+@+#+#+$+$+$+$+$+$+$+$+$+$+$+$+$+#+*+@+@+@+@+@+@+@+@++++++++++++++++++++",
"+++++++++++++++++++++@+@+@+@+@+@+@+@+@+#+#+#+#+#+#+#+#+#+@+@+@+@+@+@+@+@+@+@+@++++++++++++++++++++++",
"+++++++++++++++++++++++@+@+@+@+@+@+@+@+@+@+@+@+@+@+@+@+@+@+@+@+@+@+@+@+@++++++++++++++++++++++++++++",
"+++++++++++++++++++++++++@+@+@+@+@+@+@+@+@+@+@+@+@+@+@+@+@+@+@+@+@+@++++++++++++++++++++++++++++++++",
"+++++++++++++++++++++++++++++++++@+@+@+@+@+@+@+@+@+@+@+@+@+@+@+@+@++++++++++++++++++++++++++++++++++"};
