/* XPM */
static char * ball_red_xpm[] = {
"50 50 192 2",
"#) c #FFB928",
"#' c #F79511",
"#, c #FF9B0B",
"#> c #FDA018",
"#; c #F78221",
"#- c #FF881B",
"#= c #FF7510",
"#* c #FF7C07",
"#& c #FF6E11",
"#% c #FF6908",
"#$ c #FF7914",
"## c #FE6D0D",
"#@ c #ED3604",
"#+ c #F74203",
"@Z c #FF5204",
"@Y c #F63A00",
"@X c #FB3F02",
"@W c #F34710",
"@V c #EC3307",
"@U c #EB3A08",
"@T c #F21800",
"@S c #F62606",
"@R c #F22A06",
"@Q c #FD3104",
"@P c #E00900",
"@O c #ED1D08",
"@N c #FF1E02",
"@M c #EE0200",
"@L c #710000",
"@K c #780402",
"@J c #690000",
"@I c #D41409",
"@H c #F00A08",
"@G c #D30000",
"@F c #D20000",
"@E c #720D0A",
"@D c #7C0100",
"@C c #790000",
"@B c #730000",
"@A c #720000",
"@z c #520000",
"@y c #7F0400",
"@x c #690402",
"@w c #6B0000",
"@v c #690F0C",
"@u c #7F0A05",
"@t c #770704",
"@s c #F80000",
"@r c #C30000",
"@q c #BE0000",
"@p c #C20000",
"@o c #BF0000",
"@n c #BD0000",
"@m c #D90000",
"@l c #CC0000",
"@k c #F30606",
"@j c #E90000",
"@i c #D60000",
"@h c #CB0000",
"@g c #E40000",
"@f c #BA0000",
"@e c #D00000",
"@d c #CE0000",
"@c c #410000",
"@b c #C70000",
"@a c #930000",
"@0 c #CC0404",
"@9 c #AE0000",
"@8 c #C00000",
"@7 c #C10000",
"@6 c #CD0707",
"@5 c #B70000",
"@4 c #B80909",
"@3 c #B10000",
"@2 c #A60000",
"@1 c #960000",
"@| c #BB0000",
"@} c #BC0000",
"@[ c #9E0000",
"@< c #B20000",
"@: c #A20000",
"@_ c #850000",
"@( c #940000",
"@/ c #C50101",
"@^ c #440000",
"@] c #9B0202",
"@{ c #650000",
"@~ c #840202",
"@! c #B50000",
"@) c #8E0000",
"@' c #910000",
"@, c #B50808",
"@> c #A30A0A",
"@; c #8C0000",
"@- c #9C0000",
"@= c #840000",
"@* c #920000",
"@& c #970000",
"@% c #9F0000",
"@$ c #950000",
"@# c #8D0000",
"@@ c #8A0000",
"@+ c #7D0404",
"+Z c #890000",
"+Y c #820000",
"+X c #860000",
"+W c #630000",
"+V c #6A0000",
"+U c #8A0C0C",
"+T c #600505",
"+S c #530000",
"+R c #4F0000",
"+Q c #420000",
"+P c #400000",
"+O c #500000",
"+N c #450000",
"+M c #4D0000",
"+L c #3E0000",
"+K c #4C0000",
"+J c #110000",
"+I c #681010",
"+H c #2B0000",
"+G c #290000",
"+F c #410404",
"+E c #510202",
"+D c #5F0000",
"+C c #2F0000",
"+B c #460000",
"+A c #5B0606",
"+z c #2E0000",
"+y c #2D0000",
"+x c #260000",
"+w c #310000",
"+v c #2A0000",
"+u c #2C0000",
"+t c #3F0202",
"+s c #350000",
"+r c #490000",
"+q c #390000",
"+p c #280000",
"+o c #1C0000",
"+n c #330000",
"+m c #360000",
"+l c #240000",
"+k c #370000",
"+j c #240606",
"+i c #170000",
"+h c #210000",
"+g c #1F0000",
"+f c #300000",
"+e c #130000",
"+d c #090000",
"+c c #100000",
"+b c #1B0000",
"+a c #190000",
"+0 c #0F0000",
"+9 c #290505",
"+8 c #180000",
"+7 c #1A0000",
"+6 c #150202",
"+5 c #070000",
"+4 c #0D0000",
"+3 c #1D0000",
"+2 c #0C0000",
"+1 c #150606",
"+| c #140000",
"+} c #0B0000",
"+[ c #150000",
"+< c #0A0000",
"+: c #110606",
"+_ c #0F0404",
"+( c #040000",
"+/ c #120909",
"+^ c #060000",
"+] c #080101",
"+{ c #0E0808",
"+~ c #080000",
"+! c #020000",
"+) c #030000",
"+' c #010000",
"+, c #080606",
"+> c #050505",
"+; c #010101",
"+- c #030202",
"+= c #090909",
"+* c #070707",
"+& c #3F3F3F",
"+% c #BFBFBF",
"+$ c #000000",
"+# c #7F7F7F",
"+@ c #FFFFFF",
"++ c None",
"++++++++++++++++++++++++++++++++++++++++++++++++++++++++++++++++++++++++++++++++++++++++++++++++++++",
"++++++++++++++++++++++++++++++++++++++++++++++++++++++++++++++++++++++++++++++++++++++++++++++++++++",
"++++++++++++++++++++++++++++++++++++++++++++++++++++++++++++++++++++++++++++++++++++++++++++++++++++",
"+++++++++++++++++++++++++++++++++++++++++++++++++++++@+@+@+@+@++++++++++++++++++++++++++++++++++++++",
"+++++++++++++++++++++++++++++++++++++++++++++++@+@+@+@+@+@+@+@+@+@+@++++++++++++++++++++++++++++++++",
"+++++++++++++++++++++++++++++++++++++++++++++@+@+@+@+@+@+@+@+@+@+@+@+@+@++++++++++++++++++++++++++++",
"+++++++++++++++++++++++++++++++++++++++++++@+@+@+@+@+#+$+$+$+$+$+#+@+@+@+@++++++++++++++++++++++++++",
"+++++++++++++++++++++++++++++++++++++++++++@+@+@+%+$+$+$+$+$+$+$+$+&+@+@+@+@++++++++++++++++++++++++",
"+++++++++++++++++++++++++++++++++++++++++@+@+@+@+$+$+$+$+$+$+*+$+$+$+%+@+@+@++++++++++++++++++++++++",
"+++++++++++++++++++++++++++++++++++++++@+@+@+@+&+$+$+$+$+$+$+$+$+$+$+#+@+@+@+@++++++++++++++++++++++",
"+++++++++++++++++++++++++++++++++++++++@+@+@+%+$+$+$+=+$+$+$+$+$+$+$+#+@+@+@+@++++++++++++++++++++++",
"+++++++++++++++++++++++++++++++++++++@+@+@+@+&+$+$+-+;+$+$+$+$+>+$+$+#+@+@+@+@++++++++++++++++++++++",
"+++++++++++++++++++++++++++++++++++++@+@+@+#+$+$+$+$+$+$+$+$+$+,+$+$+#+@+@+@+@++++++++++++++++++++++",
"+++++++++++++++++++++++++++++++++++@+@+@+%+$+$+$+'+$+$+)+!+$+$+$+$+$+#+@+@+@+@++++++++++++++++++++++",
"+++++++++++++++++++++++++++++++++@+@+@+@+&+$+$+$+'+$+$+$+~+{+~+]+$+$+#+@+@+@+@++++++++++++++++++++++",
"+++++++++++++++++++++++++++++++@+@+@+@+#+$+$+^+/+)+!+$+$+~+(+$+)+$+$+#+@+@+@+@++++++++++++++++++++++",
"+++++++++++++++++++++++++++++@+@+@+@+%+$+$+$+_+$+$+:+$+$+$+$+$+<+$+$+#+@+@+@+@++++++++++++++++++++++",
"+++++++++++++++++++++++++++++@+@+@+@+&+$+$+[+~+<+}+$+$+$+<+|+'+1+$+$+#+@+@+@+@++++++++++++++++++++++",
"+++++++++++++++++++++++++++@+@+@+@+#+$+$+2+3+4+5+}+$+$+$+)+4+}+6+$+$+#+@+@+@+@++++++++++++++++++++++",
"+++++++++++++++++++++++++++@+@+@+@+$+$+(+7+5+8+4+$+$+$+$+}+9+4+0+$+$+#+@+@+@+@++++++++++++++++++++++",
"+++++++++++++++++++++++++@+@+@+@+&+$+$+3+a+<+4+$+$+$+$+$+b+c+d+e+$+$+#+@+@+@+@++++++++++++++++++++++",
"+++++++++++++++++++++++@+@+@+@+%+$+$+<+f+4+g+c+$+$+&+$+$+h+i+j+f+$+$+#+@+@+@+@++++++++++++++++++++++",
"+++++++++++++++++++++@+@+@+@+@+$+$+4+k+l+m+n+$+$+&+#+$+$+o+n+p+q+$+$+#+@+@+@+@++++++++++++++++++++++",
"+++++++++++++++++++++@+@+@+@+&+$+$+a+r+p+s+!+$+$+%+#+$+$+b+t+u+8+$+$+#+@+@+@+@++++++++++++++++++++++",
"+++++++++++++++++++@+@+@+@+%+$+$+l+d+v+w+x+$+$+#+@+#+$+$+y+w+v+f+$+$+#+@+@+@+@+@++++++++++++++++++++",
"+++++++++++++++++++@+@+@+@+$+$+$+z+A+B+C+$+$+&+@+@+#+$+$+D+q+E+F+$+$+#+@+@+@+@+@+@++++++++++++++++++",
"+++++++++++++++++++@+@+@+#+$+$+G+H+p+I+J+$+$+&+#+#+&+$+$+K+L+M+N+$+$+&+#+%+@+@+@+@+@++++++++++++++++",
"+++++++++++++++++@+@+@+@+$+$+<+O+P+Q+R+$+$+$+$+$+$+$+$+$+S+r+L+T+$+$+$+$+$+&+@+@+@+@+@++++++++++++++",
"+++++++++++++++++@+@+@+#+$+$+U+V+W+X+$+$+$+$+$+$+$+$+$+$+Y+K+Z@++$+$+$+$+$+$+#+@+@+@+@+@++++++++++++",
"+++++++++++++++++@+@+@+#+$+$@@@#@$@%@&@*+V+Y@#@=@-@;@>@%@,@'@=@)@!@~@{@]@^+$+$+@+@+@+@+@++++++++++++",
"+++++++++++++++++@+@+@+#+$+$@/@(@_@:@<@[@}@|@1@2@3@4@5@-@6@7@8@9@0@:@a@b@c+$+$+@+@+@+@+@++++++++++++",
"+++++++++++++++++@+@+@+#+$+$@b@d@e@f@g@h@i@j@k@l@m@f@n@|@o@f@p@o@q@r@s@i+V+$+$+@+@+@+@+@++++++++++++",
"+++++++++++++++++@+@+@+%+$+$@t@u+V@v@w@x@y@z@A+W@B@C@D@E@F@G@H@I@J@A@K@L+w+$+$+@+@+@+@+@++++++++++++",
"+++++++++++++++++++@+@+@+&+$+$+$+$+$+$+$+$+$+$+$+$+$+$+$@M@N@O@P+$+$+$+$+$+$+%+@+@+@+@++++++++++++++",
"+++++++++++++++++++@+@+@+@+#+$+$+$+$+$+$+$+$+$+$+$+$+$+$@Q@R@S@T+$+$+$+$+&+%+@+@+@+@+@++++++++++++++",
"+++++++++++++++++++++@+@+@+@+@+@+@+@+@+@+@+@+@+@+@+#+$+$@U@V@W@X+$+$+#+@+@+@+@+@+@+@++++++++++++++++",
"+++++++++++++++++++++++@+@+@+@+@+@+@+@+@+@+@+@+@+@+#+$+$@Y@Z#+#@+$+$+#+@+@+@+@+@+@++++++++++++++++++",
"+++++++++++++++++++++++@+@+@+@+@+@+@+@+@+@+@+@+@+@+#+$+$###$#%#&+$+$+#+@+@+@+@+@++++++++++++++++++++",
"+++++++++++++++++++++++++++@+@+@+@+@+@+@+@+@+@+@+@+#+$+$#*#=#-#;+$+$+#+@+@+@+@++++++++++++++++++++++",
"+++++++++++++++++++++++++++++++++++++++++++++@+@+@+#+$+$#>#,#'#)+$+$+#+@+@+@+@++++++++++++++++++++++",
"+++++++++++++++++++++++++++++++++++++++++++++@+@+@+@+$+$+$+$+$+$+$+$+@+@+@+@++++++++++++++++++++++++",
"+++++++++++++++++++++++++++++++++++++++++++++@+@+@+@+%+$+$+$+$+$+$+%+@+@+@+@++++++++++++++++++++++++",
"+++++++++++++++++++++++++++++++++++++++++++++++@+@+@+@+@+#+#+#+#+@+@+@+@+@+@++++++++++++++++++++++++",
"+++++++++++++++++++++++++++++++++++++++++++++++@+@+@+@+@+@+@+@+@+@+@+@+@+@++++++++++++++++++++++++++",
"+++++++++++++++++++++++++++++++++++++++++++++++++@+@+@+@+@+@+@+@+@+@+@+@++++++++++++++++++++++++++++",
"+++++++++++++++++++++++++++++++++++++++++++++++++++@+@+@+@+@+@+@+@+@+@++++++++++++++++++++++++++++++",
"+++++++++++++++++++++++++++++++++++++++++++++++++++++++++@+@+@+@+@++++++++++++++++++++++++++++++++++",
"++++++++++++++++++++++++++++++++++++++++++++++++++++++++++++++++++++++++++++++++++++++++++++++++++++",
"++++++++++++++++++++++++++++++++++++++++++++++++++++++++++++++++++++++++++++++++++++++++++++++++++++",
"++++++++++++++++++++++++++++++++++++++++++++++++++++++++++++++++++++++++++++++++++++++++++++++++++++"};
