/* XPM */
static char * ball_red_xpm[] = {
"50 50 125 2",
"@9 c #FFCB12",
"@8 c #F2A70D",
"@7 c #FDBF1C",
"@6 c #FFB409",
"@5 c #7F5100",
"@4 c #3F2E0F",
"@3 c #FF9E1B",
"@2 c #FFBB38",
"@1 c #FF8E11",
"@| c #FF9715",
"@} c #3F1900",
"@[ c #B9450B",
"@< c #FA5800",
"@: c #FF9B2C",
"@_ c #FE851F",
"@( c #FF7509",
"@/ c #FC6611",
"@^ c #FF620F",
"@] c #F74C0C",
"@{ c #FF7617",
"@~ c #7F3C0C",
"@! c #7F2E06",
"@) c #F9470A",
"@' c #FF6414",
"@, c #F92D00",
"@> c #FF550D",
"@; c #3A0800",
"@- c #F21D00",
"@= c #F62E06",
"@* c #FA3C0C",
"@& c #F21F00",
"@% c #B22606",
"@$ c #FB2706",
"@# c #F82406",
"@@ c #FF4E1B",
"@+ c #D90F01",
"+Z c #7B0C00",
"+Y c #EA0600",
"+X c #E91508",
"+W c #CD0000",
"+V c #EC0E01",
"+U c #DB0806",
"+T c #DD0C0C",
"+S c #C90000",
"+R c #DF0000",
"+Q c #B20301",
"+P c #640000",
"+O c #A70000",
"+N c #BE0000",
"+M c #CA0000",
"+L c #B90000",
"+K c #710000",
"+J c #9A0000",
"+I c #B40000",
"+H c #910000",
"+G c #BC0000",
"+F c #100000",
"+E c #6E0000",
"+D c #690000",
"+C c #8E0000",
"+B c #3E0000",
"+A c #2D0000",
"+z c #6C0909",
"+y c #5C0000",
"+x c #7D0000",
"+w c #6B0000",
"+v c #430000",
"+u c #590000",
"+t c #390000",
"+s c #570000",
"+r c #660000",
"+q c #290000",
"+p c #640A0A",
"+o c #2F0000",
"+n c #490000",
"+m c #370000",
"+l c #680000",
"+k c #330909",
"+j c #630303",
"+i c #4A0303",
"+h c #380000",
"+g c #2F0404",
"+f c #1D0000",
"+e c #320000",
"+d c #2B0000",
"+c c #2F0303",
"+b c #330000",
"+a c #1C0303",
"+0 c #160000",
"+9 c #2E0000",
"+8 c #240000",
"+7 c #1E0000",
"+6 c #0B0000",
"+5 c #2A0000",
"+4 c #200000",
"+3 c #050000",
"+2 c #170000",
"+1 c #150000",
"+| c #0E0000",
"+} c #070000",
"+[ c #0D0000",
"+< c #0C0000",
"+: c #080000",
"+_ c #130404",
"+( c #090000",
"+/ c #271515",
"+^ c #010000",
"+] c #060000",
"+{ c #040000",
"+~ c #050101",
"+! c #030101",
"+) c #060505",
"+' c #020202",
"+, c #080808",
"+> c #030303",
"+; c #101010",
"+- c #040404",
"+= c #060606",
"+* c #070707",
"+& c #BFBFBF",
"+% c #3F3F3F",
"+$ c #000000",
"+# c #7F7F7F",
"+@ c #FFFFFF",
"++ c None",
"++++++++++++++++++++++++++++++++++++++++++++++++++++++++++++++++++++++++++++++++++++++++++++++++++++",
"++++++++++++++++++++++++++++++++++++++++++++++++++++++++++++++++++++++++++++++++++++++++++++++++++++",
"++++++++++++++++++++++++++++++++++++++++++++++++++++++++++++++++++++++++++++++++++++++++++++++++++++",
"+++++++++++++++++++++++++++++++++@+@+@+@+@+@+@+@+@+@+@+@+@+@+@+@+@++++++++++++++++++++++++++++++++++",
"+++++++++++++++++++++++++@+@+@+@+@+@+@+@+@+@+@+@+@+@+@+@+@+@+@+@+@+@+@+@+@+@++++++++++++++++++++++++",
"+++++++++++++++++++++++@+@+@+@+@+@+@+@+@+@+@+@+@+@+@+@+@+@+@+@+@+@+@+@+@+@+@+@++++++++++++++++++++++",
"+++++++++++++++++++++@+@+@+@+@+@+@+@+@+@+@+@+@+@+@+@+@+@+@+@+@+@+@+@+@+@+@+@+@+@++++++++++++++++++++",
"+++++++++++++++++++++@+@+@+@+#+$+$+$+$+$+$+$+$+$+$+$+$+$+$+$+$+$+$+$+$+#+@+@+@+@++++++++++++++++++++",
"+++++++++++++++++++++@+@+@+%+$+$+$+$+$+$+$+$+$+$+$+$+$+$+$+$+$+$+$+$+$+$+%+@+@+@++++++++++++++++++++",
"+++++++++++++++++++@+@+@+&+$+$+$+$+$+$+$+$+$+$+$+*+$+$+$+$+$+=+$+$+$+-+$+$+&+@+@++++++++++++++++++++",
"+++++++++++++++++++@+@+@+#+$+$+$+$+$+;+$+$+$+$+$+$+$+$+$+$+$+$+>+$+$+-+$+$+#+@+@++++++++++++++++++++",
"+++++++++++++++++++@+@+@+#+$+$+$+$+$+$+$+$+$+$+$+$+$+$+$+$+$+$+$+$+,+$+$+$+#+@+@++++++++++++++++++++",
"+++++++++++++++++++@+@+@+#+$+$+$+$+$+$+$+'+$+$+$+)+$+$+$+$+$+$+$+!+$+$+$+$+&+@+@++++++++++++++++++++",
"+++++++++++++++++++++@+@+@+$+$+$+$+$+$+$+$+$+$+$+$+$+$+$+$+$+$+$+~+$+$+$+$+@+@+@++++++++++++++++++++",
"+++++++++++++++++++++@+@+@+&+$+$+$+$+$+$+$+$+$+$+$+$+$+$+$+$+$+$+$+$+$+$+#+@+@+@++++++++++++++++++++",
"+++++++++++++++++++++++@+@+@+@+#+#+#+#+#+#+#+#+#+#+#+$+$+$+{+$+]+^+]+$+$+&+@+@+@++++++++++++++++++++",
"+++++++++++++++++++++++@+@+@+@+@+@+@+@+@+@+@+@+@+@+@+$+$+$+{+/+$+$+$+$+%+@+@+@+@++++++++++++++++++++",
"+++++++++++++++++++++++++@+@+@+@+@+@+@+@+@+@+@+@+@+#+$+$+(+_+$+(+:+$+$+#+@+@+@+@++++++++++++++++++++",
"+++++++++++++++++++++++++++@+@+@+@+@+@+@+@+@+@+@+@+$+$+$+:+$+<+[+}+$+$+@+@+@+@+@++++++++++++++++++++",
"+++++++++++++++++++++++++++++++++@+@+@+@+@+@+@+@+&+$+$+|+1+]+[+2+$+$+%+@+@+@+@++++++++++++++++++++++",
"+++++++++++++++++++++++++++++++++++++++++@+@+@+@+#+$+$+:+{+3+(+(+$+$+&+@+@+@+@++++++++++++++++++++++",
"+++++++++++++++++++++++++++++++++++++++++@+@+@+@+$+$+4+4+4+5+(+6+$+$+@+@+@+@++++++++++++++++++++++++",
"+++++++++++++++++++++++++++++++++++++++++@+@+@+#+$+$+7+8+]+9+0+$+$+#+@+@+@+@++++++++++++++++++++++++",
"+++++++++++++++++++++++++++++++++++++++@+@+@+@+%+$+a+b+c+d+e+f+$+$+@+@+@+@++++++++++++++++++++++++++",
"+++++++++++++++++++++++++++++++++++++@+@+@+@+@+$+$+g+h+i+j+k+$+$+%+@+@+@+@++++++++++++++++++++++++++",
"+++++++++++++++++++++++++++++++++++++@+@+@+@+#+$+$+l+m+n+f+o+$+$+#+@+@+@+@++++++++++++++++++++++++++",
"+++++++++++++++++++++++++++++++++++@+@+@+@+@+$+$+0+p+q+b+r+|+$+$+@+@+@+@+@++++++++++++++++++++++++++",
"+++++++++++++++++++++++++++++++++++@+@+@+@+&+$+$+s+t+n+u+v+$+$+#+@+@+@+@+@++++++++++++++++++++++++++",
"+++++++++++++++++++++++++++++++++++@+@+@+@+%+$+$+w+x+y+z+A+$+$+&+@+@+@+@++++++++++++++++++++++++++++",
"+++++++++++++++++++++++++++++++++++@+@+@+@+$+$+B+C+w+D+E+F+$+%+@+@+@+@+@++++++++++++++++++++++++++++",
"+++++++++++++++++++++++++++++++++++@+@+@+#+$+$+G+H+I+J+K+$+$+#+@+@+@+@+@++++++++++++++++++++++++++++",
"+++++++++++++++++++++++++++++++++@+@+@+@+%+$+b+L+M+N+O+P+$+$+@+@+@+@+@++++++++++++++++++++++++++++++",
"+++++++++++++++++++++++++++++++++@+@+@+&+$+$+Q+R+S+T+U+$+$+%+@+@+@+@+@++++++++++++++++++++++++++++++",
"+++++++++++++++++++++++++++++++@+@+@+@+#+$+$+V+W+X+Y+l+$+$+&+@+@+@+@++++++++++++++++++++++++++++++++",
"+++++++++++++++++++++++++++++++@+@+@+@+$+$+Z@+@@@#@$+d+$+$+@+@+@+@+@++++++++++++++++++++++++++++++++",
"+++++++++++++++++++++++++++++++@+@+@+#+$+$@%@&@*@=@-+$+$+#+@+@+@+@++++++++++++++++++++++++++++++++++",
"+++++++++++++++++++++++++++++@+@+@+@+%+$@;@>@,@'@)@!+$+$+@+@+@+@+@++++++++++++++++++++++++++++++++++",
"+++++++++++++++++++++++++++++@+@+@+@+$+$@~@{@]@^@/+$+$+%+@+@+@+@++++++++++++++++++++++++++++++++++++",
"+++++++++++++++++++++++++++++@+@+@+#+$+$@(@_@:@<@[+$+$+#+@+@+@+@++++++++++++++++++++++++++++++++++++",
"+++++++++++++++++++++++++++++@+@+@+%+$@}@|@1@2@3@4+$+$+@+@+@+@++++++++++++++++++++++++++++++++++++++",
"+++++++++++++++++++++++++++++@+@+@+$+$@5@6@7@8@9+$+$+#+@+@+@+@++++++++++++++++++++++++++++++++++++++",
"+++++++++++++++++++++++++++++@+@+@+#+$+$+$+$+$+$+$+$+@+@+@+@++++++++++++++++++++++++++++++++++++++++",
"+++++++++++++++++++++++++++++@+@+@+@+%+$+$+$+$+$+$+&+@+@+@+@++++++++++++++++++++++++++++++++++++++++",
"+++++++++++++++++++++++++++++@+@+@+@+@+&+#+#+#+&+@+@+@+@+@++++++++++++++++++++++++++++++++++++++++++",
"+++++++++++++++++++++++++++++++@+@+@+@+@+@+@+@+@+@+@+@+@++++++++++++++++++++++++++++++++++++++++++++",
"+++++++++++++++++++++++++++++++++@+@+@+@+@+@+@+@+@+@+@++++++++++++++++++++++++++++++++++++++++++++++",
"+++++++++++++++++++++++++++++++++++++++@+@+@+@+@++++++++++++++++++++++++++++++++++++++++++++++++++++",
"++++++++++++++++++++++++++++++++++++++++++++++++++++++++++++++++++++++++++++++++++++++++++++++++++++",
"++++++++++++++++++++++++++++++++++++++++++++++++++++++++++++++++++++++++++++++++++++++++++++++++++++",
"++++++++++++++++++++++++++++++++++++++++++++++++++++++++++++++++++++++++++++++++++++++++++++++++++++"};
