/* XPM */
static char * ball_red_xpm[] = {
"44 44 177 2",
"@Y c #CECECE",
"@X c #B7B7B7",
"@W c #D2D2D2",
"@V c #0D0D0D",
"@U c #484848",
"@T c #F8F8F8",
"@S c #202020",
"@R c #020200",
"@Q c #141101",
"@P c #120B00",
"@O c #140E00",
"@N c #110C00",
"@M c #626262",
"@L c #969696",
"@K c #1E1601",
"@J c #FEC013",
"@I c #F6A512",
"@H c #FEBB1B",
"@G c #D68704",
"@F c #F4F4F4",
"@E c #292929",
"@D c #734C15",
"@C c #FE9A1F",
"@B c #FFA227",
"@A c #FF8810",
"@z c #80470B",
"@y c #4D4D4D",
"@x c #FCFCFC",
"@w c #E94704",
"@v c #FC7217",
"@u c #FE7215",
"@t c #FA821B",
"@s c #391700",
"@r c #979797",
"@q c #3E1A05",
"@p c #FA590E",
"@o c #FC550E",
"@n c #F74408",
"@m c #E34B0B",
"@l c #F1F1F1",
"@k c #B31900",
"@j c #FA400C",
"@i c #FD4008",
"@h c #F83607",
"@g c #5F0F01",
"@f c #909090",
"@e c #140000",
"@d c #E52304",
"@c c #F82606",
"@b c #F93C11",
"@a c #E31100",
"@0 c #130200",
"@9 c #A1A1A1",
"@8 c #444444",
"@7 c #E60600",
"@6 c #E81307",
"@5 c #D90902",
"@4 c #9A0700",
"@3 c #252525",
"@2 c #C1C1C1",
"@1 c #A70403",
"@| c #D80A0A",
"@} c #C90000",
"@[ c #DC0100",
"@< c #580100",
"@: c #6C6C6C",
"@_ c #797979",
"@( c #260000",
"@/ c #A50000",
"@^ c #BC0000",
"@] c #C00000",
"@{ c #9C0000",
"@~ c #070707",
"@! c #E2E2E2",
"@) c #8B0000",
"@' c #920000",
"@, c #960000",
"@> c #620000",
"@; c #373737",
"@- c #B1B1B1",
"@= c #060000",
"@* c #730606",
"@& c #5C0000",
"@% c #740000",
"@$ c #720000",
"@# c #838383",
"@@ c #474747",
"@+ c #460000",
"+Z c #4D0000",
"+Y c #540000",
"+X c #560000",
"+W c #121212",
"+V c #EEEEEE",
"+U c #DFDFDF",
"+T c #111111",
"+S c #3A0000",
"+R c #4B0000",
"+Q c #340000",
"+P c #5B0707",
"+O c #737373",
"+N c #2D0000",
"+M c #330000",
"+L c #400000",
"+K c #5D0000",
"+J c #BEBEBE",
"+I c #F9F9F9",
"+H c #2C2C2C",
"+G c #200606",
"+F c #3E0101",
"+E c #4A0303",
"+D c #420101",
"+C c #2E0303",
"+B c #3D3D3D",
"+A c #D9D9D9",
"+z c #350000",
"+y c #240000",
"+x c #2D0202",
"+w c #2A0000",
"+v c #130101",
"+u c #898989",
"+t c #5C5C5C",
"+s c #130000",
"+r c #1E0000",
"+q c #250000",
"+p c #0B0B0B",
"+o c #CACACA",
"+n c #FBFBFB",
"+m c #190000",
"+l c #1A0000",
"+k c #170000",
"+j c #545454",
"+i c #919191",
"+h c #110000",
"+g c #0F0000",
"+f c #A0A0A0",
"+e c #333333",
"+d c #0C0000",
"+c c #0B0000",
"+b c #080000",
"+a c #CBCBCB",
"+0 c #090000",
"+9 c #0E0303",
"+8 c #070000",
"+7 c #5E5E5E",
"+6 c #878787",
"+5 c #1E1010",
"+4 c #DBDBDB",
"+3 c #EBEBEB",
"+2 c #1D1D1D",
"+1 c #040000",
"+| c #020000",
"+} c #505050",
"+[ c #5B5B5B",
"+< c #727272",
"+: c #DCDCDC",
"+_ c #BCBCBC",
"+( c #030000",
"+/ c #131313",
"+^ c #C3C3C3",
"+] c #707070",
"+{ c #010000",
"+~ c #050303",
"+! c #3E3E3E",
"+) c #060606",
"+' c #010101",
"+, c #080808",
"+> c #040404",
"+; c #050505",
"+- c #000000",
"+= c #030303",
"+* c #A7A7A7",
"+& c #282828",
"+% c #3F3F3F",
"+$ c #B9B9B9",
"+# c #FEFEFE",
"+@ c #FFFFFF",
"++ c None",
"++++++++++++++++++++++++++++++++++++++++++++++++++++++++++++++++++++++++++++++++++++++++",
"++++++++++++++++++++++++++++++++++++++++++++++++++++++++++++++++++++++++++++++++++++++++",
"+++++++++++++++++++++++++++++++++@+@+@+@+#+@+@+#+#+@+@++++++++++++++++++++++++++++++++++",
"+++++++++++++++++++++++#+@+@+#+@+#+@+#+#+#+@+#+#+#+#+#+#+@+@+@+@+@+#++++++++++++++++++++",
"+++++++++++++++++++++#+#+#+@+#+@+@+@+@+@+#+@+#+#+@+#+@+@+@+@+@+#+@+#+#++++++++++++++++++",
"+++++++++++++++++++@+@+@+@+@+@+@+#+#+#+@+#+@+@+@+@+@+@+#+#+#+@+#+@+@+@++++++++++++++++++",
"+++++++++++++++++@+@+@+@+$+%+&+&+&+&+&+&+&+&+&+&+&+&+&+&+&+&+%+$+@+@+#++++++++++++++++++",
"+++++++++++++++++@+@+@+*+=+-+-+-+-+-+-+-+-+-+-+-+-+-+-+-+-+-+-+=+*+@+@+@++++++++++++++++",
"+++++++++++++++++@+#+#+&+-+-+-+-+-+-+-+-+-+;+-+-+-+-+;+-+-+-+>+-+&+#+#+#++++++++++++++++",
"+++++++++++++++++@+@+#+-+-+-+-+>+,+-+-+-+-+-+-+-+-+-+-+-+-+-+'+-+-+@+#+#++++++++++++++++",
"+++++++++++++++++@+#+@+-+-+-+-+-+-+-+'+-+-+-+-+-+-+-+-+-+'+)+-+-+-+#+@+#++++++++++++++++",
"+++++++++++++++++#+#+#+!+-+-+-+-+-+-+-+-+-+~+-+-+-+-+-+-+{+-+-+-+]+#+#+#++++++++++++++++",
"+++++++++++++++++#+#+@+^+/+-+-+-+-+-+-+-+-+-+-+-+-+-+-+-+(+-+-+-+_+@+@+#++++++++++++++++",
"+++++++++++++++++++@+@+#+:+<+[+[+[+[+[+[+[+[+}+-+-+-+|+|+|+1+-+2+3+#+@+#++++++++++++++++",
"+++++++++++++++++++#+#+#+#+#+#+@+@+@+#+#+#+@+4+-+-+1+5+-+-+-+-+6+@+#+#+@++++++++++++++++",
"+++++++++++++++++++++@+#+#+@+#+@+@+@+@+@+#+@+7+-+-+8+9+1+0+-+,+a+@+#+@+@++++++++++++++++",
"+++++++++++++++++++++++@+@+#+@+@+#+#+#+@+#+@+-+-+(+b+c+d+0+-+e+#+@+@+@++++++++++++++++++",
"+++++++++++++++++++++++++++++@+@+@+@+@+@+@+f+-+-+c+g+1+h+|+-+i+@+@+@+#++++++++++++++++++",
"+++++++++++++++++++++++++++++++++++++#+@+@+j+-+k+c+l+m+g+-+/+n+@+@+@++++++++++++++++++++",
"+++++++++++++++++++++++++++++++++++++@+#+o+p+-+q+m+r+s+(+-+t+#+#+#++++++++++++++++++++++",
"+++++++++++++++++++++++++++++++++++#+@+@+u+-+v+w+x+y+z+{+-+A+@+@+#++++++++++++++++++++++",
"+++++++++++++++++++++++++++++++++#+@+@+@+B+-+C+D+E+F+G+-+H+I+@+#+@++++++++++++++++++++++",
"+++++++++++++++++++++++++++++++#+#+@+#+J+-+{+K+L+M+N+g+-+O+#+#+#+@++++++++++++++++++++++",
"+++++++++++++++++++++++++++++++@+@+@+@+[+-+k+P+Q+R+S+-+T+U+@+@+#+@++++++++++++++++++++++",
"+++++++++++++++++++++++++++++#+#+@+@+V+W+-+X+Y+Z@++m+-@@+@+#+@+#+@++++++++++++++++++++++",
"+++++++++++++++++++++++++++++#+@+@+@@#+-+s@$@%@&@*@=+'@-+@+#+#+@++++++++++++++++++++++++",
"+++++++++++++++++++++++++++++#+@+@+@@;+-@>@,@'@)+R+-+&+@+@+@+@+@++++++++++++++++++++++++",
"+++++++++++++++++++++++++++++@+@+#@!@~+c@{@]@^@/@(+-@_+#+#+#+@++++++++++++++++++++++++++",
"+++++++++++++++++++++++++++++@+@+@@:+-@<@[@}@|@1@=+>@2+@+@+@+@++++++++++++++++++++++++++",
"+++++++++++++++++++++++++++@+@+#+I@3+{@4@5@6@7@++-@8+#+@+@+@+#++++++++++++++++++++++++++",
"+++++++++++++++++++++++++++@+#+@@9+-@0@a@b@c@d@e+-@f+@+@+@+@++++++++++++++++++++++++++++",
"+++++++++++++++++++++++++++#+@+@@@+-@g@h@i@j@k+-+2@l+@+#+@+@++++++++++++++++++++++++++++",
"+++++++++++++++++++++++++@+#+@+4+,+-@m@n@o@p@q+-+[+@+@+@+#++++++++++++++++++++++++++++++",
"+++++++++++++++++++++++++@+#+#@r+-@s@t@u@v@w+-+-+a+#+#+#+#++++++++++++++++++++++++++++++",
"+++++++++++++++++++++++++@+@@x@y+-@z@A@B@C@D+-@E+V+@+@+#++++++++++++++++++++++++++++++++",
"+++++++++++++++++++++++++@+@@F+-+-@G@H@I@J@K+-@L+@+#+@+@++++++++++++++++++++++++++++++++",
"+++++++++++++++++++++++++@+#+#@M+-@N@O@P@Q@R@S@T+#+#+@++++++++++++++++++++++++++++++++++",
"+++++++++++++++++++++++++#+@+#+V@U+)+-+-@V+&@W+#+@+#++++++++++++++++++++++++++++++++++++",
"+++++++++++++++++++++++++#+#+@+@+#+^@X@X@Y+@+@+@+@+#++++++++++++++++++++++++++++++++++++",
"+++++++++++++++++++++++++++#+#+@+@+@+@+@+@+@+@+@+#++++++++++++++++++++++++++++++++++++++",
"+++++++++++++++++++++++++++++#+@+@+@+@+@+#+@+#+#++++++++++++++++++++++++++++++++++++++++",
"+++++++++++++++++++++++++++++++++++@+@+@+@++++++++++++++++++++++++++++++++++++++++++++++",
"++++++++++++++++++++++++++++++++++++++++++++++++++++++++++++++++++++++++++++++++++++++++",
"++++++++++++++++++++++++++++++++++++++++++++++++++++++++++++++++++++++++++++++++++++++++"};
