/* XPM */
static char * ball_red_xpm[] = {
"44 44 298 2",
"$4 c #D9D9D9",
"$3 c #C8C8C8",
"$2 c #090909",
"$1 c #949494",
"$| c #7E7E7E",
"$} c #080808",
"$[ c #130D00",
"$< c #141202",
"$: c #141001",
"$_ c #140E00",
"$( c #141000",
"$/ c #0F0B00",
"$^ c #1C1C1C",
"$] c #FBFBFB",
"${ c #F2F2F2",
"$~ c #241D09",
"$! c #915B04",
"$) c #FB9E04",
"$' c #FFC719",
"$, c #FFBC13",
"$> c #FEC119",
"$; c #FFC81A",
"$- c #E7A210",
"$= c #A1660F",
"$* c #230F00",
"$& c #797979",
"$% c #030100",
"$$ c #925110",
"$# c #E97A15",
"$@ c #FF820D",
"$+ c #FF7F05",
"#Z c #FE8613",
"#Y c #FD6A08",
"#X c #FF9A22",
"#W c #FC7209",
"#V c #FE7F0E",
"#U c #FF8915",
"#T c #E1861F",
"#S c #6D2703",
"#R c #7B7B7B",
"#Q c #9E4E0F",
"#P c #FF7310",
"#O c #FE7014",
"#N c #F75D0B",
"#M c #F35D0E",
"#L c #F55D0A",
"#K c #FE6F10",
"#J c #F7620F",
"#I c #FA5100",
"#H c #FE6006",
"#G c #FE6F12",
"#F c #F6640B",
"#E c #F9660B",
"#D c #702C05",
"#C c #AEAEAE",
"#B c #F1F1F1",
"#A c #983407",
"#z c #FE5908",
"#y c #FA590F",
"#x c #FB4400",
"#w c #F16013",
"#v c #6A2A0B",
"#u c #0D0702",
"#t c #842606",
"#s c #EA4D07",
"#r c #FA4A02",
"#q c #F85B15",
"#p c #FB530A",
"#o c #641802",
"#n c #260A02",
"#m c #E63B0B",
"#l c #FD5D18",
"#k c #F8450D",
"#j c #EC3904",
"#i c #421200",
"#h c #1D0800",
"#g c #CD2D01",
"#f c #E71900",
"#e c #F23B08",
"#d c #D02D05",
"#c c #A6A6A6",
"#b c #870A03",
"#a c #F02203",
"#0 c #F1300F",
"#9 c #F72E0A",
"#8 c #5D1704",
"#7 c #070707",
"#6 c #A3A3A3",
"#5 c #BEBEBE",
"#4 c #1D1D1D",
"#3 c #490200",
"#2 c #DE1200",
"#1 c #F22105",
"#| c #F12704",
"#} c #591306",
"#[ c #343434",
"#< c #F3F3F3",
"#: c #0F0F0F",
"#_ c #BC0D07",
"#( c #D90100",
"#/ c #ED160E",
"#^ c #B60301",
"#] c #050100",
"#{ c #B1B1B1",
"#~ c #BBBBBB",
"#! c #BA0500",
"#) c #F60901",
"#' c #DD0401",
"#, c #CA0000",
"#> c #1C0100",
"#; c #C60201",
"#- c #CB0000",
"#= c #CE0000",
"#* c #A70000",
"#& c #8C0000",
"#% c #D00000",
"#$ c #C90B09",
"## c #D80301",
"#@ c #250000",
"#+ c #990000",
"@Z c #A60000",
"@Y c #B00000",
"@X c #6F0000",
"@W c #BB0000",
"@V c #B20000",
"@U c #AD0000",
"@T c #3F0000",
"@S c #100000",
"@R c #AB0000",
"@Q c #830000",
"@P c #870000",
"@O c #820000",
"@N c #6E0000",
"@M c #720000",
"@L c #790000",
"@K c #430000",
"@J c #5D5D5D",
"@I c #333333",
"@H c #5C0101",
"@G c #7A0000",
"@F c #850303",
"@E c #630000",
"@D c #670000",
"@C c #ADADAD",
"@B c #4D0000",
"@A c #DEDEDE",
"@z c #D7D7D7",
"@y c #121212",
"@x c #440000",
"@w c #5A0101",
"@v c #540000",
"@u c #520000",
"@t c #EBEBEB",
"@s c #171717",
"@r c #400303",
"@q c #550000",
"@p c #530000",
"@o c #290000",
"@n c #F5F5F5",
"@m c #525252",
"@l c #380000",
"@k c #420101",
"@j c #520202",
"@i c #3F0303",
"@h c #100101",
"@g c #4E0000",
"@f c #1E1E1E",
"@e c #737373",
"@d c #8E8E8E",
"@c c #3D0000",
"@b c #3B0303",
"@a c #2C0101",
"@0 c #3E0000",
"@9 c #230101",
"@8 c #240000",
"@7 c #1D0202",
"@6 c #4A0606",
"@5 c #2E0000",
"@4 c #280000",
"@3 c #270000",
"@2 c #1A1A1A",
"@1 c #3B0000",
"@| c #2F0000",
"@} c #310000",
"@[ c #130000",
"@< c #2A0000",
"@: c #340909",
"@_ c #2F0303",
"@( c #350000",
"@/ c #320000",
"@^ c #2B0000",
"@] c #2D0000",
"@{ c #C9C9C9",
"@~ c #090000",
"@! c #1A0000",
"@) c #190000",
"@' c #230000",
"@, c #1F0000",
"@> c #140000",
"@; c #200000",
"@- c #260000",
"@= c #838383",
"@* c #0C0000",
"@& c #180000",
"@% c #1D0000",
"@$ c #210000",
"@# c #1A0404",
"@@ c #1C0303",
"@+ c #020000",
"+Z c #150000",
"+Y c #290101",
"+X c #1E0000",
"+W c #200303",
"+V c #858585",
"+U c #151515",
"+T c #0E0000",
"+S c #110000",
"+R c #0D0000",
"+Q c #1A0101",
"+P c #120000",
"+O c #160000",
"+N c #320707",
"+M c #DCDCDC",
"+L c #747474",
"+K c #131313",
"+J c #170000",
"+I c #1B0000",
"+H c #E1E1E1",
"+G c #A9A9A9",
"+F c #666666",
"+E c #515151",
"+D c #2C2C2C",
"+C c #656565",
"+B c #4D4D4D",
"+A c #0A0000",
"+z c #0F0000",
"+y c #080000",
"+x c #CECECE",
"+w c #F4F4F4",
"+v c #808080",
"+u c #070000",
"+t c #0B0000",
"+s c #030000",
"+r c #4E4E4E",
"+q c #FDFDFD",
"+p c #F8F8F8",
"+o c #7F7F7F",
"+n c #5B5B5B",
"+m c #ACACAC",
"+l c #FCFCFC",
"+k c #EEEEEE",
"+j c #CBCBCB",
"+i c #505050",
"+h c #050000",
"+g c #BCBCBC",
"+f c #3A3A3A",
"+e c #3D3D3D",
"+d c #292929",
"+c c #060000",
"+b c #060404",
"+a c #262626",
"+0 c #F0F0F0",
"+9 c #040303",
"+8 c #020101",
"+7 c #010000",
"+6 c #959595",
"+5 c #606060",
"+4 c #181818",
"+3 c #F7F7F7",
"+2 c #707070",
"+1 c #060606",
"+| c #020202",
"+} c #030303",
"+[ c #616161",
"+< c #E0E0E0",
"+: c #2B2B2B",
"+_ c #010101",
"+( c #0D0D0D",
"+/ c #8C8C8C",
"+^ c #F9F9F9",
"+] c #E6E6E6",
"+{ c #999999",
"+~ c #313131",
"+! c #101010",
"+) c #000000",
"+' c #040404",
"+, c #282828",
"+> c #828282",
"+; c #F6F6F6",
"+- c #D4D4D4",
"+= c #7D7D7D",
"+* c #474747",
"+& c #9C9C9C",
"+% c #B7B7B7",
"+$ c #C0C0C0",
"+# c #FEFEFE",
"+@ c #FFFFFF",
"++ c None",
"++++++++++++++++++++++++++++++++++++++++++++++++++++++++++++++++++++++++++++++++++++++++",
"++++++++++++++++++++++++++++++++++++++++++++++++++++++++++++++++++++++++++++++++++++++++",
"+++++++++++++++++++++++++++++++++++++++++++@+@+@+@+#+@+@++++++++++++++++++++++++++++++++",
"+++++++++++++++++++++++++++++++++++#+@+@+@+#+#+#+#+#+@+#+@+@+@+@+#++++++++++++++++++++++",
"+++++++++++++++++++++++++++++++#+#+@+@+@+#+@+#+#+@+#+@+@+@+@+@+#+@+#++++++++++++++++++++",
"+++++++++++++++++++++++++++++@+#+#+#+#+@+#+$+%+&+*+=+%+%+-+#+@+#+@+@++++++++++++++++++++",
"+++++++++++++++++++++++++++++#+@+@+@+;+>+,+'+)+)+)+)+)+)+!+~+{+]+@+#+#++++++++++++++++++",
"+++++++++++++++++++++++++#+@+@+#+^+/+(+)+)+)+)+)+)+_+)+)+)+)+)+:+]+@+@+@++++++++++++++++",
"+++++++++++++++++++++++++@+#+#+<+[+)+)+)+_+)+}+)+|+'+)+)+}+1+)+)+2+#+#+@++++++++++++++++",
"+++++++++++++++++++++++@+#+#+3+4+)+)+)+)+)+)+)+)+|+)+|+)+}+)+)+)+2+@+#+@+#++++++++++++++",
"+++++++++++++++++++++++@+@+#+5+)+)+)+)+)+)+)+)+)+)+)+)+)+)+)+)+)+2+#+@+#+@++++++++++++++",
"+++++++++++++++++++++@+#+#+6+)+)+7+8+9+)+)+)+)+)+)+)+)+)+)+)+)+)+2+#+#+@++++++++++++++++",
"+++++++++++++++++++@+@+@+0+a+)+)+)+b+c+)+)+)+)+d+e+f+)+)+)+)+)+)+g+@+@+#++++++++++++++++",
"+++++++++++++++++++@+@+#+{+)+)+)+)+)+h+)+)+i+j+k+@+l+j+m+n+n+n+o+p+#+#++++++++++++++++++",
"+++++++++++++++++@+#+@+q+r+)+c+s+t+u+)+)+v+l+^+w+l+#+@+@+@+#+#+#+@+#+#++++++++++++++++++",
"+++++++++++++++++@+#+@+x+)+)+s+y+z+A+)+)+B+C+D+)+E+F+G+H+@+@+@+#+@+#++++++++++++++++++++",
"+++++++++++++++++#+#+@+2+)+A+I+t+J+h+)+)+)+)+)+)+)+)+)+K+L+M+@+#+@+@+@++++++++++++++++++",
"+++++++++++++++++#+@+@+2+)+y+N+O+P+h+)+)+c+7+Q+R+S+T+s+)+)+U+V+@+@+@+#++++++++++++++++++",
"+++++++++++++++#+#+@+@+'+)+W+X+Y+Z@++h@@@#+A@$+J@%+O@&+y@*+)+|@=+l+@+@+@++++++++++++++++",
"+++++++++++++++#+#+#+#+)+)@-@;+O+Z@>@,+W@%+R+P@'@)+P@!@$+S@~+)+)@{+#+#+@++++++++++++++++",
"+++++++++++++++@+@+@+#+)+)@]@;@^@/@(@_@:@<@%+c@*@&@[@[@}@|@1@[+)@2+@+#+@+#++++++++++++++",
"+++++++++++++++@+@+#+@+)+)@3+Z@4@;@5@6@7@++)+)+)+)+)@!@4@8@4@!+)+)+&+@+#+@++++++++++++++",
"+++++++++++++++@+#+#+#+)+)@9@0@a@b@c+T+)+)@2@d@e@f+|+)@|@<@g@1@h+)@f+#+#+#+@++++++++++++",
"+++++++++++++++@+@+#+@+)+)@i@j@k@c@l@++)@m@n+@+@+@+5+)+h@o@p@q@r+7@s@t+@+@+#++++++++++++",
"+++++++++++++++@+@+#+@+)+)@u@v@w@x@^+)@y@z+@+#+@+@@A+)+)@(@g@B@/+7+)@C+@+#+#++++++++++++",
"+++++++++++++++#+#+#+@+'+)@D@E@F@G@H+)@I+#+@+#+#+#+#@J+)@K@L@M@N+z+)@C+#+#+#++++++++++++",
"+++++++++++++++#+@+#+@+2+)@(@O@P@Q@u+)@I+#+@+#+#+@+#+F+)@}@R@O@P@S+)@C+@+#+@++++++++++++",
"+++++++++++++++@+@+#+@+2+)@T@U@V@W@X+)@I+#+@+@+@+@+@+F+)@B@Y@Z#++S+)@C+@+@+@++++++++++++",
"+++++++++++++++#+@+@+@+x+)#@###$#%#&+)@I+@+@+@+@+@+;+!+)#*#=#-#;#>+)@C+@+@+@++++++++++++",
"+++++++++++++++++#+@+@+<+)+)#,#'#)#!+h+|#~+@+@+@+@#{+)#]#^#/#(#_+t#:@z+@+@+@++++++++++++",
"+++++++++++++++++#+#+##<#[+)#}#|#1#2#3+)#4#5+j+j#6#7+)#8#9#0#a#b+)@f+#+#+#+#++++++++++++",
"+++++++++++++++++@+@+#+@#c+)+h#d#e#f#g#h+)+)+)+)+)+)#i#j#k#l#m#n+)@e+#+#+@+@++++++++++++",
"+++++++++++++++++++@+@+#+3+D+)#o#p#q#r#s#t#u+)+)+)#v#w#x#y#z#A+)+)#B+@+#+@++++++++++++++",
"+++++++++++++++++++++@+#+##C+|+)#D#E#F#G#H#I#J#K#L#M#N#O#P#Q+)+)+=+#+#+#+#++++++++++++++",
"+++++++++++++++++++++++#+@+@#R+)+)#S#T#U#V#W#X#Y#Z$+$@$#$$$%+)@m@n+@+@+#++++++++++++++++",
"+++++++++++++++++++++++@+@+@+l$&+)+)$*$=$-$;$>$,$'$)$!$~+)+)+E${+@+#+@+#++++++++++++++++",
"+++++++++++++++++++++++#+@+#+#$]+{$^+)+)$/$($_$:$<$[+)+)$}$|+3+#+@+#+#++++++++++++++++++",
"+++++++++++++++++++++++++++@+#+@+@+@$1+,$2+)+)+)+)+K+,$&+k+@+@+#+@+#++++++++++++++++++++",
"+++++++++++++++++++++++++++++@+@+#+#+#+@$3+%+%+%+%$4+@+#+#+#+@+@+@++++++++++++++++++++++",
"+++++++++++++++++++++++++++++++#+@+@+@+@+@+@+@+@+@+@+@+@+@+@+#+@++++++++++++++++++++++++",
"+++++++++++++++++++++++++++++++++@+#+@+@+@+@+@+@+@+@+#+@+@+@++++++++++++++++++++++++++++",
"+++++++++++++++++++++++++++++++++++++@+@+#+#+#+#+#+@++++++++++++++++++++++++++++++++++++",
"++++++++++++++++++++++++++++++++++++++++++++++++++++++++++++++++++++++++++++++++++++++++",
"++++++++++++++++++++++++++++++++++++++++++++++++++++++++++++++++++++++++++++++++++++++++"};
