/* XPM */
static char * ball_red_xpm[] = {
"44 44 194 2",
"#~ c #636363",
"#! c #DADADA",
"#) c #E6E6E6",
"#' c #2B2B2B",
"#, c #1C1C1C",
"#> c #DFDFDF",
"#; c #3A2300",
"#- c #A36101",
"#= c #A36C09",
"#* c #A36003",
"#& c #A36207",
"#% c #A36707",
"#$ c #A37E1B",
"## c #A37110",
"#@ c #A15300",
"#+ c #A26105",
"@Z c #A26D10",
"@Y c #A35400",
"@X c #A37713",
"@W c #A37613",
"@V c #A26504",
"@U c #4E2D00",
"@T c #5B3208",
"@S c #FE8915",
"@R c #FC740B",
"@Q c #FC7F0D",
"@P c #FF7E0B",
"@O c #FE8611",
"@N c #FE8516",
"@M c #FE7D0E",
"@L c #FC7B0F",
"@K c #FA6C08",
"@J c #FE820B",
"@I c #FE8D1D",
"@H c #FF7E06",
"@G c #FB7509",
"@F c #F98416",
"@E c #FE8811",
"@D c #7A440B",
"@C c #707070",
"@B c #5A2707",
"@A c #FE5903",
"@z c #FC6508",
"@y c #FE760D",
"@x c #FE7210",
"@w c #FE6D07",
"@v c #FE7213",
"@u c #F9680F",
"@t c #F95503",
"@s c #F97314",
"@r c #F3610E",
"@q c #FE740D",
"@p c #F9630C",
"@o c #FF7310",
"@n c #FE7B14",
"@m c #F9761A",
"@l c #793B09",
"@k c #AFAFAF",
"@j c #281203",
"@i c #6A2205",
"@h c #6E1E00",
"@g c #6F2703",
"@f c #6F2400",
"@e c #703209",
"@d c #8C380A",
"@c c #FF5E10",
"@b c #FE6112",
"@a c #F84808",
"@0 c #9D3A05",
"@9 c #702700",
"@8 c #6E1900",
"@7 c #702B03",
"@6 c #702C05",
"@5 c #702E04",
"@4 c #351300",
"@3 c #F5F5F5",
"@2 c #2E0D02",
"@1 c #EE3806",
"@| c #F23504",
"@} c #F43406",
"@[ c #511401",
"@< c #3D3D3D",
"@: c #EBEBEB",
"@_ c #F2F2F2",
"@( c #A3A3A3",
"@/ c #373737",
"@^ c #2D0400",
"@] c #F31A02",
"@{ c #FD3208",
"@~ c #E71D07",
"@! c #510E00",
"@) c #2C2C2C",
"@' c #5B5B5B",
"@, c #969696",
"@> c #ECECEC",
"@; c #F00E01",
"@- c #FA1A07",
"@= c #F10F04",
"@* c #4E0100",
"@& c #F00B09",
"@% c #D00000",
"@$ c #3A0000",
"@# c #AB0000",
"@@ c #BC0000",
"@+ c #B20000",
"+Z c #350000",
"+Y c #1B0000",
"+X c #8F0000",
"+W c #B00000",
"+V c #9A0000",
"+U c #330101",
"+T c #190000",
"+S c #760000",
"+R c #810202",
"+Q c #8D0000",
"+P c #2E0000",
"+O c #540000",
"+N c #490000",
"+M c #5C0101",
"+L c #260303",
"+K c #4A0000",
"+J c #3D0606",
"+I c #550505",
"+H c #330000",
"+G c #4A0202",
"+F c #300202",
"+E c #150000",
"+D c #1E0000",
"+C c #270000",
"+B c #400000",
"+A c #140000",
"+z c #0B0000",
"+y c #4D1111",
"+x c #1D0000",
"+w c #2A0000",
"+v c #060000",
"+u c #3F0101",
"+t c #240000",
"+s c #200000",
"+r c #0F0000",
"+q c #160000",
"+p c #1F0000",
"+o c #070000",
"+n c #0C0000",
"+m c #0D0202",
"+l c #1E0101",
"+k c #100202",
"+j c #110505",
"+i c #1A0505",
"+h c #0D0000",
"+g c #160505",
"+f c #0A0101",
"+e c #090000",
"+d c #050000",
"+c c #3A3A3A",
"+b c #7A7A7A",
"+a c #5A5A5A",
"+0 c #525252",
"+9 c #D6D6D6",
"+8 c #030101",
"+7 c #0C0404",
"+6 c #515151",
"+5 c #070303",
"+4 c #020000",
"+3 c #989898",
"+2 c #090505",
"+1 c #010000",
"+| c #E0E0E0",
"+} c #040404",
"+[ c #030303",
"+< c #010101",
"+: c #E7E7E7",
"+_ c #797979",
"+( c #F6F6F6",
"+/ c #0D0D0D",
"+^ c #020202",
"+] c #0A0A0A",
"+{ c #131313",
"+~ c #909090",
"+! c #FAFAFA",
"+) c #C0C0C0",
"+' c #202020",
"+, c #000000",
"+> c #1B1B1B",
"+; c #282828",
"+- c #5E5E5E",
"+= c #999999",
"+* c #B5B5B5",
"+& c #F0F0F0",
"+% c #B7B7B7",
"+$ c #E8E8E8",
"+# c #FEFEFE",
"+@ c #FFFFFF",
"++ c None",
"++++++++++++++++++++++++++++++++++++++++++++++++++++++++++++++++++++++++++++++++++++++++",
"++++++++++++++++++++++++++++++++++++++++++++++++++++++++++++++++++++++++++++++++++++++++",
"+++++++++++++++++++++++++++++++++@+@+@+@+@+@+@+#+@++++++++++++++++++++++++++++++++++++++",
"+++++++++++++++++++++++++++#+@+@+#+@+#+#+#+@+#+#+@+#++++++++++++++++++++++++++++++++++++",
"+++++++++++++++++++++++#+@+@+#+@+@+@+@+@+#+@+#+#+@+@+@++++++++++++++++++++++++++++++++++",
"+++++++++++++++++++++++@+@+@+@+@+#+#+#+@+$+%+%+%+&+@+@+@+@++++++++++++++++++++++++++++++",
"+++++++++++++++++++++#+@+@+@+@+@+*+=+-+;+>+,+,+,+'+)+@+@+@+#++++++++++++++++++++++++++++",
"+++++++++++++++++++#+@+@+!+~+{+]+^+,+,+,+,+,+,+,+,+/+(+@+@+@++++++++++++++++++++++++++++",
"+++++++++++++++++@+@+#+#+_+,+,+,+,+,+,+,+,+^+,+,+,+,+=+@+@+@++++++++++++++++++++++++++++",
"+++++++++++++++++#+@+#+:+{+,+,+,+,+,+,+<+^+<+[+}+,+,+=+#+@+@++++++++++++++++++++++++++++",
"+++++++++++++++++#+#+@+|+,+,+,+,+,+,+,+,+,+,+,+,+,+,+=+@+@+@++++++++++++++++++++++++++++",
"+++++++++++++++++@+#+#+|+,+,+,+,+,+1+,+,+,+1+,+2+,+,+3+#+@+#++++++++++++++++++++++++++++",
"+++++++++++++++++++#+@+:+{+,+4+1+,+,+,+,+,+,+1+5+,+,+=+@+@+@++++++++++++++++++++++++++++",
"+++++++++++++++++++@+@+#+6+,+,+,+,+,+,+,+4+,+4+7+8+,+=+@+@+@++++++++++++++++++++++++++++",
"+++++++++++++++++++#+#+#+9+0+]+]+a+b+c+,+,+d+,+1+,+,+=+@+@+@++++++++++++++++++++++++++++",
"+++++++++++++++++++++#+#+#+@+#+@+@+@+b+,+d+e+f+g+1+,+=+@+@+@++++++++++++++++++++++++++++",
"+++++++++++++++++++++++@+@+@+@+@+#+#+b+,+e+h+i+j+1+,+=+#+#+@++++++++++++++++++++++++++++",
"+++++++++++++++++++++++#+@+@+@+@+@+@+b+,+k+l+m+n+,+,+=+@+@+@++++++++++++++++++++++++++++",
"+++++++++++++++++++++++++++#+#+#+@+@+b+,+o+p+q+p+d+,+3+@+@+@++++++++++++++++++++++++++++",
"+++++++++++++++++++++++++++++++#+@+@+b+,+r+s+t+u+v+,+=+@+@+@++++++++++++++++++++++++++++",
"+++++++++++++++++++++++++++++++#+#+@+b+,+e+w+x+y+z+,+=+#+@+#++++++++++++++++++++++++++++",
"+++++++++++++++++++++++++++++++@+@+@+b+,+A+B+C+D+e+,+=+@+@+@++++++++++++++++++++++++++++",
"+++++++++++++++++++++++++++++++@+#+@+b+,+E+F+G+H+n+,+3+#+@+#++++++++++++++++++++++++++++",
"+++++++++++++++++++++++++++++++@+@+@+b+,+d+I+J+K+h+,+=+@+@+@+@++++++++++++++++++++++++++",
"+++++++++++++++++++++++++++++#+@+@+@+b+,+L+M+N+O+r+,+=+@+@+#+#++++++++++++++++++++++++++",
"+++++++++++++++++++++++++++++#+@+@+@+b+,+P+Q+R+S+T+,+=+@+@+#+@++++++++++++++++++++++++++",
"+++++++++++++++++++++++++++++#+@+@+@+b+,+U+V+W+X+Y+,+=+@+@+@+@++++++++++++++++++++++++++",
"+++++++++++++++++++++++++++++#+@+#+#+b+,+Z@+@@@#+D+,+=+#+#+#+@+@++++++++++++++++++++++++",
"+++++++++++++++++++++++++++@+@+@+@+@+b+,@$@%@&@@+t+,+=+@+@+@+@+#+@++++++++++++++++++++++",
"+++++++++++++++++++++++#+@+@+@+#+@+@+b+,@*@=@-@;+P+,+3+@+@+@+@+@+@+#++++++++++++++++++++",
"+++++++++++++++++++++@+@+#@>@,@'@'@'@)+,@!@~@{@]@^+,@/@'@'@'@(@_+#+@+#++++++++++++++++++",
"+++++++++++++++++++++@+@@:@<+,+,+,+,+,+,@[@}@|@1@2+,+,+,+,+,+,+0@3+@+#+#++++++++++++++++",
"+++++++++++++++++++#+@+#+~+,@4@5@6@7@8@9@0@a@b@c@d@e@f@g@h@i@j+,@k+#+@+#++++++++++++++++",
"+++++++++++++++++++@+#+#+6+,@l@m@n@o@p@q@r@s@t@u@v@w@x@y@z@A@B+,@C+#+#+@++++++++++++++++",
"+++++++++++++++++++#+@+@+6+,@D@E@F@G@H@I@J@K@L@M@N@O@P@Q@R@S@T+,@C+@+@+@++++++++++++++++",
"+++++++++++++++++++@+@+#+_+,@U@V@W@X@Y@Z#+#@###$#%#&#*#%#=#-#;+,@C+#+@+@++++++++++++++++",
"+++++++++++++++++++#+@+##>#,+,+,+,+,+,+,+,+,+,+,+,+,+,+,+,+,+,#'#)+#+#+@++++++++++++++++",
"+++++++++++++++++++++#+#+##!#~+;+;+;+;+;+;+;+;+;+;+;+;+;+;+;@C#)+@+#+#++++++++++++++++++",
"+++++++++++++++++++++++@+@+@+@+@+#+#+#+@+#+@+@+@+@+@+@+#+#+#+@+#+@+@+@++++++++++++++++++",
"+++++++++++++++++++++++#+@+@+@+@+@+@+@+@+@+@+@+@+@+@+@+@+@+@+@+@+@+#++++++++++++++++++++",
"+++++++++++++++++++++++++#+@+@+#+@+@+@+@+#+@+@+@+@+@+#+@+#+@+@+@+#++++++++++++++++++++++",
"+++++++++++++++++++++++++++++++++++++++++#+@+#+#+#+#+@+@+#++++++++++++++++++++++++++++++",
"++++++++++++++++++++++++++++++++++++++++++++++++++++++++++++++++++++++++++++++++++++++++",
"++++++++++++++++++++++++++++++++++++++++++++++++++++++++++++++++++++++++++++++++++++++++"};
