/* XPM */
static char * ball_red_xpm[] = {
"44 44 276 2",
"$- c #989898",
"$= c #282828",
"$* c #797979",
"$& c #999999",
"$% c #444444",
"$$ c #525252",
"$# c #F6F6F6",
"$@ c #0A0902",
"$+ c #322706",
"#Z c #95720E",
"#Y c #A37C05",
"#X c #A37E0B",
"#W c #A3800D",
"#V c #A37D05",
"#U c #A37000",
"#T c #523601",
"#S c #332100",
"#R c #020100",
"#Q c #414141",
"#P c #57340A",
"#O c #CE720C",
"#N c #FF930D",
"#M c #FFA81D",
"#L c #FE9A17",
"#K c #FE8D0D",
"#J c #F8870A",
"#I c #FF950A",
"#H c #FF9413",
"#G c #FF9A18",
"#F c #FF9B14",
"#E c #B4660A",
"#D c #606060",
"#C c #8B440C",
"#B c #FD8219",
"#A c #FD811B",
"#z c #FC6907",
"#y c #FE6C09",
"#x c #FE8219",
"#w c #FE770E",
"#v c #FE6909",
"#u c #F85701",
"#t c #FE6D0F",
"#s c #FE7B0E",
"#r c #FD6903",
"#q c #EA7510",
"#p c #959595",
"#o c #040100",
"#n c #8A2F07",
"#m c #FF5E05",
"#l c #FF6006",
"#k c #F86613",
"#j c #F56B11",
"#i c #D95713",
"#h c #702600",
"#g c #702800",
"#f c #703308",
"#e c #703104",
"#d c #823C08",
"#c c #E06311",
"#b c #EC5D0D",
"#a c #E94604",
"#0 c #D5D5D5",
"#9 c #751C00",
"#8 c #F94509",
"#7 c #FB520C",
"#6 c #ED2A01",
"#5 c #D53902",
"#4 c #521200",
"#3 c #200F03",
"#2 c #7C350C",
"#1 c #686868",
"#| c #DE1900",
"#} c #F93808",
"#[ c #EC2A02",
"#< c #E82502",
"#: c #100100",
"#_ c #5B5B5B",
"#( c #4D4D4D",
"#/ c #696969",
"#^ c #E2E2E2",
"#] c #980000",
"#{ c #EB0900",
"#~ c #EC0E01",
"#! c #F21706",
"#) c #480100",
"#' c #2B2B2B",
"#, c #EAEAEA",
"#> c #BDBDBD",
"#; c #7A7A7A",
"#- c #909090",
"#= c #9D9D9D",
"#* c #D00000",
"#& c #E90200",
"#% c #F00100",
"#$ c #A60000",
"## c #EDEDED",
"#@ c #E4E4E4",
"#+ c #505050",
"@Z c #C10000",
"@Y c #BA0000",
"@X c #BB0000",
"@W c #191919",
"@V c #8A8A8A",
"@U c #CBCBCB",
"@T c #790000",
"@S c #960000",
"@R c #970000",
"@Q c #A90101",
"@P c #210101",
"@O c #0B0B0B",
"@N c #555555",
"@M c #CECECE",
"@L c #C4C4C4",
"@K c #770000",
"@J c #850909",
"@I c #740000",
"@H c #700303",
"@G c #170202",
"@F c #450000",
"@E c #6F0000",
"@D c #750000",
"@C c #600000",
"@B c #330000",
"@A c #0E0E0E",
"@z c #680000",
"@y c #470000",
"@x c #530000",
"@w c #5F0000",
"@v c #5A0000",
"@u c #780404",
"@t c #680303",
"@s c #580000",
"@r c #410202",
"@q c #1B0000",
"@p c #4E0000",
"@o c #3C0000",
"@n c #4C0000",
"@m c #410000",
"@l c #3D0000",
"@k c #570000",
"@j c #400000",
"@i c #370000",
"@h c #0A0000",
"@g c #E7E7E7",
"@f c #520000",
"@e c #500000",
"@d c #4B0000",
"@c c #360101",
"@b c #3B0000",
"@a c #140101",
"@0 c #2B0101",
"@9 c #510000",
"@8 c #490000",
"@7 c #440000",
"@6 c #340000",
"@5 c #2E0000",
"@4 c #3F0000",
"@3 c #350000",
"@2 c #360000",
"@1 c #200000",
"@| c #2F0000",
"@} c #4C0303",
"@[ c #1E0000",
"@< c #140202",
"@: c #430303",
"@_ c #2A0000",
"@( c #2C0000",
"@/ c #131313",
"@^ c #6E6E6E",
"@] c #250000",
"@{ c #310000",
"@~ c #410101",
"@! c #390606",
"@) c #120303",
"@' c #320303",
"@, c #390000",
"@> c #2D0000",
"@; c #ABABAB",
"@- c #270000",
"@= c #290000",
"@* c #1F0000",
"@& c #110000",
"@% c #220000",
"@$ c #240606",
"@# c #150000",
"@@ c #0E0000",
"@+ c #3D0A0A",
"+Z c #2F0303",
"+Y c #170000",
"+X c #130000",
"+W c #100000",
"+V c #1A0000",
"+U c #C7C7C7",
"+T c #0C0303",
"+S c #1E0101",
"+R c #180000",
"+Q c #DFDFDF",
"+P c #090000",
"+O c #A3A3A3",
"+N c #F4F4F4",
"+M c #1C0505",
"+L c #190000",
"+K c #0F0000",
"+J c #130303",
"+I c #0C0000",
"+H c #120000",
"+G c #767676",
"+F c #969696",
"+E c #1E0505",
"+D c #140000",
"+C c #100202",
"+B c #1E1E1E",
"+A c #0B0000",
"+z c #0F0101",
"+y c #080000",
"+x c #130404",
"+w c #130707",
"+v c #2E2E2E",
"+u c #7B7B7B",
"+t c #070000",
"+s c #868686",
"+r c #9B9B9B",
"+q c #F8F8F8",
"+p c #101010",
"+o c #8E8E8E",
"+n c #E0E0E0",
"+m c #040000",
"+l c #676767",
"+k c #ADADAD",
"+j c #929292",
"+i c #272727",
"+h c #020000",
"+g c #060000",
"+f c #050000",
"+e c #B2B2B2",
"+d c #FBFBFB",
"+c c #030000",
"+b c #010000",
"+a c #C9C9C9",
"+0 c #060606",
"+9 c #020101",
"+8 c #7D7D7D",
"+7 c #7F7F7F",
"+6 c #050505",
"+5 c #080808",
"+4 c #F5F5F5",
"+3 c #ECECEC",
"+2 c #383838",
"+1 c #090909",
"+| c #030303",
"+} c #C1C1C1",
"+[ c #F0F0F0",
"+< c #373737",
"+: c #040404",
"+_ c #020202",
"+( c #121212",
"+/ c #C6C6C6",
"+^ c #B5B5B5",
"+] c #3A3A3A",
"+{ c #010101",
"+~ c #1D1D1D",
"+! c #878787",
"+) c #FAFAFA",
"+' c #BABABA",
"+, c #6F6F6F",
"+> c #000000",
"+; c #303030",
"+- c #474747",
"+= c #4B4B4B",
"+* c #B7B7B7",
"+& c #EBEBEB",
"+% c #D6D6D6",
"+$ c #F1F1F1",
"+# c #FEFEFE",
"+@ c #FFFFFF",
"++ c None",
"++++++++++++++++++++++++++++++++++++++++++++++++++++++++++++++++++++++++++++++++++++++++",
"+++++++++++++++++++++++++++++++++++++++++++++++++@+#++++++++++++++++++++++++++++++++++++",
"+++++++++++++++++++++++++++++++++@+@+@+@+#+@+@+@+@+#+@+@++++++++++++++++++++++++++++++++",
"+++++++++++++++++++++++++++++#+@+@+@+#+#+#+@+#+#+#+#+@+@+@+#++++++++++++++++++++++++++++",
"+++++++++++++++++++++++++++#+@+@+@+@+@+@+$+%+#+#+@+#+@+@+@+#+#++++++++++++++++++++++++++",
"+++++++++++++++++++++++++@+@+@+@+&+*+=+-+;+>+-+-+,+'+@+#+#+#+@+@+@++++++++++++++++++++++",
"+++++++++++++++++++++++@+#+@+)+!+~+>+>+>+>+>+>+>+>+{+]+^+@+@+@+@+#++++++++++++++++++++++",
"+++++++++++++++++++++#+@+@+/+(+>+>+>+>+>+_+>+:+>+>+>+>+_+<+[+@+@+@+@++++++++++++++++++++",
"+++++++++++++++++++#+#+#+}+(+>+>+>+>+>+|+1+|+{+{+>+>+>+>+>+2+3+#+#+#++++++++++++++++++++",
"+++++++++++++++++#+@+#+4+<+>+>+>+>+>+>+:+5+>+>+6+{+>+>+>+>+>+7+@+#+@+#++++++++++++++++++",
"+++++++++++++++++#+#+@+8+>+>+>+9+>+>+>+>+|+>+>+_+>+>+>+>+>+>+0+a+@+#+@++++++++++++++++++",
"+++++++++++++++++@+#+#+>+>+>+>+>+>+b+>+>+>+>+>+>+>+c+>+>+>+>+>+-+d+#+#+@++++++++++++++++",
"+++++++++++++++#+@+#+e+>+>+b+f+g+h+>+>+i+j+k+l+>+>+>+h+c+c+m+>+>+n+@+@+@+#++++++++++++++",
"+++++++++++++++@+@+#+o+>+>+>+b+>+>+>+p+3+#+@+q+r+>+>+b+>+c+b+>+>+s+#+@+@+@++++++++++++++",
"+++++++++++++++@+#+#+i+>+h+>+t+h+>+>+u+#+#+@+#+)+v+>+w+x+y+z+A+>+]+#+#+#+#++++++++++++++",
"+++++++++++++++#+@+#+B+>+C+t+D+E+f+>+F+@+#+@+#+#+G+>+>+H+I+h+J+>+>+#+#+@+#++++++++++++++",
"+++++++++++++++#+@+#+B+>+K+g+L+M+>+>+N+@+#+@+@+@+O+>+m+D+A+f+P+h+>+Q+@+@+@++++++++++++++",
"+++++++++++++++@+@+@+B+>+I+R+S+T+>+>+U+@+@+@+@+@+G+>+g+V+t+W+X+g+>+o+@+@+@++++++++++++++",
"+++++++++++++++#+@+@+i+>+Y+V+Z@++f+>+u+@+@+@+@+)+v+>@@@#+V@$@%+h+>+o+@+@+#++++++++++++++",
"+++++++++++++++@+#+#+o+>@&@*@=@-+W+>+p+3+#+#+#@;+>+>+X@>@,+X@'@)+>+o+#+#+@++++++++++++++",
"+++++++++++++++@+@+@+o+>+g@!@~@{@]+>+>+i+j+k@^@/+>+y@#@(@_@=@:@<+>+o+#+#+#++++++++++++++",
"+++++++++++++++#+@+#+$+>+>@[@}@{@|@1+>+>+>+>+>+>@<@2@3@{+X@4@5+m+>+o+@+#+@+@++++++++++++",
"+++++++++++++++++@+#+#+8+>+y@6@2@7@8@9@0@a+P+I+X@-@b@c@4@d@e@f+Y+>+o+#+#+#+@++++++++++++",
"+++++++++++++++++#+#+@@g@/+>@h@i@j@i@k@l@m@n@b@n@o@p@q@-@p@r@s+D+>+o+@+@+@++++++++++++++",
"+++++++++++++++++@+#+@+#+}+(+>@@@j@p@t@u@v@w@e@x@e@%+g@y@o@z@z+V+>+o+@+@+@++++++++++++++",
"+++++++++++++++++++#+@+#+#+/@A+>+b+Y@B@C@D@E@s@F+D+>@G@H@I@J@K+K+>@L+#+#+@++++++++++++++",
"+++++++++++++++++++++#+#+#+@@M@N@O+>+>+>+>+>+>+>+>+>@P@Q@R@S@T+>+>+#+#+@+#++++++++++++++",
"+++++++++++++++++++++@+@+@+@+@+@@U@V+-@W+>+>+i+-@A+>@z@X@Y@Z@v+>#++@+@+@+#++++++++++++++",
"+++++++++++++++++++++@+@+@+@+@+@+@+@+@#@+%+%##@U+5+c#$#%#&#*@%+>#=+@+@+#++++++++++++++++",
"+++++++++++++++++++#+@+@+)#-#;#>#,+d+@+@+@+@@;#'+>#)#!#~#{#]+>+0#^+@+@+@++++++++++++++++",
"+++++++++++++++++@+@+#+q#/+>+>+>+>#(#_#_#_#_+>+>#:#<#[#}#|@_+>#1+#+#+#+#++++++++++++++++",
"+++++++++++++++++#+@+#+n+>+>#2#3+>+>+>+>+>+>+>#4#5#6#7#8#9+>+p#0+#+@+#+@++++++++++++++++",
"+++++++++++++++++@+#+@+n+>+>#a#b#c#d#e#f#g#h#i#j#k#l#m#n#o+>#p+#+@+#+#++++++++++++++++++",
"+++++++++++++++++@+#+#+n+>+>#q#r#s#t#u#v#w#x#y#z#A#B#C+>+>#D+#+#+#+#+#++++++++++++++++++",
"+++++++++++++++++@+#+@+n+>+>#E#F#G#H#I#J#K#L#M#N#O#P+>+>#D+d+@+#+@+@++++++++++++++++++++",
"+++++++++++++++++#+@+@+q#Q+>#R#S#T#U#V#W#X#Y#Z$+$@+>@A+u$#+#+@+#+@+@++++++++++++++++++++",
"+++++++++++++++++++@+@+#+%$$+1+>+>+>+>+>+>+>+>+>+5$%##+@+@+#+#+@+#++++++++++++++++++++++",
"+++++++++++++++++++++#+#+#+@+)$&$*$=$=$=$=$=+l$-#,+#+@+@+@+@+#+@++++++++++++++++++++++++",
"+++++++++++++++++++++++@+@+@+@+@+#+#+#+@+#+@+@+@+@+@+@+#+#+#+@++++++++++++++++++++++++++",
"+++++++++++++++++++++++++@+@+#+@+@+@+@+@+@+@+@+@+@+@+@+@+@+@++++++++++++++++++++++++++++",
"+++++++++++++++++++++++++++++#+#+@+@+@+@+@+@+@+@+@+@+#+@++++++++++++++++++++++++++++++++",
"+++++++++++++++++++++++++++++++++++@+@+@+#+#+@+#+@++++++++++++++++++++++++++++++++++++++",
"++++++++++++++++++++++++++++++++++++++++++++++++++++++++++++++++++++++++++++++++++++++++",
"++++++++++++++++++++++++++++++++++++++++++++++++++++++++++++++++++++++++++++++++++++++++"};
