/* XPM */
static char * ball_red_xpm[] = {
"44 44 319 2",
"$o c #F7F7F7",
"$n c #C7C7C7",
"$m c #3C3C3C",
"$l c #F0F0F0",
"$k c #1C1C1C",
"$j c #141414",
"$i c #C8C8C8",
"$h c #EDEDED",
"$g c #252525",
"$f c #1C1C09",
"$e c #473002",
"$d c #8F6F06",
"$c c #B79910",
"$b c #B79306",
"$a c #B17600",
"$0 c #B7950D",
"$9 c #B08C0C",
"$8 c #B79009",
"$7 c #B79C15",
"$6 c #654D04",
"$5 c #422904",
"$4 c #020200",
"$3 c #F2F2F2",
"$2 c #424242",
"$1 c #3D1E00",
"$| c #B6690A",
"$} c #E6A420",
"$[ c #FE9107",
"$< c #FE8803",
"$: c #FA8709",
"$_ c #FD8303",
"$( c #FF9909",
"$/ c #FEB01B",
"$^ c #FA960D",
"$] c #FF9102",
"${ c #FFA317",
"$~ c #FD920D",
"$! c #FBA520",
"$) c #D67F14",
"$' c #BE801D",
"$, c #654410",
"$> c #0C0801",
"$; c #3A3A3A",
"$- c #070300",
"$= c #742D07",
"$* c #F98F21",
"$& c #FF8911",
"$% c #FE8410",
"$$ c #FE780D",
"$# c #FE921F",
"$@ c #FE8413",
"$+ c #FE9927",
"#Z c #EB5C0E",
"#Y c #FE7507",
"#X c #FE7602",
"#W c #E25A0B",
"#V c #FE750B",
"#U c #FE7B0E",
"#T c #FE6C06",
"#S c #FD8117",
"#R c #FE7C0E",
"#Q c #1E0E01",
"#P c #D4D4D4",
"#O c #787878",
"#N c #0C0601",
"#M c #AD490A",
"#L c #F67216",
"#K c #F7600E",
"#J c #FA7C25",
"#I c #F95602",
"#H c #FE7210",
"#G c #FE7C1C",
"#F c #FB5A06",
"#E c #E85C01",
"#D c #CB6714",
"#C c #CB5B0F",
"#B c #CB6111",
"#A c #E35703",
"#z c #F7670E",
"#y c #F75E0E",
"#x c #FF7E18",
"#w c #FD7714",
"#v c #F85A0A",
"#u c #FD690A",
"#t c #1E0C01",
"#s c #C0C0C0",
"#r c #070707",
"#q c #090200",
"#p c #AA2A01",
"#o c #F94F09",
"#n c #FF731A",
"#m c #FE5101",
"#l c #F64B0C",
"#k c #F94904",
"#j c #B04005",
"#i c #651E01",
"#h c #3C1501",
"#g c #220900",
"#f c #1D0C00",
"#e c #350700",
"#d c #581F03",
"#c c #AD3F04",
"#b c #D7560E",
"#a c #F64D0C",
"#0 c #FF4F04",
"#9 c #1E0900",
"#8 c #4A4A4A",
"#7 c #4B0F02",
"#6 c #ED3107",
"#5 c #FA450B",
"#4 c #F22D01",
"#3 c #FE3C00",
"#2 c #D63304",
"#1 c #612204",
"#| c #0F0300",
"#} c #651F04",
"#[ c #D5390B",
"#< c #1E0800",
"#: c #D1D1D1",
"#_ c #8D0600",
"#( c #EC2300",
"#/ c #F02000",
"#^ c #FA2B02",
"#] c #ED2203",
"#{ c #3D1106",
"#~ c #6F6F6F",
"#! c #2C2C2C",
"#) c #F00E00",
"#' c #E00900",
"#, c #F21502",
"#> c #E71407",
"#; c #880D00",
"#- c #181818",
"#= c #AFAFAF",
"#* c #B0B0B0",
"#& c #A3A3A3",
"#% c #220000",
"#$ c #D90300",
"## c #E60E07",
"#@ c #E60D08",
"#+ c #D80100",
"@Z c #5D0200",
"@Y c #410000",
"@X c #DC0000",
"@W c #E20000",
"@V c #AD0000",
"@U c #5B5B5B",
"@T c #970000",
"@S c #C00000",
"@R c #C30000",
"@Q c #A20000",
"@P c #2F0000",
"@O c #960000",
"@N c #9D0000",
"@M c #7A0000",
"@L c #950000",
"@K c #858585",
"@J c #CBCBCB",
"@I c #8E0505",
"@H c #870000",
"@G c #940404",
"@F c #830000",
"@E c #460000",
"@D c #101010",
"@C c #E6E6E6",
"@B c #1F1F1F",
"@A c #5F0000",
"@z c #720101",
"@y c #670000",
"@x c #4C0000",
"@w c #0E0E0E",
"@v c #7A7A7A",
"@u c #EAEAEA",
"@t c #535353",
"@s c #190303",
"@r c #630C0C",
"@q c #630808",
"@p c #580000",
"@o c #440000",
"@n c #510101",
"@m c #373737",
"@l c #EBEBEB",
"@k c #171717",
"@j c #420000",
"@i c #490000",
"@h c #430202",
"@g c #3C0000",
"@f c #2C0606",
"@e c #240505",
"@d c #DFDFDF",
"@c c #1A0202",
"@b c #470000",
"@a c #5F0303",
"@0 c #350303",
"@9 c #3E0202",
"@8 c #350000",
"@7 c #430303",
"@6 c #3D0101",
"@5 c #220505",
"@4 c #2B0000",
"@3 c #3F0000",
"@2 c #737373",
"@1 c #090909",
"@| c #3D0202",
"@} c #240000",
"@[ c #3D0000",
"@< c #3A0000",
"@: c #2F0101",
"@_ c #CFCFCF",
"@( c #0E0000",
"@/ c #1A0000",
"@^ c #230000",
"@] c #2C0000",
"@{ c #1E0000",
"@~ c #270000",
"@! c #280000",
"@) c #330000",
"@' c #320000",
"@, c #200000",
"@> c #656565",
"@; c #474747",
"@- c #120000",
"@= c #130000",
"@* c #150000",
"@& c #290202",
"@% c #2F0202",
"@$ c #2D0000",
"@# c #250000",
"@@ c #160000",
"@+ c #1D0000",
"+Z c #0D0000",
"+Y c #939393",
"+X c #140202",
"+W c #180000",
"+V c #0F0000",
"+U c #310000",
"+T c #210606",
"+S c #262626",
"+R c #E9E9E9",
"+Q c #F1F1F1",
"+P c #191919",
"+O c #110000",
"+N c #210000",
"+M c #140000",
"+L c #2A0000",
"+K c #190000",
"+J c #0D0D0D",
"+I c #6C6C6C",
"+H c #E2E2E2",
"+G c #0C0000",
"+F c #160202",
"+E c #210202",
"+D c #0B0000",
"+C c #050505",
"+B c #8F8F8F",
"+A c #CECECE",
"+z c #0A0101",
"+y c #060000",
"+x c #9F9F9F",
"+w c #040000",
"+v c #090000",
"+u c #100000",
"+t c #050000",
"+s c #030000",
"+r c #0A0000",
"+q c #929292",
"+p c #080000",
"+o c #090303",
"+n c #090101",
"+m c #040101",
"+l c #E1E1E1",
"+k c #414141",
"+j c #616161",
"+i c #F5F5F5",
"+h c #ADADAD",
"+g c #010000",
"+f c #131313",
"+e c #818181",
"+d c #1E1E1E",
"+c c #080808",
"+b c #4C4C4C",
"+a c #DBDBDB",
"+0 c #020000",
"+9 c #030101",
"+8 c #6A6A6A",
"+7 c #B2B2B2",
"+6 c #E8E8E8",
"+5 c #282828",
"+4 c #030202",
"+3 c #8E8E8E",
"+2 c #A7A7A7",
"+1 c #030303",
"+| c #F6F6F6",
"+} c #9E9E9E",
"+[ c #1A1A1A",
"+< c #020202",
"+: c #111111",
"+_ c #E5E5E5",
"+( c #4D4D4D",
"+/ c #010101",
"+^ c #161616",
"+] c #C9C9C9",
"+{ c #C4C4C4",
"+~ c #666666",
"+! c #3D3D3D",
"+) c #000000",
"+' c #555555",
"+, c #6E6E6E",
"+> c #D6D6D6",
"+; c #E3E3E3",
"+- c #FAFAFA",
"+= c #ACACAC",
"+* c #848484",
"+& c #BABABA",
"+% c #F4F4F4",
"+$ c #FDFDFD",
"+# c #FFFFFF",
"+@ c #FEFEFE",
"++ c None",
"+++++++++++++++++++++++++++++@+#+@+@+@+#+@+#+#+#+@+@+#+@+#++++++++++++++++++++++++++++++",
"+++++++++++++++++++++++++@+#+#+#+#+#+#+#+@+#+#+#+#+#+#+#+#+#+#++++++++++++++++++++++++++",
"+++++++++++++++++++++++#+#+#+@+#+#+#+@+#+@+#+@+#+#+@+#+#+#+@+#+@++++++++++++++++++++++++",
"+++++++++++++++++++++@+#+@+@+@+$+%+%+&+*+*+*+*+*+=+%+-+#+#+@+@+#+#++++++++++++++++++++++",
"+++++++++++++++++++@+@+@+;+>+,+'+)+)+)+)+)+)+)+)+)+)+!+~+{+$+#+@+#+@++++++++++++++++++++",
"+++++++++++++++++#+#+#+]+^+)+)+)+)+)+)+/+)+)+)+)+)+)+)+)+)+(+_+@+#+#+@++++++++++++++++++",
"+++++++++++++++++@+#+#+:+)+)+)+)+)+)+<+)+/+)+)+)+/+)+)+)+)+)+[+}+#+#+@+#++++++++++++++++",
"+++++++++++++++@+#+#+|+)+)+)+)+/+1+)+)+1+1+)+)+)+)+)+)+)+)+)+)+1+2+#+#+#+@++++++++++++++",
"+++++++++++++++#+@+@+3+)+)+)+)+)+)+)+<+)+)+<+)+)+)+)+4+)+)+)+)+)+5+6+@+@+#++++++++++++++",
"+++++++++++++++@+#+#+7+)+)+)+)+)+)+)+)+)+)+)+)+)+)+)+1+)+)+)+)+)+)+8+@+@+@+#++++++++++++",
"+++++++++++++++#+#+@+#+)+)+)+)+)+)+)+)+)+)+)+)+)+)+)+)+9+0+)+)+)+)+:+a+@+#+@++++++++++++",
"+++++++++++++++@+@+@+@+b+)+)+)+)+c+d+d+~+3+3+e+d+f+)+g+g+)+9+)+0+)+)+h+@+@+@++++++++++++",
"+++++++++++++++++@+@+#+i+j+!+k+h+{+#+#+#+@+#+#+#+l+5+)+m+n+o+g+p+)+)+q+#+#+#++++++++++++",
"+++++++++++++++++++@+@+@+#+#+@+#+#+#+@+#+@+#+@+#+#+=+)+9+r+g+s+t+g+)+!+#+@+#++++++++++++",
"+++++++++++++++++++++@+@+@+@+@+#+#+#+@+@+@+#+@+@+@+%+)+)+u+g+v+s+w+)+k+@+@+@++++++++++++",
"+++++++++++++++++++++++#+#+#+@+#+#+#+#+#+@+#+@+@+#+x+)+)+v+y+z+s+)+)+h+#+@+#++++++++++++",
"+++++++++++++++++++++++++++#+#+#+@+@+@+#+@+#+#+A+B+C+)+0+D+E+F+G+)+)+h+#+#+#++++++++++++",
"+++++++++++++++++++++++++++#+#+#+H+I+5+5+5+5+5+J+)+)+y+K+L+M+N+O+)+P+Q+#+#++++++++++++++",
"+++++++++++++++++++++++++@+@+#+R+S+)+)+)+)+)+)+)+s+u+T+U+V+W+X+0+)+Y+#+#+#++++++++++++++",
"+++++++++++++++++++++++++#+@+@+3+)+u+Z+N@+@@+N@#@$@%@&@*@=@-+t+)@;+@+@+@+@++++++++++++++",
"+++++++++++++++++++++++++@+@+#@>+)+r@,@*@'@)@!@~@{@]@^@/@(+)+)+[@_+#+@+@+#++++++++++++++",
"+++++++++++++++++++++++++#+@+#@>+)@@@-@'@:@<+W@[@]@}@|@)@++p+)@1+7+@+#+@+@++++++++++++++",
"+++++++++++++++++++++++++#+@+@@2+)+M@3@4@5@6@7@8@9@0@4@<@a@b@c+g+)+7+@+@+@++++++++++++++",
"+++++++++++++++++++++++++#+#+#@d+:+)+)+)+)+)+)+w@e@f@g@b@h@i@j@~+)@k@l+#+#+#++++++++++++",
"+++++++++++++++++++++++++#+#+@+#+&@m+)+)+)+)+)+)+)+)@(@n@o@p@q@r@s+)@t+#+@+@++++++++++++",
"+++++++++++++++++++++++++++#+#+#+#+|@u@u@u@u@u@_@v@w+)@@@x@y@z@A@<+)@B@C+@+@+@++++++++++",
"+++++++++++++++++++++++++++++@+#+#+#+#+#+@+#+@+@+#+]@D+)@E@F@G@H@I+)+)@J+@+#+#++++++++++",
"+++++++++++++++++++++++++++++++++#+#+@+#+@+#+#+#+#+#@K+)@]@L@M@N@O@P+)+=+#+#+#++++++++++",
"+++++++++++++++++++++++#+@+@+#+#+++++@+@+#+#+#+#+#+#+>+)+)@Q@R@S@T@x+)@U+#+#+@++++++++++",
"+++++++++++++++++++@+#+#+#+#+#+#+@+#+@+@+@+#+#+#+#+#+>+)+p@V@W@X@S@Y+)@U+#+@+#++++++++++",
"+++++++++++++++++#+#+@+@+@+@+@+#+#+#+#+@+@+@+@+@+@+@+3+)@Z#+#@###$#%+)#&+@+#+#++++++++++",
"+++++++++++++++++@+#+a+,+!@>#*+#+@+#+#+#+#+@+#+@+@#=#-+)#;#>#,#'#)+)+)@J+#+#+#++++++++++",
"+++++++++++++++@+#+@#!+)+)+)+/+d#~+3+-+#+@+#+@+7+~+<+)#{#]#^#/#(#_+)+[+H+#+#+#++++++++++",
"+++++++++++++++#+@#:+J#<#[#}#|+)+)+)+)+)+)+)+)+)+)+g#1#2#3#4#5#6#7+)#8+@+@+@+#++++++++++",
"+++++++++++++#+#+#+h+)#9#0#a#b#c#d#e#f+)+)+)#g#h#i#j#k#l#m#n#o#p#q#r#s+#+#+#++++++++++++",
"+++++++++++++@+@+#+h+)#t#u#v#w#x#y#z#A#B#C#D#E#F#G#H#I#J#K#L#M#N+)#O+#+#+@+#++++++++++++",
"+++++++++++++#+@+@#P@w#Q#R#S#T#U#V#W#X#Y#R#Z$+$@$#$$$%$&$*$=$-+)$;+|+@+@+@+@++++++++++++",
"+++++++++++++#+#+#+@+d$>$,$'$)$!$~${$]$^$/$($_$:$<$[$}$|$1+)+)$2$3+@+@+#+#++++++++++++++",
"+++++++++++++++@+#+@+3+)+)+)$4$5$6$7$8$9$0$a$b$c$d$e$f+)+)$g+B$h+#+#+#+@+#++++++++++++++",
"+++++++++++++++@+#+#+#$i@>$j+)+)+)+)+)+)+)+)+)+)+)+)+)$k+~@C+#+#+#+#+#+#++++++++++++++++",
"+++++++++++++++@+@+@+#+#+#+|$l+*@>$j$j$j$j$j$j$j$m+*$n$o+#+#+#+#+#+#+#+@++++++++++++++++",
"+++++++++++++++++++#+@+@+@+@+@+#+#+#+#+@+@+@+@+@+@+@+#+#+#+#+@+#+#+#++++++++++++++++++++",
"+++++++++++++++++++++#+#+@+@+#+#+@+#+#+#+#+@+#+@+@+#+#+@+#+@+#++++++++++++++++++++++++++",
"+++++++++++++++++++++++@+#+@+#+#+#+#+#+#+@+#+@+#+@+#+#+#+#+@++++++++++++++++++++++++++++"};
