/* XPM */
static char * ball_red_xpm[] = {
"44 44 251 2",
"#J c #C9C9C9",
"#I c #434343",
"#H c #999999",
"#G c #1C1C1C",
"#F c #050505",
"#E c #202020",
"#D c #E2E2E2",
"#C c #1A1100",
"#B c #322405",
"#A c #885F03",
"#z c #A37D0A",
"#y c #A37C08",
"#x c #A37407",
"#w c #A3860E",
"#v c #A37807",
"#u c #A3810A",
"#t c #523B06",
"#s c #321D01",
"#r c #181202",
"#q c #160E02",
"#p c #7E4609",
"#o c #E1810C",
"#n c #F8840D",
"#m c #FFA419",
"#l c #FF8C0D",
"#k c #FFA017",
"#j c #FE8D0D",
"#i c #FF9E18",
"#h c #FF8F08",
"#g c #F6921B",
"#f c #FFAB1E",
"#e c #FE9314",
"#d c #DF8012",
"#c c #9B5F10",
"#b c #4C4C4C",
"#a c #110901",
"#0 c #C9630C",
"#9 c #FC730F",
"#8 c #F96F0E",
"#7 c #FE6D04",
"#6 c #FE7D11",
"#5 c #FE7E0E",
"#4 c #FE7708",
"#3 c #FE780D",
"#2 c #FE8E22",
"#1 c #FE7C0E",
"#| c #FB8014",
"#} c #FE7E11",
"#[ c #FE7910",
"#< c #FE7D0E",
"#: c #CA5907",
"#_ c #797979",
"#( c #130400",
"#/ c #D15D17",
"#^ c #FF6E13",
"#] c #FB6511",
"#{ c #FB5A0A",
"#~ c #F54E07",
"#! c #DB3D03",
"#) c #7D3E0D",
"#' c #703810",
"#, c #70300A",
"#> c #703D10",
"#; c #70380C",
"#- c #B33701",
"#= c #E0731D",
"#* c #F6580C",
"#& c #F8550B",
"#% c #C84804",
"#$ c #E0E0E0",
"## c #BE2C07",
"#@ c #FC5912",
"#+ c #FA4308",
"@Z c #FD4501",
"@Y c #DA460C",
"@X c #692807",
"@W c #431302",
"@V c #7F1000",
"@U c #AB1D00",
"@T c #1A1A1A",
"@S c #868686",
"@R c #460600",
"@Q c #EE2701",
"@P c #FC450F",
"@O c #F62502",
"@N c #FF3A06",
"@M c #1C0200",
"@L c #505050",
"@K c #5B5B5B",
"@J c #4D4D4D",
"@I c #160300",
"@H c #3A3A3A",
"@G c #850600",
"@F c #EC1704",
"@E c #CE0400",
"@D c #DB0800",
"@C c #680A00",
"@B c #181818",
"@A c #9E9E9E",
"@z c #FBFBFB",
"@y c #EAEAEA",
"@x c #0A0A0A",
"@w c #838383",
"@v c #FCFCFC",
"@u c #C00100",
"@t c #D50200",
"@s c #DB0101",
"@r c #D50000",
"@q c #767676",
"@p c #920000",
"@o c #CB0000",
"@n c #DC0101",
"@m c #8B0000",
"@l c #7A0000",
"@k c #B40000",
"@j c #7C0000",
"@i c #141414",
"@h c #5B0000",
"@g c #9C0000",
"@f c #970000",
"@e c #750707",
"@d c #121212",
"@c c #F7F7F7",
"@b c #550101",
"@a c #610000",
"@0 c #660000",
"@9 c #6B0101",
"@8 c #8C8C8C",
"@7 c #555555",
"@6 c #530000",
"@5 c #5C0000",
"@4 c #5F0202",
"@3 c #1F0000",
"@2 c #0C0C0C",
"@1 c #ACACAC",
"@| c #F1F1F1",
"@} c #ADADAD",
"@[ c #E1E1E1",
"@< c #707070",
"@: c #370000",
"@_ c #330000",
"@( c #410101",
"@/ c #1E1E1E",
"@^ c #272727",
"@] c #191919",
"@{ c #E4E4E4",
"@~ c #090909",
"@! c #400303",
"@) c #3A0000",
"@' c #380000",
"@, c #828282",
"@> c #6C6C6C",
"@; c #400202",
"@- c #340404",
"@= c #280000",
"@* c #310000",
"@& c #2C0000",
"@% c #050000",
"@$ c #190000",
"@# c #220000",
"@@ c #200000",
"@+ c #080000",
"+Z c #F2F2F2",
"+Y c #282828",
"+X c #210101",
"+W c #250000",
"+V c #240000",
"+U c #160000",
"+T c #2D0000",
"+S c #2E0000",
"+R c #2B0202",
"+Q c #2B0000",
"+P c #3D0101",
"+O c #1A0000",
"+N c #150000",
"+M c #C6C6C6",
"+L c #0E0E0E",
"+K c #030000",
"+J c #1C0000",
"+I c #170000",
"+H c #1C0202",
"+G c #110000",
"+F c #0D0000",
"+E c #1E0000",
"+D c #180000",
"+C c #140000",
"+B c #090000",
"+A c #1B0000",
"+z c #CECECE",
"+y c #4F4F4F",
"+x c #120000",
"+w c #0E0000",
"+v c #180202",
"+u c #200404",
"+t c #060000",
"+s c #100000",
"+r c #160101",
"+q c #130101",
"+p c #F3F3F3",
"+o c #989898",
"+n c #2A2A2A",
"+m c #0E0101",
"+l c #1C0505",
"+k c #130000",
"+j c #120202",
"+i c #EEEEEE",
"+h c #D6D6D6",
"+g c #8E8E8E",
"+f c #656565",
"+e c #160202",
"+d c #070000",
"+c c #F4F4F4",
"+b c #BABABA",
"+a c #170909",
"+0 c #030101",
"+9 c #0A0000",
"+8 c #0F0404",
"+7 c #AFAFAF",
"+6 c #3D3D3D",
"+5 c #040101",
"+4 c #040000",
"+3 c #0E0505",
"+2 c #7C7C7C",
"+1 c #070404",
"+| c #090505",
"+} c #DCDCDC",
"+[ c #161616",
"+< c #020101",
"+: c #010000",
"+_ c #C1C1C1",
"+( c #0B0B0B",
"+/ c #515151",
"+^ c #FAFAFA",
"+] c #2E2E2E",
"+{ c #020202",
"+~ c #040404",
"+! c #010101",
"+) c #878787",
"+' c #858585",
"+, c #030303",
"+> c #000000",
"+; c #303030",
"+- c #E6E6E6",
"+= c #BDBDBD",
"+* c #747474",
"+& c #474747",
"+% c #818181",
"+$ c #E5E5E5",
"+# c #FEFEFE",
"+@ c #FFFFFF",
"++ c None",
"++++++++++++++++++++++++++++++++++++++++++++++++++++++++++++++++++++++++++++++++++++++++",
"+++++++++++++++++++++++++++++++++++@+#+@+#+@+@++++++++++++++++++++++++++++++++++++++++++",
"+++++++++++++++++++++++++++++@+@+@+@+#+@+#+@+@+@+@+#+@+@+#++++++++++++++++++++++++++++++",
"+++++++++++++++++++++++#+@+@+#+@+@+@+#+#+#+@+#+#+#+#+@+@+@+@+@+@+#++++++++++++++++++++++",
"+++++++++++++++++++++#+#+#+@+#+@+@+@+@+@+#+@+#+#+@+#+@+@+@+@+@+#+@+#++++++++++++++++++++",
"+++++++++++++++++++#+@+@+@+$+%+&+&+&+&+&+&+&+&+&+&+&+&+&+*+=+@+#+@+#++++++++++++++++++++",
"+++++++++++++++++++@+@+@+-+;+>+>+>+>+>+>+>+>+>+>+>+>+>+>+>+,+'+@+@+@+#++++++++++++++++++",
"+++++++++++++++++++#+@+@+)+>+>+!+,+~+~+>+>+>+>+>+>+>+{+>+>+>+]+^+@+@+@++++++++++++++++++",
"+++++++++++++++++++#+#+#+/+>+!+(+{+>+>+>+>+{+>+>+>+>+>+>+,+>+>+_+#+#+#++++++++++++++++++",
"+++++++++++++++++++#+#+@+/+>+>+>+>+>+>+>+~+>+>+>+~+>+{+>+~+>+>+_+#+@+@++++++++++++++++++",
"+++++++++++++++++++@+@+#+/+>+>+>+>+:+>+>+>+>+>+<+<+>+>+>+>+>+[+}+@+@+#++++++++++++++++++",
"+++++++++++++++++++#+#+#+/+>+|+1+:+:+>+>+>+>+>+>+>+>+>+>+>+{+2+#+#+@++++++++++++++++++++",
"+++++++++++++++++++#+@+@+/+>+:+3+4+5+>+>+]+6+6+6+6+6+6+6+6+7+@+#+@++++++++++++++++++++++",
"+++++++++++++++++++#+@+#+/+>+>+>+8+4+>+>+_+@+#+@+@+#+@+@+@+#+@+#+@++++++++++++++++++++++",
"+++++++++++++++++++@+@+#+/+>+>+9+0+a+>+>+b+c+#+#+#+#+@+@+@+#+#+@++++++++++++++++++++++++",
"+++++++++++++++++++#+@+#+/+>+>+d+4+e+>+>+>+>+f+f+g+h+i+@+@+@+@+@++++++++++++++++++++++++",
"+++++++++++++++++++#+@+@+/+>+j+k+l+m+>+>+>+>+>+>+>+>+n+o+p+#+@+@+#++++++++++++++++++++++",
"+++++++++++++++++++#+@+@+/+>+q+r+s+k+s+t+u+v+w+x+4+>+>+>+y+z+@+@+@+@++++++++++++++++++++",
"+++++++++++++++++++#+@+@+/+>+A+B+C+w+D+E+F+G+H+I+J+s+w+K+>+L+M+@+@+@+#++++++++++++++++++",
"+++++++++++++++++++#+#+#+/+>+N+O+P+k+Q+R+S+T+U+E+V+A+W+X+d+>+Y+Z+#+#+#++++++++++++++++++",
"+++++++++++++++++++#+#+@+/+>@+@@@#@$+I+B+d@%@&@*@=@-+D@&@;+K+>@>+#+@+#+#++++++++++++++++",
"+++++++++++++++++++#+@+#@,+>+w+F+>+>+>+>+>+>+>+:+9+S@'@)@!+k+>@~@{+#+@+#++++++++++++++++",
"+++++++++++++++++++#+#+#@{+n+>+>+>@]@^+g+g+g@/@~+>+d@=@(@_@:@++>@<+#+#+@++++++++++++++++",
"+++++++++++++++++++++@+@+@@[@}@}@}@|+@+@+#+@+@@1@2+>@3@4@5@6+N+>@7+@+@+#+@++++++++++++++",
"+++++++++++++++++++++@+#+@+@+#+@+@+@+#+@+#+@+#+@@8+>+F@9@0@a@b+>+>+#+@+@+@++++++++++++++",
"+++++++++++++++++++++++#+@+#+#+@+@+@+#+#+#+@+#+#@c@d+:@e@f@g@h+>+>+#+#+#+@++++++++++++++",
"+++++++++++++++++++++++#+#+@+#+@+@+@+@+@+#+@+#+#+@@i+>@j@k@g@l+>+>+#+#+@+@++++++++++++++",
"+++++++++++++++++++++@+@+@+@+@+@+#+#+#+@+#+@+@+@+$+L@+@m@n@o@p+>+>+@+@+@+@++++++++++++++",
"+++++++++++++++++++#+#+@+@+@+@+@+@+@+@+@+@+@+@+@@q+>+W@r@s@t@u+>+>+@+@+@+#++++++++++++++",
"+++++++++++++++++@+@+@@v@w@x+L@8@y@z+@+@+@+@@v@A@B+>@C@D@E@F@G+>@H+@+@+@+#++++++++++++++",
"+++++++++++++++++#+#+#+o+>@I+>+>+>@J@K@K@K@K@L+>+>@M@N@O@P@Q@R+>@S+#+#+#+#++++++++++++++",
"+++++++++++++++#+@+@+#@T+>@U@V@W+>+>+>+>+>+>+>+>@X@Y@Z#+#@##+>+>#$+@+#+@++++++++++++++++",
"+++++++++++++++@+@+#+@+>+>#%#&#*#=#-#;#>#,#'#)#!#~#{#]#^#/#(+>#_@z+#+@+@++++++++++++++++",
"+++++++++++++++@+#+#+#+>+>#:#<#[#}#|#1#2#3#4#5#6#7#8#9#0#a+>+n@{+#+#+#+@++++++++++++++++",
"+++++++++++++++#+@+#+@#b+>#c#d#e#f#g#h#i#j#k#l#m#n#o#p#q+>+Y@[+#+@+@+#++++++++++++++++++",
"+++++++++++++++@+@+#+@+o+>+>#r#s#t#u#v#w#x#y#z#A#B#C+>+>@J#D+@+#+@+#++++++++++++++++++++",
"+++++++++++++++#+@+#+@@v@A#E#F+>+>+>+>+>+>+>+>+>+>+~#G#H@z+#+#+#+@++++++++++++++++++++++",
"+++++++++++++++++@+@+@+#+#+@+z#H#_+Y+Y+Y+Y+Y+Y#I+o#J+@+@+@+@+@+@+@++++++++++++++++++++++",
"+++++++++++++++++++@+@+@+@+@+@+@+#+#+#+@+#+@+@+@+@+@+@+#+#+#+@+@++++++++++++++++++++++++",
"+++++++++++++++++++++#+@+@+@+@+@+@+@+@+@+@+@+@+@+@+@+@+@+@+@++++++++++++++++++++++++++++",
"+++++++++++++++++++++++#+@+@+@+#+@+@+@+@+@+@+@+@+@+@+#+@++++++++++++++++++++++++++++++++",
"+++++++++++++++++++++++++++++++@+@+@+@+@+#+@+@+#+#++++++++++++++++++++++++++++++++++++++",
"++++++++++++++++++++++++++++++++++++++++++++++++++++++++++++++++++++++++++++++++++++++++",
"++++++++++++++++++++++++++++++++++++++++++++++++++++++++++++++++++++++++++++++++++++++++"};
