/* XPM */
static char * ball_red_xpm[] = {
"44 44 245 2",
"#D c #ADADAD",
"#C c #313131",
"#B c #F2F2F2",
"#A c #3A3A3A",
"#z c #967015",
"#y c #A36B0D",
"#x c #A37414",
"#w c #A3620A",
"#v c #A3700E",
"#u c #A26F0F",
"#t c #A36F0D",
"#s c #A3710D",
"#r c #A16007",
"#q c #A36A0B",
"#p c #A3730F",
"#o c #A36502",
"#n c #A36307",
"#m c #A37010",
"#l c #A3740F",
"#k c #A36708",
"#j c #A36407",
"#i c #271801",
"#h c #EA720A",
"#g c #FF9B1E",
"#f c #FE911A",
"#e c #FB8415",
"#d c #FE8B13",
"#c c #FD790A",
"#b c #FF9019",
"#a c #FF8615",
"#0 c #FF951E",
"#9 c #FE8B1C",
"#8 c #FF8716",
"#7 c #FE7806",
"#6 c #FD7C0E",
"#5 c #FF8F15",
"#4 c #FF9920",
"#3 c #FF8C14",
"#2 c #FF8412",
"#1 c #3D2406",
"#| c #EA4B00",
"#} c #FD700E",
"#[ c #FE6206",
"#< c #FC7416",
"#: c #FE5A01",
"#_ c #FE7108",
"#( c #FE6E0E",
"#/ c #F8650B",
"#^ c #F64801",
"#] c #FD680D",
"#{ c #FE6C0A",
"#~ c #FE7313",
"#! c #FD7010",
"#) c #FE7411",
"#' c #FE7B16",
"#, c #FE8321",
"#> c #F9640E",
"#; c #3D1A04",
"#- c #F1F1F1",
"#= c #2D2D2D",
"#* c #672603",
"#& c #6E350F",
"#% c #6A1A02",
"#$ c #702801",
"## c #6F2F0A",
"#@ c #6B1C00",
"#+ c #6F2402",
"@Z c #70350C",
"@Y c #6B2409",
"@X c #6F2703",
"@W c #691500",
"@V c #D14905",
"@U c #FE590B",
"@T c #FE6819",
"@S c #F74804",
"@R c #D44005",
"@Q c #1A0900",
"@P c #CDCDCD",
"@O c #ACACAC",
"@N c #0C0C0C",
"@M c #6D1302",
"@L c #F84008",
"@K c #F9430A",
"@J c #FA3E09",
"@I c #E54313",
"@H c #1D0A00",
"@G c #646464",
"@F c #6B0700",
"@E c #F6310F",
"@D c #F51C01",
"@C c #F82500",
"@B c #F63C13",
"@A c #610E03",
"@z c #1D1D1D",
"@y c #D4D4D4",
"@x c #7B7B7B",
"@w c #6A0100",
"@v c #C70501",
"@u c #DC0301",
"@t c #EF150B",
"@s c #DA0500",
"@r c #4A0300",
"@q c #FBFBFB",
"@p c #797979",
"@o c #520000",
"@n c #CF0200",
"@m c #CB0705",
"@l c #D20101",
"@k c #E00000",
"@j c #5B0000",
"@i c #B20000",
"@h c #B30000",
"@g c #BC0000",
"@f c #BA0000",
"@e c #540000",
"@d c #D6D6D6",
"@c c #060606",
"@b c #AF0B0B",
"@a c #7A0000",
"@0 c #7D0000",
"@9 c #890000",
"@8 c #4B0000",
"@7 c #D0D0D0",
"@6 c #340000",
"@5 c #710000",
"@4 c #610000",
"@3 c #5E0000",
"@2 c #370000",
"@1 c #848484",
"@| c #CECECE",
"@} c #191919",
"@[ c #070000",
"@< c #390000",
"@: c #570000",
"@_ c #1B0000",
"@( c #D3D3D3",
"@/ c #0B0000",
"@^ c #2E0000",
"@] c #4D0404",
"@{ c #4C0000",
"@~ c #3D0000",
"@! c #838383",
"@) c #535353",
"@' c #050000",
"@, c #4F0505",
"@> c #410000",
"@; c #2A0000",
"@- c #350000",
"@= c #300000",
"@* c #FCFCFC",
"@& c #959595",
"@% c #290000",
"@$ c #2E0202",
"@# c #100000",
"@@ c #250101",
"@+ c #360000",
"+Z c #858585",
"+Y c #F0F0F0",
"+X c #060000",
"+W c #2D0000",
"+V c #320000",
"+U c #210000",
"+T c #1F0303",
"+S c #6A6A6A",
"+R c #170000",
"+Q c #210101",
"+P c #1A0000",
"+O c #080000",
"+N c #E8E8E8",
"+M c #FDFDFD",
"+L c #4E4E4E",
"+K c #2B0000",
"+J c #120000",
"+I c #260404",
"+H c #D8D8D8",
"+G c #150000",
"+F c #180000",
"+E c #1D0505",
"+D c #1A0303",
"+C c #949494",
"+B c #150101",
"+A c #090000",
"+z c #0E0000",
"+y c #D2D2D2",
"+x c #030000",
"+w c #140000",
"+v c #020000",
"+u c #0C0000",
"+t c #333333",
"+s c #E0E0E0",
"+r c #0D0202",
"+q c #1A0909",
"+p c #040000",
"+o c #181818",
"+n c #DFDFDF",
"+m c #EDEDED",
"+l c #7E7E7E",
"+k c #7A7A7A",
"+j c #101010",
"+i c #070202",
"+h c #696969",
"+g c #BABABA",
"+f c #5B5B5B",
"+e c #0E0E0E",
"+d c #515151",
"+c c #060202",
"+b c #1A1A1A",
"+a c #3D3D3D",
"+0 c #1F1F1F",
"+9 c #010000",
"+8 c #828282",
"+7 c #040101",
"+6 c #E4E4E4",
"+5 c #2A2A2A",
"+4 c #8E8E8E",
"+3 c #B9B9B9",
"+2 c #040404",
"+1 c #020202",
"+| c #0A0A0A",
"+} c #010101",
"+[ c #030303",
"+< c #A9A9A9",
"+: c #969696",
"+_ c #A7A7A7",
"+( c #262626",
"+/ c #2B2B2B",
"+^ c #ABABAB",
"+] c #E2E2E2",
"+{ c #6C6C6C",
"+~ c #252525",
"+! c #000000",
"+) c #0B0B0B",
"+' c #282828",
"+, c #636363",
"+> c #999999",
"+; c #E6E6E6",
"+- c #F9F9F9",
"+= c #939393",
"+* c #474747",
"+& c #4B4B4B",
"+% c #B7B7B7",
"+$ c #CBCBCB",
"+# c #FEFEFE",
"+@ c #FFFFFF",
"++ c None",
"++++++++++++++++++++++++++++++++++++++++++++++++++++++++++++++++++++++++++++++++++++++++",
"++++++++++++++++++++++++++++++++++++++++++++++++++++++++++++++++++++++++++++++++++++++++",
"+++++++++++++++++++++++++++++++@+@+@+@+@+@+@+@+#+@+#+@+@++++++++++++++++++++++++++++++++",
"+++++++++++++++++++++++++#+@+#+@+@+@+#+#+#+@+#+#+#+#+@+@+#+@++++++++++++++++++++++++++++",
"+++++++++++++++++++++++#+#+@+#+@+@+@+@+@+#+@+#+#+@+#+@+@+@+@+#++++++++++++++++++++++++++",
"+++++++++++++++++++++++@+@+@+@+@+$+%+&+*+*+*+*+=+%+-+@+#+#+#+@+@++++++++++++++++++++++++",
"+++++++++++++++++++++#+@+;+>+,+'+)+!+!+!+!+!+!+!+!+~+{+]+@+@+@+#+@++++++++++++++++++++++",
"+++++++++++++++++#+#+@+^+/+!+!+!+!+!+!+!+!+!+!+!+!+!+!+(+_+#+@+@+#++++++++++++++++++++++",
"+++++++++++++++++@+#+#+!+!+!+!+!+!+!+!+!+!+!+!+!+!+!+!+!+!+:+#+#+#+#++++++++++++++++++++",
"+++++++++++++++#+@+@+<+!+!+!+!+!+!+!+!+!+!+[+!+}+|+1+!+!+!+2+3+@+#+@+#++++++++++++++++++",
"+++++++++++++++@+@+#+4+!+!+!+!+!+!+!+!+!+!+!+!+!+!+!+!+!+!+!+5+6+@+#+@++++++++++++++++++",
"+++++++++++++++@+#+#+4+!+!+7+!+!+!+!+!+!+!+!+!+!+!+!+!+!+!+!+!+8+#+#+#++++++++++++++++++",
"+++++++++++++++#+@+#+<+!+!+9+!+!+!+!+0+a+a+a+b+!+!+!+c+9+!+!+!+d+@+@+@+@++++++++++++++++",
"+++++++++++++++@+@+#+@+'+!+!+!+e+f+g+;+@+#+@+]+h+!+!+9+!+!+i+!+j+;+#+@+#++++++++++++++++",
"+++++++++++++++#+@+#+@+;+k+k+l+m+@+@+#+#+#+@+#+n+o+!+p+p+q+r+!+!+s+#+#+@++++++++++++++++",
"+++++++++++++++++++@+#+#+#+@+#+@+@+@+@+@+#+@+#+#+t+!+u+v+w+x+!+!+s+#+#+@++++++++++++++++",
"+++++++++++++++++++++@+@+#+@+@+@+@+@+#+@+#+@+@+y+e+!+z+A+B+v+!+!+s+@+@+@+#++++++++++++++",
"+++++++++++++++++++++++++#+@+#+#+++++++@+@+@+@+C+!+!+D+E+F+G+!+!+s+@+@+@+@++++++++++++++",
"+++++++++++++++++++++++++++++++++++++#+@+@+@+H+[+!+!+I+J+K+z+!+L+M+@+@+@+#++++++++++++++",
"+++++++++++++++++++++++++++++++++++@+@+#+#+N+'+!+O+w+P+Q+R+!+!+>+#+#+#+@++++++++++++++++",
"+++++++++++++++++++++++++++++++++#+@+@+@+@+S+!+v+T+U+V+W+X+!+(+Y+#+@+#+#++++++++++++++++",
"+++++++++++++++++++++++++++++++#+@+@+@+@+Z+[+p@+@@@#@$@%+!+!@&+#+@+#+#+#++++++++++++++++",
"+++++++++++++++++++++++++++++#+@+#+@@*+8+!+!@=@-@;@>@,@'+!@)+#+#+#+#+#++++++++++++++++++",
"+++++++++++++++++++++++++++@+@+@+@+@@!+!+!+R@~@{@]@^@/+!+o@(+@+#+@+@+#++++++++++++++++++",
"+++++++++++++++++++++++++@+@+#+@+@+Z+1+!@_@:@{@{@<@[+!@}@|+#+@+#+@+#++++++++++++++++++++",
"+++++++++++++++++++++++#+@+#+#+M@1+[+!@2@3@{@4@5@6+!+o@7+@+#+#+#+@+#++++++++++++++++++++",
"+++++++++++++++++++++++@+#+@+M+8+!+!@8@9@0@a@b@-+!@c@d+@+@+@+@+#+@++++++++++++++++++++++",
"+++++++++++++++++++++#+@+@+@@1+!+!@e@f@g@h@i@:+!+!+k+@+#+#+#+@+#++++++++++++++++++++++++",
"+++++++++++++++++++#+#+@+@+Z+[+!@j@k@l@m@n@o+!+!@p@q+@+@+@+@+@+@+@+@++++++++++++++++++++",
"+++++++++++++++++@+@+@+@@d+o+!@r@s@t@u@v@w+!+1@x@*+@+#+@+@+@+@+@+@+@+#+#++++++++++++++++",
"+++++++++++++++++@+#+#@y@z+!@A@B@C@D@E@F+!+!+)+f+f+f+f+f+f@G@d+#+#+#+#+#++++++++++++++++",
"+++++++++++++++#+@+@+#+b+!@H@I@J@K@L@M+!+!+!+!+!+!+!+!+!+!+!@N@O+#+@+#+@++++++++++++++++",
"+++++++++++++++@+@+#@P+!@Q@R@S@T@U@V@W@X@Y@Z#+#+#@###$#%#&#*+!#=#-+#+@+@++++++++++++++++",
"+++++++++++++++@+#+#+4+!#;#>#,#'#)#!#~#{#]#^#/#(#_#:#<#[#}#|+!+!+s+#+#+@++++++++++++++++",
"+++++++++++++++@+@+#+4+!#1#2#3#4#5#6#7#8#9#0#a#b#c#d#e#f#g#h+!+!+s+@+@+@++++++++++++++++",
"+++++++++++++++#+#+#+%+!#i#j#k#l#m#n#o#p#q#r#s#t#u#v#w#x#y#z+!+!+s+#+@+@++++++++++++++++",
"+++++++++++++++++@+#+@#A+!+!+!+!+!+!+!+!+!+!+!+!+!+!+!+!+!+!+1@!@*+#+#+@++++++++++++++++",
"+++++++++++++++++#+#+@#B+l+'+'+'+'+'+'+'+'+'+'+'+'+'+'+'+'#C#D+#+@+#+#++++++++++++++++++",
"+++++++++++++++++++@+@+@+@+@+@+@+#+#+#+@+#+@+@+@+@+@+@+#+#+#+@+#+@+@+#++++++++++++++++++",
"+++++++++++++++++++#+@+@+@+@+@+@+@+@+@+@+@+@+@+@+@+@+@+@+@+@+@+@+@+#++++++++++++++++++++",
"+++++++++++++++++++++++#+@+@+#+#+@+@+@+@+@+@+@+@+@+@+#+@+@+@+@+#+@+#++++++++++++++++++++",
"+++++++++++++++++++++++++++++++++++@+@+@+#+@+#+#+#+#+@+@+@+@+@+@++++++++++++++++++++++++",
"+++++++++++++++++++++++++++++++++++++++++++++++++++@+@+#+#+#++++++++++++++++++++++++++++",
"++++++++++++++++++++++++++++++++++++++++++++++++++++++++++++++++++++++++++++++++++++++++"};
