/* XPM */
static char * ball_red_xpm[] = {
"44 44 239 2",
"#x c #EEEEEE",
"#w c #999999",
"#v c #989898",
"#u c #DADADA",
"#t c #B1B1B1",
"#s c #060606",
"#r c #838383",
"#q c #ECECEC",
"#p c #080400",
"#o c #332303",
"#n c #301A00",
"#m c #322305",
"#l c #120800",
"#k c #281905",
"#j c #FFAB24",
"#i c #FB9816",
"#h c #FE8B0C",
"#g c #5B3608",
"#f c #261003",
"#e c #FB8D27",
"#d c #FE750E",
"#c c #FE6C05",
"#b c #5B2C03",
"#a c #281102",
"#0 c #F04004",
"#9 c #FB5104",
"#8 c #FD5B0C",
"#7 c #581C04",
"#6 c #270700",
"#5 c #F93E02",
"#4 c #F8510C",
"#3 c #F03B06",
"#2 c #591301",
"#1 c #959595",
"#| c #280600",
"#} c #F32303",
"#[ c #F42E0A",
"#< c #EF2F05",
"#: c #5A0E01",
"#_ c #333333",
"#( c #323232",
"#/ c #565656",
"#^ c #CBCBCB",
"#] c #606060",
"#{ c #250300",
"#~ c #E10E02",
"#! c #F61B04",
"#) c #F31202",
"#' c #550100",
"#, c #C9C9C9",
"#> c #830000",
"#; c #8D0301",
"#- c #8A0302",
"#= c #D60A04",
"#* c #E50806",
"#& c #A10A08",
"#% c #870100",
"#$ c #880000",
"## c #850000",
"#@ c #810000",
"#+ c #7A0000",
"@Z c #880200",
"@Y c #8A0401",
"@X c #7B0000",
"@W c #7C0A08",
"@V c #7F0101",
"@U c #8B0905",
"@T c #5C0302",
"@S c #4B4B4B",
"@R c #D30000",
"@Q c #DD0000",
"@P c #BB0000",
"@O c #B80000",
"@N c #C10303",
"@M c #BC0000",
"@L c #B10000",
"@K c #BC0404",
"@J c #CA0000",
"@I c #CB0000",
"@H c #E40404",
"@G c #CF0000",
"@F c #C90000",
"@E c #D20000",
"@D c #B90000",
"@C c #BF0000",
"@B c #890000",
"@A c #ADADAD",
"@z c #B30101",
"@y c #940000",
"@x c #950000",
"@w c #C00303",
"@v c #9E0000",
"@u c #A90000",
"@t c #B60202",
"@s c #AC0000",
"@r c #B20505",
"@q c #AF0404",
"@p c #B20000",
"@o c #960000",
"@n c #A40000",
"@m c #8B0000",
"@l c #9F0000",
"@k c #A10000",
"@j c #9B0000",
"@i c #9A0000",
"@h c #770000",
"@g c #D7D7D7",
"@f c #0F0F0F",
"@e c #230000",
"@d c #420101",
"@c c #5F0000",
"@b c #800000",
"@a c #8C0606",
"@0 c #620000",
"@9 c #3D0000",
"@8 c #370000",
"@7 c #440000",
"@6 c #860000",
"@5 c #720000",
"@4 c #7D0000",
"@3 c #5E0101",
"@2 c #1E1E1E",
"@1 c #7C7C7C",
"@| c #750707",
"@} c #510000",
"@[ c #570000",
"@< c #2F0707",
"@: c #666666",
"@_ c #B4B4B4",
"@( c #343434",
"@/ c #470000",
"@^ c #400000",
"@] c #4E0000",
"@{ c #170000",
"@~ c #515151",
"@! c #101010",
"@) c #4F0909",
"@' c #350000",
"@, c #250000",
"@> c #240000",
"@; c #520404",
"@- c #460000",
"@= c #E4E4E4",
"@* c #140000",
"@& c #490303",
"@% c #550404",
"@$ c #2F0000",
"@# c #626262",
"@@ c #260000",
"@+ c #390000",
"+Z c #110000",
"+Y c #FBFBFB",
"+X c #060000",
"+W c #340000",
"+V c #320000",
"+U c #2D2D2D",
"+T c #F1F1F1",
"+S c #270000",
"+R c #380000",
"+Q c #200101",
"+P c #0B0000",
"+O c #949494",
"+N c #1F0000",
"+M c #2A0000",
"+L c #3F0000",
"+K c #0C0C0C",
"+J c #ACACAC",
"+I c #380202",
"+H c #250101",
"+G c #707070",
"+F c #161616",
"+E c #2C0000",
"+D c #290000",
"+C c #310000",
"+B c #5B5B5B",
"+A c #080808",
"+z c #200000",
"+y c #1B0000",
"+x c #171717",
"+w c #F7F7F7",
"+v c #120000",
"+u c #210404",
"+t c #0D0000",
"+s c #0E0000",
"+r c #1E0000",
"+q c #C7C7C7",
"+p c #0A0000",
"+o c #090000",
"+n c #070000",
"+m c #100000",
"+l c #1C0000",
"+k c #494949",
"+j c #070101",
"+i c #0F0303",
"+h c #180000",
"+g c #0C0000",
"+f c #080000",
"+e c #150000",
"+d c #1C1C1C",
"+c c #D4D4D4",
"+b c #0D0505",
"+a c #0C0303",
"+0 c #878787",
"+9 c #050000",
"+8 c #040000",
"+7 c #0E0505",
"+6 c #3F3F3F",
"+5 c #030000",
"+4 c #0E0606",
"+3 c #010000",
"+2 c #E6E6E6",
"+1 c #020000",
"+| c #9E9E9E",
"+} c #020101",
"+[ c #050404",
"+< c #404040",
"+: c #070707",
"+_ c #0E0E0E",
"+( c #D8D8D8",
"+/ c #A3A3A3",
"+^ c #656565",
"+] c #CFCFCF",
"+{ c #090909",
"+~ c #030303",
"+! c #020202",
"+) c #202020",
"+' c #F8F8F8",
"+, c #696969",
"+> c #000000",
"+; c #232323",
"+- c #D2D2D2",
"+= c #FCFCFC",
"+* c #A5A5A5",
"+& c #474747",
"+% c #9C9C9C",
"+$ c #F6F6F6",
"+# c #FFFFFF",
"+@ c #FEFEFE",
"++ c None",
"++++++++++++++++++++++++++++++++++++++++++++++++++++++++++++++++++++++++++++++++++++++++",
"++++++++++++++++++++++++++++++++++++++++++++++++++++++++++++++++++++++++++++++++++++++++",
"++++++++++++++++++++++++++++++++++++++++++++++++++++++++++++++++++++++++++++++++++++++++",
"+++++++++++++++++++++++++++++++++++++++++@+#+#+@+#+@+#+@+#+#++++++++++++++++++++++++++++",
"+++++++++++++++++++++++++++++++++++++++@+@+#+@+@+#+@+#+#+#+#+#+@++++++++++++++++++++++++",
"+++++++++++++++++++++++++++++++++++++#+@+@+#+$+%+&+&+&+&+*+=+#+@+@++++++++++++++++++++++",
"+++++++++++++++++++++++++++++++++++++@+#+#+-+;+>+>+>+>+>+>+,+#+#+@++++++++++++++++++++++",
"+++++++++++++++++++++++++++++++++++#+#+#+'+)+>+>+>+>+!+~+>+{+]+#+#+#++++++++++++++++++++",
"+++++++++++++++++++++++++++++++++#+#+#+@+^+>+>+>+>+>+>+>+>+>+/+@+@+#++++++++++++++++++++",
"+++++++++++++++++++++++++++++++++#+#+#+(+_+>+>+:+>+>+>+!+>+>+/+#+@+#++++++++++++++++++++",
"+++++++++++++++++++++++++++++++@+#+#+$+<+>+>+!+>+>+>+>+[+}+>+/+@+#+#++++++++++++++++++++",
"+++++++++++++++++++++++++++++@+#+@+#+|+>+>+>+>+>+>+1+>+>+>+>+/+@+@+@++++++++++++++++++++",
"+++++++++++++++++++++++++++++#+#+#+2+:+>+>+>+>+3+>+4+5+5+>+>+/+@+#+#++++++++++++++++++++",
"+++++++++++++++++++++++++++#+@+#+#+6+>+1+7+1+3+>+8+8+9+8+>+>+/+@+#+#++++++++++++++++++++",
"+++++++++++++++++++++++++#+#+@+#+0+~+>+a+}+3+b+>+3+>+>+9+5+>+/+@+#+@+@++++++++++++++++++",
"+++++++++++++++++++++++@+@+#+@+c+d+>+8+e+f+g+>+>+>+h+8+i+j+>+/+@+#+@+@++++++++++++++++++",
"+++++++++++++++++++++++@+#+#+=+k+>+>+l+m+n+n+>+>+3+o+p+n+5+>+/+@+#+#+#++++++++++++++++++",
"+++++++++++++++++++++++#+#+#+q+>+>+r+o+s+t+>+>+>+9+h+u+v+>+>+/+#+#+#+#++++++++++++++++++",
"+++++++++++++++++++++#+#+#+w+x+>+f+y+z+l+>+>+A+>+g+t+t+z+p+>+/+#+#+#+#++++++++++++++++++",
"+++++++++++++++++++@+@+@+@+B+>+o+C+D+E+g+>+F+G+>+g+E+H+I+9+>+/+@+@+@++++++++++++++++++++",
"+++++++++++++++++#+@+@+#+J+K+>+z+L+M+N+>+>+O+G+>+P+Q+R+S+5+>+/+#+@+#++++++++++++++++++++",
"+++++++++++++++++#+@+#+T+U+>+l+v+V+W+X+>+&+Y+G+>+Z@++S@@+p+>+/+@+#+#+@++++++++++++++++++",
"+++++++++++++++@+@+@+@@#+>+1@$@%@&@*+>+d@=+@+G+>@@@-+L@;+X+>+/+@+@+@+@+#+@++++++++++++++",
"+++++++++++++++#+#+@@=+>+>@>@,@'@)+5+>@!@~@~+;+>@{@]@^@/+p+>@(@~@_+#+#+#+#+#++++++++++++",
"+++++++++++++++#+#+@@:+>@<@]@[@[+l+>+>+>+>+>+>+>@,@[@}@|+P+>+>+>+>@1+#+#+@+@++++++++++++",
"+++++++++++++++#+@+@@2+>@3@4@5@6@/@7+C+L@8@9@8@7@0@a@6@b@c@d@e+R+X@f@g+@+@+@+#++++++++++",
"+++++++++++++++@+#+@@2+>@h@i@j@k@l@m@k@n@o@p@q@r@s@t@u@v@w@x@y@z+m+>@A+#+@+#+#++++++++++",
"+++++++++++++++@+#+@@2+>@B@C@D@D@E@F@G@H@I@J@K@L@M@N@O@C@D@P@Q@R@{+>@A+#+#+#+#++++++++++",
"+++++++++++++++#+#+#@S+>@T@U@V@W@X@Y@Z#+#@###$#%#&@E#*#=#-@6#;#>+s+>@A+#+#+#+#++++++++++",
"+++++++++++++++@+#+##,+A+>+>+>+>+>+>+>+>+>+>+>+>#'#)#!#~#{+>+>+>+>#]+Y+#+#+#++++++++++++",
"+++++++++++++++++@+@+@#^#/#(#_#_#_#_#_#(#(#(+F+>#:#<#[#}#|+>+)#(#1+@+@+@+@+#++++++++++++",
"+++++++++++++++++#+@+@+#+@+@+#+#+@+#+#+#+#+@+G+>#2#3#4#5#6+>+/+#+@+#+@+@+#++++++++++++++",
"+++++++++++++++++++@+#+@+#+@+#+#+#+#+#+#+@+#+G+>#7#8#9#0#a+>+/+@+#+@+#+@+@++++++++++++++",
"+++++++++++++++++++++++#+@+@+#+@+@+#+#+@+@+@+G+>#b#c#d#e#f+>+/+@+@+@+@++++++++++++++++++",
"+++++++++++++++++++++++@+#+#+@+++++++@+@+@+#+G+>#g#h#i#j#k+>+/+@+#+#+@++++++++++++++++++",
"+++++++++++++++++++++++++++++++++++++++#+@+##,+>#l#m#n#o#p@!#q+@+#+@++++++++++++++++++++",
"+++++++++++++++++++++++++++++++++++++++#+@+#+=#r#s+>+>+>+A#t+@+@+#+@++++++++++++++++++++",
"+++++++++++++++++++++++++++++++++++++++++@+#+@+@#u#v#w#w#x+#+#+@+@++++++++++++++++++++++",
"+++++++++++++++++++++++++++++++++++++++++#+#+#+#+#+#+#+@+@+@+#+#+@++++++++++++++++++++++",
"+++++++++++++++++++++++++++++++++++++++++++@+#+#+#+#+#+#+#+#+#+@++++++++++++++++++++++++",
"+++++++++++++++++++++++++++++++++++++++++++++@+#+@+#+@+#+#+#+@++++++++++++++++++++++++++",
"++++++++++++++++++++++++++++++++++++++++++++++++++++++++++++++++++++++++++++++++++++++++",
"++++++++++++++++++++++++++++++++++++++++++++++++++++++++++++++++++++++++++++++++++++++++",
"++++++++++++++++++++++++++++++++++++++++++++++++++++++++++++++++++++++++++++++++++++++++"};
