/* XPM */
static char * ball_red_xpm[] = {
"44 44 290 2",
"$: c #F9F9F9",
"$_ c #252525",
"$( c #6C6C6C",
"$/ c #999999",
"$^ c #140F01",
"$] c #140D00",
"${ c #140E00",
"$~ c #141001",
"$! c #141000",
"$) c #010100",
"$' c #241100",
"$, c #916009",
"$> c #A86A0C",
"$; c #FFC722",
"$- c #FFAD0A",
"$= c #FEAF0C",
"$* c #FC9E05",
"$& c #FC9C09",
"$% c #FFB30B",
"$$ c #A96D0D",
"$# c #5F420A",
"$@ c #241401",
"$+ c #622B03",
"#Z c #ED7207",
"#Y c #FF8F16",
"#X c #FF921A",
"#W c #FF8912",
"#V c #FC7F13",
"#U c #FE921A",
"#T c #FFA226",
"#S c #FE8915",
"#R c #FB7B0D",
"#Q c #FF8A0D",
"#P c #FF840E",
"#O c #EC8517",
"#N c #421F02",
"#M c #0C0C0C",
"#L c #ACACAC",
"#K c #6C3B0F",
"#J c #FE680D",
"#I c #FD5E03",
"#H c #FE710D",
"#G c #FD5506",
"#F c #FE7311",
"#E c #FE680E",
"#D c #FD6D0E",
"#C c #FE6003",
"#B c #FB5C06",
"#A c #FE7910",
"#z c #FE6D05",
"#y c #FF6F0A",
"#x c #FC5603",
"#w c #F26B0F",
"#v c #6B3003",
"#u c #330F02",
"#t c #F34C06",
"#s c #FD6B1D",
"#r c #F54706",
"#q c #FE711C",
"#p c #C12504",
"#o c #592104",
"#n c #592402",
"#m c #D55310",
"#l c #F53F02",
"#k c #F85811",
"#j c #FA5305",
"#i c #EC450E",
"#h c #2A0100",
"#g c #626262",
"#f c #A82B07",
"#e c #F83505",
"#d c #F73002",
"#c c #FC3C01",
"#b c #9D2C04",
"#a c #9E3206",
"#0 c #FD4004",
"#9 c #FC4207",
"#8 c #F22B07",
"#7 c #930800",
"#6 c #D00D01",
"#5 c #F31900",
"#4 c #F41800",
"#3 c #DD1D00",
"#2 c #1A0500",
"#1 c #CBCBCB",
"#| c #140100",
"#} c #DA2100",
"#[ c #F52B0A",
"#< c #FB350C",
"#: c #C81D0E",
"#_ c #D80400",
"#( c #CE0200",
"#/ c #EA170B",
"#^ c #A71510",
"#] c #171717",
"#{ c #9D0400",
"#~ c #D20401",
"#! c #E10400",
"#) c #F61104",
"#' c #380300",
"#, c #979797",
"#> c #D50101",
"#; c #D10000",
"#- c #B80000",
"#= c #3F0100",
"#* c #575757",
"#& c #400000",
"#% c #E70604",
"#$ c #CB0000",
"## c #D00000",
"#@ c #340101",
"#+ c #BE0202",
"@Z c #B70707",
"@Y c #B10000",
"@X c #390000",
"@W c #848484",
"@V c #656565",
"@U c #330000",
"@T c #CB0606",
"@S c #B70303",
"@R c #C00202",
"@Q c #240000",
"@P c #A50101",
"@O c #930000",
"@N c #910000",
"@M c #6F0000",
"@L c #141414",
"@K c #630000",
"@J c #920000",
"@I c #990101",
"@H c #9F0101",
"@G c #8E8E8E",
"@F c #690000",
"@E c #640000",
"@D c #5F0000",
"@C c #4C0000",
"@B c #F1F1F1",
"@A c #790000",
"@z c #870101",
"@y c #660000",
"@x c #5E0000",
"@w c #FAFAFA",
"@v c #4D0202",
"@u c #5A0000",
"@t c #420000",
"@s c #6B0101",
"@r c #330202",
"@q c #5B5B5B",
"@p c #1D1D1D",
"@o c #2F0000",
"@n c #490000",
"@m c #161616",
"@l c #360000",
"@k c #430101",
"@j c #4F0202",
"@i c #4E0000",
"@h c #340000",
"@g c #320000",
"@f c #370000",
"@e c #3D0000",
"@d c #3B0000",
"@c c #410606",
"@b c #4B0000",
"@a c #280000",
"@0 c #050000",
"@9 c #C9C9C9",
"@8 c #2E0000",
"@7 c #3A0000",
"@6 c #400303",
"@5 c #510000",
"@4 c #3E0000",
"@3 c #350000",
"@2 c #320101",
"@1 c #270000",
"@| c #190000",
"@} c #262626",
"@[ c #0D0303",
"@< c #250202",
"@: c #310000",
"@_ c #1C0000",
"@( c #2D0000",
"@/ c #350101",
"@^ c #310505",
"@] c #2F0101",
"@{ c #1D0000",
"@~ c #0E0202",
"@! c #888888",
"@) c #1D0303",
"@' c #1E0202",
"@, c #300000",
"@> c #380101",
"@; c #260000",
"@- c #1A0000",
"@= c #220000",
"@* c #2F0303",
"@& c #230000",
"@% c #1F0202",
"@$ c #130202",
"@# c #0A0A0A",
"@@ c #A5A5A5",
"@+ c #DEDEDE",
"+Z c #090000",
"+Y c #290000",
"+X c #140000",
"+W c #2A2A2A",
"+V c #0E0000",
"+U c #150000",
"+T c #130000",
"+S c #0D0000",
"+R c #060000",
"+Q c #CECECE",
"+P c #1F1F1F",
"+O c #070000",
"+N c #0C0000",
"+M c #170000",
"+L c #160000",
"+K c #838383",
"+J c #EDEDED",
"+I c #242424",
"+H c #100000",
"+G c #180000",
"+F c #0A0000",
"+E c #0A0202",
"+D c #0E0404",
"+C c #0F0000",
"+B c #111111",
"+A c #F0F0F0",
"+z c #919191",
"+y c #0F0101",
"+x c #150303",
"+w c #0B0000",
"+v c #030000",
"+u c #040101",
"+t c #0D0202",
"+s c #686868",
"+r c #090202",
"+q c #DCDCDC",
"+p c #F8F8F8",
"+o c #B1B1B1",
"+n c #121212",
"+m c #0B0505",
"+l c #232323",
"+k c #090303",
"+j c #3D3D3D",
"+i c #353535",
"+h c #040000",
"+g c #949494",
"+f c #707070",
"+e c #020000",
"+d c #030101",
"+c c #010000",
"+b c #E0E0E0",
"+a c #E4E4E4",
"+0 c #090909",
"+9 c #070606",
"+8 c #0D0D0D",
"+7 c #020101",
"+6 c #5F5F5F",
"+5 c #9D9D9D",
"+4 c #060606",
"+3 c #222222",
"+2 c #EBEBEB",
"+1 c #F2F2F2",
"+| c #515151",
"+} c #040404",
"+[ c #070707",
"+< c #ADADAD",
"+: c #F7F7F7",
"+_ c #7E7E7E",
"+( c #080808",
"+/ c #020202",
"+^ c #373737",
"+] c #B6B6B6",
"+{ c #EEEEEE",
"+~ c #797979",
"+! c #282828",
"+) c #010101",
"+' c #000000",
"+, c #131313",
"+> c #3A3A3A",
"+; c #B5B5B5",
"+- c #BABABA",
"+= c #939393",
"+* c #474747",
"+& c #545454",
"+% c #B7B7B7",
"+$ c #D9D9D9",
"+# c #FEFEFE",
"+@ c #FFFFFF",
"++ c None",
"++++++++++++++++++++++++++++++++++++++++++++++++++++++++++++++++++++++++++++++++++++++++",
"++++++++++++++++++++++++++++++++++++++++++++++++++++++++++++++++++++++++++++++++++++++++",
"+++++++++++++++++++++++++++++++++++@+@+@+#+@+@+#+#++++++++++++++++++++++++++++++++++++++",
"+++++++++++++++++++++++++++++#+@+#+@+#+#+#+@+#+#+#+#+@+#+@+#++++++++++++++++++++++++++++",
"+++++++++++++++++++++++++++#+@+@+@+@+@+@+#+@+#+#+@+#+@+@+@+@+#++++++++++++++++++++++++++",
"+++++++++++++++++++++++@+#+@+@+@+#+#+$+%+%+&+*+=+%+-+@+#+#+#+@+@++++++++++++++++++++++++",
"+++++++++++++++++++++++#+@+@+@+@+;+>+,+'+'+'+'+'+'+)+!+~+{+@+@+@+#++++++++++++++++++++++",
"+++++++++++++++++++++@+@+@+@+]+^+/+'+'+'+'+'+'+'+'+'+'+'+(+_+:+@+@+@++++++++++++++++++++",
"+++++++++++++++++++++@+#+#+<+[+'+'+'+/+}+'+'+'+'+'+'+'+'+'+'+|+1+#+@+#++++++++++++++++++",
"+++++++++++++++++++++@+@+2+3+'+'+4+'+'+'+'+'+'+'+'+'+'+'+'+'+'+5+#+@+@++++++++++++++++++",
"+++++++++++++++++++#+@+#+6+'+'+'+'+'+'+'+7+'+'+'+'+8+'+'+9+'+'+0+a+#+@+@++++++++++++++++",
"+++++++++++++++++@+#+#+b+'+'+'+c+d+'+'+'+'+'+'+'+'+'+c+d+'+e+'+'+f+#+#+@+#++++++++++++++",
"+++++++++++++++++@+#+@+g+'+'+c+h+e+e+'+'+'+i+j+,+'+'+'+'+c+k+'+'+l+@+@+@+@++++++++++++++",
"+++++++++++++++#+@+#+@+f+'+'+m+e+'+'+'+n+o+p+#+q+|+'+'+c+'+e+'+'+'+#+@+@+@++++++++++++++",
"+++++++++++++++#+#+#+@+f+'+'+e+'+r+'+'+s+#+@+#+#+:+n+'+t+u+'+h+'+'+#+#+#+@++++++++++++++",
"+++++++++++++++#+@+#+@+f+'+v+w+x+y+e+'+z+#+@+#+#+A+B+'+'+C+e+D+'+'+#+#+@+#++++++++++++++",
"+++++++++++++++++#+#+@+f+'+E+F+G+H+'+'+I+J+@+@+@+K+'+e+L+M+N+O+'+P+@+@+@+@++++++++++++++",
"+++++++++++++++++#+@+@+Q+'+u+R+S+T+M+c+'+P+!+!+!+(+'+e+T+T+U+V+'+f+@+@+@+#++++++++++++++",
"+++++++++++++++++@+#+@+A+W+'+'+N+T+O+w+c+'+'+'+'+h+X+Y+S+M+Z+'+4@++@+@+@++++++++++++++++",
"+++++++++++++++++++#+#+#@@@#+'@$@%@&@*@=@-+H+S+w@;@>@,@'@)+'+'+s+#+#+#+@++++++++++++++++",
"+++++++++++++++++++#+#+@+#@!+'+'@~@{@]@^@/@&@(@_@:@<+T@[+'+'@}+A+#+@+#+#++++++++++++++++",
"+++++++++++++++++++#+@+#+a+W+'+v@|@1@:@2@3@4@5@;@6@7@8+M+h+'+4@9+@+#+@+@++++++++++++++++",
"+++++++++++++++++@+#+#+J+l+'@0@a@b@c@4@d@a@=@|@_@(@e@f@g@b@|+'+l+b+#+#+@+#++++++++++++++",
"+++++++++++++++++@+#+@+g+'@0@h@:@f@i@1+V+'+'+'+'+w@8@j@k@l@g+F+'+f+@+@+@+@++++++++++++++",
"+++++++++++++++++@+#+@@m+'@(@5@d@n@o+'+'@p@q@q@p+'+c@r@s@t@u@v+'@m+#+@+@+@++++++++++++++",
"+++++++++++++++++@+#@w+'+N@x@y@z@A+w+'+s@B+@+#@B+s+'+c@C@D@E@F+C+'@9+#+#+@++++++++++++++",
"+++++++++++++++#+@+#@G+'@&@H@I@J@K+'@L+@+#+@+#+#+@@}+'@M@N@O@P@Q+'@G+#+@+@++++++++++++++",
"+++++++++++++++@+@+#@G+'@(@R@S@T@U+'@V+@+#+@+@+@+@@W+'@X@Y@Z#+#@+'@G+@+@+@++++++++++++++",
"+++++++++++++++#+@+@@G+'@:###$#%#&+'#*+@+@+@+@+@+@@W+'#=#-#;#>@f+'@G+@+@+@++++++++++++++",
"+++++++++++++++@+@+@#,+'#'#)#!#~#{+'+n+:+@+@+@+@+:#]+'#^#/#(#_@g+'@G+@+@+@++++++++++++++",
"+++++++++++++++@+#+#+#+'+X#:#<#[#}#|+'+>+o#1#1+o+>+'#2#3#4#5#6@&+'@@+#+#+#++++++++++++++",
"+++++++++++++++@+@+@+#+'+'#7#8#9#0#a+v+'+'+'+'+'+'+v#b#c#d#e#f+'+'+@+#+#+#++++++++++++++",
"+++++++++++++++#+@+#+@#g+'#h#i#j#k#l#m#n+'+'+'+'#o#p#q#r#s#t#u+'#g+#+@+#+#++++++++++++++",
"+++++++++++++++++#+#+#+a+0+'#v#w#x#y#z#A#B#C#D#E#F#G#H#I#J#K+'+0+a+#+#+#+@++++++++++++++",
"+++++++++++++++++++@+@+@#L#M+'#N#O#P#Q#R#S#T#U#V#W#X#Y#Z$++v#M#L+@+@+@+@+#++++++++++++++",
"+++++++++++++++++++#+#+#+@+<+[+'$@$#$$$%$&$*$=$-$;$>$,$'+'+[+<+#+@+#+@+#++++++++++++++++",
"+++++++++++++++++++++@+#+#+#+]+i+'+'$)$!$~${$]${$^$)+'+'+i+]+#+#+@+@+#++++++++++++++++++",
"+++++++++++++++++++++@+#+#+@+#+{$/$($_+'+'+'+'+'+'$_$($/+{+@+@+#+@+#++++++++++++++++++++",
"+++++++++++++++++++++++@+@+@+@+@+#+#$:+%+%+%+%+%+%$:+@+#+#+#+@+#+@++++++++++++++++++++++",
"+++++++++++++++++++++++++#+@+@+@+@+@+@+@+@+@+@+@+@+@+@+@+@+@+@+@+@++++++++++++++++++++++",
"+++++++++++++++++++++++++++++#+#+@+@+@+@+@+@+@+@+@+@+#+@+@+@+@+#++++++++++++++++++++++++",
"+++++++++++++++++++++++++++++++++@+@+@+#+@+#+#+#+#+#+@+@++++++++++++++++++++++++++++++++",
"+++++++++++++++++++++++++++++++++++++++++++++#+@+#+@++++++++++++++++++++++++++++++++++++",
"++++++++++++++++++++++++++++++++++++++++++++++++++++++++++++++++++++++++++++++++++++++++"};
