/* XPM */
static char * Green Apple_xpm[] = {
"48 48 256 2",
"  	c None",
". 	c #A9A868",
"+ 	c #9C9452",
"@ 	c #847B42",
"# 	c #A29955",
"$ 	c #766C3A",
"% 	c #7A6E3C",
"& 	c #DAD994",
"* 	c #757543",
"= 	c #7C713C",
"- 	c #E0DAB9",
"; 	c #E8E4A8",
"> 	c #4C4425",
", 	c #565339",
"' 	c #BBBBBB",
") 	c #544A2A",
"! 	c #A9A45C",
"~ 	c #BDB873",
"{ 	c #BBB36A",
"] 	c #C3C3C3",
"^ 	c #FAF29A",
"/ 	c #8C8C8C",
"( 	c #C1BA89",
"_ 	c #9D9954",
": 	c #B2AB64",
"< 	c #D6D4CB",
"[ 	c #A29452",
"} 	c #D3D18A",
"| 	c #8C8448",
"1 	c #D8D5B9",
"2 	c #ABABAB",
"3 	c #93834B",
"4 	c #F3E28A",
"5 	c #E9E58E",
"6 	c #FAF7B8",
"7 	c #D2D2D2",
"8 	c #B3A25C",
"9 	c #949494",
"0 	c #999685",
"a 	c #A5A05A",
"b 	c #F4E9A6",
"c 	c #5A532C",
"d 	c #BCB96D",
"e 	c #AB9D59",
"f 	c #FEFED7",
"g 	c #FFFFE8",
"h 	c #D4D491",
"i 	c #CCCB7D",
"j 	c #8D8245",
"k 	c #645C32",
"l 	c #FCFBC8",
"m 	c #9B9B9B",
"n 	c #CACA84",
"o 	c #F7F2A7",
"p 	c #B3B065",
"q 	c #A4A4A3",
"r 	c #6A6A68",
"s 	c #E3DD91",
"t 	c #453F21",
"u 	c #D6CE83",
"v 	c #726539",
"w 	c #D3D283",
"x 	c #C3C174",
"y 	c #A99A55",
"z 	c #DDDA8C",
"A 	c #C6C47B",
"B 	c #9A904F",
"C 	c #E7CE7C",
"D 	c #B5AC79",
"E 	c #CBC475",
"F 	c #F6E993",
"G 	c #E2DF8B",
"H 	c #D2CC7D",
"I 	c #9E8E51",
"J 	c #59574D",
"K 	c #BDAC64",
"L 	c #817640",
"M 	c #6D6B5E",
"N 	c #695E35",
"O 	c #A19D57",
"P 	c #FFEF9B",
"Q 	c #979251",
"R 	c #B3B3B1",
"S 	c #847641",
"T 	c #B7B3A2",
"U 	c #7F753E",
"V 	c #B89D5D",
"W 	c #83817A",
"X 	c #CDCDCD",
"Y 	c #F1E396",
"Z 	c #BAB182",
"` 	c #6C6239",
" .	c #918F51",
"..	c #8A7E46",
"+.	c #AAA273",
"@.	c #85834D",
"#.	c #726747",
"$.	c #464F1D",
"%.	c #D6BD72",
"&.	c #363325",
"*.	c #EBDA8B",
"=.	c #C1BD72",
"-.	c #EAE3B3",
";.	c #C5B66B",
">.	c #9C8D4E",
",.	c #92894C",
"'.	c #1A180B",
").	c #ADA95E",
"!.	c #B7B46F",
"~.	c #A38F52",
"{.	c #A99554",
"].	c #75736B",
"^.	c #927F48",
"/.	c #706437",
"(.	c #696033",
"_.	c #C9C9C9",
":.	c #CCC072",
"<.	c #6D6635",
"[.	c #EDE29A",
"}.	c #7B7550",
"|.	c #C5B55F",
"1.	c #56502A",
"2.	c #A29C66",
"3.	c #3B351F",
"4.	c #D2B96B",
"5.	c #D4C36F",
"6.	c #615431",
"7.	c #C9C77D",
"8.	c #BFBC6F",
"9.	c #E1DEA1",
"0.	c #99894D",
"a.	c #998C4F",
"b.	c #C4AD65",
"c.	c #DDCC81",
"d.	c #6E6235",
"e.	c #D9D693",
"f.	c #726837",
"g.	c #46433B",
"h.	c #D7CE9A",
"i.	c #BCA760",
"j.	c #6B6035",
"k.	c #93884A",
"l.	c #CCCCC5",
"m.	c #F6E69C",
"n.	c #D9D78D",
"o.	c #EDEB9F",
"p.	c #FAED96",
"q.	c #C6C3AC",
"r.	c #908448",
"s.	c #807340",
"t.	c #626055",
"u.	c #887D43",
"v.	c #D2CEBA",
"w.	c #8C7C45",
"x.	c #615830",
"y.	c #A1A09F",
"z.	c #968C4D",
"A.	c #99854D",
"B.	c #98894A",
"C.	c #ECE690",
"D.	c #C3BE7C",
"E.	c #887942",
"F.	c #867644",
"G.	c #2A2409",
"H.	c #96884E",
"I.	c #A0914E",
"J.	c #D6D893",
"K.	c #D8D584",
"L.	c #D4C479",
"M.	c #555B2A",
"N.	c #918D4E",
"O.	c #CCCD89",
"P.	c #897A44",
"Q.	c #DCDA85",
"R.	c #A5A058",
"S.	c #D2D07F",
"T.	c #DBDC97",
"U.	c #F3EF98",
"V.	c #8E7E48",
"W.	c #EADC9A",
"X.	c #E4D78D",
"Y.	c #9A8D49",
"Z.	c #9F894F",
"`.	c #96894B",
" +	c #6B7234",
".+	c #E4D181",
"++	c #D2C377",
"@+	c #5D572E",
"#+	c #867444",
"$+	c #C8B867",
"%+	c #B7B567",
"&+	c #BDB05A",
"*+	c #6B644C",
"=+	c #D0D0CF",
"-+	c #ADA051",
";+	c #806F3F",
">+	c #DCD79C",
",+	c #D0D18D",
"'+	c #857E54",
")+	c #99988E",
"!+	c #D6D0A7",
"~+	c #948847",
"{+	c #AEACA5",
"]+	c #BEBBB5",
"^+	c #3A3009",
"/+	c #B3A45F",
"(+	c #A5A38E",
"_+	c #F2E083",
":+	c #B2AF9D",
"<+	c #BFBA9A",
"[+	c #676235",
"}+	c #9EA15C",
"|+	c #6D5D37",
"1+	c #CDC697",
"2+	c #DEC375",
"3+	c #D8C47B",
"4+	c #E1CD76",
"5+	c #878060",
"6+	c #918E69",
"7+	c #928873",
"8+	c #7C7B71",
"9+	c #ECD584",
"0+	c #EEDB82",
"a+	c #918853",
"b+	c #918B5D",
"c+	c #807D61",
"d+	c #837344",
"e+	c #F1EFB2",
"f+	c #837743",
"g+	c #9C8E4B",
"h+	c #999658",
"i+	c #CEB970",
"j+	c #302A14",
"k+	c #76673B",
"l+	c #919058",
"m+	c #D1CD8D",
"n+	c #6A6334",
"o+	c #C6B864",
"p+	c #C9B065",
"q+	c #DCC97A",
"r+	c #CBB36B",
"s+	c #948F4C",
"t+	c #9B9461",
"u+	c #E1D791",
"v+	c #D8CF8F",
"w+	c #E5DE97",
"x+	c #E6E396",
"y+	c #E5E4A0",
"z+	c #9FA362",
"A+	c #ECEA95",
"B+	c #C4C785",
"C+	c #C6C887",
"D+	c #C8C581",
"E+	c #C8C288",
"F+	c #8E895C",
"G+	c #B5A657",
"                                                                                                ",
"                                                                                                ",
"                                                                                                ",
"                                                  0 ].]                                         ",
"                                                =+x.'.2                                         ",
"                                                {+^+'.'                                         ",
"                                                7+G.r                                           ",
"                                                #.'.'                                           ",
"                                              X t J                                             ",
"                                              ]+G.m                                             ",
"                                              y.j+]                                             ",
"                                              0 &.7                                             ",
"                                  < 1 !+h.h.& a+t v+E+( <+q.l.                                  ",
"                            < 1 >+z z & T.T.y+}.@+T.K.S.E { /++.:+X                             ",
"                        < - s G T.T.T.h O.A A [+` w i i A !.: a s+'+0 =+                        ",
"                      < W.*.G T.T.J.n p }+O ! 1.$ x d =.A x ~ ~ { /+g+}.R                       ",
"                    - Y C.s s T.J.,+. h+ .N.O 1.* ~ ~ =.u w+X.c.3+i+i.>.N )+                    ",
"                  - p.C.G z n.& J.B+z+@.* @.h+c * ( !.E [.b [.c.3+i+K {.F.> )+                  ",
"                1 P F 5 G z & J.J.O.. * M.k @.1.}.D ).X.m.b X.c.L.i+K e ^.k t q                 ",
"              7 b p.F 5 G z n.n.h ,+C+z+ +$.M.t , @.5..+X.u+u H :.;.: [ w.d.t , _.              ",
"              -.P p.U.5 G Q.K.w } h J.h n !.}+l+l+d i } } H A x d : ! >.S d.> 3.W               ",
"            < P p.^ U.5 G Q.w S.S.w ,+,+h J.& J.n.,+O.n A x =.%+).O B j U N ) t @+]             ",
"            - P P ^ U.A+G Q.K.S.S.i i i 7.n 7.7.7.A x =.d %+p ).O s+| @ % ` 1.> @+(+            ",
"            ; P P ^ U.o.o.x+z K.S.i E x x x 8.8.8.8.d %+p ).R._ s+| u.@ $ n+c 1.k 6+            ",
"            b P ^ ^ o o 6 e+; w+n.H E 8.8.%+d %+p p ).).! O + N.z.r.@ L $ n+@+x.d.F+            ",
"            m.P ^ ^ o 6 l f l e+y+n.D+=.8.%+%+: ).! a R.R.+ Q  .,.k...L % <.k n+$ a+            ",
"            F p.p.p.o 6 g g g f 6 ; h A =.!.p : ! a O R.e [ + Q ,.r...U % n+(.$ L B             ",
"            Y F F F b 6 f f g g l -.e.D+!.{ : ! ! a O _ y [ I z.| ..P.s.$ <.<.U | 2.            ",
"            W.4 _+4 Y o.6 l f l e+9.m+D.!.: ).a ! R.O _ [ ~.0.H.| ..S S $ f.$ u.Q .             ",
"            h._+0+9+*.[.o.e+; y+9.,+D.~ : K : a a }+O _ + I A.3 j @ L ;+$ $ @ k._ D             ",
"            <+_+C C .+z s w+s } 7.D.!.: : /+! ! a O # _ [ >.A.V.w.@ f+% $ f+j B a Z             ",
"            v.4+4+2+q+H H u u 7.~ !.: a /+8 # _ O _ + + B a.A.V.P.f+= % @ k.B._ y q.            ",
"            < ++5.%.%.++:.:.:.d { p ).a e 8 y _ _ _ + B z.0.^.w.d+% % f+k.B B O 8 =+            ",
"              1+4.4.r+;.;.;.K ).! a R.e y y y + + Q Q ,.r.V.F.S % = u.3 I + [ y (               ",
"              v.$+p+b.b.K i.8 a e # # # [ ~.I.+ Q N.| r...S s.% = @ r.a.# O [ G+v.              ",
"                D.b.i.V /+8 e y [ + z.a.I 0.3 ,.,.| u.@ L % $ % @ j `.+ # y e D                 ",
"                T K V V y {.~.+ I a.,.V.3 3 ......@ L ;+$ /.$ U ..r.B [ {.y &+T                 ",
"                  +.8 {.~.~.Z.a.3 3 | P.w.E.P.E.s.s.$ $ /.f.= @ j `.>.I.y i.D                   ",
"                  R e ~.Z.A.^.3 V.F.F.s.#+s.;+;+$ $ f././.% L ..,.a.>.[ G+o+R                   ",
"                    0 [ 3 V.#+#+F.% % % % % k+v /.<.j.<.$ = S j k.B.I y o+0 7 7                 ",
"                  =+] 5+3 d+% k+% k+` v v d.j.N N k (.f.= L E.j j B.I.&+2.' _.7                 ",
"                  =+] 2 }.;+/.|+|+` k |+N k x.c @+@+(.f.% S u.w.r.g+G+t+y.' X 7                 ",
"                  =+_.' m *+|+6.6.6.6.6.x.c c ) 1.@+N f.% S u...Y.-+b+9 2 ] =+                  ",
"                  7 X ] 2 9 t.) ) ) ) ) ) ) > ) c x.(.f.= S j Y.I.c+/ q ' _.7                   ",
"                    7 _.' 2 m r g.3.t t > t t ) c x.(.$ L ~+~+'+8+9 y.R ] X 7                   ",
"                      =+_.' 2 y./ r g.&.3.t > 1.x.(.$ = s.}.]./ 9 q R ] X 7                     ",
"                        =+X ' R q m 9 W r t.J J J t.M ].W / 9 y.2 ' ] X 7                       ",
"                        7 7 X ] ' R 2 y.m m 9 9 9 9 9 m m q 2 ' ] _.=+7                         "};
