/* XPM */
static char * Orange_xpm[] = {
"48 48 256 2",
"  	c None",
". 	c #D7C9B8",
"+ 	c #A95D23",
"@ 	c #B4A090",
"# 	c #934E1A",
"$ 	c #814316",
"% 	c #CA752A",
"& 	c #C16E24",
"* 	c #DB822E",
"= 	c #D2823B",
"- 	c #F7A53D",
"; 	c #D17D33",
"> 	c #AE8767",
", 	c #CC7A33",
"' 	c #CE9866",
") 	c #E38B33",
"! 	c #C57025",
"~ 	c #DD8A3C",
"{ 	c #867669",
"] 	c #D6A576",
"^ 	c #9C9B9B",
"/ 	c #733B13",
"( 	c #7D4115",
"_ 	c #945222",
": 	c #A3A3A3",
"< 	c #E39544",
"[ 	c #B06A36",
"} 	c #C97D41",
"| 	c #AC6024",
"1 	c #F9BC5A",
"2 	c #BCBCBC",
"3 	c #7A736D",
"4 	c #FCC35C",
"5 	c #C5722C",
"6 	c #635953",
"7 	c #834518",
"8 	c #C2C2C2",
"9 	c #564C26",
"0 	c #E9B575",
"a 	c #AA5C1E",
"b 	c #5B5047",
"c 	c #F2AD54",
"d 	c #DC8C41",
"e 	c #B9723B",
"f 	c #DA8433",
"g 	c #D1D1D1",
"h 	c #D4CEC5",
"i 	c #E5913C",
"j 	c #693510",
"k 	c #CA7426",
"l 	c #F19C3A",
"m 	c #F4AC4E",
"n 	c #5B2D0D",
"o 	c #FCC964",
"p 	c #EC9C43",
"q 	c #ECA34E",
"r 	c #E1C29A",
"s 	c #653310",
"t 	c #4F3828",
"u 	c #FEC353",
"v 	c #AA6532",
"w 	c #F5B154",
"x 	c #A4591E",
"y 	c #F2A242",
"z 	c #62320F",
"A 	c #776152",
"B 	c #B86622",
"C 	c #B3B3B3",
"D 	c #A3724D",
"E 	c #ADADAD",
"F 	c #E9943B",
"G 	c #A29389",
"H 	c #A25C29",
"I 	c #858484",
"J 	c #FBBB51",
"K 	c #F5B459",
"L 	c #D38441",
"M 	c #CD772A",
"N 	c #B46629",
"O 	c #F7BD61",
"P 	c #B0621F",
"Q 	c #783F15",
"R 	c #95501D",
"S 	c #E28D3A",
"T 	c #D7D2CA",
"U 	c #EC9436",
"V 	c #A15925",
"W 	c #C57430",
"X 	c #BE6D2D",
"Y 	c #52290C",
"Z 	c #DA863A",
"` 	c #CDCDCD",
" .	c #A55D28",
"..	c #D07928",
"+.	c #A1571D",
"@.	c #FCB244",
"#.	c #A65C25",
"$.	c #A25821",
"%.	c #A5602D",
"&.	c #B9692A",
"*.	c #B56D38",
"=.	c #C9C9C9",
"-.	c #48240B",
";.	c #635529",
">.	c #9E551D",
",.	c #D9AE86",
"'.	c #99521D",
").	c #C97A3B",
"!.	c #D69855",
"~.	c #926E57",
"{.	c #8D4C1E",
"].	c #FDBC4D",
"^.	c #EE993B",
"/.	c #EEA853",
"(.	c #756735",
"_.	c #835A2A",
":.	c #DF9143",
"<.	c #B8ADA5",
"[.	c #9D5826",
"}.	c #99521A",
"|.	c #B96821",
"1.	c #995625",
"2.	c #D6BFA8",
"3.	c #A55A21",
"4.	c #A8612E",
"5.	c #995421",
"6.	c #9C5622",
"7.	c #E4A96A",
"8.	c #6E3811",
"9.	c #B06225",
"0.	c #F6B95E",
"a.	c #C87631",
"b.	c #BC7034",
"c.	c #E99D4A",
"d.	c #FEBA46",
"e.	c #894819",
"f.	c #C16E29",
"g.	c #BD6C2A",
"h.	c #C0763D",
"i.	c #D47D2A",
"j.	c #FEC95B",
"k.	c #894A1D",
"l.	c #B56522",
"m.	c #B5682A",
"n.	c #E0872F",
"o.	c #E59B4B",
"p.	c #EDB369",
"q.	c #FAB34B",
"r.	c #8E4A18",
"s.	c #B06122",
"t.	c #BC6922",
"u.	c #BD6A25",
"v.	c #AD6128",
"w.	c #D48034",
"x.	c #F6B24E",
"y.	c #844B1B",
"z.	c #ECA552",
"A.	c #9D5A29",
"B.	c #FEC14D",
"C.	c #F6A945",
"D.	c #B86D33",
"E.	c #BA6825",
"F.	c #949494",
"G.	c #8B4917",
"H.	c #AF662E",
"I.	c #B56526",
"J.	c #BF6C23",
"K.	c #A26223",
"L.	c #F9B754",
"M.	c #3A2313",
"N.	c #F9AD44",
"O.	c #C19F82",
"P.	c #D8BA97",
"Q.	c #D67E2E",
"R.	c #AA612A",
"S.	c #BD8A5E",
"T.	c #E79034",
"U.	c #B26427",
"V.	c #BB6B29",
"W.	c #B37426",
"X.	c #AE6834",
"Y.	c #C58E5E",
"Z.	c #D27C29",
"`.	c #D27D2F",
" +	c #DD8837",
".+	c #C1BDB9",
"++	c #A45B24",
"@+	c #DBB387",
"#+	c #8F4C1B",
"$+	c #9F551B",
"%+	c #B56322",
"&+	c #B96B2C",
"*+	c #A25E2D",
"=+	c #F8AD49",
"-+	c #914D18",
";+	c #A76231",
">+	c #AF642A",
",+	c #A85F29",
"'+	c #A05720",
")+	c #A35C27",
"!+	c #E88F32",
"~+	c #CF7727",
"{+	c #D07A2D",
"]+	c #A45F2B",
"^+	c #E08E40",
"/+	c #BE6D24",
"(+	c #AB642E",
"_+	c #C37B40",
":+	c #EFAD59",
"<+	c #483A1A",
"[+	c #BAB1AA",
"}+	c #412716",
"|+	c #C7C6C6",
"1+	c #CDC7C1",
"2+	c #86521C",
"3+	c #E19648",
"4+	c #A67027",
"5+	c #EB9840",
"6+	c #874616",
"7+	c #AF5F1F",
"8+	c #908F8E",
"9+	c #9A5F30",
"0+	c #F2A84B",
"a+	c #9D5723",
"b+	c #874718",
"c+	c #B66D22",
"d+	c #A75C22",
"e+	c #3F3B20",
"f+	c #FFC856",
"g+	c #C3A793",
"h+	c #CEBB99",
"i+	c #D8893F",
"j+	c #B8B6B5",
"k+	c #D18945",
"l+	c #D88741",
"m+	c #918379",
"n+	c #844F28",
"o+	c #F69A40",
"p+	c #E5BB81",
"q+	c #8B4C1F",
"r+	c #B36420",
"s+	c #CE8141",
"t+	c #B86727",
"u+	c #D37B29",
"v+	c #D47A2C",
"w+	c #989492",
"x+	c #D07F39",
"y+	c #BA6C2C",
"z+	c #6C401F",
"A+	c #E49E53",
"B+	c #AB6C23",
"C+	c #A05A28",
"D+	c #C3B5AA",
"E+	c #1C2013",
"F+	c #3E1E09",
"G+	c #B2723E",
"                                                                                                ",
"                                                                                                ",
"                                                                                                ",
"                                                                                                ",
"                                  1+2.,.] ' Y.Y.S.S.S.O.@ D+1+                                  ",
"                            h P.' k+`.k ! & ! ! & ! ! B 7+H.D > <.`                             ",
"                        2.7. +i.i.k ! & & ! k ! k ~+~+k ! ! |.P '._.{ .+                        ",
"                    . z.) * Z...k ! ! /+J.! & /+k * u+i.i...k & J.x # Q { |+                    ",
"                g p+^.T.n.n...! & J.t.t.t.K.(.;.<+y.~+u+i.i.u+! |.t.a -+/ t w+                  ",
"              h p.l U !+n.n...! /+|.r+B K.;.(.;.e+E+2+k u+Z.M ! t./+7+-+$ 8.Y 3                 ",
"            h c - l l T.T.n.Z.% ! t.r+P W._.9 9 9 ;.4+~+i...M ! & r+$+G.( 8.s Y A               ",
"          T 0.C.- - y U T.n.* i.% ! /+t.r+c+P W.B+|.& k k ! & u.t.7+}.-+$ 8.z n n {             ",
"          0 @.@.@.C.y y F T.) n.* Z...! ! J./+/+& ! & & & ! & B 7+x +.-+6+( 8.z n n G           ",
"        P.@.d.].J N.N.y y ^.T.T.n.f * * Z.M ~+k % k ! ! & & E.l.P +.}.-+6+( / j n s z+.+        ",
"      T J B.B.u J q.=+C.C.y p F F i T.f * Q.{+M k 5 & & u.|.B P a a }.# G.$ / j s s 8.~.        ",
"      p+d.B.f+u u J L.x.x.0+y 0+5+5+i  + +f Q.`.M ! f.! u.l.P 7+x +.# r.6+$ Q / / j / Q <.      ",
"    h q.B.u f+f+4 u 1 L.L.x.m 0+p p F i ~ f * w.{+5 f.J.E.B P a a $+-+e.6+( Q Q Q / / $ D       ",
"    r d.B.u j.j.f+4 4 4 1 0.c 0+m z.p i ^+S f w.{+k f.u.E.%+7++ x $+# r.b+7 ( 7 ( $ ( $ _ 1+    ",
"  g p.d.B.u f+j.j.o o O 1 0.w c w q c.< < ^+f ; M % f.V.E.l.7+d+x +.'.# e.b+7 $ 7 b+$ r.-+g+g   ",
"  . x.d.u f+j.j.o o o 4 O O K 0.c /.q c.< ~ Z a.{+W f.g.E.9.+ a x +.>.# #+e.7 7 e.e.#+# $+> <.  ",
"  r - d.].u 4 4 4 o o o o K K O :+/.q 3+:.d w., , , g.f.I.9.3.3.3.'+>.'.#+e.{.q+q+R R '.>.G+O.  ",
"  p+- @.].J J 4 4 1 O 1 0.O O K :+/.c.:.^+i+= a., a.f.V.t+s.+ d+3.'+6.5.'._ _ _ R 1.1.6.x D.'   ",
"  0 - N.q.].1 1 1 L.1 O 0.:+0.:+:+z.q 3+3+^+= , a.W f.V.I.U.+ 3.3.$.V 6.6._ 1.[.a+V )++ | V.'   ",
"  p.l - N.q.q.L.L.w L.0.0.O :+z.A+3+o.:.d = x+, a.5 g.m.U.9.+ + #.++a+[.1.[.A.A.[.,+ .,+I.5 '   ",
"  7.l - C.C.x.=+m w K K w /.:+z.o.3+d d d x+= a.W X &+I.9.| v.#.#.$.V H H [.H H ]+R.>+U.g.M '   ",
"  7.^.l - y =+0+m w w c /.c /.o.:.:.i+L = x+, W X g.&.U.| | #.#.,+)+C+H 4.%.v (+H.H.H.X a.w.'   ",
"  7.U l l l l y p 0+0+q q /.c.o.3+^+i+= x+; W X &.t+N >+v.+ R.++)+,+C+H %.v %.(+H.H.b.a.;  +]   ",
"  @+!+U ^.l ^.F F p p p < z.o.^+d i+= = x+a.5 g.&.U.U.| ,+| R.V  . .H v v [ [ *.D.b.).x+w.:.,.  ",
"  2.S !+T.U ^.i S i i S < :.^+:.Z = x+, a., X X &.&.9.v.v.R.,+)+]+H 4.4.v [ *.e b.).s+w.~ !.h+  ",
"  h !.n.) !+F T.T. + + +~ ~ ; Z Z x+W a.W W y+N N U.v.+ #.R.,+(+%.%.4.;+X.*.*.e _+} = Z S @+h   ",
"    ] Q.n.) ) S ) f `.; f f , , , , , X X V.N &+U.9.v.,+++,+,+4.4.]+H ;+v *.e h.s+s+l+~ i .     ",
"    2.% u+* * * f Q.`.`.; ; M W a.X g.y+y+m.N v.| + | )+)+H 4.H %.;+v v *.h._+} s+l+d ^+A+g     ",
"    g _+~+..M ..Q.`.M 5 % 5 a.5 5 g.m.I.9.| + V #.d+V V V H ]+4.*+;+[ [ h._+} L L l+^+i 0       ",
"      O.& ! ! k M M M 5 ! V.V.u.u.f.U.s.s.+ ++$.>.V V a+[.%.C+;+v [ [ e h._+} L L d i 5+.       ",
"      h e |.t.J.! f.& u.t+l.s.| s.| + x $.$.'+>._ 6. .1.1.H *+%.v X.*.e h.} L L l+^+F 0         ",
"        @ 7+7+7+B B B t.B s.a x d++.>.>.'.'.'.R '.6.5.1.1.1.H %.;+[ b.e h.} s+= ~ i c.1+        ",
"        g D a x a a a a %+a x +.>.R '.'.'.R #+# _ #+{.1.1.1.[.C+*+(+*.b.h.).x+Z ~ o+O.          ",
"          j+H # }.$+}.+.a +.+.$+R R # # -+G.e.{.k.{.{.{._ 1._ A.H X.[ D.b.).x+Z F ' g           ",
"            G G.G.G.G.r.}.}.-+}.R -+r.b+e.#+b+7 7 7 b+q+_ _ _ A.H %.(+&+b., w.S 3+.+            ",
"          g   m+$ ( ( $ 7 6+( $ 6+6+7 $ $ ( $ 7 ( 7 k._ k.q+_ _ C+)+>+m.W ,  +d <.  g           ",
"          g ` =.3 / / 8.Q Q 8./ / 8.8./ / / Q Q Q $ $ k.7 k._ a+1. .v.&+W f Z : ` `             ",
"          g g |+.+3 j s z z j s 8.j j j 8./ / / / ( $ ( 7 q+q+R 6.v.N g.v+_+^ |+=.g             ",
"            g ` 8 j+I t Y n n n n n s s j j j 8./ / Q ( 7 7 R R '++ E.k D : 2 8 ` g             ",
"            g g |+2 E w+6 M.-.Y Y n n n z s z z j 8./ Q ( r.r.'.x %+v { : C .+=.g               ",
"              g ` |+j+E : I b M.F+Y Y Y n n s z s s 8.Q Q r.}.$+9+{ F.: C 2 =.g g               ",
"                g ` |+2 E : ^ I 6 t }+-.-.n n j j 8./ ( 7 n+A { 8+^ : j+2 =.g g                 ",
"                  g ` |+8 C E : ^ F.I 3 6 b b b b b A 3 3 8+w+: : E 2 8 =.g g                   ",
"                    g g ` |+2 C E E ^ : ^ ^ ^ ^ ^ ^ ^ ^ : : E C j+8 =.` g g                     "};
