/* XPM */
static char * ball_red_xpm[] = {
"32 32 721 2",
"-- c #BEBEBE",
"-= c #AFAFAE",
"-* c #A8A7A7",
"-& c #9A9998",
"-% c #928F8D",
"-$ c #8C8581",
"-# c #86827F",
"-@ c #8D8987",
"-+ c #949392",
"=Z c #A5A5A5",
"=Y c #ABABAB",
"=X c #BAB9B9",
"=W c #C6C6C6",
"=V c #CECECE",
"=U c #C4C4C4",
"=T c #A4A4A4",
"=S c #94908C",
"=R c #86786E",
"=Q c #855F42",
"=P c #7D5233",
"=O c #704526",
"=N c #653E22",
"=M c #613C21",
"=L c #5B3820",
"=K c #533825",
"=J c #584335",
"=I c #6B5E56",
"=H c #868382",
"=G c #A3A3A3",
"=F c #B0B0B0",
"=E c #C2C2C2",
"=D c #CCCCCC",
"=C c #C1C1C0",
"=B c #B1B1B1",
"=A c #9A8E86",
"=z c #97765C",
"=y c #9D5A25",
"=x c #97501A",
"=w c #874617",
"=v c #783F15",
"=u c #6D3711",
"=t c #663410",
"=s c #62320F",
"=r c #60300E",
"=q c #5A2D0D",
"=p c #552A0C",
"=o c #4F270B",
"=n c #42230E",
"=m c #5C4C41",
"=l c #827D7A",
"=k c #AAA9A8",
"=j c #BEBDBD",
"=i c #CFCFCF",
"=h c #B6B5B4",
"=g c #A48F7E",
"=f c #B37036",
"=e c #AF6124",
"=d c #9D551E",
"=c c #934E1B",
"=b c #844517",
"=a c #703912",
"=0 c #683510",
"=9 c #67340F",
"=8 c #65330F",
"=7 c #61310F",
"=6 c #5A2C0C",
"=5 c #582B0C",
"=4 c #53290D",
"=3 c #55331C",
"=2 c #756A62",
"=1 c #ACABAA",
"=| c #C7C7C7",
"=} c #D0D0D0",
"=[ c #C0BFBF",
"=< c #B98C65",
"=: c #CD7A32",
"=_ c #B8692A",
"=( c #AC6128",
"=/ c #995421",
"=^ c #914F1F",
"=] c #87491C",
"={ c #814417",
"=~ c #804215",
"=! c #773E14",
"=) c #733B13",
"=' c #6E3811",
"=, c #6B3610",
"=> c #6C3710",
"=; c #6B3611",
"=- c #6A3610",
"== c #693611",
"=* c #693510",
"=& c #73523A",
"=% c #B3AFAC",
"=$ c #CDCCCC",
"=# c #C4C0BD",
"=@ c #C59F7C",
"=+ c #D88436",
"*Z c #C87731",
"*Y c #B3672A",
"*X c #A75E28",
"*W c #894A1D",
"*V c #8D4D1E",
"*U c #7F4114",
"*T c #7B3F14",
"*S c #804316",
"*R c #7A3F14",
"*Q c #793F14",
"*P c #8B6A53",
"*O c #B4AEAA",
"*N c #CFA77F",
"*M c #E08E3D",
"*L c #D07D35",
"*K c #C17334",
"*J c #B4692F",
"*I c #A9632F",
"*H c #A05B29",
"*G c #975424",
"*F c #8E4E1F",
"*E c #88481A",
"*D c #854619",
"*C c #864719",
"*B c #8B4919",
"*A c #8B4918",
"*z c #934E1A",
"*y c #99521B",
"*x c #98511A",
"*w c #9D541B",
"*v c #924D19",
"*u c #914C18",
"*t c #8F4B18",
"*s c #9B6E4E",
"*r c #B8B6B5",
"*q c #C6AF9C",
"*p c #E69547",
"*o c #DC883A",
"*n c #CD7D39",
"*m c #C2763A",
"*l c #B86E34",
"*k c #AE6732",
"*j c #A15C2A",
"*i c #985524",
"*h c #955323",
"*g c #8D4C1D",
"*f c #8F4E1E",
"*e c #8F4C1B",
"*d c #904C1A",
"*c c #96501B",
"*b c #97501C",
"*a c #97511D",
"*0 c #9E551C",
"*9 c #A4591D",
"*8 c #A6591D",
"*7 c #A5591C",
"*6 c #A45920",
"*5 c #B39A88",
"*4 c #D6C1A7",
"*3 c #E2A765",
"*2 c #E08D3D",
"*1 c #D5843D",
"*| c #CD8041",
"*} c #C3783E",
"*[ c #B97139",
"*< c #B26B35",
"*: c #A35D2B",
"*_ c #9B5725",
"*( c #995625",
"*/ c #9C5622",
"*^ c #98531F",
"*] c #99521D",
"*{ c #9B531E",
"*~ c #9D541E",
"*! c #A1571E",
"*) c #A65B20",
"*' c #A75C20",
"*, c #AD5F20",
"*> c #BB6922",
"*; c #BB6823",
"*- c #B96722",
"*= c #B36220",
"** c #B3713B",
"*& c #C1A994",
"*% c #DFB88C",
"*$ c #E79743",
"*# c #D38441",
"*@ c #C97E40",
"*+ c #C1773E",
"&Z c #B66F39",
"&Y c #B06935",
"&X c #A86331",
"&W c #A25D2B",
"&V c #A15C29",
"&U c #9B5624",
"&T c #A15925",
"&S c #9C5520",
"&R c #A15720",
"&Q c #A55A22",
"&P c #AB5E21",
"&O c #AE6024",
"&N c #B96826",
"&M c #B76624",
"&L c #B76826",
"&K c #BE6B26",
"&J c #C47029",
"&I c #C97429",
"&H c #C97327",
"&G c #C36E24",
"&F c #C06E26",
"&E c #C49974",
"&D c #E6A35A",
"&C c #E08E3F",
"&B c #D58541",
"&A c #C57B40",
"&z c #BE753C",
"&y c #A96432",
"&x c #A45E2C",
"&w c #A15B27",
"&v c #A15A25",
"&u c #A55B23",
"&t c #A75D23",
"&s c #A75D25",
"&r c #B46627",
"&q c #C06E2B",
"&p c #C5722D",
"&o c #C9762E",
"&n c #CB772D",
"&m c #CB762C",
"&l c #D17B2D",
"&k c #D67E2D",
"&j c #D27B2A",
"&i c #D27A29",
"&h c #C97833",
"&g c #D2CBC3",
"&f c #D5CBC0",
"&e c #E29241",
"&d c #DA893F",
"&c c #D08241",
"&b c #C67B3F",
"&a c #B16A35",
"&0 c #A6612F",
"&9 c #A45F2C",
"&8 c #A6602D",
"&7 c #A75F2B",
"&6 c #AD6025",
"&5 c #AF6125",
"&4 c #B4672A",
"&3 c #B76829",
"&2 c #BC6C2C",
"&1 c #C3722E",
"&| c #C87631",
"&} c #CA7832",
"&[ c #CF7B31",
"&< c #D78133",
"&: c #D17D30",
"&_ c #D68030",
"&( c #DF8834",
"&/ c #E08832",
"&^ c #DE862F",
"&] c #D57D2C",
"&{ c #D6AD86",
"&~ c #D2C7B6",
"&! c #D6B38B",
"&) c #DD8939",
"&' c #D3823B",
"&, c #C67A3E",
"&> c #BB733B",
"&; c #B46C37",
"&- c #AE6834",
"&= c #A7612F",
"&* c #A55F2C",
"&& c #A5602C",
"&% c #A85F29",
"&$ c #A95F28",
"&# c #A95E25",
"&@ c #B06227",
"&+ c #B56628",
"%Z c #B8692B",
"%Y c #C3722F",
"%X c #C77530",
"%W c #C87732",
"%V c #D38239",
"%U c #DB883C",
"%T c #D88539",
"%S c #DE8D3E",
"%R c #DF8A38",
"%Q c #DF8B38",
"%P c #E58F36",
"%O c #E99339",
"%N c #E78F33",
"%M c #E38A31",
"%L c #D8A571",
"%K c #D4C9BB",
"%J c #D5B28C",
"%I c #D99D5F",
"%H c #D58236",
"%G c #CC7D3B",
"%F c #BE7135",
"%E c #B76E37",
"%D c #B16A36",
"%C c #AC6633",
"%B c #A7612E",
"%A c #A45D29",
"%z c #A35C27",
"%y c #A65E28",
"%x c #AA6026",
"%w c #AB6026",
"%v c #B26426",
"%u c #B76729",
"%t c #BF6D2B",
"%s c #C7752F",
"%r c #CE7D37",
"%q c #D08039",
"%p c #D7873E",
"%o c #DE8D40",
"%n c #E49949",
"%m c #E49847",
"%l c #E99740",
"%k c #E99840",
"%j c #E7923A",
"%i c #EB973B",
"%h c #EE9838",
"%g c #EB9336",
"%f c #E19B53",
"%e c #D9B792",
"%d c #D3A070",
"%c c #D78E49",
"%b c #CA7831",
"%a c #BC6E31",
"%0 c #AF662E",
"%9 c #AC642E",
"%8 c #A7622F",
"%7 c #A6612E",
"%6 c #A45C28",
"%5 c #A45C26",
"%4 c #A75E27",
"%3 c #AA5E24",
"%2 c #AE6228",
"%1 c #B76728",
"%| c #BA692A",
"%} c #C2712F",
"%[ c #CD7B33",
"%< c #D1803A",
"%: c #D6863E",
"%_ c #DF9042",
"%( c #E39849",
"%/ c #ECA34F",
"%^ c #EDA650",
"%] c #EFA74F",
"%{ c #F3AB4E",
"%~ c #EFA246",
"%! c #F2A241",
"%) c #F19E3C",
"%' c #F19D3A",
"%, c #E99C48",
"%> c #CE8440",
"%; c #BD6C2B",
"%- c #B1652A",
"%= c #AA622B",
"%* c #A55F2B",
"%& c #A35D2A",
"%% c #A25C29",
"%$ c #A15B28",
"%# c #A15924",
"%@ c #A65C25",
"%+ c #A95E26",
"$Z c #AC6024",
"$Y c #BA6B2B",
"$X c #C1702E",
"$W c #CA7833",
"$V c #D07F38",
"$U c #D8883F",
"$T c #DA8A40",
"$S c #E19547",
"$R c #E79E4D",
"$Q c #EEAA55",
"$P c #F1AC53",
"$O c #F4B257",
"$N c #F5B155",
"$M c #F4AB4C",
"$L c #F6AE4B",
"$K c #F5A743",
"$J c #F5A33E",
"$I c #EC9F4A",
"$H c #E4A96A",
"$G c #C57D3E",
"$F c #AE6125",
"$E c #A55D27",
"$D c #A25B26",
"$C c #9D5827",
"$B c #9B5726",
"$A c #9A5624",
"$z c #9D5724",
"$y c #A15923",
"$x c #A65B23",
"$w c #B16326",
"$v c #B56728",
"$u c #C06E2A",
"$t c #C7742F",
"$s c #CD7C35",
"$r c #D4843B",
"$q c #DE9043",
"$p c #E49A49",
"$o c #E59D4E",
"$n c #EBA654",
"$m c #F2B35B",
"$l c #F7B95C",
"$k c #F7B454",
"$j c #F9B856",
"$i c #F9B652",
"$h c #FAB349",
"$g c #F8AA41",
"$f c #F0A54B",
"$e c #EBB36D",
"$d c #CE9866",
"$c c #C07A41",
"$b c #A45A20",
"$a c #9D5824",
"$0 c #9A5523",
"$9 c #975321",
"$8 c #955222",
"$7 c #98521F",
"$6 c #9B5521",
"$5 c #9F5721",
"$4 c #A55A21",
"$3 c #A85C22",
"$2 c #B26324",
"$1 c #B96928",
"$| c #C3702B",
"$} c #C97731",
"$[ c #CC7A34",
"$< c #D7873D",
"$: c #E09143",
"$_ c #E69A49",
"$( c #EDA954",
"$/ c #F1B059",
"$^ c #F5BA5F",
"$] c #F5B85E",
"${ c #F8BC5D",
"$~ c #F8BB5A",
"$! c #FBC05B",
"$) c #FABD56",
"$' c #FBBA4E",
"$, c #FBB346",
"$> c #F1AB52",
"$; c #E6B97D",
"$- c #BEA38D",
"$= c #B58761",
"$* c #9B531C",
"$& c #944F1C",
"$% c #8E4C1C",
"$$ c #894A1C",
"$# c #89491B",
"$@ c #8D4A1A",
"$+ c #99521C",
"#Z c #9F561E",
"#Y c #A55A20",
"#X c #A65A21",
"#W c #B26325",
"#V c #BC6A28",
"#U c #C2702C",
"#T c #CC7931",
"#S c #CE7B33",
"#R c #DA883C",
"#Q c #E19445",
"#P c #E99F4C",
"#O c #EEA954",
"#N c #F4B65D",
"#M c #F5B559",
"#L c #F8C060",
"#K c #FCC762",
"#J c #FCC55D",
"#I c #FCC55B",
"#H c #FEC252",
"#G c #FDBB49",
"#F c #EEB263",
"#E c #DDC4A4",
"#D c #C8C5C2",
"#C c #C0A999",
"#B c #894718",
"#A c #864618",
"#z c #824417",
"#y c #844518",
"#x c #894819",
"#w c #954F1B",
"#v c #9E551D",
"#u c #A55A1E",
"#t c #AB5D20",
"#s c #B56523",
"#r c #BB6A27",
"#q c #C3702A",
"#p c #CC762B",
"#o c #D27E33",
"#n c #DD8A3B",
"#m c #E39544",
"#l c #E89C49",
"#k c #EFA851",
"#j c #F3B056",
"#i c #F5B458",
"#h c #F7BB5D",
"#g c #F9C260",
"#f c #FCC964",
"#e c #FDC95D",
"#d c #FEC858",
"#c c #FEC352",
"#b c #FEBC49",
"#a c #E6BB82",
"#0 c #D3CEC8",
"#9 c #915427",
"#8 c #7C4014",
"#7 c #7C4015",
"#6 c #7E4216",
"#5 c #7D4115",
"#4 c #854517",
"#3 c #9A521A",
"#2 c #A75A1F",
"#1 c #AD5E1F",
"#| c #B76523",
"#} c #BC6924",
"#[ c #C36F28",
"#< c #CD772B",
"#: c #D68133",
"#_ c #DD8735",
"#( c #E18E3D",
"#/ c #E9963E",
"#^ c #EDA34C",
"#] c #F1A74A",
"#{ c #F3B054",
"#~ c #F8B958",
"#! c #FBBF5A",
"#) c #FCC259",
"#' c #FEC758",
"#, c #FEC859",
"#> c #FEC251",
"#; c #FDBA49",
"#- c #DCC6A8",
"#= c #9F7B61",
"#* c #753C13",
"#& c #6F3811",
"#% c #743C13",
"#$ c #7A4015",
"## c #844415",
"#@ c #8E4A18",
"#+ c #9B531B",
"@Z c #A85B1E",
"@Y c #AF601E",
"@X c #B86623",
"@W c #C06C24",
"@V c #C26E28",
"@U c #CB7529",
"@T c #D47E2F",
"@S c #D98231",
"@R c #DD8938",
"@Q c #E48F3A",
"@P c #EB9941",
"@O c #EFA347",
"@N c #F2A748",
"@M c #F5B04E",
"@L c #F7B552",
"@K c #FBBC53",
"@J c #FDC355",
"@I c #FEC655",
"@H c #FEBF4C",
"@G c #F2B962",
"@F c #A18877",
"@E c #7E5436",
"@D c #63320F",
"@C c #66330F",
"@B c #773D13",
"@A c #864616",
"@z c #944F19",
"@y c #A2571C",
"@x c #AD5F1E",
"@w c #B66522",
"@v c #C16D24",
"@u c #C37026",
"@t c #C87328",
"@s c #CD7729",
"@r c #D17A2C",
"@q c #D8812E",
"@p c #E08831",
"@o c #E28D38",
"@n c #E79138",
"@m c #EC9A3E",
"@l c #F3A442",
"@k c #F5A845",
"@j c #F9AF48",
"@i c #FBBC51",
"@h c #FDBF4C",
"@g c #F8BB54",
"@f c #E1C8A0",
"@e c #C1BDB9",
"@d c #978171",
"@c c #5D2E0D",
"@b c #61310E",
"@a c #743B12",
"@0 c #834415",
"@9 c #954F19",
"@8 c #A1571D",
"@7 c #B16120",
"@6 c #BC6923",
"@5 c #C16E24",
"@4 c #C26F24",
"@3 c #D17A29",
"@2 c #D7802D",
"@1 c #E68E34",
"@| c #EB963B",
"@} c #F2A342",
"@[ c #F6A844",
"@< c #FBB547",
"@: c #FCB445",
"@_ c #ECB46B",
"@( c #D8BA97",
"@/ c #775E4B",
"@^ c #5C3114",
"@] c #66340F",
"@{ c #934E18",
"@~ c #A95C1D",
"@! c #BE6B23",
"@) c #C36F25",
"@' c #CA7426",
"@, c #CC7526",
"@> c #AE6A24",
"@; c #936123",
"@- c #936224",
"@= c #9E6223",
"@* c #B46821",
"@& c #B96822",
"@% c #C46F25",
"@$ c #CD7829",
"@# c #DA822D",
"@@ c #E48D32",
"@+ c #EC9738",
"+Z c #F3A13D",
"+Y c #F6A641",
"+X c #EEB86E",
"+W c #D7D2CA",
"+V c #776152",
"+U c #6E5B4D",
"+T c #5F300E",
"+S c #793E14",
"+R c #975119",
"+Q c #B46521",
"+P c #C06C23",
"+O c #CA7428",
"+N c #D27B28",
"+M c #CE7727",
"+L c #714D1D",
"+K c #403B1F",
"+J c #62562A",
"+I c #6C592B",
"+H c #AC6623",
"+G c #B36420",
"+F c #C47025",
"+E c #D57E2A",
"+D c #E18930",
"+C c #E99134",
"+B c #EF9A39",
"+A c #EAB571",
"+z c #DAC7AE",
"+y c #89807B",
"+x c #78563E",
"+w c #914D18",
"+v c #AE5F1F",
"+u c #BD6B22",
"+t c #D37C29",
"+s c #C06F25",
"+r c #82521F",
"+q c #85612A",
"+p c #A36727",
"+o c #BC6A22",
"+n c #BE6B22",
"+m c #C26E24",
"+l c #C77225",
"+k c #D57D2A",
"+j c #E0872F",
"+i c #E79D4A",
"+h c #E5B374",
"+g c #D1D1D1",
"+f c #C7C6C6",
"+e c #9B9088",
"+d c #9E8471",
"+c c #8C5E33",
"+b c #AB5E1F",
"+a c #BB6A22",
"+0 c #C97326",
"+9 c #CC7627",
"+8 c #D17928",
"+7 c #CD7627",
"+6 c #C47024",
"+5 c #C57025",
"+4 c #C06D23",
"+3 c #C36F24",
"+2 c #CB7526",
"+1 c #D27B29",
"+| c #DB8C3E",
"+} c #DCA772",
"+[ c #E5B174",
"+< c #D7C9B8",
"+: c #CDCDCD",
"+_ c #B4A090",
"+( c #B08C70",
"+/ c #B47C51",
"+^ c #B77742",
"+] c #C27838",
"+{ c #C07737",
"+~ c #C57A38",
"+! c #C57B39",
"+) c #CC8342",
"+' c #D18F51",
"+, c #CF9C6C",
"+> c #D4AE86",
"+; c #D4CEC5",
"+- c #BEAEA1",
"+= c #BC9F86",
"+* c #BD8A5E",
"+& c #C58E5E",
"+% c #CB9463",
"+$ c #D7A87B",
"+# c #D7B99C",
"+@ c #CDC7C1",
"++ c None",
"++++++++++++++++++++++++++++++++++++++++++++++++++++++++++++++++",
"++++++++++++++++++++++++++++++++++++++++++++++++++++++++++++++++",
"+++++++++++++++++++++++@+#+$+%+&+*+*+=+-+@++++++++++++++++++++++",
"+++++++++++++++++++;+>+,+'+)+!+~+{+]+^+/+(+_+:++++++++++++++++++",
"+++++++++++++<+[+}+|+1+2+3+4+5+6+7+8+9+0+a+b+c+d+e+f++++++++++++",
"+++++++++++g+h+i+j+k+l+m+n+o+p+q+r+s+t+t+2+u+v+w+x+y++++++++++++",
"+++++++++z+A+B+C+D+E+F+o+G+H+I+J+K+L+M+N+O+P+Q+R+S+T+U+V++++++++",
"+++++++W+X+Y+Z@+@@@#@$@%@&@*@=@-@;@>@,@'@)@!@~@{+S@]@^@/++++++++",
"++++@(@_@:@<@[@}@|@1+j@2@3@'@)@4+F+3@5+m@6@7@8@9@0@a@b@c@d@e++++",
"++++@f@g@h@i@j@k@l@m@n@o@p@q@r@s@t@u@v+o@w@x@y@z@A@B@C@D@E@F++++",
"+++;@G@H@I@J@K@L@M@N@O@P@Q@R@S@T@U@V@W@X@Y@Z#+#@###$#%#&#*#=++++",
"++#-#;#>#,#'#)#!#~#{#]#^#/#(#_#:#<#[#}#|#1#2#3#@#4#5#6#7#8#9+@++",
"#0#a#b#c#d#e#f#g#h#i#j#k#l#m#n#o#p#q#r#s#t#u#v#w#x#y#z#A#B@{#C#D",
"#E#F#G#H#I#J#f#K#L#M#N#O#P#Q#R#S#T#U#V#W#X#Y#Z$+$@$#$$$%$&$*$=$-",
"$;$>$,$'$)$!$~${$]$^$/$($_$:$<$[$}$|$1$2$3$4$5$6$7$8$9$0$a$b$c$d",
"$e$f$g$h$i$j$k$l$]$m$n$o$p$q$r$s$t$u$v$w$3$x$y$z$A$B$C$D$E$F$G$d",
"$H$I$J$K$L$M$N$O$P$Q$R$S$T$U$V$W$X$Y#W$Z%+%@%#%$%%%&%*%=%-%;%>$d",
"$H%,%'%)%!%~%{%]%^%/%(%_%:%<%[%}%|%1%2%3%4%5%6%$%7%8%9%0%a%b%c%d",
"%e%f%g%h%i%j%k%l%m%n%o%p%q%r%s%t%u%v%w%x%y%z%A%B%C%D%E%F%G%H%I%J",
"%K%L%M%N%O%P%Q%R%S%T%U%V%W%X%Y%Z&+&@&#&$&%&&&*&=&-&;&>&,&'&)&!&~",
"++&{&]&^&/&(&_&:&<&[&}&|&1&2&3&4&5&6$E$E&7&8&9&0&a&>&b&c&d&e&f++",
"++&g&h&i&j&k&l&m&n&o&p&q&3&r$F&s&t&u&v&w&*&x&y&-&z&A&c&B&C&D+g++",
"++++&E&F&G&H&I&J&K&L&M&N&O&P&Q&R&S&T&U&V&W&X&Y&Z*+*@*#$T*$*%++++",
"++++*&***=*-*;*>#s*,*'*)*!*~*{*]*^*/*(*_*:%8*<*[*}*|*1*2*3*4++++",
"+++++g*5*6@y*7*8#1*9*0*a*b*c*d*e*f*g*h*i*_*j*k*l*m*n*o*p*q++++++",
"++++++*r*s*t*u*v*w*x*y*z#@*A*B*C*D*E*F$8*G*H*I*J*K*L*M*N+g++++++",
"+++++++g*O*P*Q*R*S*T#5*U#7#7*T#6#5*D*V*W$8*_*X*Y*Z=+=@=#+g++++++",
"+++++++g=$=%=&=*===-=;=>=,='=)#%=!=~={=]=^=/=(=_=:=<=[+:++++++++",
"++++++++=}=|=1=2=3=4=5=6=7=8=9=0=a#%#5=b=c=d=e=f=g=h=|=i++++++++",
"+++++++++g=$=j=k=l=m=n=o=p=q=r=s=t=u=v=w=x=y=z=A=B=C=i+g++++++++",
"+++++++++++g=D=E=F=G=H=I=J=K=L=M=N=O=P=Q=R=S=T=h=U=i+g++++++++++",
"++++++++++++=}=V=W=X=Y=Z-+-@-#-#-#-$-%-&-*-=--=|=i+g++++++++++++"};
