/* XPM */
static char * ball_red_xpm[] = {
"32 32 434 2",
"%O c #B0ABAA",
"%N c #7C6E6C",
"%M c #9C9291",
"%L c #C4C4C4",
"%K c #77504B",
"%J c #612C25",
"%I c #5F3C37",
"%H c #887D7C",
"%G c #927673",
"%F c #6E3129",
"%E c #590B01",
"%D c #460901",
"%C c #6C5A57",
"%B c #766967",
"%A c #987F7D",
"%z c #71291F",
"%y c #5C0C02",
"%x c #540A01",
"%w c #4E0A01",
"%v c #430801",
"%u c #41120C",
"%t c #5A3F3C",
"%s c #986059",
"%r c #79281D",
"%q c #5B0C01",
"%p c #530A01",
"%o c #520B01",
"%n c #4D0A01",
"%m c #470901",
"%l c #3F0701",
"%k c #370701",
"%j c #5F4845",
"%i c #9F9996",
"%h c #985F57",
"%g c #752116",
"%f c #670D01",
"%e c #5A0C01",
"%d c #550B01",
"%c c #4D0901",
"%b c #4E0B01",
"%a c #480901",
"%0 c #420801",
"%9 c #390701",
"%8 c #360904",
"%7 c #503632",
"%6 c #A7A4A4",
"%5 c #93524A",
"%4 c #772014",
"%3 c #6D0C01",
"%2 c #680D01",
"%1 c #5E0B01",
"%| c #5E0C01",
"%} c #510B01",
"%[ c #4F0B01",
"%< c #4F0C02",
"%: c #450801",
"%_ c #490A01",
"%( c #430901",
"%/ c #3B0801",
"%^ c #4F2E2A",
"%] c #8C8281",
"%{ c #A97872",
"%~ c #7E2216",
"%! c #730E01",
"%) c #6B0C01",
"%' c #6A0C01",
"%, c #6C1002",
"%> c #630D02",
"%; c #610B01",
"%- c #620E02",
"%= c #520A01",
"%* c #540C01",
"%& c #510A01",
"%% c #530B01",
"%$ c #490B02",
"%# c #4C0A01",
"%@ c #470D04",
"%+ c #583834",
"$Z c #BEBDBB",
"$Y c #B39490",
"$X c #853327",
"$W c #770E01",
"$V c #7B0F02",
"$U c #731102",
"$T c #700C01",
"$S c #791203",
"$R c #6E1102",
"$Q c #741102",
"$P c #6E0F02",
"$O c #6C1304",
"$N c #600E03",
"$M c #660F02",
"$L c #5A0C02",
"$K c #550E03",
"$J c #540D02",
"$I c #4D0E03",
"$H c #4B0C02",
"$G c #5D3B36",
"$F c #887978",
"$E c #A2665E",
"$D c #7F1405",
"$C c #790F01",
"$B c #780F01",
"$A c #7A1102",
"$z c #710D01",
"$y c #7A0F01",
"$x c #851002",
"$w c #771504",
"$v c #791003",
"$u c #811303",
"$t c #731103",
"$s c #731303",
"$r c #651104",
"$q c #600F04",
"$p c #610D02",
"$o c #590C02",
"$n c #570D03",
"$m c #521C14",
"$l c #988582",
"$k c #C0ADAA",
"$j c #84190B",
"$i c #7E1002",
"$h c #821102",
"$g c #831303",
"$f c #8A1806",
"$e c #841905",
"$d c #8B1605",
"$c c #931303",
"$b c #941704",
"$a c #921905",
"$0 c #891A07",
"$9 c #88220A",
"$8 c #881403",
"$7 c #911A07",
"$6 c #7E1605",
"$5 c #861505",
"$4 c #6C1404",
"$3 c #6F1203",
"$2 c #5C0F04",
"$1 c #6F3C33",
"$| c #A9736D",
"$} c #831002",
"$[ c #850F02",
"$< c #8B1002",
"$: c #8F1303",
"$_ c #981403",
"$( c #A11804",
"$/ c #91250C",
"$^ c #9D1A06",
"$] c #9C230B",
"${ c #9E1B07",
"$~ c #AF1C07",
"$! c #AA1B07",
"$) c #AD1C08",
"$' c #A7230F",
"$, c #982B12",
"$> c #A11D08",
"$; c #901A07",
"$- c #821907",
"$= c #6D1304",
"$* c #661808",
"$& c #AD9A98",
"$% c #B5938D",
"$$ c #964135",
"$# c #901303",
"$@ c #951303",
"$+ c #9C1D08",
"#Z c #A61A06",
"#Y c #A3290E",
"#X c #A91D07",
"#W c #BD2008",
"#V c #A8290E",
"#U c #B6220B",
"#T c #AF3219",
"#S c #A82911",
"#R c #B7341E",
"#Q c #AB2C16",
"#P c #AD270F",
"#O c #B62712",
"#N c #A9250E",
"#M c #AD1D07",
"#L c #9E1B09",
"#K c #8E1907",
"#J c #9B6960",
"#I c #CABCBA",
"#H c #A96259",
"#G c #972C1F",
"#F c #981504",
"#E c #AA1604",
"#D c #B11A06",
"#C c #BA1E07",
"#B c #B9280E",
"#A c #BD230A",
"#z c #C1220A",
"#y c #C5240A",
"#x c #C7250B",
"#w c #C6230A",
"#v c #C32C13",
"#u c #BF230B",
"#t c #CB260C",
"#s c #C7240B",
"#r c #CC341D",
"#q c #BF2F1A",
"#p c #AF3016",
"#o c #B02711",
"#n c #A8200A",
"#m c #9A1F0B",
"#l c #964434",
"#k c #AF8681",
"#j c #9D2B1C",
"#i c #A71A05",
"#h c #B91A05",
"#g c #BE1E08",
"#f c #B5240C",
"#e c #D13516",
"#d c #D8431E",
"#c c #D43F1B",
"#b c #CF3614",
"#a c #CE3D1B",
"#0 c #C53011",
"#9 c #D42E12",
"#8 c #CA452B",
"#7 c #C64A37",
"#6 c #CA4931",
"#5 c #CA4D35",
"#4 c #C34226",
"#3 c #D22B11",
"#2 c #CD2A0E",
"#1 c #C7290D",
"#| c #BC260C",
"#} c #AC3321",
"#[ c #A95B50",
"#< c #AF6F66",
"#: c #A33224",
"#_ c #A91A07",
"#( c #BA1A06",
"#/ c #B62209",
"#^ c #CB2E10",
"#] c #DB441F",
"#{ c #DE4F27",
"#~ c #D54A22",
"#! c #C53715",
"#) c #DA3D1A",
"#' c #DA381A",
"#, c #DE5E46",
"#> c #E47C68",
"#; c #DF725F",
"#- c #E26752",
"#= c #D4563D",
"#* c #C63B1F",
"#& c #CA3619",
"#% c #D32E10",
"#$ c #BD2F11",
"## c #B43B25",
"#@ c #B86255",
"#+ c #C6AFAE",
"@Z c #AE584C",
"@Y c #B31A06",
"@X c #B71C07",
"@W c #C4230B",
"@V c #CF280C",
"@U c #CF3A17",
"@T c #C93D19",
"@S c #E05228",
"@R c #E3562B",
"@Q c #DF4F26",
"@P c #D23F1A",
"@O c #D74423",
"@N c #D65E44",
"@M c #F4B0A5",
"@L c #DD7B66",
"@K c #DF6A56",
"@J c #DF5A41",
"@I c #DA391A",
"@H c #CF3C18",
"@G c #DA3311",
"@F c #DA2E0E",
"@E c #C1523B",
"@D c #CC9488",
"@C c #BC938E",
"@B c #AF1B07",
"@A c #BC1B06",
"@z c #C62008",
"@y c #CB280C",
"@x c #D33D19",
"@w c #DE4D25",
"@v c #E75C2F",
"@u c #D74922",
"@t c #DC4B24",
"@s c #DB4923",
"@r c #E46449",
"@q c #E88977",
"@p c #EA8E7C",
"@o c #EF9C8D",
"@n c #DD6345",
"@m c #CD5333",
"@l c #DA3417",
"@k c #DC3614",
"@j c #D83D16",
"@i c #DC3110",
"@h c #CD6B58",
"@g c #CFB2AC",
"@f c #BB675D",
"@e c #B4200B",
"@d c #BA1C07",
"@c c #CA2409",
"@b c #DA2D0E",
"@a c #DD3B19",
"@0 c #DC4D23",
"@9 c #DF5026",
"@8 c #E24D25",
"@7 c #E44520",
"@6 c #E55839",
"@5 c #E56A52",
"@4 c #E4745A",
"@3 c #EC826F",
"@2 c #CB3B21",
"@1 c #B82A11",
"@| c #CA391B",
"@} c #E23B15",
"@[ c #E53712",
"@< c #DB4B2C",
"@: c #D3B9B5",
"@_ c #CAAAA5",
"@( c #BF4E3D",
"@/ c #AE1804",
"@^ c #B71F07",
"@] c #D1270A",
"@{ c #D33311",
"@~ c #DD3A16",
"@! c #DA3C19",
"@) c #D43413",
"@' c #D53B17",
"@, c #E24825",
"@> c #E85D3D",
"@; c #E66B50",
"@- c #D5563C",
"@= c #A23017",
"@* c #9C220F",
"@& c #D63010",
"@% c #E63512",
"@$ c #E34521",
"@# c #D5988A",
"@@ c #BAC1B4",
"@+ c #ABA997",
"+Z c #AD3F2C",
"+Y c #AE1504",
"+X c #B91B06",
"+W c #CD250A",
"+V c #D92B0D",
"+U c #D62B0C",
"+T c #A9532C",
"+S c #AC5835",
"+R c #DF2D0D",
"+Q c #E54D27",
"+P c #D03B20",
"+O c #A7210D",
"+N c #730D01",
"+M c #862811",
"+L c #B26E41",
"+K c #C55D39",
"+J c #DA9282",
"+I c #D2C9C8",
"+H c #BFC5BB",
"+G c #A8B29C",
"+F c #85865B",
"+E c #94522F",
"+D c #9F1807",
"+C c #A70F02",
"+B c #AE1705",
"+A c #B61B06",
"+z c #8C6E44",
"+y c #8EA773",
"+x c #B83919",
"+w c #CC2E0E",
"+v c #A11F0A",
"+u c #7C200D",
"+t c #735534",
"+s c #899464",
"+r c #949D6B",
"+q c #B49377",
"+p c #CBC4C2",
"+o c #BBC4B5",
"+n c #99A78A",
"+m c #8BA679",
"+l c #859B6A",
"+k c #7D7750",
"+j c #666945",
"+i c #4F5E37",
"+h c #77915C",
"+g c #738C56",
"+f c #779361",
"+e c #768D59",
"+d c #7D935C",
"+c c #89A66D",
"+b c #97B482",
"+a c #9EB88C",
"+0 c #A8BC9B",
"+9 c #B6C2AE",
"+8 c #C5C9C2",
"+7 c #A2B69B",
"+6 c #BCC5B4",
"+5 c #B3C4AB",
"+4 c #AABBA0",
"+3 c #A3B496",
"+2 c #A7B49A",
"+1 c #657446",
"+| c #8B9F7C",
"+} c #A9BB9C",
"+[ c #AFBEA2",
"+< c #AEBDA1",
"+: c #ADBEA0",
"+_ c #A6BC9A",
"+( c #C5CAC3",
"+/ c #828670",
"+^ c #6A7750",
"+] c #A3B39F",
"+{ c #909580",
"+~ c #697D4A",
"+! c #C3C7BF",
"+) c #B2B0AE",
"+' c #6A7B51",
"+, c #97AA8A",
"+> c #CFCFCE",
"+; c #8D957D",
"+- c #7C8C6A",
"+= c #B6C1B0",
"+* c #8B937C",
"+& c #72865B",
"+% c #B7C4B2",
"+$ c #B4B7AC",
"+# c #A7B39E",
"+@ c #D2D3D1",
"++ c None",
"++++++++++++++++++++++++++++++++++++++++++++++++++++++++++++++++",
"++++++++++++++++++++++++++++++++++++++++++++++++++++++++++++++++",
"+++++++++++++++++++++++++++++++++++@+#+$++++++++++++++++++++++++",
"+++++++++++++++++++++++++++++++++++%+&+*++++++++++++++++++++++++",
"+++++++++++++++++++++++++++++++++=+-+;+>++++++++++++++++++++++++",
"+++++++++++++++++++++++++++++++++,+'+)++++++++++++++++++++++++++",
"+++++++++++++++++++++++++++++++!+~+{++++++++++++++++++++++++++++",
"+++++++++++++++++++++++++++++++]+^+/++++++++++++++++++++++++++++",
"+++++++++++++++++++(+_+:+<+[+}+|+1+2+3+4+5+6+7+8++++++++++++++++",
"+++++++++++++++++9+0+a+b+c+d+e+f+g+h+i+j+k+l+m+n+o++++++++++++++",
"+++++++++++++++p+q+r+s+t+u+v+w+x+y+z+A+B+C+D+E+F+G+H++++++++++++",
"+++++++++++++I+J+K+L+M+N+O+P+Q+R+S+T+U+V+W+X+Y+Z@+@@++++++++++++",
"++++++++++++@#@$@%@&@*@=@-@;@>@,@'@)@!@~@{@]@^@/@(@_++++++++++++",
"++++++++++@:@<@[@}@|@1@2@3@4@5@6@7@8@9@0@a@b@c@d@e@f++++++++++++",
"++++++++@g@h@i@j@k@l@m@n@o@p@q@r@s@t@u@v@w@x@y@z@A@B@C++++++++++",
"++++++++@D@E@F@G@H@I@J@K@L@M@N@O@P@Q@R@S@T@U@V@W@X@Y@Z#+++++++++",
"++++++++#@###$#%#&#*#=#-#;#>#,#'@&#)#!#~#{#]#^#/#(#_#:#<++++++++",
"++++++++#[#}#|#1#2#3#4#5#6#7#8#9#0#a#b#c#d#e#f#g#h#i#j#[++++++++",
"++++++++#k#l#m#n#o#p#q#r#s#t#u#v#w#x#y#z#A#B#C#D#E#F#G#H++++++++",
"++++++++#I#J#K#L#M#N#O#P#Q#R#S#T#U#V#W+A#X#Y#Z$+$@$#$$$%++++++++",
"++++++++++$&$*$=$-$;$>$,$'$)$!$~${$]$^$/$($_$:$<$[$}$|+I++++++++",
"+++++++++++p$1$2$3$4$5$6$7$8$9$0$a$b$c$d$e$f$g$h$i$j$k++++++++++",
"++++++++++++$l$m$n$o$p$q$r$s$t$u$v$w$x$y$z$A$B$C$D$E++++++++++++",
"++++++++++++$F$G$H$I$J$K$L$M$N$O$P$Q$R$S$T$U$V$W$X$Y++++++++++++",
"++++++++++++++$Z%+%@%#%$%%%&%*%=%-%;%>%,%'%)%!%~%{++++++++++++++",
"++++++++++++++++%]%^%/%(%_%:%<%[%&%}%|%1%2%3%4%5++++++++++++++++",
"++++++++++++++++++%6%7%8%9%0%a%b%c%d%e%1%f%g%h++++++++++++++++++",
"++++++++++++++++++++%i%j%k%l%m%n%o%p%q%|%r%s++++++++++++++++++++",
"+++++++++++++++++++++++>%t%u%v%m%w%x%y%z%A++++++++++++++++++++++",
"++++++++++++++++++++++++%B%C%/%D%&%E%F%G++++++++++++++++++++++++",
"++++++++++++++++++++++++++++%H%I%J%K+)++++++++++++++++++++++++++",
"++++++++++++++++++++++++++++%L%M%N%O++++++++++++++++++++++++++++"};
