/* XPM */
static char * ball_red_xpm[] = {
"50 50 793 2",
"-R c #807340",
"-Q c #363325",
"-P c #46433B",
"-O c #857E54",
"-N c #8F844B",
"-M c #948847",
"-L c #817640",
"-K c #3B351F",
"-J c #A0914E",
"-I c #9D8F4B",
"-H c #938747",
"-G c #887C43",
"-F c #7C713C",
"-E c #ADA051",
"-D c #A0934B",
"-C c #928547",
"-B c #897D44",
"-A c #544A2A",
"-z c #615431",
"-y c #675834",
"-x c #6C6041",
"-w c #A89D5C",
"-v c #A89A51",
"-u c #968949",
"-t c #8E8046",
"-s c #8A7C44",
"-r c #867942",
"-q c #6C6239",
"-p c #6C5F38",
"-o c #6D5D37",
"-n c #6E6037",
"-m c #78693B",
"-l c #7E7144",
"-k c #AFA660",
"-j c #AB9E58",
"-i c #A2934E",
"-h c #8D8145",
"-g c #8A7D43",
"-f c #857841",
"-e c #827640",
"-d c #726837",
"-c c #696033",
"-b c #605930",
"-a c #635A31",
"-0 c #665C32",
"-9 c #695F33",
"-8 c #6F6138",
"-7 c #685F35",
"-6 c #71643A",
"-5 c #726539",
"-4 c #726339",
"-3 c #736539",
"-2 c #847647",
"-1 c #877D53",
"-| c #C6B864",
"-} c #B3A75E",
"-[ c #A99A53",
"-< c #9B8C4C",
"-: c #948748",
"-_ c #8E8346",
"-( c #897C43",
"-/ c #82753F",
"-^ c #7E733E",
"-] c #6F6736",
"-{ c #6A6034",
"-~ c #6C6136",
"-! c #6D6137",
"-) c #706338",
"-' c #746838",
"-, c #76693A",
"-> c #786A3B",
"-; c #7C6E3D",
"-- c #7F6F3F",
"-= c #847443",
"-* c #8D7D48",
"-& c #938652",
"-% c #968E67",
"-$ c #B6AB69",
"-# c #B1A358",
"-@ c #A19251",
"-+ c #95894B",
"=Z c #8F8448",
"=Y c #877B43",
"=X c #7E723E",
"=W c #7B6F3C",
"=V c #6E6536",
"=U c #6E6436",
"=T c #796A3C",
"=S c #7B6B3D",
"=R c #807140",
"=Q c #7D703E",
"=P c #807240",
"=O c #857643",
"=N c #8B7A46",
"=M c #8C7A46",
"=L c #8F7D48",
"=K c #96834B",
"=J c #9D8B4F",
"=I c #A29560",
"=H c #BDAE69",
"=G c #B8A75C",
"=F c #A89953",
"=E c #9E8F4F",
"=D c #998B4D",
"=C c #7A6F3B",
"=B c #766B39",
"=A c #706437",
"=z c #847440",
"=y c #847441",
"=x c #897844",
"=w c #897D46",
"=v c #8C7C47",
"=u c #8E7E48",
"=t c #93844B",
"=s c #9B874D",
"=r c #9F8B50",
"=q c #AEA576",
"=p c #BDB05A",
"=o c #B5A762",
"=n c #AD9C57",
"=m c #A59552",
"=l c #9E904F",
"=k c #978A4C",
"=j c #8F8347",
"=i c #7D733D",
"=h c #716637",
"=g c #736838",
"=f c #827741",
"=e c #857843",
"=d c #897B44",
"=c c #8D7E46",
"=b c #8B7C46",
"=a c #8F864A",
"=0 c #96874D",
"=9 c #998C4F",
"=8 c #9D8E50",
"=7 c #A38F51",
"=6 c #A69353",
"=5 c #AB9656",
"=4 c #B39C5A",
"=3 c #B4A364",
"=2 c #B4AB7D",
"=1 c #B4A864",
"=| c #AEA057",
"=} c #A79854",
"=[ c #A29553",
"=< c #9B904F",
"=: c #938749",
"=_ c #817740",
"=( c #796E3B",
"=/ c #756A39",
"=^ c #756939",
"=] c #827540",
"={ c #847941",
"=~ c #8E8349",
"=! c #8E8048",
"=) c #96864C",
"=' c #98884E",
"=, c #93854B",
"=> c #948A4C",
"=; c #9A9050",
"=- c #9D9051",
"== c #A19452",
"=* c #A49654",
"=& c #AA9856",
"=% c #AE9D59",
"=$ c #B39E5B",
"=# c #B99F5D",
"=@ c #BDA761",
"=+ c #BEB279",
"*Z c #B5A968",
"*Y c #ADA05E",
"*X c #A59A55",
"*W c #A39A55",
"*V c #9E9452",
"*U c #968B4D",
"*T c #8D8246",
"*S c #847A41",
"*R c #7A6E3C",
"*Q c #7F723E",
"*P c #8E884B",
"*O c #978E4F",
"*N c #998A4C",
"*M c #9D9252",
"*L c #9C9251",
"*K c #A29754",
"*J c #A69A56",
"*I c #AB9E59",
"*H c #B7A65F",
"*G c #BBA661",
"*F c #BFA761",
"*E c #C3AC63",
"*D c #C6B46B",
"*C c #C5BB71",
"*B c #B5A867",
"*A c #A89A54",
"*z c #A09653",
"*y c #9B8D50",
"*x c #918449",
"*w c #867B42",
"*v c #7D723D",
"*u c #7D703D",
"*t c #817340",
"*s c #867743",
"*r c #897A44",
"*q c #918B4C",
"*p c #948F4F",
"*o c #A49551",
"*n c #A69453",
"*m c #A59753",
"*l c #A69B57",
"*k c #A39C56",
"*j c #A39C57",
"*i c #A69E59",
"*h c #A9A25B",
"*g c #B0A55E",
"*f c #BCAA62",
"*e c #C0AF66",
"*d c #C2B167",
"*c c #C6B068",
"*b c #CAB268",
"*a c #CDB668",
"*0 c #CEC188",
"*9 c #AFA464",
"*8 c #A19653",
"*7 c #9C9250",
"*6 c #998E4F",
"*5 c #91844A",
"*4 c #867943",
"*3 c #7E723D",
"*2 c #7C703E",
"*1 c #837441",
"*| c #8A7944",
"*} c #8F7F48",
"*[ c #93834A",
"*< c #968C4D",
"*: c #9A9552",
"*_ c #AE9E58",
"*( c #AA9B57",
"*/ c #A89E59",
"*^ c #ACA85F",
"*] c #AFA961",
"*{ c #B3AE64",
"*~ c #BCB368",
"*! c #C6B86C",
"*) c #CABB6F",
"*' c #CEBA6F",
"*, c #D2B96E",
"*> c #D3BC6D",
"*; c #D1C17A",
"*- c #D2C377",
"*= c #B6AA74",
"** c #A69C57",
"*& c #9C9351",
"*% c #978C4C",
"*$ c #918649",
"*# c #857A42",
"*@ c #827441",
"*+ c #897945",
"&Z c #917F48",
"&Y c #97864C",
"&X c #998A4E",
"&W c #988E4E",
"&V c #9B9250",
"&U c #A59955",
"&T c #B3A25C",
"&S c #AFA05C",
"&R c #AFAA61",
"&Q c #B5B26A",
"&P c #B8B36C",
"&O c #BFBA71",
"&N c #C9C377",
"&M c #D1C77A",
"&L c #D0C679",
"&K c #D0C678",
"&J c #D5C578",
"&I c #D9C174",
"&H c #DAC473",
"&G c #DAC874",
"&F c #D7CA8D",
"&E c #B3AB77",
"&D c #A19854",
"&C c #978D4C",
"&B c #8E8247",
"&A c #7B703D",
"&z c #817641",
"&y c #8C7C46",
"&x c #93814A",
"&w c #99884D",
"&v c #9A8C4E",
"&u c #9E9250",
"&t c #9C9653",
"&s c #9F9653",
"&r c #9F9B55",
"&q c #A39E58",
"&p c #A59E58",
"&o c #B3A35D",
"&n c #B2A761",
"&m c #ABA55F",
"&l c #B4AF69",
"&k c #C0BC76",
"&j c #C8C57D",
"&i c #D5D086",
"&h c #DDD58B",
"&g c #DCD58A",
"&f c #D9D385",
"&e c #DBD081",
"&d c #E1CA7B",
"&c c #E3CB78",
"&b c #E6D27A",
"&a c #D9CD93",
"&0 c #BFBA9A",
"&9 c #ACA56A",
"&8 c #9B9451",
"&7 c #8F8548",
"&6 c #796E3C",
"&5 c #796D3B",
"&4 c #7F723F",
"&3 c #837841",
"&2 c #887D43",
"&1 c #8E7F47",
"&| c #94824B",
"&} c #9B894E",
"&[ c #9D8D4F",
"&< c #A19B56",
"&: c #9F9F59",
"&_ c #A7A25B",
"&( c #B8A861",
"&/ c #B7B16B",
"&^ c #BDB975",
"&] c #C9C784",
"&{ c #CFCD89",
"&~ c #D8D692",
"&! c #E0DD98",
"&) c #E8E3A0",
"&' c #E9E59E",
"&, c #E6E195",
"&> c #E6D98C",
"&; c #E8D383",
"&- c #EAD37F",
"&= c #EEDA81",
"&* c #DED28E",
"&& c #CBC49A",
"&% c #A9A266",
"&$ c #98904F",
"&# c #8B8146",
"&@ c #766C3A",
"&+ c #7B6D3C",
"%Z c #80723F",
"%Y c #887E43",
"%X c #908248",
"%W c #96844C",
"%V c #9B894F",
"%U c #9E8E51",
"%T c #BDAC64",
"%S c #BDB873",
"%R c #D8D797",
"%Q c #E3E1A0",
"%P c #E6E4A4",
"%O c #EFEDA8",
"%N c #EDE69C",
"%M c #ECDE92",
"%L c #EBD787",
"%K c #EDD883",
"%J c #F0DD82",
"%I c #E4D78E",
"%H c #A09D5C",
"%G c #8F874A",
"%F c #7F743E",
"%E c #746A38",
"%D c #7D713D",
"%C c #847641",
"%B c #877A43",
"%A c #91864B",
"%z c #97884D",
"%y c #9E8C4F",
"%x c #A38F52",
"%w c #C3BE7C",
"%v c #D1CD8D",
"%u c #E1DEA1",
"%t c #E9E6A9",
"%s c #F3F1AB",
"%r c #EFE79A",
"%q c #F2E290",
"%p c #F2E186",
"%o c #EEDF92",
"%n c #EADC9A",
"%m c #A29C66",
"%l c #979057",
"%k c #857C43",
"%j c #766D39",
"%i c #6D6635",
"%h c #716937",
"%g c #7B6F3D",
"%f c #847642",
"%e c #897C45",
"%d c #8B8147",
"%c c #91884A",
"%b c #9A8D4F",
"%a c #A09151",
"%0 c #A99A55",
"%9 c #9D9954",
"%8 c #BBB36A",
"%7 c #D9D693",
"%6 c #F3EFBD",
"%5 c #FDFDD8",
"%4 c #FEFED7",
"%3 c #F7F0AF",
"%2 c #F5E99C",
"%1 c #F3E694",
"%| c #F1E396",
"%} c #9A904F",
"%[ c #8D8347",
"%< c #6F6636",
"%: c #696133",
"%_ c #726838",
"%( c #7C713D",
"%/ c #847942",
"%^ c #8D8147",
"%] c #91864A",
"%{ c #948D4E",
"%~ c #9F9452",
"%! c #A29452",
"%) c #AB9D59",
"%' c #F1EDB0",
"%, c #FCFAC7",
"%> c #FEFEDF",
"%; c #FFFFE8",
"%- c #FCFBD0",
"%= c #F8EF9E",
"%* c #FAED96",
"%& c #F6E993",
"%% c #918853",
"%$ c #837A46",
"%# c #675F33",
"%@ c #686133",
"%+ c #736A38",
"$Z c #7D723E",
"$Y c #857A43",
"$X c #8E8348",
"$W c #92884B",
"$V c #918C4E",
"$U c #949051",
"$T c #999351",
"$S c #9C9452",
"$R c #A5A058",
"$Q c #A5A05A",
"$P c #B2AB64",
"$O c #C8C581",
"$N c #DFDD96",
"$M c #EBE9A9",
"$L c #F6F5BD",
"$K c #FDFCCF",
"$J c #FBF9C0",
"$I c #FAEA9B",
"$H c #8E895C",
"$G c #7E7548",
"$F c #675D32",
"$E c #5F572F",
"$D c #635D31",
"$C c #7B713D",
"$B c #827841",
"$A c #8A7F45",
"$z c #93884A",
"$y c #938C4D",
"$x c #969050",
"$w c #9E9854",
"$v c #A19D57",
"$u c #A9A45C",
"$t c #D5D185",
"$s c #DFDA92",
"$r c #E6E19F",
"$q c #ECE9AD",
"$p c #F5F3B5",
"$o c #F8F4AF",
"$n c #F7F2A7",
"$m c #F8F2A0",
"$l c #FAF29A",
"$k c #F9ECA0",
"$j c #7A754D",
"$i c #5D562E",
"$h c #625B30",
"$g c #706737",
"$f c #7D733E",
"$e c #867C42",
"$d c #8A8045",
"$c c #989450",
"$b c #A19C56",
"$a c #A9A45B",
"$0 c #B3B065",
"$9 c #BFBC6F",
"$8 c #DAD788",
"$7 c #E1DE91",
"$6 c #E9E79A",
"$5 c #EDEB9F",
"$4 c #F0ED9B",
"$3 c #F3E9A1",
"$2 c #E8E4A8",
"$1 c #75704E",
"$| c #514A27",
"$} c #615931",
"$[ c #73683A",
"$< c #7F743F",
"$: c #887F45",
"$_ c #90894A",
"$( c #9A9651",
"$/ c #B0AC61",
"$^ c #B5B266",
"$] c #B7B567",
"${ c #C9C77D",
"$~ c #D5D281",
"$! c #E7E490",
"$) c #EFEC96",
"$' c #FCF09A",
"$, c #F4E8A5",
"$> c #5D572E",
"$; c #4C4425",
"$- c #5E542F",
"$= c #746939",
"$* c #867B41",
"$& c #93894A",
"$% c #9D9653",
"$$ c #A7A35A",
"$# c #B2AF62",
"$@ c #BCB96C",
"$+ c #C2BF73",
"#Z c #C3C174",
"#Y c #D3D283",
"#X c #D2D07F",
"#W c #D2D181",
"#V c #D7D684",
"#U c #F6F099",
"#T c #FAEF98",
"#S c #FFEF9B",
"#R c #83817A",
"#Q c #5F5B4C",
"#P c #433C22",
"#O c #5D532D",
"#N c #796C3B",
"#M c #908147",
"#L c #A29855",
"#K c #ADA760",
"#J c #B7B268",
"#I c #BFBD70",
"#H c #C4C277",
"#G c #CCC87C",
"#F c #D2CC7D",
"#E c #D3D18A",
"#D c #CCCB7D",
"#C c #BCB96D",
"#B c #919058",
"#A c #9EA15C",
"#z c #CACA84",
"#y c #D4D491",
"#x c #D3D28D",
"#w c #D3D186",
"#v c #D5D383",
"#u c #DAD784",
"#t c #DFDC88",
"#s c #EEEA93",
"#r c #F6EE97",
"#q c #FCEE98",
"#p c #F4E9A7",
"#o c #EAE3B3",
"#n c #4D492D",
"#m c #59502B",
"#l c #7D6F3D",
"#k c #97884B",
"#j c #AA9F5B",
"#i c #BBB067",
"#h c #C8BB6E",
"#g c #CFC677",
"#f c #D4CD80",
"#e c #DBD28A",
"#d c #E1D791",
"#c c #E4D181",
"#b c #D4C36F",
"#a c #565339",
"#0 c #453F21",
"#9 c #464F1D",
"#8 c #6B7234",
"#7 c #C6C887",
"#6 c #D0D18D",
"#5 c #D2D28F",
"#4 c #D6D58F",
"#3 c #D9D78D",
"#2 c #F8EB94",
"#1 c #F7EB9E",
"#| c #747162",
"#} c #544D29",
"#[ c #7B6D3D",
"#< c #9E8E50",
"#: c #B4A45E",
"#_ c #D1BE74",
"#( c #D8C87D",
"#/ c #E0D187",
"#^ c #ECE099",
"#] c #F6E69C",
"#{ c #E4D78D",
"#~ c #ADA95E",
"#! c #B5AC79",
"#) c #7B7550",
"#' c #645C32",
"#, c #555B2A",
"#> c #A9A868",
"#; c #CCCD89",
"#- c #D1D28E",
"#= c #D6D893",
"#* c #DBD990",
"#& c #E5E28C",
"#% c #EFE790",
"#$ c #FAEC97",
"## c #EBE2AA",
"#@ c #D8D5B9",
"#+ c #99988E",
"@Z c #726E59",
"@Y c #695D34",
"@X c #97854C",
"@W c #B3A05C",
"@V c #C5B26A",
"@U c #E5D78D",
"@T c #F0E5A0",
"@S c #F4E9A6",
"@R c #EDE29A",
"@Q c #CBC475",
"@P c #B7B46F",
"@O c #C1BA89",
"@N c #5A532C",
"@M c #999658",
"@L c #85834D",
"@K c #9FA362",
"@J c #C4C785",
"@I c #CDCF8C",
"@H c #D8D893",
"@G c #D9D890",
"@F c #DBD88C",
"@E c #DFDC8B",
"@D c #E7E28D",
"@C c #F3E993",
"@B c #E0DAB9",
"@A c #7F7C6B",
"@z c #756C4B",
"@y c #8D7D46",
"@x c #AF9D59",
"@w c #C5B169",
"@v c #D3BE75",
"@u c #DAC87E",
"@t c #E2D48A",
"@s c #EAE099",
"@r c #ECE39E",
"@q c #E1D88E",
"@p c #C6C073",
"@o c #BAB671",
"@n c #BFB97E",
"@m c #757543",
"@l c #58512B",
"@k c #9D9957",
"@j c #8B884D",
"@i c #83824A",
"@h c #8F8C52",
"@g c #A4A565",
"@f c #CACC89",
"@e c #D0D28E",
"@d c #D8D994",
"@c c #DCDA92",
"@b c #DFDA8E",
"@a c #E3DF8E",
"@0 c #EAE390",
"@9 c #EDE49D",
"@8 c #EDE3A7",
"@7 c #695E35",
"@6 c #807546",
"@5 c #9B8D52",
"@4 c #B6A45E",
"@3 c #C5B56D",
"@2 c #CBBE76",
"@1 c #CEC47D",
"@| c #D2CB82",
"@} c #D4CF85",
"@[ c #CEC97F",
"@< c #C1BD72",
"@: c #BCB870",
"@_ c #C0BC73",
"@( c #75703E",
"@/ c #56502A",
"@^ c #A5A059",
"@] c #999552",
"@{ c #979856",
"@~ c #A6A35E",
"@! c #B9B976",
"@) c #D5D792",
"@' c #DEDD92",
"@, c #E4DC8E",
"@> c #E9DE91",
"@; c #E7DEA2",
"@- c #E2DBB3",
"@= c #908860",
"@* c #9B9160",
"@& c #A1995A",
"@% c #ACA660",
"@$ c #B4AE69",
"@# c #BAB66E",
"@@ c #BDBA71",
"@+ c #C6C47B",
"+Z c #C6C477",
"+Y c #C4C275",
"+X c #CBC97B",
"+W c #716739",
"+V c #5E592F",
"+U c #B7B46B",
"+T c #B3B069",
"+S c #B5B772",
"+R c #C3C27B",
"+Q c #D2D38D",
"+P c #D8DA95",
"+O c #D9DB96",
"+N c #DCDC94",
"+M c #E0DD8F",
"+L c #E4DC98",
"+K c #E2D9AA",
"+J c #E0D8B2",
"+I c #8F8A6C",
"+H c #999469",
"+G c #A5A06D",
"+F c #ADA464",
"+E c #B5AD67",
"+D c #B9B36C",
"+C c #C8C478",
"+B c #CFCD7E",
"+A c #D2D080",
"+z c #D7D78D",
"+y c #645C33",
"+x c #716B42",
"+w c #D5D48D",
"+v c #D0D089",
"+u c #D3D490",
"+t c #D7D692",
"+s c #DCDB91",
"+r c #DBDA95",
"+q c #DCD99D",
"+p c #DFDB9C",
"+o c #E3DD91",
"+n c #AAA273",
"+m c #AEA369",
"+l c #B7AB64",
"+k c #BEB880",
"+j c #C5BF87",
"+i c #C9C584",
"+h c #D0CB86",
"+g c #D9D593",
"+f c #514B27",
"+e c #867E51",
"+d c #DFDE9A",
"+c c #D9D598",
"+b c #D8D49D",
"+a c #DBD89B",
"+0 c #DDDA8C",
"+9 c #DCD894",
"+8 c #D6D0A5",
"+7 c #3D3923",
"+6 c #958F6C",
"+5 c #DAD994",
"+4 c #D7CE9A",
"+3 c #D6D0A7",
"+2 c #C8C8C8",
"+1 c #332E1C",
"+| c #9D9B92",
"+} c #AFAFAF",
"+[ c #2D270E",
"+< c #AFADAA",
"+: c #7A7974",
"+_ c #373115",
"+( c #C5C4C1",
"+/ c #39372C",
"+^ c #5B5334",
"+] c #CDCDCD",
"+{ c #929291",
"+~ c #221E0A",
"+! c #82775D",
"+) c #424139",
"+' c #322A09",
"+, c #A09A8C",
"+> c #BBBBBB",
"+; c #3A3009",
"+- c #AEACA5",
"+= c #ABABAB",
"+* c #1A180B",
"+& c #615830",
"+% c #D0D0CF",
"+$ c #C3C3C3",
"+# c #75736B",
"+@ c #999685",
"++ c None",
"++++++++++++++++++++++++++++++++++++++++++++++++++++++++++++++++++++++++++++++++++++++++++++++++++++",
"++++++++++++++++++++++++++++++++++++++++++++++++++++++++++++++++++++++++++++++++++++++++++++++++++++",
"++++++++++++++++++++++++++++++++++++++++++++++++++++++++++++++++++++++++++++++++++++++++++++++++++++",
"+++++++++++++++++++++++++++++++++++++++++++++++++++++@+#+$++++++++++++++++++++++++++++++++++++++++++",
"+++++++++++++++++++++++++++++++++++++++++++++++++++%+&+*+=++++++++++++++++++++++++++++++++++++++++++",
"+++++++++++++++++++++++++++++++++++++++++++++++++++-+;+*+>++++++++++++++++++++++++++++++++++++++++++",
"+++++++++++++++++++++++++++++++++++++++++++++++++++,+'+)+>++++++++++++++++++++++++++++++++++++++++++",
"+++++++++++++++++++++++++++++++++++++++++++++++++++!+~+{++++++++++++++++++++++++++++++++++++++++++++",
"+++++++++++++++++++++++++++++++++++++++++++++++++]+^+/+>++++++++++++++++++++++++++++++++++++++++++++",
"+++++++++++++++++++++++++++++++++++++++++++++++++(+_+:++++++++++++++++++++++++++++++++++++++++++++++",
"+++++++++++++++++++++++++++++++++++++++++++++++++<+[+}++++++++++++++++++++++++++++++++++++++++++++++",
"+++++++++++++++++++++++++++++++++++++++++++++++++|+1+2++++++++++++++++++++++++++++++++++++++++++++++",
"+++++++++++++++++++++++++++++++++++++++++3+4+4+5+6+7+8++++++++++++++++++++++++++++++++++++++++++++++",
"+++++++++++++++++++++++++++++++++++9+0+a+b+c+c+d+e+f+g+h+i+j+k+l+m+n++++++++++++++++++++++++++++++++",
"+++++++++++++++++++++++++++++o+p+q+r+s+s+t+u+v+w+x+y+z+A+B+C+D+E+F+G+H+I++++++++++++++++++++++++++++",
"+++++++++++++++++++++++++J+K+L+M+N+O+P+Q+R+S+T+U+V+W+X+Y+Z@+@@@#@$@%@&@*@=++++++++++++++++++++++++++",
"++++++++++++++++++++++@-@;@>@,@'+O@)+u@!@~@{@]@^@/@(@_@:@<@[@}@|@1@2@3@4@5@6@7++++++++++++++++++++++",
"++++++++++++++++++++@8@9@0@a@b@c@d@e@f@g@h@i@j@k@l@m@n@o@p@q@r@s@t@u@v@w@x@y@z@A++++++++++++++++++++",
"++++++++++++++++++@B@8@C@D@E@F@G@H@I@J@K@L@m@L@M@N@m@O@P@Q@R@S@T@U@u@v@V@W@X@Y@Z#+++++++++++++++++++",
"++++++++++++++++#@###$#%#&@E#*@H#=#-#;#>@m#,#'@L@/#)#!#~#{#]@S#^#/#(#_@V#:#<#[#}#|++++++++++++++++++",
"++++++++++++++++@S#1#2#%#&@E@F#3#4#5#6#7@K#8#9#,#0#a@L#b#c#{#d#e#f#g#h#i#j#k#l#m#n#a++++++++++++++++",
"++++++++++++++#o#p#q#r#s#&#t#u#v#w#x#y#=#y#z@P#A#B#B#C#D#E#E#F#G#H#I#J#K#L#M#N#O#P#Q#R++++++++++++++",
"++++++++++++++#S#q#T#U#s#&#t#V#W#X#W#Y#6#6#y#=+5#=#3#6#;#z@+#Z$+$@$#$$$%$&$*$=$-$;+f$>++++++++++++++",
"++++++++++++++$,#S$'#U$)$!#t#u$~#X+B#D#D#D${#z${${${@+#Z@<#C$]$^$/$$$($_$:$<$[$}$|#}$1++++++++++++++",
"++++++++++++$2$3#S$'#U$4$5$6$7$8$~+B#D@Q#Z#Z#Z$9$9$9$9#C$]$0#~$a$b$c$_$d$e$f$g$h@l$i$j++++++++++++++",
"++++++++++++@S$k$'$l$m$n$o$p$q$r$s$t#F@Q$9$9$]#C$]$0$0#~#~$u$v$w$x$y$z$A$B$C$g$D$E$F$G$H++++++++++++",
"++++++++++++#]$I$'$l$m$o$J$K$K$L$M$N#3$O@<$9$]$]$P#~$u$Q$R$R$S$T$U$V$W$X$Y$Z%+%@%#$g%$%%++++++++++++",
"++++++++++++%&#2%*%*%=$o%-%;%;%>%,%'$2#y@+@<@P$0$P$u$Q$v$R%)%!%~$T%{%]%^%/%(%_%:%<$C%[%}++++++++++++",
"++++++++++++%|%1%&%&%2%3%,%4%>%;%5%6#o%7$O@P%8$P$u$u$Q$v%9%0%!%a%b%c%d%e%f%g%h%i%j%k%l%m++++++++++++",
"++++++++++++%n%o%p%p%q%r%s$J$K$K$L%t%u%v%w@P$P#~$Q$u$R$v%9%!%x%y%z%A%d%B%C%D%E%E%F%G%H#>++++++++++++",
"+++++++++++++4%I%J%K%L%M%N%O$q%P%Q%R#6%w%S$P%T$P$Q$Q#A$v%9$S%U%V%W%X%Y$B%Z&+&@$f&#&$&%#!++++++++++++",
"++++++++++++&&&*&=&-&;&>&,&'&)&!&~&{&]&^&/$P&(#K&_$Q&:&<%9%~&[&}&|&1&2&3&4&5&6$B&7&8&9++++++++++++++",
"++++++++++++&0&a&b&c&d&e&f&g&h&i&j&k&^&l&m&n&o&p&q&q&r&s&t&u&v&w&x&y%B&z%(&A%/&B&C&D&E++++++++++++++",
"++++++++++++++&F&G&H&I&J&K&L&M&N&O&P&Q&R$Q&S&T&U%9&r%9$S&V&W&X&Y&Z*+*@%(%(*#*$*%*&***=++++++++++++++",
"++++++++++++++*-*;*>*,*'*)#h*!*~*{*]*^$a*/*(*_%0&t&t*:$T*<$z*[*}*|*1*2*3*4*5*6*7*8*9&T++++++++++++++",
"++++++++++++++++*0*a*b*c*d*e*f*g*h*i*j*k*l*m*n*o$S$T*p*q%]%^*r*s*t*u*v*w*x*y&s*z*A*B++++++++++++++++",
"++++++++++++++++*C*D*E*F*G*H&T*I*J*K&s*L*M%a%y*N*O%{*P$d$A$Y*Q*u*R*v*S*T*U*V*W*X*Y*Z++++++++++++++++",
"++++++++++++++++%w=+=@=#=$=%=&=*===-=;=>=,='=)=!=~=~$:={=]$C=^=/=(=_$A=:=<=[=}=|=1++++++++++++++++++",
"++++++++++++++++++=2=3=4=5=6=7=8=9%z=0=a=b*}=c%e=d=e=f$C&+=g=h=/=i$e=j=k=l=m=n=o=p++++++++++++++++++",
"++++++++++++++++++++=q=&=7=r=s@X=t=u=v=w%f=x%C=y=z%g%g%E=g=A=B=C$B&#$z=D=E=F=G=H++++++++++++++++++++",
"++++++++++++++++++++%)=I=J=K=L=M=N=O=P=P=Q=R=Q=S=T=g%h=U=V=g=W=X=Y=Z-+&v-@-#-$++++++++++++++++++++++",
"++++++++++++++++++++++-%-&-*-=-----;->$[-,-,-'-)-!-~%@-{-]=(-^-/-(-_-:-<-[-}-|++++++++++++++++++++++",
"++++++++++++++++++++++++-1-2#[-3-4-5-6-7-8-!-9-0+&-a-b-c-d=W-e-f-g-h-:-i-j-k++++++++++++++++++++++++",
"++++++++++++++++++++++++++-l-m-n-o-p-q#'-o@7#'+&@N$>$>-c-d*R%C-r-s-t-u-v-w++++++++++++++++++++++++++",
"++++++++++++++++++++++++++++-x-y-z-z-z-z-z+&@N@N-A@/$>@7-d*R%C-r-B-C-D-E++++++++++++++++++++++++++++",
"++++++++++++++++++++++++++++++-A-A-A-A-A-A-A-A$;-A@N+&-c-d-F%C-G-H-I-J++++++++++++++++++++++++++++++",
"++++++++++++++++++++++++++++++++++-K-K#0#0$;#0#0-A@N+&-c&@-L-M-M-N-O++++++++++++++++++++++++++++++++",
"++++++++++++++++++++++++++++++++++++++-P-Q-K#0$;@/+&-c&@-F-R#)#)++++++++++++++++++++++++++++++++++++",
"++++++++++++++++++++++++++++++++++++++++++++++++++++++++++++++++++++++++++++++++++++++++++++++++++++",
"++++++++++++++++++++++++++++++++++++++++++++++++++++++++++++++++++++++++++++++++++++++++++++++++++++"};
