/* XPM */
static char * ball_red_xpm[] = {
"48 48 256 2",
"#O c #939393",
"#N c #785632",
"#M c #301D0C",
"#L c #352B22",
"#K c #5C5958",
"#J c #878786",
"#I c #747371",
"#H c #53341A",
"#G c #696661",
"#F c #AAAAA9",
"#E c #BC702D",
"#D c #B3B3B3",
"#C c #BCBCBC",
"#B c #59371D",
"#A c #6A441F",
"#z c #654621",
"#y c #744F27",
"#x c #CC8236",
"#w c #C26F31",
"#v c #673F21",
"#u c #734922",
"#t c #7B572D",
"#s c #A2A2A1",
"#r c #BD7133",
"#q c #B6622D",
"#p c #714520",
"#o c #8D5E30",
"#n c #7C4C23",
"#m c #A7937B",
"#l c #864B20",
"#k c #845628",
"#j c #BFBBB7",
"#i c #A26631",
"#h c #B37139",
"#g c #C4733C",
"#f c #935C2B",
"#e c #CCA48B",
"#d c #9B5C2A",
"#c c #B67634",
"#b c #BD723A",
"#a c #C27B3E",
"#0 c #AB632E",
"#9 c #9C5925",
"#8 c #BA793B",
"#7 c #CA7837",
"#6 c #CD903D",
"#5 c #C16832",
"#4 c #B56C32",
"#3 c #975325",
"#2 c #A47538",
"#1 c #D27C3B",
"#| c #BF9282",
"#} c #C27B46",
"#[ c #A45C2B",
"#< c #935728",
"#: c #A4662A",
"#_ c #D58343",
"#( c #DB9843",
"#/ c #C9B698",
"#^ c #BB8B6A",
"#] c #BB8343",
"#{ c #9C612C",
"#~ c #8B5224",
"#! c #8A4E22",
"#) c #92692A",
"#' c #AB7235",
"#, c #AA6B34",
"#> c #CCA165",
"#; c #E18D4C",
"#- c #A46B30",
"#= c #8D5825",
"#* c #8B5529",
"#& c #95632B",
"#% c #A76F39",
"#$ c #E8A549",
"## c #8A5D2A",
"#@ c #905426",
"#+ c #945D26",
"@Z c #97672B",
"@Y c #916928",
"@X c #8F6B27",
"@W c #A37335",
"@V c #E59753",
"@U c #A7743B",
"@T c #845424",
"@S c #966129",
"@R c #9C6B2B",
"@Q c #AE844B",
"@P c #BC8F5E",
"@O c #F0B150",
"@N c #9B6432",
"@M c #845924",
"@L c #8F682C",
"@K c #956D30",
"@J c #B48852",
"@I c #C2975F",
"@H c #C7A275",
"@G c #E8D0AD",
"@F c #8E6940",
"@E c #77451C",
"@D c #6D451B",
"@C c #956D29",
"@B c #A97C3C",
"@A c #B98C4B",
"@z c #C09556",
"@y c #C69A64",
"@x c #D6A973",
"@w c #D6AD81",
"@v c #DBB381",
"@u c #683E1A",
"@t c #5B3516",
"@s c #77511F",
"@r c #B8883D",
"@q c #523214",
"@p c #9F8039",
"@o c #563715",
"@n c #4E2F15",
"@m c #7C5C24",
"@l c #8D6B2A",
"@k c #96732D",
"@j c #AF934D",
"@i c #C7984A",
"@h c #FAC05D",
"@g c #FEAF5E",
"@f c #482D14",
"@e c #6E4E1E",
"@d c #855C29",
"@c c #906D2A",
"@b c #BCA15E",
"@a c #C49A4E",
"@0 c #60431B",
"@9 c #8D6529",
"@8 c #A27C35",
"@7 c #C69857",
"@6 c #846026",
"@5 c #BFA767",
"@4 c #CCA34E",
"@3 c #D7AB4E",
"@2 c #FAAE5B",
"@1 c #3B250E",
"@| c #5D3D18",
"@} c #9C6E30",
"@[ c #AC7D42",
"@< c #B98D43",
"@: c #E7AC66",
"@_ c #A68037",
"@( c #412B10",
"@/ c #988B4E",
"@^ c #C3AA66",
"@] c #F9B766",
"@{ c #E4C59A",
"@~ c #7E5323",
"@! c #996D3F",
"@) c #C18A46",
"@' c #F2BF7E",
"@, c #CB9956",
"@> c #93713E",
"@; c #95775A",
"@- c #5D3D1D",
"@= c #655D2B",
"@* c #B19F60",
"@& c #CDA35B",
"@% c #F3BB5B",
"@$ c #645E4D",
"@# c #674B1C",
"@@ c #936630",
"@+ c #B37C3C",
"+Z c #BD844D",
"+Y c #CD9352",
"+X c #D59D59",
"+W c #E5B26A",
"+V c #D3A662",
"+U c #AB8C45",
"+T c #6C4A24",
"+S c #6E5221",
"+R c #897745",
"+Q c #B9A564",
"+P c #D7AC57",
"+O c #ECB65A",
"+N c #ECC086",
"+M c #735522",
"+L c #9E7432",
"+K c #B18443",
"+J c #BC9349",
"+I c #BF9751",
"+H c #AE863F",
"+G c #A1783C",
"+F c #896635",
"+E c #7E5A2C",
"+D c #876427",
"+C c #A89253",
"+B c #E8A65B",
"+A c #DDB991",
"+z c #756348",
"+y c #7B672F",
"+x c #927637",
"+w c #A18242",
"+v c #A98C4A",
"+u c #B6954E",
"+t c #B28E44",
"+s c #644E22",
"+r c #54491C",
"+q c #9B7A33",
"+p c #9A7944",
"+o c #A78B4A",
"+n c #B99E5A",
"+m c #CBB46F",
"+l c #DFAF5A",
"+k c #E5B676",
"+j c #8B7E5A",
"+i c #A4853C",
"+h c #B38F4A",
"+g c #C2A359",
"+f c #62502A",
"+e c #6E5A38",
"+d c #C3AC6A",
"+c c #ABA395",
"+b c #AF996D",
"+a c #B39B5C",
"+0 c #B39A55",
"+9 c #BB9B53",
"+8 c #513B1C",
"+7 c #8C7238",
"+6 c #D2B264",
"+5 c #C9AB61",
"+4 c #CAAD68",
"+3 c #CAB16C",
"+2 c #D3B87D",
"+1 c #D3C19D",
"+| c #D4CDC2",
"+} c #CABCB0",
"+[ c #93846D",
"+< c #D3C9B6",
"+: c #CFCEC7",
"+_ c #D4D2D1",
"+( c #D2D2D2",
"+/ c #9B9B9B",
"+^ c #B4B1AA",
"+] c #7F7C73",
"+{ c #372D0F",
"+~ c #C9C9C9",
"+! c #3B381A",
"+) c #584E39",
"+' c #857663",
"+, c #CECECE",
"+> c #413826",
"+; c #2F2809",
"+- c #9D9B94",
"+= c #ADABA4",
"+* c #1E1A04",
"+& c #483814",
"+% c #C4C3C3",
"+$ c #C8C7C6",
"+# c #776F63",
"+@ c #969385",
"++ c None",
"++++++++++++++++++++++++++++++++++++++++++++++++++++++++++++++++++++++++++++++++++++++++++++++++",
"++++++++++++++++++++++++++++++++++++++++++++++++++++++++++++++++++++++++++++++++++++++++++++++++",
"++++++++++++++++++++++++++++++++++++++++++++++++++++++++++++++++++++++++++++++++++++++++++++++++",
"+++++++++++++++++++++++++++++++++++++++++++++++++++@+#+$++++++++++++++++++++++++++++++++++++++++",
"+++++++++++++++++++++++++++++++++++++++++++++++++%+&+*+=++++++++++++++++++++++++++++++++++++++++",
"+++++++++++++++++++++++++++++++++++++++++++++++++-+;+>+,++++++++++++++++++++++++++++++++++++++++",
"+++++++++++++++++++++++++++++++++++++++++++++++++'+;+@++++++++++++++++++++++++++++++++++++++++++",
"+++++++++++++++++++++++++++++++++++++++++++++++++)+!+,++++++++++++++++++++++++++++++++++++++++++",
"+++++++++++++++++++++++++++++++++++++++++++++++~+{+]++++++++++++++++++++++++++++++++++++++++++++",
"+++++++++++++++++++++++++++++++++++++++++++++++^+;+^++++++++++++++++++++++++++++++++++++++++++++",
"+++++++++++++++++++++++++++++++++++++++++++++++/+!+(++++++++++++++++++++++++++++++++++++++++++++",
"+++++++++++++++++++++++++++++++++++++++_+:+<+<+[+>+}+<+:+(++++++++++++++++++++++++++++++++++++++",
"+++++++++++++++++++++++++++++++++|+1+2+3+4+5+6+7+8+5+9+0+a+b+c+%++++++++++++++++++++++++++++++++",
"+++++++++++++++++++++++++++_+<+2+6+6+3+3+3+d+d+e+f+5+g+g+9+h+i+7+j+c+(++++++++++++++++++++++++++",
"+++++++++++++++++++++++++<+k+l+6+m+m+d+n+o+p+q+r+s+t+t+u+u+v+w+p+x+y+z+=++++++++++++++++++++++++",
"+++++++++++++++++++++_+A+B+l+6+m+3+d+C+7+D+E+F+&+s+G+G+H+9+g+9+I+J+K+L+M+]+_++++++++++++++++++++",
"+++++++++++++++++++_+N+O+l+P+6+m+d+Q+R+y+S+T+E+&+f+p+p+U+V+k+W+X+Y+Z@+@@@#@$+,++++++++++++++++++",
"+++++++++++++++++_+N@%+l+P@&+5+4+d@*+R@=+8@-+s+&+f@;@>@,+k@'+W+X+Y@)@+@!@~+&@$+(++++++++++++++++",
"++++++++++++++++@{@]+O+l+P+5+5@^+d+Q@/@=+!+{+8@(+)+z@_+B@:+k+V@,+J@<@[@}+E@|@1+]++++++++++++++++",
"+++++++++++++++|@]@2+O@3@4@4+g+g@5+Q+Q+C+7+r+!+{+>@6@7+X@&@&+I+J@<+K@8@9+M@0@(@1+=++++++++++++++",
"++++++++++++++@'@2@%+O@3@4@a@a+9+9@b@5@5+Q+Q+0+C+C@b@b@b+9+u+h+U@_+q@c@d@e@|@f@1+e+(++++++++++++",
"+++++++++++++|@g@g@h+O@3@4@i+J+J+u+u+9+n+n+Q+Q@b@b+n+0@j+U+U+i+q@k@l@m+M@e@|@n@f@o+^++++++++++++",
"+++++++++++++A@g@]@%+l+P@4@i+J@<@<+t+t+t+U+t+U+U+v+U+U+i@p+q@k@c+D@m+M+S@#@0@q@q@|+[++++++++++++",
"+++++++++++++N@g@h+O+l+l+V+V@7+J@<@r+H@_@_@_@8@8@8@8@8+q@k@c+D@6@6+M+M@s@#@0@|@t@u+R++++++++++++",
"++++++++++++@'@h@h@%+W+k@v@w@x@y@z@A@B@B@8+L@8@k@C@k@c@c@c+D@m@m@6@6@~@s+S@#@|@D@E@F++++++++++++",
"++++++++++++@]@h@%+O+W+k@{@G+A@w@H@I@J@[@B+L+L@K@c@L@9@c@C@9@6@6@6+D@M+M@~@e@D@s@M@N++++++++++++",
"++++++++++++@]@%+O@O@:+k@G@G@G@G+A@H@P@Q@B@8+L@K@l@9@9@C@R@S@9@6@d@M@6@T@~@s@s@d@@@U++++++++++++",
"+++++++++++++k@O@O+B@V@x+A@{@G@G@v@H@P@Q@B@W@}@L@X@l@X@Y@Z#+#@##@M@M@T@T@T@~@T@L+G@J++++++++++++",
"+++++++++++++k@O#$@V@V+V@x@v@v@w@H@I@J@[@U#%@}@9@X@l@c@Y#&#+#@#*@M@M@T#*@T@T#=#-+K@P++++++++++++",
"++++++++++++@H@O#$#;#;+X+V+V#>@y@I@J@[@B#,#'@}@c@c@c@C#)#)@S#@#!@T@M@T#~#~#=#{#'#]#^++++++++++++",
"++++++++++++#/#$#(#_#_@i@i@,@7@A+K@B@W#-#'#:@R@c@c@l@C#)@Z#&#<#!#!@M#=#~#@#[#,#]#}#|++++++++++++",
"+++++++++++++<#(#(#1#_@)@)@)@)+K@[#2+L@R#-#-@R@X@X@c#)@Y#)@Z#<#@#!#!#~#3#:#'#4@)#5+}++++++++++++",
"+++++++++++++(@&#6#1#7#]@r#8@+@8@W@}@}@R#-#-@R#)@l@c#)#)#&@S#@#@#!#~#+#9#0#8#8#a#}+_++++++++++++",
"++++++++++++++#/#6#7#b#8@+#c#'@}@Z@Z#)@R#{#{@R#)@Y@l@9@9#+#@#~#@#~#d#[#0#4#]#a#5#e++++++++++++++",
"+++++++++++++++:+J#a#b#4#'#,#-@K#&@9#)@Z#&#+@S@Y@L+D+D@9#=#@#=#@#f#-#:#4#]@)#5#g+|++++++++++++++",
"++++++++++++++++@H@+#h#[#-#i@N#)#<##@d###f#f#=##+D+D@6#=#~#!#=#f#i#2#h#]@)#g#5#^++++++++++++++++",
"++++++++++++++++#j+H#'#0#{@S#f@9#*#k@d@T###~@T@d@M@M@M#~#l#!#f#{#%@[#]@z#a#5#1#j++++++++++++++++",
"++++++++++++++++++#m@B@N#f#=#*@d#k#n@~@~#k@~@T@T#n@~@T#n#l#@#&#i@[@+#]#}#5#1#m++++++++++++++++++",
"+++++++++++++++++++$+p@@#o@d#n@~#n#p#p#n@~@~#n#n#n#n@~@T#*#f@N#,@[#q#r#5#7+Z+$++++++++++++++++++",
"++++++++++++++++++++#s@L+E#t#u#p#u#v#v#p@s#u#u#u#u#u#n#k#o@S#[#,#0#q#q#w#x+c+,+(++++++++++++++++",
"+++++++++++++++++++,+~+]#t#y#z#v#A#v#B#A#A+T#A#A+T#u#n@d@@#{#[#[#[#q#w#x+[#C+~+(++++++++++++++++",
"+++++++++++++++++++(+%#D+##z@-#B@-@-#B@-#z#z#z@0+T#p#n#*#<#9#[#[#0#E#x+'#F#C+,+(++++++++++++++++",
"+++++++++++++++++++(+~#C#F#G+8#H@n#H#H#H@-@-@-@-#A#u#n#~#@#3#9#[#E#c+'+/#D+%+(++++++++++++++++++",
"+++++++++++++++++++++,+%#D#s#I+>@1@f@f@n@q@q@q@t@u#p@E#!#!#9#:#4@!+]+/#F#C+,+(++++++++++++++++++",
"+++++++++++++++++++++(+,+%#D#s#J#K#L#M@1@(@f@n@t@u@E#n#~#9#:#o+##J+/#s#C+$+(++++++++++++++++++++",
"+++++++++++++++++++++++(+,+%#D#s+/#J#G+)#L@f@n@o@|@D#y#N+z+##J#O+/#F#C+~+(++++++++++++++++++++++",
"+++++++++++++++++++++++++(+,+%#C#F#s+/#O#J+]#I#I#I#I+]#J#O#O+/#F#D+%+~+(++++++++++++++++++++++++",
"+++++++++++++++++++++++++++(+,+~+%#C#D#F#s#s+/+/+/+/+/#s#F+^#D+%+$+,+(++++++++++++++++++++++++++"};
