/* XPM */
static char * ball_red_xpm[] = {
"44 44 838 2",
";0 c #7D7448",
";9 c #7D713D",
";8 c #786D3A",
";7 c #615830",
";6 c #544E29",
";5 c #4A4224",
";4 c #453E21",
";3 c #938847",
";2 c #887F4B",
";1 c #827847",
";| c #746A38",
";} c #685F33",
";[ c #5F572E",
";< c #534C29",
";: c #484122",
";_ c #443D21",
";( c #3F3A22",
";/ c #413D28",
";^ c #3E381F",
";] c #A0914E",
";{ c #95894E",
";~ c #908549",
";! c #8D8044",
";) c #867A41",
";' c #796E3B",
";, c #6C6335",
";> c #625930",
";; c #5A532C",
";- c #524829",
";= c #494223",
";* c #4D4526",
";& c #4E4526",
";% c #4C4425",
";$ c #484024",
";# c #4B4226",
";@ c #544A2A",
";+ c #ADA051",
"-Z c #A0924C",
"-Y c #968949",
"-X c #8C8145",
"-W c #857841",
"-V c #80733F",
"-U c #6C6235",
"-T c #58512B",
"-S c #544A29",
"-R c #554D29",
"-Q c #59502C",
"-P c #5B512D",
"-O c #5B502E",
"-N c #635532",
"-M c #6B6144",
"-L c #A0975E",
"-K c #AD9E53",
"-J c #9B8E4B",
"-I c #8F8146",
"-H c #857741",
"-G c #80723F",
"-F c #756A39",
"-E c #5B552D",
"-D c #59512B",
"-C c #5F572F",
"-B c #635A31",
"-A c #685B34",
"-z c #655A33",
"-y c #675C35",
"-x c #695C36",
"-w c #695A35",
"-v c #6D5F36",
"-u c #786A3E",
"-t c #7D7248",
"-s c #A29C66",
"-r c #AEA25B",
"-q c #A89951",
"-p c #968849",
"-o c #8D8045",
"-n c #897C43",
"-m c #847741",
"-l c #7F733E",
"-k c #6C6234",
"-j c #625A30",
"-i c #615930",
"-h c #60572F",
"-g c #655B32",
"-f c #695F34",
"-e c #6D6037",
"-d c #6A5F36",
"-c c #6D6238",
"-b c #706339",
"-a c #716238",
"-0 c #726538",
"-9 c #7E6E3F",
"-8 c #84794C",
"-7 c #878060",
"-6 c #BAAE65",
"-5 c #B0A256",
"-4 c #9D8D4E",
"-3 c #958749",
"-2 c #8E8346",
"-1 c #887B42",
"-| c #80743E",
"-} c #7C713C",
"-[ c #736A38",
"-< c #6B6234",
"-: c #696033",
"-_ c #6C6135",
"-( c #6E6137",
"-/ c #716438",
"-^ c #746839",
"-] c #76693A",
"-{ c #74683A",
"-~ c #76693B",
"-! c #7B6D3D",
"-) c #7F6F3F",
"-' c #867644",
"-, c #958B5B",
"-> c #B9AE6D",
"-; c #BAAC5E",
"-- c #A39552",
"-= c #9B8C4E",
"-* c #968A4C",
"-& c #8E8448",
"-% c #857942",
"-$ c #7C713D",
"-# c #776B3A",
"-@ c #706537",
"-+ c #6F6436",
"=Z c #716837",
"=Y c #736938",
"=X c #7B6B3C",
"=W c #7C6D3D",
"=V c #7F713F",
"=U c #807240",
"=T c #857643",
"=S c #8C7C47",
"=R c #8D7B47",
"=Q c #93804A",
"=P c #9A864D",
"=O c #A29154",
"=N c #A89D67",
"=M c #B3B3B1",
"=L c #B5AC78",
"=K c #BCAB65",
"=J c #AE9E56",
"=I c #9F914E",
"=H c #9A8C4D",
"=G c #93874A",
"=F c #80763F",
"=E c #766B39",
"=D c #726737",
"=C c #746A39",
"=B c #7D713E",
"=A c #867641",
"=z c #867742",
"=y c #877842",
"=x c #887943",
"=w c #8E8048",
"=v c #908049",
"=u c #94854C",
"=t c #9A874D",
"=s c #9F8B4F",
"=r c #A18D51",
"=q c #A89554",
"=p c #AFA264",
"=o c #ABA47B",
"=n c #BCAF5B",
"=m c #AFA058",
"=l c #A99654",
"=k c #978C4D",
"=j c #857A42",
"=i c #7A703B",
"=h c #726637",
"=g c #726738",
"=f c #7A6C3C",
"=e c #7F723E",
"=d c #827841",
"=c c #887C44",
"=b c #897D45",
"=a c #8B7E46",
"=0 c #91814A",
"=9 c #8F8449",
"=8 c #968A4D",
"=7 c #9A8B4F",
"=6 c #9C8F50",
"=5 c #A69253",
"=4 c #A89854",
"=3 c #B69C5C",
"=2 c #B8A05F",
"=1 c #B9AD79",
"=| c #B7B3A2",
"=} c #B4AA72",
"=[ c #ADA162",
"=< c #A89A55",
"=: c #A29955",
"=_ c #938649",
"=( c #887E43",
"=/ c #7E743E",
"=^ c #786D3B",
"=] c #7D723E",
"={ c #837941",
"=~ c #8B8347",
"=! c #91894C",
"=) c #93894C",
"=' c #95854B",
"=, c #9B8B4E",
"=> c #9C8E50",
"=; c #988D4E",
"=- c #9B9251",
"== c #9F9452",
"=* c #A59854",
"=& c #AA9C58",
"=% c #B2A15B",
"=$ c #B4A45F",
"=# c #B99F5E",
"=@ c #BEA961",
"=+ c #C4B36C",
"*Z c #C3BD79",
"*Y c #B4A65F",
"*X c #A79953",
"*W c #A09954",
"*V c #A09654",
"*U c #96884D",
"*T c #8B7F45",
"*S c #7F753E",
"*R c #7F723F",
"*Q c #857642",
"*P c #887A44",
"*O c #8E8247",
"*N c #8F8649",
"*M c #918C4D",
"*L c #9C9351",
"*K c #A29250",
"*J c #A49352",
"*I c #A39754",
"*H c #A39A55",
"*G c #A29A56",
"*F c #A59C57",
"*E c #A8A05A",
"*D c #B0A35C",
"*C c #BCA961",
"*B c #BEAD65",
"*A c #C4AF66",
"*z c #C6AF66",
"*y c #CAB466",
"*x c #CCBF81",
"*w c #B3A25B",
"*v c #B0A565",
"*u c #A19552",
"*t c #9C9250",
"*s c #9A8C4E",
"*r c #8C7D47",
"*q c #81753F",
"*p c #7B6F3D",
"*o c #817340",
"*n c #887844",
"*m c #8F7F48",
"*l c #928349",
"*k c #93894B",
"*j c #97904F",
"*i c #999451",
"*h c #9B9552",
"*g c #9D9652",
"*f c #A99A55",
"*e c #AB9C57",
"*d c #A99C57",
"*c c #A8A159",
"*b c #ACA75F",
"*a c #BCB167",
"*0 c #C6B86C",
"*9 c #C7B96D",
"*8 c #CABA6F",
"*7 c #D0B76D",
"*6 c #D3BB6D",
"*5 c #D0C07A",
"*4 c #D2C377",
"*3 c #B6AA75",
"*2 c #9B914F",
"*1 c #978C4C",
"*| c #8D8346",
"*} c #7E723F",
"*[ c #7B703C",
"*< c #817341",
"*: c #897945",
"*_ c #917F48",
"*( c #97884C",
"*/ c #988B4D",
"*^ c #99904F",
"*] c #9C9753",
"*{ c #9E9A55",
"*~ c #9E9954",
"*! c #A89B56",
"*) c #B1A15B",
"*' c #AAA05A",
"*, c #ABA55E",
"*> c #B3AF67",
"*; c #B7B36B",
"*- c #BFBA71",
"*= c #CBC478",
"** c #D0C67A",
"*& c #CFC577",
"*% c #D2C679",
"*$ c #D9C275",
"*# c #D9C273",
"*@ c #D9C774",
"*+ c #D6C98D",
"&Z c #B3AB76",
"&Y c #A09854",
"&X c #948A4A",
"&W c #8B7F46",
"&V c #7D733E",
"&U c #7A6E3C",
"&T c #817540",
"&S c #867A43",
"&R c #8C7C46",
"&Q c #94824B",
"&P c #9A8A4E",
"&O c #9C8E4F",
"&N c #9D9452",
"&M c #9E9753",
"&L c #A29E58",
"&K c #A9A05A",
"&J c #B2A45F",
"&I c #AFA761",
"&H c #B1AC66",
"&G c #BBB773",
"&F c #C0BC77",
"&E c #C9C77F",
"&D c #D8D389",
"&C c #DED78E",
"&B c #DCD689",
"&A c #D9D385",
"&z c #E1CC7D",
"&y c #E3CB79",
"&x c #E7D27B",
"&w c #D5CA93",
"&v c #BFBA9A",
"&u c #B5AC79",
"&t c #ABA46A",
"&s c #999250",
"&r c #8B8145",
"&q c #7C723E",
"&p c #7E6F3E",
"&o c #827741",
"&n c #877C43",
"&m c #8F8047",
"&l c #96834B",
"&k c #9C8B4F",
"&j c #9D9050",
"&i c #9F9A55",
"&h c #9F9E59",
"&g c #A49F5A",
"&f c #A7A25B",
"&e c #B2A961",
"&d c #B7AA63",
"&c c #B5AF69",
"&b c #BDB874",
"&a c #C8C783",
"&0 c #D1D08E",
"&9 c #DDDB98",
"&8 c #E4E09E",
"&7 c #EBE8A8",
"&6 c #EAE79C",
"&5 c #E8DE94",
"&4 c #E9D686",
"&3 c #EBD481",
"&2 c #EEDB81",
"&1 c #DDD190",
"&| c #D0C89A",
"&} c #B0AA72",
"&[ c #A7A265",
"&< c #948C4C",
"&: c #847A41",
"&_ c #81723F",
"&( c #837741",
"&/ c #887E44",
"&^ c #908349",
"&] c #97854C",
"&{ c #9E8C50",
"&~ c #9F9051",
"&! c #9D9653",
"&) c #A09F59",
"&' c #A5A15A",
"&, c #A6A15A",
"&> c #B2AA62",
"&; c #B6AC65",
"&- c #B9B46F",
"&= c #C4C07D",
"&* c #D2D18F",
"&& c #DDDC9C",
"&% c #EAE9AC",
"&$ c #EFEDB6",
"&# c #F4F2BA",
"&@ c #F2F0AB",
"&+ c #EDE49A",
"%Z c #EDDC8D",
"%Y c #EFDB84",
"%X c #F0DE84",
"%W c #E6D891",
"%V c #DED39A",
"%U c #A5A166",
"%T c #9D985C",
"%S c #8A8146",
"%R c #776E3A",
"%Q c #6F6736",
"%P c #827440",
"%O c #877943",
"%N c #8A8046",
"%M c #90864A",
"%L c #998A4E",
"%K c #A08F51",
"%J c #A39352",
"%I c #A19853",
"%H c #9F9B55",
"%G c #B1AB62",
"%F c #B6B069",
"%E c #BEBA76",
"%D c #CECB89",
"%C c #E1DCA3",
"%B c #ECE8B1",
"%A c #FAF9CB",
"%z c #FEFEDD",
"%y c #FDFDD3",
"%x c #FCFAC9",
"%w c #F3EFAA",
"%v c #F3E69A",
"%u c #F4E58D",
"%t c #F4E58C",
"%s c #F0E294",
"%r c #EDDF97",
"%q c #9C9457",
"%p c #938A4F",
"%o c #7E743F",
"%n c #6F6636",
"%m c #766C3A",
"%l c #80753F",
"%k c #8A7D45",
"%j c #8E8348",
"%i c #938B4C",
"%h c #9A9150",
"%g c #A59754",
"%f c #A69C57",
"%e c #A19D56",
"%d c #A49F59",
"%c c #A8A35B",
"%b c #AFA961",
"%a c #B4AF66",
"%0 c #BAB56E",
"%9 c #C1BE76",
"%8 c #CFCE89",
"%7 c #E3DFA4",
"%6 c #EFEBB3",
"%5 c #FCFBCE",
"%4 c #FEFEE4",
"%3 c #FEFEE3",
"%2 c #FEFEE1",
"%1 c #F6EDA2",
"%| c #F8EB94",
"%} c #F5E894",
"%[ c #F4E694",
"%< c #938952",
"%: c #887E49",
"%_ c #726938",
"%( c #675F33",
"%/ c #6A6334",
"%^ c #786C3B",
"%] c #8B8046",
"%{ c #92874A",
"%~ c #928C4E",
"%! c #959151",
"%) c #9B9351",
"%' c #A19854",
"%, c #A59F58",
"%> c #A49F58",
"%; c #A7A25A",
"%- c #ABA75D",
"%= c #B2AC64",
"%* c #C0BD71",
"%& c #C7C47E",
"%% c #D7D58F",
"%$ c #E1DF9A",
"%# c #EFEDB0",
"%@ c #F9F8C8",
"%+ c #FDFDD8",
"$Z c #FCFCD1",
"$Y c #F9F6B5",
"$X c #F7F1A3",
"$W c #FAF099",
"$V c #FBEF99",
"$U c #F9E999",
"$T c #F6E699",
"$S c #8E885A",
"$R c #81794B",
"$Q c #685E32",
"$P c #5F582F",
"$O c #676032",
"$N c #817640",
"$M c #928749",
"$L c #938C4D",
"$K c #979150",
"$J c #9E9955",
"$I c #A39E58",
"$H c #AAA55C",
"$G c #ACA75D",
"$F c #B0AC62",
"$E c #B2AF64",
"$D c #B6B467",
"$C c #BAB76B",
"$B c #B9B769",
"$A c #C6C073",
"$z c #D0CA7C",
"$y c #D5D185",
"$x c #E0DC94",
"$w c #E8E4A5",
"$v c #F0EEB3",
"$u c #F9F6B9",
"$t c #F7F2A8",
"$s c #F7F2A3",
"$r c #F9F199",
"$q c #FCF09A",
"$p c #F8EBA0",
"$o c #F4E8A4",
"$n c #7C7750",
"$m c #5B542D",
"$l c #57512A",
"$k c #665E32",
"$j c #756B39",
"$i c #847B42",
"$h c #897F44",
"$g c #90894A",
"$f c #9A9551",
"$e c #A39F57",
"$d c #ACA85D",
"$c c #B0AD61",
"$b c #BBB86B",
"$a c #BFBC6F",
"$0 c #C0BD70",
"$9 c #C1BE71",
"$8 c #C3C175",
"$7 c #C8C375",
"$6 c #CBC97B",
"$5 c #CECD7D",
"$4 c #D4D281",
"$3 c #DAD788",
"$2 c #E2DF91",
"$1 c #EAE89B",
"$| c #EDEB9D",
"$} c #FBF09A",
"$[ c #FFEF9B",
"$< c #F1E8A3",
"$: c #E8E4A8",
"$_ c #6F6A46",
"$( c #534C28",
"$/ c #514A27",
"$^ c #665C34",
"$] c #796D3B",
"${ c #877D43",
"$~ c #91894A",
"$! c #9B9752",
"$) c #A9A55C",
"$' c #B3B064",
"$, c #B8B669",
"$> c #BBB96C",
"$; c #C0BD73",
"$- c #C4C278",
"$= c #C7C67D",
"$* c #CCCA80",
"$& c #CCCB82",
"$% c #CDCB83",
"$$ c #CCCB81",
"$# c #CCCC80",
"$@ c #CDCC7F",
"$+ c #CFCE7E",
"#Z c #D2D07E",
"#Y c #D5D282",
"#X c #ECE993",
"#W c #FBF099",
"#V c #FEEE9A",
"#U c #F6E9A2",
"#T c #6A6649",
"#S c #554F33",
"#R c #4B4325",
"#Q c #645931",
"#P c #7E723D",
"#O c #938849",
"#N c #A19955",
"#M c #ABA65E",
"#L c #B6B367",
"#K c #BFBD71",
"#J c #C6C376",
"#I c #C9C67A",
"#H c #CCCA83",
"#G c #CCCC85",
"#F c #C9C982",
"#E c #C0BE7A",
"#D c #BEBE7E",
"#C c #C5C681",
"#B c #CCCC88",
"#A c #D1D28E",
"#z c #D3D28A",
"#y c #D2D186",
"#x c #D2D081",
"#w c #D3D282",
"#v c #DAD884",
"#u c #EAE68F",
"#t c #F4EF98",
"#s c #FAEF98",
"#r c #F9EC9D",
"#q c #F7EAA3",
"#p c #83817A",
"#o c #5A5643",
"#n c #484226",
"#m c #655A30",
"#l c #847641",
"#k c #A09351",
"#j c #B0A961",
"#i c #BEB46A",
"#h c #C6C173",
"#g c #CCC77C",
"#f c #D5CE84",
"#e c #D9D288",
"#d c #DBD288",
"#c c #D3CA7B",
"#b c #ACA863",
"#a c #7A784B",
"#0 c #6E6B3E",
"#9 c #7C8044",
"#8 c #8A8D4F",
"#7 c #AAAD6B",
"#6 c #C6C885",
"#5 c #D1D18E",
"#4 c #D2D28E",
"#3 c #D4D38A",
"#2 c #D7D588",
"#1 c #DBD988",
"#| c #E1DE8A",
"#} c #F5EC95",
"#[ c #F9EC99",
"#< c #F4E9A6",
"#: c #EAE3B3",
"#_ c #848378",
"#( c #5B5740",
"#/ c #5F562E",
"#^ c #8A7A44",
"#] c #A99B57",
"#{ c #BCAE66",
"#~ c #CCBB70",
"#! c #D4C77A",
"#) c #DCD085",
"#' c #E8DD97",
"#, c #EDE19A",
"#> c #E9DA8E",
"#; c #CABF71",
"#- c #A8A166",
"#= c #726D4A",
"#* c #534E29",
"#& c #6B6C39",
"#% c #5A5B2B",
"#$ c #70753E",
"## c #A1A265",
"#@ c #C6C784",
"#+ c #D0D18D",
"@Z c #D8D790",
"@Y c #DCD98D",
"@X c #EAE58E",
"@W c #F7EA94",
"@V c #F3E8A1",
"@U c #E4DEB0",
"@T c #A4A4A3",
"@S c #828071",
"@R c #5D5739",
"@Q c #827341",
"@P c #AB9957",
"@O c #C1AF66",
"@N c #D9C77D",
"@M c #E5D78D",
"@L c #F1E6A1",
"@K c #F2E6A1",
"@J c #E0D58A",
"@I c #BEB970",
"@H c #BBB47E",
"@G c #7F7C4E",
"@F c #5F5930",
"@E c #8D8A51",
"@D c #767442",
"@C c #757642",
"@B c #949559",
"@A c #BCBE7C",
"@z c #CCCE8B",
"@y c #D9D790",
"@x c #DCD98C",
"@w c #E1DE8B",
"@v c #ECE690",
"@u c #F4E99B",
"@t c #E6DEB1",
"@s c #D8D5B9",
"@r c #726D59",
"@q c #786B40",
"@p c #A69453",
"@o c #C0AD65",
"@n c #D1BC73",
"@m c #DAC77D",
"@l c #E4D68C",
"@k c #ECE29C",
"@j c #E9E099",
"@i c #D4CD81",
"@h c #BEB971",
"@g c #BDB87C",
"@f c #7D7D4A",
"@e c #605A30",
"@d c #979455",
"@c c #86844B",
"@b c #86844C",
"@a c #9A9A5C",
"@0 c #BEC07E",
"@9 c #CED08C",
"@8 c #D8D994",
"@7 c #DCD990",
"@6 c #DEDA8E",
"@5 c #E5E18D",
"@4 c #EEE494",
"@3 c #F0E5A3",
"@2 c #DFDAB9",
"@1 c #99988E",
"@| c #695E36",
"@} c #8F844F",
"@[ c #B09E59",
"@< c #C3B26B",
"@: c #CABE75",
"@_ c #CEC47D",
"@( c #D2CC83",
"@/ c #D1CC82",
"@^ c #C7C278",
"@] c #BEBA70",
"@{ c #BFBB72",
"@~ c #7E7944",
"@! c #5F592F",
"@) c #A29D57",
"@' c #989654",
"@, c #9E9D5A",
"@> c #B2B06D",
"@; c #CCCD88",
"@- c #D5D692",
"@= c #DFDD91",
"@* c #E6DC8D",
"@& c #EAE094",
"@% c #E3DBB1",
"@$ c #DFD9B8",
"@# c #86805A",
"@@ c #989168",
"@+ c #9A9157",
"+Z c #A7A25C",
"+Y c #B2AC66",
"+X c #B9B66E",
"+W c #BFBD74",
"+V c #C7C579",
"+U c #C6C577",
"+T c #CBCA7C",
"+S c #7A7141",
"+R c #6B6638",
"+Q c #BAB76F",
"+P c #B9B871",
"+O c #C1C17C",
"+N c #CFCF8A",
"+M c #D7D994",
"+L c #D9DB96",
"+K c #DDDC93",
"+J c #E1DD8F",
"+I c #E4DB9E",
"+H c #E2D9AB",
"+G c #D6D4CB",
"+F c #918D73",
"+E c #9A956F",
"+D c #A8A275",
"+C c #AEA465",
"+B c #B8AF68",
"+A c #C0B96F",
"+z c #CDC97A",
"+y c #D3D180",
"+x c #D8D78E",
"+w c #6F683C",
"+v c #827D52",
"+u c #DBDA95",
"+t c #D6D791",
"+s c #D7D893",
"+r c #DAD990",
"+q c #DCDA8E",
"+p c #DCD993",
"+o c #DBD8A1",
"+n c #DEDA9F",
"+m c #E3DD91",
"+l c #AAA273",
"+k c #AFA366",
"+j c #B8AE66",
"+i c #C2BD96",
"+h c #C3BD8C",
"+g c #C8C387",
"+f c #D6CE8E",
"+e c #59532F",
"+d c #978F5A",
"+c c #DAD796",
"+b c #D7CF99",
"+a c #D7D09E",
"+0 c #D8D4A8",
"+9 c #DDD98C",
"+8 c #DCD892",
"+7 c #DCD79C",
"+6 c #CECECE",
"+5 c #474437",
"+4 c #999788",
"+3 c #B9B9B9",
"+2 c #3F3925",
"+1 c #A7A6A4",
"+| c #83827E",
"+} c #3D371E",
"+[ c #C3C1BD",
"+< c #BBBBBB",
"+: c #4B493F",
"+_ c #564F32",
"+( c #CDCDCD",
"+/ c #8A8A89",
"+^ c #3C3828",
"+] c #796F56",
"+{ c #BABABA",
"+~ c #585750",
"+! c #342D0F",
"+) c #989385",
"+' c #B4B4B4",
"+, c #515048",
"+> c #3E3615",
"+; c #ADABA2",
"+- c #B7B7B7",
"+= c #706F69",
"+* c #716C54",
"+& c #BDBCB5",
"+% c #C3C3C3",
"+$ c #918F8A",
"+# c #908D7E",
"+@ c #999685",
"++ c None",
"++++++++++++++++++++++++++++++++++++++++++++++++++++++++++++++++++++++++++++++++++++++++",
"++++++++++++++++++++++++++++++++++++++++++++++++++++++++++++++++++++++++++++++++++++++++",
"+++++++++++++++++++++++++++++++++++++++++++++@+#+$+%++++++++++++++++++++++++++++++++++++",
"+++++++++++++++++++++++++++++++++++++++++++++&+*+=+-++++++++++++++++++++++++++++++++++++",
"+++++++++++++++++++++++++++++++++++++++++++++;+>+,+'++++++++++++++++++++++++++++++++++++",
"+++++++++++++++++++++++++++++++++++++++++++++)+!+~+{++++++++++++++++++++++++++++++++++++",
"+++++++++++++++++++++++++++++++++++++++++++++]+^+/++++++++++++++++++++++++++++++++++++++",
"+++++++++++++++++++++++++++++++++++++++++++(+_+:+<++++++++++++++++++++++++++++++++++++++",
"+++++++++++++++++++++++++++++++++++++++++++[+}+|++++++++++++++++++++++++++++++++++++++++",
"+++++++++++++++++++++++++++++++++++++++++++1+2+3++++++++++++++++++++++++++++++++++++++++",
"+++++++++++++++++++++++++++++++++++++++++++4+5+6++++++++++++++++++++++++++++++++++++++++",
"+++++++++++++++++++++++++++++7+8+9+0+a+b+c+d+e+f+g+h+i+j+k+l++++++++++++++++++++++++++++",
"+++++++++++++++++++++++++m+n+o+p+q+r+s+t+u+v+w+x+y+z+A+B+C+D+E+F++++++++++++++++++++++++",
"+++++++++++++++++++++G+H+I+J+K+L+M+N+O+P+Q+R+S+T+U+V+W+X+Y+Z@+@@@#++++++++++++++++++++++",
"++++++++++++++++++@$@%@&@*@=+L@-@;@>@,@'@)@!@~@{@]@^@/@(@_@:@<@[@}@|@1++++++++++++++++++",
"++++++++++++++++@2@3@4@5@6@7@8@9@0@a@b@c@d@e@f@g@h@i@j@k@l@m@n@o@p@q@r@1++++++++++++++++",
"++++++++++++++@s@t@u@v@w@x@y+s@z@A@B@C@D@E@F@G@H@I@J@K@L@M@N@n@O@P@Q@R@S@T++++++++++++++",
"++++++++++++++@U@V@W@X@w@Y@Z+t#+#@###$#%#&#*#=#-#;#>#,#'#)#!#~#{#]#^#/#(#_++++++++++++++",
"++++++++++++#:#<#[#}@X#|#1#2#3#4#5#6#7#8#9#0#a#b#c#d#e#f#g#h#i#j#k#l#m#n#o#p++++++++++++",
"++++++++++++#q#r#s#t#u#|#v#w#x#y#z#A#+#B#C#D#E#F#G#H#I#J#K#L#M#N#O#P#Q#R#S#T++++++++++++",
"++++++++++++#U#V#W#t#X#|#v#Y#Z$+$@$#$$#G$%$&$*$=$-$;$>$,$'$)$!$~${$]$^$/$($_++++++++++++",
"++++++++++$:$<$[$}#t$|$1$2$3$4$5$6$7$8$8$9$0$0$a$b#L$c$d$e$f$g$h$i$j$k$l$m$n++++++++++++",
"++++++++++$o$p$q$r$s$t$u$v$w$x$y$z$A$a$B$C$D$E$F$G$H$I$J$K$L$M${$N$j$O$P$Q$R$S++++++++++",
"++++++++++$T$U$V$W$X$Y$Z%+%@%#%$%%%&%*$C$D%=%-%;%>%,%'%)%!%~%{%]$N%^%/%(%_%:%<++++++++++",
"++++++++++%[%}%|%|%1$Y%2%3%4%5%6%7%8%9%0%a%b%c%d%e%f%g#k%h%i%j%k%l%m%/%n%o%p%q++++++++++",
"++++++++++%r%s%t%u%v%w%x%y%z%A%B%C%D%E%F%G%c%c%>%H%I%J%K%L%M%N%O%P$j%Q%R%S%T%U++++++++++",
"++++++++++%V%W%X%Y%Z&+&@&#&$&%&&&*&=&-&;&>&,&'&)%H&!&~&{&]&^&/&(&_$j%m&:&<&[&}++++++++++",
"++++++++++&|&1&2&3&4&5&6&7&8&9&0&a&b&c&d&e&f&g&h&i&!&j&k&l&m&n&o&p%m&q&r&s&t&u++++++++++",
"++++++++++&v&w&x&y&z&A&B&C&D&E&F&G&H&I&J&K%>&L&i&M&N&O&P&Q&R&S&T&U&V&W&X&Y&Z++++++++++++",
"++++++++++++*+*@*#*$*%*&***=*-*;*>*,*'*)*!*~*{*]%)*^*/*(*_*:*<*[*}*|*1*2%f*3++++++++++++",
"++++++++++++*4*5*6*7*8*9*0*a$F*b$)*c*d*e*f*g*h*i*j*k*l*m*n*o*p*q*r*s*t*u*v*w++++++++++++",
"++++++++++++++*x*y*z*A*B*C*D*E*F*G*H*I*J*K*L$K*M*N*O*P*Q*R*[*S*T*U*V*W*X*Y++++++++++++++",
"++++++++++++++*Z=+=@=#=$=%=&=*===-=;=>=,='=)=!=~${={=]&U=^=/=(=_%h=:=<=[=}++++++++++++++",
"++++++++++++++=|=1=2=3=4=5%K=6=7=8=9*m=0=a=b=c=d=e=f=g=h=i=j*O=k#k=l=m=n++++++++++++++++",
"++++++++++++++++=o=p=q=r=s=t=u=v=w=b=x=y=z=A=B*p=C=g=D=E=F$h=G=H=I=J=K=L++++++++++++++++",
"++++++++++++++++=M=N=O=P=Q=R=S=T*<=U=V=V=W=X=Y=Z-+-@-#-$-%-&-*-=---;->++++++++++++++++++",
"+++++++++++++++++++@-,=0-'-)-)-!-~-{-]-^-/-(-_-:-<-[-}-|-1-2-3-4-5-6+@++++++++++++++++++",
"++++++++++++++++++++-7-8-9-0-a-b-c-d-e-f-g-h-i-j-k=E-l-m-n-o-p-q-r-s++++++++++++++++++++",
"++++++++++++++++++++++-t-u-v-w-x-y-z-A-B-C-D-E@!-k-F-G-H-n-I-J-K-L++++++++++++++++++++++",
"++++++++++++++++++++++++-M-N-O-O-O-O-P-Q-R-S-T-i-U=E-V-W-X-Y-Z;+++++++++++++++++++++++++",
"++++++++++++++++++++++++++;@;@;#;$;%;&;*;=;-;;;>;,;';);!;~;{;]++++++++++++++++++++++++++",
"++++++++++++++++++++++++++++++++;^;/;(;_;:;<;[;};|-$;1;2;3++++++++++++++++++++++++++++++",
"++++++++++++++++++++++++++++++++++++++;4;5;6;7-k;8;9;0++++++++++++++++++++++++++++++++++",
"++++++++++++++++++++++++++++++++++++++++++++++++++++++++++++++++++++++++++++++++++++++++"};
