/* XPM */
static char * ball_red_xpm[] = {
"21 21 207 2",
"#2 c #B2B0AE",
"#1 c #988684",
"#| c #775E5B",
"#} c #A49E9E",
"#[ c #9E8684",
"#< c #855E58",
"#: c #5F1A11",
"#_ c #512B26",
"#( c #6D5C59",
"#/ c #8A514A",
"#^ c #62140A",
"#] c #550B01",
"#{ c #4D0A01",
"#~ c #440901",
"#! c #451A15",
"#) c #948886",
"#' c #985F57",
"#, c #894239",
"#> c #681005",
"#; c #5C0C01",
"#- c #540B01",
"#= c #4E0A01",
"#* c #470901",
"#& c #3E0701",
"#% c #3B120D",
"#$ c #7D6F6D",
"## c #9E9999",
"#@ c #A97872",
"#+ c #8B4036",
"@Z c #711105",
"@Y c #680D01",
"@X c #620D01",
"@W c #570B01",
"@V c #520B01",
"@U c #4F0B01",
"@T c #4B0A01",
"@S c #460A02",
"@R c #43110B",
"@Q c #786563",
"@P c #CBC4C2",
"@O c #9F6961",
"@N c #7A1608",
"@M c #761002",
"@L c #700D01",
"@K c #711102",
"@J c #6F0E02",
"@I c #6C1003",
"@H c #600F03",
"@G c #5D0D02",
"@F c #540C02",
"@E c #500E03",
"@D c #532017",
"@C c #79615E",
"@B c #BFAAA6",
"@A c #8A2D21",
"@z c #7B1002",
"@y c #801002",
"@x c #871002",
"@w c #831604",
"@v c #841504",
"@u c #791805",
"@t c #771404",
"@s c #681204",
"@r c #680F02",
"@q c #5D0E03",
"@p c #72443E",
"@o c #A19290",
"@n c #AA756E",
"@m c #851002",
"@l c #8A1103",
"@k c #941403",
"@j c #9C1A06",
"@i c #961F08",
"@h c #9F2009",
"@g c #A61C07",
"@f c #A71D09",
"@e c #A8210D",
"@d c #9C240E",
"@c c #971C07",
"@b c #801706",
"@a c #6B1707",
"@0 c #AA908C",
"@9 c #9B4439",
"@8 c #981403",
"@7 c #A51A06",
"@6 c #B0230B",
"@5 c #B02009",
"@4 c #BD1F08",
"@3 c #BA250C",
"@2 c #BD2811",
"@1 c #B52A11",
"@| c #BC2A12",
"@} c #BB2912",
"@[ c #B02D16",
"@< c #AD200B",
"@: c #991D09",
"@_ c #A1655A",
"@( c #A03527",
"@/ c #AB1905",
"@^ c #BD1E07",
"@] c #C0290E",
"@{ c #D53F1B",
"@~ c #CE3816",
"@! c #CD3717",
"@) c #CE2A0D",
"@' c #CB3F27",
"@, c #CB4730",
"@> c #CB4931",
"@; c #CA3218",
"@- c #C82B10",
"@= c #B9270D",
"@* c #A93E2D",
"@& c #AD5347",
"@% c #B11A06",
"@$ c #BC2109",
"@# c #D43414",
"@@ c #D44620",
"@+ c #D74B23",
"+Z c #DC451F",
"+Y c #D73615",
"+X c #DE634B",
"+W c #E78A78",
"+V c #E16954",
"+U c #D04125",
"+T c #CE3918",
"+S c #D12E10",
"+R c #BD4F39",
"+Q c #B77A72",
"+P c #B4200D",
"+O c #C31F08",
"+N c #CD2E0F",
"+M c #DE4A23",
"+L c #E05329",
"+K c #DC4C24",
"+J c #DF4E2D",
"+I c #E5816D",
"+H c #ED9584",
"+G c #DD644A",
"+F c #D14124",
"+E c #DC3814",
"+D c #DC3512",
"+C c #CE7766",
"+B c #C7A6A2",
"+A c #BF665A",
"+z c #B61C08",
"+y c #C92308",
"+x c #D83714",
"+w c #DB431D",
"+v c #DB411C",
"+u c #E04320",
"+t c #E56448",
"+s c #E47159",
"+r c #B83A22",
"+q c #BC2C10",
"+p c #E43814",
"+o c #DC5E43",
"+n c #D2A8A0",
"+m c #C5CAC3",
"+l c #B2B3A3",
"+k c #A8543F",
"+j c #B31504",
"+i c #C9250A",
"+h c #D72C0E",
"+g c #AE532D",
"+f c #C73E1E",
"+e c #E34724",
"+d c #B93119",
"+c c #791205",
"+b c #A25933",
"+a c #CB6848",
"+0 c #D6A499",
"+9 c #D2D3D1",
"+8 c #BBC1B5",
"+7 c #90A27D",
"+6 c #8A7C52",
"+5 c #88432A",
"+4 c #773B21",
"+3 c #7C7B4E",
"+2 c #838A59",
"+1 c #925A32",
"+| c #81633C",
"+} c #899A6A",
"+[ c #9AB587",
"+< c #ADA98F",
"+: c #C3C7BF",
"+_ c #AFBEA5",
"+( c #AFC1A6",
"+/ c #A2B596",
"+^ c #9CAB8D",
"+] c #6E8057",
"+{ c #A7BB9A",
"+~ c #AABB9B",
"+! c #A7BB98",
"+) c #B8C5B3",
"+' c #80866B",
"+, c #8E9D7C",
"+> c #AEAEA8",
"+; c #74845D",
"+- c #A9B8A1",
"+= c #BEBDBB",
"+* c #879376",
"+& c #96A58A",
"+% c #BBC4B5",
"+$ c #C8C8C7",
"+# c #A7AF9C",
"+@ c #C2C9BF",
"++ c None",
"++++++++++++++++++++++++++++++++++++++++++",
"+++++++++++++++++++++++@+#+$++++++++++++++",
"+++++++++++++++++++++%+&+*+=++++++++++++++",
"+++++++++++++++++++++-+;+>++++++++++++++++",
"+++++++++++++++++++++,+'++++++++++++++++++",
"+++++++++++++)+!+~+{+]+^+/+(+_+:++++++++++",
"+++++++++++<+[+}+|+1+2+3+4+5+6+7+8++++++++",
"+++++++9+0+a+b+c+d+e+f+g+h+i+j+k+l+m++++++",
"+++++++n+o+p+q+r+s+t+u+v+w+x+y+z+A+B++++++",
"+++++++C+D+E+F+G+H+I+J+K+L+M+N+O+P+Q++++++",
"+++++++R+S+T+U+V+W+X+Y+Z@+@@@#@$@%@&++++++",
"++++++@*@=@-@;@>@,@'@)@!@~@{@]@^@/@(++++++",
"++++++@_@:@<@[@}@|@1@2@3@4@5@6@7@8@9++++++",
"++++++@0@a@b@c@d@e@f@g@h@i@j@k@l@m@n++++++",
"++++++@o@p@q@r@s@t@u@v@w@x@t@y@z@A@B++++++",
"++++++++@C@D@E@F@G@H@I@J@K@L@M@N@O@P++++++",
"+++++++++=@Q@R@S@T@U@V@W@X@Y@Z#+#@++++++++",
"++++++++++###$#%#&#*#=#-#;#>#,#'++++++++++",
"++++++++++++++#)#!#~#{#]#^#/++++++++++++++",
"++++++++++++++++#(#_@T#:#<#[++++++++++++++",
"++++++++++++++++++#}#|#1#2++++++++++++++++"};
