/* XPM */
static char * Pear_xpm[] = {
"48 48 256 2",
"  	c None",
". 	c #B6D268",
"+ 	c #857536",
"@ 	c #D4F857",
"# 	c #CDFD73",
"$ 	c #878D37",
"% 	c #C3C3C3",
"& 	c #D2D3D1",
"* 	c #D3DAC5",
"= 	c #BBD545",
"- 	c #D3FE73",
"; 	c #89923A",
"> 	c #A4B95D",
", 	c #92813A",
"' 	c #7D8272",
") 	c #A8A842",
"! 	c #AAD45B",
"~ 	c #C5EA49",
"{ 	c #A9A9A9",
"] 	c #C7CA5C",
"^ 	c #C7C7A5",
"/ 	c #E8FB5B",
"( 	c #9A9A9A",
"_ 	c #B9DB5E",
": 	c #A5BD69",
"< 	c #D4DDBC",
"[ 	c #BEE25C",
"} 	c #B2D45C",
"| 	c #A3A3A3",
"1 	c #D1FF8A",
"2 	c #B2B2B2",
"3 	c #BAC842",
"4 	c #8B8C89",
"5 	c #B2DA5D",
"6 	c #AAA93D",
"7 	c #A19C3C",
"8 	c #BDE361",
"9 	c #D4FF7A",
"0 	c #D5DD63",
"a 	c #CEE653",
"b 	c #D0FF8E",
"c 	c #DAFF83",
"d 	c #969858",
"e 	c #D1FD6C",
"f 	c #D6FF85",
"g 	c #C3D968",
"h 	c #CAFB6C",
"i 	c #4F5642",
"j 	c #E5FD6E",
"k 	c #9B9A3C",
"l 	c #D3E2B4",
"m 	c #7C7D78",
"n 	c #A69540",
"o 	c #D0DD57",
"p 	c #B9B9B9",
"q 	c #605D4C",
"r 	c #899442",
"s 	c #84A159",
"t 	c #9EBB53",
"u 	c #D1FF90",
"v 	c #A9B53D",
"w 	c #A4CD5D",
"x 	c #C4C3B5",
"y 	c #CCED62",
"z 	c #9AC852",
"A 	c #A2C25E",
"B 	c #CECECE",
"C 	c #D0FF8C",
"D 	c #9BBB63",
"E 	c #6F6948",
"F 	c #737050",
"G 	c #DCE353",
"H 	c #EEFFD7",
"I 	c #686859",
"J 	c #C1BB4A",
"K 	c #B4BE42",
"L 	c #A2C655",
"M 	c #D4EAA4",
"N 	c #94997B",
"O 	c #E0F153",
"P 	c #74904B",
"Q 	c #CBDF4C",
"R 	c #AAAC94",
"S 	c #9EC566",
"T 	c #C1E662",
"U 	c #9DA544",
"V 	c #C2EB62",
"W 	c #CAF76C",
"X 	c #E5FFAE",
"Y 	c #7D9643",
"Z 	c #D3E252",
"` 	c #A7D35D",
" .	c #848D41",
"..	c #9AB544",
"+.	c #CDDF56",
"@.	c #D4DD4E",
"#.	c #9BB154",
"$.	c #D3F593",
"%.	c #A8B546",
"&.	c #CDFF80",
"*.	c #7C8D3C",
"=.	c #ABCB48",
"-.	c #C4F266",
";.	c #CCF265",
">.	c #BFCD52",
",.	c #C9CBC2",
"'.	c #869B51",
").	c #C8C84E",
"!.	c #D0FF86",
"~.	c #D8FD73",
"{.	c #ACC35C",
"].	c #C9E45F",
"^.	c #7C835A",
"/.	c #9AB459",
"(.	c #D3F59B",
"_.	c #B4B544",
":.	c #797B3A",
"<.	c #9EA83C",
"[.	c #93B463",
"}.	c #AFB2A8",
"|.	c #DFFF7D",
"1.	c #D4FC63",
"2.	c #D2DE71",
"3.	c #DAED56",
"4.	c #9DBB5E",
"5.	c #DDFF63",
"6.	c #DBFF7D",
"7.	c #97B45F",
"8.	c #D4E35E",
"9.	c #DAF96C",
"0.	c #A3BD4A",
"a.	c #BDE455",
"b.	c #C4E962",
"c.	c #C1E251",
"d.	c #8FA249",
"e.	c #A2B146",
"f.	c #CAD249",
"g.	c #C5ED65",
"h.	c #CCDA59",
"i.	c #C0E55D",
"j.	c #C4E959",
"k.	c #ADD357",
"l.	c #A3BC45",
"m.	c #7B8237",
"n.	c #D5FF80",
"o.	c #C8C8C8",
"p.	c #DAFFA7",
"q.	c #8BAA5F",
"r.	c #9E8F3D",
"s.	c #6B8545",
"t.	c #D4FF8C",
"u.	c #D4FF8A",
"v.	c #C1DA49",
"w.	c #B2D456",
"x.	c #BFEA64",
"y.	c #5E6837",
"z.	c #95933C",
"A.	c #C5EC61",
"B.	c #C6DC5B",
"C.	c #DCFF8A",
"D.	c #C8F56A",
"E.	c #9A9D83",
"F.	c #BABC46",
"G.	c #B4C554",
"H.	c #797F43",
"I.	c #BEC1B7",
"J.	c #AFBF81",
"K.	c #D0E7AA",
"L.	c #BDB746",
"M.	c #616639",
"N.	c #808736",
"O.	c #95AB4D",
"P.	c #D1E24C",
"Q.	c #6F784A",
"R.	c #CEE171",
"S.	c #6D7554",
"T.	c #B4BD3E",
"U.	c #ADAFA3",
"V.	c #CECECA",
"W.	c #C8E652",
"X.	c #769452",
"Y.	c #98AA55",
"Z.	c #D1EC7A",
"`.	c #97BB58",
" +	c #AABB46",
".+	c #D0FA8B",
"++	c #D1F88E",
"@+	c #9EA297",
"#+	c #C0BFBD",
"$+	c #BBC473",
"%+	c #384A13",
"&+	c #D5E852",
"*+	c #D6EC59",
"=+	c #D8E457",
"-+	c #A0B260",
";+	c #B9BBB3",
">+	c #CEDA70",
",+	c #6B6A66",
"'+	c #6F7561",
")+	c #777C66",
"!+	c #E4E45E",
"~+	c #ADCE5D",
"{+	c #D3F769",
"]+	c #B7BB53",
"^+	c #D7FE91",
"/+	c #A0B64D",
"(+	c #AAB248",
"_+	c #988E49",
":+	c #AEBD4E",
"<+	c #99A94F",
"[+	c #6E853F",
"}+	c #C5D748",
"|+	c #C2DA46",
"1+	c #C6C8C0",
"2+	c #BBDE57",
"3+	c #B7BB48",
"4+	c #949636",
"5+	c #AED657",
"6+	c #8F993F",
"7+	c #A7A88C",
"8+	c #B7DF54",
"9+	c #B0B39E",
"0+	c #6D792A",
"a+	c #716633",
"b+	c #D2FF82",
"c+	c #D9EF9A",
"d+	c #CFF58C",
"e+	c #BAD25D",
"f+	c #73873F",
"g+	c #768C3E",
"h+	c #C7E96C",
"i+	c #7D803B",
"j+	c #B4DF5A",
"k+	c #92A046",
"l+	c #B9E85F",
"m+	c #96A54F",
"n+	c #9AA44A",
"o+	c #C3EC67",
"p+	c #505A34",
"q+	c #C6E965",
"r+	c #82876F",
"s+	c #888E72",
"t+	c #95976D",
"u+	c #B7CC51",
"v+	c #B0D05E",
"w+	c #A7C758",
"x+	c #BBC155",
"y+	c #BBC958",
"z+	c #93B768",
"A+	c #8B8C53",
"B+	c #A5C96A",
"C+	c #C3D451",
"D+	c #AED75E",
"E+	c #C5DF57",
"F+	c #BFCE63",
"G+	c #869649",
"                                                                                                ",
"                                                                                                ",
"                                                                                                ",
"                                              ^.@+                                              ",
"                                              Q.}.                                              ",
"                                            & ^.o.                                              ",
"                                            V.s+&                                               ",
"                                            1+r+                                                ",
"                                            #+S.&                                               ",
"                                            x %+U.&                                             ",
"                                        * c+Z.0+:.F ' %                                         ",
"                                      < ^+C.|.j ] _+M.i #+                                      ",
"                                    & (.^+c |.9.0 ]+r p+'+                                      ",
"                                    l ^+p.H X 9.8.G.d.y.y.I.                                    ",
"                                    M t.p.H X 9.B.t d.:.m.R                                     ",
"                                    $.c C.c ~.y _ t O.; z.t+                                    ",
"                                  * f 6.6.{+y ].w.t #.k+z.d &                                   ",
"                                  < n.6.~.{+y i.w.`.> <+7 7 x                                   ",
"                                  M n.~.- ;.y i.w.t > -+U ) R                                   ",
"                                & d+n.- e ;.A.[ k.t > -+U ) d                                   ",
"                                l b+n.- e ;.A.[ 5+t > -+n+) k 9+                                ",
"                              & ++u.n.- e ;.A.i.5+L A : m+U z.A+B                               ",
"                              K.u 1 f - e -.V i.5 L 4.: Y.r ; $ E.                              ",
"                            * .+b 1 t.n.e -.V i.5 L /.D #.G+ .; i+;+                            ",
"                          & $.C b 1 t.f - D.V [ } L `.7.7.'.f+*.$ ^.B                           ",
"                          K.1 b b 1 u f - h g.V 2+` A 4.[.s s.f+*.N.E.                          ",
"                        & ++C b 1 u.u f - h g.T i.D+w A D q.P [+*.N.H.,.                        ",
"                        l !.b b 1 t.t.f - W g.x.i.D+w A D q.X.s.*.; m.7+                        ",
"                        (.u u 1 u.1 t.n.# D.b.b.T 5 ` A D [.s P g+; $ d                         ",
"                      & .+u u 1 u.u.f 9 W D.b.8 8 5 ` w D z+q.s Y ; ; r ,.                      ",
"                      < !.u b b u.f b+h D.g.T T _ 5 ` w S S : #.d.6+k 6+^                       ",
"                      l !.b C C t.u.9 W g.q+x._ 5 ! ` ` S B+. {./+U <.v ^                       ",
"                      l &.!.!.1 u.!.# D.q+8 8 _ 5 w j+[ D+. g F+G.e...l.^                       ",
"                      l &.&.f b+!.# # o+T v+v+v+D+w 2+8.].. R.>+y+e... +^                       ",
"                      l - 9 6.n.&.# -.x._ e+_ ~+D+! 2+=+0 g 2.2.] %.l.F.^                       ",
"                      * e ~.|.9 # h x.} {.h.B.` ` j+j.*+!+0 R.>+x+(+%.J <                       ",
"                      & h+5.j - e e l+_ w+h.+.w+! 2+a.&+!+0 g ] :+%.3+] B                       ",
"                        J.5.5.5.1.1.i._ w.o =+2+5+8+a G =+a h.>.0.(+).$+                        ",
"                        U.@ 5./ @ @ j.E+u+Z G j.a.c.&+Z a c.5+L l.F.P.R                         ",
"                      & % > @ O 3.3.W.+.C+@.=+a W.W.G Q v.w.z z F.}+y+#+                        ",
"                      & o.N |+Q P.@.Q ).).@.@.@.Q Q Q |+= =.K T.3 ~ N o.&                       ",
"                      & % { '.= K L.J J L.f.f.f.v.|+= = 3 6 6 F.~ /+{ % &                       ",
"                      & o.2 4 k+_.r.7 ) ) 3 K _.K K K T.6 7 6 3 =.4 2 o.&                       ",
"                        B p | m  .n , r.r.) 7 k 7 7 7 k k 7  +..' @+p B                         ",
"                        & o.2 ( m E + , r.n , , , , , 4+<.v G+' ( 2 % &                         ",
"                          B % 2 ( 4 ,+q a++ + + + i+$ 4+*.)+4 ( 2 % B                           ",
"                            B % 2 | ( 4 m I q q q I S.m 4 ( { 2 % B                             ",
"                              B o.% 2 { | ( ( ( ( ( ( | { 2 #+o.B                               "};
