/* XPM */
static char * Strawberry_xpm[] = {
"48 48 256 2",
"  	c None",
". 	c #C61E07",
"+ 	c #A73619",
"@ 	c #B31A06",
"# 	c #D6471C",
"$ 	c #E5572C",
"% 	c #985F57",
"& 	c #9A6E47",
"* 	c #B29896",
"= 	c #98240E",
"- 	c #7B1303",
"; 	c #620C02",
"> 	c #751404",
", 	c #DF664D",
"' 	c #E77B67",
") 	c #9AB686",
"! 	c #C94729",
"~ 	c #430901",
"{ 	c #7C9865",
"] 	c #750E01",
"^ 	c #EE8976",
"/ 	c #811103",
"( 	c #8D230A",
"_ 	c #CB230A",
": 	c #768566",
"< 	c #8D1103",
"[ 	c #BBC4B5",
"} 	c #D43C1A",
"| 	c #5B6C3D",
"1 	c #D93414",
"2 	c #B93929",
"3 	c #691304",
"4 	c #A95B50",
"5 	c #870F02",
"6 	c #667A47",
"7 	c #BD4824",
"8 	c #992B0F",
"9 	c #6A2816",
"0 	c #BC220A",
"a 	c #DB4922",
"b 	c #CBCDC9",
"c 	c #303B1B",
"d 	c #CB2B11",
"e 	c #9C1403",
"f 	c #B1774A",
"g 	c #AB1D09",
"h 	c #9C1B0A",
"i 	c #D52D0E",
"j 	c #D85B37",
"k 	c #844D41",
"l 	c #C53D23",
"m 	c #B2B0AE",
"n 	c #A7260B",
"o 	c #C2C9BB",
"p 	c #631406",
"q 	c #521104",
"r 	c #7B0F01",
"s 	c #B3BDAC",
"t 	c #A21504",
"u 	c #AD1A05",
"v 	c #E43411",
"w 	c #A62C19",
"x 	c #C3240B",
"y 	c #872C21",
"z 	c #E86D58",
"A 	c #BE1B06",
"B 	c #9C0900",
"C 	c #E64B24",
"D 	c #EE9484",
"E 	c #C7481D",
"F 	c #BB3213",
"G 	c #9B1C07",
"H 	c #E53C15",
"I 	c #F06938",
"J 	c #DC3B1A",
"K 	c #B6C2AE",
"L 	c #510A01",
"M 	c #CD290D",
"N 	c #D84933",
"O 	c #A31A06",
"P 	c #D35641",
"Q 	c #CBC4C2",
"R 	c #DB2B0D",
"S 	c #4F5F2B",
"T 	c #C5CAC3",
"U 	c #BD1F08",
"V 	c #D4260A",
"W 	c #CE6449",
"X 	c #480901",
"Y 	c #CB8576",
"Z 	c #7B945E",
"` 	c #889977",
" .	c #862617",
"..	c #680E02",
"+.	c #BEBDBB",
"@.	c #8D1905",
"#.	c #A61C0A",
"$.	c #DE3110",
"%.	c #550B01",
"&.	c #6D0D01",
"*.	c #C5280C",
"=.	c #B4240C",
"-.	c #CC341A",
";.	c #5E0C01",
">.	c #931203",
",.	c #8DAD73",
"'.	c #CB4935",
").	c #DF4529",
"!.	c #C95537",
"~.	c #35120E",
"{.	c #A97872",
"].	c #BE270E",
"^.	c #86A474",
"/.	c #B4311B",
"(.	c #DC3815",
"_.	c #95AC7B",
":.	c #887978",
"<.	c #B41E09",
"[.	c #3F0802",
"}.	c #D53412",
"|.	c #8DB07D",
"1.	c #D22D13",
"2.	c #4D0901",
"3.	c #5A0D02",
"4.	c #AA1303",
"5.	c #9E9999",
"6.	c #350902",
"7.	c #F3A99D",
"8.	c #550C02",
"9.	c #EB5D3D",
"0.	c #DF441F",
"a.	c #AB817C",
"b.	c #390701",
"c.	c #D73C23",
"d.	c #83A46D",
"e.	c #D2D3D1",
"f.	c #8EAE78",
"g.	c #8DB880",
"h.	c #9E4124",
"i.	c #811C08",
"j.	c #490C02",
"k.	c #4E0D02",
"l.	c #590B01",
"m.	c #766967",
"n.	c #D53917",
"o.	c #B22A0E",
"p.	c #E33B18",
"q.	c #A5AB96",
"r.	c #D2C9C8",
"s.	c #6B1907",
"t.	c #801704",
"u.	c #420701",
"v.	c #93B37F",
"w.	c #B61403",
"x.	c #5E0A02",
"y.	c #BBA49F",
"z.	c #CC3F1A",
"A.	c #9AB393",
"B.	c #A8B19B",
"C.	c #3F231F",
"D.	c #350701",
"E.	c #BD3B15",
"F.	c #951805",
"G.	c #E75E40",
"H.	c #A7A4A4",
"I.	c #D23419",
"J.	c #C4C4C4",
"K.	c #A9726B",
"L.	c #E12D0D",
"M.	c #520C02",
"N.	c #5F0D04",
"O.	c #D22006",
"P.	c #480E04",
"Q.	c #581004",
"R.	c #944020",
"S.	c #D3B9B5",
"T.	c #6E1003",
"U.	c #71804D",
"V.	c #727F49",
"W.	c #7E9E6B",
"X.	c #6F0000",
"Y.	c #D1715E",
"Z.	c #AE8257",
"`.	c #951F0A",
" +	c #82613A",
".+	c #AABDA3",
"++	c #9B5431",
"@+	c #C42003",
"#+	c #711E06",
"$+	c #2E0501",
"%+	c #E93912",
"&+	c #321612",
"*+	c #B82C0F",
"=+	c #64514F",
"-+	c #F5BCB2",
";+	c #9CAE99",
">+	c #5B472C",
",+	c #C06658",
"'+	c #AF411C",
")+	c #987F7D",
"!+	c #62180E",
"~+	c #691E08",
"{+	c #7EB87D",
"]+	c #ACC0A4",
"^+	c #5C302A",
"/+	c #812F10",
"(+	c #BE2609",
"_+	c #5D4441",
":+	c #918267",
"<+	c #82542E",
"[+	c #8D5E36",
"}+	c #944238",
"|+	c #4C0F04",
"1+	c #D14521",
"2+	c #D24E28",
"3+	c #D94328",
"4+	c #B65B3A",
"5+	c #856865",
"6+	c #9E6962",
"7+	c #490801",
"8+	c #628254",
"9+	c #71693D",
"0+	c #A90F01",
"a+	c #6E7651",
"b+	c #7E7950",
"c+	c #85807F",
"d+	c #881D0E",
"e+	c #B50F00",
"f+	c #C52F11",
"g+	c #C2321A",
"h+	c #CC3511",
"i+	c #C64018",
"j+	c #F7C1B7",
"k+	c #C6AFAE",
"l+	c #CFB2AC",
"m+	c #571B15",
"n+	c #8DA770",
"o+	c #8CA37B",
"p+	c #485722",
"q+	c #DD4E27",
"r+	c #523936",
"s+	c #F12F0D",
"t+	c #6F482D",
"u+	c #8C8E80",
"v+	c #9E8684",
"w+	c #B56A62",
"x+	c #B37972",
"y+	c #97C58D",
"z+	c #4C4F2F",
"A+	c #660C01",
"B+	c #E05328",
"C+	c #700C01",
"D+	c #CFCFCE",
"E+	c #E2512F",
"F+	c #E35F39",
"G+	c #EB5130",
"                                                                                                ",
"                                                                                                ",
"                                                                                                ",
"                                                      T B.D+                                    ",
"                                                    e.A.S +.                                    ",
"                                                    .+6 :                                       ",
"                                                  [ : | D+                                      ",
"                                                b ^.p+m                                         ",
"                                                A.6 :                                           ",
"                                              b Z p++.                                          ",
"                                              s 6 a+                                            ",
"                                              ;+| u+                                            ",
"                                  o o [ o K K ` S q.T K [ [ o D+e.                              ",
"                            T ]+) f.n+,.f.f.v.8+p+Z d.Z W.|.g.v._.A.s D+                        ",
"                          K v.) ) ) ,.Z V.6 U.W.Z f.6 c z+>+t+b+W.d.Z ` [                       ",
"                        K & f.y+d.9+9 t.e (+@+++g.g.<+4.O B B B = [+Z { q.T                     ",
"                      Q W Z.g. +s.X.5 + -.C v O.& {++ V i M . @ 0+e+w :+o+s                     ",
"                    r.G.1+f i+G T.r #.-.).F+%+L.d & E.i R L.R *.A 4.w.2 y.B.T                   ",
"                  e., H v s+i h  .8 l j G.9.9.p.n.i+V (.J v }.h+O.U O u g+Q                     ",
"                  Y p.H H J F n /.! z ^ ^ G.j 0.p.J 0.a } # 1 i V (+A w.<.2 r.                  ",
"                S.J %+v H (.l ].g+c.^ ^ j z ' G+C C $ $ B+B+0.p.R V _ <.<.@ w+                  ",
"                Y.$.}.# (.v 1.7 1+j 7.D , D D 9.C E+a z.q+I $ C n.M *.. A @ g k+                ",
"              l+l $.$.(.n.$.)., ' ^ ' -+j+' W 3+z.E C B+$ B+1+} E.M _ . . @ @ 4                 ",
"              Y *+i L.}.E 1.J 3+z P !.7.7.P 2+(.n.a $ $ $ q+E.} n.i _ ].<.@ @ w k+              ",
"              ,+o.F d $.I.7 g+!.z ' ' D ^ z ).1 i (.0.f+E q+q+q+0.1 . n A @ #.e x+              ",
"              4 =.*+F i _ ! c.N N N '.W P W N R i I.n.f+E a $ a n.F f+A A @ O t 4               ",
"              4 g 0 x *.M V O.F 4+'.l P 2 l -.V (+7 } }.n.} } } d g 0 A A u O >.4               ",
"              {.( h 8 <.w *./.0 '.c._ 1._ _ . M x M M M x x *.x x U A @ @ t F.>.4               ",
"              y. .h `.g =.g R.2 . A U 0 M g '+2 _ A U U U U @ n + 0 O g 4.e >.5 K.              ",
"              r.k t.h h u g <.].h + w h.2 g h.=.@ + 8 x @ @ u = n 4.( G < @.< d+y.              ",
"                v+p > > i.h O u = R.w g <.<.@ U t 8 8 @ ( 8 u t e >.< < 5 5 / }+r.              ",
"                Q 9 q p s./ ~+`.O e O g O F.h G G t t >.i.( F.@.< @.< 5 / / 5 a.                ",
"                  5+Q.N.T.T.3 / > s.i.F.&./+t.i.@.@.@.e < < r /+< / - / r /  .Q                 ",
"                  +.m+P.Q.N.; ..; p p > > - / < / 3 i.>./ r ] &./ r ] r / r K.                  ",
"                    :.j.%.j.|+Q.3.N.; Q.- x.~+> / C+] ] ] ] C+T.t.] - r - y Q                   ",
"                      _+P.j.q M.M.q l.Q...x.p T...3 - ..#+/ C+] T./ ] ] > *                     ",
"                      +.C.k.|+%.2.j.8.8.l.%.%.8.3 C+A+x...> C+A+&.] ] ] {.                      ",
"                        H.~.~ [.P.j.M.7+~ q %.7+L 2.8.3 A+; A+..C+T.] 6+                        ",
"                          5.~.D.[.u.~ k.u.j.%.k.8.2.M.l.l.;...&.&.&.%                           ",
"                            H.&+D.b.D.~ u.X k.L 7+L 3.3.l.; ..A+&.%                             ",
"                              m C.$+D.[.~ u.X k.L L L 3.;.;.....6+                              ",
"                                +.r+D.b.u.j.X L M.8.%.3.;.;.T.a.                                ",
"                                  D+=+b.[.~ X X 2.L %.l.N...)+                                  ",
"                                      m.D.[.~ j.k.L l.N.p v+                                    ",
"                                        c+6.~ X L %.;.!+5.                                      ",
"                                          5.C.~ M.l.^+m                                         ",
"                                            J.:.m.:.J.                                          ",
"                                                                                                "};
