/* XPM */
static char * ball_red_xpm[] = {
"32 32 341 2",
"$K c #BBBAB9",
"$J c #8A8C83",
"$I c #878681",
"$H c #868580",
"$G c #888882",
"$F c #999997",
"$E c #A6A6A6",
"$D c #BBBBBB",
"$C c #C7C7C7",
"$B c #999998",
"$A c #82886C",
"$z c #888D4F",
"$y c #7B8042",
"$x c #77703F",
"$w c #786D3D",
"$v c #7A6F40",
"$u c #726D51",
"$t c #76756F",
"$s c #989897",
"$r c #B0B0B0",
"$q c #C8C8C8",
"$p c #CBCBCA",
"$o c #B2B3B0",
"$n c #8D927E",
"$m c #8E9D50",
"$l c #A3A93C",
"$k c #989B39",
"$j c #978A3A",
"$i c #95893A",
"$h c #A1953E",
"$g c #9B8B3C",
"$f c #8D7D38",
"$e c #807B50",
"$d c #8A8B81",
"$c c #B4B4B4",
"$b c #CCCCCB",
"$a c #9D9E9A",
"$0 c #A2B74F",
"$9 c #ABB540",
"$8 c #A29E3C",
"$7 c #A9AC3D",
"$6 c #ADB240",
"$5 c #ACAE40",
"$4 c #B1B941",
"$3 c #A49F40",
"$2 c #9E973D",
"$1 c #A1983F",
"$| c #939A50",
"$} c #9E9E9D",
"$[ c #C2C2C2",
"$< c #A8BB65",
"$: c #BED345",
"$_ c #B0B440",
"$( c #AFBC41",
"$/ c #BCD344",
"$^ c #C1D947",
"$] c #C4DB49",
"${ c #CDD54A",
"$~ c #C1BD49",
"$! c #C4C44A",
"$) c #C2C547",
"$' c #BFD346",
"$, c #9CAB66",
"$> c #B9B9B6",
"$; c #BBBFA1",
"$- c #BDD151",
"$= c #B2C146",
"$* c #A2C44C",
"$& c #B4D34E",
"$% c #C5DB49",
"$$ c #D1E250",
"$# c #C9E350",
"$@ c #D2E252",
"$+ c #D4DE50",
"#Z c #C6D251",
"#Y c #C9DF51",
"#X c #D7E853",
"#W c #D8EA51",
"#V c #BED858",
"#U c #B8BDA5",
"#T c #B9C074",
"#S c #BDC348",
"#R c #A5C04B",
"#Q c #B3D256",
"#P c #C9E452",
"#O c #D4E353",
"#N c #CBE552",
"#M c #B9DF54",
"#L c #C9E457",
"#K c #D4E153",
"#J c #B9D354",
"#I c #C2E45A",
"#H c #D4F95B",
"#G c #DEFB5C",
"#F c #DBFD60",
"#E c #BBCB83",
"#D c #CECECE",
"#C c #C0C55B",
"#B c #AFB747",
"#A c #B3C150",
"#z c #C5D45F",
"#y c #D7E15D",
"#x c #DAE555",
"#w c #BFE254",
"#v c #B0D758",
"#u c #B9D457",
"#t c #CEDC57",
"#s c #AFD059",
"#r c #BAE35E",
"#q c #D2FC69",
"#p c #D4FD6C",
"#o c #E0FE67",
"#n c #C9E76D",
"#m c #CFD5B4",
"#l c #B6BA47",
"#k c #A8B446",
"#j c #C4CB5F",
"#i c #D4DD63",
"#h c #D9E65A",
"#g c #BBE259",
"#f c #ABD65C",
"#e c #B1D45C",
"#d c #C4D85A",
"#c c #B2D05D",
"#b c #BDE662",
"#a c #CBFC71",
"#0 c #D1FE7A",
"#9 c #DBFE7A",
"#8 c #D3FD70",
"#7 c #A9BA45",
"#6 c #A1B445",
"#5 c #C4CF61",
"#4 c #CFDE70",
"#3 c #C0D865",
"#2 c #D2E25D",
"#1 c #B4D958",
"#| c #ABD45D",
"#} c #B0D05D",
"#[ c #B3D15D",
"#< c #C7F46B",
"#: c #CDFD78",
"#_ c #D1FF82",
"#( c #D4FF80",
"#/ c #CFFE7C",
"#^ c #A1B642",
"#] c #9EAE44",
"#{ c #B1C356",
"#~ c #BCD265",
"#! c #ADCF66",
"#) c #B1D95D",
"#' c #ACD75B",
"#, c #AED65C",
"#> c #BADE5F",
"#; c #BFE562",
"#- c #C6EE66",
"#= c #CDFB71",
"#* c #D2FF88",
"#& c #D1FF8A",
"#% c #D0FF88",
"#$ c #CEFF84",
"## c #D3E2B4",
"#@ c #C7C7A5",
"#+ c #99A13D",
"@Z c #969D3F",
"@Y c #98AD4E",
"@X c #A7BF62",
"@W c #9FC566",
"@V c #A2CB60",
"@U c #A9D45C",
"@T c #B4D95D",
"@S c #BFE461",
"@R c #C3EA64",
"@Q c #C8F469",
"@P c #CFFD78",
"@O c #D4FF88",
"@N c #D1FF8C",
"@M c #D0FF8E",
"@L c #D0FF89",
"@K c #D3DEB9",
"@J c #C9CBC2",
"@I c #8B9343",
"@H c #889139",
"@G c #7C9547",
"@F c #85A35A",
"@E c #95B765",
"@D c #A0C45F",
"@C c #AAD55D",
"@B c #BAE05F",
"@A c #C0E661",
"@z c #C6F167",
"@y c #CEFB72",
"@x c #D5FF83",
"@w c #D3FF8A",
"@v c #D1FF90",
"@u c #D1FA90",
"@t c #959964",
"@s c #858D39",
"@r c #768B40",
"@q c #76934F",
"@p c #92B161",
"@o c #9FBF5F",
"@n c #A8D25D",
"@m c #BAE05E",
"@l c #C2EA63",
"@k c #C7F268",
"@j c #D2FE78",
"@i c #D4FF89",
"@h c #D0FF8C",
"@g c #D2EFA0",
"@f c #ABAE94",
"@e c #818741",
"@d c #778A3D",
"@c c #708A45",
"@b c #8DAC5F",
"@a c #9DBD5F",
"@0 c #A6CD5D",
"@9 c #B8DE5B",
"@8 c #C2E963",
"@7 c #C8F669",
"@6 c #D2FF8C",
"@5 c #D2FF8A",
"@4 c #D0FA8F",
"@3 c #D1E0B8",
"@2 c #BCBDB5",
"@1 c #929770",
"@| c #7F8C3A",
"@} c #73873F",
"@[ c #8AA457",
"@< c #97B55F",
"@: c #9DC159",
"@_ c #AFD359",
"@( c #C0E75F",
"@/ c #C6F368",
"@^ c #D4FE79",
"@] c #D4FF8A",
"@{ c #D0FF8D",
"@~ c #D2EEA1",
"@! c #D1D9C4",
"@) c #B9BBB3",
"@' c #878B4A",
"@, c #868F3C",
"@> c #8D9D4B",
"@; c #9CB75F",
"@- c #9DBB58",
"@= c #ACD35A",
"@* c #C0E75E",
"@& c #C3EF64",
"@% c #D2FD71",
"@$ c #D4FE85",
"@# c #D0FF8B",
"@@ c #D0F793",
"@+ c #ABAD91",
"+Z c #8E9040",
"+Y c #96A147",
"+X c #A0B561",
"+W c #A0C15B",
"+V c #AAD157",
"+U c #C1E75E",
"+T c #C7EF64",
"+S c #D4FE7C",
"+R c #D2FD8B",
"+Q c #D1E4B2",
"+P c #B0B39E",
"+O c #9F9F5B",
"+N c #A3A644",
"+M c #9EAD58",
"+L c #A8CC55",
"+K c #C0E55D",
"+J c #C9F063",
"+I c #D1FD6E",
"+H c #D4FE7B",
"+G c #D1F198",
"+F c #D2DDBD",
"+E c #A3A580",
"+D c #A4A742",
"+C c #9FAD56",
"+B c #A2B959",
"+A c #AACB55",
"+z c #C2E65E",
"+y c #CBF063",
"+x c #D3FD71",
"+w c #D5FE7B",
"+v c #D2E9A3",
"+u c #C8C8BE",
"+t c #9D9A42",
"+s c #98A146",
"+r c #9EB758",
"+q c #A9CB56",
"+p c #C6E75F",
"+o c #D0F366",
"+n c #D9FE78",
"+m c #D7FF80",
"+l c #D3DCBF",
"+k c #959558",
"+j c #8F953D",
"+i c #99B150",
"+h c #AECE58",
"+g c #CEEE65",
"+f c #D6FA76",
"+e c #DBFF84",
"+d c #D6FA89",
"+c c #9B9F7C",
"+b c #707638",
"+a c #96AB4C",
"+0 c #BED359",
"+9 c #DDFB82",
"+8 c #EBFFC9",
"+7 c #D8FE9E",
"+6 c #D4EFA0",
"+5 c #8B907B",
"+4 c #5B643F",
"+3 c #99A549",
"+2 c #CAD45C",
"+1 c #DCFB77",
"+| c #E0FF99",
"+} c #D6FC98",
"+[ c #D3E2B7",
"+< c #C0BFBD",
"+: c #888B81",
"+_ c #75764B",
"+( c #A1A14E",
"+/ c #C6DE63",
"+^ c #DAF988",
"+] c #D5ECA8",
"+{ c #D4DDBC",
"+~ c #C3C3C3",
"+! c #9D9E91",
"+) c #A3A48C",
"+' c #738147",
"+, c #CFDC9E",
"+> c #D3DAC5",
"+; c #8E927D",
"+- c #C2C2BE",
"+= c #9DA18D",
"+* c #CBCCC6",
"+& c #BFC0BD",
"+% c #8E9473",
"+$ c #D2D3D1",
"+# c #A3A79C",
"+@ c #777F54",
"++ c None",
"++++++++++++++++++++++++++++++++++++++++++++++++++++++++++++++++",
"++++++++++++++++++++++++++++++++++++++++++++++++++++++++++++++++",
"+++++++++++++++++++++++++++++++@+#++++++++++++++++++++++++++++++",
"+++++++++++++++++++++++++++++$+%+&++++++++++++++++++++++++++++++",
"+++++++++++++++++++++++++++++*+=+$++++++++++++++++++++++++++++++",
"+++++++++++++++++++++++++++++-+;+$++++++++++++++++++++++++++++++",
"+++++++++++++++++++++++++++>+,+'+)+!+~++++++++++++++++++++++++++",
"+++++++++++++++++++++++++{+]+^+/+(+_+:+<++++++++++++++++++++++++",
"+++++++++++++++++++++++++[+}+|+1+2+3+4+5++++++++++++++++++++++++",
"+++++++++++++++++++++++++6+7+8+9+0+a+b+c++++++++++++++++++++++++",
"+++++++++++++++++++++++>+d+e+f+g+h+i+j+k+$++++++++++++++++++++++",
"+++++++++++++++++++++++l+m+n+o+p+q+r+s+t+u++++++++++++++++++++++",
"+++++++++++++++++++++$+v+w+x+y+z+A+B+C+D+E++++++++++++++++++++++",
"+++++++++++++++++++++F+G+H+I+J+K+L+B+M+N+O+P++++++++++++++++++++",
"+++++++++++++++++++++Q+R+S+I+T+U+V+W+X+Y+Z@+++++++++++++++++++++",
"+++++++++++++++++++>@@@#@$@%@&@*@=@-@;@>@,@'@)++++++++++++++++++",
"++++++++++++++++@!@~@{@#@]@^@/@(@_@:@<@[@}@|@1@2++++++++++++++++",
"++++++++++++++++@3@4@{@5@6@^@7@8@9@0@a@b@c@d@e@f++++++++++++++++",
"++++++++++++++++@g@h@#@5@i@j@k@l@m@n@o@p@q@r@s@t++++++++++++++++",
"+++++++++++++++$@u@v@5@w@x@y@z@A@B@C@D@E@F@G@H@I@J++++++++++++++",
"++++++++++++++@K@L@M@N@O@P@Q@R@S@T@U@V@W@X@Y@Z#+#@++++++++++++++",
"++++++++++++++###$#%#&#*#=#-#;#>#,#'#)#!#~#{#]#^#@++++++++++++++",
"++++++++++++++###/#(#_#:#<#;#[#}#|#1#2#3#4#5#6#7#@++++++++++++++",
"+++++++++++++++l#8#9#0#a#b#c#d#e#f#g#h#i#4#j#k#l#m++++++++++++++",
"+++++++++++++++$#n#o#p#q#r#s#t#u#v#w#x#y#z#A#B#C#D++++++++++++++",
"++++++++++++++++#E#F#G#H#I#J#K#L#M#N#O#P#Q#R#S#T++++++++++++++++",
"+++++++++++++++$#U#V#W#X#Y#Z$+$@$#$$$%$&$*$=$-$;+$++++++++++++++",
"+++++++++++++++$$>$,$'$)$!$~${${$]$^$/$($_$:$<$>+$++++++++++++++",
"+++++++++++++++$$[$}$|$1$2$3$4$5$6$6$7$8$9$0$a$[+$++++++++++++++",
"++++++++++++++++$b$c$d$e$f$g$h$i$j$j$k$l$m$n$o$p++++++++++++++++",
"++++++++++++++++#D$q$r$s$t$u$v$w$x$y$z$A$B$r$q#D++++++++++++++++",
"++++++++++++++++++#D$C$D$E$F$G$H$I$J$F$E$K$C#D++++++++++++++++++"};
