/* XPM */
static char * ball_red_xpm[] = {
"24 24 413 2",
"%t c #C5C5C5",
"%s c #B2B2B1",
"%r c #A6A5A5",
"%q c #949290",
"%p c #8A827D",
"%o c #7B7571",
"%n c #7D7774",
"%m c #8F8D8B",
"%l c #A2A2A2",
"%k c #AFAFAF",
"%j c #C2C2C2",
"%i c #BDBDBD",
"%h c #A4A4A3",
"%g c #937F70",
"%f c #8D5F3C",
"%e c #83471B",
"%d c #753C13",
"%c c #683410",
"%b c #62310F",
"%a c #562A0C",
"%0 c #4B270E",
"%9 c #503624",
"%8 c #6D645E",
"%7 c #9E9D9D",
"%6 c #BAB9B9",
"%5 c #CCCCCC",
"%4 c #CFCFCF",
"%3 c #C2C1C0",
"%2 c #A79A91",
"%1 c #AD6D39",
"%| c #A85C20",
"%} c #944F1B",
"%[ c #844517",
"%< c #783E14",
"%: c #6F3811",
"%_ c #66340F",
"%( c #66330F",
"%/ c #60300E",
"%^ c #582C0C",
"%] c #54290C",
"%{ c #52341F",
"%~ c #867F7A",
"%! c #BFBEBE",
"%) c #D0D0D0",
"%' c #CDCDCD",
"%, c #B8A28F",
"%> c #CD7B33",
"%; c #B56729",
"%- c #A15A25",
"%= c #945120",
"%* c #86481B",
"%& c #753D14",
"%% c #6C3711",
"%$ c #6E3811",
"%# c #6D3812",
"%@ c #6B3611",
"%+ c #8A7769",
"$Z c #CBCBCB",
"$Y c #C8AA8C",
"$X c #DB8839",
"$W c #C67632",
"$V c #B2662B",
"$U c #A25C29",
"$T c #965423",
"$S c #8F4E20",
"$R c #8B4B1D",
"$Q c #814417",
"$P c #834517",
"$O c #854617",
"$N c #864617",
"$M c #8D4A18",
"$L c #8A4817",
"$K c #8F4B18",
"$J c #94755D",
"$I c #D1D1D1",
"$H c #C9B8A9",
"$G c #E29447",
"$F c #D58239",
"$E c #C37639",
"$D c #B66D35",
"$C c #975524",
"$B c #904E1F",
"$A c #8E4D1E",
"$z c #8E4B1B",
"$y c #924E1A",
"$x c #96501B",
"$w c #97511D",
"$v c #A1571C",
"$u c #AA5C1E",
"$t c #A3581C",
"$s c #A0571F",
"$r c #B9A89B",
"$q c #E2AB6E",
"$p c #DE8C3E",
"$o c #D1823F",
"$n c #C4793F",
"$m c #B87038",
"$l c #AB6633",
"$k c #A35E2C",
"$j c #9B5726",
"$i c #9C5724",
"$h c #995420",
"$g c #9B531D",
"$f c #9D551F",
"$e c #A2581E",
"$d c #A95D21",
"$c c #B56423",
"$b c #BC6923",
"$a c #BD6A24",
"$0 c #B66420",
"$9 c #B57642",
"$8 c #E0BF96",
"$7 c #E5923E",
"$6 c #D68641",
"$5 c #CE8041",
"$4 c #B26C37",
"$3 c #A86331",
"$2 c #A45F2C",
"$1 c #A15B28",
"$| c #A05824",
"$} c #A35922",
"$[ c #A45A23",
"$< c #AD6023",
"$: c #B36426",
"$_ c #C06D29",
"$( c #C16F2A",
"$/ c #C37029",
"$^ c #C9742B",
"$] c #D07A2C",
"${ c #C97326",
"$~ c #C7A386",
"$! c #DCB286",
"$) c #DC8A3F",
"$' c #D08241",
"$, c #C1783E",
"$> c #B56D37",
"$; c #A7622F",
"$- c #A6602D",
"$= c #A65F2B",
"$* c #A45C27",
"$& c #A95F27",
"$% c #B36629",
"$$ c #C06F2D",
"$# c #C77531",
"$@ c #CA7730",
"$+ c #D58033",
"#Z c #D17D30",
"#Y c #DB8431",
"#X c #DE8732",
"#W c #DC832E",
"#V c #D3955D",
"#U c #D1C4AF",
"#T c #DC9854",
"#S c #D3823A",
"#R c #C4783C",
"#Q c #B76F39",
"#P c #AF6935",
"#O c #A7612E",
"#N c #A45E2B",
"#M c #A75F29",
"#L c #A95F28",
"#K c #AC6026",
"#J c #B66729",
"#I c #BA6B2B",
"#H c #C77631",
"#G c #CA7833",
"#F c #D5833A",
"#E c #DA883C",
"#D c #DF8E3F",
"#C c #E08B39",
"#B c #E28D38",
"#A c #E89339",
"#z c #E78F33",
"#y c #E08E3C",
"#x c #D5C6B6",
"#w c #D7A97E",
"#v c #D88538",
"#u c #C77736",
"#t c #B46A30",
"#s c #AD6632",
"#r c #AA6531",
"#q c #A35D2B",
"#p c #A55D28",
"#o c #A65D27",
"#n c #AA5F26",
"#m c #B06327",
"#l c #B76728",
"#k c #C16F2C",
"#j c #CE7C35",
"#i c #D3833C",
"#h c #DD8E42",
"#g c #E49848",
"#f c #EAA14D",
"#e c #EDA047",
"#d c #EC9D43",
"#c c #EE9A3C",
"#b c #F09B3A",
"#a c #EC9436",
"#0 c #DFAE78",
"#9 c #C9762E",
"#8 c #B3662B",
"#7 c #AB632C",
"#6 c #A6602C",
"#5 c #A35D2A",
"#4 c #A15A27",
"#3 c #A45B25",
"#2 c #A75D25",
"#1 c #AD6024",
"#| c #B66728",
"#} c #BF6E2D",
"#[ c #CA7933",
"#< c #D3833B",
"#: c #D88940",
"#_ c #E19446",
"#( c #EBA552",
"#/ c #F0AB53",
"#^ c #F4B156",
"#] c #F4AE51",
"#{ c #F6AD4A",
"#~ c #F5A642",
"#! c #F19D3B",
"#) c #E4A96A",
"#' c #CE9866",
"#, c #B86827",
"#> c #A65D26",
"#; c #A05925",
"#- c #9C5827",
"#= c #995523",
"#* c #9D5724",
"#& c #A45A22",
"#% c #A85C22",
"#$ c #B26326",
"## c #BB6B29",
"#@ c #C6742F",
"#+ c #CE7D36",
"@Z c #DB8C41",
"@Y c #E49949",
"@X c #E8A151",
"@W c #F0AE58",
"@V c #F4B75D",
"@U c #F7BA5B",
"@T c #F8B655",
"@S c #F9B854",
"@R c #FAB349",
"@Q c #F6A43E",
"@P c #EBB46F",
"@O c #C79B74",
"@N c #AB632B",
"@M c #985320",
"@L c #93501F",
"@K c #904F20",
"@J c #914E1C",
"@I c #9B541F",
"@H c #A25820",
"@G c #A65B21",
"@F c #B36325",
"@E c #CB7932",
"@D c #CE7C34",
"@C c #DC8D40",
"@B c #E59948",
"@A c #EEAA56",
"@z c #F6B85D",
"@y c #F7BC5F",
"@x c #FAC260",
"@w c #FBC25D",
"@v c #FBC159",
"@u c #FCBD4F",
"@t c #FAAD41",
"@s c #E3BE8D",
"@r c #C4BFBB",
"@q c #A8744B",
"@p c #8C4918",
"@o c #874718",
"@n c #824417",
"@m c #8A4819",
"@l c #97501B",
"@k c #A2581D",
"@j c #AA5D20",
"@i c #B66524",
"@h c #BE6C29",
"@g c #CB762C",
"@f c #D37F34",
"@e c #E09041",
"@d c #E89C49",
"@c c #F0AA52",
"@b c #F4B257",
"@a c #F7BB5E",
"@0 c #FAC461",
"@9 c #FCC961",
"@8 c #FEC859",
"@7 c #F7B650",
"@6 c #D4CDC4",
"@5 c #AC8365",
"@4 c #7C4015",
"@3 c #7A3F14",
"@2 c #7C4115",
"@1 c #834416",
"@| c #8E4B18",
"@} c #A3571C",
"@[ c #AC5E1F",
"@< c #B86623",
"@: c #BF6C26",
"@_ c #CB762B",
"@( c #D78132",
"@/ c #DE8A3A",
"@^ c #E7943D",
"@] c #EEA249",
"@{ c #F2AA4E",
"@~ c #F7B756",
"@! c #FABE59",
"@) c #FDC458",
"@' c #FEC858",
"@, c #FEC250",
"@> c #EBBF7C",
"@; c #B8ADA5",
"@- c #7A4824",
"@= c #693510",
"@* c #713A12",
"@& c #854516",
"@% c #934E19",
"@$ c #A65A1D",
"@# c #B1621F",
"@@ c #C26E25",
"@+ c #C87328",
"+Z c #D17B2D",
"+Y c #DA8331",
"+X c #E08B36",
"+W c #E9953D",
"+V c #EE9E42",
"+U c #F4A948",
"+T c #F7AF4C",
"+S c #FBBB50",
"+R c #FEC352",
"+Q c #FDBD4C",
"+P c #DEC6A5",
"+O c #9A8575",
"+N c #5D2E0D",
"+M c #6B3610",
"+L c #824315",
"+K c #975019",
"+J c #A95C1E",
"+I c #BA6823",
"+H c #C67126",
"+G c #C57125",
"+F c #C87326",
"+E c #D27B2A",
"+D c #D9822E",
"+C c #E48C32",
"+B c #EC973B",
"+A c #F3A442",
"+z c #F9B047",
"+y c #FCB646",
"+x c #E9B570",
"+w c #725642",
"+v c #5D2E0E",
"+u c #763D13",
"+t c #954F19",
"+s c #B76621",
"+r c #C46F26",
"+q c #CC7627",
"+p c #C07226",
"+o c #875D24",
"+n c #835B24",
"+m c #A76724",
"+l c #B76721",
"+k c #C46F25",
"+j c #D27C2A",
"+i c #E38B31",
"+h c #ED9839",
"+g c #F5A23C",
"+f c #ECB76F",
"+e c #D7D2CA",
"+d c #766559",
"+c c #6C3B18",
"+b c #9E551B",
"+a c #BB6922",
"+0 c #CA7427",
"+9 c #D37C29",
"+8 c #BC6E24",
"+7 c #49381A",
"+6 c #6C5E2F",
"+5 c #986024",
"+4 c #B86721",
"+3 c #BD6B23",
"+2 c #CA7426",
"+1 c #E0872F",
"+| c #EA9335",
"+} c #E5B67D",
"+[ c #D4CEC5",
"+< c #A69E97",
"+: c #947054",
"+_ c #9F5C22",
"+( c #BD6B22",
"+/ c #CB7527",
"+^ c #D07828",
"+] c #CF7828",
"+{ c #C36F24",
"+~ c #C26E24",
"+! c #CB7526",
"+) c #D47E2C",
"+' c #DE9D5C",
"+, c #E1B785",
"+> c #C2BDB9",
"+; c #B4957C",
"+- c #B58661",
"+= c #BE7F49",
"+* c #C07C41",
"+& c #C57F41",
"+% c #CA8649",
"+$ c #D29760",
"+# c #CEA279",
"+@ c #D6C4AE",
"++ c None",
"++++++++++++++++++++++++++++++++++++++++++++++++",
"++++++++++++++++++++++++++++++++++++++++++++++++",
"+++++++++++++++@+#+$+%+&+*+=+-+;+>++++++++++++++",
"+++++++++++,+'+)+!+~+~+{+]+^+/+(+_+:+<++++++++++",
"+++++++[+}+|+1+2+3+4+5+6+7+8+9+0+a+b+c+d++++++++",
"+++++e+f+g+h+i+j+k+l+m+n+o+p+q+r+s+t+u+v+w++++++",
"+++++x+y+z+A+B+C+D+E+F+G+H+{+~+I+J+K+L+M+N+O++++",
"+++P+Q+R+S+T+U+V+W+X+Y+Z@+@@+I@#@$@%@&@*@=@-@;++",
"++@>@,@'@)@!@~@{@]@^@/@(@_@:@<@[@}@|@1@2@3@4@5++",
"@6@7+R@8@9@0@a@b@c@d@e@f@g@h@i@j@k@l@m@n@o@p@q@r",
"@s@t@u@v@w@x@y@z@A@B@C@D@E@h@F@G@H@I@J@K@L@M@N@O",
"@P@Q@R@S@T@U@V@W@X@Y@Z#+#@###$#%#&#*#=#-#;#>#,#'",
"#)#!#~#{#]#^#/#(#_#:#<#[#}#|#1#2#3#4#5#6#7#8#9#'",
"#0#a#b#c#d#e#f#g#h#i#j#k#l#m#n#o#p#q#r#s#t#u#v#w",
"#x#y#z#A#B#C#D#E#F#G#H#I#J#K#L#M#N#O#P#Q#R#S#T#U",
"++#V#W#X#Y#Z$+$@$#$$#I$%#1$&$*$=$-$;$>$,$'$)$!++",
"++$~${+/$]$^$/$($_$:$<$[$}$|$1$2$3$4$,$5$6$7$8++",
"+++[$9$0$a$b$c@j$d$e$f$g$h$i$j$k$l$m$n$o$p$q++++",
"++++$r$s@}$t$u$v$w$x$y$z$A$B$C$j#O$D$E$F$G$H++++",
"++++$I$J@&@&$K$L$M$N$O$P$Q$R$S$T$U$V$W$X$Y$I++++",
"++++$I$Z%+%@%#%@%$%%@*%&@3@n%*%=%-%;%>%,%'++++++",
"++++++%)%!%~%{%]%^%/%(%_%:%<%[%}%|%1%2%3%4++++++",
"++++++$I%5%6%7%8%9%0%a%b%c%d%e%f%g%h%i%4$I++++++",
"++++++++$I%'%j%k%l%m%n%o%o%p%q%r%s%t%4$I++++++++"};
