/* XPM */
static char * ball_red_xpm[] = {
"24 24 199 2",
"#( c #898B82",
"#/ c #7F7E76",
"#^ c #7D7B73",
"#] c #888883",
"#{ c #A0A09F",
"#~ c #B8B8B8",
"#! c #CACACA",
"#) c #CBCCCB",
"#' c #8A8F77",
"#, c #8E9946",
"#> c #908E37",
"#; c #897D39",
"#- c #8B7B38",
"#= c #8E7F39",
"#* c #786F48",
"#& c #848378",
"#% c #B0B0B0",
"#$ c #CDCDCD",
"## c #949E76",
"#@ c #AAB842",
"#+ c #A19E3C",
"@Z c #A9AC3E",
"@Y c #AAAD3F",
"@X c #A9AA3F",
"@W c #AAA940",
"@V c #9E953D",
"@U c #9F9940",
"@T c #8F937A",
"@S c #C0C0C0",
"@R c #B9D448",
"@Q c #B3B840",
"@P c #B2C443",
"@O c #C0D847",
"@N c #C6DC49",
"@M c #CFD74B",
"@L c #C8CB4A",
"@K c #C5C74B",
"@J c #C5CD48",
"@I c #B3CA4A",
"@H c #B2B3AB",
"@G c #BDC57D",
"@F c #B7C246",
"@E c #A1CB54",
"@D c #C0DD50",
"@C c #D3E350",
"@B c #C3E452",
"@A c #D1E555",
"@z c #C8D750",
"@y c #C7E356",
"@x c #D7F256",
"@w c #DEF85A",
"@v c #BAC886",
"@u c #C0C459",
"@t c #A8B849",
"@s c #C5D25B",
"@r c #D7E25A",
"@q c #CFE553",
"@p c #B2D957",
"@o c #C1DA57",
"@n c #BDD457",
"@m c #BAE05E",
"@l c #D2FC67",
"@k c #DCFE69",
"@j c #CCE96C",
"@i c #CDD2B0",
"@h c #B1BA46",
"@g c #B5BC4F",
"@f c #D0DD70",
"@e c #D4DD63",
"@d c #CBE558",
"@c c #ACD75C",
"@b c #B4D65C",
"@a c #BAD25C",
"@0 c #BDE662",
"@9 c #CCFD74",
"@8 c #D8FF7D",
"@7 c #D4FD73",
"@6 c #D3DEBC",
"@5 c #A0B844",
"@4 c #ACBC4E",
"@3 c #C7D86B",
"@2 c #B8D763",
"@1 c #C0E05A",
"@| c #AAD25D",
"@} c #B5D75E",
"@[ c #BDE061",
"@< c #C9F66D",
"@: c #D0FE82",
"@_ c #D2FF85",
"@( c #CDFF81",
"@/ c #D3E2B4",
"@^ c #C7C7A5",
"@] c #9CA43D",
"@{ c #96A546",
"@~ c #A8C060",
"@! c #9FC667",
"@) c #A6D15D",
"@' c #B1D85C",
"@, c #BEE461",
"@> c #C6EE66",
"@; c #CEFC75",
"@- c #D0FF8A",
"@= c #D3DFB8",
"@* c #C9CBC2",
"@& c #8B9242",
"@% c #81913D",
"@$ c #819F57",
"@# c #97B864",
"@@ c #A5CD5D",
"@+ c #B8DF5F",
"+Z c #C2E761",
"+Y c #C9F76C",
"+X c #D4FF82",
"+W c #D3FF8A",
"+V c #D1FF8D",
"+U c #D1FB91",
"+T c #999D72",
"+S c #808C3A",
"+R c #708B48",
"+Q c #93B261",
"+P c #A3C75D",
"+O c #B7DE5D",
"+N c #C2EA64",
"+M c #D2FF8A",
"+L c #D0FF8D",
"+K c #D1EBA6",
"+J c #B4B5A8",
"+I c #7F8940",
"+H c #73883F",
"+G c #8DA95B",
"+F c #9BBB5C",
"+E c #ADD259",
"+D c #C1E961",
"+C c #CEFB6F",
"+B c #D4FF89",
"+A c #D1FC8D",
"+z c #D1DDBD",
"+y c #9A9D7B",
"+x c #878F3B",
"+w c #90A14D",
"+v c #9DB960",
"+u c #AAD059",
"+t c #C1E85F",
"+s c #CAF769",
"+r c #D4FE81",
"+q c #D0FF8C",
"+p c #D1E9A8",
"+o c #CECECE",
"+n c #9A9B5A",
"+m c #9DA547",
"+l c #A2BA61",
"+k c #A7CB55",
"+j c #C2E75E",
"+i c #CEF768",
"+h c #D4FE79",
"+g c #D2F693",
"+f c #A0A276",
"+e c #A2A643",
"+d c #A2B55E",
"+c c #A6C754",
"+b c #C3E85F",
"+a c #CFF76A",
"+0 c #D5FE79",
"+9 c #D1E6AB",
"+8 c #CBCBC3",
"+7 c #9B9843",
"+6 c #9AAC51",
"+5 c #A6C755",
"+4 c #C8E860",
"+3 c #D6FA70",
"+2 c #D8FF7F",
"+1 c #D3DBC0",
"+| c #93965D",
"+} c #899642",
"+[ c #AECB57",
"+< c #D8F87B",
"+: c #DFFFA2",
"+_ c #D5F791",
"+( c #838A6F",
"+/ c #717E3D",
"+^ c #C5D05A",
"+] c #DEFC80",
"+{ c #DEFEA4",
"+~ c #D3EAAC",
"+! c #C0BFBD",
"+) c #7C806C",
"+' c #92904B",
"+, c #C0D863",
"+> c #D7F19E",
"+; c #D4DDBC",
"+- c #C5C7C1",
"+= c #8A9076",
"+* c #D2D3D1",
"+& c #A7AA9A",
"+% c #BBBDB8",
"+$ c #949A7C",
"+# c #9EA297",
"+@ c #7C835A",
"++ c None",
"++++++++++++++++++++++++++++++++++++++++++++++++",
"+++++++++++++++++++++++@+#++++++++++++++++++++++",
"+++++++++++++++++++++++$+%++++++++++++++++++++++",
"+++++++++++++++++++++++&+*++++++++++++++++++++++",
"+++++++++++++++++++++++=+-++++++++++++++++++++++",
"+++++++++++++++++++;+>+,+'+)+!++++++++++++++++++",
"+++++++++++++++++++~+{+]+^+/+(++++++++++++++++++",
"+++++++++++++++++++_+:+<+[+}+|++++++++++++++++++",
"+++++++++++++++++1+2+3+4+5+6+7+8++++++++++++++++",
"+++++++++++++++++9+0+a+b+c+d+e+f++++++++++++++++",
"+++++++++++++++*+g+h+i+j+k+l+m+n+o++++++++++++++",
"+++++++++++++++p+q+r+s+t+u+v+w+x+y++++++++++++++",
"+++++++++++++z+A+q+B+C+D+E+F+G+H+I+J++++++++++++",
"+++++++++++++K+L+M+B+C+N+O+P+Q+R+S+T++++++++++++",
"+++++++++++*+U+V+W+X+Y+Z@+@@@#@$@%@&@*++++++++++",
"++++++++++@=@-+L+B@;@>@,@'@)@!@~@{@]@^++++++++++",
"++++++++++@/@(@_@:@<@[@}@|@1@2@3@4@5@^++++++++++",
"++++++++++@6@7@8@9@0@a@b@c@d@e@f@g@h@i++++++++++",
"+++++++++++*@j@k@l@m@n@o@p@q@r@s@t@u+o++++++++++",
"+++++++++++*@v@w@x@y@z@A@B@C@D@E@F@G++++++++++++",
"+++++++++++*@H@I@J@K@L@M@N@O@P@Q@R@H+*++++++++++",
"+++++++++++*@S@T@U@V@W@X@Y@Z#+#@##@S+*++++++++++",
"++++++++++++#$#%#&#*#=#-#;#>#,#'#%#)++++++++++++",
"++++++++++++++#!#~#{#]#^#/#(#{#~#!++++++++++++++"};
