/* XPM */
static char * ball_red_xpm[] = {
"50 50 544 2",
"*; c #6D7554",
"*- c #686859",
"*= c #8B8C89",
"** c #818477",
"*& c #777C66",
"*% c #7C8D3C",
"*$ c #878D37",
"*# c #7D803B",
"*@ c #716633",
"*+ c #605D4C",
"&Z c #6B6A66",
"&Y c #818C5D",
"&X c #97A543",
"&W c #A9B53D",
"&V c #9EA83C",
"&U c #949636",
"&T c #857536",
"&S c #6F6948",
"&R c #90A453",
"&Q c #A2B845",
"&P c #A5AB41",
"&O c #9B9A3C",
"&N c #92813A",
"&M c #A69540",
"&L c #959140",
"&K c #80855C",
"&J c #7C7D78",
"&I c #A0B65D",
"&H c #B2C945",
"&G c #B2B83F",
"&F c #A5A23C",
"&E c #B4BD3E",
"&D c #B4B544",
"&C c #B4BE42",
"&B c #9E8F3D",
"&A c #A9A240",
"&z c #A3AA45",
"&y c #8E9667",
"&x c #A4AF7B",
"&w c #B2D04B",
"&v c #BFD347",
"&u c #B2B241",
"&t c #AAA93D",
"&s c #BAC842",
"&r c #BBD545",
"&q c #C2DA46",
"&p c #C1DA49",
"&o c #CAD249",
"&n c #C1BB4A",
"&m c #BDB746",
"&l c #B8BA44",
"&k c #B7C943",
"&j c #A0B84B",
"&i c #A8B86E",
"&h c #B9D448",
"&g c #BBCA43",
"&f c #B3B840",
"&e c #ACB641",
"&d c #AABA42",
"&c c #BACE43",
"&b c #BED745",
"&a c #C3DA48",
"&0 c #C6DC4A",
"&9 c #CFD74B",
"&8 c #C2BF4A",
"&7 c #C4C14C",
"&6 c #C6CD4B",
"&5 c #C8CA4A",
"&4 c #C5CD48",
"&3 c #C2D547",
"&2 c #B3CA4A",
"&1 c #A1AD6E",
"&| c #94997B",
"&} c #A7B169",
"&[ c #B6C859",
"&< c #BFD146",
"&: c #B0C246",
"&_ c #A7C249",
"&( c #AAC94C",
"&/ c #AECF4F",
"&^ c #BED747",
"&] c #C6DC49",
"&{ c #D3E14F",
"&~ c #D1E150",
"&! c #D6E052",
"&) c #D4DD4E",
"&' c #C5CE4F",
"&, c #CAD352",
"&> c #C9E24F",
"&; c #D7E552",
"&- c #D6E651",
"&= c #D5E750",
"&* c #D0E84F",
"&& c #B3C95D",
"&% c #9CA96C",
"&$ c #BCC768",
"&# c #C2CF4C",
"&@ c #B7C246",
"&+ c #A6C14C",
"%Z c #A1CB54",
"%Y c #AED554",
"%X c #B9DB53",
"%W c #C7E04E",
"%V c #CFE04F",
"%U c #C4E451",
"%T c #C2E553",
"%S c #C9E756",
"%R c #D3DF50",
"%Q c #BDD051",
"%P c #C9DF56",
"%O c #C6E755",
"%N c #D7F256",
"%M c #DDF456",
"%L c #DEF85A",
"%K c #CAEA5B",
"%J c #B7CA72",
"%I c #B2B883",
"%H c #BFC668",
"%G c #BFC64A",
"%F c #AAB947",
"%E c #A9C34D",
"%D c #B6D055",
"%C c #C2DE55",
"%B c #C7E452",
"%A c #D3E555",
"%z c #D7E252",
"%y c #D1E752",
"%x c #BCE052",
"%w c #B5DD56",
"%v c #DAE355",
"%u c #D1DF54",
"%t c #B4D053",
"%s c #BFDD5A",
"%r c #C2E75B",
"%q c #D4FA5D",
"%p c #DBFB5E",
"%o c #DFFE61",
"%n c #DAFD60",
"%m c #C3D977",
"%l c #AEB792",
"%k c #C1C767",
"%j c #C0C459",
"%i c #B4BA49",
"%h c #A8B849",
"%g c #B5C451",
"%f c #C5D25B",
"%e c #CCDD5D",
"%d c #D1E15B",
"%c c #DEE45A",
"%b c #D8E552",
"%a c #C5E554",
"%0 c #B9DE55",
"%9 c #ACD559",
"%8 c #B1D257",
"%7 c #D2E156",
"%6 c #CEDB58",
"%5 c #ACCD57",
"%4 c #BCE65E",
"%3 c #D2FC67",
"%2 c #D5FD69",
"%1 c #DCFE69",
"%| c #DFFE65",
"%} c #CCE96C",
"%[ c #BBD476",
"%< c #C4C253",
"%: c #B9BD4D",
"%_ c #ACB547",
"%( c #AEB94C",
"%/ c #BFC85B",
"%^ c #C9D769",
"%] c #CEDD67",
"%{ c #D5DD63",
"%~ c #E4E45E",
"%! c #D5EA55",
"%) c #C0E657",
"%' c #A8D35C",
"%, c #A7CD5A",
"%> c #C9DD58",
"%; c #CCDA59",
"%- c #A9C55A",
"%= c #B5D75D",
"%* c #BCE961",
"%& c #CDFC6C",
"%% c #CEFC6D",
"%$ c #D1FD73",
"%# c #DAFE76",
"%@ c #DEFE70",
"%+ c #D3F86B",
"$Z c #CCF36C",
"$Y c #BDBB48",
"$X c #B1BA46",
"$W c #A7B646",
"$V c #B5BC4F",
"$U c #C8D064",
"$T c #CEDD6B",
"$S c #CCDB65",
"$R c #DCE060",
"$Q c #D7E858",
"$P c #BFE358",
"$O c #AFD95A",
"$N c #AAD55D",
"$M c #AAD05D",
"$L c #C3D65B",
"$K c #B2CF5D",
"$J c #B8DF60",
"$I c #C1EE65",
"$H c #CBFC6F",
"$G c #CCFD74",
"$F c #D8FF7D",
"$E c #D9FE79",
"$D c #D4FD73",
"$C c #D2ED96",
"$B c #B9BF65",
"$A c #A8BA45",
"$z c #A1B545",
"$y c #B3BE50",
"$x c #C8D265",
"$w c #D0DD70",
"$v c #C6DA6C",
"$u c #BCD568",
"$t c #CFE061",
"$s c #D6E35A",
"$r c #AECF5D",
"$q c #B5D15D",
"$p c #C1EB65",
"$o c #C8F76C",
"$n c #CDFE7B",
"$m c #D1FF82",
"$l c #D6FF81",
"$k c #D4FF7F",
"$j c #D0FE7B",
"$i c #D1F096",
"$h c #B6C175",
"$g c #A0B844",
"$f c #9EB345",
"$e c #ACBC4E",
"$d c #BFCD5F",
"$c c #C7D86B",
"$b c #BFD76A",
"$a c #B6D268",
"$0 c #BBDD5E",
"$9 c #C9E25D",
"$8 c #B7DE58",
"$7 c #B0D85D",
"$6 c #B4D55E",
"$5 c #B6D95F",
"$4 c #C3E763",
"$3 c #C5F068",
"$2 c #CEFE7C",
"$1 c #D0FE82",
"$| c #D1FF87",
"$} c #D2FF85",
"$[ c #D0FF84",
"$< c #CDFF81",
"$: c #D0F09A",
"$_ c #B6BF73",
"$( c #A1B340",
"$/ c #9DAC42",
"$^ c #A4B44A",
"$] c #AFC358",
"${ c #B9CF63",
"$~ c #B5D168",
"$! c #ADCD69",
"$) c #A6CE62",
"$' c #B2DA5C",
"$, c #ADD95B",
"$> c #A7D05C",
"$; c #B9DB5E",
"$- c #BEE662",
"$= c #C1E663",
"$* c #D0FE76",
"$& c #D2FF88",
"$% c #D3FF89",
"$$ c #D0FF89",
"$# c #CFFF86",
"$@ c #D0F09B",
"$+ c #B1B771",
"#Z c #9CA43D",
"#Y c #99A03E",
"#X c #96A546",
"#W c #9DB351",
"#V c #A8C060",
"#U c #A7C768",
"#T c #A1C768",
"#S c #9EC566",
"#R c #A5D05D",
"#Q c #AED75C",
"#P c #B5DA5D",
"#O c #BDE060",
"#N c #C0E863",
"#M c #C5EB65",
"#L c #CAF96C",
"#K c #D3FF7E",
"#J c #D4FF89",
"#I c #D2FF8C",
"#H c #D1EF9F",
"#G c #8C9640",
"#F c #8F963D",
"#E c #8F953B",
"#D c #899841",
"#C c #8AA24E",
"#B c #93AE5D",
"#A c #98B865",
"#z c #98BE67",
"#y c #9CC064",
"#x c #BBDF5F",
"#w c #BFE461",
"#v c #C2E762",
"#u c #C6F167",
"#t c #C9F66B",
"#s c #CFFD73",
"#r c #D4FF83",
"#q c #D5FF87",
"#p c #D4FF88",
"#o c #D0FF8F",
"#n c #D0FD8C",
"#m c #D1EAA7",
"#l c #89923A",
"#k c #83943E",
"#j c #809B4E",
"#i c #87A55C",
"#h c #8FB063",
"#g c #93B768",
"#f c #BDE361",
"#e c #D4FF7A",
"#d c #D0FC8D",
"#c c #D0FA8B",
"#b c #8E9247",
"#a c #7F8F3C",
"#0 c #758E44",
"#9 c #7C9852",
"#8 c #8BAA5E",
"#7 c #C4E962",
"#6 c #CDFD73",
"#5 c #D2FA95",
"#4 c #919561",
"#3 c #828A38",
"#2 c #828F3B",
"#1 c #738940",
"#| c #708C4B",
"#} c #809F58",
"#[ c #BFEA64",
"#< c #CAF76C",
"#: c #D2FF8B",
"#_ c #D0FF8A",
"#( c #D1F09D",
"#/ c #797F43",
"#^ c #7C833C",
"#] c #75893D",
"#{ c #718A45",
"#~ c #7F9D55",
"#! c #8BAA5F",
"#) c #A4CD5D",
"#' c #AED75E",
"#, c #C1E662",
"#> c #D2FF8A",
"#; c #D0FB8D",
"#- c #D1F88E",
"#= c #888E4F",
"#* c #7E8A39",
"#& c #6F8642",
"#% c #77934F",
"#$ c #84A159",
"## c #93B463",
"#@ c #A7D35D",
"#+ c #BBDE57",
"@Z c #C5ED65",
"@Y c #CAFB6C",
"@X c #D1FF90",
"@W c #D0FF8E",
"@V c #D0F39A",
"@U c #818848",
"@T c #818D39",
"@S c #778A3D",
"@R c #7C9148",
"@Q c #869B51",
"@P c #97B45F",
"@O c #B2D45C",
"@N c #C8F56A",
"@M c #D0FF8D",
"@L c #D1FA8F",
"@K c #D3F593",
"@J c #919363",
"@I c #83893A",
"@H c #868F3D",
"@G c #859145",
"@F c #869649",
"@E c #9BB154",
"@D c #9BBB63",
"@C c #9AB459",
"@B c #D4FF8C",
"@A c #D0FF8C",
"@z c #D0FC8C",
"@y c #D1EF9E",
"@x c #90955D",
"@w c #888F38",
"@v c #89933E",
"@u c #899442",
"@t c #98AA55",
"@s c #9DBB5E",
"@r c #B2DA5D",
"@q c #C2EB62",
"@p c #C4F266",
"@o c #D6FF85",
"@n c #D1FF8A",
"@m c #D1FF8D",
"@l c #D0F39D",
"@k c #D0E7AA",
"@j c #8B8C53",
"@i c #908F47",
"@h c #999C40",
"@g c #96A54F",
"@f c #A5BD69",
"@e c #A2C25E",
"@d c #A2C655",
"@c c #D4FF8A",
"@b c #D2FB8C",
"@a c #D1EBA4",
"@0 c #A5A66D",
"@9 c #A1A13F",
"@8 c #9AA44A",
"@7 c #AED657",
"@6 c #D2FF82",
"@5 c #D2F09B",
"@4 c #D3E2B4",
"@3 c #969858",
"@2 c #9FA04D",
"@1 c #ADD357",
"@| c #BEE25C",
"@} c #C5EC61",
"@[ c #D1FD6C",
"@< c #CFF58C",
"@: c #D0E9A3",
"@_ c #AAAC94",
"@( c #A9AA6B",
"@/ c #A8A842",
"@^ c #9DA544",
"@] c #A0B260",
"@{ c #CCF265",
"@~ c #D3FE73",
"@! c #D4EAA4",
"@) c #A19C3C",
"@' c #99A94F",
"@, c #A4B95D",
"@> c #97BB58",
"@; c #C0E55D",
"@- c #D8FD73",
"@= c #D5FF80",
"@* c #9B9A4A",
"@& c #9B973C",
"@% c #95A44A",
"@$ c #9FB558",
"@# c #9ABB55",
"@@ c #B2D456",
"@+ c #C4E45E",
"+Z c #CCED62",
"+Y c #D3F769",
"+X c #D9FE78",
"+W c #DBFF7D",
"+V c #D5FF82",
"+U c #959762",
"+T c #95933C",
"+S c #8D9940",
"+R c #98AE50",
"+Q c #B5D75A",
"+P c #CAE860",
"+O c #D2F56A",
"+N c #D6FB76",
"+M c #DBFF83",
"+L c #DAFF80",
"+K c #D4FA8C",
"+J c #95976D",
"+I c #9FA180",
"+H c #888A39",
"+G c #81863A",
"+F c #92A64B",
"+E c #9EBB53",
"+D c #BFDB5C",
"+C c #D3F367",
"+B c #DEFE90",
"+A c #DBFF98",
"+z c #D7FF87",
"+y c #D3EF9B",
"+x c #B0B39F",
"+w c #6C7537",
"+v c #6B7138",
"+u c #8FA249",
"+t c #A9C053",
"+s c #CDDF5C",
"+r c #E5FFAE",
"+q c #EEFFD7",
"+p c #DAFFA7",
"+o c #D5FE8E",
"+n c #D3E7A9",
"+m c #BEC1B7",
"+l c #666E4C",
"+k c #576135",
"+j c #8C9B45",
"+i c #B5C053",
"+h c #D4E060",
"+g c #DAF96C",
"+f c #E2FF95",
"+e c #E4FFAD",
"+d c #D8FE9C",
"+c c #D5F996",
"+b c #8A8D7F",
"+a c #4F583B",
"+0 c #757D3D",
"+9 c #A7A44E",
"+8 c #CED35F",
"+7 c #DFFB6D",
"+6 c #DFFF7D",
"+5 c #DBFF86",
"+4 c #D3EDA6",
"+3 c #757A6D",
"+2 c #6F7455",
"+1 c #857F4C",
"+| c #A0A24B",
"+} c #A9BB4C",
"+[ c #D8F57B",
"+< c #DAF792",
"+: c #D7FE91",
"+_ c #7D8272",
"+( c #92917B",
"+/ c #93956E",
"+^ c #52611E",
"+] c #CAD797",
"+{ c #D9EF9A",
"+~ c #BFC1BA",
"+! c #525F33",
"+) c #C2C1B7",
"+' c #777E61",
"+, c #C4C5BF",
"+> c #D2D3D1",
"+; c #858A70",
"+- c #CACBC5",
"+= c #CDCDCC",
"+* c #828866",
"+& c #C8C8C8",
"+% c #AFB2A8",
"+$ c #6F784A",
"+# c #9EA297",
"+@ c #7C835A",
"++ c None",
"++++++++++++++++++++++++++++++++++++++++++++++++++++++++++++++++++++++++++++++++++++++++++++++++++++",
"++++++++++++++++++++++++++++++++++++++++++++++++++++++++++++++++++++++++++++++++++++++++++++++++++++",
"++++++++++++++++++++++++++++++++++++++++++++++++++++++++++++++++++++++++++++++++++++++++++++++++++++",
"+++++++++++++++++++++++++++++++++++++++++++++++++@+#++++++++++++++++++++++++++++++++++++++++++++++++",
"+++++++++++++++++++++++++++++++++++++++++++++++++$+%++++++++++++++++++++++++++++++++++++++++++++++++",
"+++++++++++++++++++++++++++++++++++++++++++++++++@+&++++++++++++++++++++++++++++++++++++++++++++++++",
"+++++++++++++++++++++++++++++++++++++++++++++++++*+=++++++++++++++++++++++++++++++++++++++++++++++++",
"+++++++++++++++++++++++++++++++++++++++++++++++-+;+>++++++++++++++++++++++++++++++++++++++++++++++++",
"+++++++++++++++++++++++++++++++++++++++++++++++,+'+>++++++++++++++++++++++++++++++++++++++++++++++++",
"+++++++++++++++++++++++++++++++++++++++++++++++)+!+~++++++++++++++++++++++++++++++++++++++++++++++++",
"+++++++++++++++++++++++++++++++++++++++++++++{+]+^+/+(+_++++++++++++++++++++++++++++++++++++++++++++",
"+++++++++++++++++++++++++++++++++++++++++++:+<+[+}+|+1+2+3++++++++++++++++++++++++++++++++++++++++++",
"+++++++++++++++++++++++++++++++++++++++++4+:+5+6+7+8+9+0+a+b++++++++++++++++++++++++++++++++++++++++",
"+++++++++++++++++++++++++++++++++++++++++c+d+e+f+g+h+i+j+k+l+m++++++++++++++++++++++++++++++++++++++",
"+++++++++++++++++++++++++++++++++++++++n+o+p+q+r+g+s+t+u+v+w+x++++++++++++++++++++++++++++++++++++++",
"+++++++++++++++++++++++++++++++++++++++y+z+A+e+B+C+D+E+F+G+H+I+J++++++++++++++++++++++++++++++++++++",
"+++++++++++++++++++++++++++++++++++++++K+L+M+N+O+P+Q+E+R+S+T+U+U++++++++++++++++++++++++++++++++++++",
"+++++++++++++++++++++++++++++++++++++++V+W+X+Y+Z@+@@@#@$@%@&@*++++++++++++++++++++++++++++++++++++++",
"++++++++++++++++++++++++++++++++++++++@=+W@-+Y+Z@;@@@>@,@'@)@)@)++++++++++++++++++++++++++++++++++++",
"++++++++++++++++++++++++++++++++++++@!@=@-@~@{+Z@;@@+E@,@]@^@/@(@_++++++++++++++++++++++++++++++++++",
"++++++++++++++++++++++++++++++++++@:@<@=@~@[@{@}@|@1+E@,@]@^@/@2@3++++++++++++++++++++++++++++++++++",
"++++++++++++++++++++++++++++++++@4@5@6@=@~@[@{@}@|@7+E@,@]@8@/@9@0++++++++++++++++++++++++++++++++++",
"++++++++++++++++++++++++++++++++@a@b@c@=@~@[@{@}@;@7@d@e@f@g@^@h@i@j++++++++++++++++++++++++++++++++",
"++++++++++++++++++++++++++++++@k@l@m@n@o@~@[@p@q@;@r@d@s@f@t@u@v@w@x++++++++++++++++++++++++++++++++",
"++++++++++++++++++++++++++++++@y@z@A@n@B@=@[@p@q@;@r@d@C@D@E@F@G@H@I@J++++++++++++++++++++++++++++++",
"++++++++++++++++++++++++++++@K@L@M@A@n@B@o@~@N@q@|@O@d@>@P@P@Q@R@S@T@U+@++++++++++++++++++++++++++++",
"++++++++++++++++++++++++++++@V@A@W@A@n@X@o@~@Y@Z@q#+#@@e@s###$#%#&@S#*#=++++++++++++++++++++++++++++",
"++++++++++++++++++++++++++#-#;@M@A#>@c@X@o@~@Y@Z#,@;#'#)@e@D#!#~#{#]#*#^#/++++++++++++++++++++++++++",
"++++++++++++++++++++++++++#(#_@W@A#:@B@B@o@~#<@Z#[@;#'#)@e@D#!#}#|#1#2#3#4++++++++++++++++++++++++++",
"++++++++++++++++++++++++++#5@X@m#>#>@n@B@=#6@N#7#7#,@r#@@e@D###8#9#0#a@w#b@3++++++++++++++++++++++++",
"++++++++++++++++++++++++#c#d@X@m#>@c@c@o#e#<@N#7#f#f@r#@#)@D#g#h#i#j#k#l@v@u++++++++++++++++++++++++",
"++++++++++++++++++++++++#m#n#o@M#:#p#q#r#s#t#u#v#w#x@r#@#)#y#z#A#B#C#D#E#F#G++++++++++++++++++++++++",
"++++++++++++++++++++++++#H#_@W@M#I#J#q#K#L#u#M#N#O#P#Q#@#R#S#T#U#V#W#X#Y#Z$+++++++++++++++++++++++++",
"++++++++++++++++++++++++$@$#$$#_#:$%$&$*#t#M$=$-$;@r$>$,$'$)$!$~${$]$^$/$($_++++++++++++++++++++++++",
"++++++++++++++++++++++++$:$<$[$}$|$1$2#6$3$4$5$5$6$7#)$8$9$0$a$b$c$d$e$f$g$h++++++++++++++++++++++++",
"++++++++++++++++++++++++$i$j$k$l$m$n#6$o$p#O$q$6$r#'$>#+$s$t$u$v$w$x$y$z$A$B++++++++++++++++++++++++",
"++++++++++++++++++++++++$C$D$E$F$j$G$H$I$J$K$L+D$M$N$O$P$Q$R$S$T$w$U$V$W$X$Y++++++++++++++++++++++++",
"++++++++++++++++++++++++$Z%+%@%#%$%%%&%*%=%-%;%>%,%'$8%)%!%~%{%]%^%/%(%_%:%<++++++++++++++++++++++++",
"++++++++++++++++++++++++%[%}%|%1%2%3%3%4$;%5%6%7%8%9%0%a%b%c%d%e%f%g%h%i%j%k++++++++++++++++++++++++",
"++++++++++++++++++++++++%l%m%n%o%p%q%q%r%s%t%u%v$P%w%x%y%z%A%B%C%D%E%F%G%H%I++++++++++++++++++++++++",
"++++++++++++++++++++++++++%J%K%L%M%N%N%O%P%Q%R%v%S%T%U%b%V%W%X%Y%Z&+&@&#&$++++++++++++++++++++++++++",
"++++++++++++++++++++++++++&%&&&*&=&-&;&>&,&'&)&!&~&>&>&{&]&^&/&(&_&:&<&[&}++++++++++++++++++++++++++",
"++++++++++++++++++++++++++&|&1&2&3&4&5&6&7&8&9&9&9&0&]&a&b&c&d&e&f&g&h&i&|++++++++++++++++++++++++++",
"++++++++++++++++++++++++++++@Q&j&k&l&m&n&n&m&o&o&o&p&q&r&r&s&t&t&u&v&w&x++++++++++++++++++++++++++++",
"++++++++++++++++++++++++++++++&y&z&A&B@)@/@/&s&C&D&C&C&C&E&t@)&F&G&H&I++++++++++++++++++++++++++++++",
"++++++++++++++++++++++++++++++&J&K&L&M&N&B&B@/@)&O@)@)@)&O&O@)&P&Q&R++++++++++++++++++++++++++++++++",
"++++++++++++++++++++++++++++++++++&S&S&T&N&B&M&N&N&N&N&N&U&V&W&X&Y++++++++++++++++++++++++++++++++++",
"++++++++++++++++++++++++++++++++++++++&Z*+*@&T&T&T&T*#*$&U*%*&***=++++++++++++++++++++++++++++++++++",
"++++++++++++++++++++++++++++++++++++++++++++++*+++++*-*;&J++++++++++++++++++++++++++++++++++++++++++",
"++++++++++++++++++++++++++++++++++++++++++++++++++++++++++++++++++++++++++++++++++++++++++++++++++++"};
