/* XPM */
static char * ball_red_xpm[] = {
"24 24 250 2",
"#I c #C4C4C4",
"#H c #7F716F",
"#G c #A69E9E",
"#F c #734139",
"#E c #540B01",
"#D c #430F08",
"#C c #72605E",
"#B c #987F7D",
"#A c #722D24",
"#z c #590B01",
"#y c #4F0A01",
"#x c #470901",
"#w c #3D0801",
"#v c #5B403D",
"#u c #9E6962",
"#t c #7A2B20",
"#s c #5E0C01",
"#r c #560B01",
"#q c #520B01",
"#p c #4B0A01",
"#o c #440801",
"#n c #380701",
"#m c #5F4744",
"#l c #B2B0AE",
"#k c #985F57",
"#j c #772116",
"#i c #680D01",
"#h c #5C0B01",
"#g c #570C01",
"#f c #4F0901",
"#e c #500B01",
"#d c #450801",
"#c c #420901",
"#b c #3B0701",
"#a c #503431",
"#0 c #9E9999",
"#9 c #A97872",
"#8 c #7F2419",
"#7 c #690C01",
"#6 c #690E02",
"#5 c #600D02",
"#4 c #5D0C01",
"#3 c #520A01",
"#2 c #500C01",
"#1 c #510B01",
"#| c #490B02",
"#} c #480A02",
"#[ c #5A3934",
"#< c #BEBDBB",
"#: c #CBC4C2",
"#_ c #8A3A2F",
"#( c #780F01",
"#/ c #791102",
"#^ c #700D01",
"#] c #771202",
"#{ c #730F01",
"#~ c #700F02",
"#! c #6B1505",
"#) c #670D02",
"#' c #5A0D02",
"#, c #570D03",
"#> c #520F03",
"#; c #4B0C02",
"#- c #64433E",
"#= c #A8746C",
"#* c #7E1002",
"#& c #7B1002",
"#% c #821002",
"#$ c #771604",
"## c #851002",
"#@ c #8F1604",
"#+ c #811504",
"@Z c #831504",
"@Y c #771806",
"@X c #7B1705",
"@W c #691304",
"@V c #6D0F02",
"@U c #640F03",
"@T c #551108",
"@S c #A19290",
"@R c #91382E",
"@Q c #841002",
"@P c #8B1002",
"@O c #921403",
"@N c #9C1804",
"@M c #8D230A",
"@L c #A01B07",
"@K c #9E1C07",
"@J c #A91C07",
"@I c #A81B07",
"@H c #A7200C",
"@G c #9A240D",
"@F c #931C07",
"@E c #821807",
"@D c #671304",
"@C c #8D6158",
"@B c #B28B85",
"@A c #8B1305",
"@z c #981403",
"@y c #9D1D08",
"@x c #AD240C",
"@w c #A71F09",
"@v c #B5230A",
"@u c #B8230B",
"@t c #AE371D",
"@s c #B72712",
"@r c #AF2B13",
"@q c #B1220C",
"@p c #AF2F18",
"@o c #AD1E08",
"@n c #9E1C09",
"@m c #892919",
"@l c #C6B6B3",
"@k c #A95B50",
"@j c #971504",
"@i c #B01905",
"@h c #BA1C07",
"@g c #BD220B",
"@f c #CC3112",
"@e c #CB2F11",
"@d c #D03011",
"@c c #C22E11",
"@b c #CC280E",
"@a c #C52F18",
"@0 c #CD3820",
"@9 c #C84A31",
"@8 c #BF290F",
"@7 c #C3280F",
"@6 c #B5250B",
"@5 c #A41F09",
"@4 c #A96961",
"@3 c #AE6A61",
"@2 c #A11705",
"@1 c #B81A06",
"@| c #BC230A",
"@} c #D23817",
"@[ c #DE4F27",
"@< c #D14920",
"@: c #CF3616",
"@_ c #D63112",
"@( c #DA3B1F",
"@/ c #DD6C56",
"@^ c #DB6F5A",
"@] c #DF5E49",
"@{ c #CE4329",
"@~ c #C8391C",
"@! c #CE2E10",
"@) c #B62B0F",
"@' c #B46054",
"@, c #C6AFAE",
"@> c #AD2E1D",
"@; c #B81C07",
"@- c #C6220A",
"@= c #CD3211",
"@* c #CD3E1A",
"@& c #E15329",
"@% c #E45329",
"@$ c #D0421C",
"@# c #D54B2B",
"@@ c #E98E7F",
"@+ c #E68D7B",
"+Z c #E4715D",
"+Y c #DC4A2E",
"+X c #D33715",
"+W c #DC3211",
"+V c #CC3114",
"+U c #CD9B91",
"+T c #B7675D",
"+S c #B61B06",
"+R c #C22109",
"+Q c #D42C0E",
"+P c #E34821",
"+O c #E3572B",
"+N c #DC4D25",
"+M c #E54C26",
"+L c #EA6F56",
"+K c #E37058",
"+J c #EF9383",
"+I c #D04325",
"+H c #C4361A",
"+G c #E03814",
"+F c #DE3A14",
"+E c #D7654F",
"+D c #D2C9C8",
"+C c #BE5343",
"+B c #B11805",
"+A c #C82208",
"+z c #D33211",
"+y c #DA3C18",
"+x c #DA3A18",
"+w c #D63B18",
"+v c #E14D2A",
"+u c #E9684C",
"+t c #DC634A",
"+s c #A7321A",
"+r c #B4280D",
"+q c #E53613",
"+p c #E34623",
"+o c #CEACA3",
"+n c #A8AD98",
"+m c #A93E2B",
"+l c #B11302",
"+k c #C62209",
"+j c #D72B0D",
"+i c #C33111",
"+h c #9F6F47",
"+g c #E02E0D",
"+f c #DD4828",
"+e c #A8250F",
"+d c #700E02",
"+c c #9C5D36",
"+b c #BF6842",
"+a c #D6A398",
"+0 c #B7BDAF",
"+9 c #7E9666",
"+8 c #897147",
"+7 c #89341F",
"+6 c #792E18",
"+5 c #704724",
"+4 c #88AC75",
"+3 c #93643B",
"+2 c #8C4C27",
"+1 c #7C603A",
"+| c #8A9E6D",
"+} c #94B782",
"+[ c #ACA68B",
"+< c #C1C6BD",
"+: c #ABBB9F",
"+_ c #ACC0A2",
"+( c #A0B594",
"+/ c #9EB18F",
"+^ c #6D7D50",
"+] c #8CA47E",
"+{ c #A5B996",
"+~ c #A5B894",
"+! c #A3B993",
"+) c #B8C5B3",
"+' c #6E7A55",
"+, c #A7B5A2",
"+> c #9AA190",
"+; c #708656",
"+- c #CBCDC9",
"+= c #CFCFCE",
"+* c #727E5C",
"+& c #AEBCA6",
"+% c #818B6E",
"+$ c #9FAF93",
"+# c #BBC0B4",
"+@ c #C5CAC3",
"++ c None",
"++++++++++++++++++++++++++++++++++++++++++++++++",
"+++++++++++++++++++++++++++@+#++++++++++++++++++",
"+++++++++++++++++++++++++++$+%++++++++++++++++++",
"+++++++++++++++++++++++++&+*+=++++++++++++++++++",
"+++++++++++++++++++++++-+;+>++++++++++++++++++++",
"+++++++++++++++++++++++,+'++++++++++++++++++++++",
"+++++++++++++++)+!+~+{+]+^+/+(+_+:+<++++++++++++",
"+++++++++++++[+}+|+1+2+3+4+5+6+7+8+9+0++++++++++",
"+++++++++++a+b+c+d+e+f+g+h+i+j+k+l+m+n+@++++++++",
"+++++++++o+p+q+r+s+t+u+v+w+x+y+z+A+B+C+D++++++++",
"+++++++++E+F+G+H+I+J+K+L+M+N+O+P+Q+R+S+T++++++++",
"+++++++U+V+W+X+Y+Z@+@@@#@$@%@&@*@=@-@;@>@,++++++",
"++++++@'@)@!@~@{@]@^@/@(@_@:@<@[@}@|@1@2@3++++++",
"++++++@4@5@6@7@8@9@0@a@b@c@d@e@f@g@h@i@j@k++++++",
"++++++@l@m@n@o@p@q@r@s@t@u@v@;@w@x@y@z@A@B++++++",
"++++++++@C@D@E@F@G@H@I@J@K@L@M@N@O@P@Q@R+D++++++",
"++++++++@S@T@U@V@W@X@Y@Z#+#@###$#%#&#*#=++++++++",
"++++++++++#-#;#>#,#'#)#!#~#{#]#^#/#(#_#:++++++++",
"++++++++++#<#[#}#|#1#2#3#4#5#6#7#^#8#9++++++++++",
"++++++++++++#0#a#b#c#d#e#f#g#h#i#j#k++++++++++++",
"++++++++++++++#l#m#n#o#p#q#r#s#t#u++++++++++++++",
"+++++++++++++++++=#v#w#x#y#z#A#B++++++++++++++++",
"++++++++++++++++++++#C#D#E#F#0++++++++++++++++++",
"++++++++++++++++++++++#G#H#I++++++++++++++++++++"};
