/* XPM */
static char * ball_red_xpm[] = {
"21 21 338 2",
"$H c #C4C4C4",
"$G c #B0B0B0",
"$F c #A09C9A",
"$E c #8F857E",
"$D c #82746A",
"$C c #796D64",
"$B c #776C65",
"$A c #827B77",
"$z c #969492",
"$y c #ADADAD",
"$x c #C2C2C2",
"$w c #D0D0D0",
"$v c #CFCFCF",
"$u c #BFBFBF",
"$t c #A49D97",
"$s c #99775C",
"$r c #8F572D",
"$q c #804417",
"$p c #6F3912",
"$o c #5D2E0D",
"$n c #51290D",
"$m c #502F19",
"$l c #645449",
"$k c #93908E",
"$j c #BBBBBA",
"$i c #CDCDCD",
"$h c #C7C7C7",
"$g c #B29B89",
"$f c #B67137",
"$e c #A75C23",
"$d c #914E1C",
"$c c #824417",
"$b c #6F3911",
"$a c #6B3610",
"$0 c #65330F",
"$9 c #60300E",
"$8 c #5C2E0D",
"$7 c #5C371C",
"$6 c #88786D",
"$5 c #C5C4C3",
"$4 c #CECECD",
"$3 c #C5A98F",
"$2 c #D18037",
"$1 c #B86A2B",
"$| c #A25B27",
"$} c #945221",
"$[ c #894A1C",
"$< c #854619",
"$: c #7A3F14",
"$_ c #7B3F14",
"$( c #793E14",
"$/ c #783F16",
"$^ c #977F6E",
"$] c #CECDCD",
"${ c #CEB197",
"$~ c #DE8E40",
"$! c #CA7A37",
"$) c #B66C32",
"$' c #A7612D",
"$, c #945222",
"$> c #8B4A1C",
"$; c #89491B",
"$- c #8C4A19",
"$= c #904C19",
"$* c #944F1B",
"$& c #9C541B",
"$% c #A1561C",
"$$ c #98511A",
"$# c #96511C",
"$@ c #AB896F",
"$+ c #D8BFA1",
"#Z c #E19C56",
"#Y c #D8863D",
"#X c #C97D3E",
"#W c #BA7139",
"#V c #AC6632",
"#U c #A15C2A",
"#T c #995625",
"#S c #995422",
"#R c #96511E",
"#Q c #9A521D",
"#P c #9E551E",
"#O c #A3591F",
"#N c #A95C1F",
"#M c #B56422",
"#L c #B76622",
"#K c #B46421",
"#J c #B26E37",
"#I c #C5AE9C",
"#H c #E3AF76",
"#G c #E18F40",
"#F c #D38440",
"#E c #C57B3F",
"#D c #B66F39",
"#C c #AA6432",
"#B c #A45E2C",
"#A c #A15924",
"#z c #A15821",
"#y c #A85D23",
"#x c #B06224",
"#w c #BC6B28",
"#v c #BE6D29",
"#u c #C36F28",
"#t c #CA752A",
"#s c #CD7628",
"#r c #C77226",
"#q c #C69468",
"#p c #D1D1D1",
"#o c #D4CBBF",
"#n c #DDA368",
"#m c #D78740",
"#l c #C77C3F",
"#k c #B8713A",
"#j c #A96331",
"#i c #A5602D",
"#h c #A65F2B",
"#g c #A45C27",
"#f c #AB5F25",
"#e c #B16427",
"#d c #B8692A",
"#c c #BF6F2D",
"#b c #CD7A31",
"#a c #D58033",
"#0 c #D57F30",
"#9 c #DF8833",
"#8 c #DF8630",
"#7 c #D58D49",
"#6 c #D5B89A",
"#5 c #D4B693",
"#4 c #D98D44",
"#3 c #CC7D3B",
"#2 c #BA7138",
"#1 c #B16A36",
"#| c #A8622F",
"#} c #A45E2A",
"#[ c #A75E28",
"#< c #AA5F27",
"#: c #B06326",
"#_ c #B9692A",
"#( c #C4732F",
"#/ c #CB7A34",
"#^ c #D5843A",
"#] c #DD8D3F",
"#{ c #E19140",
"#~ c #E4903C",
"#! c #E69139",
"#) c #EB9437",
"#' c #E48F37",
"#, c #D8B691",
"#> c #D49B65",
"#; c #CF7C33",
"#- c #B86C31",
"#= c #AE662F",
"#* c #A86330",
"#& c #A35D2A",
"#% c #A45D28",
"#$ c #A65D25",
"## c #AC6025",
"#@ c #B56628",
"#+ c #BD6D2C",
"@Z c #CC7A34",
"@Y c #D3833C",
"@X c #DD8F42",
"@W c #E89E4C",
"@V c #EDA54F",
"@U c #F1A84D",
"@T c #EFA145",
"@S c #F29F3D",
"@R c #E4A662",
"@Q c #CC9058",
"@P c #BB6A29",
"@O c #AA6029",
"@N c #A15B28",
"@M c #9E5927",
"@L c #9F5926",
"@K c #A35A23",
"@J c #A95D24",
"@I c #B16326",
"@H c #BC6C2A",
"@G c #C87631",
"@F c #D3823B",
"@E c #DD8F43",
"@D c #E2984A",
"@C c #EEAA55",
"@B c #F4B459",
"@A c #F6B456",
"@z c #F7B150",
"@y c #F7AF49",
"@x c #F5A33E",
"@w c #EAAA5F",
"@v c #C78F5E",
"@u c #AA5F25",
"@t c #9C5623",
"@s c #965221",
"@r c #945120",
"@q c #9A5420",
"@p c #A25820",
"@o c #A85C22",
"@n c #B66626",
"@m c #C2702C",
"@l c #CA7832",
"@k c #D9883E",
"@j c #E39747",
"@i c #EDA854",
"@h c #F4B65C",
"@g c #F6BA5E",
"@f c #F9BD5C",
"@e c #FABF5A",
"@d c #FBBC51",
"@c c #FAAF44",
"@b c #E9B572",
"@a c #BFAB9B",
"@0 c #A16333",
"@9 c #8D4A19",
"@8 c #864719",
"@7 c #884719",
"@6 c #954F1B",
"@5 c #A1571E",
"@4 c #A95D21",
"@3 c #B76725",
"@2 c #C2702B",
"@1 c #CD7930",
"@| c #DC8A3C",
"@} c #E69A48",
"@[ c #EFA952",
"@< c #F5B55A",
"@: c #F8BE5F",
"@_ c #FBC763",
"@( c #FDC75D",
"@/ c #FEC555",
"@^ c #FAB84C",
"@] c #DDC3A1",
"@{ c #CDC7C2",
"@~ c #9D6B45",
"@! c #7B4014",
"@) c #7C4115",
"@' c #804316",
"@, c #8D4A18",
"@> c #A0561C",
"@; c #AD5F20",
"@- c #B96723",
"@= c #C26F28",
"@* c #D17C2F",
"@& c #DC8736",
"@% c #E5923E",
"@$ c #EDA149",
"@# c #F3AC4F",
"@@ c #F8B957",
"@+ c #FBC15A",
"+Z c #FDC758",
"+Y c #FEC453",
"+X c #F2BD66",
"+W c #D9C8B3",
"+V c #9F836F",
"+U c #713F1B",
"+T c #6B3611",
"+S c #7D4115",
"+R c #904C18",
"+Q c #A4591D",
"+P c #B36320",
"+O c #BD6A23",
"+N c #C36F26",
"+M c #CC772A",
"+L c #D57E2E",
"+K c #DE8734",
"+J c #E7923B",
"+I c #ED9D41",
"+H c #F4A947",
"+G c #F8B24C",
"+F c #FDBF51",
"+E c #FCBF4F",
"+D c #E8C185",
"+C c #C1BDB9",
"+B c #7E5F48",
"+A c #60300F",
"+z c #763D13",
"+y c #AA5C1E",
"+x c #BC6A23",
"+w c #BF7025",
"+v c #C16F24",
"+u c #CA7427",
"+t c #D47D2B",
"+s c #E18931",
"+r c #EB973A",
"+q c #F4A541",
"+p c #FAB146",
"+o c #F0B968",
"+n c #D8BA97",
"+m c #867669",
"+l c #664833",
"+k c #6A3610",
"+j c #914D18",
"+i c #B76621",
"+h c #C87227",
"+g c #CF7827",
"+f c #8D5B21",
"+e c #645125",
"+d c #835D28",
"+c c #B36621",
"+b c #BE6B23",
"+a c #D07A29",
"+0 c #E38B31",
"+9 c #EF9939",
"+8 c #EDB164",
"+7 c #DCCAAF",
"+6 c #857D77",
"+5 c #877568",
"+4 c #8C5327",
"+3 c #B16321",
"+2 c #C87326",
"+1 c #D27B29",
"+| c #BF7026",
"+} c #8F5D24",
"+[ c #AA6927",
"+< c #BD6B23",
"+: c #C36F24",
"+_ c #D07929",
"+( c #E18D38",
"+/ c #E5AC6A",
"+^ c #D6CABB",
"+] c #A89F97",
"+{ c #A88C73",
"+~ c #B27A4B",
"+! c #BB7439",
"+) c #C4752F",
"+' c #C57731",
"+, c #CA7E39",
"+> c #CE8B4C",
"+; c #D7A573",
"+- c #DBB58E",
"+= c #CAC3BB",
"+* c #BBA694",
"+& c #BD8D64",
"+% c #C18C5D",
"+$ c #CC9666",
"+# c #D7B18C",
"+@ c #CFC5BB",
"++ c None",
"++++++++++++++++++++++++++++++++++++++++++",
"+++++++++++++++@+#+$+%+&+*+=++++++++++++++",
"+++++++++++-+;+>+,+'+)+'+!+~+{+]++++++++++",
"+++++++^+/+(+_+:+<+[+}+|+1+2+3+4+5+6++++++",
"+++++7+8+9+0+a+b+c+d+e+f+g+h+i+j+k+l+m++++",
"+++n+o+p+q+r+s+t+u+v+w+:+:+x+y+j+z+A+B+C++",
"+++D+E+F+G+H+I+J+K+L+M+N+O+P+Q+R+S+T+U+V++",
"+W+X+Y+Z@+@@@#@$@%@&@*@=@-@;@>@,@'@)@!@~@{",
"@]@^@/@(@_@:@<@[@}@|@1@2@3@4@5@6@7@8@9@0@a",
"@b@c@d@e@f@g@h@i@j@k@l@m@n@o@p@q@r@s@t@u@v",
"@w@x@y@z@A@B@C@D@E@F@G@H@I@J@K@L@M@N@O@P@Q",
"@R+9@S@T@U@V@W@X@Y@Z#+#@###$#%#&#*#=#-#;#>",
"#,#'#)#!#~#{#]#^#/#(#_#:#<#[#}#|#1#2#3#4#5",
"#6#7#8#9#0#a#b@G#c#d#e#f#g#h#i#j#k#l#m#n#o",
"#p#q#r#s#t#u#v#w#x#y#z#A@L#B#C#D#E#F#G#H++",
"++#I#J#K#L#M#N#O#P#Q#R#S#T#U#V#W#X#Y#Z$+++",
"++#p$@$#$$$%$&$*$=$-$;$>$,#T$'$)$!$~${++++",
"++++$]$^$/@)$($_$($:@)$<$[$}$|$1$2$3$4++++",
"++++#p$5$6$7$8$9$0$a$b$($c$d$e$f$g$h#p++++",
"++++#p$i$j$k$l$m$n$o$0$p$q$r$s$t$u$v++++++",
"++++++$w$i$x$y$z$A$B$C$D$E$F$G$H$v#p++++++"};
