/* XPM */
static char * ball_red_xpm[] = {
"21 21 174 2",
"@V c #B1B1B0",
"@U c #97998F",
"@T c #848773",
"@S c #7E7B6B",
"@R c #827F72",
"@Q c #949490",
"@P c #B0B0B0",
"@O c #C7C7C7",
"@N c #CACAC9",
"@M c #A9AAA8",
"@L c #8F9963",
"@K c #949B3F",
"@J c #918C39",
"@I c #908339",
"@H c #95883B",
"@G c #867A40",
"@F c #858263",
"@E c #AAAAAA",
"@D c #CBCBCA",
"@C c #A3B36C",
"@B c #ADB340",
"@A c #ABAF3E",
"@z c #B3C041",
"@y c #B6BE43",
"@x c #B8BD43",
"@w c #ADA742",
"@v c #AAA741",
"@u c #98A36D",
"@t c #C1C2C1",
"@s c #BBBFA4",
"@r c #BBCC4B",
"@q c #A8C349",
"@p c #BBD549",
"@o c #CCE04D",
"@n c #CCE14F",
"@m c #D1DA4F",
"@l c #C7D550",
"@k c #D2E450",
"@j c #C8DF53",
"@i c #BBC0AB",
"@h c #D2D3D0",
"@g c #CECECE",
"@f c #BFC46D",
"@e c #AEBC48",
"@d c #BCD357",
"@c c #D2E355",
"@b c #C8E353",
"@a c #B9DC57",
"@0 c #CDDD55",
"@9 c #BBDC59",
"@8 c #D1F85F",
"@7 c #DEFD63",
"@6 c #C3D97D",
"@5 c #CED2B9",
"@4 c #BCC166",
"@3 c #B1BA4D",
"@2 c #CDDA6B",
"@1 c #D8E15E",
"@| c #BEE158",
"@} c #ABD25C",
"@[ c #C0D75A",
"@< c #B7DD5F",
"@: c #CBFA6F",
"@_ c #D9FE78",
"@( c #D2F284",
"@/ c #D2DAC2",
"@^ c #C7C7A5",
"@] c #ACBC5C",
"@{ c #ABBB4D",
"@~ c #C6D86B",
"@! c #BFDB61",
"@) c #B4D95A",
"@' c #B1D65D",
"@, c #B9DB5F",
"@> c #C6F069",
"@; c #CFFE7F",
"@- c #D2FF84",
"@= c #CFF78C",
"@* c #D3E2B4",
"@& c #C7C7A8",
"@% c #A5AB58",
"@$ c #95A244",
"@# c #A3BE60",
"@@ c #A0C764",
"@+ c #A9D45C",
"+Z c #B9DE5F",
"+Y c #C4EB65",
"+X c #CCF971",
"+W c #D4FF88",
"+V c #D1F696",
"+U c #D3DDBB",
"+T c #C9CBC2",
"+S c #949959",
"+R c #81903B",
"+Q c #7F9C55",
"+P c #99BA61",
"+O c #A9D25D",
"+N c #BFE561",
"+M c #C7F268",
"+L c #D2FE7E",
"+K c #D3FE8A",
"+J c #D0FE8D",
"+I c #D1F39B",
"+H c #D2D2D1",
"+G c #A0A382",
"+F c #7F8B3D",
"+E c #738C48",
"+D c #95B45F",
"+C c #A5CB5D",
"+B c #BEE45E",
"+A c #C9F56A",
"+z c #D3FE83",
"+y c #D1FF8B",
"+x c #D0FD8E",
"+w c #D1E6AE",
"+v c #C7C7C4",
"+u c #919665",
"+t c #7F8E3F",
"+s c #93AB57",
"+r c #9CBD59",
"+q c #B8DD5C",
"+p c #C6F267",
"+o c #D4FE80",
"+n c #D0FF8C",
"+m c #D1F09E",
"+l c #D1D5CC",
"+k c #B6B7AB",
"+j c #919548",
"+i c #9AA951",
"+h c #A1BF5C",
"+g c #B6DD5B",
"+f c #C8F165",
"+e c #D2FB8D",
"+d c #D1DCBF",
"+c c #A2A366",
"+b c #A0A94B",
"+a c #A0B859",
"+0 c #B6DA59",
"+9 c #CBF165",
"+8 c #D3FE75",
"+7 c #D2ECA1",
"+6 c #BDBDA3",
"+5 c #9A9D44",
"+4 c #9CB455",
"+3 c #BADB5A",
"+2 c #D1F468",
"+1 c #D8FE7C",
"+| c #D3E4AF",
"+} c #A3A587",
"+[ c #8B8F51",
"+< c #93A74A",
"+: c #C9E664",
"+_ c #E1FEA2",
"+( c #D6F993",
"+/ c #D3ED9E",
"+^ c #BEC1B7",
"+] c #787E64",
"+{ c #899245",
"+~ c #D5E767",
"+! c #DFFE96",
"+) c #D4EEA7",
"+' c #D2D9C4",
"+, c #ABACA7",
"+> c #8F9078",
"+; c #8B9452",
"+- c #D3E797",
"+= c #D4E2B7",
"+* c #D2D3D1",
"+& c #989D8A",
"+% c #C3C4BE",
"+$ c #A5A895",
"+# c #D0D0CD",
"+@ c #8D9378",
"++ c None",
"++++++++++++++++++++++++++++++++++++++++++",
"+++++++++++++++++++++@++++++++++++++++++++",
"+++++++++++++++++++#+$++++++++++++++++++++",
"+++++++++++++++++++%+&+*++++++++++++++++++",
"+++++++++++++++++=+-+;+>+,++++++++++++++++",
"+++++++++++++++'+)+!+~+{+]+^++++++++++++++",
"+++++++++++++++/+(+_+:+<+[+}++++++++++++++",
"+++++++++++++++|+1+2+3+4+5+6++++++++++++++",
"+++++++++++++++7+8+9+0+a+b+c++++++++++++++",
"+++++++++++++d+e+8+f+g+h+i+j+k++++++++++++",
"+++++++++++l+m+n+o+p+q+r+s+t+u+v++++++++++",
"+++++++++++w+x+y+z+A+B+C+D+E+F+G++++++++++",
"+++++++++H+I+J+K+L+M+N+O+P+Q+R+S+T++++++++",
"+++++++++U+V+J+W+X+Y+Z@+@@@#@$@%@&++++++++",
"++++++++@*@=@-@;@>@,@'@)@!@~@{@]@^++++++++",
"++++++++@/@(@_@:@<@[@}@|@1@2@3@4@5++++++++",
"+++++++++*@6@7@8@9@0@a@b@c@d@e@f@g++++++++",
"++++++++@h@i@j@k@l@m@n@o@p@q@r@s+*++++++++",
"+++++++++*@t@u@v@w@x@y@z@A@B@C@t+*++++++++",
"++++++++++@D@E@F@G@H@I@J@K@L@M@N++++++++++",
"++++++++++@g@O@P@Q@R@S@T@U@V@O@g++++++++++"};
