/* XPM */
static char * ball_red_xpm[] = {
"44 44 588 2",
"*q c #777B66",
"*p c #798255",
"*o c #868F40",
"*n c #7B8052",
"*m c #73764A",
"*l c #847636",
"*k c #7E7039",
"*j c #6F6742",
"*i c #7D6F34",
"*h c #68613F",
"*g c #605D4C",
"*f c #7D8271",
"*e c #868D6D",
"*d c #8A925B",
"*c c #88934C",
"*b c #8E9638",
"*a c #8E8D37",
"*0 c #86823A",
"*9 c #897A37",
"*8 c #897937",
"*7 c #8B7B37",
"*6 c #8B7C38",
"*5 c #796F3D",
"*4 c #746C4B",
"*3 c #726B4B",
"*2 c #6F6948",
"*1 c #95AD4A",
"*| c #92A24F",
"*} c #A1A83F",
"*[ c #A1A53C",
"*< c #999C3A",
"*: c #98913A",
"*_ c #998D3A",
"*( c #968D3A",
"*/ c #9C913C",
"*^ c #A3983F",
"*] c #9B8B3C",
"*{ c #907F39",
"*~ c #897D40",
"*! c #898243",
"*) c #80855B",
"*' c #7C7D78",
"*, c #A3BB57",
"*> c #A3B84D",
"*; c #ABB641",
"*- c #A3A13D",
"*= c #A29E3C",
"** c #A7A93C",
"*& c #ABAF3E",
"*% c #ACB03F",
"*$ c #AAAA40",
"*# c #ADB240",
"*@ c #ADB041",
"*+ c #A39D3F",
"&Z c #9E963D",
"&Y c #9F913D",
"&X c #A19940",
"&W c #949B4E",
"&V c #898F6D",
"&U c #A5AD88",
"&T c #A9C253",
"&S c #BBD146",
"&R c #B0B140",
"&Q c #A8A63C",
"&P c #ADAF3E",
"&O c #B7C741",
"&N c #B9CE43",
"&M c #BCD144",
"&L c #BDD246",
"&K c #C3CA47",
"&J c #C4CD47",
"&I c #C0C446",
"&H c #B8B446",
"&G c #B8B346",
"&F c #B5AD44",
"&E c #B4B243",
"&D c #B1C143",
"&C c #98AA54",
"&B c #869B51",
"&A c #A2AD7B",
"&z c #B5D149",
"&y c #BCCD44",
"&x c #B1B540",
"&w c #ABB540",
"&v c #B0BF42",
"&u c #BCD244",
"&t c #C0D846",
"&s c #C4DB48",
"&r c #C5DB49",
"&q c #CDD64B",
"&p c #C9CD4A",
"&o c #C2BE4A",
"&n c #C4C54B",
"&m c #C5C749",
"&l c #C3C847",
"&k c #C0D246",
"&j c #AAC14A",
"&i c #9CA677",
"&h c #94997B",
"&g c #A8B168",
"&f c #AFBD61",
"&e c #C1D546",
"&d c #B0C246",
"&c c #A6C349",
"&b c #ACCC4D",
"&a c #B4D24C",
"&0 c #C2DA48",
"&9 c #CFDF4D",
"&8 c #CBE24F",
"&7 c #C9E24F",
"&6 c #D1E150",
"&5 c #D5DF51",
"&4 c #CED74E",
"&3 c #C7D050",
"&2 c #C9DC50",
"&1 c #D3E451",
"&| c #D6E651",
"&} c #D5E850",
"&[ c #CFE94F",
"&< c #A7B864",
"&: c #9CA96B",
"&_ c #B1B783",
"&( c #C6D44E",
"&/ c #B7C246",
"&^ c #A5C14C",
"&] c #A3CC54",
"&{ c #B5D953",
"&~ c #C1DE51",
"&! c #CCE14F",
"&) c #D4E451",
"&' c #C8E451",
"&, c #C1E453",
"&> c #C9E756",
"&; c #D8E253",
"&- c #CAD950",
"&= c #C1D653",
"&* c #C6E456",
"&& c #D1F056",
"&% c #D6F456",
"&$ c #DDF557",
"&# c #DDFA5C",
"&@ c #C8E75A",
"&+ c #B2BB90",
"%Z c #B9C075",
"%Y c #C3C84C",
"%X c #A9B747",
"%W c #ADC34D",
"%V c #BFD356",
"%U c #C9E154",
"%T c #CFE453",
"%S c #D7E354",
"%R c #D3E552",
"%Q c #BEE153",
"%P c #B2DA56",
"%O c #C0E157",
"%N c #D6E255",
"%M c #C6D955",
"%L c #B7D658",
"%K c #BEE15C",
"%J c #CEF55E",
"%I c #D4FB60",
"%H c #DAFC60",
"%G c #DDFE62",
"%F c #DBFD60",
"%E c #B3C384",
"%D c #C4C75C",
"%C c #B5BA48",
"%B c #A9B748",
"%A c #B8C353",
"%z c #C4D361",
"%y c #CFDC62",
"%x c #D9E05F",
"%w c #DBE557",
"%v c #C7E553",
"%u c #BBDF56",
"%t c #ADCC57",
"%s c #CDDE56",
"%r c #BFD358",
"%q c #B0D15A",
"%p c #B9E25E",
"%o c #CAF667",
"%n c #D1FC6A",
"%m c #D2FD6E",
"%l c #DEFD6E",
"%k c #DEFE65",
"%j c #C7E76D",
"%i c #BDBA49",
"%h c #A7B546",
"%g c #B0B84C",
"%f c #C5CD62",
"%e c #CEDE70",
"%d c #D1DD67",
"%c c #D8DF61",
"%b c #DBE75B",
"%a c #C9E858",
"%0 c #B6E059",
"%9 c #A9D45C",
"%8 c #ABD35C",
"%7 c #C5DB5A",
"%6 c #BFD25A",
"%5 c #B0CD5C",
"%4 c #BAE261",
"%3 c #C7F66A",
"%2 c #CBFC6F",
"%1 c #D0FE77",
"%| c #DAFE7C",
"%} c #D9FD76",
"%[ c #D1FD6D",
"%< c #D3DBC1",
"%: c #B3BB45",
"%_ c #A2B845",
"%( c #B1BB4D",
"%/ c #CAD365",
"%^ c #D1DE70",
"%] c #C4D96A",
"%{ c #C7DA65",
"%~ c #D4E15D",
"%! c #C5E057",
"%) c #ACD55A",
"%' c #AECF5D",
"%, c #B7D65D",
"%> c #B8D55D",
"%; c #BDE361",
"%- c #C3F067",
"%= c #CBFA70",
"%* c #CDFD78",
"%& c #D1FF80",
"%% c #D7FE7F",
"%$ c #D4FE7C",
"%# c #D1FE76",
"%@ c #A5BA45",
"%+ c #9BB444",
"$Z c #AAB94B",
"$Y c #C0CE60",
"$X c #C9DA6C",
"$W c #BBD569",
"$V c #B9D764",
"$U c #C5E15D",
"$T c #BFDF59",
"$S c #A8D15B",
"$R c #AED65D",
"$Q c #B3D45E",
"$P c #B4D65F",
"$O c #B9DC60",
"$N c #C3EA65",
"$M c #C9F76E",
"$L c #CDFD77",
"$K c #CFFE7F",
"$J c #D1FE86",
"$I c #D3FE85",
"$H c #CFFE82",
"$G c #CDFE80",
"$F c #D3E2B3",
"$E c #A4B741",
"$D c #9CAD41",
"$C c #A3B149",
"$B c #AFC357",
"$A c #BAD064",
"$z c #B2CF68",
"$y c #AACD66",
"$x c #ACD45F",
"$w c #AFD95B",
"$v c #A8D25B",
"$u c #B0D85C",
"$t c #B9DC5E",
"$s c #BEE662",
"$r c #C2E763",
"$q c #C7F067",
"$p c #CDFA71",
"$o c #D1FE83",
"$n c #D2FE89",
"$m c #D0FF89",
"$l c #CEFF83",
"$k c #D3E2B4",
"$j c #C7C7A5",
"$i c #99A33D",
"$h c #9A9F3D",
"$g c #95A244",
"$f c #9BB050",
"$e c #A7C061",
"$d c #A3C667",
"$c c #9FC566",
"$b c #A1CA61",
"$a c #A6D15D",
"$0 c #ACD65C",
"$9 c #B5DA5D",
"$8 c #BEE260",
"$7 c #C1E863",
"$6 c #C5ED66",
"$5 c #C8F569",
"$4 c #CFFC77",
"$3 c #D4FF84",
"$2 c #D1FF8C",
"$1 c #D0FF8E",
"$| c #D0FF87",
"$} c #D3DFB8",
"$[ c #8B9540",
"$< c #8D943A",
"$: c #87953E",
"$_ c #869F4D",
"$( c #8FAB5D",
"$/ c #95B765",
"$^ c #98BC66",
"$] c #A0C560",
"${ c #A5D05D",
"$~ c #AFD85D",
"$! c #BADF5F",
"$) c #BEE461",
"$' c #C4EA63",
"$, c #C7F469",
"$> c #CDFA70",
"$; c #D3FE7E",
"$- c #D4FE87",
"$= c #D0FF8F",
"$* c #D0FB8A",
"$& c #D2D6C8",
"$% c #8D9448",
"$$ c #889039",
"$# c #83913C",
"$@ c #7B9549",
"$+ c #83A158",
"#Z c #8FB163",
"#Y c #96B764",
"#X c #9FC260",
"#W c #A5CF5D",
"#V c #AFD85C",
"#U c #BDE260",
"#T c #C0E561",
"#S c #C4EB63",
"#R c #C9F66B",
"#Q c #CFFC75",
"#P c #D4FF83",
"#O c #D3FF89",
"#N c #D2FE8A",
"#M c #D0FE8F",
"#L c #D0F98F",
"#K c #979A62",
"#J c #828937",
"#I c #83903B",
"#H c #748B42",
"#G c #77934F",
"#F c #89A95D",
"#E c #93B361",
"#D c #A4CA5D",
"#C c #ADD65D",
"#B c #BEE35F",
"#A c #C1E963",
"#z c #C5ED65",
"#y c #CBF86D",
"#x c #D2FE7A",
"#w c #D4FF88",
"#v c #D2FF8B",
"#u c #D1FE8B",
"#t c #D0FE8D",
"#s c #D2EFA1",
"#r c #93966A",
"#q c #7C823C",
"#p c #808B39",
"#o c #74893E",
"#n c #718C48",
"#m c #84A35A",
"#l c #91B060",
"#k c #9EBE60",
"#j c #A3C95D",
"#i c #ABD45D",
"#h c #BDE35D",
"#g c #C0E862",
"#f c #CDFB6E",
"#e c #D3FF8A",
"#d c #D2FF8A",
"#c c #D0FE8C",
"#b c #CFFF8D",
"#a c #D0FB8B",
"#0 c #D1ECA2",
"#9 c #797F43",
"#8 c #868B52",
"#7 c #7E8938",
"#6 c #77893D",
"#5 c #6F8743",
"#4 c #7E9B54",
"#3 c #8BAA5D",
"#2 c #99B960",
"#1 c #A0C15D",
"#| c #A7D05D",
"#} c #B9DE59",
"#[ c #C2EA62",
"#< c #C6F066",
"#: c #CDFC6E",
"#_ c #D3FF8B",
"#( c #D1FF8B",
"#/ c #D0FF8D",
"#^ c #D0F299",
"#] c #D1F88E",
"#{ c #7C8355",
"#~ c #7F864A",
"#! c #808C39",
"#) c #75883E",
"#' c #80954C",
"#, c #8CA557",
"#> c #97B45F",
"#; c #98B95A",
"#- c #A0C456",
"#= c #B1D35A",
"#* c #BEE45D",
"#& c #C3ED64",
"#% c #CCF86D",
"#$ c #D4FE7B",
"## c #D4FF89",
"#@ c #D1FE8A",
"#+ c #D0FE8B",
"@Z c #CFFE8D",
"@Y c #D1F98F",
"@X c #D2F396",
"@W c #939668",
"@V c #84893E",
"@U c #868F3D",
"@T c #859345",
"@S c #8EA04C",
"@R c #9BB55C",
"@Q c #9BB75D",
"@P c #A0C156",
"@O c #B0D75C",
"@N c #C2EC62",
"@M c #C8F568",
"@L c #D2FD74",
"@K c #D4FE86",
"@J c #D1FF8A",
"@I c #D0FF8B",
"@H c #D0FB8E",
"@G c #D1EDA1",
"@F c #8F935A",
"@E c #8A903B",
"@D c #8D9640",
"@C c #919E49",
"@B c #9EB35E",
"@A c #A0BC61",
"@z c #A1C357",
"@y c #AFD65A",
"@x c #C0E55D",
"@w c #C3EC62",
"@v c #C9F568",
"@u c #D4FE7D",
"@t c #D2FE88",
"@s c #D1FE8C",
"@r c #D0EFA1",
"@q c #D0E6AA",
"@p c #8C8D56",
"@o c #97974F",
"@n c #9EA141",
"@m c #9DA547",
"@l c #9DAF59",
"@k c #A2BC60",
"@j c #A1C156",
"@i c #ACD356",
"@h c #BFE45D",
"@g c #D3FF85",
"@f c #D2F98F",
"@e c #D1EBA3",
"@d c #B0B39E",
"@c c #9E9F5F",
"@b c #A3A344",
"@a c #A2A644",
"@0 c #9DAB54",
"@9 c #ABD156",
"@8 c #BEE35C",
"@7 c #C6ED61",
"@6 c #CDF567",
"@5 c #D1FD6F",
"@4 c #D4FE7A",
"@3 c #D1FB84",
"@2 c #D1EE9D",
"@1 c #D2DEBA",
"@| c #A0A278",
"@} c #A6A652",
"@[ c #A3A642",
"@< c #9EAB52",
"@: c #A2B65E",
"@_ c #9FBA55",
"@( c #ADD055",
"@/ c #C0E45D",
"@^ c #C9ED62",
"@] c #CEF669",
"@{ c #D4FD71",
"@~ c #D5FE7A",
"@! c #D2F392",
"@) c #D0F291",
"@' c #A3A046",
"@, c #A19F3D",
"@> c #9DA549",
"@; c #A0B459",
"@- c #9BBA58",
"@= c #AED056",
"@* c #C1E55D",
"@& c #D3F86B",
"@% c #D8FD76",
"@$ c #D7FE7D",
"@# c #D4F88B",
"@@ c #9D9A44",
"@+ c #9C9942",
"+Z c #999F44",
"+Y c #9CAF54",
"+X c #9BB956",
"+W c #AFD055",
"+V c #C4E55E",
"+U c #CDEF63",
"+T c #D5F96E",
"+S c #DAFE79",
"+R c #D7FF80",
"+Q c #D5FF82",
"+P c #959763",
"+O c #959553",
"+N c #91953D",
"+M c #94A64A",
"+L c #9CB752",
"+K c #B2D459",
"+J c #CBEA61",
"+I c #D3F66D",
"+H c #D8FC7B",
"+G c #DBFE82",
"+F c #D6FB87",
"+E c #D4F98C",
"+D c #9D9F7C",
"+C c #969967",
"+B c #818539",
"+A c #8A9944",
"+z c #9AB550",
"+y c #BDD75A",
"+x c #D6F56E",
"+w c #E1FEA0",
"+v c #E2FFAE",
"+u c #D8FE93",
"+t c #D4F495",
"+s c #D3ED9D",
"+r c #AAAC94",
"+q c #929776",
"+p c #646D37",
"+o c #7F8E42",
"+n c #A7BA51",
"+m c #CCDD5C",
"+l c #DBF973",
"+k c #E7FEB7",
"+j c #E6FFC5",
"+i c #D8FE9B",
"+h c #D4F29D",
"+g c #D4EAA4",
"+f c #767C66",
"+e c #5E6747",
"+d c #75803D",
"+c c #ABB24F",
"+b c #D1D960",
"+a c #DAF96E",
"+0 c #DEFE85",
"+9 c #DAFE8F",
"+8 c #D5FA96",
"+7 c #D3F699",
"+6 c #717667",
"+5 c #616746",
"+4 c #888247",
"+3 c #B8BA56",
"+2 c #D7EF68",
"+1 c #DCFC80",
"+| c #DAFD8D",
"+} c #D6F49D",
"+[ c #C3C3C3",
"+< c #8A8E81",
"+: c #7D7D63",
"+_ c #858756",
"+( c #6D7B30",
"+/ c #D0E48B",
"+^ c #D8EE99",
"+] c #BABCB4",
"+{ c #59653B",
"+~ c #C3C2B6",
"+! c #D1D2D0",
"+) c #80866C",
"+' c #C4C5BF",
"+, c #D2D2D1",
"+> c #8C9179",
"+; c #CACBC5",
"+- c #CACBCA",
"+= c #7F8660",
"+* c #BEBFBB",
"+& c #767E53",
"+% c #A6A99F",
"+$ c #757D52",
"+# c #9EA297",
"+@ c #7C835A",
"++ c None",
"++++++++++++++++++++++++++++++++++++++++++++++++++++++++++++++++++++++++++++++++++++++++",
"++++++++++++++++++++++++++++++++++++++++++++++++++++++++++++++++++++++++++++++++++++++++",
"+++++++++++++++++++++++++++++++++++++++++++@+#++++++++++++++++++++++++++++++++++++++++++",
"+++++++++++++++++++++++++++++++++++++++++++$+%++++++++++++++++++++++++++++++++++++++++++",
"+++++++++++++++++++++++++++++++++++++++++++&+*++++++++++++++++++++++++++++++++++++++++++",
"+++++++++++++++++++++++++++++++++++++++++++=+-++++++++++++++++++++++++++++++++++++++++++",
"+++++++++++++++++++++++++++++++++++++++++;+>+,++++++++++++++++++++++++++++++++++++++++++",
"+++++++++++++++++++++++++++++++++++++++++'+)+!++++++++++++++++++++++++++++++++++++++++++",
"+++++++++++++++++++++++++++++++++++++++++~+{+]+,++++++++++++++++++++++++++++++++++++++++",
"+++++++++++++++++++++++++++++++++++++++^+/+(+_+:+<+[++++++++++++++++++++++++++++++++++++",
"+++++++++++++++++++++++++++++++++++++}+|+1+2+3+4+5+6++++++++++++++++++++++++++++++++++++",
"+++++++++++++++++++++++++++++++++++7+8+9+0+a+b+c+d+e+f++++++++++++++++++++++++++++++++++",
"+++++++++++++++++++++++++++++++++g+h+i+j+k+l+m+n+o+p+q+r++++++++++++++++++++++++++++++++",
"+++++++++++++++++++++++++++++++++s+t+u+v+w+x+y+z+A+B+C+D++++++++++++++++++++++++++++++++",
"+++++++++++++++++++++++++++++++++E+F+G+H+I+J+K+L+M+N+O+P++++++++++++++++++++++++++++++++",
"+++++++++++++++++++++++++++++++++Q+R+S+T+U+V+W+X+Y+Z@+@@++++++++++++++++++++++++++++++++",
"++++++++++++++++++++++++++++++++@#@$@%@&+U@*@=@-@;@>@,@'+r++++++++++++++++++++++++++++++",
"++++++++++++++++++++++++++++++@)@!@~@{@]@^@/@(@_@:@<@[@}@|++++++++++++++++++++++++++++++",
"++++++++++++++++++++++++++++@1@2@3@4@5@6@7@8@9@_@:@0@a@b@c@d++++++++++++++++++++++++++++",
"++++++++++++++++++++++++++++@e@f@g@4@5@6@7@h@i@j@k@l@m@n@o@p++++++++++++++++++++++++++++",
"++++++++++++++++++++++++++@q@r@s@t@u@5@v@w@x@y@z@A@B@C@D@E@F++++++++++++++++++++++++++++",
"++++++++++++++++++++++++++@G@H@I@J@K@L@M@N@x@O@P@Q@R@S@T@U@V@W++++++++++++++++++++++++++",
"++++++++++++++++++++++++@X@Y@Z#+#@###$#%#&#*#=#-#;#>#,#'#)#!#~#{++++++++++++++++++++++++",
"++++++++++++++++++++++#]#^@I#/#(#(#_#$#:#<#[#}#|#1#2#3#4#5#6#7#8#9++++++++++++++++++++++",
"++++++++++++++++++++++#0#a#b#c#d#_#e#$#f#<#g#h#i#j#k#l#m#n#o#p#q#r++++++++++++++++++++++",
"++++++++++++++++++++++#s#+#t#u#d#v#w#x#y#z#A#B#C#D#k#E#F#G#H#I#J#K++++++++++++++++++++++",
"++++++++++++++++++++++#L#M#/#N#e#O#P#Q#R#S#T#U#V#W#X#Y#Z$+$@$#$$$%++++++++++++++++++++++",
"++++++++++++++++++++$&$*$=#/#d##$-$;$>$,$'$)$!$~${$]$^$/$($_$:$<$[++++++++++++++++++++++",
"++++++++++++++++++++$}$|$1#b$2#w$3$4$5$6$7$8$9$0$a$b$c$d$e$f$g$h$i$j++++++++++++++++++++",
"++++++++++++++++++++$k$l$m$m#d$n$o$p$q$r$s$t$u$v$w$x$y$z$A$B$C$D$E$j++++++++++++++++++++",
"++++++++++++++++++++$F$G$H$I$J$K$L$M$N$O$P$Q$R$S$T$U$V$W$X$Y$Z%+%@$j++++++++++++++++++++",
"++++++++++++++++++++$k%#%$%%%&%*%=%-%;%>%,%'#C%)%!%~%{%]%^%/%(%_%:$j++++++++++++++++++++",
"++++++++++++++++++++%<%[%}%|%1%2%3%4%5%6%7%8%9%0%a%b%c%d%e%f%g%h%i++++++++++++++++++++++",
"++++++++++++++++++++++%j%k%l%m%n%o%p%q%r%s%t%)%u%v%w%x%y%z%A%B%C%D++++++++++++++++++++++",
"++++++++++++++++++++++%E%F%G%H%I%J%K%L%M%N%O%P%Q%R%S%T%U%V%W%X%Y%Z++++++++++++++++++++++",
"++++++++++++++++++++++&+&@&#&$&%&&&*&=&-&;&>&,&'&)&!&~&{&]&^&/&(&_++++++++++++++++++++++",
"++++++++++++++++++++++&:&<&[&}&|&1&2&3&4&5&6&7&8&9&0&a&b&c&d&e&f&g++++++++++++++++++++++",
"++++++++++++++++++++++&h&i&j&k&l&m&n&o&p&q&q&r&s&t&u&v&w&x&y&z&A&h++++++++++++++++++++++",
"++++++++++++++++++++++++&B&C&D&E&F&G&H&I&J&K&L&M&N&O&P&Q&R&S&T&U++++++++++++++++++++++++",
"++++++++++++++++++++++++++&V&W&X&Y&Z*+*@*#*$*%*%*&***=*-*;*>*,++++++++++++++++++++++++++",
"++++++++++++++++++++++++++*'*)*!*~*{*]*^*/*(*_*_*:*<*[*}*|*1++++++++++++++++++++++++++++",
"++++++++++++++++++++++++++++++*2*3*4*5*6*7*8*9*0*a*b*c*d*e*f++++++++++++++++++++++++++++",
"++++++++++++++++++++++++++++++++++*g*h*i*j*k*l*m*n*o*p*q++++++++++++++++++++++++++++++++",
"++++++++++++++++++++++++++++++++++++++++++++++++++++++++++++++++++++++++++++++++++++++++"};
