/* XPM */
static char * ball_red_xpm[] = {
"42 42 863 2",
";y c #C6C5C4",
";x c #BEBDBD",
";w c #AFAFAD",
";v c #ACAAA6",
";u c #9A9998",
";t c #969695",
";s c #969595",
";r c #989797",
";q c #9E9D9C",
";p c #ACACAC",
";o c #C8C8C8",
";n c #C9C9C9",
";m c #BFBFBE",
";l c #AFAEAE",
";k c #A2A2A1",
";j c #939292",
";i c #8B8884",
";h c #878078",
";g c #7E7466",
";f c #74695C",
";e c #6E655A",
";d c #6C635A",
";c c #716B61",
";b c #7B7874",
";a c #8A8986",
";0 c #989796",
";9 c #A4A4A4",
";8 c #B6B6B6",
";7 c #C2C2C2",
";6 c #C9C9C8",
";5 c #B8B8B8",
";4 c #A7A7A7",
";3 c #959595",
";2 c #88837D",
";1 c #88745F",
";| c #866646",
";} c #815933",
";[ c #7A5028",
";< c #72471D",
";: c #633E19",
";_ c #563515",
";( c #4C2E14",
";/ c #422C16",
";^ c #433422",
";] c #514638",
";{ c #635E58",
";~ c #7F7E7D",
";! c #9A9A99",
";) c #BABAB9",
";' c #A6A6A5",
";, c #91908C",
";> c #8F7C67",
";; c #966C46",
";- c #9A612B",
";= c #9B5B26",
";* c #8E5123",
";& c #7F4B20",
";% c #75451E",
";$ c #693E1A",
";# c #593415",
";@ c #4B2F13",
";+ c #462C11",
"-Z c #3F2610",
"-Y c #3D2A18",
"-X c #493C30",
"-W c #68645C",
"-V c #929291",
"-U c #B0B0B0",
"-T c #C2C1C1",
"-S c #CDCDCD",
"-R c #C1C0C0",
"-Q c #ABABAB",
"-P c #948E87",
"-O c #9C7B56",
"-N c #AD7036",
"-M c #A8612C",
"-L c #9D5B26",
"-K c #945324",
"-J c #8C5123",
"-I c #804C21",
"-H c #6A421D",
"-G c #5B391A",
"-F c #583819",
"-E c #553518",
"-D c #4F3117",
"-C c #4E3117",
"-B c #472C13",
"-A c #4E3822",
"-z c #665B4B",
"-y c #908E8C",
"-x c #B6B6B5",
"-w c #CFCFCF",
"-v c #CACACA",
"-u c #B7B7B6",
"-t c #9B958E",
"-s c #A87F53",
"-r c #BA7433",
"-q c #B0672D",
"-p c #A35B2A",
"-o c #A05A28",
"-n c #975725",
"-m c #8E5527",
"-l c #814F24",
"-k c #744721",
"-j c #6C4822",
"-i c #5F411C",
"-h c #634320",
"-g c #62431F",
"-f c #5E3F1E",
"-e c #58371C",
"-d c #59391C",
"-c c #59391B",
"-b c #57371C",
"-a c #5C4021",
"-0 c #715F4A",
"-9 c #9C9994",
"-8 c #BFBEBE",
"-7 c #D0D0D0",
"-6 c #C6C6C6",
"-5 c #ADA8A1",
"-4 c #AC8458",
"-3 c #C37735",
"-2 c #B9672E",
"-1 c #A75D2B",
"-| c #A45C2B",
"-} c #A25D2B",
"-[ c #98612C",
"-< c #8C5F2C",
"-: c #7F5125",
"-_ c #754922",
"-( c #6C4923",
"-/ c #68431E",
"-^ c #694520",
"-] c #6A4721",
"-{ c #68431F",
"-~ c #5E3B1D",
"-! c #623C1F",
"-) c #68421E",
"-' c #653E20",
"-, c #674721",
"-> c #75522B",
"-; c #806E57",
"-- c #AFAEAB",
"-= c #CCCCCC",
"-* c #C5C1BC",
"-& c #B8936B",
"-% c #C67733",
"-$ c #BB672F",
"-# c #B6622D",
"-@ c #AC6530",
"-+ c #A96932",
"=Z c #9F5D2B",
"=Y c #925F2B",
"=X c #88592B",
"=W c #7F5024",
"=V c #764A22",
"=U c #744922",
"=T c #754C21",
"=S c #754B1F",
"=R c #6C4220",
"=Q c #683F20",
"=P c #724821",
"=O c #724720",
"=N c #764C24",
"=M c #7D582C",
"=L c #87612C",
"=K c #9A886E",
"=J c #ABA8A2",
"=I c #C0AC98",
"=H c #C47C41",
"=G c #C47036",
"=F c #BE7237",
"=E c #B76B32",
"=D c #AD7A3F",
"=C c #A66932",
"=B c #97612E",
"=A c #8F5728",
"=z c #855225",
"=y c #805223",
"=x c #7C4C23",
"=w c #7D4D23",
"=v c #7D4F23",
"=u c #7E5323",
"=t c #7D5023",
"=s c #774A21",
"=r c #734720",
"=q c #7C4D23",
"=p c #7F5424",
"=o c #815125",
"=n c #895B2A",
"=m c #91612F",
"=l c #9A723B",
"=k c #B7A996",
"=j c #BFB9B3",
"=i c #BCAD9F",
"=h c #BC8458",
"=g c #C77237",
"=f c #C17941",
"=e c #BD8346",
"=d c #B37E3F",
"=c c #AA783E",
"=b c #9E632E",
"=a c #925C29",
"=0 c #834C21",
"=9 c #815523",
"=8 c #7F5123",
"=7 c #845625",
"=6 c #835323",
"=5 c #845425",
"=4 c #835626",
"=3 c #805524",
"=2 c #7F5124",
"=1 c #855427",
"=| c #885E29",
"=} c #8E5828",
"=[ c #925C28",
"=< c #9B602D",
"=: c #A67036",
"=_ c #A98859",
"=( c #B9AEA0",
"=/ c #BE9C85",
"=^ c #C77036",
"=] c #C2753B",
"={ c #BF8747",
"=~ c #B98043",
"=! c #AB793D",
"=) c #A46C36",
"=' c #965D2B",
"=, c #8E5726",
"=> c #8A5123",
"=; c #875924",
"=- c #855E25",
"== c #875B28",
"=* c #8A5625",
"=& c #8E5928",
"=% c #8A5A28",
"=$ c #855A28",
"=# c #865A29",
"=@ c #8E5628",
"=+ c #90662A",
"*Z c #98602E",
"*Y c #9D642D",
"*X c #A3622D",
"*W c #AC6A33",
"*V c #B07D3B",
"*U c #C0A88A",
"*T c #C07949",
"*S c #C16E36",
"*R c #C08242",
"*Q c #AE6E32",
"*P c #A56D32",
"*O c #9A612D",
"*N c #905727",
"*M c #8D5624",
"*L c #8D5324",
"*K c #8C5A26",
"*J c #886126",
"*I c #866326",
"*H c #8B6629",
"*G c #8E6328",
"*F c #925D27",
"*E c #93612A",
"*D c #8E6329",
"*C c #8C6229",
"*B c #935E29",
"*A c #956B2E",
"*z c #A26831",
"*y c #A76B32",
"*x c #AB6A31",
"*w c #B56D35",
"*v c #BB783C",
"*u c #BF9455",
"*t c #CFCDC6",
"*s c #CEAE98",
"*r c #C16C35",
"*q c #C0793D",
"*p c #BA7D3E",
"*o c #B16B32",
"*n c #A7612C",
"*m c #9E5F2B",
"*l c #8F5526",
"*k c #8C5324",
"*j c #8F6027",
"*i c #8C6428",
"*h c #8B6829",
"*g c #8F6829",
"*f c #926829",
"*e c #9A662A",
"*d c #9A602A",
"*c c #9A652B",
"*b c #95692A",
"*a c #93672A",
"*0 c #96662A",
"*9 c #9C6E30",
"*8 c #AB7133",
"*7 c #B27536",
"*6 c #B47739",
"*5 c #BB7339",
"*4 c #C57739",
"*3 c #C88D3F",
"*2 c #CABCA3",
"*1 c #C5895D",
"*| c #C1783C",
"*} c #BA793B",
"*[ c #B47136",
"*< c #A55F2A",
"*: c #985B26",
"*_ c #8F5525",
"*( c #8A4F22",
"*/ c #905626",
"*^ c #956029",
"*] c #93652A",
"*{ c #93692A",
"*~ c #9D6A2C",
"*! c #A3692F",
"*) c #9F6A2D",
"*' c #9B6C2D",
"*, c #9B6D2F",
"*> c #A07033",
"*; c #A37A35",
"*- c #B37A3A",
"*= c #B87D3B",
"** c #B9843F",
"*& c #C37B3B",
"*% c #CE7A39",
"*$ c #CD8D3C",
"*# c #CDAA6F",
"*@ c #C8B6AA",
"*+ c #C27343",
"&Z c #BE8543",
"&Y c #B16C32",
"&X c #A66A2F",
"&W c #9B5B27",
"&V c #8F5224",
"&U c #895022",
"&T c #894E22",
"&S c #8F5325",
"&R c #935A28",
"&Q c #95672A",
"&P c #916829",
"&O c #916929",
"&N c #906B29",
"&M c #8F6B27",
"&L c #906B27",
"&K c #9E6A2C",
"&J c #A46A2F",
"&I c #A06B2E",
"&H c #9E702F",
"&G c #A37536",
"&F c #AB7C40",
"&E c #B38544",
"&D c #C18B48",
"&C c #C28B47",
"&B c #C18B46",
"&A c #CD8644",
"&z c #D37E3D",
"&y c #D99442",
"&x c #DB9F51",
"&w c #D1C6B2",
"&v c #BE907C",
"&u c #BF7F4C",
"&t c #B47B3D",
"&s c #A4652F",
"&r c #985828",
"&q c #8C5224",
"&p c #8A5524",
"&o c #855824",
"&n c #875022",
"&m c #8B4F22",
"&l c #935928",
"&k c #95642A",
"&j c #93682A",
"&i c #936B29",
"&h c #8F6B29",
"&g c #916C2A",
"&f c #9E6B2C",
"&e c #A76B2F",
"&d c #A86F33",
"&c c #A57336",
"&b c #AA7C3F",
"&a c #B48748",
"&0 c #BD9052",
"&9 c #C89A5A",
"&8 c #CB9B55",
"&7 c #CA9A4E",
"&6 c #D28C48",
"&5 c #D88545",
"&4 c #DD9844",
"&3 c #E5A953",
"&2 c #C8B08F",
"&1 c #BB8C65",
"&| c #B78447",
"&} c #A66D31",
"&[ c #935B28",
"&< c #895524",
"&: c #895224",
"&_ c #865324",
"&( c #845624",
"&/ c #8B5124",
"&^ c #915626",
"&] c #946228",
"&{ c #926B29",
"&~ c #906A2A",
"&! c #9F6E31",
"&) c #A96F36",
"&' c #A9753A",
"&, c #AD7F44",
"&> c #B68A53",
"&; c #C29965",
"&- c #CCA16E",
"&= c #D2A86F",
"&* c #D5A96B",
"&& c #D4A362",
"&% c #DD9653",
"&$ c #E2904E",
"&# c #E7A249",
"&@ c #ECB054",
"&+ c #D2A975",
"%Z c #B78B57",
"%Y c #AA7F42",
"%X c #97672C",
"%W c #865524",
"%V c #855425",
"%U c #855424",
"%T c #845724",
"%S c #8B5829",
"%R c #905625",
"%Q c #946027",
"%P c #936729",
"%O c #906A28",
"%N c #8D6B29",
"%M c #8E6B27",
"%L c #8F672B",
"%K c #9E6E31",
"%J c #A67338",
"%I c #AA7C40",
"%H c #B38751",
"%G c #C19865",
"%F c #CFA878",
"%E c #DFBE97",
"%D c #E1C094",
"%C c #DDB789",
"%B c #D7AC76",
"%A c #DE9D5B",
"%z c #E69C56",
"%y c #EBA94D",
"%x c #EEB154",
"%w c #E5B576",
"%v c #AB7B43",
"%u c #9A6E36",
"%t c #875E28",
"%s c #7B5220",
"%r c #7C5221",
"%q c #825323",
"%p c #845824",
"%o c #845924",
"%n c #845A26",
"%m c #875E27",
"%l c #8F5E27",
"%k c #976329",
"%j c #966A29",
"%i c #8F6828",
"%h c #8D6729",
"%g c #8D6A28",
"%f c #946B2E",
"%e c #9E7332",
"%d c #A47937",
"%c c #AB8043",
"%b c #B68A56",
"%a c #C49D6F",
"%0 c #D9B488",
"%9 c #E8D0AD",
"%8 c #E7CEAB",
"%7 c #E5CAA4",
"%6 c #E1BC8B",
"%5 c #E3A867",
"%4 c #EBAA56",
"%3 c #EDB355",
"%2 c #F1B759",
"%1 c #F1B66C",
"%| c #9E6734",
"%} c #8A5D28",
"%[ c #795220",
"%< c #6F491C",
"%: c #755020",
"%_ c #7A5322",
"%( c #7F5823",
"%/ c #855F25",
"%^ c #845F26",
"%] c #886127",
"%{ c #926729",
"%~ c #946C29",
"%! c #8E6729",
"%) c #8E662A",
"%' c #8F6B2A",
"%, c #966D30",
"%> c #9E7432",
"%; c #A27836",
"%- c #AA7D40",
"%= c #B2854E",
"%* c #BF9560",
"%& c #CBA579",
"%% c #DBB68D",
"%$ c #E1C39D",
"%# c #E6CCA7",
"%@ c #E4BE8A",
"%+ c #E5B26D",
"$Z c #EBB35B",
"$Y c #F0B95A",
"$X c #F9B666",
"$W c #8F683E",
"$V c #7B4B21",
"$U c #6C451B",
"$T c #614119",
"$S c #6A4D1E",
"$R c #735120",
"$Q c #7B5221",
"$P c #825D25",
"$O c #846026",
"$N c #7D5C24",
"$M c #8B6728",
"$L c #906D29",
"$K c #8F6C29",
"$J c #946D29",
"$I c #97732E",
"$H c #A07933",
"$G c #9F7733",
"$F c #A67C39",
"$E c #AA7C3E",
"$D c #B68949",
"$C c #C09558",
"$B c #C99E69",
"$A c #D7AC7A",
"$z c #D9B285",
"$y c #E0B57D",
"$x c #E5B36E",
"$w c #EEB85E",
"$v c #F8BE5C",
"$u c #F9BF60",
"$t c #F2BD7A",
"$s c #8A784A",
"$r c #6B451F",
"$q c #5A3515",
"$p c #5C3D18",
"$o c #62461B",
"$n c #6E4E1D",
"$m c #745320",
"$l c #735522",
"$k c #825F25",
"$j c #856226",
"$i c #8B6828",
"$h c #93702C",
"$g c #997831",
"$f c #A07D35",
"$e c #A37E36",
"$d c #A27E37",
"$c c #A37D36",
"$b c #A47E37",
"$a c #A78138",
"$0 c #AB853D",
"$9 c #B5883E",
"$8 c #B88C42",
"$7 c #BC9249",
"$6 c #C79A57",
"$5 c #D1A45F",
"$4 c #D8AA5C",
"$3 c #DEAE59",
"$2 c #E9B45A",
"$1 c #F8BD5D",
"$| c #FBB163",
"$} c #EABF87",
"$[ c #9B8F7C",
"$< c #634523",
"$: c #4F3014",
"$_ c #543515",
"$( c #62451B",
"$/ c #6C4F1E",
"$^ c #725522",
"$] c #7D5D24",
"${ c #896628",
"$~ c #93712C",
"$! c #9A7932",
"$) c #A08039",
"$' c #A4853E",
"$, c #AA8C45",
"$> c #AE9049",
"$; c #AD914E",
"$- c #AF914B",
"$= c #AF924C",
"$* c #B1924B",
"$& c #B19149",
"$% c #B49148",
"$$ c #B39046",
"$# c #B78F45",
"$@ c #BA8F45",
"$+ c #BE9449",
"#Z c #C89C4B",
"#Y c #D1A751",
"#X c #DEAE58",
"#W c #F0B95B",
"#V c #F9B562",
"#U c #F9B065",
"#T c #DABD9D",
"#S c #BFBDB9",
"#R c #6B5334",
"#Q c #442A12",
"#P c #503115",
"#O c #63431A",
"#N c #735221",
"#M c #7F5E25",
"#L c #8E6D2B",
"#K c #9A7630",
"#J c #A2813A",
"#I c #AB8A43",
"#H c #AF9049",
"#G c #B2944E",
"#F c #B59A56",
"#E c #B99E5A",
"#D c #B59B5A",
"#C c #B49C5A",
"#B c #B7A15F",
"#A c #B9A361",
"#z c #BAA15E",
"#y c #BCA05C",
"#x c #B99A55",
"#w c #B79750",
"#v c #BC954C",
"#u c #C0964B",
"#t c #C89C4C",
"#s c #D1A74E",
"#r c #F4BC5B",
"#q c #FBB05C",
"#p c #F6B671",
"#o c #D4CDC1",
"#n c #D1D1D1",
"#m c #928774",
"#l c #3C250E",
"#k c #4A3013",
"#j c #65461B",
"#i c #7C5924",
"#h c #936D2D",
"#g c #A27C38",
"#f c #AE853C",
"#e c #B48F47",
"#d c #BB954F",
"#c c #C29D55",
"#b c #C69F59",
"#a c #C39D5A",
"#0 c #A88748",
"#9 c #79683D",
"#8 c #706031",
"#7 c #7A6C39",
"#6 c #917E45",
"#5 c #AB9355",
"#4 c #B8A262",
"#3 c #BAA362",
"#2 c #BCA15D",
"#1 c #BF9E55",
"#| c #C49E52",
"#} c #C9A04E",
"#[ c #D1A74D",
"#< c #E4B155",
"#: c #F3B45A",
"#_ c #F9B25F",
"#( c #E3C6A0",
"#/ c #605445",
"#^ c #452D11",
"#] c #68481E",
"#{ c #88612A",
"#~ c #A17537",
"#! c #B28641",
"#) c #BA8F46",
"#' c #C69752",
"#, c #CFA45F",
"#> c #DCAC68",
"#; c #DFA55E",
"#- c #C3924B",
"#= c #886B3D",
"#* c #544933",
"#& c #3E2D11",
"#% c #473919",
"#$ c #4A3F1A",
"## c #6B5F2F",
"#@ c #96874B",
"#+ c #B3A060",
"@Z c #C0A968",
"@Y c #C3A760",
"@X c #C7A85C",
"@W c #CDA857",
"@V c #D7AB54",
"@U c #E5B258",
"@T c #F6B45F",
"@S c #EDBE81",
"@R c #D4CDC2",
"@Q c #B0AEAA",
"@P c #564A33",
"@O c #5F431B",
"@N c #8B6030",
"@M c #A8763C",
"@L c #BB8743",
"@K c #C7914E",
"@J c #D49E5A",
"@I c #E4B26D",
"@H c #EBB978",
"@G c #DBA764",
"@F c #AD8346",
"@E c #8F724F",
"@D c #655332",
"@C c #493714",
"@B c #5C451E",
"@A c #50391A",
"@z c #584B23",
"@y c #7D703C",
"@x c #A9975A",
"@w c #C1AA68",
"@v c #C8AC66",
"@u c #C9A95F",
"@t c #D0A75A",
"@s c #DBAD58",
"@r c #EAB55A",
"@q c #EFBC75",
"@p c #DACCBA",
"@o c #C8C8C7",
"@n c #A8A69F",
"@m c #645436",
"@l c #7E5927",
"@k c #A77438",
"@j c #BA8248",
"@i c #CB9151",
"@h c #D79F5B",
"@g c #E5B36D",
"@f c #E0B170",
"@e c #C29A55",
"@d c #A18044",
"@c c #997845",
"@b c #68552D",
"@a c #4E3C16",
"@0 c #765428",
"@9 c #6A4A22",
"@8 c #715A27",
"@7 c #82703C",
"@6 c #AC985B",
"@5 c #C1AB69",
"@4 c #CBB26C",
"@3 c #D2AF60",
"@2 c #D8AC58",
"@1 c #E4B159",
"@| c #EBBB72",
"@} c #DCCBB5",
"@[ c #D5D0CC",
"@< c #B4B1AD",
"@: c #7C6C50",
"@_ c #8D6B33",
"@( c #A57C3D",
"@/ c #B58D45",
"@^ c #BA934F",
"@] c #B99952",
"@{ c #BD9D55",
"@~ c #B49149",
"@! c #A77F3E",
"@) c #A37A3C",
"@' c #6B5325",
"@, c #513F18",
"@> c #886533",
"@; c #85622D",
"@- c #8E7033",
"@= c #A18A4C",
"@* c #BDA765",
"@& c #C9B06C",
"@% c #D6B161",
"@$ c #E1AD60",
"@# c #E1B17A",
"@@ c #D7C8B8",
"@+ c #D4D2D1",
"+Z c #ADABA4",
"+Y c #968C7C",
"+X c #887851",
"+W c #8F7740",
"+V c #977840",
"+U c #A48542",
"+T c #AF904B",
"+S c #B89750",
"+R c #B7954C",
"+Q c #B7944A",
"+P c #6E5728",
"+O c #635426",
"+N c #A48643",
"+M c #A88B4F",
"+L c #B69B58",
"+K c #C1A965",
"+J c #CAB16B",
"+I c #CCB36C",
"+H c #D3B36B",
"+G c #DDB777",
"+F c #DCC099",
"+E c #D3C8B6",
"+D c #B4AEA4",
"+C c #8F8261",
"+B c #A1906A",
"+A c #A9905B",
"+z c #B39556",
"+y c #BA9D56",
"+x c #BE9F57",
"+w c #C6A85E",
"+v c #69542C",
"+u c #836C3D",
"+t c #C7AD67",
"+s c #C7AD68",
"+r c #C9B06B",
"+q c #CCB26F",
"+p c #D1B677",
"+o c #D2BB85",
"+n c #D3BA84",
"+m c #D3CBBC",
"+l c #D4D2D0",
"+k c #C0BFBD",
"+j c #ACA08B",
"+i c #B9A983",
"+h c #C1B592",
"+g c #C4B288",
"+f c #C8B387",
"+e c #59482D",
"+d c #978359",
"+c c #D1BC8C",
"+b c #CDBB90",
"+a c #CDBF9B",
"+0 c #D0BD8F",
"+9 c #D3BE94",
"+8 c #D3CBBD",
"+7 c #D2D2D2",
"+6 c #D0CFCC",
"+5 c #CFC9C3",
"+4 c #4F4A33",
"+3 c #9B958C",
"+2 c #D3C9B5",
"+1 c #D1CABC",
"+| c #D1CFCB",
"+} c #D3D2D1",
"+[ c #BBB9B4",
"+< c #ADABA6",
"+: c #858279",
"+_ c #3F371B",
"+( c #C6C6C5",
"+/ c #C6C6C4",
"+^ c #5C5A43",
"+] c #594F39",
"+{ c #CECECE",
"+~ c #8A8679",
"+! c #433D22",
"+) c #7F7462",
"+' c #C1C0BE",
"+, c #696457",
"+> c #372D10",
"+; c #9D9A92",
"+- c #BAB8B4",
"+= c #747064",
"+* c #655D46",
"+& c #B1AEA8",
"+% c #C8C7C6",
"+$ c #958F88",
"+# c #8E8A7C",
"+@ c #969385",
"++ c None",
"++++++++++++++++++++++++++++++++++++++++++++++++++++++++++++++++++++++++++++++++++++",
"++++++++++++++++++++++++++++++++++++++++++++++++++++++++++++++++++++++++++++++++++++",
"+++++++++++++++++++++++++++++++++++++++++++@+#+$+%++++++++++++++++++++++++++++++++++",
"+++++++++++++++++++++++++++++++++++++++++++&+*+=+-++++++++++++++++++++++++++++++++++",
"+++++++++++++++++++++++++++++++++++++++++++;+>+,+'++++++++++++++++++++++++++++++++++",
"+++++++++++++++++++++++++++++++++++++++++++)+!+~+{++++++++++++++++++++++++++++++++++",
"+++++++++++++++++++++++++++++++++++++++++++]+^+/++++++++++++++++++++++++++++++++++++",
"+++++++++++++++++++++++++++++++++++++++++(+_+:++++++++++++++++++++++++++++++++++++++",
"+++++++++++++++++++++++++++++++++++++++++<+!+[++++++++++++++++++++++++++++++++++++++",
"+++++++++++++++++++++++++++++++++}+|+1+2+3+4+5+1+6+7++++++++++++++++++++++++++++++++",
"+++++++++++++++++++++++++++++8+9+0+a+b+c+d+e+f+g+h+i+j+k++++++++++++++++++++++++++++",
"+++++++++++++++++++++++l+m+n+o+p+q+r+s+t+u+v+w+x+y+z+A+B+C+D+7++++++++++++++++++++++",
"+++++++++++++++++++++E+F+G+H+I+J+K+L+M+N+O+P+Q+R+S+T+U+V+W+X+Y+Z++++++++++++++++++++",
"++++++++++++++++@+@@@#@$@%+I@&@*@=@-@;@>@,@'@)@!@~@{@]@^@/@(@_@:@<@+++++++++++++++++",
"++++++++++++++@[@}@|@1@2@3@4@5@6@7@8@9@0@a@b@c@d@e@f@g@h@i@j@k@l@m@n@o++++++++++++++",
"++++++++++++++@p@q@r@s@t@u@v@w@x@y@z@A@B@C@D@E@F@G@H@I@J@K@L@M@N@O@P@Q++++++++++++++",
"++++++++++++@R@S@T@U@V@W@X@Y@Z#+#@###$#%#&#*#=#-#;#>#,#'#)#!#~#{#]#^#/+Z++++++++++++",
"++++++++++++#(#_#:#<#[#}#|#1#2#3#4#5#6#7#8#9#0#a#b#c#d#e#f#g#h#i#j#k#l#m#n++++++++++",
"++++++++++#o#p#q#r#<#s#t#u#v#w#x#y#z#A#B#C#D#E#F#G#H#I#J#K#L#M#N#O#P#Q#R#S++++++++++",
"++++++++++#T#U#V#W#X#Y#Z$+$@$#$$$%$&$*$=$-$;$>$,$'$)$!$~${$]$^$/$($_$:$<$[++++++++++",
"++++++++++$}$|$1$2$3$4$5$6$7$8$9$0$a$a$b$c$d$e$f$g$h$i$j$k$l$m$n$o$p$q$r$s++++++++++",
"++++++++++$t$u$v$w$x$y$z$A$B$C$D$E$F$G$H$I$J$h$K$L$M#M$N$O$P$Q$R$S$T$U$V$W++++++++++",
"++++++++++$X$1$Y$Z%+%@%#%$%%%&%*%=%-%;%>%,%'%)%!%~%{%]$O%^%/%(%_%:%<%[%}%|++++++++++",
"++++++++++%1%2%3%4%5%6%7%8%9%0%a%b%c%d%e%f%g%h%i%j%k%l%m%n%o%p%q%r%s%t%u%v++++++++++",
"++++++++++%w%x%y%z%A%B%C%D%E%F%G%H%I%J%K%L%M%N%O%P%Q%R%S%o%T%U%V%q%W%X%Y%Z++++++++++",
"++++++++++&+&@&#&$&%&&&*&=&-&;&>&,&'&)&!&~$K$K&{%{&]&^&/&(%T&_&:&<&[&}&|&1++++++++++",
"++++++++++&2&3&4&5&6&7&8&9&0&a&b&c&d&e&f&g$K&h&i&j&k&l&m&n&o&p&q&r&s&t&u&v++++++++++",
"++++++++++&w&x&y&z&A&B&C&D&E&F&G&H&I&J&K&L&M&N&O&P&Q&R&S&T&U&V&W&X&Y&Z*+*@++++++++++",
"++++++++++#n*#*$*%*&***=*-*;*>*,*'*)*!*~*{%N&N&P*]*^*/&S*(*_*:*<*[*}*|*1@+++++++++++",
"++++++++++++*2*3*4*5*6*7*8*9*0*a*b*c*d*e*f*g*h*i*j%R*k&S*l*m*n*o*p*q*r*s++++++++++++",
"++++++++++++*t*u*v*w*x*y*z*A*B*C*D*E*B*F*G*H*I*J*K*L*M*N*O*P*Q*p*R*S*T#o++++++++++++",
"++++++++++++++*U*V*W*X*Y*Z=+=@=#=$=%=&=*===-=-=;=>&T=,='=)=!=~={=]=^=/++++++++++++++",
"++++++++++++++=(=_=:=<=[=}=|=1=2=3=4=5=6=7=8=9=6=0*(=a=b=c=d=e=f=g=h=i++++++++++++++",
"++++++++++++++=j=k=l=m=n=o=p=q=r=s=t=u=v=w=x=v=y=z=A=B=C=D=E=F=G=H=I=j++++++++++++++",
"+++++++++++++++%=J=K=L=M=N=O=P=Q=R=S=T=U=U=U=V=W=X=Y=Z-+-@-#-$-%-&-*#n++++++++++++++",
"+++++++++++++++{-=---;->-,-'-)-!-~-{-]-^-/-(-_-:-<-[-}-|-1-2-3-4-5-6-7++++++++++++++",
"+++++++++++++++7+{-8-9-0-a-b-c-d-e-f-g-h-i-j-k-l-m-n-o-p-q-r-s-t-u-v#n++++++++++++++",
"+++++++++++++++7-w-6-x-y-z-A-B-C-D-E-F-F-G-H-k-I-J-K-L-M-N-O-P-Q-R-w+7++++++++++++++",
"++++++++++++++++-7-S-T-U-V-W-X-Y-Z;+;@$:;#;$;%;&;*;=;-;;;>;,;';)-v#n+7++++++++++++++",
"+++++++++++++++++7#n-S-T-U;!;~;{;];^;/;(;_;:;<;[;};|;1;2;3;4;5;6-w+7++++++++++++++++",
"+++++++++++++++++++7#n-S;7;8;9;0;a;b;c;d;d;e;f;g;h;i;j;k;l;m;n-7+7++++++++++++++++++",
"+++++++++++++++++++++7#n-S;o-8;8;p;k;q;r;s;s;t;u;k;v;w;x;y-S-7+7++++++++++++++++++++"};
