/* XPM */
static char * ball_red_xpm[] = {
"44 44 916 2",
">} c #7B7364",
">[ c #7A6A55",
">< c #755D41",
">: c #6F5D46",
">_ c #614C33",
">( c #5B4732",
">/ c #584430",
">^ c #524435",
">] c #575149",
">{ c #818688",
">~ c #817B74",
">! c #856E55",
">) c #846341",
">' c #7E5934",
">, c #774F28",
">> c #6E461E",
">; c #603D19",
">- c #543516",
">= c #4C2E15",
">* c #402B16",
">& c #3F3321",
">% c #483D2C",
">$ c #4B433B",
"># c #5B5856",
">@ c #85827A",
">+ c #85817A",
";Z c #897662",
";Y c #90663E",
";X c #9A5F27",
";W c #9A5721",
";V c #8C4D1E",
";U c #7D471C",
";T c #734218",
";S c #673A14",
";R c #573010",
";Q c #4B2A0E",
";P c #45280C",
";O c #40260A",
";N c #392109",
";M c #352110",
";L c #403327",
";K c #514B42",
";J c #8B8172",
";I c #8C7D69",
";H c #98744B",
";G c #AB682E",
";F c #A96025",
";E c #9D5821",
";D c #935121",
";C c #8A4E21",
";B c #7E491F",
";A c #72461F",
";z c #68401C",
";y c #5B3718",
";x c #553517",
";w c #563617",
";v c #543316",
";u c #4C2D14",
";t c #492B11",
";s c #41240A",
";r c #3E2810",
";q c #51402C",
";p c #665E52",
";o c #7B7974",
";n c #938068",
";m c #A87744",
";l c #BA6F2A",
";k c #B06228",
";j c #A25927",
";i c #9C5625",
";h c #945425",
";g c #8C5326",
";f c #7F4D23",
";e c #734721",
";d c #68451F",
";c c #5F401D",
";b c #5F401E",
";a c #61421F",
";0 c #5D3D1D",
";9 c #56361B",
";8 c #56361A",
";7 c #553518",
";6 c #523114",
";5 c #513314",
";4 c #5F4D36",
";3 c #716453",
";2 c #A2845E",
";1 c #AD7B46",
";| c #C5722B",
";} c #B66429",
";[ c #A45B2A",
";< c #A25A2A",
";: c #A05C29",
";_ c #975F2A",
";( c #8B5B2A",
";/ c #7E4E23",
";^ c #724721",
";] c #6A4822",
";{ c #65441E",
";~ c #66451F",
";! c #684721",
";) c #66431F",
";' c #5D3B1C",
";, c #5C391D",
";> c #633F1E",
";; c #613C1E",
";- c #5F3D1B",
";= c #66441C",
";* c #72593A",
";& c #807461",
";% c #B19775",
";$ c #B6834B",
";# c #C57029",
";@ c #BC632A",
";+ c #B05E2B",
"-Z c #A7612E",
"-Y c #A5602D",
"-X c #9E5E2A",
"-W c #92622E",
"-V c #875C2B",
"-U c #7C4E23",
"-T c #734821",
"-S c #6F4822",
"-R c #6F4620",
"-Q c #6F4621",
"-P c #714A21",
"-O c #71491E",
"-N c #683F1E",
"-M c #623B1F",
"-L c #6C4320",
"-K c #6E441F",
"-J c #6D4621",
"-I c #755026",
"-H c #795323",
"-G c #866C42",
"-F c #98825E",
"-E c #C08954",
"-D c #C77431",
"-C c #C2692D",
"-B c #B8662E",
"-A c #B26932",
"-z c #AC7239",
"-y c #A46732",
"-x c #975F2B",
"-w c #8E592A",
"-v c #845326",
"-u c #7D5022",
"-t c #794B22",
"-s c #784921",
"-r c #794A22",
"-q c #794C22",
"-p c #7B5021",
"-o c #744620",
"-n c #6D411F",
"-m c #744721",
"-l c #7A4D22",
"-k c #7A4C22",
"-j c #805528",
"-i c #885B28",
"-h c #90662F",
"-g c #9B7D50",
"-f c #BD8C62",
"-e c #C47F4A",
"-d c #C66B2F",
"-c c #C07840",
"-b c #BA7D3E",
"-a c #B17A3D",
"-0 c #A9753C",
"-9 c #9D652F",
"-8 c #925B29",
"-7 c #894E22",
"-6 c #804C21",
"-5 c #805223",
"-4 c #7D4D22",
"-3 c #815123",
"-2 c #815222",
"-1 c #805323",
"-| c #805325",
"-} c #7C5022",
"-[ c #7A4C21",
"-< c #7E4F24",
"-: c #845827",
"-_ c #865526",
"-( c #8A5625",
"-/ c #915B2B",
"-^ c #9A632A",
"-] c #A6804B",
"-{ c #AB9167",
"-~ c #C39979",
"-! c #C48557",
"-) c #C56A2E",
"-' c #C1773C",
"-, c #BF8C4E",
"-> c #B78546",
"-; c #AC7A3F",
"-- c #A36B35",
"-= c #965E2A",
"-* c #8D5324",
"-& c #864A1F",
"-% c #864D21",
"-$ c #825923",
"-# c #825824",
"-@ c #845826",
"-+ c #855324",
"=Z c #895526",
"=Y c #875827",
"=X c #825725",
"=W c #825627",
"=V c #875427",
"=U c #8B5D28",
"=T c #905F2A",
"=S c #945D29",
"=R c #9A5E2A",
"=Q c #A6622D",
"=P c #AA7232",
"=O c #AE8A53",
"=N c #C09070",
"=M c #C27343",
"=L c #C37033",
"=K c #C08745",
"=J c #BA8141",
"=I c #AE7438",
"=H c #A46F35",
"=G c #9A612E",
"=F c #8F5827",
"=E c #8B5223",
"=D c #8A4F22",
"=C c #8B5624",
"=B c #865E25",
"=A c #846225",
"=z c #876327",
"=y c #8A5E28",
"=x c #8E5826",
"=w c #925A28",
"=v c #8F5D2A",
"=u c #895E29",
"=t c #875D28",
"=s c #8D5A28",
"=r c #926229",
"=q c #98662E",
"=p c #A06630",
"=o c #A3662E",
"=n c #AA622D",
"=m c #B26D31",
"=l c #B9894E",
"=k c #BF9A64",
"=j c #CFB09C",
"=i c #C78D67",
"=h c #BF682E",
"=g c #BF8040",
"=f c #BB8140",
"=e c #B16A31",
"=d c #A6642B",
"=c c #9C632C",
"=b c #905728",
"=a c #8C5424",
"=0 c #8C5223",
"=9 c #8E5424",
"=8 c #8D5F26",
"=7 c #886427",
"=6 c #876527",
"=5 c #8D6729",
"=4 c #926728",
"=3 c #966127",
"=2 c #965D28",
"=1 c #96622A",
"=| c #93672A",
"=} c #8E6528",
"=[ c #906228",
"=< c #95672C",
"=: c #A06B30",
"=_ c #AA6D33",
"=( c #AC7134",
"=/ c #B36D34",
"=^ c #BC6F37",
"=] c #C17D37",
"={ c #C49B5D",
"=~ c #CBA186",
"=! c #C47E4F",
"=) c #BF7334",
"=' c #BC7F3F",
"=, c #B26D34",
"=> c #A65E29",
"=; c #9D5B28",
"=- c #925525",
"== c #8B5023",
"=* c #8D5224",
"=& c #8F5425",
"=% c #935A26",
"=$ c #906328",
"=# c #8D6728",
"=@ c #8D6929",
"=+ c #8E6928",
"*Z c #936929",
"*Y c #9B682A",
"*X c #9E632C",
"*W c #9D662B",
"*V c #986B2A",
"*U c #95692B",
"*T c #97682B",
"*S c #9A6E2F",
"*R c #A87233",
"*Q c #B47535",
"*P c #B57D3A",
"*O c #B97A3B",
"*N c #C37237",
"*M c #CB7B31",
"*L c #CA9A53",
"*K c #C79674",
"*J c #C07435",
"*I c #BB7A3A",
"*H c #B47537",
"*G c #A9652D",
"*F c #995724",
"*E c #8E5423",
"*D c #884E21",
"*C c #8B4E22",
"*B c #905325",
"*A c #935B27",
"*z c #956429",
"*y c #916929",
"*x c #916928",
"*w c #9D6A2B",
"*v c #A46A30",
"*u c #A0692D",
"*t c #9B6C2B",
"*s c #9C6F30",
"*r c #A17235",
"*q c #A67B39",
"*p c #B37F3C",
"*o c #BB7F3D",
"*n c #BA8640",
"*m c #BE8341",
"*l c #CD7A3B",
"*k c #D27F38",
"*j c #D1923B",
"*i c #D4A765",
"*h c #BF8E79",
"*g c #C38763",
"*f c #BF7A39",
"*e c #B47638",
"*d c #A8652E",
"*c c #9B5C28",
"*b c #8F5223",
"*a c #895223",
"*0 c #865021",
"*9 c #894D21",
"*8 c #8F5225",
"*7 c #945E29",
"*6 c #95672A",
"*5 c #926828",
"*4 c #916A28",
"*3 c #8F6B29",
"*2 c #8D6B28",
"*1 c #906B27",
"*| c #9C692A",
"*} c #A56A2E",
"*[ c #A46B2F",
"*< c #9E6D2E",
"*: c #A17435",
"*_ c #A97B3D",
"*( c #B28544",
"*/ c #BF8D4B",
"*^ c #C5904C",
"*] c #C29147",
"*{ c #C68D45",
"*~ c #D28041",
"*! c #D5843E",
"*) c #DD953B",
"*' c #DBA75E",
"*, c #BD8A6F",
"*> c #BE865C",
"*; c #B87C3C",
"*- c #A76B32",
"*= c #985928",
"** c #8D5123",
"*& c #895123",
"*% c #865624",
"*$ c #845623",
"*# c #864E21",
"*@ c #8C4F23",
"*+ c #935B28",
"&Z c #946529",
"&Y c #926829",
"&X c #936B29",
"&W c #906C29",
"&V c #8D6C29",
"&U c #916C2A",
"&T c #9D6B2C",
"&S c #A86B30",
"&R c #A96F34",
"&Q c #A57437",
"&P c #A97B3F",
"&O c #B3874B",
"&N c #BD9054",
"&M c #C6985A",
"&L c #CD9F5B",
"&K c #CC9F55",
"&J c #D0974E",
"&I c #D98747",
"&H c #DC8B44",
"&G c #E7A244",
"&F c #DDAB62",
"&E c #BC8D65",
"&D c #B98A53",
"&C c #AC7536",
"&B c #975E28",
"&A c #875423",
"&z c #865223",
"&y c #885225",
"&x c #845424",
"&w c #825823",
"&v c #855424",
"&u c #8C5025",
"&t c #936128",
"&s c #916729",
"&r c #916B28",
"&q c #8F6C29",
"&p c #8D6A27",
"&o c #8F6929",
"&n c #9D6D30",
"&m c #A86E36",
"&l c #A97339",
"&k c #AC7E43",
"&j c #B58951",
"&i c #C09763",
"&h c #CBA272",
"&g c #D3A974",
"&f c #D6AC72",
"&e c #D3A86B",
"&d c #D69E5B",
"&c c #E19050",
"&b c #E5954C",
"&a c #ECA948",
"&0 c #E5AF5E",
"&9 c #B78B55",
"&8 c #AF844A",
"&7 c #9B6E32",
"&6 c #895824",
"&5 c #7F5121",
"&4 c #825323",
"&3 c #865325",
"&2 c #845423",
"&1 c #825722",
"&| c #855926",
"&} c #8C5628",
"&[ c #925725",
"&< c #956028",
"&: c #936728",
"&_ c #8E6A27",
"&( c #8C6A28",
"&/ c #8F672A",
"&^ c #9B6D30",
"&] c #A47336",
"&{ c #A87B3F",
"&~ c #B28650",
"&! c #BF9564",
"&) c #CEA878",
"&' c #DFBF96",
"&, c #E5C9A3",
"&> c #E1C197",
"&; c #D9B587",
"&- c #D7A46A",
"&= c #E39955",
"&* c #E9A252",
"&& c #EDAD4B",
"&% c #EBB461",
"&$ c #E8B671",
"&# c #A9773F",
"&@ c #A07139",
"&+ c #8A622B",
"%Z c #7B5321",
"%Y c #78501F",
"%X c #7E5122",
"%W c #825523",
"%V c #835A24",
"%U c #835925",
"%T c #845C26",
"%S c #885F27",
"%R c #915F27",
"%Q c #986529",
"%P c #966B29",
"%O c #8E6727",
"%N c #8B6528",
"%M c #8C6929",
"%L c #936B2E",
"%K c #9C7231",
"%J c #A37935",
"%I c #A97E40",
"%H c #B38753",
"%G c #C1986A",
"%F c #D3AE83",
"%E c #E6CAA5",
"%D c #E9D3B3",
"%C c #E8D1B0",
"%B c #E4C9A3",
"%A c #E1B178",
"%z c #E6A65B",
"%y c #ECAE54",
"%x c #EFB655",
"%w c #F2B760",
"%v c #F3B666",
"%u c #9A6432",
"%t c #915F2C",
"%s c #7C5321",
"%r c #6E491C",
"%q c #6F4C1C",
"%p c #785221",
"%o c #7A5422",
"%n c #835B24",
"%m c #866026",
"%l c #835F26",
"%k c #886126",
"%j c #936828",
"%i c #926C28",
"%h c #8C6628",
"%g c #8C6529",
"%f c #8E6A29",
"%e c #956E2E",
"%d c #9C7331",
"%c c #A07733",
"%b c #AF8149",
"%a c #BA8F5A",
"%0 c #C7A070",
"%9 c #D4AF85",
"%8 c #DFBD96",
"%7 c #E5CBA9",
"%6 c #E6C9A0",
"%5 c #E5B77A",
"%4 c #E7B163",
"%3 c #EDB657",
"%2 c #F3BD5A",
"%1 c #F8BC61",
"%| c #F9B868",
"%} c #8C6436",
"%[ c #82562A",
"%< c #6E4218",
"%: c #623F18",
"%_ c #64471B",
"%( c #6E501F",
"%/ c #76511F",
"%^ c #7E5622",
"%] c #835F25",
"%{ c #815E24",
"%~ c #7B5A23",
"%! c #815F24",
"%) c #8C6927",
"%' c #906D29",
"%, c #906C2A",
"%> c #946E2B",
"%; c #946E29",
"%- c #98722D",
"%= c #9E7631",
"%* c #9F7632",
"%& c #A47A36",
"%% c #A87B3C",
"%$ c #B18444",
"%# c #BC9050",
"%@ c #C3985E",
"%+ c #D1A470",
"$Z c #D9B184",
"$Y c #DCB483",
"$X c #E2B372",
"$W c #E6B364",
"$V c #F1BA5A",
"$U c #FABF59",
"$T c #F7BE6A",
"$S c #F2BD7B",
"$R c #856F43",
"$Q c #77572F",
"$P c #5D3413",
"$O c #583715",
"$N c #5D4219",
"$M c #664A1B",
"$L c #72501E",
"$K c #735321",
"$J c #785822",
"$I c #825F25",
"$H c #846125",
"$G c #8A6727",
"$F c #92702B",
"$E c #987730",
"$D c #9F7C34",
"$C c #A17C35",
"$B c #A07B35",
"$A c #A07C34",
"$z c #A37D35",
"$y c #A57F35",
"$x c #A57F36",
"$w c #A98139",
"$v c #B0853C",
"$u c #B7893F",
"$t c #B98E45",
"$s c #C29651",
"$r c #CC9E5C",
"$q c #D3A65F",
"$p c #DBAD5D",
"$o c #E2B05A",
"$n c #F0B95B",
"$m c #FCB85B",
"$l c #F4B670",
"$k c #EBBC83",
"$j c #91846A",
"$i c #776143",
"$h c #4E2C0D",
"$g c #503013",
"$f c #5B3D18",
"$e c #674A1C",
"$d c #6D511F",
"$c c #745621",
"$b c #7F5E24",
"$a c #8B6828",
"$0 c #93712C",
"$9 c #9A7932",
"$8 c #9E7E37",
"$7 c #A3843C",
"$6 c #AA8C44",
"$5 c #AE8F49",
"$4 c #AF914C",
"$3 c #B0924B",
"$2 c #B1914A",
"$1 c #AF8F47",
"$| c #B28F46",
"$} c #B28E44",
"$[ c #B48D43",
"$< c #B78D42",
"$: c #BA8F45",
"$_ c #C49649",
"$( c #CCA14C",
"$/ c #D6AA53",
"$^ c #E5B358",
"$] c #F5B95D",
"${ c #FEB15B",
"$~ c #EDB57C",
"$! c #DEBC96",
"$) c #A19789",
"$' c #7D6B53",
"$, c #432609",
"$> c #462910",
"$; c #593916",
"$- c #6B4B1C",
"$= c #765622",
"$* c #826126",
"$& c #906E2A",
"$% c #9A7831",
"$$ c #A2823A",
"$# c #A98942",
"$@ c #AC8E47",
"$+ c #AF944E",
"#Z c #B49B57",
"#Y c #BBA25D",
"#X c #BDA25E",
"#W c #BDA45F",
"#V c #C0A964",
"#U c #BFA966",
"#T c #BCA360",
"#S c #BCA05C",
"#R c #B99B55",
"#Q c #B6954E",
"#P c #B8934A",
"#O c #BC9248",
"#N c #C29649",
"#M c #CAA04A",
"#L c #D7AB4F",
"#K c #ECB858",
"#J c #F9B95B",
"#I c #FDAE5B",
"#H c #EEB87F",
"#G c #DAC2A7",
"#F c #847661",
"#E c #4F3C24",
"#D c #391F06",
"#C c #583B17",
"#B c #6F4E1E",
"#A c #866027",
"#z c #98732F",
"#y c #A57F37",
"#x c #AE883E",
"#w c #B28F48",
"#v c #B9954E",
"#u c #BF9B53",
"#t c #C4A05B",
"#s c #C3A05D",
"#r c #AB8D4D",
"#q c #857240",
"#p c #7B6C3B",
"#o c #867841",
"#n c #9B894D",
"#m c #B39B5B",
"#l c #BEA766",
"#k c #BDA665",
"#j c #BAA05C",
"#i c #BC9D55",
"#h c #C09C51",
"#g c #C59C4D",
"#f c #CAA04B",
"#e c #D8AB4E",
"#d c #EDB558",
"#c c #F9B255",
"#b c #F2B774",
"#a c #E7C295",
"#0 c #5F5344",
"#9 c #3F2B13",
"#8 c #533611",
"#7 c #785624",
"#6 c #956B2E",
"#5 c #AA7F3B",
"#4 c #B68B43",
"#3 c #BD9248",
"#2 c #C49953",
"#1 c #CFA460",
"#| c #DBAB64",
"#} c #E1A65D",
"#[ c #C5924C",
"#< c #826638",
"#: c #483C27",
"#_ c #352912",
"#( c #3A3011",
"#/ c #493E18",
"#^ c #6F602F",
"#] c #998A4D",
"#{ c #B4A261",
"#~ c #BEA868",
"#! c #C1A763",
"#) c #C3A65C",
"#' c #C8A657",
"#, c #CFA651",
"#> c #DBAD53",
"#; c #EEB256",
"#- c #F7B463",
"#= c #E8C190",
"#* c #D7CCB9",
"#& c #685F52",
"#% c #5E5341",
"#$ c #49310E",
"## c #764F1F",
"#@ c #9F6F38",
"#+ c #B38040",
"@Z c #BF8D46",
"@Y c #C99550",
"@X c #D7A35E",
"@W c #E7B673",
"@V c #EFBA78",
"@U c #E1A65F",
"@T c #AE8243",
"@S c #806947",
"@R c #5A4C33",
"@Q c #453313",
"@P c #4D3715",
"@O c #412F13",
"@N c #463D1A",
"@M c #726935",
"@L c #A29255",
"@K c #BEA968",
"@J c #C6AC69",
"@I c #C7AA62",
"@H c #CAA75D",
"@G c #D3AA58",
"@F c #E2AF54",
"@E c #F1B659",
"@D c #EDBF82",
"@C c #E4C59F",
"@B c #7A7669",
"@A c #645A42",
"@z c #67481C",
"@y c #97662E",
"@x c #B67D3E",
"@w c #C68B4C",
"@v c #D29654",
"@u c #DFA861",
"@t c #EDBA76",
"@s c #E6B775",
"@r c #C39955",
"@q c #9E7B44",
"@p c #917248",
"@o c #66522D",
"@n c #503E17",
"@m c #694B22",
"@l c #64431E",
"@k c #604A1E",
"@j c #756633",
"@i c #9C8B52",
"@h c #BEA967",
"@g c #C8B06C",
"@f c #CCAE65",
"@e c #D0A858",
"@d c #DAAA52",
"@c c #E8B359",
"@b c #ECBD75",
"@a c #E8C491",
"@0 c #898476",
"@9 c #7B6F59",
"@8 c #7F5D29",
"@7 c #A1702F",
"@6 c #B78542",
"@5 c #C4944D",
"@4 c #C99E57",
"@3 c #CCA760",
"@2 c #C8A45C",
"@1 c #B18D46",
"@| c #A27C3D",
"@} c #99733B",
"@[ c #654F23",
"@< c #523F18",
"@: c #795629",
"@_ c #7C5726",
"@( c #7E5F26",
"@/ c #8E783E",
"@^ c #AE995C",
"@] c #C4AE6C",
"@{ c #C9B26D",
"@~ c #D0B262",
"@! c #DBAC54",
"@) c #E3AA5A",
"@' c #E4B678",
"@, c #E9BF7D",
"@> c #888476",
"@; c #8C8069",
"@- c #8A754E",
"@= c #90763C",
"@* c #9C7D3D",
"@& c #A1803D",
"@% c #A98B44",
"@$ c #B3944C",
"@# c #B5934B",
"@@ c #B48E45",
"@+ c #A8833F",
"+Z c #6A5425",
"+Y c #5A491D",
"+X c #8D6F35",
"+W c #9B793F",
"+V c #A38646",
"+U c #B49B59",
"+T c #C3AC67",
"+S c #CAB169",
"+R c #CDB267",
"+Q c #D7B265",
"+P c #DFB675",
"+O c #DDB98D",
"+N c #DCB996",
"+M c #A09B92",
"+L c #988F7E",
"+K c #8F8361",
"+J c #8B784C",
"+I c #987F48",
"+H c #A8894A",
"+G c #B2914B",
"+F c #BA994C",
"+E c #C3A150",
"+D c #B9994D",
"+C c #6F5A2D",
"+B c #705D30",
"+A c #B39953",
"+z c #C1A55E",
"+y c #C4A85F",
"+x c #C9AF68",
"+w c #CEB36F",
"+v c #D0B56F",
"+u c #D1B574",
"+t c #D6BC8D",
"+s c #DBC2A0",
"+r c #DBC5A9",
"+q c #948769",
"+p c #AB9F85",
"+o c #AC966B",
"+n c #B69E69",
"+m c #BAA56B",
"+l c #C6AC6B",
"+k c #B99E60",
"+j c #68522C",
"+i c #876F3F",
"+h c #CEB472",
"+g c #D0B879",
"+f c #CCB67C",
"+e c #CEB77C",
"+d c #D1B880",
"+c c #D3BF95",
"+b c #D3BB87",
"+a c #D2BE94",
"+0 c #C6BEA5",
"+9 c #D0C1A1",
"+8 c #B5A791",
"+7 c #635844",
"+6 c #85785F",
"+5 c #D2BF98",
"+4 c #D8C6A1",
"+3 c #918F85",
"+2 c #6A6756",
"+1 c #817F77",
"+| c #827F72",
"+} c #65604C",
"+[ c #939187",
"+< c #9D9D95",
"+: c #6D6A5A",
"+_ c #544D37",
"+( c #8D887B",
"+/ c #BAB7B2",
"+^ c #A5A49B",
"+] c #615C46",
"+{ c #53472E",
"+~ c #A19E97",
"+! c #7A7567",
"+) c #453E24",
"+' c #79715F",
"+, c #838077",
"+> c #575242",
"+; c #3F351C",
"+- c #908A7D",
"+= c #AAA8A3",
"+* c #7A7468",
"+& c #706854",
"+% c #9E988A",
"+$ c #A9A4A0",
"+# c #9A948D",
"+@ c #8D887C",
"++ c None",
"++++++++++++++++++++++++++++++++++++++++++++++++++++++++++++++++++++++++++++++++++++++++",
"++++++++++++++++++++++++++++++++++++++++++++++++++++++++++++++++++++++++++++++++++++++++",
"+++++++++++++++++++++++++++++++++++++++++++++++@+#+$++++++++++++++++++++++++++++++++++++",
"+++++++++++++++++++++++++++++++++++++++++++++%+&+*+=++++++++++++++++++++++++++++++++++++",
"+++++++++++++++++++++++++++++++++++++++++++++-+;+>+,++++++++++++++++++++++++++++++++++++",
"+++++++++++++++++++++++++++++++++++++++++++++'+)+!+~++++++++++++++++++++++++++++++++++++",
"+++++++++++++++++++++++++++++++++++++++++++++{+]+^+/++++++++++++++++++++++++++++++++++++",
"+++++++++++++++++++++++++++++++++++++++++++(+_+:+<++++++++++++++++++++++++++++++++++++++",
"+++++++++++++++++++++++++++++++++++++++++++[+}+|++++++++++++++++++++++++++++++++++++++++",
"+++++++++++++++++++++++++++++++++++++++++++1+2+3++++++++++++++++++++++++++++++++++++++++",
"+++++++++++++++++++++++++++++++++++++++4+5+6+7+8+9+0++++++++++++++++++++++++++++++++++++",
"+++++++++++++++++++++++++++a+b+c+d+e+f+g+h+i+j+k+l+m+n+o+p+q++++++++++++++++++++++++++++",
"+++++++++++++++++++++++r+s+t+u+v+w+x+y+z+A+B+C+D+E+F+G+H+I+J+K+L+M++++++++++++++++++++++",
"+++++++++++++++++++++N+O+P+Q+R+S+T+U+V+W+X+Y+Z@+@@@#@$@%@&@*@=@-@;@>++++++++++++++++++++",
"++++++++++++++++++@,@'@)@!@~@{@]@^@/@(@_@:@<@[@}@|@1@2@3@4@5@6@7@8@9@0++++++++++++++++++",
"++++++++++++++++@a@b@c@d@e@f@g@h@i@j@k@l@m@n@o@p@q@r@s@t@u@v@w@x@y@z@A@B++++++++++++++++",
"++++++++++++++@C@D@E@F@G@H@I@J@K@L@M@N@O@P@Q@R@S@T@U@V@W@X@Y@Z#+#@###$#%#&++++++++++++++",
"++++++++++++#*#=#-#;#>#,#'#)#!#~#{#]#^#/#(#_#:#<#[#}#|#1#2#3#4#5#6#7#8#9#0++++++++++++++",
"++++++++++++#a#b#c#d#e#f#g#h#i#j#k#l#m#n#o#p#q#r#s#t#u#v#w#x#y#z#A#B#C#D#E#F++++++++++++",
"++++++++++#G#H#I#J#K#L#M#N#O#P#Q#R#S#T#U#V#W#X#Y#Z$+$@$#$$$%$&$*$=$-$;$>$,$'$)++++++++++",
"++++++++++$!$~${$]$^$/$($_$:$<$[$}$|$1$2$3$4$4$5$6$7$8$9$0$a$b$c$d$e$f$g$h$i$j++++++++++",
"++++++++++$k$l$m$n$o$p$q$r$s$t$u$v$w$x$y$z$A$B$C$D$E$F$G$H$I$J$K$L$M$N$O$P$Q$R++++++++++",
"++++++++++$S$T$U$V$W$X$Y$Z%+%@%#%$%%%&%*%=%-%;%>%,%'%)%!%~%{%]%^%/%(%_%:%<%[%}++++++++++",
"++++++++++%|%1%2%3%4%5%6%7%8%9%0%a%b%%%c%d%e%f%g%h%i%j%k$I%l%m%n%o%p%q%r%s%t%u++++++++++",
"++++++++++%v%w%x%y%z%A%B%C%D%E%F%G%H%I%J%K%L%M%N%O%P%Q%R%S%T%U%V%W%X%Y%Z&+&@&#++++++++++",
"++++++++++&$&%&&&*&=&-&;&>&,&'&)&!&~&{&]&^&/%)&(&_&:&<&[&}&|&1&2&3&4&5&6&7&8&9++++++++++",
"++++++++++++&0&a&b&c&d&e&f&g&h&i&j&k&l&m&n&o&p&q&r&s&t&[&u&v&w&x&y&z&A&B&C&D&E++++++++++",
"++++++++++++&F&G&H&I&J&K&L&M&N&O&P&Q&R&S&T&U&V&W&X&Y&Z*+*@*#*$*%*&***=*-*;*>*,++++++++++",
"++++++++++++*'*)*!*~*{*]*^*/*(*_*:*<*[*}*|*1*2*3*4*5*6*7*8*9*0*a*b*c*d*e*f*g*h++++++++++",
"++++++++++++*i*j*k*l*m*n*o*p*q*r*s*t*u*v*w*x&p*3*y&s*z*A*B*C*D*E*F*G*H*I*J*K++++++++++++",
"++++++++++++++*L*M*N*O*P*Q*R*S*T*U*V*W*X*Y*Z=+=@=#=$=%=&=*===-=;=>=,='=)=!=~++++++++++++",
"++++++++++++++={=]=^=/=(=_=:=<=[=}=|=1=2=3=4=5=6=7=8=9=0=a=b=c=d=e=f=g=h=i=j++++++++++++",
"++++++++++++++=k=l=m=n=o=p=q=r=s=t=u=v=w=x=y=z=A=B=C=D=E=F=G=H=I=J=K=L=M=N++++++++++++++",
"++++++++++++++++=O=P=Q=R=S=T=U=V=W=X=Y=Z-+-@-#-$*$-%-&-*-=---;->-,-'-)-!-~++++++++++++++",
"++++++++++++++++-{-]-^-/-(-_-:-<-[-}-|-1-2-3-4%X-5-6-7-8-9-0-a-b-c-d-e-f++++++++++++++++",
"++++++++++++++++++-g-h-i-j-k-l-m-n-o-p-p-q-r-s-t-u-v-w-x-y-z-A-B-C-D-E++++++++++++++++++",
"++++++++++++++++++-F-G-H-I-J-K-L-M-N-O-P-Q-R-S-T-U-V-W-X-Y-Z;+;@;#;$;%++++++++++++++++++",
"++++++++++++++++++++;&;*;=;-;;;>;,;';);!;~;{;];^;/;(;_;:;<;[;};|;1;2++++++++++++++++++++",
"++++++++++++++++++++++;3;4;5;6;7;8;9;0;a;b;c;d;e;f;g;h;i;j;k;l;m;n++++++++++++++++++++++",
"++++++++++++++++++++++;o;p;q;r;s;t;u;v;w;x;y;z;A;B;C;D;E;F;G;H;I;J++++++++++++++++++++++",
"++++++++++++++++++++++++++++;K;L;M;N;O;P;Q;R;S;T;U;V;W;X;Y;Z>+>@++++++++++++++++++++++++",
"++++++++++++++++++++++++++++++>#>$>%>&>*>=>->;>>>,>'>)>!>~>{++++++++++++++++++++++++++++",
"++++++++++++++++++++++++++++++++++++>]>^>/>(>_>:><>[>}++++++++++++++++++++++++++++++++++",
"++++++++++++++++++++++++++++++++++++++++++++++++++++++++++++++++++++++++++++++++++++++++"};
