/* XPM */
static char * ball_red_xpm[] = {
"44 44 794 2",
"-S c #847978",
"-R c #736665",
"-Q c #938A8A",
"-P c #A39D9B",
"-O c #9E918F",
"-N c #80625F",
"-M c #6A4C48",
"-L c #7C6866",
"-K c #877B79",
"-J c #928E8E",
"-I c #947D7A",
"-H c #764B44",
"-G c #5B1913",
"-F c #53100A",
"-E c #481511",
"-D c #583A36",
"-C c #756764",
"-B c #7C7170",
"-A c #936F6B",
"-z c #81554D",
"-y c #71372F",
"-x c #580604",
"-w c #500300",
"-v c #4D0500",
"-u c #430400",
"-t c #390302",
"-s c #492420",
"-r c #665351",
"-q c #65524F",
"-p c #8A5B55",
"-o c #732F27",
"-n c #590502",
"-m c #560600",
"-l c #510900",
"-k c #4C0A01",
"-j c #480A01",
"-i c #420500",
"-h c #380200",
"-g c #451B17",
"-f c #543733",
"-e c #6C5855",
"-d c #85443B",
"-c c #71271E",
"-b c #5D0602",
"-a c #550A00",
"-0 c #520A01",
"-9 c #4B0800",
"-8 c #480900",
"-7 c #430701",
"-6 c #390200",
"-5 c #3D1310",
"-4 c #5F4642",
"-3 c #827673",
"-2 c #90524A",
"-1 c #78281E",
"-| c #610702",
"-} c #5C0901",
"-[ c #5A0C01",
"-< c #540A00",
"-: c #510A01",
"-_ c #4E0A00",
"-( c #470800",
"-/ c #440800",
"-^ c #3F0701",
"-] c #340200",
"-{ c #310D0B",
"-~ c #5B4441",
"-! c #918987",
"-) c #9A655D",
"-' c #8D4B42",
"-, c #762319",
"-> c #630600",
"-; c #620A01",
"-- c #5C0B01",
"-= c #580B00",
"-* c #560B01",
"-& c #500900",
"-% c #4C0800",
"-$ c #4E0A01",
"-# c #4A0A00",
"-@ c #430700",
"-+ c #420700",
"=Z c #3B0701",
"=Y c #2F0200",
"=X c #2C0504",
"=W c #533A36",
"=V c #7B7170",
"=U c #9C665F",
"=T c #8F4F47",
"=S c #782218",
"=R c #690600",
"=Q c #670A01",
"=P c #620C01",
"=O c #5A0A00",
"=N c #590B01",
"=M c #4D0901",
"=L c #4F0B01",
"=K c #500B01",
"=J c #460901",
"=I c #430801",
"=H c #440900",
"=G c #3F0700",
"=F c #3A0300",
"=E c #2E0403",
"=D c #4C302D",
"=C c #65514F",
"=B c #A77671",
"=A c #96574F",
"=z c #7C2419",
"=y c #6B0801",
"=x c #6A0A00",
"=w c #670C01",
"=v c #620B00",
"=u c #620D01",
"=t c #570C01",
"=s c #500800",
"=r c #500A01",
"=q c #4D0900",
"=p c #520B00",
"=o c #4B0C01",
"=n c #450800",
"=m c #4C0901",
"=l c #4B0A01",
"=k c #460B02",
"=j c #3E0501",
"=i c #370503",
"=h c #51302C",
"=g c #6C5957",
"=f c #AE8D88",
"=e c #9B6058",
"=d c #80271C",
"=c c #720801",
"=b c #710B00",
"=a c #6A0C01",
"=0 c #690B00",
"=9 c #710E01",
"=8 c #6E1102",
"=7 c #620D02",
"=6 c #630C01",
"=5 c #670D01",
"=4 c #610E02",
"=3 c #540A01",
"=2 c #550B01",
"=1 c #530A00",
"=| c #4E0C01",
"=} c #4A0B01",
"=[ c #4F0A01",
"=< c #4B0700",
"=: c #400604",
"=_ c #5E423E",
"=( c #847A77",
"=/ c #A1726B",
"=^ c #853428",
"=] c #710500",
"={ c #791002",
"=~ c #6F0C00",
"=! c #770D01",
"=) c #751503",
"=' c #691102",
"=, c #700D01",
"=> c #711002",
"=; c #6D0F02",
"=- c #691203",
"== c #5E1104",
"=* c #600B01",
"=& c #630D01",
"=% c #570D02",
"=$ c #550C01",
"=# c #520C01",
"=@ c #530B01",
"=+ c #500F03",
"*Z c #460700",
"*Y c #48110B",
"*X c #674A45",
"*W c #6B524F",
"*V c #AB7C76",
"*U c #964F45",
"*T c #780B05",
"*S c #780B00",
"*R c #7A1001",
"*Q c #771102",
"*P c #6E0C00",
"*O c #720C00",
"*N c #770F01",
"*M c #7A0F01",
"*L c #771002",
"*K c #6E0F02",
"*J c #790E01",
"*I c #7C1403",
"*H c #6C1404",
"*G c #6C0D01",
"*F c #6D1102",
"*E c #5D0E02",
"*D c #5D0D03",
"*C c #5C0D02",
"*B c #580D02",
"*A c #520D02",
"*z c #4E0C02",
"*y c #4B0400",
"*x c #4F1A13",
"*w c #765A56",
"*v c #9D8E8D",
"*u c #9D5A50",
"*t c #852317",
"*s c #7A0700",
"*r c #7B1002",
"*q c #760F01",
"*p c #7D1404",
"*o c #711303",
"*n c #770C00",
"*m c #830D00",
"*l c #901102",
"*k c #861704",
"*j c #761504",
"*i c #801203",
"*h c #851303",
"*g c #7D1604",
"*f c #751805",
"*e c #741202",
"*d c #731404",
"*c c #651506",
"*b c #621003",
"*a c #690D01",
"*0 c #650C01",
"*9 c #600D02",
"*8 c #5B0C01",
"*7 c #4C0503",
"*6 c #714540",
"*5 c #907774",
"*4 c #A9766F",
"*3 c #994C41",
"*2 c #7C0701",
"*1 c #7D0D01",
"*| c #800F01",
"*} c #811102",
"*[ c #861102",
"*< c #881906",
"*: c #821D07",
"*_ c #861403",
"*( c #891504",
"*/ c #911203",
"*^ c #971402",
"*] c #941603",
"*{ c #901905",
"*~ c #8A1906",
"*! c #891C07",
"*) c #821E07",
"*' c #8B1403",
"*, c #971905",
"*> c #841604",
"*; c #821403",
"*- c #861504",
"*= c #701504",
"** c #6D1103",
"*& c #6C1104",
"*% c #580800",
"*$ c #5B1D14",
"*# c #835C53",
"*@ c #A28982",
"*+ c #A36760",
"&Z c #8A271D",
"&Y c #7F0700",
"&X c #820F02",
"&W c #880E01",
"&V c #8C1102",
"&U c #8F1302",
"&T c #941202",
"&S c #9D1703",
"&R c #982009",
"&Q c #88230A",
"&P c #951805",
"&O c #A11A06",
"&N c #9D1E08",
"&M c #9F1A05",
"&L c #A81A05",
"&K c #A61906",
"&J c #A51A06",
"&I c #AB1A06",
"&H c #AA1E0A",
"&G c #9E260F",
"&F c #9C230D",
"&E c #9F1C07",
"&D c #8D1A05",
"&C c #861706",
"&B c #781806",
"&A c #661304",
"&z c #590801",
"&y c #7F4D42",
"&x c #98766F",
"&w c #A2635A",
"&v c #830E05",
"&u c #860E01",
"&t c #8A1002",
"&s c #8E1604",
"&r c #901604",
"&q c #9D1503",
"&p c #A41A06",
"&o c #A91D07",
"&n c #A22008",
"&m c #AF1E07",
"&l c #A3290E",
"&k c #9A2D11",
"&j c #AB1C07",
"&i c #B4210A",
"&h c #AC2810",
"&g c #B2220F",
"&f c #B02C17",
"&e c #A42E18",
"&d c #9F351B",
"&c c #992C12",
"&b c #AB1D07",
"&a c #B21C07",
"&0 c #A51B07",
"&9 c #961906",
"&8 c #8B1706",
"&7 c #7E0E01",
"&6 c #792C1F",
"&5 c #8F665E",
"&4 c #A87770",
"&3 c #964137",
"&2 c #890900",
"&1 c #931202",
"&| c #9C1403",
"&} c #9E1B07",
"&[ c #A11C06",
"&< c #AF220A",
"&: c #A32B10",
"&_ c #A41F08",
"&( c #B31804",
"&/ c #BA1A05",
"&^ c #BC1E07",
"&] c #B1230A",
"&{ c #B2230A",
"&~ c #BF200B",
"&! c #B4331C",
"&) c #A53619",
"&' c #B2240E",
"&, c #BB2E16",
"&> c #AF2A12",
"&; c #B2230C",
"&- c #B41D08",
"&= c #B82815",
"&* c #A93119",
"&& c #A7220B",
"&% c #AF1C07",
"&$ c #A51C09",
"&# c #961806",
"&@ c #851608",
"&+ c #9A635A",
"%Z c #A4574E",
"%Y c #972F23",
"%X c #900D00",
"%W c #9F1403",
"%V c #AE1704",
"%U c #B21906",
"%T c #B61A05",
"%S c #BB220A",
"%R c #B8280E",
"%Q c #BA2309",
"%P c #BF2008",
"%O c #C12109",
"%N c #C5230A",
"%M c #C72208",
"%L c #C6250C",
"%K c #C32D15",
"%J c #BD270D",
"%I c #C11F06",
"%H c #CB2309",
"%G c #C92209",
"%F c #CB260E",
"%E c #CD341E",
"%D c #BD321C",
"%C c #AC3017",
"%B c #B3290F",
"%A c #B3240E",
"%z c #A9210B",
"%y c #9D2009",
"%x c #931503",
"%w c #98493A",
"%v c #A77C73",
"%u c #A45045",
"%t c #9B2E20",
"%s c #991200",
"%r c #A91804",
"%q c #B81904",
"%p c #BF1B06",
"%o c #B81E08",
"%n c #B72009",
"%m c #CB2B10",
"%l c #D23716",
"%k c #D03716",
"%j c #CE3314",
"%i c #D13110",
"%h c #D23515",
"%g c #C53A19",
"%f c #C12A0C",
"%e c #CF2308",
"%d c #CD2E14",
"%c c #C3321B",
"%b c #C53A25",
"%a c #CC3D24",
"%0 c #CB3B24",
"%9 c #C44F35",
"%8 c #BB3C1F",
"%7 c #CF270C",
"%6 c #C3280E",
"%5 c #BD260C",
"%4 c #B6240A",
"%3 c #AC1B04",
"%2 c #A33827",
"%1 c #A3594E",
"%| c #A55045",
"%} c #A02E20",
"%[ c #A01201",
"%< c #B01A05",
"%: c #BC1904",
"%_ c #BE1D07",
"%( c #BC280D",
"%/ c #C02F11",
"%^ c #D53D1A",
"%] c #E04E26",
"%{ c #DF4E26",
"%~ c #D0451D",
"%! c #C63512",
"%) c #D03515",
"%' c #CE391A",
"%, c #CE2B0C",
"%> c #D82B0F",
"%; c #D54830",
"%- c #CE5942",
"%= c #CE5C46",
"%* c #CF5B44",
"%& c #D24F3A",
"%% c #D2523A",
"%$ c #CE492F",
"%# c #D1391F",
"%@ c #CD381B",
"%+ c #CF2B0F",
"$Z c #CF290B",
"$Y c #C02C0F",
"$X c #B72408",
"$W c #AE3725",
"$V c #A95145",
"$U c #A63E30",
"$T c #A21000",
"$S c #B21905",
"$R c #B61B06",
"$Q c #B32109",
"$P c #C6260B",
"$O c #D83614",
"$N c #DE4520",
"$M c #DB4D26",
"$L c #DC4F27",
"$K c #D04B21",
"$J c #C63C17",
"$I c #D63D1A",
"$H c #DD3A18",
"$G c #D82D0E",
"$F c #D93212",
"$E c #DC4B2F",
"$D c #E36F59",
"$C c #EA8A78",
"$B c #E27F6B",
"$A c #DD6954",
"$z c #E56651",
"$y c #D8553C",
"$x c #C73D22",
"$w c #C13E20",
"$v c #CD3818",
"$u c #D82E0F",
"$t c #C92E10",
"$s c #B8290B",
"$r c #B5402A",
"$q c #BA5D4E",
"$p c #AE574B",
"$o c #AA1706",
"$n c #B31703",
"$m c #B61E08",
"$l c #BC220A",
"$k c #CC2309",
"$j c #D42F10",
"$i c #D23C18",
"$h c #C93C19",
"$g c #CE441E",
"$f c #DF5229",
"$e c #E3552A",
"$d c #E35228",
"$c c #D8481F",
"$b c #D23714",
"$a c #D53916",
"$0 c #E17966",
"$9 c #F8B8AF",
"$8 c #E68F7D",
"$7 c #D6634B",
"$6 c #E4725F",
"$5 c #E05E46",
"$4 c #D73D1F",
"$3 c #D03415",
"$2 c #CB3D18",
"$1 c #D83512",
"$| c #DE2B0C",
"$} c #CA2505",
"$[ c #C0543E",
"$< c #C78577",
"$: c #B26E65",
"$_ c #AF3424",
"$( c #B31000",
"$/ c #BF1C06",
"$^ c #C81F07",
"$] c #CA2309",
"${ c #C82D0E",
"$~ c #CB3B17",
"$! c #D4431E",
"$) c #DC5128",
"$' c #E5582C",
"$, c #DF5027",
"$> c #DE4C24",
"$; c #D34921",
"$- c #D2411C",
"$= c #D94D30",
"$* c #D96D55",
"$& c #E78D7C",
"$% c #F3B1A6",
"$$ c #ED9F91",
"$# c #E47C67",
"$@ c #E37259",
"$+ c #DA6247",
"#Z c #DB4326",
"#Y c #DE3011",
"#X c #D63814",
"#W c #D63B16",
"#V c #DE2F0D",
"#U c #D62E0F",
"#T c #C96956",
"#S c #CAA59C",
"#R c #B9817B",
"#Q c #B25246",
"#P c #AF1606",
"#O c #BA1803",
"#N c #C11F08",
"#M c #C8240A",
"#L c #D02A0D",
"#K c #E44B24",
"#J c #E85B2F",
"#I c #E4592D",
"#H c #D74922",
"#G c #DA4B23",
"#F c #E14E27",
"#E c #E44923",
"#D c #E96144",
"#C c #EC8B7B",
"#B c #E67E6A",
"#A c #E2765D",
"#z c #F19D8F",
"#y c #E87E68",
"#x c #D24827",
"#w c #C33F1F",
"#v c #CA371B",
"#u c #DE3312",
"#t c #E03914",
"#s c #DA3C16",
"#r c #DC2D08",
"#q c #D94D32",
"#p c #D1887A",
"#o c #BA817A",
"#n c #BE817A",
"#m c #B73E2F",
"#l c #B01001",
"#k c #B71A06",
"#j c #C52008",
"#i c #D02509",
"#h c #DC2D0E",
"#g c #DF3917",
"#f c #DC4820",
"#e c #DA4D23",
"#d c #DD4F26",
"#c c #E25127",
"#b c #E54721",
"#a c #E7421D",
"#0 c #E55432",
"#9 c #E36C53",
"#8 c #E2694F",
"#7 c #E5765C",
"#6 c #F08C7A",
"#5 c #E3634C",
"#4 c #C63217",
"#3 c #B4270D",
"#2 c #BB3115",
"#1 c #D53A19",
"#| c #E43A14",
"#} c #E6350E",
"#[ c #E13713",
"#< c #D46D58",
"#: c #D2A69F",
"#_ c #CB9C99",
"#( c #C36D62",
"#/ c #BA2E1C",
"#^ c #B00E00",
"#] c #B11A05",
"#{ c #C32107",
"#~ c #D22709",
"#! c #D33110",
"#) c #D83813",
"#' c #D83C18",
"#, c #DA3F1B",
"#> c #DA3917",
"#; c #D63613",
"#- c #DB3714",
"#= c #DF431F",
"#* c #E15734",
"#& c #E96548",
"#% c #EA795F",
"#$ c #E16A50",
"## c #C6482D",
"#@ c #A43019",
"#+ c #9D210E",
"@Z c #BD260B",
"@Y c #E23110",
"@X c #E8350F",
"@W c #E6330A",
"@V c #DB664D",
"@U c #CFA399",
"@T c #C6948B",
"@S c #BD7062",
"@R c #B42313",
"@Q c #AC0F00",
"@P c #B81402",
"@O c #C72308",
"@N c #D0300E",
"@M c #DF300E",
"@L c #E13110",
"@K c #DB300F",
"@J c #CA3311",
"@I c #B54621",
"@H c #CA3515",
"@G c #E5300F",
"@F c #EA4E2A",
"@E c #E95C3B",
"@D c #E15132",
"@C c #C7381D",
"@B c #9C1F0B",
"@A c #771408",
"@z c #8B1204",
"@y c #C12B0D",
"@x c #D54921",
"@w c #DC3B15",
"@v c #E25638",
"@u c #D8A196",
"@t c #D0CBC9",
"@s c #9FA188",
"@r c #A35D47",
"@q c #AE190B",
"@p c #B00600",
"@o c #B41002",
"@n c #C61D06",
"@m c #D72509",
"@l c #DE280A",
"@k c #DD2206",
"@j c #B93A19",
"@i c #8E7E51",
"@h c #A85D39",
"@g c #DC1F04",
"@f c #ED3511",
"@e c #E74825",
"@d c #CE361B",
"@c c #A61C09",
"@b c #7D0400",
"@a c #660400",
"@0 c #7D2F15",
"@9 c #9E7446",
"@8 c #AE7B4C",
"@7 c #C96546",
"@6 c #D7978B",
"@5 c #D5BBB7",
"@4 c #92A787",
"@3 c #7D8F62",
"@2 c #88663B",
"@1 c #993519",
"@| c #9D1206",
"@} c #A40701",
"@[ c #A80B01",
"@< c #AF1402",
"@: c #B31200",
"@_ c #963E1F",
"@( c #82A872",
"@/ c #8FA975",
"@^ c #B24323",
"@] c #CE2305",
"@{ c #C4260A",
"@~ c #A01E08",
"@! c #7D1C09",
"@) c #6D2C18",
"@' c #745B38",
"@, c #849966",
"@> c #89B177",
"@; c #9D8E63",
"@- c #BB9983",
"@= c #C9B8B1",
"@* c #A6B19B",
"@& c #8CA47E",
"@% c #7D9D68",
"@$ c #82905D",
"@# c #826D44",
"@@ c #7D4529",
"@+ c #71331D",
"+Z c #63371D",
"+Y c #543214",
"+X c #625F32",
"+W c #82A46B",
"+V c #80A870",
"+U c #7F8253",
"+T c #846335",
"+S c #7C5A2D",
"+R c #775F32",
"+Q c #787445",
"+P c #829361",
"+O c #90B27D",
"+N c #98C18E",
"+M c #99B788",
"+L c #A0A481",
"+K c #A9A086",
"+J c #A7B29D",
"+I c #9DB193",
"+H c #94B58C",
"+G c #94B587",
"+F c #8FAA7D",
"+E c #86A075",
"+D c #78966C",
"+C c #6B8B5F",
"+B c #7C9B6C",
"+A c #809864",
"+z c #5B6F3A",
"+y c #688C5A",
"+x c #85AD7C",
"+w c #87AC7A",
"+v c #8AAE7A",
"+u c #92B47E",
"+t c #98B785",
"+s c #9AB888",
"+r c #A3BA94",
"+q c #AABD9F",
"+p c #ADBFA4",
"+o c #A0B99E",
"+n c #A1BC9C",
"+m c #BAC7B2",
"+l c #B7CBB3",
"+k c #AFC9AB",
"+j c #ABC0A2",
"+i c #A9BB9C",
"+h c #B2C0A9",
"+g c #98A087",
"+f c #5A683B",
"+e c #7B8F6A",
"+d c #AABFA1",
"+c c #B0C3A6",
"+b c #B4C3AB",
"+a c #ADBDA0",
"+0 c #AEBDA1",
"+9 c #A8BC99",
"+8 c #A6BB98",
"+7 c #81856E",
"+6 c #707E59",
"+5 c #90A185",
"+4 c #8B8E79",
"+3 c #636D45",
"+2 c #738458",
"+1 c #A5B29B",
"+| c #899079",
"+} c #6A784E",
"+[ c #7B9162",
"+< c #B4C0AB",
"+: c #7D826B",
"+_ c #6D7956",
"+( c #718659",
"+/ c #9DB192",
"+^ c #7F866C",
"+] c #67754F",
"+{ c #90A281",
"+~ c #B9C7B4",
"+! c #7A8669",
"+) c #73825B",
"+' c #7C8F69",
"+, c #A6B39D",
"+> c #C4CEC1",
"+; c #ABACA2",
"+- c #788364",
"+= c #75895F",
"+* c #A6B79D",
"+& c #B7B8B1",
"+% c #A1A793",
"+$ c #99A78C",
"+# c #B0BFAA",
"+@ c #C8CAC5",
"++ c None",
"++++++++++++++++++++++++++++++++++++++++++++++++++++++++++++++++++++++++++++++++++++++++",
"++++++++++++++++++++++++++++++++++++++++++++++++++++++++++++++++++++++++++++++++++++++++",
"+++++++++++++++++++++++++++++++++++++++++++++++++++++@+@++++++++++++++++++++++++++++++++",
"+++++++++++++++++++++++++++++++++++++++++++++++++#+$+%+&++++++++++++++++++++++++++++++++",
"+++++++++++++++++++++++++++++++++++++++++++++++++*+=+-+;++++++++++++++++++++++++++++++++",
"+++++++++++++++++++++++++++++++++++++++++++++>+,+'+)+!++++++++++++++++++++++++++++++++++",
"+++++++++++++++++++++++++++++++++++++++++++++~+{+]+^++++++++++++++++++++++++++++++++++++",
"+++++++++++++++++++++++++++++++++++++++++++++/+(+_+:++++++++++++++++++++++++++++++++++++",
"+++++++++++++++++++++++++++++++++++++++++++<+[+}+|++++++++++++++++++++++++++++++++++++++",
"+++++++++++++++++++++++++++++++++++++++++++1+2+3+4++++++++++++++++++++++++++++++++++++++",
"+++++++++++++++++++++++++++++++++++++++++++5+6+7++++++++++++++++++++++++++++++++++++++++",
"+++++++++++++++++++++++++++++8+9+0+a+b+c+d+e+f+g+h+i+j+k+l+m+n+o++++++++++++++++++++++++",
"+++++++++++++++++++++++++p+q+r+s+t+u+v+w+x+y+z+A+B+C+D+E+F+G+H+I+J++++++++++++++++++++++",
"+++++++++++++++++++++++K+L+M+N+O+P+Q+R+S+T+U+V+W+X+Y+Z@+@@@#@$@%@&@*++++++++++++++++++++",
"++++++++++++++++++++@=@-@;@>@,@'@)@!@~@{@]@^@/@(@_@:@<@[@}@|@1@2@3@4++++++++++++++++++++",
"++++++++++++++++++@5@6@7@8@9@0@a@b@c@d@e@f@g@h@i@j@k@l@m@n@o@p@q@r@s++++++++++++++++++++",
"++++++++++++++++@t@u@v@w@x@y@z@A@B@C@D@E@F@G@H@I@J@K@L@M@N@O@P@Q@R@S@T++++++++++++++++++",
"++++++++++++++++@U@V@W@X@Y@Z#+#@###$#%#&#*#=#-#;#>#,#'#)#!#~#{#]#^#/#(#_++++++++++++++++",
"++++++++++++++#:#<#[#}#|#1#2#3#4#5#6#7#8#9#0#a#b#c#d#e#f#g#h#i#j#k#l#m#n#o++++++++++++++",
"++++++++++++++#p#q#r#s#t#u#v#w#x#y#z#A#B#C#D#E#F#G#H#I#J#K#>#L#M#N#O#P#Q#R++++++++++++++",
"++++++++++++#S#T#U#V#W#X#Y#Z$+$@$#$$$%$&$*$=$-$;$>$,$'$)$!$~${$]$^$/$($_$:++++++++++++++",
"++++++++++++$<$[$}$|$1$2$3$4$5$6$7$8$9$0#x$a$b$c$d$e$f$g$h$i$j$k$l$m$n$o$p++++++++++++++",
"++++++++++++$q$r$s$t$u$v$w$x$y$z$A$B$C$D$E$F$G$H$I$J$K$L$M$N$O$P$Q$R$S$T$U++++++++++++++",
"++++++++++++$V$W$X$Y$Z%+%@%#%$%%%&%*%=%-%;%>%,%'%)%!%~%{%]%^%/%(%_%:%<%[%}%|++++++++++++",
"++++++++++++%1%2%3%4%5%6%7#M%8%9%0%a%b%c%d%e%f%g%h%i%j%k%l%m%n%o%p%q%r%s%t%u++++++++++++",
"++++++++++++%v%w%x%y%z%A%B%C%D%E%F%G%H%I%J%K%L%M#M%N%O%P%Q%R%S%T%U%V%W%X%Y%Z++++++++++++",
"++++++++++++++&+&@&#&$&%&&&*&=&-&;&>&,&'&)&!&~&{&]&^&/&(&_&:&<&[&}&|&1&2&3&4++++++++++++",
"++++++++++++++&5&6&7&8&9&0&a&b&c&d&e&f&g&h&i&j&k&l&m&n&o&p&}&q&r&s&t&u&v&w++++++++++++++",
"++++++++++++++&x&y&z&A&B&C&D&E&F&G&H&I&J&K&L&M&N&O&P&Q&R&S&T&U&V&W&X&Y&Z*+++++++++++++++",
"++++++++++++++*@*#*$*%*&***=*-*;*>*,*'*)*!*~*{*]*^*/*(*_*:*<*[*}*|*1*2*3*4++++++++++++++",
"++++++++++++++++*5*6*7*8*9*0*a*b*c*d*e*f*g*h*i*j*k*l*m*n*o*p&7*q*r*s*t*u++++++++++++++++",
"++++++++++++++++*v*w*x*y*z*A*B*C*D*E*F*G*H*I*J*K*L*M*N*O*P*Q*R*N*S*T*U*V++++++++++++++++",
"++++++++++++++++++*W*X*Y*Z=+=@=#=$=%=&=*===-=;=>=,='=)=!=~=>={*n=]=^=/++++++++++++++++++",
"++++++++++++++++++++=(=_=:=<=[=}=|=@=1=2=3=2=4=5=6=7=8=9=0=a=b=c=d=e=f++++++++++++++++++",
"++++++++++++++++++++++=g=h=i=j=k=l=m=n=o=p=q=r=s=t=u=v=6=w=x=y=z=A=B++++++++++++++++++++",
"++++++++++++++++++++++++=C=D=E=F=G=H=I=J=K=L=m=M=2=N=O=P=Q=R=S=T=U++++++++++++++++++++++",
"++++++++++++++++++++++++++=V=W=X=Y=Z-+-@-#-$-%-&-*-=---;->-,-'-)++++++++++++++++++++++++",
"++++++++++++++++++++++++++++-!-~-{-]-^-/-(-_-:-:-<-[-}-|-1-2++++++++++++++++++++++++++++",
"++++++++++++++++++++++++++++++-3-4-5-6-7-8-9=[-0-a&z-b-c-d++++++++++++++++++++++++++++++",
"++++++++++++++++++++++++++++++++-e-f-g-h-i-j-k-l-m-n-o-p++++++++++++++++++++++++++++++++",
"++++++++++++++++++++++++++++++++++-q-r-s-t-u-v-w-x-y-z-A++++++++++++++++++++++++++++++++",
"++++++++++++++++++++++++++++++++++++-B-C-D-E-F-G-H-I++++++++++++++++++++++++++++++++++++",
"++++++++++++++++++++++++++++++++++++++-J-K-L-M-N-O-P++++++++++++++++++++++++++++++++++++",
"++++++++++++++++++++++++++++++++++++++++++-Q-R-S++++++++++++++++++++++++++++++++++++++++"};
